<svg width="16" height="16" viewBox="0 0 16 16" fill="none" xmlns="http://www.w3.org/2000/svg">
<g clip-path="url(#clip0_5325_3278)">
<path d="M7.64181 0.0349506C8.1152 -0.060423 8.62359 0.0402005 9.02261 0.310571C9.42775 0.580942 9.71826 1.01756 9.80401 1.49705C9.89764 1.9853 9.78039 2.51029 9.48638 2.91103C9.19674 3.31265 8.73822 3.58827 8.24645 3.65214C7.75731 3.72039 7.24279 3.5804 6.85777 3.27065C6.48501 2.97665 6.2365 2.53304 6.1805 2.06142C6.121 1.5933 6.24963 1.10418 6.53576 0.728815C6.80265 0.372695 7.20341 0.119824 7.64093 0.0349506H7.64181Z" fill="#B0CB1F"/>
<path d="M7.67672 12.3592C8.14487 12.2743 8.64451 12.3802 9.03653 12.6514C9.44167 12.9271 9.72955 13.3707 9.80918 13.8554C9.90369 14.3909 9.74268 14.964 9.38129 15.37C9.0794 15.7191 8.64189 15.9466 8.18249 15.9904C7.70298 16.0403 7.20596 15.8906 6.83582 15.5818C6.47355 15.286 6.23379 14.8468 6.18042 14.3822C6.12179 13.9071 6.25829 13.4109 6.55493 13.0347C6.82882 12.6812 7.23658 12.4353 7.67672 12.3592ZM4.54673 3.12022C4.99825 3.02572 5.48301 3.10972 5.87503 3.35209C6.30555 3.61371 6.61968 4.05908 6.71594 4.55432C6.81744 5.04519 6.70544 5.57543 6.4123 5.9823C6.13054 6.38129 5.68165 6.65866 5.19688 6.72954C4.69811 6.80829 4.16871 6.66916 3.77495 6.35242C3.38643 6.0453 3.13092 5.57543 3.0898 5.08106C3.04779 4.62695 3.18342 4.15795 3.46431 3.79833C3.72945 3.45359 4.11971 3.20684 4.54585 3.11934L4.54673 3.12022ZM10.6947 3.12372C11.1384 3.0266 11.617 3.10184 12.0081 3.33197C12.4632 3.59621 12.7957 4.06433 12.8876 4.5832C12.9751 5.04694 12.8744 5.54218 12.611 5.9333C12.3275 6.36292 11.8541 6.66304 11.3431 6.73216C10.8697 6.80129 10.371 6.67529 9.98769 6.38829C9.6018 6.10305 9.33754 5.6603 9.27016 5.18606C9.20016 4.72232 9.31654 4.23233 9.5913 3.85171C9.85293 3.48334 10.2546 3.21822 10.6965 3.12372H10.6947ZM1.42811 6.21067C1.856 6.11355 2.31802 6.1748 2.70391 6.38392C3.16855 6.63241 3.51681 7.09003 3.62707 7.60627C3.7242 8.04289 3.65419 8.51538 3.43018 8.90388C3.1738 9.35537 2.71966 9.69137 2.20951 9.79549C1.74049 9.89524 1.23385 9.80074 0.833083 9.53649C0.448068 9.2845 0.160182 8.88638 0.0525525 8.43839C-0.0655771 7.96589 0.0158011 7.44703 0.274811 7.03403C0.530321 6.62191 0.953838 6.31654 1.42723 6.21155L1.42811 6.21067ZM7.60322 6.20892C8.06436 6.10567 8.56401 6.18967 8.96565 6.43992C9.36379 6.68491 9.66393 7.08741 9.77768 7.54152C9.90806 8.04202 9.81443 8.59588 9.52305 9.02288C9.22991 9.46125 8.74164 9.76224 8.21662 9.82174C7.73185 9.88211 7.22608 9.73599 6.84807 9.42712C6.4753 9.12875 6.22942 8.67988 6.17867 8.20476C6.12791 7.7629 6.24342 7.3044 6.50155 6.94128C6.76144 6.57204 7.16133 6.30429 7.60322 6.20892ZM13.7495 6.21417C14.1774 6.11355 14.6402 6.17217 15.0279 6.38042C15.4444 6.60091 15.7708 6.98766 15.9134 7.4374C16.0727 7.92739 16.0123 8.48563 15.7489 8.92838C15.5127 9.33175 15.118 9.63887 14.6682 9.76486C14.264 9.88036 13.8212 9.85061 13.4362 9.68174C12.9558 9.47349 12.5717 9.05 12.4168 8.54863C12.268 8.08227 12.3179 7.5564 12.5533 7.12591C12.7992 6.67091 13.2446 6.32879 13.7495 6.2133V6.21417ZM4.65436 9.26787C5.1505 9.19437 5.67377 9.33437 6.06404 9.65024C6.4473 9.95299 6.69844 10.415 6.74394 10.9015C6.79644 11.4081 6.62493 11.9322 6.2828 12.3093C5.94853 12.6847 5.45326 12.9096 4.95099 12.9157C4.45835 12.9271 3.96483 12.7276 3.61832 12.3767C3.29368 12.0547 3.09855 11.6076 3.08367 11.15C3.06354 10.6792 3.23593 10.2041 3.55356 9.85674C3.83707 9.53999 4.23347 9.3265 4.65436 9.26787ZM10.7988 9.2705C11.2714 9.19612 11.7719 9.31425 12.1586 9.59687C12.5515 9.87949 12.8254 10.3222 12.8954 10.8017C12.9759 11.3101 12.8298 11.8482 12.5017 12.2446C12.1998 12.6164 11.7456 12.8597 11.2687 12.9061C10.8365 12.9516 10.3902 12.8369 10.0341 12.5876C9.6158 12.2997 9.32879 11.8298 9.26404 11.3258C9.19666 10.8393 9.33491 10.3284 9.64205 9.94511C9.92381 9.58549 10.3456 9.33875 10.798 9.26962L10.7988 9.2705Z" fill="#E51A4B"/>
</g>
<defs>
<clipPath id="clip0_5325_3278">
<rect width="16" height="16" fill="white"/>
</clipPath>
</defs>
</svg>
