<svg width="278" height="54" viewBox="0 0 278 54" fill="none" xmlns="http://www.w3.org/2000/svg">
<path d="M7.68599 9.78598V2.36598H3.84999L3.77999 4.10198C3.75199 4.75531 3.70999 5.37598 3.65399 5.96398C3.60732 6.54264 3.52799 7.06998 3.41599 7.54598C3.31332 8.02198 3.16865 8.41864 2.98199 8.73598C2.79532 9.05331 2.56665 9.26331 2.29599 9.36598L0.335986 9.08598C0.690652 9.10464 0.979986 8.98331 1.20399 8.72198C1.43732 8.46064 1.61932 8.09664 1.74999 7.62998C1.88065 7.16331 1.97865 6.61731 2.04399 5.99198C2.10932 5.35731 2.15599 4.67131 2.18399 3.93398L2.29599 0.825976H9.47799V9.78598H7.68599ZM-1.43982e-05 12.712L0.0139856 9.08598H10.892V12.712H9.21199V10.626H1.69399V12.712H-1.43982e-05ZM15.6186 10.724C14.8533 10.724 14.172 10.5606 13.5746 10.234C12.9773 9.89798 12.506 9.44064 12.1606 8.86198C11.8153 8.28331 11.6426 7.62531 11.6426 6.88798C11.6426 6.14131 11.8153 5.48331 12.1606 4.91398C12.506 4.33531 12.9773 3.88264 13.5746 3.55598C14.172 3.22931 14.8533 3.06598 15.6186 3.06598C16.3933 3.06598 17.0793 3.22931 17.6766 3.55598C18.2833 3.88264 18.7546 4.33064 19.0906 4.89998C19.436 5.46931 19.6086 6.13198 19.6086 6.88798C19.6086 7.62531 19.436 8.28331 19.0906 8.86198C18.7546 9.44064 18.2833 9.89798 17.6766 10.234C17.0793 10.5606 16.3933 10.724 15.6186 10.724ZM15.6186 9.22598C16.048 9.22598 16.4306 9.13264 16.7666 8.94598C17.1026 8.75931 17.364 8.48864 17.5506 8.13398C17.7466 7.77931 17.8446 7.36398 17.8446 6.88798C17.8446 6.40264 17.7466 5.98731 17.5506 5.64198C17.364 5.28731 17.1026 5.01664 16.7666 4.82998C16.4306 4.64331 16.0526 4.54998 15.6326 4.54998C15.2033 4.54998 14.8206 4.64331 14.4846 4.82998C14.158 5.01664 13.8966 5.28731 13.7006 5.64198C13.5046 5.98731 13.4066 6.40264 13.4066 6.88798C13.4066 7.36398 13.5046 7.77931 13.7006 8.13398C13.8966 8.48864 14.158 8.75931 14.4846 8.94598C14.8206 9.13264 15.1986 9.22598 15.6186 9.22598ZM24.7394 10.724C23.9554 10.724 23.2554 10.5606 22.6394 10.234C22.0327 9.89798 21.5567 9.44064 21.2114 8.86198C20.8661 8.28331 20.6934 7.62531 20.6934 6.88798C20.6934 6.14131 20.8661 5.48331 21.2114 4.91398C21.5567 4.33531 22.0327 3.88264 22.6394 3.55598C23.2554 3.22931 23.9554 3.06598 24.7394 3.06598C25.4674 3.06598 26.1067 3.21531 26.6574 3.51398C27.2174 3.80331 27.6421 4.23264 27.9314 4.80198L26.5874 5.58598C26.3634 5.23131 26.0881 4.96998 25.7614 4.80198C25.4441 4.63398 25.0987 4.54998 24.7254 4.54998C24.2961 4.54998 23.9087 4.64331 23.5634 4.82998C23.2181 5.01664 22.9474 5.28731 22.7514 5.64198C22.5554 5.98731 22.4574 6.40264 22.4574 6.88798C22.4574 7.37331 22.5554 7.79331 22.7514 8.14798C22.9474 8.49331 23.2181 8.75931 23.5634 8.94598C23.9087 9.13264 24.2961 9.22598 24.7254 9.22598C25.0987 9.22598 25.4441 9.14198 25.7614 8.97398C26.0881 8.80598 26.3634 8.54464 26.5874 8.18998L27.9314 8.97398C27.6421 9.53398 27.2174 9.96798 26.6574 10.276C26.1067 10.5746 25.4674 10.724 24.7394 10.724ZM30.9715 10.626V4.21398L31.3775 4.63398H28.3395V3.14998H35.3395V4.63398H32.3155L32.7215 4.21398V10.626H30.9715ZM41.1449 10.626V9.11398L41.0469 8.79198V6.14598C41.0469 5.63264 40.8929 5.23598 40.5849 4.95598C40.2769 4.66664 39.8102 4.52198 39.1849 4.52198C38.7649 4.52198 38.3496 4.58731 37.9389 4.71798C37.5376 4.84864 37.1969 5.03064 36.9169 5.26398L36.2309 3.98998C36.6322 3.68198 37.1082 3.45331 37.6589 3.30398C38.2189 3.14531 38.7976 3.06598 39.3949 3.06598C40.4776 3.06598 41.3129 3.32731 41.9009 3.84998C42.4982 4.36331 42.7969 5.16131 42.7969 6.24398V10.626H41.1449ZM38.7929 10.724C38.2329 10.724 37.7429 10.6306 37.3229 10.444C36.9029 10.248 36.5762 9.98198 36.3429 9.64598C36.1189 9.30064 36.0069 8.91331 36.0069 8.48398C36.0069 8.06398 36.1049 7.68598 36.3009 7.34998C36.5062 7.01398 36.8376 6.74798 37.2949 6.55198C37.7522 6.35598 38.3589 6.25798 39.1149 6.25798H41.2849V7.41998H39.2409C38.6436 7.41998 38.2422 7.51798 38.0369 7.71398C37.8316 7.90064 37.7289 8.13398 37.7289 8.41398C37.7289 8.73131 37.8549 8.98331 38.1069 9.16998C38.3589 9.35664 38.7089 9.44998 39.1569 9.44998C39.5862 9.44998 39.9689 9.35198 40.3049 9.15598C40.6502 8.95998 40.8976 8.67064 41.0469 8.28798L41.3409 9.33798C41.1729 9.77664 40.8696 10.1173 40.4309 10.36C40.0016 10.6026 39.4556 10.724 38.7929 10.724ZM44.9624 10.626V3.14998H48.6164C49.5217 3.14998 50.2311 3.31798 50.7444 3.65398C51.2671 3.98998 51.5284 4.46598 51.5284 5.08198C51.5284 5.68864 51.2857 6.16464 50.8004 6.50998C50.3151 6.84598 49.6711 7.01398 48.8684 7.01398L49.0784 6.57998C49.9837 6.57998 50.6557 6.74798 51.0944 7.08398C51.5424 7.41064 51.7664 7.89131 51.7664 8.52598C51.7664 9.18864 51.5191 9.70664 51.0244 10.08C50.5297 10.444 49.7784 10.626 48.7704 10.626H44.9624ZM46.6284 9.35198H48.6304C49.1064 9.35198 49.4657 9.27731 49.7084 9.12798C49.9511 8.96931 50.0724 8.73131 50.0724 8.41398C50.0724 8.07798 49.9604 7.83064 49.7364 7.67198C49.5124 7.51331 49.1624 7.43398 48.6864 7.43398H46.6284V9.35198ZM46.6284 6.27198H48.4624C48.9104 6.27198 49.2464 6.19264 49.4704 6.03398C49.7037 5.86598 49.8204 5.63264 49.8204 5.33398C49.8204 5.02598 49.7037 4.79731 49.4704 4.64798C49.2464 4.49864 48.9104 4.42398 48.4624 4.42398H46.6284V6.27198ZM58.9924 10.626L56.2904 7.04198L57.7184 6.15998L61.0504 10.626H58.9924ZM53.6304 10.626V3.14998H55.3804V10.626H53.6304ZM54.8624 7.62998V6.17398H57.3964V7.62998H54.8624ZM57.8864 7.09798L56.2484 6.90198L58.9924 3.14998H60.8684L57.8864 7.09798ZM66.684 10.626V9.11398L66.586 8.79198V6.14598C66.586 5.63264 66.432 5.23598 66.124 4.95598C65.816 4.66664 65.3493 4.52198 64.724 4.52198C64.304 4.52198 63.8886 4.58731 63.478 4.71798C63.0766 4.84864 62.736 5.03064 62.456 5.26398L61.77 3.98998C62.1713 3.68198 62.6473 3.45331 63.198 3.30398C63.758 3.14531 64.3366 3.06598 64.934 3.06598C66.0166 3.06598 66.852 3.32731 67.44 3.84998C68.0373 4.36331 68.336 5.16131 68.336 6.24398V10.626H66.684ZM64.332 10.724C63.772 10.724 63.282 10.6306 62.862 10.444C62.442 10.248 62.1153 9.98198 61.882 9.64598C61.658 9.30064 61.546 8.91331 61.546 8.48398C61.546 8.06398 61.644 7.68598 61.84 7.34998C62.0453 7.01398 62.3766 6.74798 62.834 6.55198C63.2913 6.35598 63.898 6.25798 64.654 6.25798H66.824V7.41998H64.78C64.1826 7.41998 63.7813 7.51798 63.576 7.71398C63.3706 7.90064 63.268 8.13398 63.268 8.41398C63.268 8.73131 63.394 8.98331 63.646 9.16998C63.898 9.35664 64.248 9.44998 64.696 9.44998C65.1253 9.44998 65.508 9.35198 65.844 9.15598C66.1893 8.95998 66.4366 8.67064 66.586 8.28798L66.88 9.33798C66.712 9.77664 66.4086 10.1173 65.97 10.36C65.5406 10.6026 64.9946 10.724 64.332 10.724ZM77.7026 10.724C76.9373 10.724 76.2559 10.5606 75.6586 10.234C75.0613 9.89798 74.5899 9.44064 74.2446 8.86198C73.8993 8.28331 73.7266 7.62531 73.7266 6.88798C73.7266 6.14131 73.8993 5.48331 74.2446 4.91398C74.5899 4.33531 75.0613 3.88264 75.6586 3.55598C76.2559 3.22931 76.9373 3.06598 77.7026 3.06598C78.4773 3.06598 79.1633 3.22931 79.7606 3.55598C80.3673 3.88264 80.8386 4.33064 81.1746 4.89998C81.5199 5.46931 81.6926 6.13198 81.6926 6.88798C81.6926 7.62531 81.5199 8.28331 81.1746 8.86198C80.8386 9.44064 80.3673 9.89798 79.7606 10.234C79.1633 10.5606 78.4773 10.724 77.7026 10.724ZM77.7026 9.22598C78.1319 9.22598 78.5146 9.13264 78.8506 8.94598C79.1866 8.75931 79.4479 8.48864 79.6346 8.13398C79.8306 7.77931 79.9286 7.36398 79.9286 6.88798C79.9286 6.40264 79.8306 5.98731 79.6346 5.64198C79.4479 5.28731 79.1866 5.01664 78.8506 4.82998C78.5146 4.64331 78.1366 4.54998 77.7166 4.54998C77.2873 4.54998 76.9046 4.64331 76.5686 4.82998C76.2419 5.01664 75.9806 5.28731 75.7846 5.64198C75.5886 5.98731 75.4906 6.40264 75.4906 6.88798C75.4906 7.36398 75.5886 7.77931 75.7846 8.13398C75.9806 8.48864 76.2419 8.75931 76.5686 8.94598C76.9046 9.13264 77.2826 9.22598 77.7026 9.22598ZM86.8234 10.724C86.0394 10.724 85.3394 10.5606 84.7234 10.234C84.1167 9.89798 83.6407 9.44064 83.2954 8.86198C82.9501 8.28331 82.7774 7.62531 82.7774 6.88798C82.7774 6.14131 82.9501 5.48331 83.2954 4.91398C83.6407 4.33531 84.1167 3.88264 84.7234 3.55598C85.3394 3.22931 86.0394 3.06598 86.8234 3.06598C87.5514 3.06598 88.1907 3.21531 88.7414 3.51398C89.3014 3.80331 89.7261 4.23264 90.0154 4.80198L88.6714 5.58598C88.4474 5.23131 88.1721 4.96998 87.8454 4.80198C87.5281 4.63398 87.1827 4.54998 86.8094 4.54998C86.3801 4.54998 85.9927 4.64331 85.6474 4.82998C85.3021 5.01664 85.0314 5.28731 84.8354 5.64198C84.6394 5.98731 84.5414 6.40264 84.5414 6.88798C84.5414 7.37331 84.6394 7.79331 84.8354 8.14798C85.0314 8.49331 85.3021 8.75931 85.6474 8.94598C85.9927 9.13264 86.3801 9.22598 86.8094 9.22598C87.1827 9.22598 87.5281 9.14198 87.8454 8.97398C88.1721 8.80598 88.4474 8.54464 88.6714 8.18998L90.0154 8.97398C89.7261 9.53398 89.3014 9.96798 88.7414 10.276C88.1907 10.5746 87.5514 10.724 86.8234 10.724ZM92.1325 13.44C91.7685 13.44 91.4045 13.3793 91.0405 13.258C90.6765 13.1366 90.3731 12.9686 90.1305 12.754L90.8305 11.466C91.0078 11.6246 91.2085 11.7506 91.4325 11.844C91.6565 11.9373 91.8851 11.984 92.1185 11.984C92.4358 11.984 92.6925 11.9046 92.8885 11.746C93.0845 11.5873 93.2665 11.3213 93.4345 10.948L93.8685 9.96798L94.0085 9.75798L96.8365 3.14998H98.5165L95.0165 11.228C94.7831 11.788 94.5218 12.2313 94.2325 12.558C93.9525 12.8846 93.6351 13.1133 93.2805 13.244C92.9351 13.3746 92.5525 13.44 92.1325 13.44ZM93.6725 10.892L90.2985 3.14998H92.1185L94.8625 9.60398L93.6725 10.892ZM104.758 9.14198L104.38 9.56198V3.14998H106.13V9.56198L105.71 9.14198H109.406L109 9.56198V3.14998H110.75V10.626H99.7319V3.14998H101.482V9.56198L101.076 9.14198H104.758ZM110.19 12.166V10.192L110.596 10.626H108.944V9.14198H111.828V12.166H110.19ZM116.589 10.724C115.758 10.724 115.03 10.5606 114.405 10.234C113.789 9.89798 113.308 9.44064 112.963 8.86198C112.627 8.28331 112.459 7.62531 112.459 6.88798C112.459 6.14131 112.622 5.48331 112.949 4.91398C113.285 4.33531 113.742 3.88264 114.321 3.55598C114.909 3.22931 115.576 3.06598 116.323 3.06598C117.051 3.06598 117.7 3.22464 118.269 3.54198C118.838 3.85931 119.286 4.30731 119.613 4.88598C119.94 5.46464 120.103 6.14598 120.103 6.92998C120.103 7.00464 120.098 7.08864 120.089 7.18198C120.089 7.27531 120.084 7.36398 120.075 7.44798H113.845V6.28598H119.151L118.465 6.64998C118.474 6.22064 118.386 5.84264 118.199 5.51598C118.012 5.18931 117.756 4.93264 117.429 4.74598C117.112 4.55931 116.743 4.46598 116.323 4.46598C115.894 4.46598 115.516 4.55931 115.189 4.74598C114.872 4.93264 114.62 5.19398 114.433 5.52998C114.256 5.85664 114.167 6.24398 114.167 6.69198V6.97198C114.167 7.41998 114.27 7.81664 114.475 8.16198C114.68 8.50731 114.97 8.77331 115.343 8.95998C115.716 9.14664 116.146 9.23998 116.631 9.23998C117.051 9.23998 117.429 9.17464 117.765 9.04398C118.101 8.91331 118.4 8.70798 118.661 8.42798L119.599 9.50598C119.263 9.89798 118.838 10.2013 118.325 10.416C117.821 10.6213 117.242 10.724 116.589 10.724ZM125.419 10.724C124.635 10.724 123.935 10.5606 123.319 10.234C122.712 9.89798 122.236 9.44064 121.891 8.86198C121.546 8.28331 121.373 7.62531 121.373 6.88798C121.373 6.14131 121.546 5.48331 121.891 4.91398C122.236 4.33531 122.712 3.88264 123.319 3.55598C123.935 3.22931 124.635 3.06598 125.419 3.06598C126.147 3.06598 126.786 3.21531 127.337 3.51398C127.897 3.80331 128.322 4.23264 128.611 4.80198L127.267 5.58598C127.043 5.23131 126.768 4.96998 126.441 4.80198C126.124 4.63398 125.778 4.54998 125.405 4.54998C124.976 4.54998 124.588 4.64331 124.243 4.82998C123.898 5.01664 123.627 5.28731 123.431 5.64198C123.235 5.98731 123.137 6.40264 123.137 6.88798C123.137 7.37331 123.235 7.79331 123.431 8.14798C123.627 8.49331 123.898 8.75931 124.243 8.94598C124.588 9.13264 124.976 9.22598 125.405 9.22598C125.778 9.22598 126.124 9.14198 126.441 8.97398C126.768 8.80598 127.043 8.54464 127.267 8.18998L128.611 8.97398C128.322 9.53398 127.897 9.96798 127.337 10.276C126.786 10.5746 126.147 10.724 125.419 10.724ZM131.651 10.626V4.21398L132.057 4.63398H129.019V3.14998H136.019V4.63398H132.995L133.401 4.21398V10.626H131.651ZM137.289 10.626V3.14998H140.943C141.848 3.14998 142.557 3.31798 143.071 3.65398C143.593 3.98998 143.855 4.46598 143.855 5.08198C143.855 5.68864 143.612 6.16464 143.127 6.50998C142.641 6.84598 141.997 7.01398 141.195 7.01398L141.405 6.57998C142.31 6.57998 142.982 6.74798 143.421 7.08398C143.869 7.41064 144.093 7.89131 144.093 8.52598C144.093 9.18864 143.845 9.70664 143.351 10.08C142.856 10.444 142.105 10.626 141.097 10.626H137.289ZM138.955 9.35198H140.957C141.433 9.35198 141.792 9.27731 142.035 9.12798C142.277 8.96931 142.399 8.73131 142.399 8.41398C142.399 8.07798 142.287 7.83064 142.063 7.67198C141.839 7.51331 141.489 7.43398 141.013 7.43398H138.955V9.35198ZM138.955 6.27198H140.789C141.237 6.27198 141.573 6.19264 141.797 6.03398C142.03 5.86598 142.147 5.63264 142.147 5.33398C142.147 5.02598 142.03 4.79731 141.797 4.64798C141.573 4.49864 141.237 4.42398 140.789 4.42398H138.955V6.27198ZM144.865 10.612L144.949 9.14198C145.014 9.15131 145.075 9.16064 145.131 9.16998C145.187 9.17931 145.238 9.18398 145.285 9.18398C145.574 9.18398 145.798 9.09531 145.957 8.91798C146.115 8.74064 146.232 8.50264 146.307 8.20398C146.391 7.89598 146.447 7.55531 146.475 7.18198C146.512 6.79931 146.54 6.41664 146.559 6.03398L146.685 3.14998H152.733V10.626H150.983V4.15798L151.389 4.63398H147.833L148.211 4.14398L148.113 6.11798C148.085 6.78064 148.029 7.39664 147.945 7.96598C147.87 8.52598 147.749 9.01598 147.581 9.43598C147.422 9.85598 147.198 10.1826 146.909 10.416C146.629 10.6493 146.269 10.766 145.831 10.766C145.691 10.766 145.537 10.752 145.369 10.724C145.21 10.696 145.042 10.6586 144.865 10.612ZM159.835 10.626V8.07798L160.087 8.37198H157.847C156.821 8.37198 156.013 8.15731 155.425 7.72798C154.847 7.28931 154.557 6.65931 154.557 5.83798C154.557 4.96064 154.865 4.29331 155.481 3.83598C156.107 3.37864 156.937 3.14998 157.973 3.14998H161.403V10.626H159.835ZM154.459 10.626L156.475 7.76998H158.267L156.335 10.626H154.459ZM159.835 7.51798V4.15798L160.087 4.61998H158.029C157.488 4.61998 157.068 4.72264 156.769 4.92798C156.48 5.12398 156.335 5.44598 156.335 5.89398C156.335 6.73398 156.881 7.15398 157.973 7.15398H160.087L159.835 7.51798ZM167.243 10.724C166.413 10.724 165.685 10.5606 165.059 10.234C164.443 9.89798 163.963 9.44064 163.617 8.86198C163.281 8.28331 163.113 7.62531 163.113 6.88798C163.113 6.14131 163.277 5.48331 163.603 4.91398C163.939 4.33531 164.397 3.88264 164.975 3.55598C165.563 3.22931 166.231 3.06598 166.977 3.06598C167.705 3.06598 168.354 3.22464 168.923 3.54198C169.493 3.85931 169.941 4.30731 170.267 4.88598C170.594 5.46464 170.757 6.14598 170.757 6.92998C170.757 7.00464 170.753 7.08864 170.743 7.18198C170.743 7.27531 170.739 7.36398 170.729 7.44798H164.499V6.28598H169.805L169.119 6.64998C169.129 6.22064 169.04 5.84264 168.853 5.51598C168.667 5.18931 168.41 4.93264 168.083 4.74598C167.766 4.55931 167.397 4.46598 166.977 4.46598C166.548 4.46598 166.17 4.55931 165.843 4.74598C165.526 4.93264 165.274 5.19398 165.087 5.52998C164.91 5.85664 164.821 6.24398 164.821 6.69198V6.97198C164.821 7.41998 164.924 7.81664 165.129 8.16198C165.335 8.50731 165.624 8.77331 165.997 8.95998C166.371 9.14664 166.8 9.23998 167.285 9.23998C167.705 9.23998 168.083 9.17464 168.419 9.04398C168.755 8.91331 169.054 8.70798 169.315 8.42798L170.253 9.50598C169.917 9.89798 169.493 10.2013 168.979 10.416C168.475 10.6213 167.897 10.724 167.243 10.724ZM173.938 10.626V4.21398L174.344 4.63398H171.306V3.14998H178.306V4.63398H175.282L175.688 4.21398V10.626H173.938ZM182.65 10.724C181.866 10.724 181.166 10.5606 180.55 10.234C179.943 9.89798 179.467 9.44064 179.122 8.86198C178.776 8.28331 178.604 7.62531 178.604 6.88798C178.604 6.14131 178.776 5.48331 179.122 4.91398C179.467 4.33531 179.943 3.88264 180.55 3.55598C181.166 3.22931 181.866 3.06598 182.65 3.06598C183.378 3.06598 184.017 3.21531 184.568 3.51398C185.128 3.80331 185.552 4.23264 185.842 4.80198L184.498 5.58598C184.274 5.23131 183.998 4.96998 183.672 4.80198C183.354 4.63398 183.009 4.54998 182.636 4.54998C182.206 4.54998 181.819 4.64331 181.474 4.82998C181.128 5.01664 180.858 5.28731 180.662 5.64198C180.466 5.98731 180.368 6.40264 180.368 6.88798C180.368 7.37331 180.466 7.79331 180.662 8.14798C180.858 8.49331 181.128 8.75931 181.474 8.94598C181.819 9.13264 182.206 9.22598 182.636 9.22598C183.009 9.22598 183.354 9.14198 183.672 8.97398C183.998 8.80598 184.274 8.54464 184.498 8.18998L185.842 8.97398C185.552 9.53398 185.128 9.96798 184.568 10.276C184.017 10.5746 183.378 10.724 182.65 10.724ZM191.923 10.626V8.07798L192.175 8.37198H189.935C188.909 8.37198 188.101 8.15731 187.513 7.72798C186.935 7.28931 186.645 6.65931 186.645 5.83798C186.645 4.96064 186.953 4.29331 187.569 3.83598C188.195 3.37864 189.025 3.14998 190.061 3.14998H193.491V10.626H191.923ZM186.547 10.626L188.563 7.76998H190.355L188.423 10.626H186.547ZM191.923 7.51798V4.15798L192.175 4.61998H190.117C189.576 4.61998 189.156 4.72264 188.857 4.92798C188.568 5.12398 188.423 5.44598 188.423 5.89398C188.423 6.73398 188.969 7.15398 190.061 7.15398H192.175L191.923 7.51798ZM203.284 10.766C202.668 10.766 202.118 10.6726 201.632 10.486C201.147 10.2993 200.727 10.0146 200.372 9.63198C200.027 9.23998 199.761 8.74531 199.574 8.14798C199.388 7.55064 199.294 6.84131 199.294 6.01998C199.294 5.42264 199.346 4.87664 199.448 4.38198C199.551 3.88731 199.705 3.44398 199.91 3.05198C200.116 2.65064 200.372 2.29598 200.68 1.98798C200.998 1.67998 201.366 1.42331 201.786 1.21798C202.206 1.01264 202.682 0.853976 203.214 0.741976L206.686 -2.43187e-05L206.938 1.56798L203.788 2.21198C203.611 2.24931 203.396 2.30531 203.144 2.37998C202.902 2.44531 202.65 2.54798 202.388 2.68798C202.136 2.81864 201.898 3.00998 201.674 3.26198C201.46 3.50464 201.282 3.82198 201.142 4.21398C201.012 4.59664 200.946 5.07731 200.946 5.65598C200.946 5.83331 200.951 5.96864 200.96 6.06198C200.979 6.14598 200.993 6.23931 201.002 6.34198C201.021 6.43531 201.03 6.57531 201.03 6.76198L200.372 6.07598C200.559 5.59998 200.816 5.19398 201.142 4.85798C201.478 4.51264 201.866 4.25131 202.304 4.07398C202.752 3.88731 203.238 3.79398 203.76 3.79398C204.46 3.79398 205.081 3.93864 205.622 4.22798C206.164 4.51731 206.588 4.92331 206.896 5.44598C207.204 5.96864 207.358 6.56131 207.358 7.22398C207.358 7.91464 207.19 8.52598 206.854 9.05798C206.518 9.58998 206.042 10.01 205.426 10.318C204.82 10.6166 204.106 10.766 203.284 10.766ZM203.424 9.35198C203.844 9.35198 204.213 9.26331 204.53 9.08598C204.857 8.89931 205.109 8.64731 205.286 8.32998C205.473 8.01264 205.566 7.65798 205.566 7.26598C205.566 6.87398 205.473 6.53331 205.286 6.24398C205.109 5.94531 204.857 5.70731 204.53 5.52998C204.213 5.35264 203.835 5.26398 203.396 5.26398C202.976 5.26398 202.598 5.34798 202.262 5.51598C201.936 5.68398 201.679 5.91731 201.492 6.21598C201.315 6.50531 201.226 6.84131 201.226 7.22398C201.226 7.61598 201.32 7.97531 201.506 8.30198C201.693 8.62864 201.95 8.88531 202.276 9.07198C202.612 9.25864 202.995 9.35198 203.424 9.35198ZM212.538 10.724C211.708 10.724 210.98 10.5606 210.354 10.234C209.738 9.89798 209.258 9.44064 208.912 8.86198C208.576 8.28331 208.408 7.62531 208.408 6.88798C208.408 6.14131 208.572 5.48331 208.898 4.91398C209.234 4.33531 209.692 3.88264 210.27 3.55598C210.858 3.22931 211.526 3.06598 212.272 3.06598C213 3.06598 213.649 3.22464 214.218 3.54198C214.788 3.85931 215.236 4.30731 215.562 4.88598C215.889 5.46464 216.052 6.14598 216.052 6.92998C216.052 7.00464 216.048 7.08864 216.038 7.18198C216.038 7.27531 216.034 7.36398 216.024 7.44798H209.794V6.28598H215.1L214.414 6.64998C214.424 6.22064 214.335 5.84264 214.148 5.51598C213.962 5.18931 213.705 4.93264 213.378 4.74598C213.061 4.55931 212.692 4.46598 212.272 4.46598C211.843 4.46598 211.465 4.55931 211.138 4.74598C210.821 4.93264 210.569 5.19398 210.382 5.52998C210.205 5.85664 210.116 6.24398 210.116 6.69198V6.97198C210.116 7.41998 210.219 7.81664 210.424 8.16198C210.63 8.50731 210.919 8.77331 211.292 8.95998C211.666 9.14664 212.095 9.23998 212.58 9.23998C213 9.23998 213.378 9.17464 213.714 9.04398C214.05 8.91331 214.349 8.70798 214.61 8.42798L215.548 9.50598C215.212 9.89798 214.788 10.2013 214.274 10.416C213.77 10.6213 213.192 10.724 212.538 10.724ZM221.368 10.724C220.584 10.724 219.884 10.5606 219.268 10.234C218.662 9.89798 218.186 9.44064 217.84 8.86198C217.495 8.28331 217.322 7.62531 217.322 6.88798C217.322 6.14131 217.495 5.48331 217.84 4.91398C218.186 4.33531 218.662 3.88264 219.268 3.55598C219.884 3.22931 220.584 3.06598 221.368 3.06598C222.096 3.06598 222.736 3.21531 223.286 3.51398C223.846 3.80331 224.271 4.23264 224.56 4.80198L223.216 5.58598C222.992 5.23131 222.717 4.96998 222.39 4.80198C222.073 4.63398 221.728 4.54998 221.354 4.54998C220.925 4.54998 220.538 4.64331 220.192 4.82998C219.847 5.01664 219.576 5.28731 219.38 5.64198C219.184 5.98731 219.086 6.40264 219.086 6.88798C219.086 7.37331 219.184 7.79331 219.38 8.14798C219.576 8.49331 219.847 8.75931 220.192 8.94598C220.538 9.13264 220.925 9.22598 221.354 9.22598C221.728 9.22598 222.073 9.14198 222.39 8.97398C222.717 8.80598 222.992 8.54464 223.216 8.18998L224.56 8.97398C224.271 9.53398 223.846 9.96798 223.286 10.276C222.736 10.5746 222.096 10.724 221.368 10.724ZM226.101 10.626V3.14998H233.269V10.626H231.533V4.22798L231.939 4.63398H227.445L227.851 4.22798V10.626H226.101ZM234.538 10.612L234.622 9.14198C234.688 9.15131 234.748 9.16064 234.804 9.16998C234.86 9.17931 234.912 9.18398 234.958 9.18398C235.248 9.18398 235.472 9.09531 235.63 8.91798C235.789 8.74064 235.906 8.50264 235.98 8.20398C236.064 7.89598 236.12 7.55531 236.148 7.18198C236.186 6.79931 236.214 6.41664 236.232 6.03398L236.358 3.14998H242.406V10.626H240.656V4.15798L241.062 4.63398H237.506L237.884 4.14398L237.786 6.11798C237.758 6.78064 237.702 7.39664 237.618 7.96598C237.544 8.52598 237.422 9.01598 237.254 9.43598C237.096 9.85598 236.872 10.1826 236.582 10.416C236.302 10.6493 235.943 10.766 235.504 10.766C235.364 10.766 235.21 10.752 235.042 10.724C234.884 10.696 234.716 10.6586 234.538 10.612ZM249.299 10.626V9.11398L249.201 8.79198V6.14598C249.201 5.63264 249.047 5.23598 248.739 4.95598C248.431 4.66664 247.965 4.52198 247.339 4.52198C246.919 4.52198 246.504 4.58731 246.093 4.71798C245.692 4.84864 245.351 5.03064 245.071 5.26398L244.385 3.98998C244.787 3.68198 245.263 3.45331 245.813 3.30398C246.373 3.14531 246.952 3.06598 247.549 3.06598C248.632 3.06598 249.467 3.32731 250.055 3.84998C250.653 4.36331 250.951 5.16131 250.951 6.24398V10.626H249.299ZM246.947 10.724C246.387 10.724 245.897 10.6306 245.477 10.444C245.057 10.248 244.731 9.98198 244.497 9.64598C244.273 9.30064 244.161 8.91331 244.161 8.48398C244.161 8.06398 244.259 7.68598 244.455 7.34998C244.661 7.01398 244.992 6.74798 245.449 6.55198C245.907 6.35598 246.513 6.25798 247.269 6.25798H249.439V7.41998H247.395C246.798 7.41998 246.397 7.51798 246.191 7.71398C245.986 7.90064 245.883 8.13398 245.883 8.41398C245.883 8.73131 246.009 8.98331 246.261 9.16998C246.513 9.35664 246.863 9.44998 247.311 9.44998C247.741 9.44998 248.123 9.35198 248.459 9.15598C248.805 8.95998 249.052 8.67064 249.201 8.28798L249.495 9.33798C249.327 9.77664 249.024 10.1173 248.585 10.36C248.156 10.6026 247.61 10.724 246.947 10.724ZM254.671 10.626V4.21398L255.077 4.63398H252.039V3.14998H259.039V4.63398H256.015L256.421 4.21398V10.626H254.671ZM260.308 10.626V3.14998H262.058V6.18798H265.824V3.14998H267.574V10.626H265.824V7.67198H262.058V10.626H260.308ZM273.251 10.724C272.486 10.724 271.805 10.5606 271.207 10.234C270.61 9.89798 270.139 9.44064 269.793 8.86198C269.448 8.28331 269.275 7.62531 269.275 6.88798C269.275 6.14131 269.448 5.48331 269.793 4.91398C270.139 4.33531 270.61 3.88264 271.207 3.55598C271.805 3.22931 272.486 3.06598 273.251 3.06598C274.026 3.06598 274.712 3.22931 275.309 3.55598C275.916 3.88264 276.387 4.33064 276.723 4.89998C277.069 5.46931 277.241 6.13198 277.241 6.88798C277.241 7.62531 277.069 8.28331 276.723 8.86198C276.387 9.44064 275.916 9.89798 275.309 10.234C274.712 10.5606 274.026 10.724 273.251 10.724ZM273.251 9.22598C273.681 9.22598 274.063 9.13264 274.399 8.94598C274.735 8.75931 274.997 8.48864 275.183 8.13398C275.379 7.77931 275.477 7.36398 275.477 6.88798C275.477 6.40264 275.379 5.98731 275.183 5.64198C274.997 5.28731 274.735 5.01664 274.399 4.82998C274.063 4.64331 273.685 4.54998 273.265 4.54998C272.836 4.54998 272.453 4.64331 272.117 4.82998C271.791 5.01664 271.529 5.28731 271.333 5.64198C271.137 5.98731 271.039 6.40264 271.039 6.88798C271.039 7.36398 271.137 7.77931 271.333 8.13398C271.529 8.48864 271.791 8.75931 272.117 8.94598C272.453 9.13264 272.831 9.22598 273.251 9.22598ZM0.979986 30.626V23.15H4.63399C5.53932 23.15 6.24865 23.318 6.76199 23.654C7.28465 23.99 7.54599 24.466 7.54599 25.082C7.54599 25.6886 7.30332 26.1646 6.81799 26.51C6.33265 26.846 5.68865 27.014 4.88599 27.014L5.09599 26.58C6.00132 26.58 6.67332 26.748 7.11199 27.084C7.55999 27.4106 7.78399 27.8913 7.78399 28.526C7.78399 29.1886 7.53665 29.7066 7.04199 30.08C6.54732 30.444 5.79599 30.626 4.78799 30.626H0.979986ZM2.64599 29.352H4.64799C5.12399 29.352 5.48332 29.2773 5.72599 29.128C5.96865 28.9693 6.08999 28.7313 6.08999 28.414C6.08999 28.078 5.97799 27.8306 5.75399 27.672C5.52999 27.5133 5.17999 27.434 4.70399 27.434H2.64599V29.352ZM2.64599 26.272H4.47999C4.92799 26.272 5.26399 26.1926 5.48799 26.034C5.72132 25.866 5.83799 25.6326 5.83799 25.334C5.83799 25.026 5.72132 24.7973 5.48799 24.648C5.26399 24.4986 4.92799 24.424 4.47999 24.424H2.64599V26.272ZM13.5171 30.626V23.15H20.6851V30.626H18.9491V24.228L19.3551 24.634H14.8611L15.2671 24.228V30.626H13.5171ZM23.7184 33.44C23.3544 33.44 22.9904 33.3793 22.6264 33.258C22.2624 33.1366 21.9591 32.9686 21.7164 32.754L22.4164 31.466C22.5937 31.6246 22.7944 31.7506 23.0184 31.844C23.2424 31.9373 23.4711 31.984 23.7044 31.984C24.0217 31.984 24.2784 31.9046 24.4744 31.746C24.6704 31.5873 24.8524 31.3213 25.0204 30.948L25.4544 29.968L25.5944 29.758L28.4224 23.15H30.1024L26.6024 31.228C26.3691 31.788 26.1077 32.2313 25.8184 32.558C25.5384 32.8846 25.2211 33.1133 24.8664 33.244C24.5211 33.3746 24.1384 33.44 23.7184 33.44ZM25.2584 30.892L21.8844 23.15H23.7044L26.4484 29.604L25.2584 30.892ZM31.3179 30.626V23.15H33.0679V26.188H36.8339V23.15H38.5839V30.626H36.8339V27.672H33.0679V30.626H31.3179ZM46.2912 30.626L43.5892 27.042L45.0172 26.16L48.3492 30.626H46.2912ZM40.9292 30.626V23.15H42.6792V30.626H40.9292ZM42.1612 27.63V26.174H44.6952V27.63H42.1612ZM45.1852 27.098L43.5472 26.902L46.2912 23.15H48.1672L45.1852 27.098ZM51.0418 30.626V24.214L51.4478 24.634H48.4098V23.15H55.4098V24.634H52.3858L52.7918 24.214V30.626H51.0418ZM64.2252 30.626V23.15H65.9752V30.626H64.2252ZM60.3192 25.614C61.2805 25.614 62.0085 25.8286 62.5032 26.258C63.0072 26.6873 63.2592 27.294 63.2592 28.078C63.2592 28.89 62.9792 29.5246 62.4192 29.982C61.8685 30.43 61.0845 30.6493 60.0672 30.64L56.6792 30.626V23.15H58.4292V25.6L60.3192 25.614ZM59.9132 29.352C60.4265 29.3613 60.8185 29.254 61.0892 29.03C61.3599 28.806 61.4952 28.4793 61.4952 28.05C61.4952 27.6206 61.3599 27.3126 61.0892 27.126C60.8279 26.93 60.4359 26.8273 59.9132 26.818L58.4292 26.804V29.338L59.9132 29.352ZM72.1968 30.626V23.15H75.8508C76.7561 23.15 77.4654 23.318 77.9788 23.654C78.5014 23.99 78.7628 24.466 78.7628 25.082C78.7628 25.6886 78.5201 26.1646 78.0348 26.51C77.5494 26.846 76.9054 27.014 76.1028 27.014L76.3128 26.58C77.2181 26.58 77.8901 26.748 78.3288 27.084C78.7768 27.4106 79.0008 27.8913 79.0008 28.526C79.0008 29.1886 78.7534 29.7066 78.2588 30.08C77.7641 30.444 77.0128 30.626 76.0048 30.626H72.1968ZM73.8628 29.352H75.8648C76.3408 29.352 76.7001 29.2773 76.9428 29.128C77.1854 28.9693 77.3068 28.7313 77.3068 28.414C77.3068 28.078 77.1948 27.8306 76.9708 27.672C76.7468 27.5133 76.3968 27.434 75.9208 27.434H73.8628V29.352ZM73.8628 26.272H75.6968C76.1448 26.272 76.4808 26.1926 76.7048 26.034C76.9381 25.866 77.0548 25.6326 77.0548 25.334C77.0548 25.026 76.9381 24.7973 76.7048 24.648C76.4808 24.4986 76.1448 24.424 75.6968 24.424H73.8628V26.272ZM88.4108 30.626V23.15H90.1608V30.626H88.4108ZM84.5048 25.614C85.4661 25.614 86.1941 25.8286 86.6888 26.258C87.1928 26.6873 87.4448 27.294 87.4448 28.078C87.4448 28.89 87.1648 29.5246 86.6048 29.982C86.0541 30.43 85.2701 30.6493 84.2528 30.64L80.8648 30.626V23.15H82.6148V25.6L84.5048 25.614ZM84.0988 29.352C84.6121 29.3613 85.0041 29.254 85.2748 29.03C85.5454 28.806 85.6808 28.4793 85.6808 28.05C85.6808 27.6206 85.5454 27.3126 85.2748 27.126C85.0134 26.93 84.6214 26.8273 84.0988 26.818L82.6148 26.804V29.338L84.0988 29.352ZM97.6372 29.814V24.634H94.7672L94.7252 25.838C94.7065 26.2673 94.6785 26.6826 94.6412 27.084C94.6039 27.476 94.5432 27.84 94.4592 28.176C94.3752 28.5026 94.2539 28.7733 94.0952 28.988C93.9365 29.2026 93.7265 29.3426 93.4652 29.408L91.7292 29.142C92.0092 29.142 92.2332 29.0533 92.4012 28.876C92.5785 28.6893 92.7139 28.4373 92.8072 28.12C92.9099 27.7933 92.9845 27.4246 93.0312 27.014C93.0779 26.594 93.1105 26.16 93.1292 25.712L93.2272 23.15H99.3872V29.814H97.6372ZM91.4632 32.292V29.142H100.493V32.292H98.8552V30.626H93.0872V32.292H91.4632ZM106.592 30.626V29.114L106.494 28.792V26.146C106.494 25.6326 106.34 25.236 106.032 24.956C105.724 24.6666 105.257 24.522 104.632 24.522C104.212 24.522 103.797 24.5873 103.386 24.718C102.985 24.8486 102.644 25.0306 102.364 25.264L101.678 23.99C102.079 23.682 102.555 23.4533 103.106 23.304C103.666 23.1453 104.245 23.066 104.842 23.066C105.925 23.066 106.76 23.3273 107.348 23.85C107.945 24.3633 108.244 25.1613 108.244 26.244V30.626H106.592ZM104.24 30.724C103.68 30.724 103.19 30.6306 102.77 30.444C102.35 30.248 102.023 29.982 101.79 29.646C101.566 29.3006 101.454 28.9133 101.454 28.484C101.454 28.064 101.552 27.686 101.748 27.35C101.953 27.014 102.285 26.748 102.742 26.552C103.199 26.356 103.806 26.258 104.562 26.258H106.732V27.42H104.688C104.091 27.42 103.689 27.518 103.484 27.714C103.279 27.9006 103.176 28.134 103.176 28.414C103.176 28.7313 103.302 28.9833 103.554 29.17C103.806 29.3566 104.156 29.45 104.604 29.45C105.033 29.45 105.416 29.352 105.752 29.156C106.097 28.96 106.345 28.6706 106.494 28.288L106.788 29.338C106.62 29.7766 106.317 30.1173 105.878 30.36C105.449 30.6026 104.903 30.724 104.24 30.724ZM115.128 27.672C114.773 27.84 114.395 27.98 113.994 28.092C113.602 28.1946 113.186 28.246 112.748 28.246C111.805 28.246 111.072 28.0266 110.55 27.588C110.027 27.1493 109.766 26.468 109.766 25.544V23.15H111.516V25.432C111.516 25.9266 111.656 26.286 111.936 26.51C112.225 26.734 112.622 26.846 113.126 26.846C113.462 26.846 113.798 26.804 114.134 26.72C114.47 26.636 114.801 26.5193 115.128 26.37V27.672ZM115.002 30.626V23.15H116.752V30.626H115.002ZM119.105 30.626V23.15H120.855V28.078L124.985 23.15H126.581V30.626H124.831V25.698L120.715 30.626H119.105ZM137.508 30.766C136.762 30.766 136.066 30.6446 135.422 30.402C134.788 30.15 134.232 29.8 133.756 29.352C133.29 28.8946 132.926 28.358 132.664 27.742C132.403 27.126 132.272 26.454 132.272 25.726C132.272 24.998 132.403 24.326 132.664 23.71C132.926 23.094 133.294 22.562 133.77 22.114C134.246 21.6566 134.802 21.3066 135.436 21.064C136.071 20.812 136.766 20.686 137.522 20.686C138.325 20.686 139.058 20.826 139.72 21.106C140.383 21.3766 140.943 21.7826 141.4 22.324L140.224 23.43C139.87 23.0473 139.473 22.7626 139.034 22.576C138.596 22.38 138.12 22.282 137.606 22.282C137.093 22.282 136.622 22.366 136.192 22.534C135.772 22.702 135.404 22.94 135.086 23.248C134.778 23.556 134.536 23.92 134.358 24.34C134.19 24.76 134.106 25.222 134.106 25.726C134.106 26.23 134.19 26.692 134.358 27.112C134.536 27.532 134.778 27.896 135.086 28.204C135.404 28.512 135.772 28.75 136.192 28.918C136.622 29.086 137.093 29.17 137.606 29.17C138.12 29.17 138.596 29.0766 139.034 28.89C139.473 28.694 139.87 28.4 140.224 28.008L141.4 29.128C140.943 29.66 140.383 30.066 139.72 30.346C139.058 30.626 138.32 30.766 137.508 30.766ZM149.354 29.786V22.366H145.518L145.448 24.102C145.42 24.7553 145.378 25.376 145.322 25.964C145.275 26.5426 145.196 27.07 145.084 27.546C144.981 28.022 144.837 28.4186 144.65 28.736C144.463 29.0533 144.235 29.2633 143.964 29.366L142.004 29.086C142.359 29.1046 142.648 28.9833 142.872 28.722C143.105 28.4606 143.287 28.0966 143.418 27.63C143.549 27.1633 143.647 26.6173 143.712 25.992C143.777 25.3573 143.824 24.6713 143.852 23.934L143.964 20.826H151.146V29.786H149.354ZM141.668 32.712L141.682 29.086H152.56V32.712H150.88V30.626H143.362V32.712H141.668ZM155.912 26.37V24.928H160.966V26.37H155.912ZM157.186 20.686C157.904 20.686 158.567 20.812 159.174 21.064C159.78 21.3066 160.308 21.6566 160.756 22.114C161.213 22.562 161.563 23.094 161.806 23.71C162.058 24.326 162.184 24.998 162.184 25.726C162.184 26.454 162.058 27.126 161.806 27.742C161.563 28.358 161.213 28.8946 160.756 29.352C160.308 29.8 159.78 30.15 159.174 30.402C158.567 30.6446 157.904 30.766 157.186 30.766C156.355 30.766 155.599 30.626 154.918 30.346C154.246 30.066 153.686 29.66 153.238 29.128L154.386 28.008C154.75 28.4 155.156 28.694 155.604 28.89C156.061 29.0766 156.556 29.17 157.088 29.17C157.554 29.17 157.988 29.086 158.39 28.918C158.791 28.7406 159.136 28.5026 159.426 28.204C159.715 27.896 159.939 27.532 160.098 27.112C160.256 26.692 160.336 26.23 160.336 25.726C160.336 25.222 160.256 24.76 160.098 24.34C159.939 23.92 159.715 23.5606 159.426 23.262C159.136 22.954 158.791 22.716 158.39 22.548C157.988 22.3706 157.554 22.282 157.088 22.282C156.556 22.282 156.061 22.38 155.604 22.576C155.156 22.7626 154.75 23.052 154.386 23.444L153.238 22.324C153.686 21.792 154.246 21.386 154.918 21.106C155.599 20.826 156.355 20.686 157.186 20.686ZM170.695 30.626L167.377 25.852L168.847 24.942L172.753 30.626H170.695ZM164.213 30.626V20.826H166.005V30.626H164.213ZM165.459 26.496V24.928H168.763V26.496H165.459ZM169.015 25.936L167.349 25.712L170.695 20.826H172.627L169.015 25.936ZM177.99 30.626V23.15H179.74V28.078L183.87 23.15H185.466V30.626H183.716V25.698L179.6 30.626H177.99ZM6.87399 50.626V47.49L7.32199 47.896H4.45199C3.63065 47.896 2.92132 47.7606 2.32399 47.49C1.73599 47.21 1.28332 46.8133 0.965986 46.3C0.648652 45.7773 0.489986 45.152 0.489986 44.424C0.489986 43.668 0.657986 43.024 0.993986 42.492C1.32999 41.9506 1.80599 41.54 2.42199 41.26C3.03799 40.9706 3.76132 40.826 4.59199 40.826H8.66599V50.626H6.87399ZM0.517986 50.626L2.93999 47.126H4.77399L2.43599 50.626H0.517986ZM6.87399 46.902V41.862L7.32199 42.366H4.64799C3.90132 42.366 3.32732 42.5386 2.92599 42.884C2.53399 43.22 2.33799 43.724 2.33799 44.396C2.33799 45.04 2.52465 45.5393 2.89799 45.894C3.28065 46.2393 3.84065 46.412 4.57799 46.412H7.32199L6.87399 46.902ZM11.2339 50.626V43.15H12.9839V46.188H16.7499V43.15H18.4999V50.626H16.7499V47.672H12.9839V50.626H11.2339ZM25.9692 49.814V44.634H23.0992L23.0572 45.838C23.0386 46.2673 23.0106 46.6826 22.9732 47.084C22.9359 47.476 22.8752 47.84 22.7912 48.176C22.7072 48.5026 22.5859 48.7733 22.4272 48.988C22.2686 49.2026 22.0586 49.3426 21.7972 49.408L20.0612 49.142C20.3412 49.142 20.5652 49.0533 20.7332 48.876C20.9106 48.6893 21.0459 48.4373 21.1392 48.12C21.2419 47.7933 21.3166 47.4246 21.3632 47.014C21.4099 46.594 21.4426 46.16 21.4612 45.712L21.5592 43.15H27.7192V49.814H25.9692ZM19.7952 52.292V49.142H28.8252V52.292H27.1872V50.626H21.4192V52.292H19.7952ZM33.8742 50.724C33.0435 50.724 32.3155 50.5606 31.6902 50.234C31.0742 49.898 30.5935 49.4406 30.2482 48.862C29.9122 48.2833 29.7442 47.6253 29.7442 46.888C29.7442 46.1413 29.9075 45.4833 30.2342 44.914C30.5702 44.3353 31.0275 43.8826 31.6062 43.556C32.1942 43.2293 32.8615 43.066 33.6082 43.066C34.3362 43.066 34.9849 43.2246 35.5542 43.542C36.1235 43.8593 36.5715 44.3073 36.8982 44.886C37.2249 45.4646 37.3882 46.146 37.3882 46.93C37.3882 47.0046 37.3835 47.0886 37.3742 47.182C37.3742 47.2753 37.3695 47.364 37.3602 47.448H31.1302V46.286H36.4362L35.7502 46.65C35.7595 46.2206 35.6709 45.8426 35.4842 45.516C35.2975 45.1893 35.0409 44.9326 34.7142 44.746C34.3969 44.5593 34.0282 44.466 33.6082 44.466C33.1789 44.466 32.8009 44.5593 32.4742 44.746C32.1569 44.9326 31.9049 45.194 31.7182 45.53C31.5409 45.8566 31.4522 46.244 31.4522 46.692V46.972C31.4522 47.42 31.5549 47.8166 31.7602 48.162C31.9655 48.5073 32.2549 48.7733 32.6282 48.96C33.0015 49.1466 33.4309 49.24 33.9162 49.24C34.3362 49.24 34.7142 49.1746 35.0502 49.044C35.3862 48.9133 35.6849 48.708 35.9462 48.428L36.8842 49.506C36.5482 49.898 36.1235 50.2013 35.6102 50.416C35.1062 50.6213 34.5275 50.724 33.8742 50.724ZM44.6643 50.626L41.9623 47.042L43.3903 46.16L46.7223 50.626H44.6643ZM39.3023 50.626V43.15H41.0523V50.626H39.3023ZM40.5343 47.63V46.174H43.0683V47.63H40.5343ZM43.5583 47.098L41.9203 46.902L44.6643 43.15H46.5403L43.5583 47.098ZM51.1125 50.724C50.3285 50.724 49.6285 50.5606 49.0125 50.234C48.4058 49.898 47.9298 49.4406 47.5845 48.862C47.2391 48.2833 47.0665 47.6253 47.0665 46.888C47.0665 46.1413 47.2391 45.4833 47.5845 44.914C47.9298 44.3353 48.4058 43.8826 49.0125 43.556C49.6285 43.2293 50.3285 43.066 51.1125 43.066C51.8405 43.066 52.4798 43.2153 53.0305 43.514C53.5905 43.8033 54.0151 44.2326 54.3045 44.802L52.9605 45.586C52.7365 45.2313 52.4611 44.97 52.1345 44.802C51.8171 44.634 51.4718 44.55 51.0985 44.55C50.6691 44.55 50.2818 44.6433 49.9365 44.83C49.5911 45.0166 49.3205 45.2873 49.1245 45.642C48.9285 45.9873 48.8305 46.4026 48.8305 46.888C48.8305 47.3733 48.9285 47.7933 49.1245 48.148C49.3205 48.4933 49.5911 48.7593 49.9365 48.946C50.2818 49.1326 50.6691 49.226 51.0985 49.226C51.4718 49.226 51.8171 49.142 52.1345 48.974C52.4611 48.806 52.7365 48.5446 52.9605 48.19L54.3045 48.974C54.0151 49.534 53.5905 49.968 53.0305 50.276C52.4798 50.5746 51.8405 50.724 51.1125 50.724ZM56.6507 50.724C56.3333 50.724 56.0627 50.6166 55.8387 50.402C55.6147 50.178 55.5027 49.898 55.5027 49.562C55.5027 49.2073 55.6147 48.9273 55.8387 48.722C56.0627 48.5073 56.3333 48.4 56.6507 48.4C56.968 48.4 57.2387 48.5073 57.4627 48.722C57.6867 48.9273 57.7987 49.2073 57.7987 49.562C57.7987 49.898 57.6867 50.178 57.4627 50.402C57.2387 50.6166 56.968 50.724 56.6507 50.724ZM59.7466 50.626V40.826H61.2306L65.5286 47.98H64.7306L68.9586 40.826H70.4426L70.4706 50.626H68.7346L68.7206 43.528H69.0846L65.5006 49.506H64.6886L61.0486 43.528H61.4686V50.626H59.7466ZM77.5531 50.626V49.114L77.4551 48.792V46.146C77.4551 45.6326 77.3011 45.236 76.9931 44.956C76.6851 44.6666 76.2184 44.522 75.5931 44.522C75.1731 44.522 74.7578 44.5873 74.3471 44.718C73.9458 44.8486 73.6051 45.0306 73.3251 45.264L72.6391 43.99C73.0404 43.682 73.5164 43.4533 74.0671 43.304C74.6271 43.1453 75.2058 43.066 75.8031 43.066C76.8858 43.066 77.7211 43.3273 78.3091 43.85C78.9064 44.3633 79.2051 45.1613 79.2051 46.244V50.626H77.5531ZM75.2011 50.724C74.6411 50.724 74.1511 50.6306 73.7311 50.444C73.3111 50.248 72.9844 49.982 72.7511 49.646C72.5271 49.3006 72.4151 48.9133 72.4151 48.484C72.4151 48.064 72.5131 47.686 72.7091 47.35C72.9144 47.014 73.2458 46.748 73.7031 46.552C74.1604 46.356 74.7671 46.258 75.5231 46.258H77.6931V47.42H75.6491C75.0518 47.42 74.6504 47.518 74.4451 47.714C74.2398 47.9006 74.1371 48.134 74.1371 48.414C74.1371 48.7313 74.2631 48.9833 74.5151 49.17C74.7671 49.3566 75.1171 49.45 75.5651 49.45C75.9944 49.45 76.3771 49.352 76.7131 49.156C77.0584 48.96 77.3058 48.6706 77.4551 48.288L77.7491 49.338C77.5811 49.7766 77.2778 50.1173 76.8391 50.36C76.4098 50.6026 75.8638 50.724 75.2011 50.724ZM85.5146 50.724C84.9079 50.724 84.3526 50.584 83.8486 50.304C83.3539 50.024 82.9573 49.604 82.6586 49.044C82.3693 48.4746 82.2246 47.756 82.2246 46.888C82.2246 46.0106 82.3646 45.292 82.6446 44.732C82.9339 44.172 83.3259 43.7566 83.8206 43.486C84.3153 43.206 84.8799 43.066 85.5146 43.066C86.2519 43.066 86.9006 43.2246 87.4606 43.542C88.0299 43.8593 88.4779 44.3026 88.8046 44.872C89.1406 45.4413 89.3086 46.1133 89.3086 46.888C89.3086 47.6626 89.1406 48.3393 88.8046 48.918C88.4779 49.4873 88.0299 49.9306 87.4606 50.248C86.9006 50.5653 86.2519 50.724 85.5146 50.724ZM81.3706 53.342V43.15H83.0366V44.914L82.9806 46.902L83.1206 48.89V53.342H81.3706ZM85.3186 49.226C85.7386 49.226 86.1119 49.1326 86.4386 48.946C86.7746 48.7593 87.0406 48.4886 87.2366 48.134C87.4326 47.7793 87.5306 47.364 87.5306 46.888C87.5306 46.4026 87.4326 45.9873 87.2366 45.642C87.0406 45.2873 86.7746 45.0166 86.4386 44.83C86.1119 44.6433 85.7386 44.55 85.3186 44.55C84.8986 44.55 84.5206 44.6433 84.1846 44.83C83.8486 45.0166 83.5826 45.2873 83.3866 45.642C83.1906 45.9873 83.0926 46.4026 83.0926 46.888C83.0926 47.364 83.1906 47.7793 83.3866 48.134C83.5826 48.4886 83.8486 48.7593 84.1846 48.946C84.5206 49.1326 84.8986 49.226 85.3186 49.226ZM96.4123 50.626L93.7103 47.042L95.1383 46.16L98.4703 50.626H96.4123ZM91.0503 50.626V43.15H92.8003V50.626H91.0503ZM92.2823 47.63V46.174H94.8163V47.63H92.2823ZM95.3063 47.098L93.6683 46.902L96.4123 43.15H98.2883L95.3063 47.098ZM102.945 50.724C102.114 50.724 101.386 50.5606 100.761 50.234C100.145 49.898 99.6638 49.4406 99.3185 48.862C98.9825 48.2833 98.8145 47.6253 98.8145 46.888C98.8145 46.1413 98.9778 45.4833 99.3045 44.914C99.6405 44.3353 100.098 43.8826 100.677 43.556C101.265 43.2293 101.932 43.066 102.679 43.066C103.407 43.066 104.055 43.2246 104.625 43.542C105.194 43.8593 105.642 44.3073 105.969 44.886C106.295 45.4646 106.459 46.146 106.459 46.93C106.459 47.0046 106.454 47.0886 106.445 47.182C106.445 47.2753 106.44 47.364 106.431 47.448H100.201V46.286H105.507L104.821 46.65C104.83 46.2206 104.741 45.8426 104.555 45.516C104.368 45.1893 104.111 44.9326 103.785 44.746C103.467 44.5593 103.099 44.466 102.679 44.466C102.249 44.466 101.871 44.5593 101.545 44.746C101.227 44.9326 100.975 45.194 100.789 45.53C100.611 45.8566 100.523 46.244 100.523 46.692V46.972C100.523 47.42 100.625 47.8166 100.831 48.162C101.036 48.5073 101.325 48.7733 101.699 48.96C102.072 49.1466 102.501 49.24 102.987 49.24C103.407 49.24 103.785 49.1746 104.121 49.044C104.457 48.9133 104.755 48.708 105.017 48.428L105.955 49.506C105.619 49.898 105.194 50.2013 104.681 50.416C104.177 50.6213 103.598 50.724 102.945 50.724ZM109.639 50.626V44.214L110.045 44.634H107.007V43.15H114.007V44.634H110.983L111.389 44.214V50.626H109.639Z" fill="white"/>
</svg>
