<svg width="269" height="53" viewBox="0 0 269 53" fill="none" xmlns="http://www.w3.org/2000/svg">
<path d="M7.68596 8.95999V1.53999H3.84996L3.77996 3.27599C3.75196 3.92932 3.70996 4.54999 3.65396 5.13799C3.60729 5.71665 3.52796 6.24399 3.41596 6.71999C3.31329 7.19599 3.16862 7.59265 2.98196 7.90999C2.79529 8.22732 2.56662 8.43732 2.29596 8.53999L0.335955 8.25999C0.690622 8.27865 0.979955 8.15732 1.20396 7.89599C1.43729 7.63465 1.61929 7.27065 1.74996 6.80399C1.88062 6.33732 1.97862 5.79132 2.04396 5.16599C2.10929 4.53132 2.15596 3.84532 2.18396 3.10799L2.29596 -1.28746e-05H9.47796V8.95999H7.68596ZM-4.49158e-05 11.886L0.0139551 8.25999H10.892V11.886H9.21196V9.79999H1.69396V11.886H-4.49158e-05ZM15.6186 9.89799C14.8533 9.89799 14.1719 9.73465 13.5746 9.40799C12.9773 9.07199 12.5059 8.61465 12.1606 8.03599C11.8153 7.45732 11.6426 6.79932 11.6426 6.06199C11.6426 5.31532 11.8153 4.65732 12.1606 4.08799C12.5059 3.50932 12.9773 3.05665 13.5746 2.72999C14.1719 2.40332 14.8533 2.23999 15.6186 2.23999C16.3933 2.23999 17.0793 2.40332 17.6766 2.72999C18.2833 3.05665 18.7546 3.50465 19.0906 4.07399C19.4359 4.64332 19.6086 5.30599 19.6086 6.06199C19.6086 6.79932 19.4359 7.45732 19.0906 8.03599C18.7546 8.61465 18.2833 9.07199 17.6766 9.40799C17.0793 9.73465 16.3933 9.89799 15.6186 9.89799ZM15.6186 8.39999C16.0479 8.39999 16.4306 8.30665 16.7666 8.11999C17.1026 7.93332 17.3639 7.66265 17.5506 7.30799C17.7466 6.95332 17.8446 6.53799 17.8446 6.06199C17.8446 5.57665 17.7466 5.16132 17.5506 4.81599C17.3639 4.46132 17.1026 4.19065 16.7666 4.00399C16.4306 3.81732 16.0526 3.72399 15.6326 3.72399C15.2033 3.72399 14.8206 3.81732 14.4846 4.00399C14.1579 4.19065 13.8966 4.46132 13.7006 4.81599C13.5046 5.16132 13.4066 5.57665 13.4066 6.06199C13.4066 6.53799 13.5046 6.95332 13.7006 7.30799C13.8966 7.66265 14.1579 7.93332 14.4846 8.11999C14.8206 8.30665 15.1986 8.39999 15.6186 8.39999ZM24.7394 9.89799C23.9554 9.89799 23.2554 9.73465 22.6394 9.40799C22.0327 9.07199 21.5567 8.61465 21.2114 8.03599C20.866 7.45732 20.6934 6.79932 20.6934 6.06199C20.6934 5.31532 20.866 4.65732 21.2114 4.08799C21.5567 3.50932 22.0327 3.05665 22.6394 2.72999C23.2554 2.40332 23.9554 2.23999 24.7394 2.23999C25.4674 2.23999 26.1067 2.38932 26.6574 2.68799C27.2174 2.97732 27.642 3.40665 27.9314 3.97599L26.5874 4.75999C26.3634 4.40532 26.088 4.14399 25.7614 3.97599C25.444 3.80799 25.0987 3.72399 24.7254 3.72399C24.296 3.72399 23.9087 3.81732 23.5634 4.00399C23.218 4.19065 22.9474 4.46132 22.7514 4.81599C22.5554 5.16132 22.4574 5.57665 22.4574 6.06199C22.4574 6.54732 22.5554 6.96732 22.7514 7.32199C22.9474 7.66732 23.218 7.93332 23.5634 8.11999C23.9087 8.30665 24.296 8.39999 24.7254 8.39999C25.0987 8.39999 25.444 8.31599 25.7614 8.14799C26.088 7.97999 26.3634 7.71865 26.5874 7.36399L27.9314 8.14799C27.642 8.70799 27.2174 9.14199 26.6574 9.44999C26.1067 9.74865 25.4674 9.89799 24.7394 9.89799ZM30.9715 9.79999V3.38799L31.3775 3.80799H28.3395V2.32399H35.3395V3.80799H32.3155L32.7215 3.38799V9.79999H30.9715ZM41.1449 9.79999V8.28799L41.0469 7.96599V5.31999C41.0469 4.80665 40.8929 4.40999 40.5849 4.12999C40.2769 3.84065 39.8102 3.69599 39.1849 3.69599C38.7649 3.69599 38.3495 3.76132 37.9389 3.89199C37.5375 4.02265 37.1969 4.20465 36.9169 4.43799L36.2309 3.16399C36.6322 2.85599 37.1082 2.62732 37.6589 2.47799C38.2189 2.31932 38.7975 2.23999 39.3949 2.23999C40.4775 2.23999 41.3129 2.50132 41.9009 3.02399C42.4982 3.53732 42.7969 4.33532 42.7969 5.41799V9.79999H41.1449ZM38.7929 9.89799C38.2329 9.89799 37.7429 9.80465 37.3229 9.61799C36.9029 9.42199 36.5762 9.15599 36.3429 8.81999C36.1189 8.47465 36.0069 8.08732 36.0069 7.65799C36.0069 7.23799 36.1049 6.85999 36.3009 6.52399C36.5062 6.18799 36.8375 5.92199 37.2949 5.72599C37.7522 5.52999 38.3589 5.43199 39.1149 5.43199H41.2849V6.59399H39.2409C38.6435 6.59399 38.2422 6.69199 38.0369 6.88799C37.8315 7.07465 37.7289 7.30799 37.7289 7.58799C37.7289 7.90532 37.8549 8.15732 38.1069 8.34399C38.3589 8.53065 38.7089 8.62399 39.1569 8.62399C39.5862 8.62399 39.9689 8.52599 40.3049 8.32999C40.6502 8.13399 40.8975 7.84465 41.0469 7.46199L41.3409 8.51199C41.1729 8.95065 40.8695 9.29132 40.4309 9.53399C40.0015 9.77665 39.4555 9.89799 38.7929 9.89799ZM44.9624 9.79999V2.32399H48.6164C49.5217 2.32399 50.231 2.49199 50.7444 2.82799C51.267 3.16399 51.5284 3.63999 51.5284 4.25599C51.5284 4.86265 51.2857 5.33865 50.8004 5.68399C50.315 6.01999 49.671 6.18799 48.8684 6.18799L49.0784 5.75399C49.9837 5.75399 50.6557 5.92199 51.0944 6.25799C51.5424 6.58465 51.7664 7.06532 51.7664 7.69999C51.7664 8.36265 51.519 8.88065 51.0244 9.25399C50.5297 9.61799 49.7784 9.79999 48.7704 9.79999H44.9624ZM46.6284 8.52599H48.6304C49.1064 8.52599 49.4657 8.45132 49.7084 8.30199C49.951 8.14332 50.0724 7.90532 50.0724 7.58799C50.0724 7.25199 49.9604 7.00465 49.7364 6.84599C49.5124 6.68732 49.1624 6.60799 48.6864 6.60799H46.6284V8.52599ZM46.6284 5.44599H48.4624C48.9104 5.44599 49.2464 5.36665 49.4704 5.20799C49.7037 5.03999 49.8204 4.80665 49.8204 4.50799C49.8204 4.19999 49.7037 3.97132 49.4704 3.82199C49.2464 3.67265 48.9104 3.59799 48.4624 3.59799H46.6284V5.44599ZM58.9923 9.79999L56.2903 6.21599L57.7183 5.33399L61.0503 9.79999H58.9923ZM53.6303 9.79999V2.32399H55.3803V9.79999H53.6303ZM54.8623 6.80399V5.34799H57.3963V6.80399H54.8623ZM57.8863 6.27199L56.2483 6.07599L58.9923 2.32399H60.8683L57.8863 6.27199ZM66.6839 9.79999V8.28799L66.5859 7.96599V5.31999C66.5859 4.80665 66.4319 4.40999 66.1239 4.12999C65.8159 3.84065 65.3493 3.69599 64.7239 3.69599C64.3039 3.69599 63.8886 3.76132 63.4779 3.89199C63.0766 4.02265 62.7359 4.20465 62.4559 4.43799L61.7699 3.16399C62.1713 2.85599 62.6473 2.62732 63.1979 2.47799C63.7579 2.31932 64.3366 2.23999 64.9339 2.23999C66.0166 2.23999 66.8519 2.50132 67.4399 3.02399C68.0373 3.53732 68.3359 4.33532 68.3359 5.41799V9.79999H66.6839ZM64.3319 9.89799C63.7719 9.89799 63.2819 9.80465 62.8619 9.61799C62.4419 9.42199 62.1153 9.15599 61.8819 8.81999C61.6579 8.47465 61.5459 8.08732 61.5459 7.65799C61.5459 7.23799 61.6439 6.85999 61.8399 6.52399C62.0453 6.18799 62.3766 5.92199 62.8339 5.72599C63.2913 5.52999 63.8979 5.43199 64.6539 5.43199H66.8239V6.59399H64.7799C64.1826 6.59399 63.7813 6.69199 63.5759 6.88799C63.3706 7.07465 63.2679 7.30799 63.2679 7.58799C63.2679 7.90532 63.3939 8.15732 63.6459 8.34399C63.8979 8.53065 64.2479 8.62399 64.6959 8.62399C65.1253 8.62399 65.5079 8.52599 65.8439 8.32999C66.1893 8.13399 66.4366 7.84465 66.5859 7.46199L66.8799 8.51199C66.7119 8.95065 66.4086 9.29132 65.9699 9.53399C65.5406 9.77665 64.9946 9.89799 64.3319 9.89799ZM77.7026 9.89799C76.9372 9.89799 76.2559 9.73465 75.6586 9.40799C75.0612 9.07199 74.5899 8.61465 74.2446 8.03599C73.8992 7.45732 73.7266 6.79932 73.7266 6.06199C73.7266 5.31532 73.8992 4.65732 74.2446 4.08799C74.5899 3.50932 75.0612 3.05665 75.6586 2.72999C76.2559 2.40332 76.9372 2.23999 77.7026 2.23999C78.4772 2.23999 79.1632 2.40332 79.7606 2.72999C80.3672 3.05665 80.8386 3.50465 81.1746 4.07399C81.5199 4.64332 81.6926 5.30599 81.6926 6.06199C81.6926 6.79932 81.5199 7.45732 81.1746 8.03599C80.8386 8.61465 80.3672 9.07199 79.7606 9.40799C79.1632 9.73465 78.4772 9.89799 77.7026 9.89799ZM77.7026 8.39999C78.1319 8.39999 78.5146 8.30665 78.8506 8.11999C79.1866 7.93332 79.4479 7.66265 79.6346 7.30799C79.8306 6.95332 79.9286 6.53799 79.9286 6.06199C79.9286 5.57665 79.8306 5.16132 79.6346 4.81599C79.4479 4.46132 79.1866 4.19065 78.8506 4.00399C78.5146 3.81732 78.1366 3.72399 77.7166 3.72399C77.2872 3.72399 76.9046 3.81732 76.5686 4.00399C76.2419 4.19065 75.9806 4.46132 75.7846 4.81599C75.5886 5.16132 75.4906 5.57665 75.4906 6.06199C75.4906 6.53799 75.5886 6.95332 75.7846 7.30799C75.9806 7.66265 76.2419 7.93332 76.5686 8.11999C76.9046 8.30665 77.2826 8.39999 77.7026 8.39999ZM86.8234 9.89799C86.0394 9.89799 85.3394 9.73465 84.7234 9.40799C84.1167 9.07199 83.6407 8.61465 83.2954 8.03599C82.95 7.45732 82.7774 6.79932 82.7774 6.06199C82.7774 5.31532 82.95 4.65732 83.2954 4.08799C83.6407 3.50932 84.1167 3.05665 84.7234 2.72999C85.3394 2.40332 86.0394 2.23999 86.8234 2.23999C87.5514 2.23999 88.1907 2.38932 88.7414 2.68799C89.3014 2.97732 89.726 3.40665 90.0154 3.97599L88.6714 4.75999C88.4474 4.40532 88.172 4.14399 87.8454 3.97599C87.528 3.80799 87.1827 3.72399 86.8094 3.72399C86.38 3.72399 85.9927 3.81732 85.6474 4.00399C85.302 4.19065 85.0314 4.46132 84.8354 4.81599C84.6394 5.16132 84.5414 5.57665 84.5414 6.06199C84.5414 6.54732 84.6394 6.96732 84.8354 7.32199C85.0314 7.66732 85.302 7.93332 85.6474 8.11999C85.9927 8.30665 86.38 8.39999 86.8094 8.39999C87.1827 8.39999 87.528 8.31599 87.8454 8.14799C88.172 7.97999 88.4474 7.71865 88.6714 7.36399L90.0154 8.14799C89.726 8.70799 89.3014 9.14199 88.7414 9.44999C88.1907 9.74865 87.5514 9.89799 86.8234 9.89799ZM92.1324 12.614C91.7684 12.614 91.4044 12.5533 91.0404 12.432C90.6764 12.3107 90.3731 12.1427 90.1304 11.928L90.8304 10.64C91.0078 10.7987 91.2084 10.9247 91.4324 11.018C91.6564 11.1113 91.8851 11.158 92.1184 11.158C92.4358 11.158 92.6924 11.0787 92.8884 10.92C93.0844 10.7613 93.2664 10.4953 93.4344 10.122L93.8684 9.14199L94.0084 8.93199L96.8364 2.32399H98.5164L95.0164 10.402C94.7831 10.962 94.5218 11.4053 94.2324 11.732C93.9524 12.0587 93.6351 12.2873 93.2804 12.418C92.9351 12.5487 92.5524 12.614 92.1324 12.614ZM93.6724 10.066L90.2984 2.32399H92.1184L94.8624 8.77799L93.6724 10.066ZM104.758 8.31599L104.38 8.73599V2.32399H106.13V8.73599L105.71 8.31599H109.406L109 8.73599V2.32399H110.75V9.79999H99.7319V2.32399H101.482V8.73599L101.076 8.31599H104.758ZM110.19 11.34V9.36599L110.596 9.79999H108.944V8.31599H111.828V11.34H110.19ZM116.589 9.89799C115.758 9.89799 115.03 9.73465 114.405 9.40799C113.789 9.07199 113.308 8.61465 112.963 8.03599C112.627 7.45732 112.459 6.79932 112.459 6.06199C112.459 5.31532 112.622 4.65732 112.949 4.08799C113.285 3.50932 113.742 3.05665 114.321 2.72999C114.909 2.40332 115.576 2.23999 116.323 2.23999C117.051 2.23999 117.7 2.39865 118.269 2.71599C118.838 3.03332 119.286 3.48132 119.613 4.05999C119.94 4.63865 120.103 5.31999 120.103 6.10399C120.103 6.17865 120.098 6.26265 120.089 6.35599C120.089 6.44932 120.084 6.53799 120.075 6.62199H113.845V5.45999H119.151L118.465 5.82399C118.474 5.39465 118.386 5.01665 118.199 4.68999C118.012 4.36332 117.756 4.10665 117.429 3.91999C117.112 3.73332 116.743 3.63999 116.323 3.63999C115.894 3.63999 115.516 3.73332 115.189 3.91999C114.872 4.10665 114.62 4.36799 114.433 4.70399C114.256 5.03065 114.167 5.41799 114.167 5.86599V6.14599C114.167 6.59399 114.27 6.99065 114.475 7.33599C114.68 7.68132 114.97 7.94732 115.343 8.13399C115.716 8.32065 116.146 8.41399 116.631 8.41399C117.051 8.41399 117.429 8.34865 117.765 8.21799C118.101 8.08732 118.4 7.88199 118.661 7.60199L119.599 8.67999C119.263 9.07199 118.838 9.37532 118.325 9.58999C117.821 9.79532 117.242 9.89799 116.589 9.89799ZM125.419 9.89799C124.635 9.89799 123.935 9.73465 123.319 9.40799C122.712 9.07199 122.236 8.61465 121.891 8.03599C121.546 7.45732 121.373 6.79932 121.373 6.06199C121.373 5.31532 121.546 4.65732 121.891 4.08799C122.236 3.50932 122.712 3.05665 123.319 2.72999C123.935 2.40332 124.635 2.23999 125.419 2.23999C126.147 2.23999 126.786 2.38932 127.337 2.68799C127.897 2.97732 128.322 3.40665 128.611 3.97599L127.267 4.75999C127.043 4.40532 126.768 4.14399 126.441 3.97599C126.124 3.80799 125.778 3.72399 125.405 3.72399C124.976 3.72399 124.588 3.81732 124.243 4.00399C123.898 4.19065 123.627 4.46132 123.431 4.81599C123.235 5.16132 123.137 5.57665 123.137 6.06199C123.137 6.54732 123.235 6.96732 123.431 7.32199C123.627 7.66732 123.898 7.93332 124.243 8.11999C124.588 8.30665 124.976 8.39999 125.405 8.39999C125.778 8.39999 126.124 8.31599 126.441 8.14799C126.768 7.97999 127.043 7.71865 127.267 7.36399L128.611 8.14799C128.322 8.70799 127.897 9.14199 127.337 9.44999C126.786 9.74865 126.147 9.89799 125.419 9.89799ZM131.651 9.79999V3.38799L132.057 3.80799H129.019V2.32399H136.019V3.80799H132.995L133.401 3.38799V9.79999H131.651ZM137.289 9.79999V2.32399H140.943C141.848 2.32399 142.557 2.49199 143.071 2.82799C143.593 3.16399 143.855 3.63999 143.855 4.25599C143.855 4.86265 143.612 5.33865 143.127 5.68399C142.641 6.01999 141.997 6.18799 141.195 6.18799L141.405 5.75399C142.31 5.75399 142.982 5.92199 143.421 6.25799C143.869 6.58465 144.093 7.06532 144.093 7.69999C144.093 8.36265 143.845 8.88065 143.351 9.25399C142.856 9.61799 142.105 9.79999 141.097 9.79999H137.289ZM138.955 8.52599H140.957C141.433 8.52599 141.792 8.45132 142.035 8.30199C142.277 8.14332 142.399 7.90532 142.399 7.58799C142.399 7.25199 142.287 7.00465 142.063 6.84599C141.839 6.68732 141.489 6.60799 141.013 6.60799H138.955V8.52599ZM138.955 5.44599H140.789C141.237 5.44599 141.573 5.36665 141.797 5.20799C142.03 5.03999 142.147 4.80665 142.147 4.50799C142.147 4.19999 142.03 3.97132 141.797 3.82199C141.573 3.67265 141.237 3.59799 140.789 3.59799H138.955V5.44599ZM144.865 9.78599L144.949 8.31599C145.014 8.32532 145.075 8.33465 145.131 8.34399C145.187 8.35332 145.238 8.35799 145.285 8.35799C145.574 8.35799 145.798 8.26932 145.957 8.09199C146.115 7.91465 146.232 7.67665 146.307 7.37799C146.391 7.06999 146.447 6.72932 146.475 6.35599C146.512 5.97332 146.54 5.59065 146.559 5.20799L146.685 2.32399H152.733V9.79999H150.983V3.33199L151.389 3.80799H147.833L148.211 3.31799L148.113 5.29199C148.085 5.95465 148.029 6.57065 147.945 7.13999C147.87 7.69999 147.749 8.18999 147.581 8.60999C147.422 9.02999 147.198 9.35665 146.909 9.58999C146.629 9.82332 146.269 9.93999 145.831 9.93999C145.691 9.93999 145.537 9.92599 145.369 9.89799C145.21 9.86999 145.042 9.83265 144.865 9.78599ZM159.835 9.79999V7.25199L160.087 7.54599H157.847C156.821 7.54599 156.013 7.33132 155.425 6.90199C154.847 6.46332 154.557 5.83332 154.557 5.01199C154.557 4.13465 154.865 3.46732 155.481 3.00999C156.107 2.55265 156.937 2.32399 157.973 2.32399H161.403V9.79999H159.835ZM154.459 9.79999L156.475 6.94399H158.267L156.335 9.79999H154.459ZM159.835 6.69199V3.33199L160.087 3.79399H158.029C157.488 3.79399 157.068 3.89665 156.769 4.10199C156.48 4.29799 156.335 4.61999 156.335 5.06799C156.335 5.90799 156.881 6.32799 157.973 6.32799H160.087L159.835 6.69199ZM167.243 9.89799C166.413 9.89799 165.685 9.73465 165.059 9.40799C164.443 9.07199 163.963 8.61465 163.617 8.03599C163.281 7.45732 163.113 6.79932 163.113 6.06199C163.113 5.31532 163.277 4.65732 163.603 4.08799C163.939 3.50932 164.397 3.05665 164.975 2.72999C165.563 2.40332 166.231 2.23999 166.977 2.23999C167.705 2.23999 168.354 2.39865 168.923 2.71599C169.493 3.03332 169.941 3.48132 170.267 4.05999C170.594 4.63865 170.757 5.31999 170.757 6.10399C170.757 6.17865 170.753 6.26265 170.743 6.35599C170.743 6.44932 170.739 6.53799 170.729 6.62199H164.499V5.45999H169.805L169.119 5.82399C169.129 5.39465 169.04 5.01665 168.853 4.68999C168.667 4.36332 168.41 4.10665 168.083 3.91999C167.766 3.73332 167.397 3.63999 166.977 3.63999C166.548 3.63999 166.17 3.73332 165.843 3.91999C165.526 4.10665 165.274 4.36799 165.087 4.70399C164.91 5.03065 164.821 5.41799 164.821 5.86599V6.14599C164.821 6.59399 164.924 6.99065 165.129 7.33599C165.335 7.68132 165.624 7.94732 165.997 8.13399C166.371 8.32065 166.8 8.41399 167.285 8.41399C167.705 8.41399 168.083 8.34865 168.419 8.21799C168.755 8.08732 169.054 7.88199 169.315 7.60199L170.253 8.67999C169.917 9.07199 169.493 9.37532 168.979 9.58999C168.475 9.79532 167.897 9.89799 167.243 9.89799ZM173.938 9.79999V3.38799L174.344 3.80799H171.306V2.32399H178.306V3.80799H175.282L175.688 3.38799V9.79999H173.938ZM182.65 9.89799C181.866 9.89799 181.166 9.73465 180.55 9.40799C179.943 9.07199 179.467 8.61465 179.122 8.03599C178.776 7.45732 178.604 6.79932 178.604 6.06199C178.604 5.31532 178.776 4.65732 179.122 4.08799C179.467 3.50932 179.943 3.05665 180.55 2.72999C181.166 2.40332 181.866 2.23999 182.65 2.23999C183.378 2.23999 184.017 2.38932 184.568 2.68799C185.128 2.97732 185.552 3.40665 185.842 3.97599L184.498 4.75999C184.274 4.40532 183.998 4.14399 183.672 3.97599C183.354 3.80799 183.009 3.72399 182.636 3.72399C182.206 3.72399 181.819 3.81732 181.474 4.00399C181.128 4.19065 180.858 4.46132 180.662 4.81599C180.466 5.16132 180.368 5.57665 180.368 6.06199C180.368 6.54732 180.466 6.96732 180.662 7.32199C180.858 7.66732 181.128 7.93332 181.474 8.11999C181.819 8.30665 182.206 8.39999 182.636 8.39999C183.009 8.39999 183.354 8.31599 183.672 8.14799C183.998 7.97999 184.274 7.71865 184.498 7.36399L185.842 8.14799C185.552 8.70799 185.128 9.14199 184.568 9.44999C184.017 9.74865 183.378 9.89799 182.65 9.89799ZM191.923 9.79999V7.25199L192.175 7.54599H189.935C188.909 7.54599 188.101 7.33132 187.513 6.90199C186.935 6.46332 186.645 5.83332 186.645 5.01199C186.645 4.13465 186.953 3.46732 187.569 3.00999C188.195 2.55265 189.025 2.32399 190.061 2.32399H193.491V9.79999H191.923ZM186.547 9.79999L188.563 6.94399H190.355L188.423 9.79999H186.547ZM191.923 6.69199V3.33199L192.175 3.79399H190.117C189.576 3.79399 189.156 3.89665 188.857 4.10199C188.568 4.29799 188.423 4.61999 188.423 5.06799C188.423 5.90799 188.969 6.32799 190.061 6.32799H192.175L191.923 6.69199ZM4.54996 29.94C3.93396 29.94 3.38329 29.8467 2.89796 29.66C2.41262 29.4733 1.99262 29.1887 1.63796 28.806C1.29262 28.414 1.02662 27.9193 0.839955 27.322C0.653288 26.7247 0.559955 26.0153 0.559955 25.194C0.559955 24.5967 0.611288 24.0507 0.713955 23.556C0.816622 23.0613 0.970622 22.618 1.17596 22.226C1.38129 21.8247 1.63796 21.47 1.94596 21.162C2.26329 20.854 2.63196 20.5973 3.05196 20.392C3.47196 20.1867 3.94796 20.028 4.47996 19.916L7.95196 19.174L8.20396 20.742L5.05396 21.386C4.87662 21.4233 4.66196 21.4793 4.40996 21.554C4.16729 21.6193 3.91529 21.722 3.65396 21.862C3.40196 21.9927 3.16396 22.184 2.93996 22.436C2.72529 22.6787 2.54796 22.996 2.40796 23.388C2.27729 23.7707 2.21196 24.2513 2.21196 24.83C2.21196 25.0073 2.21662 25.1427 2.22596 25.236C2.24462 25.32 2.25862 25.4133 2.26796 25.516C2.28662 25.6093 2.29596 25.7493 2.29596 25.936L1.63796 25.25C1.82462 24.774 2.08129 24.368 2.40796 24.032C2.74396 23.6867 3.13129 23.4253 3.56996 23.248C4.01796 23.0613 4.50329 22.968 5.02596 22.968C5.72596 22.968 6.34662 23.1127 6.88796 23.402C7.42929 23.6913 7.85396 24.0973 8.16196 24.62C8.46996 25.1427 8.62396 25.7353 8.62396 26.398C8.62396 27.0887 8.45596 27.7 8.11996 28.232C7.78396 28.764 7.30796 29.184 6.69196 29.492C6.08529 29.7907 5.37129 29.94 4.54996 29.94ZM4.68996 28.526C5.10996 28.526 5.47862 28.4373 5.79596 28.26C6.12262 28.0733 6.37462 27.8213 6.55196 27.504C6.73862 27.1867 6.83196 26.832 6.83196 26.44C6.83196 26.048 6.73862 25.7073 6.55196 25.418C6.37462 25.1193 6.12262 24.8813 5.79596 24.704C5.47862 24.5267 5.10062 24.438 4.66196 24.438C4.24196 24.438 3.86396 24.522 3.52796 24.69C3.20129 24.858 2.94462 25.0913 2.75796 25.39C2.58062 25.6793 2.49196 26.0153 2.49196 26.398C2.49196 26.79 2.58529 27.1493 2.77196 27.476C2.95862 27.8027 3.21529 28.0593 3.54196 28.246C3.87796 28.4327 4.26062 28.526 4.68996 28.526ZM13.8038 29.898C12.9732 29.898 12.2452 29.7347 11.6198 29.408C11.0038 29.072 10.5232 28.6147 10.1778 28.036C9.84185 27.4573 9.67385 26.7993 9.67385 26.062C9.67385 25.3153 9.83718 24.6573 10.1638 24.088C10.4998 23.5093 10.9572 23.0567 11.5358 22.73C12.1238 22.4033 12.7912 22.24 13.5378 22.24C14.2658 22.24 14.9145 22.3987 15.4838 22.716C16.0532 23.0333 16.5012 23.4813 16.8278 24.06C17.1545 24.6387 17.3178 25.32 17.3178 26.104C17.3178 26.1787 17.3132 26.2627 17.3038 26.356C17.3038 26.4493 17.2992 26.538 17.2898 26.622H11.0598V25.46H16.3658L15.6798 25.824C15.6892 25.3947 15.6005 25.0167 15.4138 24.69C15.2272 24.3633 14.9705 24.1067 14.6438 23.92C14.3265 23.7333 13.9578 23.64 13.5378 23.64C13.1085 23.64 12.7305 23.7333 12.4038 23.92C12.0865 24.1067 11.8345 24.368 11.6478 24.704C11.4705 25.0307 11.3818 25.418 11.3818 25.866V26.146C11.3818 26.594 11.4845 26.9907 11.6898 27.336C11.8952 27.6813 12.1845 27.9473 12.5578 28.134C12.9312 28.3207 13.3605 28.414 13.8458 28.414C14.2658 28.414 14.6438 28.3487 14.9798 28.218C15.3158 28.0873 15.6145 27.882 15.8758 27.602L16.8138 28.68C16.4778 29.072 16.0532 29.3753 15.5398 29.59C15.0358 29.7953 14.4572 29.898 13.8038 29.898ZM22.6339 29.898C21.8499 29.898 21.1499 29.7347 20.5339 29.408C19.9272 29.072 19.4512 28.6147 19.1059 28.036C18.7606 27.4573 18.5879 26.7993 18.5879 26.062C18.5879 25.3153 18.7606 24.6573 19.1059 24.088C19.4512 23.5093 19.9272 23.0567 20.5339 22.73C21.1499 22.4033 21.8499 22.24 22.6339 22.24C23.3619 22.24 24.0012 22.3893 24.5519 22.688C25.1119 22.9773 25.5366 23.4067 25.8259 23.976L24.4819 24.76C24.2579 24.4053 23.9826 24.144 23.6559 23.976C23.3386 23.808 22.9932 23.724 22.6199 23.724C22.1906 23.724 21.8032 23.8173 21.4579 24.004C21.1126 24.1907 20.8419 24.4613 20.6459 24.816C20.4499 25.1613 20.3519 25.5767 20.3519 26.062C20.3519 26.5473 20.4499 26.9673 20.6459 27.322C20.8419 27.6673 21.1126 27.9333 21.4579 28.12C21.8032 28.3067 22.1906 28.4 22.6199 28.4C22.9932 28.4 23.3386 28.316 23.6559 28.148C23.9826 27.98 24.2579 27.7187 24.4819 27.364L25.8259 28.148C25.5366 28.708 25.1119 29.142 24.5519 29.45C24.0012 29.7487 23.3619 29.898 22.6339 29.898ZM27.3667 29.8V22.324H34.5347V29.8H32.7987V23.402L33.2047 23.808H28.7107L29.1167 23.402V29.8H27.3667ZM35.804 29.786L35.888 28.316C35.9533 28.3253 36.014 28.3347 36.07 28.344C36.126 28.3533 36.1773 28.358 36.224 28.358C36.5133 28.358 36.7373 28.2693 36.896 28.092C37.0546 27.9147 37.1713 27.6767 37.246 27.378C37.33 27.07 37.386 26.7293 37.414 26.356C37.4513 25.9733 37.4793 25.5907 37.498 25.208L37.624 22.324H43.672V29.8H41.922V23.332L42.328 23.808H38.772L39.15 23.318L39.052 25.292C39.024 25.9547 38.968 26.5707 38.884 27.14C38.8093 27.7 38.688 28.19 38.52 28.61C38.3613 29.03 38.1373 29.3567 37.848 29.59C37.568 29.8233 37.2086 29.94 36.77 29.94C36.63 29.94 36.476 29.926 36.308 29.898C36.1493 29.87 35.9813 29.8327 35.804 29.786ZM50.5648 29.8V28.288L50.4668 27.966V25.32C50.4668 24.8067 50.3128 24.41 50.0048 24.13C49.6968 23.8407 49.2301 23.696 48.6048 23.696C48.1848 23.696 47.7694 23.7613 47.3588 23.892C46.9574 24.0227 46.6168 24.2047 46.3368 24.438L45.6508 23.164C46.0521 22.856 46.5281 22.6273 47.0788 22.478C47.6388 22.3193 48.2175 22.24 48.8148 22.24C49.8975 22.24 50.7328 22.5013 51.3208 23.024C51.9181 23.5373 52.2168 24.3353 52.2168 25.418V29.8H50.5648ZM48.2128 29.898C47.6528 29.898 47.1628 29.8047 46.7428 29.618C46.3228 29.422 45.9961 29.156 45.7628 28.82C45.5388 28.4747 45.4268 28.0873 45.4268 27.658C45.4268 27.238 45.5248 26.86 45.7208 26.524C45.9261 26.188 46.2574 25.922 46.7148 25.726C47.1721 25.53 47.7788 25.432 48.5348 25.432H50.7048V26.594H48.6608C48.0634 26.594 47.6621 26.692 47.4568 26.888C47.2514 27.0747 47.1488 27.308 47.1488 27.588C47.1488 27.9053 47.2748 28.1573 47.5268 28.344C47.7788 28.5307 48.1288 28.624 48.5768 28.624C49.0061 28.624 49.3888 28.526 49.7248 28.33C50.0701 28.134 50.3175 27.8447 50.4668 27.462L50.7608 28.512C50.5928 28.9507 50.2895 29.2913 49.8508 29.534C49.4215 29.7767 48.8755 29.898 48.2128 29.898ZM55.9363 29.8V23.388L56.3423 23.808H53.3043V22.324H60.3043V23.808H57.2803L57.6863 23.388V29.8H55.9363ZM61.5737 29.8V22.324H63.3237V25.362H67.0897V22.324H68.8397V29.8H67.0897V26.846H63.3237V29.8H61.5737ZM74.517 29.898C73.7517 29.898 73.0704 29.7347 72.473 29.408C71.8757 29.072 71.4044 28.6147 71.059 28.036C70.7137 27.4573 70.541 26.7993 70.541 26.062C70.541 25.3153 70.7137 24.6573 71.059 24.088C71.4044 23.5093 71.8757 23.0567 72.473 22.73C73.0704 22.4033 73.7517 22.24 74.517 22.24C75.2917 22.24 75.9777 22.4033 76.575 22.73C77.1817 23.0567 77.653 23.5047 77.989 24.074C78.3344 24.6433 78.507 25.306 78.507 26.062C78.507 26.7993 78.3344 27.4573 77.989 28.036C77.653 28.6147 77.1817 29.072 76.575 29.408C75.9777 29.7347 75.2917 29.898 74.517 29.898ZM74.517 28.4C74.9464 28.4 75.329 28.3067 75.665 28.12C76.001 27.9333 76.2624 27.6627 76.449 27.308C76.645 26.9533 76.743 26.538 76.743 26.062C76.743 25.5767 76.645 25.1613 76.449 24.816C76.2624 24.4613 76.001 24.1907 75.665 24.004C75.329 23.8173 74.951 23.724 74.531 23.724C74.1017 23.724 73.719 23.8173 73.383 24.004C73.0564 24.1907 72.795 24.4613 72.599 24.816C72.403 25.1613 72.305 25.5767 72.305 26.062C72.305 26.538 72.403 26.9533 72.599 27.308C72.795 27.6627 73.0564 27.9333 73.383 28.12C73.719 28.3067 74.097 28.4 74.517 28.4ZM84.105 29.8V22.324H87.759C88.6643 22.324 89.3736 22.492 89.887 22.828C90.4096 23.164 90.671 23.64 90.671 24.256C90.671 24.8627 90.4283 25.3387 89.943 25.684C89.4576 26.02 88.8136 26.188 88.011 26.188L88.221 25.754C89.1263 25.754 89.7983 25.922 90.237 26.258C90.685 26.5847 90.909 27.0653 90.909 27.7C90.909 28.3627 90.6616 28.8807 90.167 29.254C89.6723 29.618 88.921 29.8 87.913 29.8H84.105ZM85.771 28.526H87.773C88.249 28.526 88.6083 28.4513 88.851 28.302C89.0936 28.1433 89.215 27.9053 89.215 27.588C89.215 27.252 89.103 27.0047 88.879 26.846C88.655 26.6873 88.305 26.608 87.829 26.608H85.771V28.526ZM85.771 25.446H87.605C88.053 25.446 88.389 25.3667 88.613 25.208C88.8463 25.04 88.963 24.8067 88.963 24.508C88.963 24.2 88.8463 23.9713 88.613 23.822C88.389 23.6727 88.053 23.598 87.605 23.598H85.771V25.446ZM96.6421 29.8V22.324H103.81V29.8H102.074V23.402L102.48 23.808H97.9861L98.3921 23.402V29.8H96.6421ZM106.843 32.614C106.479 32.614 106.115 32.5533 105.751 32.432C105.387 32.3107 105.084 32.1427 104.841 31.928L105.541 30.64C105.719 30.7987 105.919 30.9247 106.143 31.018C106.367 31.1113 106.596 31.158 106.829 31.158C107.147 31.158 107.403 31.0787 107.599 30.92C107.795 30.7613 107.977 30.4953 108.145 30.122L108.579 29.142L108.719 28.932L111.547 22.324H113.227L109.727 30.402C109.494 30.962 109.233 31.4053 108.943 31.732C108.663 32.0587 108.346 32.2873 107.991 32.418C107.646 32.5487 107.263 32.614 106.843 32.614ZM108.383 30.066L105.009 22.324H106.829L109.573 28.778L108.383 30.066ZM114.443 29.8V22.324H116.193V25.362H119.959V22.324H121.709V29.8H119.959V26.846H116.193V29.8H114.443ZM129.416 29.8L126.714 26.216L128.142 25.334L131.474 29.8H129.416ZM124.054 29.8V22.324H125.804V29.8H124.054ZM125.286 26.804V25.348H127.82V26.804H125.286ZM128.31 26.272L126.672 26.076L129.416 22.324H131.292L128.31 26.272ZM134.167 29.8V23.388L134.573 23.808H131.535V22.324H138.535V23.808H135.511L135.917 23.388V29.8H134.167ZM147.35 29.8V22.324H149.1V29.8H147.35ZM143.444 24.788C144.406 24.788 145.134 25.0027 145.628 25.432C146.132 25.8613 146.384 26.468 146.384 27.252C146.384 28.064 146.104 28.6987 145.544 29.156C144.994 29.604 144.21 29.8233 143.192 29.814L139.804 29.8V22.324H141.554V24.774L143.444 24.788ZM143.038 28.526C143.552 28.5353 143.944 28.428 144.214 28.204C144.485 27.98 144.62 27.6533 144.62 27.224C144.62 26.7947 144.485 26.4867 144.214 26.3C143.953 26.104 143.561 26.0013 143.038 25.992L141.554 25.978V28.512L143.038 28.526ZM155.322 29.8V22.324H158.976C159.881 22.324 160.59 22.492 161.104 22.828C161.626 23.164 161.888 23.64 161.888 24.256C161.888 24.8627 161.645 25.3387 161.16 25.684C160.674 26.02 160.03 26.188 159.228 26.188L159.438 25.754C160.343 25.754 161.015 25.922 161.454 26.258C161.902 26.5847 162.126 27.0653 162.126 27.7C162.126 28.3627 161.878 28.8807 161.384 29.254C160.889 29.618 160.138 29.8 159.13 29.8H155.322ZM156.988 28.526H158.99C159.466 28.526 159.825 28.4513 160.068 28.302C160.31 28.1433 160.432 27.9053 160.432 27.588C160.432 27.252 160.32 27.0047 160.096 26.846C159.872 26.6873 159.522 26.608 159.046 26.608H156.988V28.526ZM156.988 25.446H158.822C159.27 25.446 159.606 25.3667 159.83 25.208C160.063 25.04 160.18 24.8067 160.18 24.508C160.18 24.2 160.063 23.9713 159.83 23.822C159.606 23.6727 159.27 23.598 158.822 23.598H156.988V25.446ZM171.536 29.8V22.324H173.286V29.8H171.536ZM167.63 24.788C168.591 24.788 169.319 25.0027 169.814 25.432C170.318 25.8613 170.57 26.468 170.57 27.252C170.57 28.064 170.29 28.6987 169.73 29.156C169.179 29.604 168.395 29.8233 167.378 29.814L163.99 29.8V22.324H165.74V24.774L167.63 24.788ZM167.224 28.526C167.737 28.5353 168.129 28.428 168.4 28.204C168.67 27.98 168.806 27.6533 168.806 27.224C168.806 26.7947 168.67 26.4867 168.4 26.3C168.138 26.104 167.746 26.0013 167.224 25.992L165.74 25.978V28.512L167.224 28.526ZM180.762 28.988V23.808H177.892L177.85 25.012C177.831 25.4413 177.803 25.8567 177.766 26.258C177.729 26.65 177.668 27.014 177.584 27.35C177.5 27.6767 177.379 27.9473 177.22 28.162C177.061 28.3767 176.851 28.5167 176.59 28.582L174.854 28.316C175.134 28.316 175.358 28.2273 175.526 28.05C175.703 27.8633 175.839 27.6113 175.932 27.294C176.035 26.9673 176.109 26.5987 176.156 26.188C176.203 25.768 176.235 25.334 176.254 24.886L176.352 22.324H182.512V28.988H180.762ZM174.588 31.466V28.316H183.618V31.466H181.98V29.8H176.212V31.466H174.588ZM189.717 29.8V28.288L189.619 27.966V25.32C189.619 24.8067 189.465 24.41 189.157 24.13C188.849 23.8407 188.382 23.696 187.757 23.696C187.337 23.696 186.922 23.7613 186.511 23.892C186.11 24.0227 185.769 24.2047 185.489 24.438L184.803 23.164C185.204 22.856 185.68 22.6273 186.231 22.478C186.791 22.3193 187.37 22.24 187.967 22.24C189.05 22.24 189.885 22.5013 190.473 23.024C191.07 23.5373 191.369 24.3353 191.369 25.418V29.8H189.717ZM187.365 29.898C186.805 29.898 186.315 29.8047 185.895 29.618C185.475 29.422 185.148 29.156 184.915 28.82C184.691 28.4747 184.579 28.0873 184.579 27.658C184.579 27.238 184.677 26.86 184.873 26.524C185.078 26.188 185.41 25.922 185.867 25.726C186.324 25.53 186.931 25.432 187.687 25.432H189.857V26.594H187.813C187.216 26.594 186.814 26.692 186.609 26.888C186.404 27.0747 186.301 27.308 186.301 27.588C186.301 27.9053 186.427 28.1573 186.679 28.344C186.931 28.5307 187.281 28.624 187.729 28.624C188.158 28.624 188.541 28.526 188.877 28.33C189.222 28.134 189.47 27.8447 189.619 27.462L189.913 28.512C189.745 28.9507 189.442 29.2913 189.003 29.534C188.574 29.7767 188.028 29.898 187.365 29.898ZM198.253 26.846C197.898 27.014 197.52 27.154 197.119 27.266C196.727 27.3687 196.311 27.42 195.873 27.42C194.93 27.42 194.197 27.2007 193.675 26.762C193.152 26.3233 192.891 25.642 192.891 24.718V22.324H194.641V24.606C194.641 25.1007 194.781 25.46 195.061 25.684C195.35 25.908 195.747 26.02 196.251 26.02C196.587 26.02 196.923 25.978 197.259 25.894C197.595 25.81 197.926 25.6933 198.253 25.544V26.846ZM198.127 29.8V22.324H199.877V29.8H198.127ZM202.23 29.8V22.324H203.98V27.252L208.11 22.324H209.706V29.8H207.956V24.872L203.84 29.8H202.23ZM220.633 29.94C219.887 29.94 219.191 29.8187 218.547 29.576C217.913 29.324 217.357 28.974 216.881 28.526C216.415 28.0687 216.051 27.532 215.789 26.916C215.528 26.3 215.397 25.628 215.397 24.9C215.397 24.172 215.528 23.5 215.789 22.884C216.051 22.268 216.419 21.736 216.895 21.288C217.371 20.8307 217.927 20.4807 218.561 20.238C219.196 19.986 219.891 19.86 220.647 19.86C221.45 19.86 222.183 20 222.845 20.28C223.508 20.5507 224.068 20.9567 224.525 21.498L223.349 22.604C222.995 22.2213 222.598 21.9367 222.159 21.75C221.721 21.554 221.245 21.456 220.731 21.456C220.218 21.456 219.747 21.54 219.317 21.708C218.897 21.876 218.529 22.114 218.211 22.422C217.903 22.73 217.661 23.094 217.483 23.514C217.315 23.934 217.231 24.396 217.231 24.9C217.231 25.404 217.315 25.866 217.483 26.286C217.661 26.706 217.903 27.07 218.211 27.378C218.529 27.686 218.897 27.924 219.317 28.092C219.747 28.26 220.218 28.344 220.731 28.344C221.245 28.344 221.721 28.2507 222.159 28.064C222.598 27.868 222.995 27.574 223.349 27.182L224.525 28.302C224.068 28.834 223.508 29.24 222.845 29.52C222.183 29.8 221.445 29.94 220.633 29.94ZM232.479 28.96V21.54H228.643L228.573 23.276C228.545 23.9293 228.503 24.55 228.447 25.138C228.4 25.7167 228.321 26.244 228.209 26.72C228.106 27.196 227.962 27.5927 227.775 27.91C227.588 28.2273 227.36 28.4373 227.089 28.54L225.129 28.26C225.484 28.2787 225.773 28.1573 225.997 27.896C226.23 27.6347 226.412 27.2707 226.543 26.804C226.674 26.3373 226.772 25.7913 226.837 25.166C226.902 24.5313 226.949 23.8453 226.977 23.108L227.089 20H234.271V28.96H232.479ZM224.793 31.886L224.807 28.26H235.685V31.886H234.005V29.8H226.487V31.886H224.793ZM239.037 25.544V24.102H244.091V25.544H239.037ZM240.311 19.86C241.029 19.86 241.692 19.986 242.299 20.238C242.905 20.4807 243.433 20.8307 243.881 21.288C244.338 21.736 244.688 22.268 244.931 22.884C245.183 23.5 245.309 24.172 245.309 24.9C245.309 25.628 245.183 26.3 244.931 26.916C244.688 27.532 244.338 28.0687 243.881 28.526C243.433 28.974 242.905 29.324 242.299 29.576C241.692 29.8187 241.029 29.94 240.311 29.94C239.48 29.94 238.724 29.8 238.043 29.52C237.371 29.24 236.811 28.834 236.363 28.302L237.511 27.182C237.875 27.574 238.281 27.868 238.729 28.064C239.186 28.2507 239.681 28.344 240.213 28.344C240.679 28.344 241.113 28.26 241.515 28.092C241.916 27.9147 242.261 27.6767 242.551 27.378C242.84 27.07 243.064 26.706 243.223 26.286C243.381 25.866 243.461 25.404 243.461 24.9C243.461 24.396 243.381 23.934 243.223 23.514C243.064 23.094 242.84 22.7347 242.551 22.436C242.261 22.128 241.916 21.89 241.515 21.722C241.113 21.5447 240.679 21.456 240.213 21.456C239.681 21.456 239.186 21.554 238.729 21.75C238.281 21.9367 237.875 22.226 237.511 22.618L236.363 21.498C236.811 20.966 237.371 20.56 238.043 20.28C238.724 20 239.48 19.86 240.311 19.86ZM253.82 29.8L250.502 25.026L251.972 24.116L255.878 29.8H253.82ZM247.338 29.8V20H249.13V29.8H247.338ZM248.584 25.67V24.102H251.888V25.67H248.584ZM252.14 25.11L250.474 24.886L253.82 20H255.752L252.14 25.11ZM261.115 29.8V22.324H262.865V27.252L266.995 22.324H268.591V29.8H266.841V24.872L262.725 29.8H261.115ZM6.87396 49.8V46.664L7.32196 47.07H4.45196C3.63062 47.07 2.92129 46.9347 2.32396 46.664C1.73596 46.384 1.28329 45.9873 0.965955 45.474C0.648622 44.9513 0.489955 44.326 0.489955 43.598C0.489955 42.842 0.657955 42.198 0.993955 41.666C1.32996 41.1247 1.80596 40.714 2.42196 40.434C3.03796 40.1447 3.76129 40 4.59196 40H8.66596V49.8H6.87396ZM0.517955 49.8L2.93996 46.3H4.77396L2.43596 49.8H0.517955ZM6.87396 46.076V41.036L7.32196 41.54H4.64796C3.90129 41.54 3.32729 41.7127 2.92596 42.058C2.53396 42.394 2.33796 42.898 2.33796 43.57C2.33796 44.214 2.52462 44.7133 2.89796 45.068C3.28062 45.4133 3.84062 45.586 4.57796 45.586H7.32196L6.87396 46.076ZM11.2339 49.8V42.324H12.9839V45.362H16.7499V42.324H18.4999V49.8H16.7499V46.846H12.9839V49.8H11.2339ZM25.9692 48.988V43.808H23.0992L23.0572 45.012C23.0385 45.4413 23.0105 45.8567 22.9732 46.258C22.9359 46.65 22.8752 47.014 22.7912 47.35C22.7072 47.6767 22.5859 47.9473 22.4272 48.162C22.2685 48.3767 22.0585 48.5167 21.7972 48.582L20.0612 48.316C20.3412 48.316 20.5652 48.2273 20.7332 48.05C20.9105 47.8633 21.0459 47.6113 21.1392 47.294C21.2419 46.9673 21.3165 46.5987 21.3632 46.188C21.4099 45.768 21.4425 45.334 21.4612 44.886L21.5592 42.324H27.7192V48.988H25.9692ZM19.7952 51.466V48.316H28.8252V51.466H27.1872V49.8H21.4192V51.466H19.7952ZM33.8742 49.898C33.0435 49.898 32.3155 49.7347 31.6902 49.408C31.0742 49.072 30.5935 48.6147 30.2482 48.036C29.9122 47.4573 29.7442 46.7993 29.7442 46.062C29.7442 45.3153 29.9075 44.6573 30.2342 44.088C30.5702 43.5093 31.0275 43.0567 31.6062 42.73C32.1942 42.4033 32.8615 42.24 33.6082 42.24C34.3362 42.24 34.9848 42.3987 35.5542 42.716C36.1235 43.0333 36.5715 43.4813 36.8982 44.06C37.2248 44.6387 37.3882 45.32 37.3882 46.104C37.3882 46.1787 37.3835 46.2627 37.3742 46.356C37.3742 46.4493 37.3695 46.538 37.3602 46.622H31.1302V45.46H36.4362L35.7502 45.824C35.7595 45.3947 35.6708 45.0167 35.4842 44.69C35.2975 44.3633 35.0408 44.1067 34.7142 43.92C34.3968 43.7333 34.0282 43.64 33.6082 43.64C33.1788 43.64 32.8008 43.7333 32.4742 43.92C32.1568 44.1067 31.9048 44.368 31.7182 44.704C31.5408 45.0307 31.4522 45.418 31.4522 45.866V46.146C31.4522 46.594 31.5548 46.9907 31.7602 47.336C31.9655 47.6813 32.2548 47.9473 32.6282 48.134C33.0015 48.3207 33.4308 48.414 33.9162 48.414C34.3362 48.414 34.7142 48.3487 35.0502 48.218C35.3862 48.0873 35.6848 47.882 35.9462 47.602L36.8842 48.68C36.5482 49.072 36.1235 49.3753 35.6102 49.59C35.1062 49.7953 34.5275 49.898 33.8742 49.898ZM44.6642 49.8L41.9622 46.216L43.3902 45.334L46.7222 49.8H44.6642ZM39.3022 49.8V42.324H41.0522V49.8H39.3022ZM40.5342 46.804V45.348H43.0682V46.804H40.5342ZM43.5582 46.272L41.9202 46.076L44.6642 42.324H46.5402L43.5582 46.272ZM51.1124 49.898C50.3284 49.898 49.6284 49.7347 49.0124 49.408C48.4058 49.072 47.9298 48.6147 47.5844 48.036C47.2391 47.4573 47.0664 46.7993 47.0664 46.062C47.0664 45.3153 47.2391 44.6573 47.5844 44.088C47.9298 43.5093 48.4058 43.0567 49.0124 42.73C49.6284 42.4033 50.3284 42.24 51.1124 42.24C51.8404 42.24 52.4798 42.3893 53.0304 42.688C53.5904 42.9773 54.0151 43.4067 54.3044 43.976L52.9604 44.76C52.7364 44.4053 52.4611 44.144 52.1344 43.976C51.8171 43.808 51.4718 43.724 51.0984 43.724C50.6691 43.724 50.2818 43.8173 49.9364 44.004C49.5911 44.1907 49.3204 44.4613 49.1244 44.816C48.9284 45.1613 48.8304 45.5767 48.8304 46.062C48.8304 46.5473 48.9284 46.9673 49.1244 47.322C49.3204 47.6673 49.5911 47.9333 49.9364 48.12C50.2818 48.3067 50.6691 48.4 51.0984 48.4C51.4718 48.4 51.8171 48.316 52.1344 48.148C52.4611 47.98 52.7364 47.7187 52.9604 47.364L54.3044 48.148C54.0151 48.708 53.5904 49.142 53.0304 49.45C52.4798 49.7487 51.8404 49.898 51.1124 49.898ZM56.6506 49.898C56.3333 49.898 56.0626 49.7907 55.8386 49.576C55.6146 49.352 55.5026 49.072 55.5026 48.736C55.5026 48.3813 55.6146 48.1013 55.8386 47.896C56.0626 47.6813 56.3333 47.574 56.6506 47.574C56.968 47.574 57.2386 47.6813 57.4626 47.896C57.6866 48.1013 57.7986 48.3813 57.7986 48.736C57.7986 49.072 57.6866 49.352 57.4626 49.576C57.2386 49.7907 56.968 49.898 56.6506 49.898ZM59.7466 49.8V40H61.2306L65.5286 47.154H64.7306L68.9586 40H70.4426L70.4706 49.8H68.7346L68.7206 42.702H69.0846L65.5006 48.68H64.6886L61.0486 42.702H61.4686V49.8H59.7466ZM77.5531 49.8V48.288L77.4551 47.966V45.32C77.4551 44.8067 77.3011 44.41 76.9931 44.13C76.6851 43.8407 76.2184 43.696 75.5931 43.696C75.1731 43.696 74.7577 43.7613 74.3471 43.892C73.9457 44.0227 73.6051 44.2047 73.3251 44.438L72.6391 43.164C73.0404 42.856 73.5164 42.6273 74.0671 42.478C74.6271 42.3193 75.2057 42.24 75.8031 42.24C76.8857 42.24 77.7211 42.5013 78.3091 43.024C78.9064 43.5373 79.2051 44.3353 79.2051 45.418V49.8H77.5531ZM75.2011 49.898C74.6411 49.898 74.1511 49.8047 73.7311 49.618C73.3111 49.422 72.9844 49.156 72.7511 48.82C72.5271 48.4747 72.4151 48.0873 72.4151 47.658C72.4151 47.238 72.5131 46.86 72.7091 46.524C72.9144 46.188 73.2457 45.922 73.7031 45.726C74.1604 45.53 74.7671 45.432 75.5231 45.432H77.6931V46.594H75.6491C75.0517 46.594 74.6504 46.692 74.4451 46.888C74.2397 47.0747 74.1371 47.308 74.1371 47.588C74.1371 47.9053 74.2631 48.1573 74.5151 48.344C74.7671 48.5307 75.1171 48.624 75.5651 48.624C75.9944 48.624 76.3771 48.526 76.7131 48.33C77.0584 48.134 77.3057 47.8447 77.4551 47.462L77.7491 48.512C77.5811 48.9507 77.2777 49.2913 76.8391 49.534C76.4097 49.7767 75.8637 49.898 75.2011 49.898ZM85.5146 49.898C84.9079 49.898 84.3526 49.758 83.8486 49.478C83.3539 49.198 82.9572 48.778 82.6586 48.218C82.3692 47.6487 82.2246 46.93 82.2246 46.062C82.2246 45.1847 82.3646 44.466 82.6446 43.906C82.9339 43.346 83.3259 42.9307 83.8206 42.66C84.3152 42.38 84.8799 42.24 85.5146 42.24C86.2519 42.24 86.9006 42.3987 87.4606 42.716C88.0299 43.0333 88.4779 43.4767 88.8046 44.046C89.1406 44.6153 89.3086 45.2873 89.3086 46.062C89.3086 46.8367 89.1406 47.5133 88.8046 48.092C88.4779 48.6613 88.0299 49.1047 87.4606 49.422C86.9006 49.7393 86.2519 49.898 85.5146 49.898ZM81.3706 52.516V42.324H83.0366V44.088L82.9806 46.076L83.1206 48.064V52.516H81.3706ZM85.3186 48.4C85.7386 48.4 86.1119 48.3067 86.4386 48.12C86.7746 47.9333 87.0406 47.6627 87.2366 47.308C87.4326 46.9533 87.5306 46.538 87.5306 46.062C87.5306 45.5767 87.4326 45.1613 87.2366 44.816C87.0406 44.4613 86.7746 44.1907 86.4386 44.004C86.1119 43.8173 85.7386 43.724 85.3186 43.724C84.8986 43.724 84.5206 43.8173 84.1846 44.004C83.8486 44.1907 83.5826 44.4613 83.3866 44.816C83.1906 45.1613 83.0926 45.5767 83.0926 46.062C83.0926 46.538 83.1906 46.9533 83.3866 47.308C83.5826 47.6627 83.8486 47.9333 84.1846 48.12C84.5206 48.3067 84.8986 48.4 85.3186 48.4ZM96.4123 49.8L93.7103 46.216L95.1383 45.334L98.4703 49.8H96.4123ZM91.0503 49.8V42.324H92.8003V49.8H91.0503ZM92.2823 46.804V45.348H94.8163V46.804H92.2823ZM95.3063 46.272L93.6683 46.076L96.4123 42.324H98.2883L95.3063 46.272ZM102.944 49.898C102.114 49.898 101.386 49.7347 100.76 49.408C100.144 49.072 99.6638 48.6147 99.3185 48.036C98.9825 47.4573 98.8145 46.7993 98.8145 46.062C98.8145 45.3153 98.9778 44.6573 99.3045 44.088C99.6405 43.5093 100.098 43.0567 100.676 42.73C101.264 42.4033 101.932 42.24 102.678 42.24C103.406 42.24 104.055 42.3987 104.624 42.716C105.194 43.0333 105.642 43.4813 105.968 44.06C106.295 44.6387 106.458 45.32 106.458 46.104C106.458 46.1787 106.454 46.2627 106.444 46.356C106.444 46.4493 106.44 46.538 106.43 46.622H100.2V45.46H105.506L104.82 45.824C104.83 45.3947 104.741 45.0167 104.554 44.69C104.368 44.3633 104.111 44.1067 103.784 43.92C103.467 43.7333 103.098 43.64 102.678 43.64C102.249 43.64 101.871 43.7333 101.544 43.92C101.227 44.1067 100.975 44.368 100.788 44.704C100.611 45.0307 100.522 45.418 100.522 45.866V46.146C100.522 46.594 100.625 46.9907 100.83 47.336C101.036 47.6813 101.325 47.9473 101.698 48.134C102.072 48.3207 102.501 48.414 102.986 48.414C103.406 48.414 103.784 48.3487 104.12 48.218C104.456 48.0873 104.755 47.882 105.016 47.602L105.954 48.68C105.618 49.072 105.194 49.3753 104.68 49.59C104.176 49.7953 103.598 49.898 102.944 49.898ZM109.639 49.8V43.388L110.045 43.808H107.007V42.324H114.007V43.808H110.983L111.389 43.388V49.8H109.639Z" fill="white"/>
</svg>
