<svg width="23" height="22" viewBox="0 0 23 22" fill="none" xmlns="http://www.w3.org/2000/svg">
<rect x="0.539551" width="22" height="22" rx="11" fill="#E51A4B"/>
<g clip-path="url(#clip0_7187_10622)">
<path d="M11.2262 4.0308C11.6404 3.94734 12.0852 4.03539 12.4344 4.27196C12.7889 4.50854 13.0431 4.89058 13.1181 5.31013C13.2 5.73735 13.0974 6.19671 12.8402 6.54737C12.5867 6.89878 12.1855 7.13995 11.7552 7.19584C11.3272 7.25556 10.877 7.13306 10.5401 6.86203C10.214 6.60479 9.99652 6.21662 9.94752 5.80396C9.89545 5.39435 10.008 4.96637 10.2584 4.63793C10.4919 4.32632 10.8426 4.10506 11.2254 4.0308H11.2262Z" fill="#B0CB1F"/>
<path d="M11.2566 14.8146C11.6662 14.7403 12.1034 14.8329 12.4465 15.0703C12.801 15.3115 13.0529 15.6996 13.1225 16.1238C13.2052 16.5923 13.0643 17.0938 12.7481 17.449C12.484 17.7545 12.1011 17.9536 11.6992 17.9919C11.2796 18.0355 10.8447 17.9046 10.5208 17.6343C10.2038 17.3756 9.99406 16.9912 9.94735 16.5847C9.89606 16.1689 10.0155 15.7348 10.2751 15.4056C10.5147 15.0963 10.8715 14.8812 11.2566 14.8146ZM8.51788 6.73047C8.91295 6.64778 9.33713 6.72128 9.68014 6.93335C10.0568 7.16227 10.3317 7.55197 10.4159 7.98531C10.5048 8.41481 10.4067 8.87878 10.1503 9.23479C9.90371 9.58391 9.51093 9.82661 9.08676 9.88862C8.65033 9.95753 8.18711 9.83579 7.84257 9.55864C7.50262 9.28991 7.27905 8.87878 7.24306 8.4462C7.20631 8.04885 7.32499 7.63848 7.57076 7.32382C7.80276 7.02216 8.14424 6.80626 8.51711 6.7297L8.51788 6.73047ZM13.8974 6.73353C14.2856 6.64855 14.7044 6.71439 15.0466 6.91574C15.4448 7.14696 15.7357 7.55656 15.8161 8.01057C15.8927 8.41635 15.8046 8.84968 15.5742 9.19191C15.3261 9.56783 14.9119 9.83043 14.4647 9.89092C14.0505 9.9514 13.6141 9.84115 13.2787 9.59003C12.9411 9.34044 12.7098 8.95304 12.6509 8.53808C12.5896 8.1323 12.6915 7.70356 12.9319 7.37052C13.1608 7.0482 13.5122 6.81621 13.8989 6.73353H13.8974ZM5.78908 9.43461C6.16349 9.34963 6.56775 9.40322 6.90541 9.5862C7.31197 9.80364 7.6167 10.2041 7.71317 10.6558C7.79816 11.0378 7.73691 11.4512 7.5409 11.7912C7.31656 12.1862 6.91919 12.4802 6.47281 12.5713C6.06242 12.6586 5.61911 12.5759 5.26844 12.3447C4.93155 12.1242 4.67965 11.7759 4.58547 11.3839C4.48211 10.9704 4.55332 10.5164 4.77995 10.1551C5.00352 9.79445 5.3741 9.52725 5.78832 9.43538L5.78908 9.43461ZM11.1923 9.43308C11.5958 9.34274 12.033 9.41624 12.3844 9.6352C12.7328 9.84957 12.9954 10.2018 13.095 10.5991C13.209 11.037 13.1271 11.5217 12.8722 11.8953C12.6157 12.2789 12.1884 12.5422 11.729 12.5943C11.3049 12.6471 10.8623 12.5193 10.5315 12.249C10.2054 11.9879 9.99023 11.5952 9.94582 11.1794C9.90142 10.7928 10.0025 10.3916 10.2284 10.0739C10.4557 9.75081 10.8057 9.51653 11.1923 9.43308ZM16.5703 9.43767C16.9447 9.34963 17.3497 9.40092 17.6889 9.58314C18.0533 9.77607 18.3389 10.1145 18.4637 10.508C18.6031 10.9367 18.5503 11.4252 18.3198 11.8126C18.1131 12.1656 17.7678 12.4343 17.3742 12.5445C17.0205 12.6456 16.6331 12.6196 16.2962 12.4718C15.8758 12.2896 15.5397 11.919 15.4042 11.4803C15.274 11.0723 15.3177 10.6121 15.5236 10.2354C15.7388 9.83732 16.1285 9.53797 16.5703 9.43691V9.43767ZM8.61205 12.1097C9.04618 12.0454 9.50404 12.1678 9.84552 12.4442C10.1809 12.7091 10.4006 13.1134 10.4404 13.5391C10.4864 13.9824 10.3363 14.441 10.0369 14.7709C9.74446 15.0994 9.3111 15.2961 8.87161 15.3015C8.44055 15.3115 8.00872 15.1369 7.70552 14.8299C7.42146 14.5481 7.25072 14.1569 7.2377 13.7565C7.22009 13.3446 7.37093 12.9289 7.64886 12.6249C7.89693 12.3478 8.24377 12.161 8.61205 12.1097ZM13.9885 12.112C14.4019 12.0469 14.8399 12.1502 15.1783 12.3975C15.5221 12.6448 15.7617 13.0322 15.823 13.4518C15.8934 13.8966 15.7656 14.3675 15.4784 14.7143C15.2143 15.0397 14.8169 15.2525 14.3996 15.2931C14.0214 15.3329 13.6309 15.2326 13.3193 15.0144C12.9533 14.7625 12.7022 14.3514 12.6455 13.9104C12.5866 13.4847 12.7075 13.0376 12.9763 12.7022C13.2228 12.3876 13.5919 12.1717 13.9877 12.1112L13.9885 12.112Z" fill="white"/>
</g>
<defs>
<clipPath id="clip0_7187_10622">
<rect width="14" height="14" fill="white" transform="translate(4.53955 4)"/>
</clipPath>
</defs>
</svg>
