<svg width="652" height="68" viewBox="0 0 652 68" fill="none" xmlns="http://www.w3.org/2000/svg">
<g clip-path="url(#clip0_5998_17496)">
<path d="M5.99998 12.6666C8.57731 12.6666 10.6666 10.5772 10.6666 7.99992C10.6666 5.42259 8.57731 3.33325 5.99998 3.33325C3.42265 3.33325 1.33331 5.42259 1.33331 7.99992C1.33331 10.5772 3.42265 12.6666 5.99998 12.6666Z" stroke="#28CB47" stroke-width="1.5" stroke-linecap="round" stroke-linejoin="round"/>
<path d="M9.99998 16.6666C12.5773 16.6666 14.6666 14.5772 14.6666 11.9999C14.6666 9.42259 12.5773 7.33325 9.99998 7.33325C7.42265 7.33325 5.33331 9.42259 5.33331 11.9999C5.33331 14.5772 7.42265 16.6666 9.99998 16.6666Z" stroke="#28CB47" stroke-width="1.5" stroke-linecap="round" stroke-linejoin="round"/>
</g>
<path d="M31.088 12.072C30.456 12.072 29.872 11.968 29.336 11.76C28.8 11.544 28.336 11.244 27.944 10.86C27.552 10.476 27.244 10.024 27.02 9.504C26.804 8.984 26.696 8.416 26.696 7.8C26.696 7.184 26.804 6.616 27.02 6.096C27.244 5.576 27.552 5.124 27.944 4.74C28.344 4.356 28.812 4.06 29.348 3.852C29.884 3.636 30.468 3.528 31.1 3.528C31.708 3.528 32.28 3.632 32.816 3.84C33.352 4.04 33.804 4.344 34.172 4.752L33.608 5.316C33.264 4.964 32.884 4.712 32.468 4.56C32.052 4.4 31.604 4.32 31.124 4.32C30.62 4.32 30.152 4.408 29.72 4.584C29.288 4.752 28.912 4.996 28.592 5.316C28.272 5.628 28.02 5.996 27.836 6.42C27.66 6.836 27.572 7.296 27.572 7.8C27.572 8.304 27.66 8.768 27.836 9.192C28.02 9.608 28.272 9.976 28.592 10.296C28.912 10.608 29.288 10.852 29.72 11.028C30.152 11.196 30.62 11.28 31.124 11.28C31.604 11.28 32.052 11.2 32.468 11.04C32.884 10.88 33.264 10.624 33.608 10.272L34.172 10.836C33.804 11.244 33.352 11.552 32.816 11.76C32.28 11.968 31.704 12.072 31.088 12.072ZM39.0538 12.06C38.5098 12.06 38.0178 11.936 37.5778 11.688C37.1378 11.432 36.7858 11.068 36.5218 10.596C36.2658 10.116 36.1378 9.532 36.1378 8.844C36.1378 8.156 36.2658 7.576 36.5218 7.104C36.7778 6.624 37.1258 6.26 37.5658 6.012C38.0058 5.764 38.5018 5.64 39.0538 5.64C39.6538 5.64 40.1898 5.776 40.6618 6.048C41.1418 6.312 41.5178 6.688 41.7898 7.176C42.0618 7.656 42.1978 8.212 42.1978 8.844C42.1978 9.484 42.0618 10.044 41.7898 10.524C41.5178 11.004 41.1418 11.38 40.6618 11.652C40.1898 11.924 39.6538 12.06 39.0538 12.06ZM35.8018 14.328V5.7H36.6178V7.596L36.5338 8.856L36.6538 10.128V14.328H35.8018ZM38.9938 11.304C39.4418 11.304 39.8418 11.204 40.1938 11.004C40.5458 10.796 40.8258 10.508 41.0338 10.14C41.2418 9.764 41.3458 9.332 41.3458 8.844C41.3458 8.356 41.2418 7.928 41.0338 7.56C40.8258 7.192 40.5458 6.904 40.1938 6.696C39.8418 6.488 39.4418 6.384 38.9938 6.384C38.5458 6.384 38.1418 6.488 37.7818 6.696C37.4298 6.904 37.1498 7.192 36.9418 7.56C36.7418 7.928 36.6418 8.356 36.6418 8.844C36.6418 9.332 36.7418 9.764 36.9418 10.14C37.1498 10.508 37.4298 10.796 37.7818 11.004C38.1418 11.204 38.5458 11.304 38.9938 11.304ZM47.9053 12V10.608L47.8693 10.38V8.052C47.8693 7.516 47.7173 7.104 47.4133 6.816C47.1173 6.528 46.6733 6.384 46.0813 6.384C45.6733 6.384 45.2853 6.452 44.9173 6.588C44.5493 6.724 44.2373 6.904 43.9813 7.128L43.5973 6.492C43.9173 6.22 44.3013 6.012 44.7493 5.868C45.1973 5.716 45.6693 5.64 46.1653 5.64C46.9813 5.64 47.6093 5.844 48.0493 6.252C48.4973 6.652 48.7213 7.264 48.7213 8.088V12H47.9053ZM45.7333 12.06C45.2613 12.06 44.8493 11.984 44.4973 11.832C44.1533 11.672 43.8893 11.456 43.7053 11.184C43.5213 10.904 43.4293 10.584 43.4293 10.224C43.4293 9.896 43.5053 9.6 43.6573 9.336C43.8173 9.064 44.0733 8.848 44.4253 8.688C44.7853 8.52 45.2653 8.436 45.8652 8.436H48.0373V9.072H45.8893C45.2813 9.072 44.8573 9.18 44.6173 9.396C44.3853 9.612 44.2693 9.88 44.2693 10.2C44.2693 10.56 44.4093 10.848 44.6893 11.064C44.9693 11.28 45.3613 11.388 45.8652 11.388C46.3453 11.388 46.7573 11.28 47.1013 11.064C47.4533 10.84 47.7093 10.52 47.8693 10.104L48.0613 10.692C47.9013 11.108 47.6213 11.44 47.2213 11.688C46.8293 11.936 46.3333 12.06 45.7333 12.06ZM50.9893 12V5.7H53.7733C54.4853 5.7 55.0453 5.836 55.4533 6.108C55.8693 6.38 56.0773 6.78 56.0773 7.308C56.0773 7.82 55.8813 8.216 55.4893 8.496C55.0973 8.768 54.5813 8.904 53.9413 8.904L54.1093 8.652C54.8613 8.652 55.4133 8.792 55.7653 9.072C56.1173 9.352 56.2933 9.756 56.2933 10.284C56.2933 10.828 56.0933 11.252 55.6933 11.556C55.3013 11.852 54.6893 12 53.8573 12H50.9893ZM51.8173 11.328H53.8213C54.3573 11.328 54.7613 11.244 55.0333 11.076C55.3133 10.9 55.4533 10.62 55.4533 10.236C55.4533 9.852 55.3293 9.572 55.0813 9.396C54.8333 9.22 54.4413 9.132 53.9053 9.132H51.8173V11.328ZM51.8173 8.496H53.7133C54.2013 8.496 54.5733 8.404 54.8293 8.22C55.0933 8.036 55.2253 7.768 55.2253 7.416C55.2253 7.064 55.0933 6.8 54.8293 6.624C54.5733 6.448 54.2013 6.36 53.7133 6.36H51.8173V8.496ZM58.2901 12V5.7H59.1421V8.484H63.1141V5.7H63.9661V12H63.1141V9.216H59.1421V12H58.2901ZM66.3878 12V5.7H67.2398V10.704L71.4518 5.7H72.2078V12H71.3558V6.984L67.1558 12H66.3878ZM75.8495 12V6.216L76.0655 6.444H73.4615V5.7H79.0895V6.444H76.4855L76.7015 6.216V12H75.8495ZM82.7284 12.06C82.0724 12.06 81.4964 11.924 81.0004 11.652C80.5044 11.372 80.1164 10.992 79.8364 10.512C79.5564 10.024 79.4164 9.468 79.4164 8.844C79.4164 8.22 79.5484 7.668 79.8124 7.188C80.0844 6.708 80.4524 6.332 80.9164 6.06C81.3884 5.78 81.9164 5.64 82.5004 5.64C83.0924 5.64 83.6164 5.776 84.0724 6.048C84.5364 6.312 84.9004 6.688 85.1644 7.176C85.4284 7.656 85.5604 8.212 85.5604 8.844C85.5604 8.884 85.5564 8.928 85.5484 8.976C85.5484 9.016 85.5484 9.06 85.5484 9.108H80.0644V8.472H85.0924L84.7564 8.724C84.7564 8.268 84.6564 7.864 84.4564 7.512C84.2644 7.152 84.0004 6.872 83.6644 6.672C83.3284 6.472 82.9404 6.372 82.5004 6.372C82.0684 6.372 81.6804 6.472 81.3364 6.672C80.9924 6.872 80.7244 7.152 80.5324 7.512C80.3404 7.872 80.2444 8.284 80.2444 8.748V8.88C80.2444 9.36 80.3484 9.784 80.5564 10.152C80.7724 10.512 81.0684 10.796 81.4444 11.004C81.8284 11.204 82.2644 11.304 82.7524 11.304C83.1364 11.304 83.4924 11.236 83.8204 11.1C84.1564 10.964 84.4444 10.756 84.6844 10.476L85.1644 11.028C84.8844 11.364 84.5324 11.62 84.1084 11.796C83.6924 11.972 83.2324 12.06 82.7284 12.06ZM93.227 12.06C92.603 12.06 92.043 11.924 91.547 11.652C91.059 11.372 90.675 10.992 90.395 10.512C90.115 10.024 89.975 9.468 89.975 8.844C89.975 8.212 90.115 7.656 90.395 7.176C90.675 6.696 91.059 6.32 91.547 6.048C92.043 5.776 92.603 5.64 93.227 5.64C93.763 5.64 94.247 5.744 94.679 5.952C95.111 6.16 95.451 6.472 95.699 6.888L95.063 7.32C94.847 7 94.579 6.764 94.259 6.612C93.939 6.46 93.591 6.384 93.215 6.384C92.767 6.384 92.363 6.488 92.003 6.696C91.643 6.896 91.359 7.18 91.151 7.548C90.943 7.916 90.839 8.348 90.839 8.844C90.839 9.34 90.943 9.772 91.151 10.14C91.359 10.508 91.643 10.796 92.003 11.004C92.363 11.204 92.767 11.304 93.215 11.304C93.591 11.304 93.939 11.228 94.259 11.076C94.579 10.924 94.847 10.692 95.063 10.38L95.699 10.812C95.451 11.22 95.111 11.532 94.679 11.748C94.247 11.956 93.763 12.06 93.227 12.06ZM100.489 12V5.7H101.353L104.209 10.536H103.849L106.753 5.7H107.545V12H106.765V6.672L106.921 6.744L104.209 11.232H103.825L101.089 6.696L101.269 6.66V12H100.489ZM113.882 12V10.608L113.846 10.38V8.052C113.846 7.516 113.694 7.104 113.39 6.816C113.094 6.528 112.65 6.384 112.058 6.384C111.65 6.384 111.262 6.452 110.894 6.588C110.526 6.724 110.214 6.904 109.958 7.128L109.574 6.492C109.894 6.22 110.278 6.012 110.726 5.868C111.174 5.716 111.646 5.64 112.142 5.64C112.958 5.64 113.586 5.844 114.026 6.252C114.474 6.652 114.698 7.264 114.698 8.088V12H113.882ZM111.71 12.06C111.238 12.06 110.826 11.984 110.474 11.832C110.13 11.672 109.866 11.456 109.682 11.184C109.498 10.904 109.406 10.584 109.406 10.224C109.406 9.896 109.482 9.6 109.634 9.336C109.794 9.064 110.05 8.848 110.402 8.688C110.762 8.52 111.242 8.436 111.842 8.436H114.014V9.072H111.866C111.258 9.072 110.834 9.18 110.594 9.396C110.362 9.612 110.246 9.88 110.246 10.2C110.246 10.56 110.386 10.848 110.666 11.064C110.946 11.28 111.338 11.388 111.842 11.388C112.322 11.388 112.734 11.28 113.078 11.064C113.43 10.84 113.686 10.52 113.846 10.104L114.038 10.692C113.878 11.108 113.598 11.44 113.198 11.688C112.806 11.936 112.31 12.06 111.71 12.06ZM120.218 12.06C119.674 12.06 119.182 11.936 118.742 11.688C118.302 11.432 117.95 11.068 117.686 10.596C117.43 10.116 117.302 9.532 117.302 8.844C117.302 8.156 117.43 7.576 117.686 7.104C117.942 6.624 118.29 6.26 118.73 6.012C119.17 5.764 119.666 5.64 120.218 5.64C120.818 5.64 121.354 5.776 121.826 6.048C122.306 6.312 122.682 6.688 122.954 7.176C123.226 7.656 123.362 8.212 123.362 8.844C123.362 9.484 123.226 10.044 122.954 10.524C122.682 11.004 122.306 11.38 121.826 11.652C121.354 11.924 120.818 12.06 120.218 12.06ZM116.966 14.328V5.7H117.782V7.596L117.698 8.856L117.818 10.128V14.328H116.966ZM120.158 11.304C120.606 11.304 121.006 11.204 121.358 11.004C121.71 10.796 121.99 10.508 122.198 10.14C122.406 9.764 122.51 9.332 122.51 8.844C122.51 8.356 122.406 7.928 122.198 7.56C121.99 7.192 121.71 6.904 121.358 6.696C121.006 6.488 120.606 6.384 120.158 6.384C119.71 6.384 119.306 6.488 118.946 6.696C118.594 6.904 118.314 7.192 118.106 7.56C117.906 7.928 117.806 8.356 117.806 8.844C117.806 9.332 117.906 9.764 118.106 10.14C118.314 10.508 118.594 10.796 118.946 11.004C119.306 11.204 119.71 11.304 120.158 11.304ZM129.812 12L127.22 8.88L127.928 8.46L130.82 12H129.812ZM125.192 12V5.7H126.044V12H125.192ZM125.78 9.192V8.46H127.808V9.192H125.78ZM128 8.94L127.208 8.82L129.716 5.7H130.64L128 8.94ZM134.642 12.06C133.986 12.06 133.41 11.924 132.914 11.652C132.418 11.372 132.03 10.992 131.75 10.512C131.47 10.024 131.33 9.468 131.33 8.844C131.33 8.22 131.462 7.668 131.726 7.188C131.998 6.708 132.366 6.332 132.83 6.06C133.302 5.78 133.83 5.64 134.414 5.64C135.006 5.64 135.53 5.776 135.986 6.048C136.45 6.312 136.814 6.688 137.078 7.176C137.342 7.656 137.474 8.212 137.474 8.844C137.474 8.884 137.47 8.928 137.462 8.976C137.462 9.016 137.462 9.06 137.462 9.108H131.978V8.472H137.006L136.67 8.724C136.67 8.268 136.57 7.864 136.37 7.512C136.178 7.152 135.914 6.872 135.578 6.672C135.242 6.472 134.854 6.372 134.414 6.372C133.982 6.372 133.594 6.472 133.25 6.672C132.906 6.872 132.638 7.152 132.446 7.512C132.254 7.872 132.158 8.284 132.158 8.748V8.88C132.158 9.36 132.262 9.784 132.47 10.152C132.686 10.512 132.982 10.796 133.358 11.004C133.742 11.204 134.178 11.304 134.666 11.304C135.05 11.304 135.406 11.236 135.734 11.1C136.07 10.964 136.358 10.756 136.598 10.476L137.078 11.028C136.798 11.364 136.446 11.62 136.022 11.796C135.606 11.972 135.146 12.06 134.642 12.06ZM140.279 12V6.216L140.495 6.444H137.891V5.7H143.519V6.444H140.915L141.131 6.216V12H140.279ZM144.751 12V5.7H150.415V12H149.563V6.216L149.779 6.444H145.387L145.603 6.216V12H144.751ZM151.685 11.988L151.745 11.256C151.801 11.264 151.853 11.276 151.901 11.292C151.957 11.3 152.005 11.304 152.045 11.304C152.301 11.304 152.505 11.208 152.657 11.016C152.817 10.824 152.937 10.568 153.017 10.248C153.097 9.928 153.153 9.568 153.185 9.168C153.217 8.76 153.245 8.352 153.269 7.944L153.377 5.7H157.997V12H157.145V6.192L157.361 6.444H153.929L154.133 6.18L154.037 8.004C154.013 8.548 153.969 9.068 153.905 9.564C153.849 10.06 153.757 10.496 153.629 10.872C153.509 11.248 153.341 11.544 153.125 11.76C152.909 11.968 152.633 12.072 152.297 12.072C152.201 12.072 152.101 12.064 151.997 12.048C151.901 12.032 151.797 12.012 151.685 11.988ZM163.119 12.06C162.463 12.06 161.887 11.924 161.391 11.652C160.895 11.372 160.507 10.992 160.227 10.512C159.947 10.024 159.807 9.468 159.807 8.844C159.807 8.22 159.939 7.668 160.203 7.188C160.475 6.708 160.843 6.332 161.307 6.06C161.779 5.78 162.307 5.64 162.891 5.64C163.483 5.64 164.007 5.776 164.463 6.048C164.927 6.312 165.291 6.688 165.555 7.176C165.819 7.656 165.951 8.212 165.951 8.844C165.951 8.884 165.947 8.928 165.939 8.976C165.939 9.016 165.939 9.06 165.939 9.108H160.455V8.472H165.483L165.147 8.724C165.147 8.268 165.047 7.864 164.847 7.512C164.655 7.152 164.391 6.872 164.055 6.672C163.719 6.472 163.331 6.372 162.891 6.372C162.459 6.372 162.071 6.472 161.727 6.672C161.383 6.872 161.115 7.152 160.923 7.512C160.731 7.872 160.635 8.284 160.635 8.748V8.88C160.635 9.36 160.739 9.784 160.947 10.152C161.163 10.512 161.459 10.796 161.835 11.004C162.219 11.204 162.655 11.304 163.143 11.304C163.527 11.304 163.883 11.236 164.211 11.1C164.547 10.964 164.835 10.756 165.075 10.476L165.555 11.028C165.275 11.364 164.923 11.62 164.499 11.796C164.083 11.972 163.623 12.06 163.119 12.06ZM167.837 12V5.7H168.689V10.704L172.901 5.7H173.657V12H172.805V6.984L168.605 12H167.837ZM170.693 4.788C170.165 4.788 169.737 4.656 169.409 4.392C169.089 4.12 168.921 3.732 168.905 3.228H169.517C169.525 3.548 169.637 3.8 169.853 3.984C170.069 4.168 170.349 4.26 170.693 4.26C171.037 4.26 171.317 4.168 171.533 3.984C171.757 3.8 171.873 3.548 171.881 3.228H172.493C172.485 3.732 172.317 4.12 171.989 4.392C171.661 4.656 171.229 4.788 170.693 4.788ZM178.739 12.06C178.115 12.06 177.555 11.924 177.059 11.652C176.571 11.372 176.187 10.992 175.907 10.512C175.627 10.024 175.487 9.468 175.487 8.844C175.487 8.212 175.627 7.656 175.907 7.176C176.187 6.696 176.571 6.32 177.059 6.048C177.555 5.776 178.115 5.64 178.739 5.64C179.275 5.64 179.759 5.744 180.191 5.952C180.623 6.16 180.963 6.472 181.211 6.888L180.575 7.32C180.359 7 180.091 6.764 179.771 6.612C179.451 6.46 179.103 6.384 178.727 6.384C178.279 6.384 177.875 6.488 177.515 6.696C177.155 6.896 176.871 7.18 176.663 7.548C176.455 7.916 176.351 8.348 176.351 8.844C176.351 9.34 176.455 9.772 176.663 10.14C176.871 10.508 177.155 10.796 177.515 11.004C177.875 11.204 178.279 11.304 178.727 11.304C179.103 11.304 179.451 11.228 179.771 11.076C180.091 10.924 180.359 10.692 180.575 10.38L181.211 10.812C180.963 11.22 180.623 11.532 180.191 11.748C179.759 11.956 179.275 12.06 178.739 12.06ZM186.772 12V10.608L186.736 10.38V8.052C186.736 7.516 186.584 7.104 186.28 6.816C185.984 6.528 185.54 6.384 184.948 6.384C184.54 6.384 184.152 6.452 183.784 6.588C183.416 6.724 183.104 6.904 182.848 7.128L182.464 6.492C182.784 6.22 183.168 6.012 183.616 5.868C184.064 5.716 184.536 5.64 185.032 5.64C185.848 5.64 186.476 5.844 186.916 6.252C187.364 6.652 187.588 7.264 187.588 8.088V12H186.772ZM184.6 12.06C184.128 12.06 183.716 11.984 183.364 11.832C183.02 11.672 182.756 11.456 182.572 11.184C182.388 10.904 182.296 10.584 182.296 10.224C182.296 9.896 182.372 9.6 182.524 9.336C182.684 9.064 182.94 8.848 183.292 8.688C183.652 8.52 184.132 8.436 184.732 8.436H186.904V9.072H184.756C184.148 9.072 183.724 9.18 183.484 9.396C183.252 9.612 183.136 9.88 183.136 10.2C183.136 10.56 183.276 10.848 183.556 11.064C183.836 11.28 184.228 11.388 184.732 11.388C185.212 11.388 185.624 11.28 185.968 11.064C186.32 10.84 186.576 10.52 186.736 10.104L186.928 10.692C186.768 11.108 186.488 11.44 186.088 11.688C185.696 11.936 185.2 12.06 184.6 12.06ZM189.857 12V5.7H190.721L193.577 10.536H193.217L196.121 5.7H196.913V12H196.133V6.672L196.289 6.744L193.577 11.232H193.193L190.457 6.696L190.637 6.66V12H189.857ZM199.337 12V5.7H200.189V10.704L204.401 5.7H205.157V12H204.305V6.984L200.105 12H199.337ZM210.739 12V5.7H213.523C214.235 5.7 214.795 5.836 215.203 6.108C215.619 6.38 215.827 6.78 215.827 7.308C215.827 7.82 215.631 8.216 215.239 8.496C214.847 8.768 214.331 8.904 213.691 8.904L213.859 8.652C214.611 8.652 215.163 8.792 215.515 9.072C215.867 9.352 216.043 9.756 216.043 10.284C216.043 10.828 215.843 11.252 215.443 11.556C215.051 11.852 214.439 12 213.607 12H210.739ZM211.567 11.328H213.571C214.107 11.328 214.511 11.244 214.783 11.076C215.063 10.9 215.203 10.62 215.203 10.236C215.203 9.852 215.079 9.572 214.831 9.396C214.583 9.22 214.191 9.132 213.655 9.132H211.567V11.328ZM211.567 8.496H213.463C213.951 8.496 214.323 8.404 214.579 8.22C214.843 8.036 214.975 7.768 214.975 7.416C214.975 7.064 214.843 6.8 214.579 6.624C214.323 6.448 213.951 6.36 213.463 6.36H211.567V8.496ZM224.184 12V5.7H225.036V12H224.184ZM220.692 7.92C221.484 7.928 222.088 8.104 222.504 8.448C222.92 8.792 223.128 9.288 223.128 9.936C223.128 10.608 222.904 11.124 222.456 11.484C222.008 11.844 221.368 12.02 220.536 12.012L218.04 12V5.7H218.892V7.896L220.692 7.92ZM220.476 11.364C221.068 11.372 221.512 11.256 221.808 11.016C222.112 10.768 222.264 10.408 222.264 9.936C222.264 9.464 222.116 9.12 221.82 8.904C221.524 8.68 221.076 8.564 220.476 8.556L218.892 8.532V11.34L220.476 11.364ZM230.294 12.072C229.782 12.072 229.326 11.988 228.926 11.82C228.534 11.652 228.198 11.396 227.918 11.052C227.638 10.708 227.426 10.284 227.282 9.78C227.138 9.268 227.066 8.676 227.066 8.004C227.066 7.404 227.122 6.88 227.234 6.432C227.346 5.976 227.502 5.584 227.702 5.256C227.902 4.928 228.134 4.652 228.398 4.428C228.67 4.196 228.962 4.012 229.274 3.876C229.594 3.732 229.922 3.624 230.258 3.552L233.09 2.892L233.234 3.684L230.57 4.284C230.402 4.324 230.198 4.38 229.958 4.452C229.726 4.524 229.486 4.632 229.238 4.776C228.998 4.92 228.774 5.12 228.566 5.376C228.358 5.632 228.19 5.964 228.062 6.372C227.942 6.772 227.882 7.272 227.882 7.872C227.882 8 227.886 8.104 227.894 8.184C227.902 8.256 227.91 8.336 227.918 8.424C227.934 8.504 227.946 8.624 227.954 8.784L227.582 8.472C227.67 7.984 227.85 7.56 228.122 7.2C228.394 6.832 228.734 6.548 229.142 6.348C229.558 6.14 230.018 6.036 230.522 6.036C231.106 6.036 231.626 6.164 232.082 6.42C232.538 6.668 232.894 7.016 233.15 7.464C233.414 7.912 233.546 8.432 233.546 9.024C233.546 9.608 233.41 10.132 233.138 10.596C232.874 11.06 232.498 11.424 232.01 11.688C231.522 11.944 230.95 12.072 230.294 12.072ZM230.39 11.364C230.838 11.364 231.234 11.264 231.578 11.064C231.922 10.856 232.19 10.576 232.382 10.224C232.582 9.872 232.682 9.476 232.682 9.036C232.682 8.604 232.582 8.22 232.382 7.884C232.19 7.548 231.922 7.284 231.578 7.092C231.234 6.892 230.834 6.792 230.378 6.792C229.93 6.792 229.534 6.888 229.19 7.08C228.846 7.264 228.574 7.524 228.374 7.86C228.182 8.196 228.086 8.584 228.086 9.024C228.086 9.464 228.182 9.86 228.374 10.212C228.574 10.564 228.846 10.844 229.19 11.052C229.542 11.26 229.942 11.364 230.39 11.364ZM238.072 12.06C237.416 12.06 236.84 11.924 236.344 11.652C235.848 11.372 235.46 10.992 235.18 10.512C234.9 10.024 234.76 9.468 234.76 8.844C234.76 8.22 234.892 7.668 235.156 7.188C235.428 6.708 235.796 6.332 236.26 6.06C236.732 5.78 237.26 5.64 237.844 5.64C238.436 5.64 238.96 5.776 239.416 6.048C239.88 6.312 240.244 6.688 240.508 7.176C240.772 7.656 240.904 8.212 240.904 8.844C240.904 8.884 240.9 8.928 240.892 8.976C240.892 9.016 240.892 9.06 240.892 9.108H235.408V8.472H240.436L240.1 8.724C240.1 8.268 240 7.864 239.8 7.512C239.608 7.152 239.344 6.872 239.008 6.672C238.672 6.472 238.284 6.372 237.844 6.372C237.412 6.372 237.024 6.472 236.68 6.672C236.336 6.872 236.068 7.152 235.876 7.512C235.684 7.872 235.588 8.284 235.588 8.748V8.88C235.588 9.36 235.692 9.784 235.9 10.152C236.116 10.512 236.412 10.796 236.788 11.004C237.172 11.204 237.608 11.304 238.096 11.304C238.48 11.304 238.836 11.236 239.164 11.1C239.5 10.964 239.788 10.756 240.028 10.476L240.508 11.028C240.228 11.364 239.876 11.62 239.452 11.796C239.036 11.972 238.576 12.06 238.072 12.06ZM246.042 12.06C245.498 12.06 245.006 11.936 244.566 11.688C244.126 11.432 243.774 11.068 243.51 10.596C243.254 10.116 243.126 9.532 243.126 8.844C243.126 8.156 243.254 7.576 243.51 7.104C243.766 6.624 244.114 6.26 244.554 6.012C244.994 5.764 245.49 5.64 246.042 5.64C246.642 5.64 247.178 5.776 247.65 6.048C248.13 6.312 248.506 6.688 248.778 7.176C249.05 7.656 249.186 8.212 249.186 8.844C249.186 9.484 249.05 10.044 248.778 10.524C248.506 11.004 248.13 11.38 247.65 11.652C247.178 11.924 246.642 12.06 246.042 12.06ZM242.79 14.328V5.7H243.606V7.596L243.522 8.856L243.642 10.128V14.328H242.79ZM245.982 11.304C246.43 11.304 246.83 11.204 247.182 11.004C247.534 10.796 247.814 10.508 248.022 10.14C248.23 9.764 248.334 9.332 248.334 8.844C248.334 8.356 248.23 7.928 248.022 7.56C247.814 7.192 247.534 6.904 247.182 6.696C246.83 6.488 246.43 6.384 245.982 6.384C245.534 6.384 245.13 6.488 244.77 6.696C244.418 6.904 244.138 7.192 243.93 7.56C243.73 7.928 243.63 8.356 243.63 8.844C243.63 9.332 243.73 9.764 243.93 10.14C244.138 10.508 244.418 10.796 244.77 11.004C245.13 11.204 245.534 11.304 245.982 11.304ZM251.017 12V5.7H251.869V10.704L256.081 5.7H256.837V12H255.985V6.984L251.785 12H251.017ZM260.478 12V6.216L260.694 6.444H258.09V5.7H263.718V6.444H261.114L261.33 6.216V12H260.478ZM267.357 12.06C266.701 12.06 266.125 11.924 265.629 11.652C265.133 11.372 264.745 10.992 264.465 10.512C264.185 10.024 264.045 9.468 264.045 8.844C264.045 8.22 264.177 7.668 264.441 7.188C264.713 6.708 265.081 6.332 265.545 6.06C266.017 5.78 266.545 5.64 267.129 5.64C267.721 5.64 268.245 5.776 268.701 6.048C269.165 6.312 269.529 6.688 269.793 7.176C270.057 7.656 270.189 8.212 270.189 8.844C270.189 8.884 270.185 8.928 270.177 8.976C270.177 9.016 270.177 9.06 270.177 9.108H264.693V8.472H269.721L269.385 8.724C269.385 8.268 269.285 7.864 269.085 7.512C268.893 7.152 268.629 6.872 268.293 6.672C267.957 6.472 267.569 6.372 267.129 6.372C266.697 6.372 266.309 6.472 265.965 6.672C265.621 6.872 265.353 7.152 265.161 7.512C264.969 7.872 264.873 8.284 264.873 8.748V8.88C264.873 9.36 264.977 9.784 265.185 10.152C265.401 10.512 265.697 10.796 266.073 11.004C266.457 11.204 266.893 11.304 267.381 11.304C267.765 11.304 268.121 11.236 268.449 11.1C268.785 10.964 269.073 10.756 269.313 10.476L269.793 11.028C269.513 11.364 269.161 11.62 268.737 11.796C268.321 11.972 267.861 12.06 267.357 12.06ZM26.06 27.988L26.12 27.256C26.176 27.264 26.228 27.276 26.276 27.292C26.332 27.3 26.38 27.304 26.42 27.304C26.676 27.304 26.88 27.208 27.032 27.016C27.192 26.824 27.312 26.568 27.392 26.248C27.472 25.928 27.528 25.568 27.56 25.168C27.592 24.76 27.62 24.352 27.644 23.944L27.752 21.7H32.372V28H31.52V22.192L31.736 22.444H28.304L28.508 22.18L28.412 24.004C28.388 24.548 28.344 25.068 28.28 25.564C28.224 26.06 28.132 26.496 28.004 26.872C27.884 27.248 27.716 27.544 27.5 27.76C27.284 27.968 27.008 28.072 26.672 28.072C26.576 28.072 26.476 28.064 26.372 28.048C26.276 28.032 26.172 28.012 26.06 27.988ZM34.902 30.388C34.606 30.388 34.322 30.34 34.05 30.244C33.786 30.148 33.558 30.004 33.366 29.812L33.762 29.176C33.922 29.328 34.094 29.444 34.278 29.524C34.47 29.612 34.682 29.656 34.914 29.656C35.194 29.656 35.434 29.576 35.634 29.416C35.842 29.264 36.038 28.992 36.222 28.6L36.63 27.676L36.726 27.544L39.318 21.7H40.158L37.002 28.756C36.826 29.164 36.63 29.488 36.414 29.728C36.206 29.968 35.978 30.136 35.73 30.232C35.482 30.336 35.206 30.388 34.902 30.388ZM36.582 28.18L33.678 21.7H34.566L37.134 27.484L36.582 28.18ZM45.4694 25.336C45.1014 25.496 44.7294 25.624 44.3534 25.72C43.9854 25.808 43.6174 25.852 43.2494 25.852C42.5054 25.852 41.9174 25.684 41.4854 25.348C41.0534 25.004 40.8374 24.476 40.8374 23.764V21.7H41.6774V23.716C41.6774 24.196 41.8334 24.556 42.1454 24.796C42.4574 25.036 42.8774 25.156 43.4054 25.156C43.7254 25.156 44.0614 25.116 44.4134 25.036C44.7654 24.948 45.1214 24.824 45.4814 24.664L45.4694 25.336ZM45.3974 28V21.7H46.2494V28H45.3974ZM52.809 27.256L52.617 27.484V21.7H53.469V27.484L53.241 27.256H56.757L56.529 27.484V21.7H57.381V28H48.669V21.7H49.521V27.484L49.305 27.256H52.809ZM59.9098 30.388C59.6138 30.388 59.3298 30.34 59.0578 30.244C58.7938 30.148 58.5658 30.004 58.3738 29.812L58.7698 29.176C58.9298 29.328 59.1018 29.444 59.2858 29.524C59.4778 29.612 59.6898 29.656 59.9218 29.656C60.2018 29.656 60.4418 29.576 60.6418 29.416C60.8498 29.264 61.0458 28.992 61.2298 28.6L61.6378 27.676L61.7338 27.544L64.3258 21.7H65.1658L62.0098 28.756C61.8338 29.164 61.6378 29.488 61.4218 29.728C61.2138 29.968 60.9858 30.136 60.7378 30.232C60.4898 30.336 60.2138 30.388 59.9098 30.388ZM61.5898 28.18L58.6858 21.7H59.5738L62.1418 27.484L61.5898 28.18ZM66.4933 28V21.7H67.3453V24.412H69.2653V25.192H67.3453V28H66.4933ZM71.9173 28.06C71.3173 28.06 70.7773 27.924 70.2973 27.652C69.8253 27.372 69.4533 26.992 69.1813 26.512C68.9093 26.024 68.7733 25.468 68.7733 24.844C68.7733 24.212 68.9093 23.656 69.1813 23.176C69.4533 22.696 69.8253 22.32 70.2973 22.048C70.7773 21.776 71.3173 21.64 71.9173 21.64C72.5173 21.64 73.0533 21.776 73.5253 22.048C73.9973 22.32 74.3693 22.696 74.6413 23.176C74.9133 23.656 75.0493 24.212 75.0493 24.844C75.0493 25.468 74.9133 26.024 74.6413 26.512C74.3693 26.992 73.9973 27.372 73.5253 27.652C73.0533 27.924 72.5173 28.06 71.9173 28.06ZM71.9173 27.316C72.3573 27.316 72.7493 27.212 73.0933 27.004C73.4373 26.796 73.7093 26.508 73.9093 26.14C74.1093 25.764 74.2093 25.332 74.2093 24.844C74.2093 24.348 74.1093 23.916 73.9093 23.548C73.7093 23.18 73.4373 22.896 73.0933 22.696C72.7493 22.488 72.3573 22.384 71.9173 22.384C71.4853 22.384 71.0933 22.488 70.7413 22.696C70.3973 22.896 70.1253 23.18 69.9253 23.548C69.7253 23.916 69.6253 24.348 69.6253 24.844C69.6253 25.332 69.7253 25.764 69.9253 26.14C70.1253 26.508 70.3973 26.796 70.7413 27.004C71.0933 27.212 71.4853 27.316 71.9173 27.316ZM80.0167 28V21.7H80.8687V27.256H84.7207V21.7H85.5727V28H80.0167ZM85.7887 29.524V27.928L86.0047 28H84.7207V27.256H86.5927V29.524H85.7887ZM90.9198 28.06C90.2638 28.06 89.6878 27.924 89.1918 27.652C88.6958 27.372 88.3078 26.992 88.0278 26.512C87.7478 26.024 87.6078 25.468 87.6078 24.844C87.6078 24.22 87.7398 23.668 88.0038 23.188C88.2758 22.708 88.6438 22.332 89.1078 22.06C89.5798 21.78 90.1078 21.64 90.6918 21.64C91.2838 21.64 91.8078 21.776 92.2638 22.048C92.7278 22.312 93.0918 22.688 93.3558 23.176C93.6198 23.656 93.7518 24.212 93.7518 24.844C93.7518 24.884 93.7478 24.928 93.7398 24.976C93.7398 25.016 93.7398 25.06 93.7398 25.108H88.2558V24.472H93.2838L92.9478 24.724C92.9478 24.268 92.8478 23.864 92.6478 23.512C92.4558 23.152 92.1918 22.872 91.8558 22.672C91.5198 22.472 91.1318 22.372 90.6918 22.372C90.2598 22.372 89.8718 22.472 89.5278 22.672C89.1838 22.872 88.9158 23.152 88.7238 23.512C88.5318 23.872 88.4358 24.284 88.4358 24.748V24.88C88.4358 25.36 88.5398 25.784 88.7478 26.152C88.9638 26.512 89.2598 26.796 89.6358 27.004C90.0198 27.204 90.4558 27.304 90.9438 27.304C91.3278 27.304 91.6838 27.236 92.0118 27.1C92.3478 26.964 92.6358 26.756 92.8758 26.476L93.3558 27.028C93.0758 27.364 92.7238 27.62 92.2998 27.796C91.8838 27.972 91.4238 28.06 90.9198 28.06ZM95.6378 28V21.7H96.4898V24.484H100.462V21.7H101.314V28H100.462V25.216H96.4898V28H95.6378ZM103.843 30.388C103.547 30.388 103.263 30.34 102.991 30.244C102.727 30.148 102.499 30.004 102.307 29.812L102.703 29.176C102.863 29.328 103.035 29.444 103.219 29.524C103.411 29.612 103.623 29.656 103.855 29.656C104.135 29.656 104.375 29.576 104.575 29.416C104.783 29.264 104.979 28.992 105.163 28.6L105.571 27.676L105.667 27.544L108.259 21.7H109.099L105.943 28.756C105.767 29.164 105.571 29.488 105.355 29.728C105.147 29.968 104.919 30.136 104.671 30.232C104.423 30.336 104.147 30.388 103.843 30.388ZM105.523 28.18L102.619 21.7H103.507L106.075 27.484L105.523 28.18Z" fill="#707D89"/>
<path d="M342 8.33325V10.9999L343.667 11.9999M342 5.33325C338.87 5.33325 336.333 7.8703 336.333 10.9999C336.333 14.1295 338.87 16.6666 342 16.6666C345.13 16.6666 347.667 14.1295 347.667 10.9999C347.667 7.8703 345.13 5.33325 342 5.33325ZM342 5.33325V3.33325M340.667 3.33325H343.333M347.553 5.72795L346.553 4.72795L347.053 5.22795M336.447 5.72795L337.447 4.72795L336.947 5.22795" stroke="#28CB47" stroke-width="1.5" stroke-linecap="round" stroke-linejoin="round"/>
<path d="M361.416 14V5.6H367.56V6.356H362.292V9.104H365.04C366.032 9.104 366.784 9.308 367.296 9.716C367.816 10.116 368.076 10.708 368.076 11.492C368.076 12.3 367.796 12.92 367.236 13.352C366.684 13.784 365.888 14 364.848 14H361.416ZM362.292 13.292H364.836C365.612 13.292 366.196 13.144 366.588 12.848C366.988 12.544 367.188 12.104 367.188 11.528C367.188 10.384 366.404 9.812 364.836 9.812H362.292V13.292ZM372.619 14.06C371.963 14.06 371.387 13.924 370.891 13.652C370.395 13.372 370.007 12.992 369.727 12.512C369.447 12.024 369.307 11.468 369.307 10.844C369.307 10.22 369.439 9.668 369.703 9.188C369.975 8.708 370.343 8.332 370.807 8.06C371.279 7.78 371.807 7.64 372.391 7.64C372.983 7.64 373.507 7.776 373.963 8.048C374.427 8.312 374.791 8.688 375.055 9.176C375.319 9.656 375.451 10.212 375.451 10.844C375.451 10.884 375.447 10.928 375.439 10.976C375.439 11.016 375.439 11.06 375.439 11.108H369.955V10.472H374.983L374.647 10.724C374.647 10.268 374.547 9.864 374.347 9.512C374.155 9.152 373.891 8.872 373.555 8.672C373.219 8.472 372.831 8.372 372.391 8.372C371.959 8.372 371.571 8.472 371.227 8.672C370.883 8.872 370.615 9.152 370.423 9.512C370.231 9.872 370.135 10.284 370.135 10.748V10.88C370.135 11.36 370.239 11.784 370.447 12.152C370.663 12.512 370.959 12.796 371.335 13.004C371.719 13.204 372.155 13.304 372.643 13.304C373.027 13.304 373.383 13.236 373.711 13.1C374.047 12.964 374.335 12.756 374.575 12.476L375.055 13.028C374.775 13.364 374.423 13.62 373.999 13.796C373.583 13.972 373.123 14.06 372.619 14.06ZM379.977 14.06C379.353 14.06 378.793 13.924 378.297 13.652C377.809 13.372 377.425 12.992 377.145 12.512C376.865 12.024 376.725 11.468 376.725 10.844C376.725 10.212 376.865 9.656 377.145 9.176C377.425 8.696 377.809 8.32 378.297 8.048C378.793 7.776 379.353 7.64 379.977 7.64C380.513 7.64 380.997 7.744 381.429 7.952C381.861 8.16 382.201 8.472 382.449 8.888L381.813 9.32C381.597 9 381.329 8.764 381.009 8.612C380.689 8.46 380.341 8.384 379.965 8.384C379.517 8.384 379.113 8.488 378.753 8.696C378.393 8.896 378.109 9.18 377.901 9.548C377.693 9.916 377.589 10.348 377.589 10.844C377.589 11.34 377.693 11.772 377.901 12.14C378.109 12.508 378.393 12.796 378.753 13.004C379.113 13.204 379.517 13.304 379.965 13.304C380.341 13.304 380.689 13.228 381.009 13.076C381.329 12.924 381.597 12.692 381.813 12.38L382.449 12.812C382.201 13.22 381.861 13.532 381.429 13.748C380.997 13.956 380.513 14.06 379.977 14.06ZM384.099 14V7.7H389.763V14H388.911V8.216L389.127 8.444H384.735L384.951 8.216V14H384.099ZM391.033 13.988L391.093 13.256C391.149 13.264 391.201 13.276 391.249 13.292C391.305 13.3 391.353 13.304 391.393 13.304C391.649 13.304 391.853 13.208 392.005 13.016C392.165 12.824 392.285 12.568 392.365 12.248C392.445 11.928 392.501 11.568 392.533 11.168C392.565 10.76 392.593 10.352 392.617 9.944L392.725 7.7H397.345V14H396.493V8.192L396.709 8.444H393.277L393.481 8.18L393.385 10.004C393.361 10.548 393.317 11.068 393.253 11.564C393.197 12.06 393.105 12.496 392.977 12.872C392.857 13.248 392.689 13.544 392.473 13.76C392.257 13.968 391.981 14.072 391.645 14.072C391.549 14.072 391.449 14.064 391.345 14.048C391.249 14.032 391.145 14.012 391.033 13.988ZM403.679 14V12.608L403.643 12.38V10.052C403.643 9.516 403.491 9.104 403.187 8.816C402.891 8.528 402.447 8.384 401.855 8.384C401.447 8.384 401.059 8.452 400.691 8.588C400.323 8.724 400.011 8.904 399.755 9.128L399.371 8.492C399.691 8.22 400.075 8.012 400.523 7.868C400.971 7.716 401.443 7.64 401.939 7.64C402.755 7.64 403.383 7.844 403.823 8.252C404.271 8.652 404.495 9.264 404.495 10.088V14H403.679ZM401.507 14.06C401.035 14.06 400.623 13.984 400.271 13.832C399.927 13.672 399.663 13.456 399.479 13.184C399.295 12.904 399.203 12.584 399.203 12.224C399.203 11.896 399.279 11.6 399.431 11.336C399.591 11.064 399.847 10.848 400.199 10.688C400.559 10.52 401.039 10.436 401.639 10.436H403.811V11.072H401.663C401.055 11.072 400.631 11.18 400.391 11.396C400.159 11.612 400.043 11.88 400.043 12.2C400.043 12.56 400.183 12.848 400.463 13.064C400.743 13.28 401.135 13.388 401.639 13.388C402.119 13.388 402.531 13.28 402.875 13.064C403.227 12.84 403.483 12.52 403.643 12.104L403.835 12.692C403.675 13.108 403.395 13.44 402.995 13.688C402.603 13.936 402.107 14.06 401.507 14.06ZM407.963 14V8.216L408.179 8.444H405.575V7.7H411.203V8.444H408.599L408.815 8.216V14H407.963ZM412.435 14V7.7H413.287V10.484H417.259V7.7H418.111V14H417.259V11.216H413.287V14H412.435ZM424.444 14V12.608L424.408 12.38V10.052C424.408 9.516 424.256 9.104 423.952 8.816C423.656 8.528 423.212 8.384 422.62 8.384C422.212 8.384 421.824 8.452 421.456 8.588C421.088 8.724 420.776 8.904 420.52 9.128L420.136 8.492C420.456 8.22 420.84 8.012 421.288 7.868C421.736 7.716 422.208 7.64 422.704 7.64C423.52 7.64 424.148 7.844 424.588 8.252C425.036 8.652 425.26 9.264 425.26 10.088V14H424.444ZM422.272 14.06C421.8 14.06 421.388 13.984 421.036 13.832C420.692 13.672 420.428 13.456 420.244 13.184C420.06 12.904 419.968 12.584 419.968 12.224C419.968 11.896 420.044 11.6 420.196 11.336C420.356 11.064 420.612 10.848 420.964 10.688C421.324 10.52 421.804 10.436 422.404 10.436H424.576V11.072H422.428C421.82 11.072 421.396 11.18 421.156 11.396C420.924 11.612 420.808 11.88 420.808 12.2C420.808 12.56 420.948 12.848 421.228 13.064C421.508 13.28 421.9 13.388 422.404 13.388C422.884 13.388 423.296 13.28 423.64 13.064C423.992 12.84 424.248 12.52 424.408 12.104L424.6 12.692C424.44 13.108 424.16 13.44 423.76 13.688C423.368 13.936 422.872 14.06 422.272 14.06ZM431.596 14V11.732L431.752 11.912H429.616C428.808 11.912 428.176 11.736 427.72 11.384C427.264 11.032 427.036 10.52 427.036 9.848C427.036 9.128 427.28 8.592 427.768 8.24C428.256 7.88 428.908 7.7 429.724 7.7H432.376V14H431.596ZM426.988 14L428.716 11.576H429.604L427.912 14H426.988ZM431.596 11.48V8.192L431.752 8.444H429.748C429.164 8.444 428.708 8.556 428.38 8.78C428.06 9.004 427.9 9.368 427.9 9.872C427.9 10.808 428.496 11.276 429.688 11.276H431.752L431.596 11.48ZM442.266 13.592V8.444H439.23L439.158 9.848C439.142 10.272 439.114 10.688 439.074 11.096C439.042 11.504 438.982 11.88 438.894 12.224C438.814 12.56 438.698 12.836 438.546 13.052C438.394 13.26 438.198 13.38 437.958 13.412L437.106 13.256C437.354 13.264 437.558 13.176 437.718 12.992C437.878 12.8 438.002 12.54 438.09 12.212C438.178 11.884 438.242 11.512 438.282 11.096C438.322 10.672 438.354 10.24 438.378 9.8L438.462 7.7H443.118V13.592H442.266ZM436.842 15.524V13.256H444.102V15.524H443.298V14H437.646V15.524H436.842ZM448.355 14.06C447.747 14.06 447.199 13.924 446.711 13.652C446.231 13.372 445.851 12.992 445.571 12.512C445.291 12.024 445.151 11.468 445.151 10.844C445.151 10.212 445.291 9.656 445.571 9.176C445.851 8.696 446.231 8.32 446.711 8.048C447.191 7.776 447.739 7.64 448.355 7.64C448.979 7.64 449.531 7.776 450.011 8.048C450.499 8.32 450.879 8.696 451.151 9.176C451.431 9.656 451.571 10.212 451.571 10.844C451.571 11.468 451.431 12.024 451.151 12.512C450.879 12.992 450.499 13.372 450.011 13.652C449.523 13.924 448.971 14.06 448.355 14.06ZM448.355 13.304C448.811 13.304 449.215 13.204 449.567 13.004C449.919 12.796 450.195 12.508 450.395 12.14C450.603 11.764 450.707 11.332 450.707 10.844C450.707 10.348 450.603 9.916 450.395 9.548C450.195 9.18 449.919 8.896 449.567 8.696C449.215 8.488 448.815 8.384 448.367 8.384C447.919 8.384 447.519 8.488 447.167 8.696C446.815 8.896 446.535 9.18 446.327 9.548C446.119 9.916 446.015 10.348 446.015 10.844C446.015 11.332 446.119 11.764 446.327 12.14C446.535 12.508 446.815 12.796 447.167 13.004C447.519 13.204 447.915 13.304 448.355 13.304ZM456.032 14.06C455.408 14.06 454.848 13.924 454.352 13.652C453.864 13.372 453.48 12.992 453.2 12.512C452.92 12.024 452.78 11.468 452.78 10.844C452.78 10.212 452.92 9.656 453.2 9.176C453.48 8.696 453.864 8.32 454.352 8.048C454.848 7.776 455.408 7.64 456.032 7.64C456.568 7.64 457.052 7.744 457.484 7.952C457.916 8.16 458.256 8.472 458.504 8.888L457.868 9.32C457.652 9 457.384 8.764 457.064 8.612C456.744 8.46 456.396 8.384 456.02 8.384C455.572 8.384 455.168 8.488 454.808 8.696C454.448 8.896 454.164 9.18 453.956 9.548C453.748 9.916 453.644 10.348 453.644 10.844C453.644 11.34 453.748 11.772 453.956 12.14C454.164 12.508 454.448 12.796 454.808 13.004C455.168 13.204 455.572 13.304 456.02 13.304C456.396 13.304 456.744 13.228 457.064 13.076C457.384 12.924 457.652 12.692 457.868 12.38L458.504 12.812C458.256 13.22 457.916 13.532 457.484 13.748C457.052 13.956 456.568 14.06 456.032 14.06ZM461.236 14V8.216L461.452 8.444H458.848V7.7H464.476V8.444H461.872L462.088 8.216V14H461.236ZM469.62 14V12.608L469.584 12.38V10.052C469.584 9.516 469.432 9.104 469.128 8.816C468.832 8.528 468.388 8.384 467.796 8.384C467.388 8.384 467 8.452 466.632 8.588C466.264 8.724 465.952 8.904 465.696 9.128L465.312 8.492C465.632 8.22 466.016 8.012 466.464 7.868C466.912 7.716 467.384 7.64 467.88 7.64C468.696 7.64 469.324 7.844 469.764 8.252C470.212 8.652 470.436 9.264 470.436 10.088V14H469.62ZM467.448 14.06C466.976 14.06 466.564 13.984 466.212 13.832C465.868 13.672 465.604 13.456 465.42 13.184C465.236 12.904 465.144 12.584 465.144 12.224C465.144 11.896 465.22 11.6 465.372 11.336C465.532 11.064 465.788 10.848 466.14 10.688C466.5 10.52 466.98 10.436 467.58 10.436H469.752V11.072H467.604C466.996 11.072 466.572 11.18 466.332 11.396C466.1 11.612 465.984 11.88 465.984 12.2C465.984 12.56 466.124 12.848 466.404 13.064C466.684 13.28 467.076 13.388 467.58 13.388C468.06 13.388 468.472 13.28 468.816 13.064C469.168 12.84 469.424 12.52 469.584 12.104L469.776 12.692C469.616 13.108 469.336 13.44 468.936 13.688C468.544 13.936 468.048 14.06 467.448 14.06ZM472.704 14V7.7H475.488C476.2 7.7 476.76 7.836 477.168 8.108C477.584 8.38 477.792 8.78 477.792 9.308C477.792 9.82 477.596 10.216 477.204 10.496C476.812 10.768 476.296 10.904 475.656 10.904L475.824 10.652C476.576 10.652 477.128 10.792 477.48 11.072C477.832 11.352 478.008 11.756 478.008 12.284C478.008 12.828 477.808 13.252 477.408 13.556C477.016 13.852 476.404 14 475.572 14H472.704ZM473.532 13.328H475.536C476.072 13.328 476.476 13.244 476.748 13.076C477.028 12.9 477.168 12.62 477.168 12.236C477.168 11.852 477.044 11.572 476.796 11.396C476.548 11.22 476.156 11.132 475.62 11.132H473.532V13.328ZM473.532 10.496H475.428C475.916 10.496 476.288 10.404 476.544 10.22C476.808 10.036 476.94 9.768 476.94 9.416C476.94 9.064 476.808 8.8 476.544 8.624C476.288 8.448 475.916 8.36 475.428 8.36H473.532V10.496ZM484.625 14L482.033 10.88L482.741 10.46L485.633 14H484.625ZM480.005 14V7.7H480.857V14H480.005ZM480.593 11.192V10.46H482.621V11.192H480.593ZM482.813 10.94L482.021 10.82L484.529 7.7H485.453L482.813 10.94ZM490.772 14V12.608L490.736 12.38V10.052C490.736 9.516 490.584 9.104 490.28 8.816C489.984 8.528 489.54 8.384 488.948 8.384C488.54 8.384 488.152 8.452 487.784 8.588C487.416 8.724 487.104 8.904 486.848 9.128L486.464 8.492C486.784 8.22 487.168 8.012 487.616 7.868C488.064 7.716 488.536 7.64 489.032 7.64C489.848 7.64 490.476 7.844 490.916 8.252C491.364 8.652 491.588 9.264 491.588 10.088V14H490.772ZM488.6 14.06C488.128 14.06 487.716 13.984 487.364 13.832C487.02 13.672 486.756 13.456 486.572 13.184C486.388 12.904 486.296 12.584 486.296 12.224C486.296 11.896 486.372 11.6 486.524 11.336C486.684 11.064 486.94 10.848 487.292 10.688C487.652 10.52 488.132 10.436 488.732 10.436H490.904V11.072H488.756C488.148 11.072 487.724 11.18 487.484 11.396C487.252 11.612 487.136 11.88 487.136 12.2C487.136 12.56 487.276 12.848 487.556 13.064C487.836 13.28 488.228 13.388 488.732 13.388C489.212 13.388 489.624 13.28 489.968 13.064C490.32 12.84 490.576 12.52 490.736 12.104L490.928 12.692C490.768 13.108 490.488 13.44 490.088 13.688C489.696 13.936 489.2 14.06 488.6 14.06Z" fill="#707D89"/>
<path d="M8.66665 53.3333C8.66665 54.0697 7.02502 54.6667 4.99998 54.6667C2.97494 54.6667 1.33331 54.0697 1.33331 53.3333M8.66665 53.3333C8.66665 52.597 7.02502 52 4.99998 52C2.97494 52 1.33331 52.597 1.33331 53.3333M8.66665 53.3333V54.3333M1.33331 53.3333V61.3333C1.33331 62.0697 2.97494 62.6667 4.99998 62.6667M4.99998 57.3333C4.88762 57.3333 4.77643 57.3315 4.66665 57.3279C2.79781 57.2667 1.33331 56.6955 1.33331 56M4.99998 60C2.97494 60 1.33331 59.403 1.33331 58.6667M14.6666 57.6667C14.6666 58.403 13.025 59 11 59C8.97494 59 7.33331 58.403 7.33331 57.6667M14.6666 57.6667C14.6666 56.9303 13.025 56.3333 11 56.3333C8.97494 56.3333 7.33331 56.9303 7.33331 57.6667M14.6666 57.6667V62.6667C14.6666 63.403 13.025 64 11 64C8.97494 64 7.33331 63.403 7.33331 62.6667V57.6667M14.6666 60.1667C14.6666 60.903 13.025 61.5 11 61.5C8.97494 61.5 7.33331 60.903 7.33331 60.1667" stroke="#28CB47" stroke-width="1.5" stroke-linecap="round" stroke-linejoin="round"/>
<path d="M31.1 62.072C30.468 62.072 29.88 61.968 29.336 61.76C28.8 61.544 28.332 61.244 27.932 60.86C27.54 60.468 27.232 60.016 27.008 59.504C26.792 58.984 26.684 58.416 26.684 57.8C26.684 57.184 26.792 56.62 27.008 56.108C27.232 55.588 27.54 55.136 27.932 54.752C28.332 54.36 28.8 54.06 29.336 53.852C29.872 53.636 30.46 53.528 31.1 53.528C31.732 53.528 32.316 53.636 32.852 53.852C33.388 54.06 33.852 54.356 34.244 54.74C34.644 55.124 34.952 55.576 35.168 56.096C35.392 56.616 35.504 57.184 35.504 57.8C35.504 58.416 35.392 58.984 35.168 59.504C34.952 60.024 34.644 60.476 34.244 60.86C33.852 61.244 33.388 61.544 32.852 61.76C32.316 61.968 31.732 62.072 31.1 62.072ZM31.1 61.28C31.604 61.28 32.068 61.196 32.492 61.028C32.924 60.852 33.296 60.608 33.608 60.296C33.928 59.976 34.176 59.608 34.352 59.192C34.528 58.768 34.616 58.304 34.616 57.8C34.616 57.296 34.528 56.836 34.352 56.42C34.176 55.996 33.928 55.628 33.608 55.316C33.296 54.996 32.924 54.752 32.492 54.584C32.068 54.408 31.604 54.32 31.1 54.32C30.596 54.32 30.128 54.408 29.696 54.584C29.264 54.752 28.888 54.996 28.568 55.316C28.256 55.628 28.008 55.996 27.824 56.42C27.648 56.836 27.56 57.296 27.56 57.8C27.56 58.296 27.648 58.756 27.824 59.18C28.008 59.604 28.256 59.976 28.568 60.296C28.888 60.608 29.264 60.852 29.696 61.028C30.128 61.196 30.596 61.28 31.1 61.28ZM37.419 62V55.7H43.083V62H42.231V56.216L42.447 56.444H38.055L38.271 56.216V62H37.419ZM44.353 61.988L44.413 61.256C44.469 61.264 44.521 61.276 44.569 61.292C44.625 61.3 44.673 61.304 44.713 61.304C44.969 61.304 45.173 61.208 45.325 61.016C45.485 60.824 45.605 60.568 45.685 60.248C45.765 59.928 45.821 59.568 45.853 59.168C45.885 58.76 45.913 58.352 45.937 57.944L46.045 55.7H50.665V62H49.813V56.192L50.029 56.444H46.597L46.801 56.18L46.705 58.004C46.681 58.548 46.637 59.068 46.573 59.564C46.517 60.06 46.425 60.496 46.297 60.872C46.177 61.248 46.009 61.544 45.793 61.76C45.577 61.968 45.301 62.072 44.965 62.072C44.869 62.072 44.769 62.064 44.665 62.048C44.569 62.032 44.465 62.012 44.353 61.988ZM56.999 62V60.608L56.963 60.38V58.052C56.963 57.516 56.811 57.104 56.507 56.816C56.211 56.528 55.767 56.384 55.175 56.384C54.767 56.384 54.379 56.452 54.011 56.588C53.643 56.724 53.331 56.904 53.075 57.128L52.691 56.492C53.011 56.22 53.395 56.012 53.843 55.868C54.291 55.716 54.763 55.64 55.259 55.64C56.075 55.64 56.703 55.844 57.143 56.252C57.591 56.652 57.815 57.264 57.815 58.088V62H56.999ZM54.827 62.06C54.355 62.06 53.943 61.984 53.591 61.832C53.247 61.672 52.983 61.456 52.799 61.184C52.615 60.904 52.523 60.584 52.523 60.224C52.523 59.896 52.599 59.6 52.751 59.336C52.911 59.064 53.167 58.848 53.519 58.688C53.879 58.52 54.359 58.436 54.959 58.436H57.131V59.072H54.983C54.375 59.072 53.951 59.18 53.711 59.396C53.479 59.612 53.363 59.88 53.363 60.2C53.363 60.56 53.503 60.848 53.783 61.064C54.063 61.28 54.455 61.388 54.959 61.388C55.439 61.388 55.851 61.28 56.195 61.064C56.547 60.84 56.803 60.52 56.963 60.104L57.155 60.692C56.995 61.108 56.715 61.44 56.315 61.688C55.923 61.936 55.427 62.06 54.827 62.06ZM61.2831 62V56.216L61.4991 56.444H58.8951V55.7H64.5231V56.444H61.9191L62.1351 56.216V62H61.2831ZM69.667 62V60.608L69.631 60.38V58.052C69.631 57.516 69.479 57.104 69.175 56.816C68.879 56.528 68.435 56.384 67.843 56.384C67.435 56.384 67.047 56.452 66.679 56.588C66.311 56.724 65.999 56.904 65.743 57.128L65.359 56.492C65.679 56.22 66.063 56.012 66.511 55.868C66.959 55.716 67.431 55.64 67.927 55.64C68.743 55.64 69.371 55.844 69.811 56.252C70.259 56.652 70.483 57.264 70.483 58.088V62H69.667ZM67.495 62.06C67.023 62.06 66.611 61.984 66.259 61.832C65.915 61.672 65.651 61.456 65.467 61.184C65.283 60.904 65.191 60.584 65.191 60.224C65.191 59.896 65.267 59.6 65.419 59.336C65.579 59.064 65.835 58.848 66.187 58.688C66.547 58.52 67.027 58.436 67.627 58.436H69.799V59.072H67.651C67.043 59.072 66.619 59.18 66.379 59.396C66.147 59.612 66.031 59.88 66.031 60.2C66.031 60.56 66.171 60.848 66.451 61.064C66.731 61.28 67.123 61.388 67.627 61.388C68.107 61.388 68.519 61.28 68.863 61.064C69.215 60.84 69.471 60.52 69.631 60.104L69.823 60.692C69.663 61.108 69.383 61.44 68.983 61.688C68.591 61.936 68.095 62.06 67.495 62.06ZM75.8917 62V55.7H81.5557V62H80.7037V56.216L80.9197 56.444H76.5277L76.7437 56.216V62H75.8917ZM87.2296 62.06C86.6856 62.06 86.1936 61.936 85.7536 61.688C85.3136 61.432 84.9616 61.068 84.6976 60.596C84.4416 60.116 84.3136 59.532 84.3136 58.844C84.3136 58.156 84.4416 57.576 84.6976 57.104C84.9536 56.624 85.3016 56.26 85.7416 56.012C86.1816 55.764 86.6776 55.64 87.2296 55.64C87.8296 55.64 88.3656 55.776 88.8376 56.048C89.3176 56.312 89.6936 56.688 89.9656 57.176C90.2376 57.656 90.3736 58.212 90.3736 58.844C90.3736 59.484 90.2376 60.044 89.9656 60.524C89.6936 61.004 89.3176 61.38 88.8376 61.652C88.3656 61.924 87.8296 62.06 87.2296 62.06ZM83.9776 64.328V55.7H84.7936V57.596L84.7096 58.856L84.8296 60.128V64.328H83.9776ZM87.1696 61.304C87.6176 61.304 88.0176 61.204 88.3696 61.004C88.7216 60.796 89.0016 60.508 89.2096 60.14C89.4176 59.764 89.5216 59.332 89.5216 58.844C89.5216 58.356 89.4176 57.928 89.2096 57.56C89.0016 57.192 88.7216 56.904 88.3696 56.696C88.0176 56.488 87.6176 56.384 87.1696 56.384C86.7216 56.384 86.3176 56.488 85.9576 56.696C85.6056 56.904 85.3256 57.192 85.1176 57.56C84.9176 57.928 84.8176 58.356 84.8176 58.844C84.8176 59.332 84.9176 59.764 85.1176 60.14C85.3256 60.508 85.6056 60.796 85.9576 61.004C86.3176 61.204 86.7216 61.304 87.1696 61.304ZM92.2042 62V55.7H93.0562V60.704L97.2682 55.7H98.0242V62H97.1722V56.984L92.9722 62H92.2042ZM103.607 62V55.7H109.271V62H108.419V56.216L108.635 56.444H104.243L104.459 56.216V62H103.607ZM114.284 62.06C113.676 62.06 113.128 61.924 112.64 61.652C112.16 61.372 111.78 60.992 111.5 60.512C111.22 60.024 111.08 59.468 111.08 58.844C111.08 58.212 111.22 57.656 111.5 57.176C111.78 56.696 112.16 56.32 112.64 56.048C113.12 55.776 113.668 55.64 114.284 55.64C114.908 55.64 115.46 55.776 115.94 56.048C116.428 56.32 116.808 56.696 117.08 57.176C117.36 57.656 117.5 58.212 117.5 58.844C117.5 59.468 117.36 60.024 117.08 60.512C116.808 60.992 116.428 61.372 115.94 61.652C115.452 61.924 114.9 62.06 114.284 62.06ZM114.284 61.304C114.74 61.304 115.144 61.204 115.496 61.004C115.848 60.796 116.124 60.508 116.324 60.14C116.532 59.764 116.636 59.332 116.636 58.844C116.636 58.348 116.532 57.916 116.324 57.548C116.124 57.18 115.848 56.896 115.496 56.696C115.144 56.488 114.744 56.384 114.296 56.384C113.848 56.384 113.448 56.488 113.096 56.696C112.744 56.896 112.464 57.18 112.256 57.548C112.048 57.916 111.944 58.348 111.944 58.844C111.944 59.332 112.048 59.764 112.256 60.14C112.464 60.508 112.744 60.796 113.096 61.004C113.448 61.204 113.844 61.304 114.284 61.304ZM118.134 61.988L118.194 61.256C118.25 61.264 118.302 61.276 118.35 61.292C118.406 61.3 118.454 61.304 118.494 61.304C118.75 61.304 118.954 61.208 119.106 61.016C119.266 60.824 119.386 60.568 119.466 60.248C119.546 59.928 119.602 59.568 119.634 59.168C119.666 58.76 119.694 58.352 119.718 57.944L119.826 55.7H124.446V62H123.594V56.192L123.81 56.444H120.378L120.582 56.18L120.486 58.004C120.462 58.548 120.418 59.068 120.354 59.564C120.298 60.06 120.206 60.496 120.078 60.872C119.958 61.248 119.79 61.544 119.574 61.76C119.358 61.968 119.082 62.072 118.746 62.072C118.65 62.072 118.55 62.064 118.446 62.048C118.35 62.032 118.246 62.012 118.134 61.988ZM126.976 64.388C126.68 64.388 126.396 64.34 126.124 64.244C125.86 64.148 125.632 64.004 125.44 63.812L125.836 63.176C125.996 63.328 126.168 63.444 126.352 63.524C126.544 63.612 126.756 63.656 126.988 63.656C127.268 63.656 127.508 63.576 127.708 63.416C127.916 63.264 128.112 62.992 128.296 62.6L128.704 61.676L128.8 61.544L131.392 55.7H132.232L129.076 62.756C128.9 63.164 128.704 63.488 128.488 63.728C128.28 63.968 128.052 64.136 127.804 64.232C127.556 64.336 127.28 64.388 126.976 64.388ZM128.656 62.18L125.752 55.7H126.64L129.208 61.484L128.656 62.18ZM137.544 59.336C137.176 59.496 136.804 59.624 136.428 59.72C136.06 59.808 135.692 59.852 135.324 59.852C134.58 59.852 133.992 59.684 133.56 59.348C133.128 59.004 132.912 58.476 132.912 57.764V55.7H133.752V57.716C133.752 58.196 133.908 58.556 134.22 58.796C134.532 59.036 134.952 59.156 135.48 59.156C135.8 59.156 136.136 59.116 136.488 59.036C136.84 58.948 137.196 58.824 137.556 58.664L137.544 59.336ZM137.472 62V55.7H138.324V62H137.472ZM143.443 62.06C142.787 62.06 142.211 61.924 141.715 61.652C141.219 61.372 140.831 60.992 140.551 60.512C140.271 60.024 140.131 59.468 140.131 58.844C140.131 58.22 140.263 57.668 140.527 57.188C140.799 56.708 141.167 56.332 141.631 56.06C142.103 55.78 142.631 55.64 143.215 55.64C143.807 55.64 144.331 55.776 144.787 56.048C145.251 56.312 145.615 56.688 145.879 57.176C146.143 57.656 146.275 58.212 146.275 58.844C146.275 58.884 146.271 58.928 146.263 58.976C146.263 59.016 146.263 59.06 146.263 59.108H140.779V58.472H145.807L145.471 58.724C145.471 58.268 145.371 57.864 145.171 57.512C144.979 57.152 144.715 56.872 144.379 56.672C144.043 56.472 143.655 56.372 143.215 56.372C142.783 56.372 142.395 56.472 142.051 56.672C141.707 56.872 141.439 57.152 141.247 57.512C141.055 57.872 140.959 58.284 140.959 58.748V58.88C140.959 59.36 141.063 59.784 141.271 60.152C141.487 60.512 141.783 60.796 142.159 61.004C142.543 61.204 142.979 61.304 143.467 61.304C143.851 61.304 144.207 61.236 144.535 61.1C144.871 60.964 145.159 60.756 145.399 60.476L145.879 61.028C145.599 61.364 145.247 61.62 144.823 61.796C144.407 61.972 143.947 62.06 143.443 62.06ZM148.161 62V55.7H149.013V58.484H152.985V55.7H153.837V62H152.985V59.216H149.013V62H148.161ZM156.259 62V55.7H157.111V60.704L161.323 55.7H162.079V62H161.227V56.984L157.027 62H156.259ZM164.521 62V55.7H165.373V60.704L169.585 55.7H170.341V62H169.489V56.984L165.289 62H164.521Z" fill="#707D89"/>
<path d="M342 56.3333V58.9999L343.667 59.9999M342 53.3333C338.87 53.3333 336.333 55.8703 336.333 58.9999C336.333 62.1295 338.87 64.6666 342 64.6666C345.13 64.6666 347.667 62.1295 347.667 58.9999C347.667 55.8703 345.13 53.3333 342 53.3333ZM342 53.3333V51.3333M340.667 51.3333H343.333M347.553 53.7279L346.553 52.7279L347.053 53.2279M336.447 53.7279L337.447 52.7279L336.947 53.2279" stroke="#28CB47" stroke-width="1.5" stroke-linecap="round" stroke-linejoin="round"/>
<path d="M361.416 62V53.6H367.56V54.356H362.292V57.104H365.04C366.032 57.104 366.784 57.308 367.296 57.716C367.816 58.116 368.076 58.708 368.076 59.492C368.076 60.3 367.796 60.92 367.236 61.352C366.684 61.784 365.888 62 364.848 62H361.416ZM362.292 61.292H364.836C365.612 61.292 366.196 61.144 366.588 60.848C366.988 60.544 367.188 60.104 367.188 59.528C367.188 58.384 366.404 57.812 364.836 57.812H362.292V61.292ZM376.063 62V55.7H376.915V62H376.063ZM372.571 57.92C373.363 57.928 373.967 58.104 374.383 58.448C374.799 58.792 375.007 59.288 375.007 59.936C375.007 60.608 374.783 61.124 374.335 61.484C373.887 61.844 373.247 62.02 372.415 62.012L369.919 62V55.7H370.771V57.896L372.571 57.92ZM372.355 61.364C372.947 61.372 373.391 61.256 373.687 61.016C373.991 60.768 374.143 60.408 374.143 59.936C374.143 59.464 373.995 59.12 373.699 58.904C373.403 58.68 372.955 58.564 372.355 58.556L370.771 58.532V61.34L372.355 61.364ZM381.981 62.06C381.357 62.06 380.797 61.924 380.301 61.652C379.813 61.372 379.429 60.992 379.149 60.512C378.869 60.024 378.729 59.468 378.729 58.844C378.729 58.212 378.869 57.656 379.149 57.176C379.429 56.696 379.813 56.32 380.301 56.048C380.797 55.776 381.357 55.64 381.981 55.64C382.517 55.64 383.001 55.744 383.433 55.952C383.865 56.16 384.205 56.472 384.453 56.888L383.817 57.32C383.601 57 383.333 56.764 383.013 56.612C382.693 56.46 382.345 56.384 381.969 56.384C381.521 56.384 381.117 56.488 380.757 56.696C380.397 56.896 380.113 57.18 379.905 57.548C379.697 57.916 379.593 58.348 379.593 58.844C379.593 59.34 379.697 59.772 379.905 60.14C380.113 60.508 380.397 60.796 380.757 61.004C381.117 61.204 381.521 61.304 381.969 61.304C382.345 61.304 382.693 61.228 383.013 61.076C383.333 60.924 383.601 60.692 383.817 60.38L384.453 60.812C384.205 61.22 383.865 61.532 383.433 61.748C383.001 61.956 382.517 62.06 381.981 62.06ZM387.185 62V56.216L387.401 56.444H384.797V55.7H390.425V56.444H387.821L388.037 56.216V62H387.185ZM394.909 62.06C394.365 62.06 393.873 61.936 393.433 61.688C392.993 61.432 392.641 61.068 392.377 60.596C392.121 60.116 391.993 59.532 391.993 58.844C391.993 58.156 392.121 57.576 392.377 57.104C392.633 56.624 392.981 56.26 393.421 56.012C393.861 55.764 394.357 55.64 394.909 55.64C395.509 55.64 396.045 55.776 396.517 56.048C396.997 56.312 397.373 56.688 397.645 57.176C397.917 57.656 398.053 58.212 398.053 58.844C398.053 59.484 397.917 60.044 397.645 60.524C397.373 61.004 396.997 61.38 396.517 61.652C396.045 61.924 395.509 62.06 394.909 62.06ZM391.657 64.328V55.7H392.473V57.596L392.389 58.856L392.509 60.128V64.328H391.657ZM394.849 61.304C395.297 61.304 395.697 61.204 396.049 61.004C396.401 60.796 396.681 60.508 396.889 60.14C397.097 59.764 397.201 59.332 397.201 58.844C397.201 58.356 397.097 57.928 396.889 57.56C396.681 57.192 396.401 56.904 396.049 56.696C395.697 56.488 395.297 56.384 394.849 56.384C394.401 56.384 393.997 56.488 393.637 56.696C393.285 56.904 393.005 57.192 392.797 57.56C392.597 57.928 392.497 58.356 392.497 58.844C392.497 59.332 392.597 59.764 392.797 60.14C393.005 60.508 393.285 60.796 393.637 61.004C393.997 61.204 394.401 61.304 394.849 61.304ZM403.761 62V60.608L403.725 60.38V58.052C403.725 57.516 403.573 57.104 403.269 56.816C402.973 56.528 402.529 56.384 401.937 56.384C401.529 56.384 401.141 56.452 400.773 56.588C400.405 56.724 400.093 56.904 399.837 57.128L399.453 56.492C399.773 56.22 400.157 56.012 400.605 55.868C401.053 55.716 401.525 55.64 402.021 55.64C402.837 55.64 403.465 55.844 403.905 56.252C404.353 56.652 404.577 57.264 404.577 58.088V62H403.761ZM401.589 62.06C401.117 62.06 400.705 61.984 400.353 61.832C400.009 61.672 399.745 61.456 399.561 61.184C399.377 60.904 399.285 60.584 399.285 60.224C399.285 59.896 399.361 59.6 399.513 59.336C399.673 59.064 399.929 58.848 400.281 58.688C400.641 58.52 401.121 58.436 401.721 58.436H403.893V59.072H401.745C401.137 59.072 400.713 59.18 400.473 59.396C400.241 59.612 400.125 59.88 400.125 60.2C400.125 60.56 400.265 60.848 400.545 61.064C400.825 61.28 401.217 61.388 401.721 61.388C402.201 61.388 402.613 61.28 402.957 61.064C403.309 60.84 403.565 60.52 403.725 60.104L403.917 60.692C403.757 61.108 403.477 61.44 403.077 61.688C402.685 61.936 402.189 62.06 401.589 62.06ZM410.913 62V59.732L411.069 59.912H408.933C408.125 59.912 407.493 59.736 407.037 59.384C406.581 59.032 406.353 58.52 406.353 57.848C406.353 57.128 406.597 56.592 407.085 56.24C407.573 55.88 408.225 55.7 409.041 55.7H411.693V62H410.913ZM406.305 62L408.033 59.576H408.921L407.229 62H406.305ZM410.913 59.48V56.192L411.069 56.444H409.065C408.481 56.444 408.025 56.556 407.697 56.78C407.377 57.004 407.217 57.368 407.217 57.872C407.217 58.808 407.813 59.276 409.005 59.276H411.069L410.913 59.48ZM421.151 62.072C420.519 62.072 419.931 61.968 419.387 61.76C418.851 61.544 418.383 61.244 417.983 60.86C417.591 60.468 417.283 60.016 417.059 59.504C416.843 58.984 416.735 58.416 416.735 57.8C416.735 57.184 416.843 56.62 417.059 56.108C417.283 55.588 417.591 55.136 417.983 54.752C418.383 54.36 418.851 54.06 419.387 53.852C419.923 53.636 420.511 53.528 421.151 53.528C421.783 53.528 422.367 53.636 422.903 53.852C423.439 54.06 423.903 54.356 424.295 54.74C424.695 55.124 425.003 55.576 425.219 56.096C425.443 56.616 425.555 57.184 425.555 57.8C425.555 58.416 425.443 58.984 425.219 59.504C425.003 60.024 424.695 60.476 424.295 60.86C423.903 61.244 423.439 61.544 422.903 61.76C422.367 61.968 421.783 62.072 421.151 62.072ZM421.151 61.28C421.655 61.28 422.119 61.196 422.543 61.028C422.975 60.852 423.347 60.608 423.659 60.296C423.979 59.976 424.227 59.608 424.403 59.192C424.579 58.768 424.667 58.304 424.667 57.8C424.667 57.296 424.579 56.836 424.403 56.42C424.227 55.996 423.979 55.628 423.659 55.316C423.347 54.996 422.975 54.752 422.543 54.584C422.119 54.408 421.655 54.32 421.151 54.32C420.647 54.32 420.179 54.408 419.747 54.584C419.315 54.752 418.939 54.996 418.619 55.316C418.307 55.628 418.059 55.996 417.875 56.42C417.699 56.836 417.611 57.296 417.611 57.8C417.611 58.296 417.699 58.756 417.875 59.18C418.059 59.604 418.307 59.976 418.619 60.296C418.939 60.608 419.315 60.852 419.747 61.028C420.179 61.196 420.647 61.28 421.151 61.28ZM428.494 62V56.216L428.71 56.444H426.106V55.7H431.734V56.444H429.13L429.346 56.216V62H428.494ZM432.966 62V55.7H438.63V62H437.778V56.216L437.994 56.444H433.602L433.818 56.216V62H432.966ZM444.304 62.06C443.76 62.06 443.268 61.936 442.828 61.688C442.388 61.432 442.036 61.068 441.772 60.596C441.516 60.116 441.388 59.532 441.388 58.844C441.388 58.156 441.516 57.576 441.772 57.104C442.028 56.624 442.376 56.26 442.816 56.012C443.256 55.764 443.752 55.64 444.304 55.64C444.904 55.64 445.44 55.776 445.912 56.048C446.392 56.312 446.768 56.688 447.04 57.176C447.312 57.656 447.448 58.212 447.448 58.844C447.448 59.484 447.312 60.044 447.04 60.524C446.768 61.004 446.392 61.38 445.912 61.652C445.44 61.924 444.904 62.06 444.304 62.06ZM441.052 64.328V55.7H441.868V57.596L441.784 58.856L441.904 60.128V64.328H441.052ZM444.244 61.304C444.692 61.304 445.092 61.204 445.444 61.004C445.796 60.796 446.076 60.508 446.284 60.14C446.492 59.764 446.596 59.332 446.596 58.844C446.596 58.356 446.492 57.928 446.284 57.56C446.076 57.192 445.796 56.904 445.444 56.696C445.092 56.488 444.692 56.384 444.244 56.384C443.796 56.384 443.392 56.488 443.032 56.696C442.68 56.904 442.4 57.192 442.192 57.56C441.992 57.928 441.892 58.356 441.892 58.844C441.892 59.332 441.992 59.764 442.192 60.14C442.4 60.508 442.68 60.796 443.032 61.004C443.392 61.204 443.796 61.304 444.244 61.304ZM453.155 62V60.608L453.119 60.38V58.052C453.119 57.516 452.967 57.104 452.663 56.816C452.367 56.528 451.923 56.384 451.331 56.384C450.923 56.384 450.535 56.452 450.167 56.588C449.799 56.724 449.487 56.904 449.231 57.128L448.847 56.492C449.167 56.22 449.551 56.012 449.999 55.868C450.447 55.716 450.919 55.64 451.415 55.64C452.231 55.64 452.859 55.844 453.299 56.252C453.747 56.652 453.971 57.264 453.971 58.088V62H453.155ZM450.983 62.06C450.511 62.06 450.099 61.984 449.747 61.832C449.403 61.672 449.139 61.456 448.955 61.184C448.771 60.904 448.679 60.584 448.679 60.224C448.679 59.896 448.755 59.6 448.907 59.336C449.067 59.064 449.323 58.848 449.675 58.688C450.035 58.52 450.515 58.436 451.115 58.436H453.287V59.072H451.139C450.531 59.072 450.107 59.18 449.867 59.396C449.635 59.612 449.519 59.88 449.519 60.2C449.519 60.56 449.659 60.848 449.939 61.064C450.219 61.28 450.611 61.388 451.115 61.388C451.595 61.388 452.007 61.28 452.351 61.064C452.703 60.84 452.959 60.52 453.119 60.104L453.311 60.692C453.151 61.108 452.871 61.44 452.471 61.688C452.079 61.936 451.583 62.06 450.983 62.06ZM456.239 62V55.7H459.023C459.735 55.7 460.295 55.836 460.703 56.108C461.119 56.38 461.327 56.78 461.327 57.308C461.327 57.82 461.131 58.216 460.739 58.496C460.347 58.768 459.831 58.904 459.191 58.904L459.359 58.652C460.111 58.652 460.663 58.792 461.015 59.072C461.367 59.352 461.543 59.756 461.543 60.284C461.543 60.828 461.343 61.252 460.943 61.556C460.551 61.852 459.939 62 459.107 62H456.239ZM457.067 61.328H459.071C459.607 61.328 460.011 61.244 460.283 61.076C460.563 60.9 460.703 60.62 460.703 60.236C460.703 59.852 460.579 59.572 460.331 59.396C460.083 59.22 459.691 59.132 459.155 59.132H457.067V61.328ZM457.067 58.496H458.963C459.451 58.496 459.823 58.404 460.079 58.22C460.343 58.036 460.475 57.768 460.475 57.416C460.475 57.064 460.343 56.8 460.079 56.624C459.823 56.448 459.451 56.36 458.963 56.36H457.067V58.496ZM468.16 62L465.568 58.88L466.276 58.46L469.168 62H468.16ZM463.54 62V55.7H464.392V62H463.54ZM464.128 59.192V58.46H466.156V59.192H464.128ZM466.348 58.94L465.556 58.82L468.064 55.7H468.988L466.348 58.94ZM474.308 62V60.608L474.272 60.38V58.052C474.272 57.516 474.12 57.104 473.816 56.816C473.52 56.528 473.076 56.384 472.484 56.384C472.076 56.384 471.688 56.452 471.32 56.588C470.952 56.724 470.64 56.904 470.384 57.128L470 56.492C470.32 56.22 470.704 56.012 471.152 55.868C471.6 55.716 472.072 55.64 472.568 55.64C473.384 55.64 474.012 55.844 474.452 56.252C474.9 56.652 475.124 57.264 475.124 58.088V62H474.308ZM472.136 62.06C471.664 62.06 471.252 61.984 470.9 61.832C470.556 61.672 470.292 61.456 470.108 61.184C469.924 60.904 469.832 60.584 469.832 60.224C469.832 59.896 469.908 59.6 470.06 59.336C470.22 59.064 470.476 58.848 470.828 58.688C471.188 58.52 471.668 58.436 472.268 58.436H474.44V59.072H472.292C471.684 59.072 471.26 59.18 471.02 59.396C470.788 59.612 470.672 59.88 470.672 60.2C470.672 60.56 470.812 60.848 471.092 61.064C471.372 61.28 471.764 61.388 472.268 61.388C472.748 61.388 473.16 61.28 473.504 61.064C473.856 60.84 474.112 60.52 474.272 60.104L474.464 60.692C474.304 61.108 474.024 61.44 473.624 61.688C473.232 61.936 472.736 62.06 472.136 62.06ZM480.532 62V55.7H483.316C484.028 55.7 484.588 55.836 484.996 56.108C485.412 56.38 485.62 56.78 485.62 57.308C485.62 57.82 485.424 58.216 485.032 58.496C484.64 58.768 484.124 58.904 483.484 58.904L483.652 58.652C484.404 58.652 484.956 58.792 485.308 59.072C485.66 59.352 485.836 59.756 485.836 60.284C485.836 60.828 485.636 61.252 485.236 61.556C484.844 61.852 484.232 62 483.4 62H480.532ZM481.36 61.328H483.364C483.9 61.328 484.304 61.244 484.576 61.076C484.856 60.9 484.996 60.62 484.996 60.236C484.996 59.852 484.872 59.572 484.624 59.396C484.376 59.22 483.984 59.132 483.448 59.132H481.36V61.328ZM481.36 58.496H483.256C483.744 58.496 484.116 58.404 484.372 58.22C484.636 58.036 484.768 57.768 484.768 57.416C484.768 57.064 484.636 56.8 484.372 56.624C484.116 56.448 483.744 56.36 483.256 56.36H481.36V58.496ZM495.294 61.592V56.444H492.258L492.186 57.848C492.17 58.272 492.142 58.688 492.102 59.096C492.07 59.504 492.01 59.88 491.922 60.224C491.842 60.56 491.726 60.836 491.574 61.052C491.422 61.26 491.226 61.38 490.986 61.412L490.134 61.256C490.382 61.264 490.586 61.176 490.746 60.992C490.906 60.8 491.03 60.54 491.118 60.212C491.206 59.884 491.27 59.512 491.31 59.096C491.35 58.672 491.382 58.24 491.406 57.8L491.49 55.7H496.146V61.592H495.294ZM489.87 63.524V61.256H497.13V63.524H496.326V62H490.674V63.524H489.87ZM501.49 62.06C500.834 62.06 500.258 61.924 499.762 61.652C499.266 61.372 498.878 60.992 498.598 60.512C498.318 60.024 498.178 59.468 498.178 58.844C498.178 58.22 498.31 57.668 498.574 57.188C498.846 56.708 499.214 56.332 499.678 56.06C500.15 55.78 500.678 55.64 501.262 55.64C501.854 55.64 502.378 55.776 502.834 56.048C503.298 56.312 503.662 56.688 503.926 57.176C504.19 57.656 504.322 58.212 504.322 58.844C504.322 58.884 504.318 58.928 504.31 58.976C504.31 59.016 504.31 59.06 504.31 59.108H498.826V58.472H503.854L503.518 58.724C503.518 58.268 503.418 57.864 503.218 57.512C503.026 57.152 502.762 56.872 502.426 56.672C502.09 56.472 501.702 56.372 501.262 56.372C500.83 56.372 500.442 56.472 500.098 56.672C499.754 56.872 499.486 57.152 499.294 57.512C499.102 57.872 499.006 58.284 499.006 58.748V58.88C499.006 59.36 499.11 59.784 499.318 60.152C499.534 60.512 499.83 60.796 500.206 61.004C500.59 61.204 501.026 61.304 501.514 61.304C501.898 61.304 502.254 61.236 502.582 61.1C502.918 60.964 503.206 60.756 503.446 60.476L503.926 61.028C503.646 61.364 503.294 61.62 502.87 61.796C502.454 61.972 501.994 62.06 501.49 62.06ZM506.208 62V55.7H507.06V58.484H511.032V55.7H511.884V62H511.032V59.216H507.06V62H506.208ZM517.018 57.92C517.81 57.928 518.41 58.104 518.818 58.448C519.234 58.792 519.442 59.288 519.442 59.936C519.442 60.608 519.218 61.124 518.77 61.484C518.33 61.844 517.69 62.02 516.85 62.012L514.306 62V55.7H515.158V57.896L517.018 57.92ZM516.802 61.364C517.386 61.372 517.826 61.256 518.122 61.016C518.426 60.768 518.578 60.408 518.578 59.936C518.578 59.464 518.43 59.12 518.134 58.904C517.838 58.68 517.394 58.564 516.802 58.556L515.158 58.532V61.34L516.802 61.364ZM525.9 62.072C525.444 62.072 524.992 62.008 524.544 61.88C524.096 61.752 523.7 61.556 523.356 61.292L523.632 60.656C523.936 60.88 524.288 61.052 524.688 61.172C525.088 61.284 525.484 61.34 525.876 61.34C526.268 61.332 526.608 61.276 526.896 61.172C527.184 61.068 527.408 60.924 527.568 60.74C527.728 60.556 527.808 60.348 527.808 60.116C527.808 59.78 527.656 59.52 527.352 59.336C527.048 59.144 526.632 59.048 526.104 59.048H525.024V58.424H526.044C526.356 58.424 526.632 58.384 526.872 58.304C527.112 58.224 527.296 58.108 527.424 57.956C527.56 57.804 527.628 57.624 527.628 57.416C527.628 57.192 527.548 57 527.388 56.84C527.236 56.68 527.024 56.56 526.752 56.48C526.48 56.4 526.172 56.36 525.828 56.36C525.516 56.368 525.192 56.416 524.856 56.504C524.52 56.584 524.188 56.708 523.86 56.876L523.62 56.216C523.988 56.024 524.352 55.88 524.712 55.784C525.08 55.68 525.448 55.628 525.816 55.628C526.32 55.612 526.772 55.672 527.172 55.808C527.58 55.944 527.904 56.14 528.144 56.396C528.384 56.644 528.504 56.944 528.504 57.296C528.504 57.608 528.408 57.88 528.216 58.112C528.024 58.344 527.768 58.524 527.448 58.652C527.128 58.78 526.764 58.844 526.356 58.844L526.392 58.616C527.112 58.616 527.672 58.756 528.072 59.036C528.48 59.316 528.684 59.696 528.684 60.176C528.684 60.552 528.56 60.884 528.312 61.172C528.064 61.452 527.728 61.672 527.304 61.832C526.888 61.992 526.42 62.072 525.9 62.072ZM534.53 62V60.608L534.494 60.38V58.052C534.494 57.516 534.342 57.104 534.038 56.816C533.742 56.528 533.298 56.384 532.706 56.384C532.298 56.384 531.91 56.452 531.542 56.588C531.174 56.724 530.862 56.904 530.606 57.128L530.222 56.492C530.542 56.22 530.926 56.012 531.374 55.868C531.822 55.716 532.294 55.64 532.79 55.64C533.606 55.64 534.234 55.844 534.674 56.252C535.122 56.652 535.346 57.264 535.346 58.088V62H534.53ZM532.358 62.06C531.886 62.06 531.474 61.984 531.122 61.832C530.778 61.672 530.514 61.456 530.33 61.184C530.146 60.904 530.054 60.584 530.054 60.224C530.054 59.896 530.13 59.6 530.282 59.336C530.442 59.064 530.698 58.848 531.05 58.688C531.41 58.52 531.89 58.436 532.49 58.436H534.662V59.072H532.514C531.906 59.072 531.482 59.18 531.242 59.396C531.01 59.612 530.894 59.88 530.894 60.2C530.894 60.56 531.034 60.848 531.314 61.064C531.594 61.28 531.986 61.388 532.49 61.388C532.97 61.388 533.382 61.28 533.726 61.064C534.078 60.84 534.334 60.52 534.494 60.104L534.686 60.692C534.526 61.108 534.246 61.44 533.846 61.688C533.454 61.936 532.958 62.06 532.358 62.06ZM542.234 62L539.642 58.88L540.35 58.46L543.242 62H542.234ZM537.614 62V55.7H538.466V62H537.614ZM538.202 59.192V58.46H540.23V59.192H538.202ZM540.422 58.94L539.63 58.82L542.138 55.7H543.062L540.422 58.94ZM548.382 62V60.608L548.346 60.38V58.052C548.346 57.516 548.194 57.104 547.89 56.816C547.594 56.528 547.15 56.384 546.558 56.384C546.15 56.384 545.762 56.452 545.394 56.588C545.026 56.724 544.714 56.904 544.458 57.128L544.074 56.492C544.394 56.22 544.778 56.012 545.226 55.868C545.674 55.716 546.146 55.64 546.642 55.64C547.458 55.64 548.086 55.844 548.526 56.252C548.974 56.652 549.198 57.264 549.198 58.088V62H548.382ZM546.21 62.06C545.738 62.06 545.326 61.984 544.974 61.832C544.63 61.672 544.366 61.456 544.182 61.184C543.998 60.904 543.906 60.584 543.906 60.224C543.906 59.896 543.982 59.6 544.134 59.336C544.294 59.064 544.55 58.848 544.902 58.688C545.262 58.52 545.742 58.436 546.342 58.436H548.514V59.072H546.366C545.758 59.072 545.334 59.18 545.094 59.396C544.862 59.612 544.746 59.88 544.746 60.2C544.746 60.56 544.886 60.848 545.166 61.064C545.446 61.28 545.838 61.388 546.342 61.388C546.822 61.388 547.234 61.28 547.578 61.064C547.93 60.84 548.186 60.52 548.346 60.104L548.538 60.692C548.378 61.108 548.098 61.44 547.698 61.688C547.306 61.936 546.81 62.06 546.21 62.06ZM553.029 62.072C552.573 62.072 552.121 62.008 551.673 61.88C551.225 61.752 550.829 61.556 550.485 61.292L550.761 60.656C551.065 60.88 551.417 61.052 551.817 61.172C552.217 61.284 552.613 61.34 553.005 61.34C553.397 61.332 553.737 61.276 554.025 61.172C554.313 61.068 554.537 60.924 554.697 60.74C554.857 60.556 554.937 60.348 554.937 60.116C554.937 59.78 554.785 59.52 554.481 59.336C554.177 59.144 553.761 59.048 553.233 59.048H552.153V58.424H553.173C553.485 58.424 553.761 58.384 554.001 58.304C554.241 58.224 554.425 58.108 554.553 57.956C554.689 57.804 554.757 57.624 554.757 57.416C554.757 57.192 554.677 57 554.517 56.84C554.365 56.68 554.153 56.56 553.881 56.48C553.609 56.4 553.301 56.36 552.957 56.36C552.645 56.368 552.321 56.416 551.985 56.504C551.649 56.584 551.317 56.708 550.989 56.876L550.749 56.216C551.117 56.024 551.481 55.88 551.841 55.784C552.209 55.68 552.577 55.628 552.945 55.628C553.449 55.612 553.901 55.672 554.301 55.808C554.709 55.944 555.033 56.14 555.273 56.396C555.513 56.644 555.633 56.944 555.633 57.296C555.633 57.608 555.537 57.88 555.345 58.112C555.153 58.344 554.897 58.524 554.577 58.652C554.257 58.78 553.893 58.844 553.485 58.844L553.521 58.616C554.241 58.616 554.801 58.756 555.201 59.036C555.609 59.316 555.813 59.696 555.813 60.176C555.813 60.552 555.689 60.884 555.441 61.172C555.193 61.452 554.857 61.672 554.433 61.832C554.017 61.992 553.549 62.072 553.029 62.072ZM561.659 62V60.608L561.623 60.38V58.052C561.623 57.516 561.471 57.104 561.167 56.816C560.871 56.528 560.427 56.384 559.835 56.384C559.427 56.384 559.039 56.452 558.671 56.588C558.303 56.724 557.991 56.904 557.735 57.128L557.351 56.492C557.671 56.22 558.055 56.012 558.503 55.868C558.951 55.716 559.423 55.64 559.919 55.64C560.735 55.64 561.363 55.844 561.803 56.252C562.251 56.652 562.475 57.264 562.475 58.088V62H561.659ZM559.487 62.06C559.015 62.06 558.603 61.984 558.251 61.832C557.907 61.672 557.643 61.456 557.459 61.184C557.275 60.904 557.183 60.584 557.183 60.224C557.183 59.896 557.259 59.6 557.411 59.336C557.571 59.064 557.827 58.848 558.179 58.688C558.539 58.52 559.019 58.436 559.619 58.436H561.791V59.072H559.643C559.035 59.072 558.611 59.18 558.371 59.396C558.139 59.612 558.023 59.88 558.023 60.2C558.023 60.56 558.163 60.848 558.443 61.064C558.723 61.28 559.115 61.388 559.619 61.388C560.099 61.388 560.511 61.28 560.855 61.064C561.207 60.84 561.463 60.52 561.623 60.104L561.815 60.692C561.655 61.108 561.375 61.44 560.975 61.688C560.583 61.936 560.087 62.06 559.487 62.06Z" fill="#707D89"/>
<defs>
<clipPath id="clip0_5998_17496">
<rect width="16" height="16" fill="white" transform="translate(0 2)"/>
</clipPath>
</defs>
</svg>
