<svg width="270" height="148" viewBox="0 0 270 148" fill="none" xmlns="http://www.w3.org/2000/svg">
<g clip-path="url(#clip0_5998_17495)">
<path d="M6.00004 12.6667C8.57737 12.6667 10.6667 10.5774 10.6667 8.00004C10.6667 5.42271 8.57737 3.33337 6.00004 3.33337C3.42271 3.33337 1.33337 5.42271 1.33337 8.00004C1.33337 10.5774 3.42271 12.6667 6.00004 12.6667Z" stroke="#28CB47" stroke-width="1.5" stroke-linecap="round" stroke-linejoin="round"/>
<path d="M10 16.6667C12.5774 16.6667 14.6667 14.5774 14.6667 12C14.6667 9.42271 12.5774 7.33337 10 7.33337C7.42271 7.33337 5.33337 9.42271 5.33337 12C5.33337 14.5774 7.42271 16.6667 10 16.6667Z" stroke="#28CB47" stroke-width="1.5" stroke-linecap="round" stroke-linejoin="round"/>
</g>
<path d="M31.936 15.084C31.1987 15.084 30.5173 14.9627 29.892 14.72C29.2667 14.468 28.7253 14.118 28.268 13.67C27.8107 13.222 27.4513 12.6947 27.19 12.088C26.938 11.4813 26.812 10.8187 26.812 10.1C26.812 9.38133 26.938 8.71867 27.19 8.112C27.4513 7.50533 27.8107 6.978 28.268 6.53C28.7347 6.082 29.2807 5.73667 29.906 5.494C30.5313 5.242 31.2127 5.116 31.95 5.116C32.6593 5.116 33.3267 5.23733 33.952 5.48C34.5773 5.71333 35.1047 6.068 35.534 6.544L34.876 7.202C34.4747 6.79133 34.0313 6.49733 33.546 6.32C33.0607 6.13333 32.538 6.04 31.978 6.04C31.39 6.04 30.844 6.14267 30.34 6.348C29.836 6.544 29.3973 6.82867 29.024 7.202C28.6507 7.566 28.3567 7.99533 28.142 8.49C27.9367 8.97533 27.834 9.512 27.834 10.1C27.834 10.688 27.9367 11.2293 28.142 11.724C28.3567 12.2093 28.6507 12.6387 29.024 13.012C29.3973 13.376 29.836 13.6607 30.34 13.866C30.844 14.062 31.39 14.16 31.978 14.16C32.538 14.16 33.0607 14.0667 33.546 13.88C34.0313 13.6933 34.4747 13.3947 34.876 12.984L35.534 13.642C35.1047 14.118 34.5773 14.4773 33.952 14.72C33.3267 14.9627 32.6547 15.084 31.936 15.084ZM41.2295 15.07C40.5948 15.07 40.0208 14.9253 39.5075 14.636C38.9942 14.3373 38.5835 13.9127 38.2755 13.362C37.9768 12.802 37.8275 12.1207 37.8275 11.318C37.8275 10.5153 37.9768 9.83867 38.2755 9.288C38.5742 8.728 38.9802 8.30333 39.4935 8.014C40.0068 7.72467 40.5855 7.58 41.2295 7.58C41.9295 7.58 42.5548 7.73867 43.1055 8.056C43.6655 8.364 44.1042 8.80267 44.4215 9.372C44.7388 9.932 44.8975 10.5807 44.8975 11.318C44.8975 12.0647 44.7388 12.718 44.4215 13.278C44.1042 13.838 43.6655 14.2767 43.1055 14.594C42.5548 14.9113 41.9295 15.07 41.2295 15.07ZM37.4355 17.716V7.65H38.3875V9.862L38.2895 11.332L38.4295 12.816V17.716H37.4355ZM41.1595 14.188C41.6822 14.188 42.1488 14.0713 42.5595 13.838C42.9702 13.5953 43.2968 13.2593 43.5395 12.83C43.7822 12.3913 43.9035 11.8873 43.9035 11.318C43.9035 10.7487 43.7822 10.2493 43.5395 9.82C43.2968 9.39067 42.9702 9.05467 42.5595 8.812C42.1488 8.56933 41.6822 8.448 41.1595 8.448C40.6368 8.448 40.1655 8.56933 39.7455 8.812C39.3348 9.05467 39.0082 9.39067 38.7655 9.82C38.5322 10.2493 38.4155 10.7487 38.4155 11.318C38.4155 11.8873 38.5322 12.3913 38.7655 12.83C39.0082 13.2593 39.3348 13.5953 39.7455 13.838C40.1655 14.0713 40.6368 14.188 41.1595 14.188ZM51.5561 15V13.376L51.5141 13.11V10.394C51.5141 9.76867 51.3368 9.288 50.9821 8.952C50.6368 8.616 50.1188 8.448 49.4281 8.448C48.9521 8.448 48.4995 8.52733 48.0701 8.686C47.6408 8.84467 47.2768 9.05467 46.9781 9.316L46.5301 8.574C46.9035 8.25667 47.3515 8.014 47.8741 7.846C48.3968 7.66867 48.9475 7.58 49.5261 7.58C50.4781 7.58 51.2108 7.818 51.7241 8.294C52.2468 8.76067 52.5081 9.47467 52.5081 10.436V15H51.5561ZM49.0221 15.07C48.4715 15.07 47.9908 14.9813 47.5801 14.804C47.1788 14.6173 46.8708 14.3653 46.6561 14.048C46.4415 13.7213 46.3341 13.348 46.3341 12.928C46.3341 12.5453 46.4228 12.2 46.6001 11.892C46.7868 11.5747 47.0855 11.3227 47.4961 11.136C47.9161 10.94 48.4761 10.842 49.1761 10.842H51.7101V11.584H49.2041C48.4948 11.584 48.0001 11.71 47.7201 11.962C47.4495 12.214 47.3141 12.5267 47.3141 12.9C47.3141 13.32 47.4775 13.656 47.8041 13.908C48.1308 14.16 48.5881 14.286 49.1761 14.286C49.7361 14.286 50.2168 14.16 50.6181 13.908C51.0288 13.6467 51.3275 13.2733 51.5141 12.788L51.7381 13.474C51.5515 13.9593 51.2248 14.3467 50.7581 14.636C50.3008 14.9253 49.7221 15.07 49.0221 15.07ZM55.1542 15V7.65H58.4022C59.2329 7.65 59.8862 7.80867 60.3622 8.126C60.8476 8.44333 61.0902 8.91 61.0902 9.526C61.0902 10.1233 60.8616 10.5853 60.4042 10.912C59.9469 11.2293 59.3449 11.388 58.5982 11.388L58.7942 11.094C59.6716 11.094 60.3156 11.2573 60.7262 11.584C61.1369 11.9107 61.3422 12.382 61.3422 12.998C61.3422 13.6327 61.1089 14.1273 60.6422 14.482C60.1849 14.8273 59.4709 15 58.5002 15H55.1542ZM56.1202 14.216H58.4582C59.0836 14.216 59.5549 14.118 59.8722 13.922C60.1989 13.7167 60.3622 13.39 60.3622 12.942C60.3622 12.494 60.2176 12.1673 59.9282 11.962C59.6389 11.7567 59.1816 11.654 58.5562 11.654H56.1202V14.216ZM56.1202 10.912H58.3322C58.9016 10.912 59.3356 10.8047 59.6342 10.59C59.9422 10.3753 60.0962 10.0627 60.0962 9.652C60.0962 9.24133 59.9422 8.93333 59.6342 8.728C59.3356 8.52267 58.9016 8.42 58.3322 8.42H56.1202V10.912ZM63.6718 15V7.65H64.6658V10.898H69.2998V7.65H70.2938V15H69.2998V11.752H64.6658V15H63.6718ZM73.1191 15V7.65H74.1131V13.488L79.0271 7.65H79.9091V15H78.9151V9.148L74.0151 15H73.1191ZM84.1578 15V8.252L84.4098 8.518H81.3718V7.65H87.9378V8.518H84.8998L85.1518 8.252V15H84.1578ZM92.1831 15.07C91.4178 15.07 90.7458 14.9113 90.1671 14.594C89.5885 14.2673 89.1358 13.824 88.8091 13.264C88.4825 12.6947 88.3191 12.046 88.3191 11.318C88.3191 10.59 88.4731 9.946 88.7811 9.386C89.0985 8.826 89.5278 8.38733 90.0691 8.07C90.6198 7.74333 91.2358 7.58 91.9171 7.58C92.6078 7.58 93.2191 7.73867 93.7511 8.056C94.2925 8.364 94.7171 8.80267 95.0251 9.372C95.3331 9.932 95.4871 10.5807 95.4871 11.318C95.4871 11.3647 95.4825 11.416 95.4731 11.472C95.4731 11.5187 95.4731 11.57 95.4731 11.626H89.0751V10.884H94.9411L94.5491 11.178C94.5491 10.646 94.4325 10.1747 94.1991 9.764C93.9751 9.344 93.6671 9.01733 93.2751 8.784C92.8831 8.55067 92.4305 8.434 91.9171 8.434C91.4131 8.434 90.9605 8.55067 90.5591 8.784C90.1578 9.01733 89.8451 9.344 89.6211 9.764C89.3971 10.184 89.2851 10.6647 89.2851 11.206V11.36C89.2851 11.92 89.4065 12.4147 89.6491 12.844C89.9011 13.264 90.2465 13.5953 90.6851 13.838C91.1331 14.0713 91.6418 14.188 92.2111 14.188C92.6591 14.188 93.0745 14.1087 93.4571 13.95C93.8491 13.7913 94.1851 13.5487 94.4651 13.222L95.0251 13.866C94.6985 14.258 94.2878 14.5567 93.7931 14.762C93.3078 14.9673 92.7711 15.07 92.1831 15.07ZM104.432 15.07C103.704 15.07 103.05 14.9113 102.472 14.594C101.902 14.2673 101.454 13.824 101.128 13.264C100.801 12.6947 100.638 12.046 100.638 11.318C100.638 10.5807 100.801 9.932 101.128 9.372C101.454 8.812 101.902 8.37333 102.472 8.056C103.05 7.73867 103.704 7.58 104.432 7.58C105.057 7.58 105.622 7.70133 106.126 7.944C106.63 8.18667 107.026 8.55067 107.316 9.036L106.574 9.54C106.322 9.16667 106.009 8.89133 105.636 8.714C105.262 8.53667 104.856 8.448 104.418 8.448C103.895 8.448 103.424 8.56933 103.004 8.812C102.584 9.04533 102.252 9.37667 102.01 9.806C101.767 10.2353 101.646 10.7393 101.646 11.318C101.646 11.8967 101.767 12.4007 102.01 12.83C102.252 13.2593 102.584 13.5953 103.004 13.838C103.424 14.0713 103.895 14.188 104.418 14.188C104.856 14.188 105.262 14.0993 105.636 13.922C106.009 13.7447 106.322 13.474 106.574 13.11L107.316 13.614C107.026 14.09 106.63 14.454 106.126 14.706C105.622 14.9487 105.057 15.07 104.432 15.07ZM112.904 15V7.65H113.912L117.244 13.292H116.824L120.212 7.65H121.136V15H120.226V8.784L120.408 8.868L117.244 14.104H116.796L113.604 8.812L113.814 8.77V15H112.904ZM128.529 15V13.376L128.487 13.11V10.394C128.487 9.76867 128.309 9.288 127.955 8.952C127.609 8.616 127.091 8.448 126.401 8.448C125.925 8.448 125.472 8.52733 125.043 8.686C124.613 8.84467 124.249 9.05467 123.951 9.316L123.503 8.574C123.876 8.25667 124.324 8.014 124.847 7.846C125.369 7.66867 125.92 7.58 126.499 7.58C127.451 7.58 128.183 7.818 128.697 8.294C129.219 8.76067 129.481 9.47467 129.481 10.436V15H128.529ZM125.995 15.07C125.444 15.07 124.963 14.9813 124.553 14.804C124.151 14.6173 123.843 14.3653 123.629 14.048C123.414 13.7213 123.307 13.348 123.307 12.928C123.307 12.5453 123.395 12.2 123.573 11.892C123.759 11.5747 124.058 11.3227 124.469 11.136C124.889 10.94 125.449 10.842 126.149 10.842H128.683V11.584H126.177C125.467 11.584 124.973 11.71 124.693 11.962C124.422 12.214 124.287 12.5267 124.287 12.9C124.287 13.32 124.45 13.656 124.777 13.908C125.103 14.16 125.561 14.286 126.149 14.286C126.709 14.286 127.189 14.16 127.591 13.908C128.001 13.6467 128.3 13.2733 128.487 12.788L128.711 13.474C128.524 13.9593 128.197 14.3467 127.731 14.636C127.273 14.9253 126.695 15.07 125.995 15.07ZM135.921 15.07C135.286 15.07 134.712 14.9253 134.199 14.636C133.686 14.3373 133.275 13.9127 132.967 13.362C132.668 12.802 132.519 12.1207 132.519 11.318C132.519 10.5153 132.668 9.83867 132.967 9.288C133.266 8.728 133.672 8.30333 134.185 8.014C134.698 7.72467 135.277 7.58 135.921 7.58C136.621 7.58 137.246 7.73867 137.797 8.056C138.357 8.364 138.796 8.80267 139.113 9.372C139.43 9.932 139.589 10.5807 139.589 11.318C139.589 12.0647 139.43 12.718 139.113 13.278C138.796 13.838 138.357 14.2767 137.797 14.594C137.246 14.9113 136.621 15.07 135.921 15.07ZM132.127 17.716V7.65H133.079V9.862L132.981 11.332L133.121 12.816V17.716H132.127ZM135.851 14.188C136.374 14.188 136.84 14.0713 137.251 13.838C137.662 13.5953 137.988 13.2593 138.231 12.83C138.474 12.3913 138.595 11.8873 138.595 11.318C138.595 10.7487 138.474 10.2493 138.231 9.82C137.988 9.39067 137.662 9.05467 137.251 8.812C136.84 8.56933 136.374 8.448 135.851 8.448C135.328 8.448 134.857 8.56933 134.437 8.812C134.026 9.05467 133.7 9.39067 133.457 9.82C133.224 10.2493 133.107 10.7487 133.107 11.318C133.107 11.8873 133.224 12.3913 133.457 12.83C133.7 13.2593 134.026 13.5953 134.437 13.838C134.857 14.0713 135.328 14.188 135.851 14.188ZM147.115 15L144.091 11.36L144.917 10.87L148.291 15H147.115ZM141.725 15V7.65H142.719V15H141.725ZM142.411 11.724V10.87H144.777V11.724H142.411ZM145.001 11.43L144.077 11.29L147.003 7.65H148.081L145.001 11.43ZM152.75 15.07C151.984 15.07 151.312 14.9113 150.734 14.594C150.155 14.2673 149.702 13.824 149.376 13.264C149.049 12.6947 148.886 12.046 148.886 11.318C148.886 10.59 149.04 9.946 149.348 9.386C149.665 8.826 150.094 8.38733 150.636 8.07C151.186 7.74333 151.802 7.58 152.484 7.58C153.174 7.58 153.786 7.73867 154.318 8.056C154.859 8.364 155.284 8.80267 155.592 9.372C155.9 9.932 156.054 10.5807 156.054 11.318C156.054 11.3647 156.049 11.416 156.04 11.472C156.04 11.5187 156.04 11.57 156.04 11.626H149.642V10.884H155.508L155.116 11.178C155.116 10.646 154.999 10.1747 154.766 9.764C154.542 9.344 154.234 9.01733 153.842 8.784C153.45 8.55067 152.997 8.434 152.484 8.434C151.98 8.434 151.527 8.55067 151.126 8.784C150.724 9.01733 150.412 9.344 150.188 9.764C149.964 10.184 149.852 10.6647 149.852 11.206V11.36C149.852 11.92 149.973 12.4147 150.216 12.844C150.468 13.264 150.813 13.5953 151.252 13.838C151.7 14.0713 152.208 14.188 152.778 14.188C153.226 14.188 153.641 14.1087 154.024 13.95C154.416 13.7913 154.752 13.5487 155.032 13.222L155.592 13.866C155.265 14.258 154.854 14.5567 154.36 14.762C153.874 14.9673 153.338 15.07 152.75 15.07ZM159.326 15V8.252L159.578 8.518H156.54V7.65H163.106V8.518H160.068L160.32 8.252V15H159.326ZM164.543 15V7.65H171.151V15H170.157V8.252L170.409 8.518H165.285L165.537 8.252V15H164.543ZM172.633 14.986L172.703 14.132C172.768 14.1413 172.829 14.1553 172.885 14.174C172.95 14.1833 173.006 14.188 173.053 14.188C173.351 14.188 173.589 14.076 173.767 13.852C173.953 13.628 174.093 13.3293 174.187 12.956C174.28 12.5827 174.345 12.1627 174.383 11.696C174.42 11.22 174.453 10.744 174.481 10.268L174.607 7.65H179.997V15H179.003V8.224L179.255 8.518H175.251L175.489 8.21L175.377 10.338C175.349 10.9727 175.297 11.5793 175.223 12.158C175.157 12.7367 175.05 13.2453 174.901 13.684C174.761 14.1227 174.565 14.468 174.312 14.72C174.061 14.9627 173.739 15.084 173.347 15.084C173.235 15.084 173.118 15.0747 172.997 15.056C172.885 15.0373 172.763 15.014 172.633 14.986ZM185.972 15.07C185.207 15.07 184.535 14.9113 183.956 14.594C183.378 14.2673 182.925 13.824 182.598 13.264C182.272 12.6947 182.108 12.046 182.108 11.318C182.108 10.59 182.262 9.946 182.57 9.386C182.888 8.826 183.317 8.38733 183.858 8.07C184.409 7.74333 185.025 7.58 185.706 7.58C186.397 7.58 187.008 7.73867 187.54 8.056C188.082 8.364 188.506 8.80267 188.814 9.372C189.122 9.932 189.276 10.5807 189.276 11.318C189.276 11.3647 189.272 11.416 189.262 11.472C189.262 11.5187 189.262 11.57 189.262 11.626H182.864V10.884H188.73L188.338 11.178C188.338 10.646 188.222 10.1747 187.988 9.764C187.764 9.344 187.456 9.01733 187.064 8.784C186.672 8.55067 186.22 8.434 185.706 8.434C185.202 8.434 184.75 8.55067 184.348 8.784C183.947 9.01733 183.634 9.344 183.41 9.764C183.186 10.184 183.074 10.6647 183.074 11.206V11.36C183.074 11.92 183.196 12.4147 183.438 12.844C183.69 13.264 184.036 13.5953 184.474 13.838C184.922 14.0713 185.431 14.188 186 14.188C186.448 14.188 186.864 14.1087 187.246 13.95C187.638 13.7913 187.974 13.5487 188.254 13.222L188.814 13.866C188.488 14.258 188.077 14.5567 187.582 14.762C187.097 14.9673 186.56 15.07 185.972 15.07ZM191.477 15V7.65H192.471V13.488L197.385 7.65H198.267V15H197.273V9.148L192.373 15H191.477ZM194.809 6.586C194.193 6.586 193.693 6.432 193.311 6.124C192.937 5.80667 192.741 5.354 192.723 4.766H193.437C193.446 5.13933 193.577 5.43333 193.829 5.648C194.081 5.86267 194.407 5.97 194.809 5.97C195.21 5.97 195.537 5.86267 195.789 5.648C196.05 5.43333 196.185 5.13933 196.195 4.766H196.909C196.899 5.354 196.703 5.80667 196.321 6.124C195.938 6.432 195.434 6.586 194.809 6.586ZM204.195 15.07C203.467 15.07 202.814 14.9113 202.235 14.594C201.666 14.2673 201.218 13.824 200.891 13.264C200.565 12.6947 200.401 12.046 200.401 11.318C200.401 10.5807 200.565 9.932 200.891 9.372C201.218 8.812 201.666 8.37333 202.235 8.056C202.814 7.73867 203.467 7.58 204.195 7.58C204.821 7.58 205.385 7.70133 205.889 7.944C206.393 8.18667 206.79 8.55067 207.079 9.036L206.337 9.54C206.085 9.16667 205.773 8.89133 205.399 8.714C205.026 8.53667 204.62 8.448 204.181 8.448C203.659 8.448 203.187 8.56933 202.767 8.812C202.347 9.04533 202.016 9.37667 201.773 9.806C201.531 10.2353 201.409 10.7393 201.409 11.318C201.409 11.8967 201.531 12.4007 201.773 12.83C202.016 13.2593 202.347 13.5953 202.767 13.838C203.187 14.0713 203.659 14.188 204.181 14.188C204.62 14.188 205.026 14.0993 205.399 13.922C205.773 13.7447 206.085 13.474 206.337 13.11L207.079 13.614C206.79 14.09 206.393 14.454 205.889 14.706C205.385 14.9487 204.821 15.07 204.195 15.07ZM213.568 15V13.376L213.526 13.11V10.394C213.526 9.76867 213.349 9.288 212.994 8.952C212.649 8.616 212.131 8.448 211.44 8.448C210.964 8.448 210.511 8.52733 210.082 8.686C209.653 8.84467 209.289 9.05467 208.99 9.316L208.542 8.574C208.915 8.25667 209.363 8.014 209.886 7.846C210.409 7.66867 210.959 7.58 211.538 7.58C212.49 7.58 213.223 7.818 213.736 8.294C214.259 8.76067 214.52 9.47467 214.52 10.436V15H213.568ZM211.034 15.07C210.483 15.07 210.003 14.9813 209.592 14.804C209.191 14.6173 208.883 14.3653 208.668 14.048C208.453 13.7213 208.346 13.348 208.346 12.928C208.346 12.5453 208.435 12.2 208.612 11.892C208.799 11.5747 209.097 11.3227 209.508 11.136C209.928 10.94 210.488 10.842 211.188 10.842H213.722V11.584H211.216C210.507 11.584 210.012 11.71 209.732 11.962C209.461 12.214 209.326 12.5267 209.326 12.9C209.326 13.32 209.489 13.656 209.816 13.908C210.143 14.16 210.6 14.286 211.188 14.286C211.748 14.286 212.229 14.16 212.63 13.908C213.041 13.6467 213.339 13.2733 213.526 12.788L213.75 13.474C213.563 13.9593 213.237 14.3467 212.77 14.636C212.313 14.9253 211.734 15.07 211.034 15.07ZM217.166 15V7.65H218.174L221.506 13.292H221.086L224.474 7.65H225.398V15H224.488V8.784L224.67 8.868L221.506 14.104H221.058L217.866 8.812L218.076 8.77V15H217.166ZM228.227 15V7.65H229.221V13.488L234.135 7.65H235.017V15H234.023V9.148L229.123 15H228.227ZM27.414 35V27.65H30.662C31.4927 27.65 32.146 27.8087 32.622 28.126C33.1073 28.4433 33.35 28.91 33.35 29.526C33.35 30.1233 33.1213 30.5853 32.664 30.912C32.2067 31.2293 31.6047 31.388 30.858 31.388L31.054 31.094C31.9313 31.094 32.5753 31.2573 32.986 31.584C33.3967 31.9107 33.602 32.382 33.602 32.998C33.602 33.6327 33.3687 34.1273 32.902 34.482C32.4447 34.8273 31.7307 35 30.76 35H27.414ZM28.38 34.216H30.718C31.3433 34.216 31.8147 34.118 32.132 33.922C32.4587 33.7167 32.622 33.39 32.622 32.942C32.622 32.494 32.4773 32.1673 32.188 31.962C31.8987 31.7567 31.4413 31.654 30.816 31.654H28.38V34.216ZM28.38 30.912H30.592C31.1613 30.912 31.5953 30.8047 31.894 30.59C32.202 30.3753 32.356 30.0627 32.356 29.652C32.356 29.2413 32.202 28.9333 31.894 28.728C31.5953 28.5227 31.1613 28.42 30.592 28.42H28.38V30.912ZM43.0996 35V27.65H44.0936V35H43.0996ZM39.0256 30.24C39.9496 30.2493 40.6542 30.4547 41.1396 30.856C41.6249 31.2573 41.8676 31.836 41.8676 32.592C41.8676 33.376 41.6062 33.978 41.0836 34.398C40.5609 34.818 39.8142 35.0233 38.8436 35.014L35.9316 35V27.65H36.9256V30.212L39.0256 30.24ZM38.7736 34.258C39.4642 34.2673 39.9822 34.132 40.3276 33.852C40.6822 33.5627 40.8596 33.1427 40.8596 32.592C40.8596 32.0413 40.6869 31.64 40.3416 31.388C39.9962 31.1267 39.4736 30.9913 38.7736 30.982L36.9256 30.954V34.23L38.7736 34.258ZM50.2278 35.084C49.6304 35.084 49.0984 34.986 48.6318 34.79C48.1744 34.594 47.7824 34.2953 47.4558 33.894C47.1291 33.4927 46.8818 32.998 46.7138 32.41C46.5458 31.8127 46.4618 31.122 46.4618 30.338C46.4618 29.638 46.5271 29.0267 46.6578 28.504C46.7884 27.972 46.9704 27.5147 47.2038 27.132C47.4371 26.7493 47.7078 26.4273 48.0158 26.166C48.3331 25.8953 48.6738 25.6807 49.0378 25.522C49.4111 25.354 49.7938 25.228 50.1858 25.144L53.4898 24.374L53.6578 25.298L50.5498 25.998C50.3538 26.0447 50.1158 26.11 49.8358 26.194C49.5651 26.278 49.2851 26.404 48.9958 26.572C48.7158 26.74 48.4544 26.9733 48.2118 27.272C47.9691 27.5707 47.7731 27.958 47.6238 28.434C47.4838 28.9007 47.4138 29.484 47.4138 30.184C47.4138 30.3333 47.4184 30.4547 47.4278 30.548C47.4371 30.632 47.4464 30.7253 47.4558 30.828C47.4744 30.9213 47.4884 31.0613 47.4978 31.248L47.0638 30.884C47.1664 30.3147 47.3764 29.82 47.6938 29.4C48.0111 28.9707 48.4078 28.6393 48.8838 28.406C49.3691 28.1633 49.9058 28.042 50.4938 28.042C51.1751 28.042 51.7818 28.1913 52.3138 28.49C52.8458 28.7793 53.2611 29.1853 53.5598 29.708C53.8678 30.2307 54.0218 30.8373 54.0218 31.528C54.0218 32.2093 53.8631 32.8207 53.5458 33.362C53.2378 33.9033 52.7991 34.328 52.2298 34.636C51.6604 34.9347 50.9931 35.084 50.2278 35.084ZM50.3398 34.258C50.8624 34.258 51.3244 34.1413 51.7258 33.908C52.1271 33.6653 52.4398 33.3387 52.6638 32.928C52.8971 32.5173 53.0138 32.0553 53.0138 31.542C53.0138 31.038 52.8971 30.59 52.6638 30.198C52.4398 29.806 52.1271 29.498 51.7258 29.274C51.3244 29.0407 50.8578 28.924 50.3258 28.924C49.8031 28.924 49.3411 29.036 48.9398 29.26C48.5384 29.4747 48.2211 29.778 47.9878 30.17C47.7638 30.562 47.6518 31.0147 47.6518 31.528C47.6518 32.0413 47.7638 32.5033 47.9878 32.914C48.2211 33.3247 48.5384 33.6513 48.9398 33.894C49.3504 34.1367 49.8171 34.258 50.3398 34.258ZM59.3023 35.07C58.5369 35.07 57.8649 34.9113 57.2863 34.594C56.7076 34.2673 56.2549 33.824 55.9283 33.264C55.6016 32.6947 55.4383 32.046 55.4383 31.318C55.4383 30.59 55.5923 29.946 55.9003 29.386C56.2176 28.826 56.6469 28.3873 57.1883 28.07C57.7389 27.7433 58.3549 27.58 59.0363 27.58C59.7269 27.58 60.3383 27.7387 60.8703 28.056C61.4116 28.364 61.8363 28.8027 62.1443 29.372C62.4523 29.932 62.6063 30.5807 62.6063 31.318C62.6063 31.3647 62.6016 31.416 62.5923 31.472C62.5923 31.5187 62.5923 31.57 62.5923 31.626H56.1943V30.884H62.0603L61.6683 31.178C61.6683 30.646 61.5516 30.1747 61.3183 29.764C61.0943 29.344 60.7863 29.0173 60.3943 28.784C60.0023 28.5507 59.5496 28.434 59.0363 28.434C58.5323 28.434 58.0796 28.5507 57.6783 28.784C57.2769 29.0173 56.9643 29.344 56.7403 29.764C56.5163 30.184 56.4043 30.6647 56.4043 31.206V31.36C56.4043 31.92 56.5256 32.4147 56.7683 32.844C57.0203 33.264 57.3656 33.5953 57.8043 33.838C58.2523 34.0713 58.7609 34.188 59.3303 34.188C59.7783 34.188 60.1936 34.1087 60.5763 33.95C60.9683 33.7913 61.3043 33.5487 61.5843 33.222L62.1443 33.866C61.8176 34.258 61.4069 34.5567 60.9123 34.762C60.4269 34.9673 59.8903 35.07 59.3023 35.07ZM68.6006 35.07C67.9659 35.07 67.3919 34.9253 66.8786 34.636C66.3652 34.3373 65.9546 33.9127 65.6466 33.362C65.3479 32.802 65.1986 32.1207 65.1986 31.318C65.1986 30.5153 65.3479 29.8387 65.6466 29.288C65.9452 28.728 66.3512 28.3033 66.8646 28.014C67.3779 27.7247 67.9566 27.58 68.6006 27.58C69.3006 27.58 69.9259 27.7387 70.4766 28.056C71.0366 28.364 71.4752 28.8027 71.7926 29.372C72.1099 29.932 72.2686 30.5807 72.2686 31.318C72.2686 32.0647 72.1099 32.718 71.7926 33.278C71.4752 33.838 71.0366 34.2767 70.4766 34.594C69.9259 34.9113 69.3006 35.07 68.6006 35.07ZM64.8066 37.716V27.65H65.7586V29.862L65.6606 31.332L65.8006 32.816V37.716H64.8066ZM68.5306 34.188C69.0532 34.188 69.5199 34.0713 69.9306 33.838C70.3412 33.5953 70.6679 33.2593 70.9106 32.83C71.1532 32.3913 71.2746 31.8873 71.2746 31.318C71.2746 30.7487 71.1532 30.2493 70.9106 29.82C70.6679 29.3907 70.3412 29.0547 69.9306 28.812C69.5199 28.5693 69.0532 28.448 68.5306 28.448C68.0079 28.448 67.5366 28.5693 67.1166 28.812C66.7059 29.0547 66.3792 29.3907 66.1366 29.82C65.9032 30.2493 65.7866 30.7487 65.7866 31.318C65.7866 31.8873 65.9032 32.3913 66.1366 32.83C66.3792 33.2593 66.7059 33.5953 67.1166 33.838C67.5366 34.0713 68.0079 34.188 68.5306 34.188ZM74.4042 35V27.65H75.3982V33.488L80.3122 27.65H81.1942V35H80.2002V29.148L75.3002 35H74.4042ZM85.4429 35V28.252L85.6949 28.518H82.6569V27.65H89.2229V28.518H86.1849L86.4369 28.252V35H85.4429ZM93.4683 35.07C92.703 35.07 92.031 34.9113 91.4523 34.594C90.8736 34.2673 90.421 33.824 90.0943 33.264C89.7676 32.6947 89.6043 32.046 89.6043 31.318C89.6043 30.59 89.7583 29.946 90.0663 29.386C90.3836 28.826 90.813 28.3873 91.3543 28.07C91.905 27.7433 92.521 27.58 93.2023 27.58C93.893 27.58 94.5043 27.7387 95.0363 28.056C95.5776 28.364 96.0023 28.8027 96.3103 29.372C96.6183 29.932 96.7723 30.5807 96.7723 31.318C96.7723 31.3647 96.7676 31.416 96.7583 31.472C96.7583 31.5187 96.7583 31.57 96.7583 31.626H90.3603V30.884H96.2263L95.8343 31.178C95.8343 30.646 95.7176 30.1747 95.4843 29.764C95.2603 29.344 94.9523 29.0173 94.5603 28.784C94.1683 28.5507 93.7156 28.434 93.2023 28.434C92.6983 28.434 92.2456 28.5507 91.8443 28.784C91.443 29.0173 91.1303 29.344 90.9063 29.764C90.6823 30.184 90.5703 30.6647 90.5703 31.206V31.36C90.5703 31.92 90.6916 32.4147 90.9343 32.844C91.1863 33.264 91.5316 33.5953 91.9703 33.838C92.4183 34.0713 92.927 34.188 93.4963 34.188C93.9443 34.188 94.3596 34.1087 94.7423 33.95C95.1343 33.7913 95.4703 33.5487 95.7503 33.222L96.3103 33.866C95.9836 34.258 95.573 34.5567 95.0783 34.762C94.593 34.9673 94.0563 35.07 93.4683 35.07ZM101.293 34.986L101.363 34.132C101.428 34.1413 101.489 34.1553 101.545 34.174C101.61 34.1833 101.666 34.188 101.713 34.188C102.011 34.188 102.249 34.076 102.427 33.852C102.613 33.628 102.753 33.3293 102.847 32.956C102.94 32.5827 103.005 32.1627 103.043 31.696C103.08 31.22 103.113 30.744 103.141 30.268L103.267 27.65H108.657V35H107.663V28.224L107.915 28.518H103.911L104.149 28.21L104.037 30.338C104.009 30.9727 103.957 31.5793 103.883 32.158C103.817 32.7367 103.71 33.2453 103.561 33.684C103.421 34.1227 103.225 34.468 102.973 34.72C102.721 34.9627 102.399 35.084 102.007 35.084C101.895 35.084 101.778 35.0747 101.657 35.056C101.545 35.0373 101.423 35.014 101.293 34.986ZM111.608 37.786C111.263 37.786 110.932 37.73 110.614 37.618C110.306 37.506 110.04 37.338 109.816 37.114L110.278 36.372C110.465 36.5493 110.666 36.6847 110.88 36.778C111.104 36.8807 111.352 36.932 111.622 36.932C111.949 36.932 112.229 36.8387 112.462 36.652C112.705 36.4747 112.934 36.1573 113.148 35.7L113.624 34.622L113.736 34.468L116.76 27.65H117.74L114.058 35.882C113.853 36.358 113.624 36.736 113.372 37.016C113.13 37.296 112.864 37.492 112.574 37.604C112.285 37.7253 111.963 37.786 111.608 37.786ZM113.568 35.21L110.18 27.65H111.216L114.212 34.398L113.568 35.21ZM123.937 31.892C123.508 32.0787 123.074 32.228 122.635 32.34C122.206 32.4427 121.776 32.494 121.347 32.494C120.479 32.494 119.793 32.298 119.289 31.906C118.785 31.5047 118.533 30.8887 118.533 30.058V27.65H119.513V30.002C119.513 30.562 119.695 30.982 120.059 31.262C120.423 31.542 120.913 31.682 121.529 31.682C121.902 31.682 122.294 31.6353 122.705 31.542C123.116 31.4393 123.531 31.2947 123.951 31.108L123.937 31.892ZM123.853 35V27.65H124.847V35H123.853ZM132.5 34.132L132.276 34.398V27.65H133.27V34.398L133.004 34.132H137.106L136.84 34.398V27.65H137.834V35H127.67V27.65H128.664V34.398L128.412 34.132H132.5ZM140.784 37.786C140.439 37.786 140.107 37.73 139.79 37.618C139.482 37.506 139.216 37.338 138.992 37.114L139.454 36.372C139.641 36.5493 139.841 36.6847 140.056 36.778C140.28 36.8807 140.527 36.932 140.798 36.932C141.125 36.932 141.405 36.8387 141.638 36.652C141.881 36.4747 142.109 36.1573 142.324 35.7L142.8 34.622L142.912 34.468L145.936 27.65H146.916L143.234 35.882C143.029 36.358 142.8 36.736 142.548 37.016C142.305 37.296 142.039 37.492 141.75 37.604C141.461 37.7253 141.139 37.786 140.784 37.786ZM142.744 35.21L139.356 27.65H140.392L143.388 34.398L142.744 35.21ZM148.465 35V27.65H149.459V30.814H151.699V31.724H149.459V35H148.465ZM154.793 35.07C154.093 35.07 153.463 34.9113 152.903 34.594C152.352 34.2673 151.918 33.824 151.601 33.264C151.283 32.6947 151.125 32.046 151.125 31.318C151.125 30.5807 151.283 29.932 151.601 29.372C151.918 28.812 152.352 28.3733 152.903 28.056C153.463 27.7387 154.093 27.58 154.793 27.58C155.493 27.58 156.118 27.7387 156.669 28.056C157.219 28.3733 157.653 28.812 157.971 29.372C158.288 29.932 158.447 30.5807 158.447 31.318C158.447 32.046 158.288 32.6947 157.971 33.264C157.653 33.824 157.219 34.2673 156.669 34.594C156.118 34.9113 155.493 35.07 154.793 35.07ZM154.793 34.202C155.306 34.202 155.763 34.0807 156.165 33.838C156.566 33.5953 156.883 33.2593 157.117 32.83C157.35 32.3913 157.467 31.8873 157.467 31.318C157.467 30.7393 157.35 30.2353 157.117 29.806C156.883 29.3767 156.566 29.0453 156.165 28.812C155.763 28.5693 155.306 28.448 154.793 28.448C154.289 28.448 153.831 28.5693 153.421 28.812C153.019 29.0453 152.702 29.3767 152.469 29.806C152.235 30.2353 152.119 30.7393 152.119 31.318C152.119 31.8873 152.235 32.3913 152.469 32.83C152.702 33.2593 153.019 33.5953 153.421 33.838C153.831 34.0807 154.289 34.202 154.793 34.202ZM164.242 35V27.65H165.236V34.132H169.73V27.65H170.724V35H164.242ZM170.976 36.778V34.916L171.228 35H169.73V34.132H171.914V36.778H170.976ZM176.962 35.07C176.197 35.07 175.525 34.9113 174.946 34.594C174.368 34.2673 173.915 33.824 173.588 33.264C173.262 32.6947 173.098 32.046 173.098 31.318C173.098 30.59 173.252 29.946 173.56 29.386C173.878 28.826 174.307 28.3873 174.848 28.07C175.399 27.7433 176.015 27.58 176.696 27.58C177.387 27.58 177.998 27.7387 178.53 28.056C179.072 28.364 179.496 28.8027 179.804 29.372C180.112 29.932 180.266 30.5807 180.266 31.318C180.266 31.3647 180.262 31.416 180.252 31.472C180.252 31.5187 180.252 31.57 180.252 31.626H173.854V30.884H179.72L179.328 31.178C179.328 30.646 179.212 30.1747 178.978 29.764C178.754 29.344 178.446 29.0173 178.054 28.784C177.662 28.5507 177.21 28.434 176.696 28.434C176.192 28.434 175.74 28.5507 175.338 28.784C174.937 29.0173 174.624 29.344 174.4 29.764C174.176 30.184 174.064 30.6647 174.064 31.206V31.36C174.064 31.92 174.186 32.4147 174.428 32.844C174.68 33.264 175.026 33.5953 175.464 33.838C175.912 34.0713 176.421 34.188 176.99 34.188C177.438 34.188 177.854 34.1087 178.236 33.95C178.628 33.7913 178.964 33.5487 179.244 33.222L179.804 33.866C179.478 34.258 179.067 34.5567 178.572 34.762C178.087 34.9673 177.55 35.07 176.962 35.07ZM182.467 35V27.65H183.461V30.898H188.095V27.65H189.089V35H188.095V31.752H183.461V35H182.467ZM192.04 37.786C191.695 37.786 191.363 37.73 191.046 37.618C190.738 37.506 190.472 37.338 190.248 37.114L190.71 36.372C190.897 36.5493 191.097 36.6847 191.312 36.778C191.536 36.8807 191.783 36.932 192.054 36.932C192.381 36.932 192.661 36.8387 192.894 36.652C193.137 36.4747 193.365 36.1573 193.58 35.7L194.056 34.622L194.168 34.468L197.192 27.65H198.172L194.49 35.882C194.285 36.358 194.056 36.736 193.804 37.016C193.561 37.296 193.295 37.492 193.006 37.604C192.717 37.7253 192.395 37.786 192.04 37.786ZM194 35.21L190.612 27.65H191.648L194.644 34.398L194 35.21Z" fill="#707D89"/>
<path d="M8.00004 64.3334V67L9.66671 68M8.00004 61.3334C4.87043 61.3334 2.33337 63.8704 2.33337 67C2.33337 70.1297 4.87043 72.6667 8.00004 72.6667C11.1297 72.6667 13.6667 70.1297 13.6667 67C13.6667 63.8704 11.1297 61.3334 8.00004 61.3334ZM8.00004 61.3334V59.3334M6.66671 59.3334H9.33337M13.5527 61.7281L12.5527 60.7281L13.0527 61.2281M2.44739 61.7281L3.44739 60.7281L2.94739 61.2281" stroke="#28CB47" stroke-width="1.5" stroke-linecap="round" stroke-linejoin="round"/>
<path d="M27.652 71V61.2H34.82V62.082H28.674V65.288H31.88C33.0373 65.288 33.9147 65.526 34.512 66.002C35.1187 66.4687 35.422 67.1593 35.422 68.074C35.422 69.0167 35.0953 69.74 34.442 70.244C33.798 70.748 32.8693 71 31.656 71H27.652ZM28.674 70.174H31.642C32.5473 70.174 33.2287 70.0013 33.686 69.656C34.1527 69.3013 34.386 68.788 34.386 68.116C34.386 66.7813 33.4713 66.114 31.642 66.114H28.674V70.174ZM40.7222 71.07C39.9569 71.07 39.2849 70.9113 38.7062 70.594C38.1275 70.2673 37.6749 69.824 37.3482 69.264C37.0215 68.6947 36.8582 68.046 36.8582 67.318C36.8582 66.59 37.0122 65.946 37.3202 65.386C37.6375 64.826 38.0669 64.3873 38.6082 64.07C39.1589 63.7433 39.7749 63.58 40.4562 63.58C41.1469 63.58 41.7582 63.7387 42.2902 64.056C42.8315 64.364 43.2562 64.8027 43.5642 65.372C43.8722 65.932 44.0262 66.5807 44.0262 67.318C44.0262 67.3647 44.0215 67.416 44.0122 67.472C44.0122 67.5187 44.0122 67.57 44.0122 67.626H37.6142V66.884H43.4802L43.0882 67.178C43.0882 66.646 42.9715 66.1747 42.7382 65.764C42.5142 65.344 42.2062 65.0173 41.8142 64.784C41.4222 64.5507 40.9695 64.434 40.4562 64.434C39.9522 64.434 39.4995 64.5507 39.0982 64.784C38.6969 65.0173 38.3842 65.344 38.1602 65.764C37.9362 66.184 37.8242 66.6647 37.8242 67.206V67.36C37.8242 67.92 37.9455 68.4147 38.1882 68.844C38.4402 69.264 38.7855 69.5953 39.2242 69.838C39.6722 70.0713 40.1809 70.188 40.7502 70.188C41.1982 70.188 41.6135 70.1087 41.9962 69.95C42.3882 69.7913 42.7242 69.5487 43.0042 69.222L43.5642 69.866C43.2375 70.258 42.8269 70.5567 42.3322 70.762C41.8469 70.9673 41.3102 71.07 40.7222 71.07ZM49.3065 71.07C48.5785 71.07 47.9252 70.9113 47.3465 70.594C46.7772 70.2673 46.3292 69.824 46.0025 69.264C45.6758 68.6947 45.5125 68.046 45.5125 67.318C45.5125 66.5807 45.6758 65.932 46.0025 65.372C46.3292 64.812 46.7772 64.3733 47.3465 64.056C47.9252 63.7387 48.5785 63.58 49.3065 63.58C49.9318 63.58 50.4965 63.7013 51.0005 63.944C51.5045 64.1867 51.9012 64.5507 52.1905 65.036L51.4485 65.54C51.1965 65.1667 50.8838 64.8913 50.5105 64.714C50.1372 64.5367 49.7312 64.448 49.2925 64.448C48.7698 64.448 48.2985 64.5693 47.8785 64.812C47.4585 65.0453 47.1272 65.3767 46.8845 65.806C46.6418 66.2353 46.5205 66.7393 46.5205 67.318C46.5205 67.8967 46.6418 68.4007 46.8845 68.83C47.1272 69.2593 47.4585 69.5953 47.8785 69.838C48.2985 70.0713 48.7698 70.188 49.2925 70.188C49.7312 70.188 50.1372 70.0993 50.5105 69.922C50.8838 69.7447 51.1965 69.474 51.4485 69.11L52.1905 69.614C51.9012 70.09 51.5045 70.454 51.0005 70.706C50.4965 70.9487 49.9318 71.07 49.3065 71.07ZM54.1152 71V63.65H60.7232V71H59.7292V64.252L59.9812 64.518H54.8572L55.1092 64.252V71H54.1152ZM62.2048 70.986L62.2748 70.132C62.3401 70.1413 62.4008 70.1553 62.4568 70.174C62.5221 70.1833 62.5781 70.188 62.6248 70.188C62.9234 70.188 63.1614 70.076 63.3388 69.852C63.5254 69.628 63.6654 69.3293 63.7588 68.956C63.8521 68.5827 63.9174 68.1627 63.9548 67.696C63.9921 67.22 64.0248 66.744 64.0528 66.268L64.1788 63.65H69.5688V71H68.5748V64.224L68.8268 64.518H64.8228L65.0608 64.21L64.9488 66.338C64.9208 66.9727 64.8694 67.5793 64.7948 68.158C64.7294 68.7367 64.6221 69.2453 64.4728 69.684C64.3328 70.1227 64.1368 70.468 63.8848 70.72C63.6328 70.9627 63.3108 71.084 62.9188 71.084C62.8068 71.084 62.6901 71.0747 62.5688 71.056C62.4568 71.0373 62.3354 71.014 62.2048 70.986ZM76.9585 71V69.376L76.9165 69.11V66.394C76.9165 65.7687 76.7391 65.288 76.3845 64.952C76.0391 64.616 75.5211 64.448 74.8305 64.448C74.3545 64.448 73.9018 64.5273 73.4725 64.686C73.0431 64.8447 72.6791 65.0547 72.3805 65.316L71.9325 64.574C72.3058 64.2567 72.7538 64.014 73.2765 63.846C73.7991 63.6687 74.3498 63.58 74.9285 63.58C75.8805 63.58 76.6131 63.818 77.1265 64.294C77.6491 64.7607 77.9105 65.4747 77.9105 66.436V71H76.9585ZM74.4245 71.07C73.8738 71.07 73.3931 70.9813 72.9825 70.804C72.5811 70.6173 72.2731 70.3653 72.0585 70.048C71.8438 69.7213 71.7365 69.348 71.7365 68.928C71.7365 68.5453 71.8251 68.2 72.0025 67.892C72.1891 67.5747 72.4878 67.3227 72.8985 67.136C73.3185 66.94 73.8785 66.842 74.5785 66.842H77.1125V67.584H74.6065C73.8971 67.584 73.4025 67.71 73.1225 67.962C72.8518 68.214 72.7165 68.5267 72.7165 68.9C72.7165 69.32 72.8798 69.656 73.2065 69.908C73.5331 70.16 73.9905 70.286 74.5785 70.286C75.1385 70.286 75.6191 70.16 76.0205 69.908C76.4311 69.6467 76.7298 69.2733 76.9165 68.788L77.1405 69.474C76.9538 69.9593 76.6271 70.3467 76.1605 70.636C75.7031 70.9253 75.1245 71.07 74.4245 71.07ZM81.9566 71V64.252L82.2086 64.518H79.1706V63.65H85.7366V64.518H82.6986L82.9506 64.252V71H81.9566ZM87.1738 71V63.65H88.1678V66.898H92.8018V63.65H93.7958V71H92.8018V67.752H88.1678V71H87.1738ZM101.185 71V69.376L101.143 69.11V66.394C101.143 65.7687 100.966 65.288 100.611 64.952C100.266 64.616 99.7477 64.448 99.057 64.448C98.581 64.448 98.1284 64.5273 97.699 64.686C97.2697 64.8447 96.9057 65.0547 96.607 65.316L96.159 64.574C96.5324 64.2567 96.9804 64.014 97.503 63.846C98.0257 63.6687 98.5764 63.58 99.155 63.58C100.107 63.58 100.84 63.818 101.353 64.294C101.876 64.7607 102.137 65.4747 102.137 66.436V71H101.185ZM98.651 71.07C98.1004 71.07 97.6197 70.9813 97.209 70.804C96.8077 70.6173 96.4997 70.3653 96.285 70.048C96.0704 69.7213 95.963 69.348 95.963 68.928C95.963 68.5453 96.0517 68.2 96.229 67.892C96.4157 67.5747 96.7144 67.3227 97.125 67.136C97.545 66.94 98.105 66.842 98.805 66.842H101.339V67.584H98.833C98.1237 67.584 97.629 67.71 97.349 67.962C97.0784 68.214 96.943 68.5267 96.943 68.9C96.943 69.32 97.1064 69.656 97.433 69.908C97.7597 70.16 98.217 70.286 98.805 70.286C99.365 70.286 99.8457 70.16 100.247 69.908C100.658 69.6467 100.956 69.2733 101.143 68.788L101.367 69.474C101.18 69.9593 100.854 70.3467 100.387 70.636C99.9297 70.9253 99.351 71.07 98.651 71.07ZM109.529 71V68.354L109.711 68.564H107.219C106.276 68.564 105.539 68.3587 105.007 67.948C104.475 67.5373 104.209 66.94 104.209 66.156C104.209 65.316 104.494 64.6907 105.063 64.28C105.632 63.86 106.393 63.65 107.345 63.65H110.439V71H109.529ZM104.153 71L106.169 68.172H107.205L105.231 71H104.153ZM109.529 68.06V64.224L109.711 64.518H107.373C106.692 64.518 106.16 64.6487 105.777 64.91C105.404 65.1713 105.217 65.596 105.217 66.184C105.217 67.276 105.912 67.822 107.303 67.822H109.711L109.529 68.06ZM121.977 70.524V64.518H118.435L118.351 66.156C118.333 66.6507 118.3 67.136 118.253 67.612C118.216 68.088 118.146 68.5267 118.043 68.928C117.95 69.32 117.815 69.642 117.637 69.894C117.46 70.1367 117.231 70.2767 116.951 70.314L115.957 70.132C116.247 70.1413 116.485 70.0387 116.671 69.824C116.858 69.6 117.003 69.2967 117.105 68.914C117.208 68.5313 117.283 68.0973 117.329 67.612C117.376 67.1173 117.413 66.6133 117.441 66.1L117.539 63.65H122.971V70.524H121.977ZM115.649 72.778V70.132H124.119V72.778H123.181V71H116.587V72.778H115.649ZM129.081 71.07C128.371 71.07 127.732 70.9113 127.163 70.594C126.603 70.2673 126.159 69.824 125.833 69.264C125.506 68.6947 125.343 68.046 125.343 67.318C125.343 66.5807 125.506 65.932 125.833 65.372C126.159 64.812 126.603 64.3733 127.163 64.056C127.723 63.7387 128.362 63.58 129.081 63.58C129.809 63.58 130.453 63.7387 131.013 64.056C131.582 64.3733 132.025 64.812 132.343 65.372C132.669 65.932 132.833 66.5807 132.833 67.318C132.833 68.046 132.669 68.6947 132.343 69.264C132.025 69.824 131.582 70.2673 131.013 70.594C130.443 70.9113 129.799 71.07 129.081 71.07ZM129.081 70.188C129.613 70.188 130.084 70.0713 130.495 69.838C130.905 69.5953 131.227 69.2593 131.461 68.83C131.703 68.3913 131.825 67.8873 131.825 67.318C131.825 66.7393 131.703 66.2353 131.461 65.806C131.227 65.3767 130.905 65.0453 130.495 64.812C130.084 64.5693 129.617 64.448 129.095 64.448C128.572 64.448 128.105 64.5693 127.695 64.812C127.284 65.0453 126.957 65.3767 126.715 65.806C126.472 66.2353 126.351 66.7393 126.351 67.318C126.351 67.8873 126.472 68.3913 126.715 68.83C126.957 69.2593 127.284 69.5953 127.695 69.838C128.105 70.0713 128.567 70.188 129.081 70.188ZM138.037 71.07C137.309 71.07 136.656 70.9113 136.077 70.594C135.508 70.2673 135.06 69.824 134.733 69.264C134.406 68.6947 134.243 68.046 134.243 67.318C134.243 66.5807 134.406 65.932 134.733 65.372C135.06 64.812 135.508 64.3733 136.077 64.056C136.656 63.7387 137.309 63.58 138.037 63.58C138.662 63.58 139.227 63.7013 139.731 63.944C140.235 64.1867 140.632 64.5507 140.921 65.036L140.179 65.54C139.927 65.1667 139.614 64.8913 139.241 64.714C138.868 64.5367 138.462 64.448 138.023 64.448C137.5 64.448 137.029 64.5693 136.609 64.812C136.189 65.0453 135.858 65.3767 135.615 65.806C135.372 66.2353 135.251 66.7393 135.251 67.318C135.251 67.8967 135.372 68.4007 135.615 68.83C135.858 69.2593 136.189 69.5953 136.609 69.838C137.029 70.0713 137.5 70.188 138.023 70.188C138.462 70.188 138.868 70.0993 139.241 69.922C139.614 69.7447 139.927 69.474 140.179 69.11L140.921 69.614C140.632 70.09 140.235 70.454 139.731 70.706C139.227 70.9487 138.662 71.07 138.037 71.07ZM144.109 71V64.252L144.361 64.518H141.323V63.65H147.889V64.518H144.851L145.103 64.252V71H144.109ZM153.89 71V69.376L153.848 69.11V66.394C153.848 65.7687 153.671 65.288 153.316 64.952C152.971 64.616 152.453 64.448 151.762 64.448C151.286 64.448 150.833 64.5273 150.404 64.686C149.975 64.8447 149.611 65.0547 149.312 65.316L148.864 64.574C149.237 64.2567 149.685 64.014 150.208 63.846C150.731 63.6687 151.281 63.58 151.86 63.58C152.812 63.58 153.545 63.818 154.058 64.294C154.581 64.7607 154.842 65.4747 154.842 66.436V71H153.89ZM151.356 71.07C150.805 71.07 150.325 70.9813 149.914 70.804C149.513 70.6173 149.205 70.3653 148.99 70.048C148.775 69.7213 148.668 69.348 148.668 68.928C148.668 68.5453 148.757 68.2 148.934 67.892C149.121 67.5747 149.419 67.3227 149.83 67.136C150.25 66.94 150.81 66.842 151.51 66.842H154.044V67.584H151.538C150.829 67.584 150.334 67.71 150.054 67.962C149.783 68.214 149.648 68.5267 149.648 68.9C149.648 69.32 149.811 69.656 150.138 69.908C150.465 70.16 150.922 70.286 151.51 70.286C152.07 70.286 152.551 70.16 152.952 69.908C153.363 69.6467 153.661 69.2733 153.848 68.788L154.072 69.474C153.885 69.9593 153.559 70.3467 153.092 70.636C152.635 70.9253 152.056 71.07 151.356 71.07ZM157.488 71V63.65H160.736C161.567 63.65 162.22 63.8087 162.696 64.126C163.182 64.4433 163.424 64.91 163.424 65.526C163.424 66.1233 163.196 66.5853 162.738 66.912C162.281 67.2293 161.679 67.388 160.932 67.388L161.128 67.094C162.006 67.094 162.65 67.2573 163.06 67.584C163.471 67.9107 163.676 68.382 163.676 68.998C163.676 69.6327 163.443 70.1273 162.976 70.482C162.519 70.8273 161.805 71 160.834 71H157.488ZM158.454 70.216H160.792C161.418 70.216 161.889 70.118 162.206 69.922C162.533 69.7167 162.696 69.39 162.696 68.942C162.696 68.494 162.552 68.1673 162.262 67.962C161.973 67.7567 161.516 67.654 160.89 67.654H158.454V70.216ZM158.454 66.912H160.666C161.236 66.912 161.67 66.8047 161.968 66.59C162.276 66.3753 162.43 66.0627 162.43 65.652C162.43 65.2413 162.276 64.9333 161.968 64.728C161.67 64.5227 161.236 64.42 160.666 64.42H158.454V66.912ZM171.396 71L168.372 67.36L169.198 66.87L172.572 71H171.396ZM166.006 71V63.65H167V71H166.006ZM166.692 67.724V66.87H169.058V67.724H166.692ZM169.282 67.43L168.358 67.29L171.284 63.65H172.362L169.282 67.43ZM178.568 71V69.376L178.526 69.11V66.394C178.526 65.7687 178.349 65.288 177.994 64.952C177.649 64.616 177.131 64.448 176.44 64.448C175.964 64.448 175.511 64.5273 175.082 64.686C174.653 64.8447 174.289 65.0547 173.99 65.316L173.542 64.574C173.915 64.2567 174.363 64.014 174.886 63.846C175.409 63.6687 175.959 63.58 176.538 63.58C177.49 63.58 178.223 63.818 178.736 64.294C179.259 64.7607 179.52 65.4747 179.52 66.436V71H178.568ZM176.034 71.07C175.483 71.07 175.003 70.9813 174.592 70.804C174.191 70.6173 173.883 70.3653 173.668 70.048C173.453 69.7213 173.346 69.348 173.346 68.928C173.346 68.5453 173.435 68.2 173.612 67.892C173.799 67.5747 174.097 67.3227 174.508 67.136C174.928 66.94 175.488 66.842 176.188 66.842H178.722V67.584H176.216C175.507 67.584 175.012 67.71 174.732 67.962C174.461 68.214 174.326 68.5267 174.326 68.9C174.326 69.32 174.489 69.656 174.816 69.908C175.143 70.16 175.6 70.286 176.188 70.286C176.748 70.286 177.229 70.16 177.63 69.908C178.041 69.6467 178.339 69.2733 178.526 68.788L178.75 69.474C178.563 69.9593 178.237 70.3467 177.77 70.636C177.313 70.9253 176.734 71.07 176.034 71.07Z" fill="#707D89"/>
<path d="M8.66671 97.3333C8.66671 98.0697 7.02508 98.6667 5.00004 98.6667C2.975 98.6667 1.33337 98.0697 1.33337 97.3333M8.66671 97.3333C8.66671 96.597 7.02508 96 5.00004 96C2.975 96 1.33337 96.597 1.33337 97.3333M8.66671 97.3333V98.3333M1.33337 97.3333V105.333C1.33337 106.07 2.975 106.667 5.00004 106.667M5.00004 101.333C4.88768 101.333 4.77649 101.331 4.66671 101.328C2.79787 101.267 1.33337 100.696 1.33337 100M5.00004 104C2.975 104 1.33337 103.403 1.33337 102.667M14.6667 101.667C14.6667 102.403 13.0251 103 11 103C8.975 103 7.33337 102.403 7.33337 101.667M14.6667 101.667C14.6667 100.93 13.0251 100.333 11 100.333C8.975 100.333 7.33337 100.93 7.33337 101.667M14.6667 101.667V106.667C14.6667 107.403 13.0251 108 11 108C8.975 108 7.33337 107.403 7.33337 106.667V101.667M14.6667 104.167C14.6667 104.903 13.0251 105.5 11 105.5C8.975 105.5 7.33337 104.903 7.33337 104.167" stroke="#28CB47" stroke-width="1.5" stroke-linecap="round" stroke-linejoin="round"/>
<path d="M31.95 107.084C31.2127 107.084 30.5267 106.963 29.892 106.72C29.2667 106.468 28.7207 106.118 28.254 105.67C27.7967 105.213 27.4373 104.685 27.176 104.088C26.924 103.481 26.798 102.819 26.798 102.1C26.798 101.381 26.924 100.723 27.176 100.126C27.4373 99.5193 27.7967 98.992 28.254 98.544C28.7207 98.0867 29.2667 97.7367 29.892 97.494C30.5173 97.242 31.2033 97.116 31.95 97.116C32.6873 97.116 33.3687 97.242 33.994 97.494C34.6193 97.7367 35.1607 98.082 35.618 98.53C36.0847 98.978 36.444 99.5053 36.696 100.112C36.9573 100.719 37.088 101.381 37.088 102.1C37.088 102.819 36.9573 103.481 36.696 104.088C36.444 104.695 36.0847 105.222 35.618 105.67C35.1607 106.118 34.6193 106.468 33.994 106.72C33.3687 106.963 32.6873 107.084 31.95 107.084ZM31.95 106.16C32.538 106.16 33.0793 106.062 33.574 105.866C34.078 105.661 34.512 105.376 34.876 105.012C35.2493 104.639 35.5387 104.209 35.744 103.724C35.9493 103.229 36.052 102.688 36.052 102.1C36.052 101.512 35.9493 100.975 35.744 100.49C35.5387 99.9953 35.2493 99.566 34.876 99.202C34.512 98.8287 34.078 98.544 33.574 98.348C33.0793 98.1427 32.538 98.04 31.95 98.04C31.362 98.04 30.816 98.1427 30.312 98.348C29.808 98.544 29.3693 98.8287 28.996 99.202C28.632 99.566 28.3427 99.9953 28.128 100.49C27.9227 100.975 27.82 101.512 27.82 102.1C27.82 102.679 27.9227 103.215 28.128 103.71C28.3427 104.205 28.632 104.639 28.996 105.012C29.3693 105.376 29.808 105.661 30.312 105.866C30.816 106.062 31.362 106.16 31.95 106.16ZM39.3222 107V99.65H45.9302V107H44.9362V100.252L45.1882 100.518H40.0642L40.3162 100.252V107H39.3222ZM47.4118 106.986L47.4818 106.132C47.5471 106.141 47.6078 106.155 47.6638 106.174C47.7291 106.183 47.7851 106.188 47.8318 106.188C48.1305 106.188 48.3685 106.076 48.5458 105.852C48.7325 105.628 48.8725 105.329 48.9658 104.956C49.0591 104.583 49.1245 104.163 49.1618 103.696C49.1991 103.22 49.2318 102.744 49.2598 102.268L49.3858 99.65H54.7758V107H53.7818V100.224L54.0338 100.518H50.0298L50.2678 100.21L50.1558 102.338C50.1278 102.973 50.0765 103.579 50.0018 104.158C49.9365 104.737 49.8291 105.245 49.6798 105.684C49.5398 106.123 49.3438 106.468 49.0918 106.72C48.8398 106.963 48.5178 107.084 48.1258 107.084C48.0138 107.084 47.8971 107.075 47.7758 107.056C47.6638 107.037 47.5425 107.014 47.4118 106.986ZM62.1655 107V105.376L62.1235 105.11V102.394C62.1235 101.769 61.9462 101.288 61.5915 100.952C61.2462 100.616 60.7282 100.448 60.0375 100.448C59.5615 100.448 59.1088 100.527 58.6795 100.686C58.2502 100.845 57.8862 101.055 57.5875 101.316L57.1395 100.574C57.5128 100.257 57.9608 100.014 58.4835 99.846C59.0062 99.6687 59.5568 99.58 60.1355 99.58C61.0875 99.58 61.8202 99.818 62.3335 100.294C62.8562 100.761 63.1175 101.475 63.1175 102.436V107H62.1655ZM59.6315 107.07C59.0808 107.07 58.6002 106.981 58.1895 106.804C57.7882 106.617 57.4802 106.365 57.2655 106.048C57.0508 105.721 56.9435 105.348 56.9435 104.928C56.9435 104.545 57.0322 104.2 57.2095 103.892C57.3962 103.575 57.6948 103.323 58.1055 103.136C58.5255 102.94 59.0855 102.842 59.7855 102.842H62.3195V103.584H59.8135C59.1042 103.584 58.6095 103.71 58.3295 103.962C58.0588 104.214 57.9235 104.527 57.9235 104.9C57.9235 105.32 58.0868 105.656 58.4135 105.908C58.7402 106.16 59.1975 106.286 59.7855 106.286C60.3455 106.286 60.8262 106.16 61.2275 105.908C61.6382 105.647 61.9368 105.273 62.1235 104.788L62.3475 105.474C62.1608 105.959 61.8342 106.347 61.3675 106.636C60.9102 106.925 60.3315 107.07 59.6315 107.07ZM67.1636 107V100.252L67.4156 100.518H64.3776V99.65H70.9436V100.518H67.9056L68.1576 100.252V107H67.1636ZM76.9448 107V105.376L76.9028 105.11V102.394C76.9028 101.769 76.7255 101.288 76.3708 100.952C76.0255 100.616 75.5075 100.448 74.8168 100.448C74.3408 100.448 73.8881 100.527 73.4588 100.686C73.0295 100.845 72.6655 101.055 72.3668 101.316L71.9188 100.574C72.2921 100.257 72.7401 100.014 73.2628 99.846C73.7855 99.6687 74.3361 99.58 74.9148 99.58C75.8668 99.58 76.5995 99.818 77.1128 100.294C77.6355 100.761 77.8968 101.475 77.8968 102.436V107H76.9448ZM74.4108 107.07C73.8601 107.07 73.3795 106.981 72.9688 106.804C72.5675 106.617 72.2595 106.365 72.0448 106.048C71.8301 105.721 71.7228 105.348 71.7228 104.928C71.7228 104.545 71.8115 104.2 71.9888 103.892C72.1755 103.575 72.4741 103.323 72.8848 103.136C73.3048 102.94 73.8648 102.842 74.5648 102.842H77.0988V103.584H74.5928C73.8835 103.584 73.3888 103.71 73.1088 103.962C72.8381 104.214 72.7028 104.527 72.7028 104.9C72.7028 105.32 72.8661 105.656 73.1928 105.908C73.5195 106.16 73.9768 106.286 74.5648 106.286C75.1248 106.286 75.6055 106.16 76.0068 105.908C76.4175 105.647 76.7161 105.273 76.9028 104.788L77.1268 105.474C76.9401 105.959 76.6135 106.347 76.1468 106.636C75.6895 106.925 75.1108 107.07 74.4108 107.07ZM84.207 107V99.65H90.815V107H89.821V100.252L90.073 100.518H84.949L85.201 100.252V107H84.207ZM97.4346 107.07C96.7999 107.07 96.2259 106.925 95.7126 106.636C95.1992 106.337 94.7886 105.913 94.4806 105.362C94.1819 104.802 94.0326 104.121 94.0326 103.318C94.0326 102.515 94.1819 101.839 94.4806 101.288C94.7792 100.728 95.1852 100.303 95.6986 100.014C96.2119 99.7247 96.7906 99.58 97.4346 99.58C98.1346 99.58 98.7599 99.7387 99.3106 100.056C99.8706 100.364 100.309 100.803 100.627 101.372C100.944 101.932 101.103 102.581 101.103 103.318C101.103 104.065 100.944 104.718 100.627 105.278C100.309 105.838 99.8706 106.277 99.3106 106.594C98.7599 106.911 98.1346 107.07 97.4346 107.07ZM93.6406 109.716V99.65H94.5926V101.862L94.4946 103.332L94.6346 104.816V109.716H93.6406ZM97.3646 106.188C97.8872 106.188 98.3539 106.071 98.7646 105.838C99.1752 105.595 99.5019 105.259 99.7446 104.83C99.9872 104.391 100.109 103.887 100.109 103.318C100.109 102.749 99.9872 102.249 99.7446 101.82C99.5019 101.391 99.1752 101.055 98.7646 100.812C98.3539 100.569 97.8872 100.448 97.3646 100.448C96.8419 100.448 96.3706 100.569 95.9506 100.812C95.5399 101.055 95.2132 101.391 94.9706 101.82C94.7372 102.249 94.6206 102.749 94.6206 103.318C94.6206 103.887 94.7372 104.391 94.9706 104.83C95.2132 105.259 95.5399 105.595 95.9506 105.838C96.3706 106.071 96.8419 106.188 97.3646 106.188ZM103.238 107V99.65H104.232V105.488L109.146 99.65H110.028V107H109.034V101.148L104.134 107H103.238ZM116.541 107V99.65H123.149V107H122.155V100.252L122.407 100.518H117.283L117.535 100.252V107H116.541ZM128.999 107.07C128.289 107.07 127.65 106.911 127.081 106.594C126.521 106.267 126.077 105.824 125.751 105.264C125.424 104.695 125.261 104.046 125.261 103.318C125.261 102.581 125.424 101.932 125.751 101.372C126.077 100.812 126.521 100.373 127.081 100.056C127.641 99.7387 128.28 99.58 128.999 99.58C129.727 99.58 130.371 99.7387 130.931 100.056C131.5 100.373 131.943 100.812 132.261 101.372C132.587 101.932 132.751 102.581 132.751 103.318C132.751 104.046 132.587 104.695 132.261 105.264C131.943 105.824 131.5 106.267 130.931 106.594C130.361 106.911 129.717 107.07 128.999 107.07ZM128.999 106.188C129.531 106.188 130.002 106.071 130.413 105.838C130.823 105.595 131.145 105.259 131.379 104.83C131.621 104.391 131.743 103.887 131.743 103.318C131.743 102.739 131.621 102.235 131.379 101.806C131.145 101.377 130.823 101.045 130.413 100.812C130.002 100.569 129.535 100.448 129.013 100.448C128.49 100.448 128.023 100.569 127.613 100.812C127.202 101.045 126.875 101.377 126.633 101.806C126.39 102.235 126.269 102.739 126.269 103.318C126.269 103.887 126.39 104.391 126.633 104.83C126.875 105.259 127.202 105.595 127.613 105.838C128.023 106.071 128.485 106.188 128.999 106.188ZM133.49 106.986L133.56 106.132C133.625 106.141 133.686 106.155 133.742 106.174C133.807 106.183 133.863 106.188 133.91 106.188C134.209 106.188 134.447 106.076 134.624 105.852C134.811 105.628 134.951 105.329 135.044 104.956C135.137 104.583 135.203 104.163 135.24 103.696C135.277 103.22 135.31 102.744 135.338 102.268L135.464 99.65H140.854V107H139.86V100.224L140.112 100.518H136.108L136.346 100.21L136.234 102.338C136.206 102.973 136.155 103.579 136.08 104.158C136.015 104.737 135.907 105.245 135.758 105.684C135.618 106.123 135.422 106.468 135.17 106.72C134.918 106.963 134.596 107.084 134.204 107.084C134.092 107.084 133.975 107.075 133.854 107.056C133.742 107.037 133.621 107.014 133.49 106.986ZM143.806 109.786C143.46 109.786 143.129 109.73 142.812 109.618C142.504 109.506 142.238 109.338 142.014 109.114L142.476 108.372C142.662 108.549 142.863 108.685 143.078 108.778C143.302 108.881 143.549 108.932 143.82 108.932C144.146 108.932 144.426 108.839 144.66 108.652C144.902 108.475 145.131 108.157 145.346 107.7L145.822 106.622L145.934 106.468L148.958 99.65H149.938L146.256 107.882C146.05 108.358 145.822 108.736 145.57 109.016C145.327 109.296 145.061 109.492 144.772 109.604C144.482 109.725 144.16 109.786 143.806 109.786ZM145.766 107.21L142.378 99.65H143.414L146.41 106.398L145.766 107.21ZM156.134 103.892C155.705 104.079 155.271 104.228 154.832 104.34C154.403 104.443 153.974 104.494 153.544 104.494C152.676 104.494 151.99 104.298 151.486 103.906C150.982 103.505 150.73 102.889 150.73 102.058V99.65H151.71V102.002C151.71 102.562 151.892 102.982 152.256 103.262C152.62 103.542 153.11 103.682 153.726 103.682C154.1 103.682 154.492 103.635 154.902 103.542C155.313 103.439 155.728 103.295 156.148 103.108L156.134 103.892ZM156.05 107V99.65H157.044V107H156.05ZM163.017 107.07C162.252 107.07 161.58 106.911 161.001 106.594C160.422 106.267 159.97 105.824 159.643 105.264C159.316 104.695 159.153 104.046 159.153 103.318C159.153 102.59 159.307 101.946 159.615 101.386C159.932 100.826 160.362 100.387 160.903 100.07C161.454 99.7433 162.07 99.58 162.751 99.58C163.442 99.58 164.053 99.7387 164.585 100.056C165.126 100.364 165.551 100.803 165.859 101.372C166.167 101.932 166.321 102.581 166.321 103.318C166.321 103.365 166.316 103.416 166.307 103.472C166.307 103.519 166.307 103.57 166.307 103.626H159.909V102.884H165.775L165.383 103.178C165.383 102.646 165.266 102.175 165.033 101.764C164.809 101.344 164.501 101.017 164.109 100.784C163.717 100.551 163.264 100.434 162.751 100.434C162.247 100.434 161.794 100.551 161.393 100.784C160.992 101.017 160.679 101.344 160.455 101.764C160.231 102.184 160.119 102.665 160.119 103.206V103.36C160.119 103.92 160.24 104.415 160.483 104.844C160.735 105.264 161.08 105.595 161.519 105.838C161.967 106.071 162.476 106.188 163.045 106.188C163.493 106.188 163.908 106.109 164.291 105.95C164.683 105.791 165.019 105.549 165.299 105.222L165.859 105.866C165.532 106.258 165.122 106.557 164.627 106.762C164.142 106.967 163.605 107.07 163.017 107.07ZM168.521 107V99.65H169.515V102.898H174.149V99.65H175.143V107H174.149V103.752H169.515V107H168.521ZM177.969 107V99.65H178.963V105.488L183.877 99.65H184.759V107H183.765V101.148L178.865 107H177.969ZM187.607 107V99.65H188.601V105.488L193.515 99.65H194.397V107H193.403V101.148L188.503 107H187.607Z" fill="#707D89"/>
<path d="M8.00004 136.333V139L9.66671 140M8.00004 133.333C4.87043 133.333 2.33337 135.87 2.33337 139C2.33337 142.13 4.87043 144.667 8.00004 144.667C11.1297 144.667 13.6667 142.13 13.6667 139C13.6667 135.87 11.1297 133.333 8.00004 133.333ZM8.00004 133.333V131.333M6.66671 131.333H9.33337M13.5527 133.728L12.5527 132.728L13.0527 133.228M2.44739 133.728L3.44739 132.728L2.94739 133.228" stroke="#28CB47" stroke-width="1.5" stroke-linecap="round" stroke-linejoin="round"/>
<path d="M27.652 143V133.2H34.82V134.082H28.674V137.288H31.88C33.0373 137.288 33.9147 137.526 34.512 138.002C35.1187 138.469 35.422 139.159 35.422 140.074C35.422 141.017 35.0953 141.74 34.442 142.244C33.798 142.748 32.8693 143 31.656 143H27.652ZM28.674 142.174H31.642C32.5473 142.174 33.2287 142.001 33.686 141.656C34.1527 141.301 34.386 140.788 34.386 140.116C34.386 138.781 33.4713 138.114 31.642 138.114H28.674V142.174ZM44.7402 143V135.65H45.7342V143H44.7402ZM40.6662 138.24C41.5902 138.249 42.2949 138.455 42.7802 138.856C43.2655 139.257 43.5082 139.836 43.5082 140.592C43.5082 141.376 43.2469 141.978 42.7242 142.398C42.2015 142.818 41.4549 143.023 40.4842 143.014L37.5722 143V135.65H38.5662V138.212L40.6662 138.24ZM40.4142 142.258C41.1049 142.267 41.6229 142.132 41.9682 141.852C42.3229 141.563 42.5002 141.143 42.5002 140.592C42.5002 140.041 42.3275 139.64 41.9822 139.388C41.6369 139.127 41.1142 138.991 40.4142 138.982L38.5662 138.954V142.23L40.4142 142.258ZM51.6444 143.07C50.9164 143.07 50.2631 142.911 49.6844 142.594C49.1151 142.267 48.6671 141.824 48.3404 141.264C48.0137 140.695 47.8504 140.046 47.8504 139.318C47.8504 138.581 48.0137 137.932 48.3404 137.372C48.6671 136.812 49.1151 136.373 49.6844 136.056C50.2631 135.739 50.9164 135.58 51.6444 135.58C52.2697 135.58 52.8344 135.701 53.3384 135.944C53.8424 136.187 54.2391 136.551 54.5284 137.036L53.7864 137.54C53.5344 137.167 53.2217 136.891 52.8484 136.714C52.4751 136.537 52.0691 136.448 51.6304 136.448C51.1077 136.448 50.6364 136.569 50.2164 136.812C49.7964 137.045 49.4651 137.377 49.2224 137.806C48.9797 138.235 48.8584 138.739 48.8584 139.318C48.8584 139.897 48.9797 140.401 49.2224 140.83C49.4651 141.259 49.7964 141.595 50.2164 141.838C50.6364 142.071 51.1077 142.188 51.6304 142.188C52.0691 142.188 52.4751 142.099 52.8484 141.922C53.2217 141.745 53.5344 141.474 53.7864 141.11L54.5284 141.614C54.2391 142.09 53.8424 142.454 53.3384 142.706C52.8344 142.949 52.2697 143.07 51.6444 143.07ZM57.7163 143V136.252L57.9683 136.518H54.9303V135.65H61.4963V136.518H58.4583L58.7103 136.252V143H57.7163ZM66.7275 143.07C66.0929 143.07 65.5189 142.925 65.0055 142.636C64.4922 142.337 64.0815 141.913 63.7735 141.362C63.4749 140.802 63.3255 140.121 63.3255 139.318C63.3255 138.515 63.4749 137.839 63.7735 137.288C64.0722 136.728 64.4782 136.303 64.9915 136.014C65.5049 135.725 66.0835 135.58 66.7275 135.58C67.4275 135.58 68.0529 135.739 68.6035 136.056C69.1635 136.364 69.6022 136.803 69.9195 137.372C70.2369 137.932 70.3955 138.581 70.3955 139.318C70.3955 140.065 70.2369 140.718 69.9195 141.278C69.6022 141.838 69.1635 142.277 68.6035 142.594C68.0529 142.911 67.4275 143.07 66.7275 143.07ZM62.9335 145.716V135.65H63.8855V137.862L63.7875 139.332L63.9275 140.816V145.716H62.9335ZM66.6575 142.188C67.1802 142.188 67.6469 142.071 68.0575 141.838C68.4682 141.595 68.7949 141.259 69.0375 140.83C69.2802 140.391 69.4015 139.887 69.4015 139.318C69.4015 138.749 69.2802 138.249 69.0375 137.82C68.7949 137.391 68.4682 137.055 68.0575 136.812C67.6469 136.569 67.1802 136.448 66.6575 136.448C66.1349 136.448 65.6635 136.569 65.2435 136.812C64.8329 137.055 64.5062 137.391 64.2635 137.82C64.0302 138.249 63.9135 138.749 63.9135 139.318C63.9135 139.887 64.0302 140.391 64.2635 140.83C64.5062 141.259 64.8329 141.595 65.2435 141.838C65.6635 142.071 66.1349 142.188 66.6575 142.188ZM77.0542 143V141.376L77.0122 141.11V138.394C77.0122 137.769 76.8348 137.288 76.4802 136.952C76.1348 136.616 75.6168 136.448 74.9262 136.448C74.4502 136.448 73.9975 136.527 73.5682 136.686C73.1388 136.845 72.7748 137.055 72.4762 137.316L72.0282 136.574C72.4015 136.257 72.8495 136.014 73.3722 135.846C73.8948 135.669 74.4455 135.58 75.0242 135.58C75.9762 135.58 76.7088 135.818 77.2222 136.294C77.7448 136.761 78.0062 137.475 78.0062 138.436V143H77.0542ZM74.5202 143.07C73.9695 143.07 73.4888 142.981 73.0782 142.804C72.6768 142.617 72.3688 142.365 72.1542 142.048C71.9395 141.721 71.8322 141.348 71.8322 140.928C71.8322 140.545 71.9208 140.2 72.0982 139.892C72.2848 139.575 72.5835 139.323 72.9942 139.136C73.4142 138.94 73.9742 138.842 74.6742 138.842H77.2082V139.584H74.7022C73.9928 139.584 73.4982 139.71 73.2182 139.962C72.9475 140.214 72.8122 140.527 72.8122 140.9C72.8122 141.32 72.9755 141.656 73.3022 141.908C73.6288 142.16 74.0862 142.286 74.6742 142.286C75.2342 142.286 75.7148 142.16 76.1162 141.908C76.5268 141.647 76.8255 141.273 77.0122 140.788L77.2362 141.474C77.0495 141.959 76.7228 142.347 76.2562 142.636C75.7988 142.925 75.2202 143.07 74.5202 143.07ZM85.3983 143V140.354L85.5803 140.564H83.0883C82.1456 140.564 81.4083 140.359 80.8763 139.948C80.3443 139.537 80.0783 138.94 80.0783 138.156C80.0783 137.316 80.3629 136.691 80.9323 136.28C81.5016 135.86 82.2623 135.65 83.2143 135.65H86.3083V143H85.3983ZM80.0223 143L82.0383 140.172H83.0743L81.1003 143H80.0223ZM85.3983 140.06V136.224L85.5803 136.518H83.2423C82.5609 136.518 82.0289 136.649 81.6463 136.91C81.2729 137.171 81.0863 137.596 81.0863 138.184C81.0863 139.276 81.7816 139.822 83.1723 139.822H85.5803L85.3983 140.06ZM97.3426 143.084C96.6052 143.084 95.9192 142.963 95.2846 142.72C94.6592 142.468 94.1132 142.118 93.6466 141.67C93.1892 141.213 92.8299 140.685 92.5686 140.088C92.3166 139.481 92.1906 138.819 92.1906 138.1C92.1906 137.381 92.3166 136.723 92.5686 136.126C92.8299 135.519 93.1892 134.992 93.6466 134.544C94.1132 134.087 94.6592 133.737 95.2846 133.494C95.9099 133.242 96.5959 133.116 97.3426 133.116C98.0799 133.116 98.7612 133.242 99.3866 133.494C100.012 133.737 100.553 134.082 101.011 134.53C101.477 134.978 101.837 135.505 102.089 136.112C102.35 136.719 102.481 137.381 102.481 138.1C102.481 138.819 102.35 139.481 102.089 140.088C101.837 140.695 101.477 141.222 101.011 141.67C100.553 142.118 100.012 142.468 99.3866 142.72C98.7612 142.963 98.0799 143.084 97.3426 143.084ZM97.3426 142.16C97.9306 142.16 98.4719 142.062 98.9666 141.866C99.4706 141.661 99.9046 141.376 100.269 141.012C100.642 140.639 100.931 140.209 101.137 139.724C101.342 139.229 101.445 138.688 101.445 138.1C101.445 137.512 101.342 136.975 101.137 136.49C100.931 135.995 100.642 135.566 100.269 135.202C99.9046 134.829 99.4706 134.544 98.9666 134.348C98.4719 134.143 97.9306 134.04 97.3426 134.04C96.7546 134.04 96.2086 134.143 95.7046 134.348C95.2006 134.544 94.7619 134.829 94.3886 135.202C94.0246 135.566 93.7352 135.995 93.5206 136.49C93.3152 136.975 93.2126 137.512 93.2126 138.1C93.2126 138.679 93.3152 139.215 93.5206 139.71C93.7352 140.205 94.0246 140.639 94.3886 141.012C94.7619 141.376 95.2006 141.661 95.7046 141.866C96.2086 142.062 96.7546 142.16 97.3426 142.16ZM105.91 143V136.252L106.162 136.518H103.124V135.65H109.69V136.518H106.652L106.904 136.252V143H105.91ZM111.127 143V135.65H117.735V143H116.741V136.252L116.993 136.518H111.869L112.121 136.252V143H111.127ZM124.354 143.07C123.72 143.07 123.146 142.925 122.632 142.636C122.119 142.337 121.708 141.913 121.4 141.362C121.102 140.802 120.952 140.121 120.952 139.318C120.952 138.515 121.102 137.839 121.4 137.288C121.699 136.728 122.105 136.303 122.618 136.014C123.132 135.725 123.71 135.58 124.354 135.58C125.054 135.58 125.68 135.739 126.23 136.056C126.79 136.364 127.229 136.803 127.546 137.372C127.864 137.932 128.022 138.581 128.022 139.318C128.022 140.065 127.864 140.718 127.546 141.278C127.229 141.838 126.79 142.277 126.23 142.594C125.68 142.911 125.054 143.07 124.354 143.07ZM120.56 145.716V135.65H121.512V137.862L121.414 139.332L121.554 140.816V145.716H120.56ZM124.284 142.188C124.807 142.188 125.274 142.071 125.684 141.838C126.095 141.595 126.422 141.259 126.664 140.83C126.907 140.391 127.028 139.887 127.028 139.318C127.028 138.749 126.907 138.249 126.664 137.82C126.422 137.391 126.095 137.055 125.684 136.812C125.274 136.569 124.807 136.448 124.284 136.448C123.762 136.448 123.29 136.569 122.87 136.812C122.46 137.055 122.133 137.391 121.89 137.82C121.657 138.249 121.54 138.749 121.54 139.318C121.54 139.887 121.657 140.391 121.89 140.83C122.133 141.259 122.46 141.595 122.87 141.838C123.29 142.071 123.762 142.188 124.284 142.188ZM134.681 143V141.376L134.639 141.11V138.394C134.639 137.769 134.462 137.288 134.107 136.952C133.762 136.616 133.244 136.448 132.553 136.448C132.077 136.448 131.624 136.527 131.195 136.686C130.766 136.845 130.402 137.055 130.103 137.316L129.655 136.574C130.028 136.257 130.476 136.014 130.999 135.846C131.522 135.669 132.072 135.58 132.651 135.58C133.603 135.58 134.336 135.818 134.849 136.294C135.372 136.761 135.633 137.475 135.633 138.436V143H134.681ZM132.147 143.07C131.596 143.07 131.116 142.981 130.705 142.804C130.304 142.617 129.996 142.365 129.781 142.048C129.566 141.721 129.459 141.348 129.459 140.928C129.459 140.545 129.548 140.2 129.725 139.892C129.912 139.575 130.21 139.323 130.621 139.136C131.041 138.94 131.601 138.842 132.301 138.842H134.835V139.584H132.329C131.62 139.584 131.125 139.71 130.845 139.962C130.574 140.214 130.439 140.527 130.439 140.9C130.439 141.32 130.602 141.656 130.929 141.908C131.256 142.16 131.713 142.286 132.301 142.286C132.861 142.286 133.342 142.16 133.743 141.908C134.154 141.647 134.452 141.273 134.639 140.788L134.863 141.474C134.676 141.959 134.35 142.347 133.883 142.636C133.426 142.925 132.847 143.07 132.147 143.07ZM138.279 143V135.65H141.527C142.358 135.65 143.011 135.809 143.487 136.126C143.973 136.443 144.215 136.91 144.215 137.526C144.215 138.123 143.987 138.585 143.529 138.912C143.072 139.229 142.47 139.388 141.723 139.388L141.919 139.094C142.797 139.094 143.441 139.257 143.851 139.584C144.262 139.911 144.467 140.382 144.467 140.998C144.467 141.633 144.234 142.127 143.767 142.482C143.31 142.827 142.596 143 141.625 143H138.279ZM139.245 142.216H141.583C142.209 142.216 142.68 142.118 142.997 141.922C143.324 141.717 143.487 141.39 143.487 140.942C143.487 140.494 143.343 140.167 143.053 139.962C142.764 139.757 142.307 139.654 141.681 139.654H139.245V142.216ZM139.245 138.912H141.457C142.027 138.912 142.461 138.805 142.759 138.59C143.067 138.375 143.221 138.063 143.221 137.652C143.221 137.241 143.067 136.933 142.759 136.728C142.461 136.523 142.027 136.42 141.457 136.42H139.245V138.912ZM152.187 143L149.163 139.36L149.989 138.87L153.363 143H152.187ZM146.797 143V135.65H147.791V143H146.797ZM147.483 139.724V138.87H149.849V139.724H147.483ZM150.073 139.43L149.149 139.29L152.075 135.65H153.153L150.073 139.43ZM159.359 143V141.376L159.317 141.11V138.394C159.317 137.769 159.14 137.288 158.785 136.952C158.44 136.616 157.922 136.448 157.231 136.448C156.755 136.448 156.302 136.527 155.873 136.686C155.444 136.845 155.08 137.055 154.781 137.316L154.333 136.574C154.706 136.257 155.154 136.014 155.677 135.846C156.2 135.669 156.75 135.58 157.329 135.58C158.281 135.58 159.014 135.818 159.527 136.294C160.05 136.761 160.311 137.475 160.311 138.436V143H159.359ZM156.825 143.07C156.274 143.07 155.794 142.981 155.383 142.804C154.982 142.617 154.674 142.365 154.459 142.048C154.244 141.721 154.137 141.348 154.137 140.928C154.137 140.545 154.226 140.2 154.403 139.892C154.59 139.575 154.888 139.323 155.299 139.136C155.719 138.94 156.279 138.842 156.979 138.842H159.513V139.584H157.007C156.298 139.584 155.803 139.71 155.523 139.962C155.252 140.214 155.117 140.527 155.117 140.9C155.117 141.32 155.28 141.656 155.607 141.908C155.934 142.16 156.391 142.286 156.979 142.286C157.539 142.286 158.02 142.16 158.421 141.908C158.832 141.647 159.13 141.273 159.317 140.788L159.541 141.474C159.354 141.959 159.028 142.347 158.561 142.636C158.104 142.925 157.525 143.07 156.825 143.07ZM166.621 143V135.65H169.869C170.7 135.65 171.353 135.809 171.829 136.126C172.314 136.443 172.557 136.91 172.557 137.526C172.557 138.123 172.328 138.585 171.871 138.912C171.414 139.229 170.812 139.388 170.065 139.388L170.261 139.094C171.138 139.094 171.782 139.257 172.193 139.584C172.604 139.911 172.809 140.382 172.809 140.998C172.809 141.633 172.576 142.127 172.109 142.482C171.652 142.827 170.938 143 169.967 143H166.621ZM167.587 142.216H169.925C170.55 142.216 171.022 142.118 171.339 141.922C171.666 141.717 171.829 141.39 171.829 140.942C171.829 140.494 171.684 140.167 171.395 139.962C171.106 139.757 170.648 139.654 170.023 139.654H167.587V142.216ZM167.587 138.912H169.799C170.368 138.912 170.802 138.805 171.101 138.59C171.409 138.375 171.563 138.063 171.563 137.652C171.563 137.241 171.409 136.933 171.101 136.728C170.802 136.523 170.368 136.42 169.799 136.42H167.587V138.912ZM183.843 142.524V136.518H180.301L180.217 138.156C180.198 138.651 180.165 139.136 180.119 139.612C180.081 140.088 180.011 140.527 179.909 140.928C179.815 141.32 179.68 141.642 179.503 141.894C179.325 142.137 179.097 142.277 178.817 142.314L177.823 142.132C178.112 142.141 178.35 142.039 178.537 141.824C178.723 141.6 178.868 141.297 178.971 140.914C179.073 140.531 179.148 140.097 179.195 139.612C179.241 139.117 179.279 138.613 179.307 138.1L179.405 135.65H184.837V142.524H183.843ZM177.515 144.778V142.132H185.985V144.778H185.047V143H178.453V144.778H177.515ZM191.072 143.07C190.306 143.07 189.634 142.911 189.056 142.594C188.477 142.267 188.024 141.824 187.698 141.264C187.371 140.695 187.208 140.046 187.208 139.318C187.208 138.59 187.362 137.946 187.67 137.386C187.987 136.826 188.416 136.387 188.958 136.07C189.508 135.743 190.124 135.58 190.806 135.58C191.496 135.58 192.108 135.739 192.64 136.056C193.181 136.364 193.606 136.803 193.914 137.372C194.222 137.932 194.376 138.581 194.376 139.318C194.376 139.365 194.371 139.416 194.362 139.472C194.362 139.519 194.362 139.57 194.362 139.626H187.964V138.884H193.83L193.438 139.178C193.438 138.646 193.321 138.175 193.088 137.764C192.864 137.344 192.556 137.017 192.164 136.784C191.772 136.551 191.319 136.434 190.806 136.434C190.302 136.434 189.849 136.551 189.448 136.784C189.046 137.017 188.734 137.344 188.51 137.764C188.286 138.184 188.174 138.665 188.174 139.206V139.36C188.174 139.92 188.295 140.415 188.538 140.844C188.79 141.264 189.135 141.595 189.574 141.838C190.022 142.071 190.53 142.188 191.1 142.188C191.548 142.188 191.963 142.109 192.346 141.95C192.738 141.791 193.074 141.549 193.354 141.222L193.914 141.866C193.587 142.258 193.176 142.557 192.682 142.762C192.196 142.967 191.66 143.07 191.072 143.07ZM196.576 143V135.65H197.57V138.898H202.204V135.65H203.198V143H202.204V139.752H197.57V143H196.576ZM209.187 138.24C210.111 138.249 210.811 138.455 211.287 138.856C211.773 139.257 212.015 139.836 212.015 140.592C212.015 141.376 211.754 141.978 211.231 142.398C210.718 142.818 209.971 143.023 208.991 143.014L206.023 143V135.65H207.017V138.212L209.187 138.24ZM208.935 142.258C209.617 142.267 210.13 142.132 210.475 141.852C210.83 141.563 211.007 141.143 211.007 140.592C211.007 140.041 210.835 139.64 210.489 139.388C210.144 139.127 209.626 138.991 208.935 138.982L207.017 138.954V142.23L208.935 142.258ZM219.55 143.084C219.018 143.084 218.491 143.009 217.968 142.86C217.445 142.711 216.983 142.482 216.582 142.174L216.904 141.432C217.259 141.693 217.669 141.894 218.136 142.034C218.603 142.165 219.065 142.23 219.522 142.23C219.979 142.221 220.376 142.155 220.712 142.034C221.048 141.913 221.309 141.745 221.496 141.53C221.683 141.315 221.776 141.073 221.776 140.802C221.776 140.41 221.599 140.107 221.244 139.892C220.889 139.668 220.404 139.556 219.788 139.556H218.528V138.828H219.718C220.082 138.828 220.404 138.781 220.684 138.688C220.964 138.595 221.179 138.459 221.328 138.282C221.487 138.105 221.566 137.895 221.566 137.652C221.566 137.391 221.473 137.167 221.286 136.98C221.109 136.793 220.861 136.653 220.544 136.56C220.227 136.467 219.867 136.42 219.466 136.42C219.102 136.429 218.724 136.485 218.332 136.588C217.94 136.681 217.553 136.826 217.17 137.022L216.89 136.252C217.319 136.028 217.744 135.86 218.164 135.748C218.593 135.627 219.023 135.566 219.452 135.566C220.04 135.547 220.567 135.617 221.034 135.776C221.51 135.935 221.888 136.163 222.168 136.462C222.448 136.751 222.588 137.101 222.588 137.512C222.588 137.876 222.476 138.193 222.252 138.464C222.028 138.735 221.729 138.945 221.356 139.094C220.983 139.243 220.558 139.318 220.082 139.318L220.124 139.052C220.964 139.052 221.617 139.215 222.084 139.542C222.56 139.869 222.798 140.312 222.798 140.872C222.798 141.311 222.653 141.698 222.364 142.034C222.075 142.361 221.683 142.617 221.188 142.804C220.703 142.991 220.157 143.084 219.55 143.084ZM229.619 143V141.376L229.577 141.11V138.394C229.577 137.769 229.399 137.288 229.045 136.952C228.699 136.616 228.181 136.448 227.491 136.448C227.015 136.448 226.562 136.527 226.133 136.686C225.703 136.845 225.339 137.055 225.041 137.316L224.593 136.574C224.966 136.257 225.414 136.014 225.937 135.846C226.459 135.669 227.01 135.58 227.589 135.58C228.541 135.58 229.273 135.818 229.787 136.294C230.309 136.761 230.571 137.475 230.571 138.436V143H229.619ZM227.085 143.07C226.534 143.07 226.053 142.981 225.643 142.804C225.241 142.617 224.933 142.365 224.719 142.048C224.504 141.721 224.397 141.348 224.397 140.928C224.397 140.545 224.485 140.2 224.663 139.892C224.849 139.575 225.148 139.323 225.559 139.136C225.979 138.94 226.539 138.842 227.239 138.842H229.773V139.584H227.267C226.557 139.584 226.063 139.71 225.783 139.962C225.512 140.214 225.377 140.527 225.377 140.9C225.377 141.32 225.54 141.656 225.867 141.908C226.193 142.16 226.651 142.286 227.239 142.286C227.799 142.286 228.279 142.16 228.681 141.908C229.091 141.647 229.39 141.273 229.577 140.788L229.801 141.474C229.614 141.959 229.287 142.347 228.821 142.636C228.363 142.925 227.785 143.07 227.085 143.07ZM238.607 143L235.583 139.36L236.409 138.87L239.783 143H238.607ZM233.217 143V135.65H234.211V143H233.217ZM233.903 139.724V138.87H236.269V139.724H233.903ZM236.493 139.43L235.569 139.29L238.495 135.65H239.573L236.493 139.43ZM245.779 143V141.376L245.737 141.11V138.394C245.737 137.769 245.559 137.288 245.205 136.952C244.859 136.616 244.341 136.448 243.651 136.448C243.175 136.448 242.722 136.527 242.293 136.686C241.863 136.845 241.499 137.055 241.201 137.316L240.753 136.574C241.126 136.257 241.574 136.014 242.097 135.846C242.619 135.669 243.17 135.58 243.749 135.58C244.701 135.58 245.433 135.818 245.947 136.294C246.469 136.761 246.731 137.475 246.731 138.436V143H245.779ZM243.245 143.07C242.694 143.07 242.213 142.981 241.803 142.804C241.401 142.617 241.093 142.365 240.879 142.048C240.664 141.721 240.557 141.348 240.557 140.928C240.557 140.545 240.645 140.2 240.823 139.892C241.009 139.575 241.308 139.323 241.719 139.136C242.139 138.94 242.699 138.842 243.399 138.842H245.933V139.584H243.427C242.717 139.584 242.223 139.71 241.943 139.962C241.672 140.214 241.537 140.527 241.537 140.9C241.537 141.32 241.7 141.656 242.027 141.908C242.353 142.16 242.811 142.286 243.399 142.286C243.959 142.286 244.439 142.16 244.841 141.908C245.251 141.647 245.55 141.273 245.737 140.788L245.961 141.474C245.774 141.959 245.447 142.347 244.981 142.636C244.523 142.925 243.945 143.07 243.245 143.07ZM251.201 143.084C250.669 143.084 250.141 143.009 249.619 142.86C249.096 142.711 248.634 142.482 248.233 142.174L248.555 141.432C248.909 141.693 249.32 141.894 249.787 142.034C250.253 142.165 250.715 142.23 251.173 142.23C251.63 142.221 252.027 142.155 252.363 142.034C252.699 141.913 252.96 141.745 253.147 141.53C253.333 141.315 253.427 141.073 253.427 140.802C253.427 140.41 253.249 140.107 252.895 139.892C252.54 139.668 252.055 139.556 251.439 139.556H250.179V138.828H251.369C251.733 138.828 252.055 138.781 252.335 138.688C252.615 138.595 252.829 138.459 252.979 138.282C253.137 138.105 253.217 137.895 253.217 137.652C253.217 137.391 253.123 137.167 252.937 136.98C252.759 136.793 252.512 136.653 252.195 136.56C251.877 136.467 251.518 136.42 251.117 136.42C250.753 136.429 250.375 136.485 249.983 136.588C249.591 136.681 249.203 136.826 248.821 137.022L248.541 136.252C248.97 136.028 249.395 135.86 249.815 135.748C250.244 135.627 250.673 135.566 251.103 135.566C251.691 135.547 252.218 135.617 252.685 135.776C253.161 135.935 253.539 136.163 253.819 136.462C254.099 136.751 254.239 137.101 254.239 137.512C254.239 137.876 254.127 138.193 253.903 138.464C253.679 138.735 253.38 138.945 253.007 139.094C252.633 139.243 252.209 139.318 251.733 139.318L251.775 139.052C252.615 139.052 253.268 139.215 253.735 139.542C254.211 139.869 254.449 140.312 254.449 140.872C254.449 141.311 254.304 141.698 254.015 142.034C253.725 142.361 253.333 142.617 252.839 142.804C252.353 142.991 251.807 143.084 251.201 143.084ZM261.269 143V141.376L261.227 141.11V138.394C261.227 137.769 261.05 137.288 260.695 136.952C260.35 136.616 259.832 136.448 259.141 136.448C258.665 136.448 258.212 136.527 257.783 136.686C257.354 136.845 256.99 137.055 256.691 137.316L256.243 136.574C256.616 136.257 257.064 136.014 257.587 135.846C258.11 135.669 258.66 135.58 259.239 135.58C260.191 135.58 260.924 135.818 261.437 136.294C261.96 136.761 262.221 137.475 262.221 138.436V143H261.269ZM258.735 143.07C258.184 143.07 257.704 142.981 257.293 142.804C256.892 142.617 256.584 142.365 256.369 142.048C256.154 141.721 256.047 141.348 256.047 140.928C256.047 140.545 256.136 140.2 256.313 139.892C256.5 139.575 256.798 139.323 257.209 139.136C257.629 138.94 258.189 138.842 258.889 138.842H261.423V139.584H258.917C258.208 139.584 257.713 139.71 257.433 139.962C257.162 140.214 257.027 140.527 257.027 140.9C257.027 141.32 257.19 141.656 257.517 141.908C257.844 142.16 258.301 142.286 258.889 142.286C259.449 142.286 259.93 142.16 260.331 141.908C260.742 141.647 261.04 141.273 261.227 140.788L261.451 141.474C261.264 141.959 260.938 142.347 260.471 142.636C260.014 142.925 259.435 143.07 258.735 143.07Z" fill="#707D89"/>
<defs>
<clipPath id="clip0_5998_17495">
<rect width="16" height="16" fill="white" transform="translate(0 2)"/>
</clipPath>
</defs>
</svg>
