<svg width="280" height="140" viewBox="0 0 280 140" fill="none" xmlns="http://www.w3.org/2000/svg">
<g clip-path="url(#clip0_5998_17497)">
<path d="M6.00001 12.6666C8.57734 12.6666 10.6667 10.5772 10.6667 7.99992C10.6667 5.42259 8.57734 3.33325 6.00001 3.33325C3.42268 3.33325 1.33334 5.42259 1.33334 7.99992C1.33334 10.5772 3.42268 12.6666 6.00001 12.6666Z" stroke="#28CB47" stroke-width="1.5" stroke-linecap="round" stroke-linejoin="round"/>
<path d="M10 16.6666C12.5773 16.6666 14.6667 14.5772 14.6667 11.9999C14.6667 9.42259 12.5773 7.33325 10 7.33325C7.42268 7.33325 5.33334 9.42259 5.33334 11.9999C5.33334 14.5772 7.42268 16.6666 10 16.6666Z" stroke="#28CB47" stroke-width="1.5" stroke-linecap="round" stroke-linejoin="round"/>
</g>
<path d="M31.088 12.072C30.456 12.072 29.872 11.968 29.336 11.76C28.8 11.544 28.336 11.244 27.944 10.86C27.552 10.476 27.244 10.024 27.02 9.504C26.804 8.984 26.696 8.416 26.696 7.8C26.696 7.184 26.804 6.616 27.02 6.096C27.244 5.576 27.552 5.124 27.944 4.74C28.344 4.356 28.812 4.06 29.348 3.852C29.884 3.636 30.468 3.528 31.1 3.528C31.708 3.528 32.28 3.632 32.816 3.84C33.352 4.04 33.804 4.344 34.172 4.752L33.608 5.316C33.264 4.964 32.884 4.712 32.468 4.56C32.052 4.4 31.604 4.32 31.124 4.32C30.62 4.32 30.152 4.408 29.72 4.584C29.288 4.752 28.912 4.996 28.592 5.316C28.272 5.628 28.02 5.996 27.836 6.42C27.66 6.836 27.572 7.296 27.572 7.8C27.572 8.304 27.66 8.768 27.836 9.192C28.02 9.608 28.272 9.976 28.592 10.296C28.912 10.608 29.288 10.852 29.72 11.028C30.152 11.196 30.62 11.28 31.124 11.28C31.604 11.28 32.052 11.2 32.468 11.04C32.884 10.88 33.264 10.624 33.608 10.272L34.172 10.836C33.804 11.244 33.352 11.552 32.816 11.76C32.28 11.968 31.704 12.072 31.088 12.072ZM39.0538 12.06C38.5098 12.06 38.0178 11.936 37.5778 11.688C37.1378 11.432 36.7858 11.068 36.5218 10.596C36.2658 10.116 36.1378 9.532 36.1378 8.844C36.1378 8.156 36.2658 7.576 36.5218 7.104C36.7778 6.624 37.1258 6.26 37.5658 6.012C38.0058 5.764 38.5018 5.64 39.0538 5.64C39.6538 5.64 40.1898 5.776 40.6618 6.048C41.1418 6.312 41.5178 6.688 41.7898 7.176C42.0618 7.656 42.1978 8.212 42.1978 8.844C42.1978 9.484 42.0618 10.044 41.7898 10.524C41.5178 11.004 41.1418 11.38 40.6618 11.652C40.1898 11.924 39.6538 12.06 39.0538 12.06ZM35.8018 14.328V5.7H36.6178V7.596L36.5338 8.856L36.6538 10.128V14.328H35.8018ZM38.9938 11.304C39.4418 11.304 39.8418 11.204 40.1938 11.004C40.5458 10.796 40.8258 10.508 41.0338 10.14C41.2418 9.764 41.3458 9.332 41.3458 8.844C41.3458 8.356 41.2418 7.928 41.0338 7.56C40.8258 7.192 40.5458 6.904 40.1938 6.696C39.8418 6.488 39.4418 6.384 38.9938 6.384C38.5458 6.384 38.1418 6.488 37.7818 6.696C37.4298 6.904 37.1498 7.192 36.9418 7.56C36.7418 7.928 36.6418 8.356 36.6418 8.844C36.6418 9.332 36.7418 9.764 36.9418 10.14C37.1498 10.508 37.4298 10.796 37.7818 11.004C38.1418 11.204 38.5458 11.304 38.9938 11.304ZM47.9053 12V10.608L47.8693 10.38V8.052C47.8693 7.516 47.7173 7.104 47.4133 6.816C47.1173 6.528 46.6733 6.384 46.0813 6.384C45.6733 6.384 45.2853 6.452 44.9173 6.588C44.5493 6.724 44.2373 6.904 43.9813 7.128L43.5973 6.492C43.9173 6.22 44.3013 6.012 44.7493 5.868C45.1973 5.716 45.6693 5.64 46.1653 5.64C46.9813 5.64 47.6093 5.844 48.0493 6.252C48.4973 6.652 48.7213 7.264 48.7213 8.088V12H47.9053ZM45.7333 12.06C45.2613 12.06 44.8493 11.984 44.4973 11.832C44.1533 11.672 43.8893 11.456 43.7053 11.184C43.5213 10.904 43.4293 10.584 43.4293 10.224C43.4293 9.896 43.5053 9.6 43.6573 9.336C43.8173 9.064 44.0733 8.848 44.4253 8.688C44.7853 8.52 45.2653 8.436 45.8652 8.436H48.0373V9.072H45.8893C45.2813 9.072 44.8573 9.18 44.6173 9.396C44.3853 9.612 44.2693 9.88 44.2693 10.2C44.2693 10.56 44.4093 10.848 44.6893 11.064C44.9693 11.28 45.3613 11.388 45.8652 11.388C46.3453 11.388 46.7573 11.28 47.1013 11.064C47.4533 10.84 47.7093 10.52 47.8693 10.104L48.0613 10.692C47.9013 11.108 47.6213 11.44 47.2213 11.688C46.8293 11.936 46.3333 12.06 45.7333 12.06ZM50.9893 12V5.7H53.7733C54.4853 5.7 55.0453 5.836 55.4533 6.108C55.8693 6.38 56.0773 6.78 56.0773 7.308C56.0773 7.82 55.8813 8.216 55.4893 8.496C55.0973 8.768 54.5813 8.904 53.9413 8.904L54.1093 8.652C54.8613 8.652 55.4133 8.792 55.7653 9.072C56.1173 9.352 56.2933 9.756 56.2933 10.284C56.2933 10.828 56.0933 11.252 55.6933 11.556C55.3013 11.852 54.6893 12 53.8573 12H50.9893ZM51.8173 11.328H53.8213C54.3573 11.328 54.7613 11.244 55.0333 11.076C55.3133 10.9 55.4533 10.62 55.4533 10.236C55.4533 9.852 55.3293 9.572 55.0813 9.396C54.8333 9.22 54.4413 9.132 53.9053 9.132H51.8173V11.328ZM51.8173 8.496H53.7133C54.2013 8.496 54.5733 8.404 54.8293 8.22C55.0933 8.036 55.2253 7.768 55.2253 7.416C55.2253 7.064 55.0933 6.8 54.8293 6.624C54.5733 6.448 54.2013 6.36 53.7133 6.36H51.8173V8.496ZM58.2901 12V5.7H59.1421V8.484H63.1141V5.7H63.9661V12H63.1141V9.216H59.1421V12H58.2901ZM66.3878 12V5.7H67.2398V10.704L71.4518 5.7H72.2078V12H71.3558V6.984L67.1558 12H66.3878ZM75.8495 12V6.216L76.0655 6.444H73.4615V5.7H79.0895V6.444H76.4855L76.7015 6.216V12H75.8495ZM82.7284 12.06C82.0724 12.06 81.4964 11.924 81.0004 11.652C80.5044 11.372 80.1164 10.992 79.8364 10.512C79.5564 10.024 79.4164 9.468 79.4164 8.844C79.4164 8.22 79.5484 7.668 79.8124 7.188C80.0844 6.708 80.4524 6.332 80.9164 6.06C81.3884 5.78 81.9164 5.64 82.5004 5.64C83.0924 5.64 83.6164 5.776 84.0724 6.048C84.5364 6.312 84.9004 6.688 85.1644 7.176C85.4284 7.656 85.5604 8.212 85.5604 8.844C85.5604 8.884 85.5564 8.928 85.5484 8.976C85.5484 9.016 85.5484 9.06 85.5484 9.108H80.0644V8.472H85.0924L84.7564 8.724C84.7564 8.268 84.6564 7.864 84.4564 7.512C84.2644 7.152 84.0004 6.872 83.6644 6.672C83.3284 6.472 82.9404 6.372 82.5004 6.372C82.0684 6.372 81.6804 6.472 81.3364 6.672C80.9924 6.872 80.7244 7.152 80.5324 7.512C80.3404 7.872 80.2444 8.284 80.2444 8.748V8.88C80.2444 9.36 80.3484 9.784 80.5564 10.152C80.7724 10.512 81.0684 10.796 81.4444 11.004C81.8284 11.204 82.2644 11.304 82.7524 11.304C83.1364 11.304 83.4924 11.236 83.8204 11.1C84.1564 10.964 84.4444 10.756 84.6844 10.476L85.1644 11.028C84.8844 11.364 84.5324 11.62 84.1084 11.796C83.6924 11.972 83.2324 12.06 82.7284 12.06ZM93.227 12.06C92.603 12.06 92.043 11.924 91.547 11.652C91.059 11.372 90.675 10.992 90.395 10.512C90.115 10.024 89.975 9.468 89.975 8.844C89.975 8.212 90.115 7.656 90.395 7.176C90.675 6.696 91.059 6.32 91.547 6.048C92.043 5.776 92.603 5.64 93.227 5.64C93.763 5.64 94.247 5.744 94.679 5.952C95.111 6.16 95.451 6.472 95.699 6.888L95.063 7.32C94.847 7 94.579 6.764 94.259 6.612C93.939 6.46 93.591 6.384 93.215 6.384C92.767 6.384 92.363 6.488 92.003 6.696C91.643 6.896 91.359 7.18 91.151 7.548C90.943 7.916 90.839 8.348 90.839 8.844C90.839 9.34 90.943 9.772 91.151 10.14C91.359 10.508 91.643 10.796 92.003 11.004C92.363 11.204 92.767 11.304 93.215 11.304C93.591 11.304 93.939 11.228 94.259 11.076C94.579 10.924 94.847 10.692 95.063 10.38L95.699 10.812C95.451 11.22 95.111 11.532 94.679 11.748C94.247 11.956 93.763 12.06 93.227 12.06ZM100.489 12V5.7H101.353L104.209 10.536H103.849L106.753 5.7H107.545V12H106.765V6.672L106.921 6.744L104.209 11.232H103.825L101.089 6.696L101.269 6.66V12H100.489ZM113.882 12V10.608L113.846 10.38V8.052C113.846 7.516 113.694 7.104 113.39 6.816C113.094 6.528 112.65 6.384 112.058 6.384C111.65 6.384 111.262 6.452 110.894 6.588C110.526 6.724 110.214 6.904 109.958 7.128L109.574 6.492C109.894 6.22 110.278 6.012 110.726 5.868C111.174 5.716 111.646 5.64 112.142 5.64C112.958 5.64 113.586 5.844 114.026 6.252C114.474 6.652 114.698 7.264 114.698 8.088V12H113.882ZM111.71 12.06C111.238 12.06 110.826 11.984 110.474 11.832C110.13 11.672 109.866 11.456 109.682 11.184C109.498 10.904 109.406 10.584 109.406 10.224C109.406 9.896 109.482 9.6 109.634 9.336C109.794 9.064 110.05 8.848 110.402 8.688C110.762 8.52 111.242 8.436 111.842 8.436H114.014V9.072H111.866C111.258 9.072 110.834 9.18 110.594 9.396C110.362 9.612 110.246 9.88 110.246 10.2C110.246 10.56 110.386 10.848 110.666 11.064C110.946 11.28 111.338 11.388 111.842 11.388C112.322 11.388 112.734 11.28 113.078 11.064C113.43 10.84 113.686 10.52 113.846 10.104L114.038 10.692C113.878 11.108 113.598 11.44 113.198 11.688C112.806 11.936 112.31 12.06 111.71 12.06ZM120.218 12.06C119.674 12.06 119.182 11.936 118.742 11.688C118.302 11.432 117.95 11.068 117.686 10.596C117.43 10.116 117.302 9.532 117.302 8.844C117.302 8.156 117.43 7.576 117.686 7.104C117.942 6.624 118.29 6.26 118.73 6.012C119.17 5.764 119.666 5.64 120.218 5.64C120.818 5.64 121.354 5.776 121.826 6.048C122.306 6.312 122.682 6.688 122.954 7.176C123.226 7.656 123.362 8.212 123.362 8.844C123.362 9.484 123.226 10.044 122.954 10.524C122.682 11.004 122.306 11.38 121.826 11.652C121.354 11.924 120.818 12.06 120.218 12.06ZM116.966 14.328V5.7H117.782V7.596L117.698 8.856L117.818 10.128V14.328H116.966ZM120.158 11.304C120.606 11.304 121.006 11.204 121.358 11.004C121.71 10.796 121.99 10.508 122.198 10.14C122.406 9.764 122.51 9.332 122.51 8.844C122.51 8.356 122.406 7.928 122.198 7.56C121.99 7.192 121.71 6.904 121.358 6.696C121.006 6.488 120.606 6.384 120.158 6.384C119.71 6.384 119.306 6.488 118.946 6.696C118.594 6.904 118.314 7.192 118.106 7.56C117.906 7.928 117.806 8.356 117.806 8.844C117.806 9.332 117.906 9.764 118.106 10.14C118.314 10.508 118.594 10.796 118.946 11.004C119.306 11.204 119.71 11.304 120.158 11.304ZM129.812 12L127.22 8.88L127.928 8.46L130.82 12H129.812ZM125.192 12V5.7H126.044V12H125.192ZM125.78 9.192V8.46H127.808V9.192H125.78ZM128 8.94L127.208 8.82L129.716 5.7H130.64L128 8.94ZM134.642 12.06C133.986 12.06 133.41 11.924 132.914 11.652C132.418 11.372 132.03 10.992 131.75 10.512C131.47 10.024 131.33 9.468 131.33 8.844C131.33 8.22 131.462 7.668 131.726 7.188C131.998 6.708 132.366 6.332 132.83 6.06C133.302 5.78 133.83 5.64 134.414 5.64C135.006 5.64 135.53 5.776 135.986 6.048C136.45 6.312 136.814 6.688 137.078 7.176C137.342 7.656 137.474 8.212 137.474 8.844C137.474 8.884 137.47 8.928 137.462 8.976C137.462 9.016 137.462 9.06 137.462 9.108H131.978V8.472H137.006L136.67 8.724C136.67 8.268 136.57 7.864 136.37 7.512C136.178 7.152 135.914 6.872 135.578 6.672C135.242 6.472 134.854 6.372 134.414 6.372C133.982 6.372 133.594 6.472 133.25 6.672C132.906 6.872 132.638 7.152 132.446 7.512C132.254 7.872 132.158 8.284 132.158 8.748V8.88C132.158 9.36 132.262 9.784 132.47 10.152C132.686 10.512 132.982 10.796 133.358 11.004C133.742 11.204 134.178 11.304 134.666 11.304C135.05 11.304 135.406 11.236 135.734 11.1C136.07 10.964 136.358 10.756 136.598 10.476L137.078 11.028C136.798 11.364 136.446 11.62 136.022 11.796C135.606 11.972 135.146 12.06 134.642 12.06ZM140.279 12V6.216L140.495 6.444H137.891V5.7H143.519V6.444H140.915L141.131 6.216V12H140.279ZM144.751 12V5.7H150.415V12H149.563V6.216L149.779 6.444H145.387L145.603 6.216V12H144.751ZM151.685 11.988L151.745 11.256C151.801 11.264 151.853 11.276 151.901 11.292C151.957 11.3 152.005 11.304 152.045 11.304C152.301 11.304 152.505 11.208 152.657 11.016C152.817 10.824 152.937 10.568 153.017 10.248C153.097 9.928 153.153 9.568 153.185 9.168C153.217 8.76 153.245 8.352 153.269 7.944L153.377 5.7H157.997V12H157.145V6.192L157.361 6.444H153.929L154.133 6.18L154.037 8.004C154.013 8.548 153.969 9.068 153.905 9.564C153.849 10.06 153.757 10.496 153.629 10.872C153.509 11.248 153.341 11.544 153.125 11.76C152.909 11.968 152.633 12.072 152.297 12.072C152.201 12.072 152.101 12.064 151.997 12.048C151.901 12.032 151.797 12.012 151.685 11.988ZM163.119 12.06C162.463 12.06 161.887 11.924 161.391 11.652C160.895 11.372 160.507 10.992 160.227 10.512C159.947 10.024 159.807 9.468 159.807 8.844C159.807 8.22 159.939 7.668 160.203 7.188C160.475 6.708 160.843 6.332 161.307 6.06C161.779 5.78 162.307 5.64 162.891 5.64C163.483 5.64 164.007 5.776 164.463 6.048C164.927 6.312 165.291 6.688 165.555 7.176C165.819 7.656 165.951 8.212 165.951 8.844C165.951 8.884 165.947 8.928 165.939 8.976C165.939 9.016 165.939 9.06 165.939 9.108H160.455V8.472H165.483L165.147 8.724C165.147 8.268 165.047 7.864 164.847 7.512C164.655 7.152 164.391 6.872 164.055 6.672C163.719 6.472 163.331 6.372 162.891 6.372C162.459 6.372 162.071 6.472 161.727 6.672C161.383 6.872 161.115 7.152 160.923 7.512C160.731 7.872 160.635 8.284 160.635 8.748V8.88C160.635 9.36 160.739 9.784 160.947 10.152C161.163 10.512 161.459 10.796 161.835 11.004C162.219 11.204 162.655 11.304 163.143 11.304C163.527 11.304 163.883 11.236 164.211 11.1C164.547 10.964 164.835 10.756 165.075 10.476L165.555 11.028C165.275 11.364 164.923 11.62 164.499 11.796C164.083 11.972 163.623 12.06 163.119 12.06ZM167.837 12V5.7H168.689V10.704L172.901 5.7H173.657V12H172.805V6.984L168.605 12H167.837ZM170.693 4.788C170.165 4.788 169.737 4.656 169.409 4.392C169.089 4.12 168.921 3.732 168.905 3.228H169.517C169.525 3.548 169.637 3.8 169.853 3.984C170.069 4.168 170.349 4.26 170.693 4.26C171.037 4.26 171.317 4.168 171.533 3.984C171.757 3.8 171.873 3.548 171.881 3.228H172.493C172.485 3.732 172.317 4.12 171.989 4.392C171.661 4.656 171.229 4.788 170.693 4.788ZM178.739 12.06C178.115 12.06 177.555 11.924 177.059 11.652C176.571 11.372 176.187 10.992 175.907 10.512C175.627 10.024 175.487 9.468 175.487 8.844C175.487 8.212 175.627 7.656 175.907 7.176C176.187 6.696 176.571 6.32 177.059 6.048C177.555 5.776 178.115 5.64 178.739 5.64C179.275 5.64 179.759 5.744 180.191 5.952C180.623 6.16 180.963 6.472 181.211 6.888L180.575 7.32C180.359 7 180.091 6.764 179.771 6.612C179.451 6.46 179.103 6.384 178.727 6.384C178.279 6.384 177.875 6.488 177.515 6.696C177.155 6.896 176.871 7.18 176.663 7.548C176.455 7.916 176.351 8.348 176.351 8.844C176.351 9.34 176.455 9.772 176.663 10.14C176.871 10.508 177.155 10.796 177.515 11.004C177.875 11.204 178.279 11.304 178.727 11.304C179.103 11.304 179.451 11.228 179.771 11.076C180.091 10.924 180.359 10.692 180.575 10.38L181.211 10.812C180.963 11.22 180.623 11.532 180.191 11.748C179.759 11.956 179.275 12.06 178.739 12.06ZM186.772 12V10.608L186.736 10.38V8.052C186.736 7.516 186.584 7.104 186.28 6.816C185.984 6.528 185.54 6.384 184.948 6.384C184.54 6.384 184.152 6.452 183.784 6.588C183.416 6.724 183.104 6.904 182.848 7.128L182.464 6.492C182.784 6.22 183.168 6.012 183.616 5.868C184.064 5.716 184.536 5.64 185.032 5.64C185.848 5.64 186.476 5.844 186.916 6.252C187.364 6.652 187.588 7.264 187.588 8.088V12H186.772ZM184.6 12.06C184.128 12.06 183.716 11.984 183.364 11.832C183.02 11.672 182.756 11.456 182.572 11.184C182.388 10.904 182.296 10.584 182.296 10.224C182.296 9.896 182.372 9.6 182.524 9.336C182.684 9.064 182.94 8.848 183.292 8.688C183.652 8.52 184.132 8.436 184.732 8.436H186.904V9.072H184.756C184.148 9.072 183.724 9.18 183.484 9.396C183.252 9.612 183.136 9.88 183.136 10.2C183.136 10.56 183.276 10.848 183.556 11.064C183.836 11.28 184.228 11.388 184.732 11.388C185.212 11.388 185.624 11.28 185.968 11.064C186.32 10.84 186.576 10.52 186.736 10.104L186.928 10.692C186.768 11.108 186.488 11.44 186.088 11.688C185.696 11.936 185.2 12.06 184.6 12.06ZM189.857 12V5.7H190.721L193.577 10.536H193.217L196.121 5.7H196.913V12H196.133V6.672L196.289 6.744L193.577 11.232H193.193L190.457 6.696L190.637 6.66V12H189.857ZM199.337 12V5.7H200.189V10.704L204.401 5.7H205.157V12H204.305V6.984L200.105 12H199.337ZM210.739 12V5.7H213.523C214.235 5.7 214.795 5.836 215.203 6.108C215.619 6.38 215.827 6.78 215.827 7.308C215.827 7.82 215.631 8.216 215.239 8.496C214.847 8.768 214.331 8.904 213.691 8.904L213.859 8.652C214.611 8.652 215.163 8.792 215.515 9.072C215.867 9.352 216.043 9.756 216.043 10.284C216.043 10.828 215.843 11.252 215.443 11.556C215.051 11.852 214.439 12 213.607 12H210.739ZM211.567 11.328H213.571C214.107 11.328 214.511 11.244 214.783 11.076C215.063 10.9 215.203 10.62 215.203 10.236C215.203 9.852 215.079 9.572 214.831 9.396C214.583 9.22 214.191 9.132 213.655 9.132H211.567V11.328ZM211.567 8.496H213.463C213.951 8.496 214.323 8.404 214.579 8.22C214.843 8.036 214.975 7.768 214.975 7.416C214.975 7.064 214.843 6.8 214.579 6.624C214.323 6.448 213.951 6.36 213.463 6.36H211.567V8.496ZM224.184 12V5.7H225.036V12H224.184ZM220.692 7.92C221.484 7.928 222.088 8.104 222.504 8.448C222.92 8.792 223.128 9.288 223.128 9.936C223.128 10.608 222.904 11.124 222.456 11.484C222.008 11.844 221.368 12.02 220.536 12.012L218.04 12V5.7H218.892V7.896L220.692 7.92ZM220.476 11.364C221.068 11.372 221.512 11.256 221.808 11.016C222.112 10.768 222.264 10.408 222.264 9.936C222.264 9.464 222.116 9.12 221.82 8.904C221.524 8.68 221.076 8.564 220.476 8.556L218.892 8.532V11.34L220.476 11.364ZM230.294 12.072C229.782 12.072 229.326 11.988 228.926 11.82C228.534 11.652 228.198 11.396 227.918 11.052C227.638 10.708 227.426 10.284 227.282 9.78C227.138 9.268 227.066 8.676 227.066 8.004C227.066 7.404 227.122 6.88 227.234 6.432C227.346 5.976 227.502 5.584 227.702 5.256C227.902 4.928 228.134 4.652 228.398 4.428C228.67 4.196 228.962 4.012 229.274 3.876C229.594 3.732 229.922 3.624 230.258 3.552L233.09 2.892L233.234 3.684L230.57 4.284C230.402 4.324 230.198 4.38 229.958 4.452C229.726 4.524 229.486 4.632 229.238 4.776C228.998 4.92 228.774 5.12 228.566 5.376C228.358 5.632 228.19 5.964 228.062 6.372C227.942 6.772 227.882 7.272 227.882 7.872C227.882 8 227.886 8.104 227.894 8.184C227.902 8.256 227.91 8.336 227.918 8.424C227.934 8.504 227.946 8.624 227.954 8.784L227.582 8.472C227.67 7.984 227.85 7.56 228.122 7.2C228.394 6.832 228.734 6.548 229.142 6.348C229.558 6.14 230.018 6.036 230.522 6.036C231.106 6.036 231.626 6.164 232.082 6.42C232.538 6.668 232.894 7.016 233.15 7.464C233.414 7.912 233.546 8.432 233.546 9.024C233.546 9.608 233.41 10.132 233.138 10.596C232.874 11.06 232.498 11.424 232.01 11.688C231.522 11.944 230.95 12.072 230.294 12.072ZM230.39 11.364C230.838 11.364 231.234 11.264 231.578 11.064C231.922 10.856 232.19 10.576 232.382 10.224C232.582 9.872 232.682 9.476 232.682 9.036C232.682 8.604 232.582 8.22 232.382 7.884C232.19 7.548 231.922 7.284 231.578 7.092C231.234 6.892 230.834 6.792 230.378 6.792C229.93 6.792 229.534 6.888 229.19 7.08C228.846 7.264 228.574 7.524 228.374 7.86C228.182 8.196 228.086 8.584 228.086 9.024C228.086 9.464 228.182 9.86 228.374 10.212C228.574 10.564 228.846 10.844 229.19 11.052C229.542 11.26 229.942 11.364 230.39 11.364ZM238.072 12.06C237.416 12.06 236.84 11.924 236.344 11.652C235.848 11.372 235.46 10.992 235.18 10.512C234.9 10.024 234.76 9.468 234.76 8.844C234.76 8.22 234.892 7.668 235.156 7.188C235.428 6.708 235.796 6.332 236.26 6.06C236.732 5.78 237.26 5.64 237.844 5.64C238.436 5.64 238.96 5.776 239.416 6.048C239.88 6.312 240.244 6.688 240.508 7.176C240.772 7.656 240.904 8.212 240.904 8.844C240.904 8.884 240.9 8.928 240.892 8.976C240.892 9.016 240.892 9.06 240.892 9.108H235.408V8.472H240.436L240.1 8.724C240.1 8.268 240 7.864 239.8 7.512C239.608 7.152 239.344 6.872 239.008 6.672C238.672 6.472 238.284 6.372 237.844 6.372C237.412 6.372 237.024 6.472 236.68 6.672C236.336 6.872 236.068 7.152 235.876 7.512C235.684 7.872 235.588 8.284 235.588 8.748V8.88C235.588 9.36 235.692 9.784 235.9 10.152C236.116 10.512 236.412 10.796 236.788 11.004C237.172 11.204 237.608 11.304 238.096 11.304C238.48 11.304 238.836 11.236 239.164 11.1C239.5 10.964 239.788 10.756 240.028 10.476L240.508 11.028C240.228 11.364 239.876 11.62 239.452 11.796C239.036 11.972 238.576 12.06 238.072 12.06ZM246.042 12.06C245.498 12.06 245.006 11.936 244.566 11.688C244.126 11.432 243.774 11.068 243.51 10.596C243.254 10.116 243.126 9.532 243.126 8.844C243.126 8.156 243.254 7.576 243.51 7.104C243.766 6.624 244.114 6.26 244.554 6.012C244.994 5.764 245.49 5.64 246.042 5.64C246.642 5.64 247.178 5.776 247.65 6.048C248.13 6.312 248.506 6.688 248.778 7.176C249.05 7.656 249.186 8.212 249.186 8.844C249.186 9.484 249.05 10.044 248.778 10.524C248.506 11.004 248.13 11.38 247.65 11.652C247.178 11.924 246.642 12.06 246.042 12.06ZM242.79 14.328V5.7H243.606V7.596L243.522 8.856L243.642 10.128V14.328H242.79ZM245.982 11.304C246.43 11.304 246.83 11.204 247.182 11.004C247.534 10.796 247.814 10.508 248.022 10.14C248.23 9.764 248.334 9.332 248.334 8.844C248.334 8.356 248.23 7.928 248.022 7.56C247.814 7.192 247.534 6.904 247.182 6.696C246.83 6.488 246.43 6.384 245.982 6.384C245.534 6.384 245.13 6.488 244.77 6.696C244.418 6.904 244.138 7.192 243.93 7.56C243.73 7.928 243.63 8.356 243.63 8.844C243.63 9.332 243.73 9.764 243.93 10.14C244.138 10.508 244.418 10.796 244.77 11.004C245.13 11.204 245.534 11.304 245.982 11.304ZM251.017 12V5.7H251.869V10.704L256.081 5.7H256.837V12H255.985V6.984L251.785 12H251.017ZM260.478 12V6.216L260.694 6.444H258.09V5.7H263.718V6.444H261.114L261.33 6.216V12H260.478ZM267.357 12.06C266.701 12.06 266.125 11.924 265.629 11.652C265.133 11.372 264.745 10.992 264.465 10.512C264.185 10.024 264.045 9.468 264.045 8.844C264.045 8.22 264.177 7.668 264.441 7.188C264.713 6.708 265.081 6.332 265.545 6.06C266.017 5.78 266.545 5.64 267.129 5.64C267.721 5.64 268.245 5.776 268.701 6.048C269.165 6.312 269.529 6.688 269.793 7.176C270.057 7.656 270.189 8.212 270.189 8.844C270.189 8.884 270.185 8.928 270.177 8.976C270.177 9.016 270.177 9.06 270.177 9.108H264.693V8.472H269.721L269.385 8.724C269.385 8.268 269.285 7.864 269.085 7.512C268.893 7.152 268.629 6.872 268.293 6.672C267.957 6.472 267.569 6.372 267.129 6.372C266.697 6.372 266.309 6.472 265.965 6.672C265.621 6.872 265.353 7.152 265.161 7.512C264.969 7.872 264.873 8.284 264.873 8.748V8.88C264.873 9.36 264.977 9.784 265.185 10.152C265.401 10.512 265.697 10.796 266.073 11.004C266.457 11.204 266.893 11.304 267.381 11.304C267.765 11.304 268.121 11.236 268.449 11.1C268.785 10.964 269.073 10.756 269.313 10.476L269.793 11.028C269.513 11.364 269.161 11.62 268.737 11.796C268.321 11.972 267.861 12.06 267.357 12.06ZM26.06 27.988L26.12 27.256C26.176 27.264 26.228 27.276 26.276 27.292C26.332 27.3 26.38 27.304 26.42 27.304C26.676 27.304 26.88 27.208 27.032 27.016C27.192 26.824 27.312 26.568 27.392 26.248C27.472 25.928 27.528 25.568 27.56 25.168C27.592 24.76 27.62 24.352 27.644 23.944L27.752 21.7H32.372V28H31.52V22.192L31.736 22.444H28.304L28.508 22.18L28.412 24.004C28.388 24.548 28.344 25.068 28.28 25.564C28.224 26.06 28.132 26.496 28.004 26.872C27.884 27.248 27.716 27.544 27.5 27.76C27.284 27.968 27.008 28.072 26.672 28.072C26.576 28.072 26.476 28.064 26.372 28.048C26.276 28.032 26.172 28.012 26.06 27.988ZM34.902 30.388C34.606 30.388 34.322 30.34 34.05 30.244C33.786 30.148 33.558 30.004 33.366 29.812L33.762 29.176C33.922 29.328 34.094 29.444 34.278 29.524C34.47 29.612 34.682 29.656 34.914 29.656C35.194 29.656 35.434 29.576 35.634 29.416C35.842 29.264 36.038 28.992 36.222 28.6L36.63 27.676L36.726 27.544L39.318 21.7H40.158L37.002 28.756C36.826 29.164 36.63 29.488 36.414 29.728C36.206 29.968 35.978 30.136 35.73 30.232C35.482 30.336 35.206 30.388 34.902 30.388ZM36.582 28.18L33.678 21.7H34.566L37.134 27.484L36.582 28.18ZM45.4694 25.336C45.1014 25.496 44.7294 25.624 44.3534 25.72C43.9854 25.808 43.6174 25.852 43.2494 25.852C42.5054 25.852 41.9174 25.684 41.4854 25.348C41.0534 25.004 40.8374 24.476 40.8374 23.764V21.7H41.6774V23.716C41.6774 24.196 41.8334 24.556 42.1454 24.796C42.4574 25.036 42.8774 25.156 43.4054 25.156C43.7254 25.156 44.0614 25.116 44.4134 25.036C44.7654 24.948 45.1214 24.824 45.4814 24.664L45.4694 25.336ZM45.3974 28V21.7H46.2494V28H45.3974ZM52.809 27.256L52.617 27.484V21.7H53.469V27.484L53.241 27.256H56.757L56.529 27.484V21.7H57.381V28H48.669V21.7H49.521V27.484L49.305 27.256H52.809ZM59.9098 30.388C59.6138 30.388 59.3298 30.34 59.0578 30.244C58.7938 30.148 58.5658 30.004 58.3738 29.812L58.7698 29.176C58.9298 29.328 59.1018 29.444 59.2858 29.524C59.4778 29.612 59.6898 29.656 59.9218 29.656C60.2018 29.656 60.4418 29.576 60.6418 29.416C60.8498 29.264 61.0458 28.992 61.2298 28.6L61.6378 27.676L61.7338 27.544L64.3258 21.7H65.1658L62.0098 28.756C61.8338 29.164 61.6378 29.488 61.4218 29.728C61.2138 29.968 60.9858 30.136 60.7378 30.232C60.4898 30.336 60.2138 30.388 59.9098 30.388ZM61.5898 28.18L58.6858 21.7H59.5738L62.1418 27.484L61.5898 28.18ZM66.4933 28V21.7H67.3453V24.412H69.2653V25.192H67.3453V28H66.4933ZM71.9173 28.06C71.3173 28.06 70.7773 27.924 70.2973 27.652C69.8253 27.372 69.4533 26.992 69.1813 26.512C68.9093 26.024 68.7733 25.468 68.7733 24.844C68.7733 24.212 68.9093 23.656 69.1813 23.176C69.4533 22.696 69.8253 22.32 70.2973 22.048C70.7773 21.776 71.3173 21.64 71.9173 21.64C72.5173 21.64 73.0533 21.776 73.5253 22.048C73.9973 22.32 74.3693 22.696 74.6413 23.176C74.9133 23.656 75.0493 24.212 75.0493 24.844C75.0493 25.468 74.9133 26.024 74.6413 26.512C74.3693 26.992 73.9973 27.372 73.5253 27.652C73.0533 27.924 72.5173 28.06 71.9173 28.06ZM71.9173 27.316C72.3573 27.316 72.7493 27.212 73.0933 27.004C73.4373 26.796 73.7093 26.508 73.9093 26.14C74.1093 25.764 74.2093 25.332 74.2093 24.844C74.2093 24.348 74.1093 23.916 73.9093 23.548C73.7093 23.18 73.4373 22.896 73.0933 22.696C72.7493 22.488 72.3573 22.384 71.9173 22.384C71.4853 22.384 71.0933 22.488 70.7413 22.696C70.3973 22.896 70.1253 23.18 69.9253 23.548C69.7253 23.916 69.6253 24.348 69.6253 24.844C69.6253 25.332 69.7253 25.764 69.9253 26.14C70.1253 26.508 70.3973 26.796 70.7413 27.004C71.0933 27.212 71.4853 27.316 71.9173 27.316ZM80.0167 28V21.7H80.8687V27.256H84.7207V21.7H85.5727V28H80.0167ZM85.7887 29.524V27.928L86.0047 28H84.7207V27.256H86.5927V29.524H85.7887ZM90.9198 28.06C90.2638 28.06 89.6878 27.924 89.1918 27.652C88.6958 27.372 88.3078 26.992 88.0278 26.512C87.7478 26.024 87.6078 25.468 87.6078 24.844C87.6078 24.22 87.7398 23.668 88.0038 23.188C88.2758 22.708 88.6438 22.332 89.1078 22.06C89.5798 21.78 90.1078 21.64 90.6918 21.64C91.2838 21.64 91.8078 21.776 92.2638 22.048C92.7278 22.312 93.0918 22.688 93.3558 23.176C93.6198 23.656 93.7518 24.212 93.7518 24.844C93.7518 24.884 93.7478 24.928 93.7398 24.976C93.7398 25.016 93.7398 25.06 93.7398 25.108H88.2558V24.472H93.2838L92.9478 24.724C92.9478 24.268 92.8478 23.864 92.6478 23.512C92.4558 23.152 92.1918 22.872 91.8558 22.672C91.5198 22.472 91.1318 22.372 90.6918 22.372C90.2598 22.372 89.8718 22.472 89.5278 22.672C89.1838 22.872 88.9158 23.152 88.7238 23.512C88.5318 23.872 88.4358 24.284 88.4358 24.748V24.88C88.4358 25.36 88.5398 25.784 88.7478 26.152C88.9638 26.512 89.2598 26.796 89.6358 27.004C90.0198 27.204 90.4558 27.304 90.9438 27.304C91.3278 27.304 91.6838 27.236 92.0118 27.1C92.3478 26.964 92.6358 26.756 92.8758 26.476L93.3558 27.028C93.0758 27.364 92.7238 27.62 92.2998 27.796C91.8838 27.972 91.4238 28.06 90.9198 28.06ZM95.6378 28V21.7H96.4898V24.484H100.462V21.7H101.314V28H100.462V25.216H96.4898V28H95.6378ZM103.843 30.388C103.547 30.388 103.263 30.34 102.991 30.244C102.727 30.148 102.499 30.004 102.307 29.812L102.703 29.176C102.863 29.328 103.035 29.444 103.219 29.524C103.411 29.612 103.623 29.656 103.855 29.656C104.135 29.656 104.375 29.576 104.575 29.416C104.783 29.264 104.979 28.992 105.163 28.6L105.571 27.676L105.667 27.544L108.259 21.7H109.099L105.943 28.756C105.767 29.164 105.571 29.488 105.355 29.728C105.147 29.968 104.919 30.136 104.671 30.232C104.423 30.336 104.147 30.388 103.843 30.388ZM105.523 28.18L102.619 21.7H103.507L106.075 27.484L105.523 28.18Z" fill="#707D89"/>
<path d="M8.00001 56.3333V58.9999L9.66668 59.9999M8.00001 53.3333C4.8704 53.3333 2.33334 55.8703 2.33334 58.9999C2.33334 62.1295 4.8704 64.6666 8.00001 64.6666C11.1296 64.6666 13.6667 62.1295 13.6667 58.9999C13.6667 55.8703 11.1296 53.3333 8.00001 53.3333ZM8.00001 53.3333V51.3333M6.66668 51.3333H9.33334M13.5527 53.7279L12.5527 52.7279L13.0527 53.2279M2.44736 53.7279L3.44736 52.7279L2.94736 53.2279" stroke="#28CB47" stroke-width="1.5" stroke-linecap="round" stroke-linejoin="round"/>
<path d="M27.416 62V53.6H33.56V54.356H28.292V57.104H31.04C32.032 57.104 32.784 57.308 33.296 57.716C33.816 58.116 34.076 58.708 34.076 59.492C34.076 60.3 33.796 60.92 33.236 61.352C32.684 61.784 31.888 62 30.848 62H27.416ZM28.292 61.292H30.836C31.612 61.292 32.196 61.144 32.588 60.848C32.988 60.544 33.188 60.104 33.188 59.528C33.188 58.384 32.404 57.812 30.836 57.812H28.292V61.292ZM38.619 62.06C37.963 62.06 37.387 61.924 36.891 61.652C36.395 61.372 36.007 60.992 35.727 60.512C35.447 60.024 35.307 59.468 35.307 58.844C35.307 58.22 35.439 57.668 35.703 57.188C35.975 56.708 36.343 56.332 36.807 56.06C37.279 55.78 37.807 55.64 38.391 55.64C38.983 55.64 39.507 55.776 39.963 56.048C40.427 56.312 40.791 56.688 41.055 57.176C41.319 57.656 41.451 58.212 41.451 58.844C41.451 58.884 41.447 58.928 41.439 58.976C41.439 59.016 41.439 59.06 41.439 59.108H35.955V58.472H40.983L40.647 58.724C40.647 58.268 40.547 57.864 40.347 57.512C40.155 57.152 39.891 56.872 39.555 56.672C39.219 56.472 38.831 56.372 38.391 56.372C37.959 56.372 37.571 56.472 37.227 56.672C36.883 56.872 36.615 57.152 36.423 57.512C36.231 57.872 36.135 58.284 36.135 58.748V58.88C36.135 59.36 36.239 59.784 36.447 60.152C36.663 60.512 36.959 60.796 37.335 61.004C37.719 61.204 38.155 61.304 38.643 61.304C39.027 61.304 39.383 61.236 39.711 61.1C40.047 60.964 40.335 60.756 40.575 60.476L41.055 61.028C40.775 61.364 40.423 61.62 39.999 61.796C39.583 61.972 39.123 62.06 38.619 62.06ZM45.977 62.06C45.353 62.06 44.793 61.924 44.297 61.652C43.809 61.372 43.425 60.992 43.145 60.512C42.865 60.024 42.725 59.468 42.725 58.844C42.725 58.212 42.865 57.656 43.145 57.176C43.425 56.696 43.809 56.32 44.297 56.048C44.793 55.776 45.353 55.64 45.977 55.64C46.513 55.64 46.997 55.744 47.429 55.952C47.861 56.16 48.201 56.472 48.449 56.888L47.813 57.32C47.597 57 47.329 56.764 47.009 56.612C46.689 56.46 46.341 56.384 45.965 56.384C45.517 56.384 45.113 56.488 44.753 56.696C44.393 56.896 44.109 57.18 43.901 57.548C43.693 57.916 43.589 58.348 43.589 58.844C43.589 59.34 43.693 59.772 43.901 60.14C44.109 60.508 44.393 60.796 44.753 61.004C45.113 61.204 45.517 61.304 45.965 61.304C46.341 61.304 46.689 61.228 47.009 61.076C47.329 60.924 47.597 60.692 47.813 60.38L48.449 60.812C48.201 61.22 47.861 61.532 47.429 61.748C46.997 61.956 46.513 62.06 45.977 62.06ZM50.0987 62V55.7H55.7627V62H54.9107V56.216L55.1267 56.444H50.7347L50.9507 56.216V62H50.0987ZM57.0327 61.988L57.0927 61.256C57.1487 61.264 57.2007 61.276 57.2487 61.292C57.3047 61.3 57.3527 61.304 57.3927 61.304C57.6487 61.304 57.8527 61.208 58.0047 61.016C58.1647 60.824 58.2847 60.568 58.3647 60.248C58.4447 59.928 58.5007 59.568 58.5327 59.168C58.5647 58.76 58.5927 58.352 58.6167 57.944L58.7247 55.7H63.3447V62H62.4927V56.192L62.7087 56.444H59.2767L59.4807 56.18L59.3847 58.004C59.3607 58.548 59.3167 59.068 59.2527 59.564C59.1967 60.06 59.1047 60.496 58.9767 60.872C58.8567 61.248 58.6887 61.544 58.4727 61.76C58.2567 61.968 57.9807 62.072 57.6447 62.072C57.5487 62.072 57.4487 62.064 57.3447 62.048C57.2487 62.032 57.1447 62.012 57.0327 61.988ZM69.6787 62V60.608L69.6427 60.38V58.052C69.6427 57.516 69.4907 57.104 69.1867 56.816C68.8907 56.528 68.4467 56.384 67.8547 56.384C67.4467 56.384 67.0587 56.452 66.6907 56.588C66.3227 56.724 66.0107 56.904 65.7547 57.128L65.3707 56.492C65.6907 56.22 66.0747 56.012 66.5227 55.868C66.9707 55.716 67.4427 55.64 67.9387 55.64C68.7547 55.64 69.3827 55.844 69.8227 56.252C70.2707 56.652 70.4947 57.264 70.4947 58.088V62H69.6787ZM67.5067 62.06C67.0347 62.06 66.6227 61.984 66.2707 61.832C65.9267 61.672 65.6627 61.456 65.4787 61.184C65.2947 60.904 65.2027 60.584 65.2027 60.224C65.2027 59.896 65.2787 59.6 65.4307 59.336C65.5907 59.064 65.8467 58.848 66.1987 58.688C66.5587 58.52 67.0387 58.436 67.6387 58.436H69.8107V59.072H67.6627C67.0547 59.072 66.6307 59.18 66.3907 59.396C66.1587 59.612 66.0427 59.88 66.0427 60.2C66.0427 60.56 66.1827 60.848 66.4627 61.064C66.7427 61.28 67.1347 61.388 67.6387 61.388C68.1187 61.388 68.5307 61.28 68.8747 61.064C69.2267 60.84 69.4827 60.52 69.6427 60.104L69.8347 60.692C69.6747 61.108 69.3947 61.44 68.9947 61.688C68.6027 61.936 68.1067 62.06 67.5067 62.06ZM73.9628 62V56.216L74.1788 56.444H71.5748V55.7H77.2028V56.444H74.5988L74.8148 56.216V62H73.9628ZM78.4347 62V55.7H79.2867V58.484H83.2587V55.7H84.1107V62H83.2587V59.216H79.2867V62H78.4347ZM90.4443 62V60.608L90.4083 60.38V58.052C90.4083 57.516 90.2563 57.104 89.9523 56.816C89.6563 56.528 89.2123 56.384 88.6203 56.384C88.2123 56.384 87.8243 56.452 87.4563 56.588C87.0883 56.724 86.7763 56.904 86.5203 57.128L86.1363 56.492C86.4563 56.22 86.8403 56.012 87.2883 55.868C87.7363 55.716 88.2083 55.64 88.7043 55.64C89.5203 55.64 90.1483 55.844 90.5883 56.252C91.0363 56.652 91.2603 57.264 91.2603 58.088V62H90.4443ZM88.2723 62.06C87.8003 62.06 87.3883 61.984 87.0363 61.832C86.6923 61.672 86.4283 61.456 86.2443 61.184C86.0603 60.904 85.9683 60.584 85.9683 60.224C85.9683 59.896 86.0443 59.6 86.1963 59.336C86.3563 59.064 86.6123 58.848 86.9643 58.688C87.3243 58.52 87.8043 58.436 88.4043 58.436H90.5763V59.072H88.4283C87.8203 59.072 87.3963 59.18 87.1563 59.396C86.9243 59.612 86.8083 59.88 86.8083 60.2C86.8083 60.56 86.9483 60.848 87.2283 61.064C87.5083 61.28 87.9003 61.388 88.4043 61.388C88.8843 61.388 89.2963 61.28 89.6403 61.064C89.9923 60.84 90.2483 60.52 90.4083 60.104L90.6003 60.692C90.4403 61.108 90.1603 61.44 89.7603 61.688C89.3683 61.936 88.8723 62.06 88.2723 62.06ZM97.5964 62V59.732L97.7524 59.912H95.6164C94.8084 59.912 94.1764 59.736 93.7204 59.384C93.2644 59.032 93.0364 58.52 93.0364 57.848C93.0364 57.128 93.2804 56.592 93.7684 56.24C94.2564 55.88 94.9084 55.7 95.7244 55.7H98.3764V62H97.5964ZM92.9884 62L94.7164 59.576H95.6044L93.9124 62H92.9884ZM97.5964 59.48V56.192L97.7524 56.444H95.7484C95.1644 56.444 94.7084 56.556 94.3804 56.78C94.0604 57.004 93.9004 57.368 93.9004 57.872C93.9004 58.808 94.4964 59.276 95.6884 59.276H97.7524L97.5964 59.48ZM108.266 61.592V56.444H105.23L105.158 57.848C105.142 58.272 105.114 58.688 105.074 59.096C105.042 59.504 104.982 59.88 104.894 60.224C104.814 60.56 104.698 60.836 104.546 61.052C104.394 61.26 104.198 61.38 103.958 61.412L103.106 61.256C103.354 61.264 103.558 61.176 103.718 60.992C103.878 60.8 104.002 60.54 104.09 60.212C104.178 59.884 104.242 59.512 104.282 59.096C104.322 58.672 104.354 58.24 104.378 57.8L104.462 55.7H109.118V61.592H108.266ZM102.842 63.524V61.256H110.102V63.524H109.298V62H103.646V63.524H102.842ZM114.355 62.06C113.747 62.06 113.199 61.924 112.711 61.652C112.231 61.372 111.851 60.992 111.571 60.512C111.291 60.024 111.151 59.468 111.151 58.844C111.151 58.212 111.291 57.656 111.571 57.176C111.851 56.696 112.231 56.32 112.711 56.048C113.191 55.776 113.739 55.64 114.355 55.64C114.979 55.64 115.531 55.776 116.011 56.048C116.499 56.32 116.879 56.696 117.151 57.176C117.431 57.656 117.571 58.212 117.571 58.844C117.571 59.468 117.431 60.024 117.151 60.512C116.879 60.992 116.499 61.372 116.011 61.652C115.523 61.924 114.971 62.06 114.355 62.06ZM114.355 61.304C114.811 61.304 115.215 61.204 115.567 61.004C115.919 60.796 116.195 60.508 116.395 60.14C116.603 59.764 116.707 59.332 116.707 58.844C116.707 58.348 116.603 57.916 116.395 57.548C116.195 57.18 115.919 56.896 115.567 56.696C115.215 56.488 114.815 56.384 114.367 56.384C113.919 56.384 113.519 56.488 113.167 56.696C112.815 56.896 112.535 57.18 112.327 57.548C112.119 57.916 112.015 58.348 112.015 58.844C112.015 59.332 112.119 59.764 112.327 60.14C112.535 60.508 112.815 60.796 113.167 61.004C113.519 61.204 113.915 61.304 114.355 61.304ZM122.032 62.06C121.408 62.06 120.848 61.924 120.352 61.652C119.864 61.372 119.48 60.992 119.2 60.512C118.92 60.024 118.78 59.468 118.78 58.844C118.78 58.212 118.92 57.656 119.2 57.176C119.48 56.696 119.864 56.32 120.352 56.048C120.848 55.776 121.408 55.64 122.032 55.64C122.568 55.64 123.052 55.744 123.484 55.952C123.916 56.16 124.256 56.472 124.504 56.888L123.868 57.32C123.652 57 123.384 56.764 123.064 56.612C122.744 56.46 122.396 56.384 122.02 56.384C121.572 56.384 121.168 56.488 120.808 56.696C120.448 56.896 120.164 57.18 119.956 57.548C119.748 57.916 119.644 58.348 119.644 58.844C119.644 59.34 119.748 59.772 119.956 60.14C120.164 60.508 120.448 60.796 120.808 61.004C121.168 61.204 121.572 61.304 122.02 61.304C122.396 61.304 122.744 61.228 123.064 61.076C123.384 60.924 123.652 60.692 123.868 60.38L124.504 60.812C124.256 61.22 123.916 61.532 123.484 61.748C123.052 61.956 122.568 62.06 122.032 62.06ZM127.236 62V56.216L127.452 56.444H124.848V55.7H130.476V56.444H127.872L128.088 56.216V62H127.236ZM135.62 62V60.608L135.584 60.38V58.052C135.584 57.516 135.432 57.104 135.128 56.816C134.832 56.528 134.388 56.384 133.796 56.384C133.388 56.384 133 56.452 132.632 56.588C132.264 56.724 131.952 56.904 131.696 57.128L131.312 56.492C131.632 56.22 132.016 56.012 132.464 55.868C132.912 55.716 133.384 55.64 133.88 55.64C134.696 55.64 135.324 55.844 135.764 56.252C136.212 56.652 136.436 57.264 136.436 58.088V62H135.62ZM133.448 62.06C132.976 62.06 132.564 61.984 132.212 61.832C131.868 61.672 131.604 61.456 131.42 61.184C131.236 60.904 131.144 60.584 131.144 60.224C131.144 59.896 131.22 59.6 131.372 59.336C131.532 59.064 131.788 58.848 132.14 58.688C132.5 58.52 132.98 58.436 133.58 58.436H135.752V59.072H133.604C132.996 59.072 132.572 59.18 132.332 59.396C132.1 59.612 131.984 59.88 131.984 60.2C131.984 60.56 132.124 60.848 132.404 61.064C132.684 61.28 133.076 61.388 133.58 61.388C134.06 61.388 134.472 61.28 134.816 61.064C135.168 60.84 135.424 60.52 135.584 60.104L135.776 60.692C135.616 61.108 135.336 61.44 134.936 61.688C134.544 61.936 134.048 62.06 133.448 62.06ZM138.704 62V55.7H141.488C142.2 55.7 142.76 55.836 143.168 56.108C143.584 56.38 143.792 56.78 143.792 57.308C143.792 57.82 143.596 58.216 143.204 58.496C142.812 58.768 142.296 58.904 141.656 58.904L141.824 58.652C142.576 58.652 143.128 58.792 143.48 59.072C143.832 59.352 144.008 59.756 144.008 60.284C144.008 60.828 143.808 61.252 143.408 61.556C143.016 61.852 142.404 62 141.572 62H138.704ZM139.532 61.328H141.536C142.072 61.328 142.476 61.244 142.748 61.076C143.028 60.9 143.168 60.62 143.168 60.236C143.168 59.852 143.044 59.572 142.796 59.396C142.548 59.22 142.156 59.132 141.62 59.132H139.532V61.328ZM139.532 58.496H141.428C141.916 58.496 142.288 58.404 142.544 58.22C142.808 58.036 142.94 57.768 142.94 57.416C142.94 57.064 142.808 56.8 142.544 56.624C142.288 56.448 141.916 56.36 141.428 56.36H139.532V58.496ZM150.625 62L148.033 58.88L148.741 58.46L151.633 62H150.625ZM146.005 62V55.7H146.857V62H146.005ZM146.593 59.192V58.46H148.621V59.192H146.593ZM148.813 58.94L148.021 58.82L150.529 55.7H151.453L148.813 58.94ZM156.772 62V60.608L156.736 60.38V58.052C156.736 57.516 156.584 57.104 156.28 56.816C155.984 56.528 155.54 56.384 154.948 56.384C154.54 56.384 154.152 56.452 153.784 56.588C153.416 56.724 153.104 56.904 152.848 57.128L152.464 56.492C152.784 56.22 153.168 56.012 153.616 55.868C154.064 55.716 154.536 55.64 155.032 55.64C155.848 55.64 156.476 55.844 156.916 56.252C157.364 56.652 157.588 57.264 157.588 58.088V62H156.772ZM154.6 62.06C154.128 62.06 153.716 61.984 153.364 61.832C153.02 61.672 152.756 61.456 152.572 61.184C152.388 60.904 152.296 60.584 152.296 60.224C152.296 59.896 152.372 59.6 152.524 59.336C152.684 59.064 152.94 58.848 153.292 58.688C153.652 58.52 154.132 58.436 154.732 58.436H156.904V59.072H154.756C154.148 59.072 153.724 59.18 153.484 59.396C153.252 59.612 153.136 59.88 153.136 60.2C153.136 60.56 153.276 60.848 153.556 61.064C153.836 61.28 154.228 61.388 154.732 61.388C155.212 61.388 155.624 61.28 155.968 61.064C156.32 60.84 156.576 60.52 156.736 60.104L156.928 60.692C156.768 61.108 156.488 61.44 156.088 61.688C155.696 61.936 155.2 62.06 154.6 62.06Z" fill="#707D89"/>
<path d="M8.66668 89.3333C8.66668 90.0697 7.02505 90.6667 5.00001 90.6667C2.97497 90.6667 1.33334 90.0697 1.33334 89.3333M8.66668 89.3333C8.66668 88.597 7.02505 88 5.00001 88C2.97497 88 1.33334 88.597 1.33334 89.3333M8.66668 89.3333V90.3333M1.33334 89.3333V97.3333C1.33334 98.0697 2.97497 98.6667 5.00001 98.6667M5.00001 93.3333C4.88765 93.3333 4.77646 93.3315 4.66668 93.3279C2.79784 93.2667 1.33334 92.6955 1.33334 92M5.00001 96C2.97497 96 1.33334 95.403 1.33334 94.6667M14.6667 93.6667C14.6667 94.403 13.0251 95 11 95C8.97497 95 7.33334 94.403 7.33334 93.6667M14.6667 93.6667C14.6667 92.9303 13.0251 92.3333 11 92.3333C8.97497 92.3333 7.33334 92.9303 7.33334 93.6667M14.6667 93.6667V98.6667C14.6667 99.403 13.0251 100 11 100C8.97497 100 7.33334 99.403 7.33334 98.6667V93.6667M14.6667 96.1667C14.6667 96.903 13.0251 97.5 11 97.5C8.97497 97.5 7.33334 96.903 7.33334 96.1667" stroke="#28CB47" stroke-width="1.5" stroke-linecap="round" stroke-linejoin="round"/>
<path d="M31.1 98.072C30.468 98.072 29.88 97.968 29.336 97.76C28.8 97.544 28.332 97.244 27.932 96.86C27.54 96.468 27.232 96.016 27.008 95.504C26.792 94.984 26.684 94.416 26.684 93.8C26.684 93.184 26.792 92.62 27.008 92.108C27.232 91.588 27.54 91.136 27.932 90.752C28.332 90.36 28.8 90.06 29.336 89.852C29.872 89.636 30.46 89.528 31.1 89.528C31.732 89.528 32.316 89.636 32.852 89.852C33.388 90.06 33.852 90.356 34.244 90.74C34.644 91.124 34.952 91.576 35.168 92.096C35.392 92.616 35.504 93.184 35.504 93.8C35.504 94.416 35.392 94.984 35.168 95.504C34.952 96.024 34.644 96.476 34.244 96.86C33.852 97.244 33.388 97.544 32.852 97.76C32.316 97.968 31.732 98.072 31.1 98.072ZM31.1 97.28C31.604 97.28 32.068 97.196 32.492 97.028C32.924 96.852 33.296 96.608 33.608 96.296C33.928 95.976 34.176 95.608 34.352 95.192C34.528 94.768 34.616 94.304 34.616 93.8C34.616 93.296 34.528 92.836 34.352 92.42C34.176 91.996 33.928 91.628 33.608 91.316C33.296 90.996 32.924 90.752 32.492 90.584C32.068 90.408 31.604 90.32 31.1 90.32C30.596 90.32 30.128 90.408 29.696 90.584C29.264 90.752 28.888 90.996 28.568 91.316C28.256 91.628 28.008 91.996 27.824 92.42C27.648 92.836 27.56 93.296 27.56 93.8C27.56 94.296 27.648 94.756 27.824 95.18C28.008 95.604 28.256 95.976 28.568 96.296C28.888 96.608 29.264 96.852 29.696 97.028C30.128 97.196 30.596 97.28 31.1 97.28ZM37.419 98V91.7H43.083V98H42.231V92.216L42.447 92.444H38.055L38.271 92.216V98H37.419ZM44.353 97.988L44.413 97.256C44.469 97.264 44.521 97.276 44.569 97.292C44.625 97.3 44.673 97.304 44.713 97.304C44.969 97.304 45.173 97.208 45.325 97.016C45.485 96.824 45.605 96.568 45.685 96.248C45.765 95.928 45.821 95.568 45.853 95.168C45.885 94.76 45.913 94.352 45.937 93.944L46.045 91.7H50.665V98H49.813V92.192L50.029 92.444H46.597L46.801 92.18L46.705 94.004C46.681 94.548 46.637 95.068 46.573 95.564C46.517 96.06 46.425 96.496 46.297 96.872C46.177 97.248 46.009 97.544 45.793 97.76C45.577 97.968 45.301 98.072 44.965 98.072C44.869 98.072 44.769 98.064 44.665 98.048C44.569 98.032 44.465 98.012 44.353 97.988ZM56.999 98V96.608L56.963 96.38V94.052C56.963 93.516 56.811 93.104 56.507 92.816C56.211 92.528 55.767 92.384 55.175 92.384C54.767 92.384 54.379 92.452 54.011 92.588C53.643 92.724 53.331 92.904 53.075 93.128L52.691 92.492C53.011 92.22 53.395 92.012 53.843 91.868C54.291 91.716 54.763 91.64 55.259 91.64C56.075 91.64 56.703 91.844 57.143 92.252C57.591 92.652 57.815 93.264 57.815 94.088V98H56.999ZM54.827 98.06C54.355 98.06 53.943 97.984 53.591 97.832C53.247 97.672 52.983 97.456 52.799 97.184C52.615 96.904 52.523 96.584 52.523 96.224C52.523 95.896 52.599 95.6 52.751 95.336C52.911 95.064 53.167 94.848 53.519 94.688C53.879 94.52 54.359 94.436 54.959 94.436H57.131V95.072H54.983C54.375 95.072 53.951 95.18 53.711 95.396C53.479 95.612 53.363 95.88 53.363 96.2C53.363 96.56 53.503 96.848 53.783 97.064C54.063 97.28 54.455 97.388 54.959 97.388C55.439 97.388 55.851 97.28 56.195 97.064C56.547 96.84 56.803 96.52 56.963 96.104L57.155 96.692C56.995 97.108 56.715 97.44 56.315 97.688C55.923 97.936 55.427 98.06 54.827 98.06ZM61.2831 98V92.216L61.4991 92.444H58.8951V91.7H64.5231V92.444H61.9191L62.1351 92.216V98H61.2831ZM69.667 98V96.608L69.631 96.38V94.052C69.631 93.516 69.479 93.104 69.175 92.816C68.879 92.528 68.435 92.384 67.843 92.384C67.435 92.384 67.047 92.452 66.679 92.588C66.311 92.724 65.999 92.904 65.743 93.128L65.359 92.492C65.679 92.22 66.063 92.012 66.511 91.868C66.959 91.716 67.431 91.64 67.927 91.64C68.743 91.64 69.371 91.844 69.811 92.252C70.259 92.652 70.483 93.264 70.483 94.088V98H69.667ZM67.495 98.06C67.023 98.06 66.611 97.984 66.259 97.832C65.915 97.672 65.651 97.456 65.467 97.184C65.283 96.904 65.191 96.584 65.191 96.224C65.191 95.896 65.267 95.6 65.419 95.336C65.579 95.064 65.835 94.848 66.187 94.688C66.547 94.52 67.027 94.436 67.627 94.436H69.799V95.072H67.651C67.043 95.072 66.619 95.18 66.379 95.396C66.147 95.612 66.031 95.88 66.031 96.2C66.031 96.56 66.171 96.848 66.451 97.064C66.731 97.28 67.123 97.388 67.627 97.388C68.107 97.388 68.519 97.28 68.863 97.064C69.215 96.84 69.471 96.52 69.631 96.104L69.823 96.692C69.663 97.108 69.383 97.44 68.983 97.688C68.591 97.936 68.095 98.06 67.495 98.06ZM75.8917 98V91.7H81.5557V98H80.7037V92.216L80.9197 92.444H76.5277L76.7437 92.216V98H75.8917ZM87.2296 98.06C86.6856 98.06 86.1936 97.936 85.7536 97.688C85.3136 97.432 84.9616 97.068 84.6976 96.596C84.4416 96.116 84.3136 95.532 84.3136 94.844C84.3136 94.156 84.4416 93.576 84.6976 93.104C84.9536 92.624 85.3016 92.26 85.7416 92.012C86.1816 91.764 86.6776 91.64 87.2296 91.64C87.8296 91.64 88.3656 91.776 88.8376 92.048C89.3176 92.312 89.6936 92.688 89.9656 93.176C90.2376 93.656 90.3736 94.212 90.3736 94.844C90.3736 95.484 90.2376 96.044 89.9656 96.524C89.6936 97.004 89.3176 97.38 88.8376 97.652C88.3656 97.924 87.8296 98.06 87.2296 98.06ZM83.9776 100.328V91.7H84.7936V93.596L84.7096 94.856L84.8296 96.128V100.328H83.9776ZM87.1696 97.304C87.6176 97.304 88.0176 97.204 88.3696 97.004C88.7216 96.796 89.0016 96.508 89.2096 96.14C89.4176 95.764 89.5216 95.332 89.5216 94.844C89.5216 94.356 89.4176 93.928 89.2096 93.56C89.0016 93.192 88.7216 92.904 88.3696 92.696C88.0176 92.488 87.6176 92.384 87.1696 92.384C86.7216 92.384 86.3176 92.488 85.9576 92.696C85.6056 92.904 85.3256 93.192 85.1176 93.56C84.9176 93.928 84.8176 94.356 84.8176 94.844C84.8176 95.332 84.9176 95.764 85.1176 96.14C85.3256 96.508 85.6056 96.796 85.9576 97.004C86.3176 97.204 86.7216 97.304 87.1696 97.304ZM92.2042 98V91.7H93.0562V96.704L97.2682 91.7H98.0242V98H97.1722V92.984L92.9722 98H92.2042ZM103.607 98V91.7H109.271V98H108.419V92.216L108.635 92.444H104.243L104.459 92.216V98H103.607ZM114.284 98.06C113.676 98.06 113.128 97.924 112.64 97.652C112.16 97.372 111.78 96.992 111.5 96.512C111.22 96.024 111.08 95.468 111.08 94.844C111.08 94.212 111.22 93.656 111.5 93.176C111.78 92.696 112.16 92.32 112.64 92.048C113.12 91.776 113.668 91.64 114.284 91.64C114.908 91.64 115.46 91.776 115.94 92.048C116.428 92.32 116.808 92.696 117.08 93.176C117.36 93.656 117.5 94.212 117.5 94.844C117.5 95.468 117.36 96.024 117.08 96.512C116.808 96.992 116.428 97.372 115.94 97.652C115.452 97.924 114.9 98.06 114.284 98.06ZM114.284 97.304C114.74 97.304 115.144 97.204 115.496 97.004C115.848 96.796 116.124 96.508 116.324 96.14C116.532 95.764 116.636 95.332 116.636 94.844C116.636 94.348 116.532 93.916 116.324 93.548C116.124 93.18 115.848 92.896 115.496 92.696C115.144 92.488 114.744 92.384 114.296 92.384C113.848 92.384 113.448 92.488 113.096 92.696C112.744 92.896 112.464 93.18 112.256 93.548C112.048 93.916 111.944 94.348 111.944 94.844C111.944 95.332 112.048 95.764 112.256 96.14C112.464 96.508 112.744 96.796 113.096 97.004C113.448 97.204 113.844 97.304 114.284 97.304ZM118.134 97.988L118.194 97.256C118.25 97.264 118.302 97.276 118.35 97.292C118.406 97.3 118.454 97.304 118.494 97.304C118.75 97.304 118.954 97.208 119.106 97.016C119.266 96.824 119.386 96.568 119.466 96.248C119.546 95.928 119.602 95.568 119.634 95.168C119.666 94.76 119.694 94.352 119.718 93.944L119.826 91.7H124.446V98H123.594V92.192L123.81 92.444H120.378L120.582 92.18L120.486 94.004C120.462 94.548 120.418 95.068 120.354 95.564C120.298 96.06 120.206 96.496 120.078 96.872C119.958 97.248 119.79 97.544 119.574 97.76C119.358 97.968 119.082 98.072 118.746 98.072C118.65 98.072 118.55 98.064 118.446 98.048C118.35 98.032 118.246 98.012 118.134 97.988ZM126.976 100.388C126.68 100.388 126.396 100.34 126.124 100.244C125.86 100.148 125.632 100.004 125.44 99.812L125.836 99.176C125.996 99.328 126.168 99.444 126.352 99.524C126.544 99.612 126.756 99.656 126.988 99.656C127.268 99.656 127.508 99.576 127.708 99.416C127.916 99.264 128.112 98.992 128.296 98.6L128.704 97.676L128.8 97.544L131.392 91.7H132.232L129.076 98.756C128.9 99.164 128.704 99.488 128.488 99.728C128.28 99.968 128.052 100.136 127.804 100.232C127.556 100.336 127.28 100.388 126.976 100.388ZM128.656 98.18L125.752 91.7H126.64L129.208 97.484L128.656 98.18ZM137.544 95.336C137.176 95.496 136.804 95.624 136.428 95.72C136.06 95.808 135.692 95.852 135.324 95.852C134.58 95.852 133.992 95.684 133.56 95.348C133.128 95.004 132.912 94.476 132.912 93.764V91.7H133.752V93.716C133.752 94.196 133.908 94.556 134.22 94.796C134.532 95.036 134.952 95.156 135.48 95.156C135.8 95.156 136.136 95.116 136.488 95.036C136.84 94.948 137.196 94.824 137.556 94.664L137.544 95.336ZM137.472 98V91.7H138.324V98H137.472ZM143.443 98.06C142.787 98.06 142.211 97.924 141.715 97.652C141.219 97.372 140.831 96.992 140.551 96.512C140.271 96.024 140.131 95.468 140.131 94.844C140.131 94.22 140.263 93.668 140.527 93.188C140.799 92.708 141.167 92.332 141.631 92.06C142.103 91.78 142.631 91.64 143.215 91.64C143.807 91.64 144.331 91.776 144.787 92.048C145.251 92.312 145.615 92.688 145.879 93.176C146.143 93.656 146.275 94.212 146.275 94.844C146.275 94.884 146.271 94.928 146.263 94.976C146.263 95.016 146.263 95.06 146.263 95.108H140.779V94.472H145.807L145.471 94.724C145.471 94.268 145.371 93.864 145.171 93.512C144.979 93.152 144.715 92.872 144.379 92.672C144.043 92.472 143.655 92.372 143.215 92.372C142.783 92.372 142.395 92.472 142.051 92.672C141.707 92.872 141.439 93.152 141.247 93.512C141.055 93.872 140.959 94.284 140.959 94.748V94.88C140.959 95.36 141.063 95.784 141.271 96.152C141.487 96.512 141.783 96.796 142.159 97.004C142.543 97.204 142.979 97.304 143.467 97.304C143.851 97.304 144.207 97.236 144.535 97.1C144.871 96.964 145.159 96.756 145.399 96.476L145.879 97.028C145.599 97.364 145.247 97.62 144.823 97.796C144.407 97.972 143.947 98.06 143.443 98.06ZM148.161 98V91.7H149.013V94.484H152.985V91.7H153.837V98H152.985V95.216H149.013V98H148.161ZM156.259 98V91.7H157.111V96.704L161.323 91.7H162.079V98H161.227V92.984L157.027 98H156.259ZM164.521 98V91.7H165.373V96.704L169.585 91.7H170.341V98H169.489V92.984L165.289 98H164.521Z" fill="#707D89"/>
<path d="M8.00001 128.333V131L9.66668 132M8.00001 125.333C4.8704 125.333 2.33334 127.87 2.33334 131C2.33334 134.13 4.8704 136.667 8.00001 136.667C11.1296 136.667 13.6667 134.13 13.6667 131C13.6667 127.87 11.1296 125.333 8.00001 125.333ZM8.00001 125.333V123.333M6.66668 123.333H9.33334M13.5527 125.728L12.5527 124.728L13.0527 125.228M2.44736 125.728L3.44736 124.728L2.94736 125.228" stroke="#28CB47" stroke-width="1.5" stroke-linecap="round" stroke-linejoin="round"/>
<path d="M27.416 134V125.6H33.56V126.356H28.292V129.104H31.04C32.032 129.104 32.784 129.308 33.296 129.716C33.816 130.116 34.076 130.708 34.076 131.492C34.076 132.3 33.796 132.92 33.236 133.352C32.684 133.784 31.888 134 30.848 134H27.416ZM28.292 133.292H30.836C31.612 133.292 32.196 133.144 32.588 132.848C32.988 132.544 33.188 132.104 33.188 131.528C33.188 130.384 32.404 129.812 30.836 129.812H28.292V133.292ZM42.063 134V127.7H42.915V134H42.063ZM38.571 129.92C39.363 129.928 39.967 130.104 40.383 130.448C40.799 130.792 41.007 131.288 41.007 131.936C41.007 132.608 40.783 133.124 40.335 133.484C39.887 133.844 39.247 134.02 38.415 134.012L35.919 134V127.7H36.771V129.896L38.571 129.92ZM38.355 133.364C38.947 133.372 39.391 133.256 39.687 133.016C39.991 132.768 40.143 132.408 40.143 131.936C40.143 131.464 39.995 131.12 39.699 130.904C39.403 130.68 38.955 130.564 38.355 130.556L36.771 130.532V133.34L38.355 133.364ZM47.9809 134.06C47.3569 134.06 46.7969 133.924 46.3009 133.652C45.8129 133.372 45.4289 132.992 45.1489 132.512C44.8689 132.024 44.7289 131.468 44.7289 130.844C44.7289 130.212 44.8689 129.656 45.1489 129.176C45.4289 128.696 45.8129 128.32 46.3009 128.048C46.7969 127.776 47.3569 127.64 47.9809 127.64C48.5169 127.64 49.0009 127.744 49.4329 127.952C49.8649 128.16 50.2049 128.472 50.4529 128.888L49.8169 129.32C49.6009 129 49.3329 128.764 49.0129 128.612C48.6929 128.46 48.3449 128.384 47.9689 128.384C47.5209 128.384 47.1169 128.488 46.7569 128.696C46.3969 128.896 46.1129 129.18 45.9049 129.548C45.6969 129.916 45.5929 130.348 45.5929 130.844C45.5929 131.34 45.6969 131.772 45.9049 132.14C46.1129 132.508 46.3969 132.796 46.7569 133.004C47.1169 133.204 47.5209 133.304 47.9689 133.304C48.3449 133.304 48.6929 133.228 49.0129 133.076C49.3329 132.924 49.6009 132.692 49.8169 132.38L50.4529 132.812C50.2049 133.22 49.8649 133.532 49.4329 133.748C49.0009 133.956 48.5169 134.06 47.9809 134.06ZM53.1854 134V128.216L53.4014 128.444H50.7974V127.7H56.4254V128.444H53.8214L54.0374 128.216V134H53.1854ZM60.9093 134.06C60.3653 134.06 59.8733 133.936 59.4333 133.688C58.9933 133.432 58.6413 133.068 58.3773 132.596C58.1213 132.116 57.9933 131.532 57.9933 130.844C57.9933 130.156 58.1213 129.576 58.3773 129.104C58.6333 128.624 58.9813 128.26 59.4213 128.012C59.8613 127.764 60.3573 127.64 60.9093 127.64C61.5093 127.64 62.0453 127.776 62.5173 128.048C62.9973 128.312 63.3733 128.688 63.6453 129.176C63.9173 129.656 64.0533 130.212 64.0533 130.844C64.0533 131.484 63.9173 132.044 63.6453 132.524C63.3733 133.004 62.9973 133.38 62.5173 133.652C62.0453 133.924 61.5093 134.06 60.9093 134.06ZM57.6573 136.328V127.7H58.4733V129.596L58.3893 130.856L58.5093 132.128V136.328H57.6573ZM60.8493 133.304C61.2973 133.304 61.6973 133.204 62.0493 133.004C62.4013 132.796 62.6813 132.508 62.8893 132.14C63.0973 131.764 63.2013 131.332 63.2013 130.844C63.2013 130.356 63.0973 129.928 62.8893 129.56C62.6813 129.192 62.4013 128.904 62.0493 128.696C61.6973 128.488 61.2973 128.384 60.8493 128.384C60.4013 128.384 59.9973 128.488 59.6373 128.696C59.2853 128.904 59.0053 129.192 58.7973 129.56C58.5973 129.928 58.4973 130.356 58.4973 130.844C58.4973 131.332 58.5973 131.764 58.7973 132.14C59.0053 132.508 59.2853 132.796 59.6373 133.004C59.9973 133.204 60.4013 133.304 60.8493 133.304ZM69.7607 134V132.608L69.7247 132.38V130.052C69.7247 129.516 69.5727 129.104 69.2687 128.816C68.9727 128.528 68.5287 128.384 67.9367 128.384C67.5287 128.384 67.1407 128.452 66.7727 128.588C66.4047 128.724 66.0927 128.904 65.8367 129.128L65.4527 128.492C65.7727 128.22 66.1567 128.012 66.6047 127.868C67.0527 127.716 67.5247 127.64 68.0207 127.64C68.8367 127.64 69.4647 127.844 69.9047 128.252C70.3527 128.652 70.5767 129.264 70.5767 130.088V134H69.7607ZM67.5887 134.06C67.1167 134.06 66.7047 133.984 66.3527 133.832C66.0087 133.672 65.7447 133.456 65.5607 133.184C65.3767 132.904 65.2847 132.584 65.2847 132.224C65.2847 131.896 65.3607 131.6 65.5127 131.336C65.6727 131.064 65.9287 130.848 66.2807 130.688C66.6407 130.52 67.1207 130.436 67.7207 130.436H69.8927V131.072H67.7447C67.1367 131.072 66.7127 131.18 66.4727 131.396C66.2407 131.612 66.1247 131.88 66.1247 132.2C66.1247 132.56 66.2647 132.848 66.5447 133.064C66.8247 133.28 67.2167 133.388 67.7207 133.388C68.2007 133.388 68.6127 133.28 68.9567 133.064C69.3087 132.84 69.5647 132.52 69.7247 132.104L69.9167 132.692C69.7567 133.108 69.4767 133.44 69.0767 133.688C68.6847 133.936 68.1887 134.06 67.5887 134.06ZM76.9128 134V131.732L77.0688 131.912H74.9328C74.1248 131.912 73.4928 131.736 73.0368 131.384C72.5808 131.032 72.3528 130.52 72.3528 129.848C72.3528 129.128 72.5968 128.592 73.0848 128.24C73.5728 127.88 74.2248 127.7 75.0408 127.7H77.6928V134H76.9128ZM72.3048 134L74.0328 131.576H74.9208L73.2288 134H72.3048ZM76.9128 131.48V128.192L77.0688 128.444H75.0648C74.4808 128.444 74.0248 128.556 73.6968 128.78C73.3768 129.004 73.2168 129.368 73.2168 129.872C73.2168 130.808 73.8128 131.276 75.0048 131.276H77.0688L76.9128 131.48ZM87.1508 134.072C86.5188 134.072 85.9308 133.968 85.3868 133.76C84.8508 133.544 84.3828 133.244 83.9828 132.86C83.5908 132.468 83.2828 132.016 83.0588 131.504C82.8428 130.984 82.7348 130.416 82.7348 129.8C82.7348 129.184 82.8428 128.62 83.0588 128.108C83.2828 127.588 83.5908 127.136 83.9828 126.752C84.3828 126.36 84.8508 126.06 85.3868 125.852C85.9228 125.636 86.5108 125.528 87.1508 125.528C87.7828 125.528 88.3668 125.636 88.9028 125.852C89.4388 126.06 89.9028 126.356 90.2948 126.74C90.6948 127.124 91.0028 127.576 91.2188 128.096C91.4428 128.616 91.5548 129.184 91.5548 129.8C91.5548 130.416 91.4428 130.984 91.2188 131.504C91.0028 132.024 90.6948 132.476 90.2948 132.86C89.9028 133.244 89.4388 133.544 88.9028 133.76C88.3668 133.968 87.7828 134.072 87.1508 134.072ZM87.1508 133.28C87.6548 133.28 88.1188 133.196 88.5428 133.028C88.9748 132.852 89.3468 132.608 89.6588 132.296C89.9788 131.976 90.2268 131.608 90.4028 131.192C90.5788 130.768 90.6668 130.304 90.6668 129.8C90.6668 129.296 90.5788 128.836 90.4028 128.42C90.2268 127.996 89.9788 127.628 89.6588 127.316C89.3468 126.996 88.9748 126.752 88.5428 126.584C88.1188 126.408 87.6548 126.32 87.1508 126.32C86.6468 126.32 86.1788 126.408 85.7468 126.584C85.3148 126.752 84.9388 126.996 84.6188 127.316C84.3068 127.628 84.0588 127.996 83.8748 128.42C83.6988 128.836 83.6108 129.296 83.6108 129.8C83.6108 130.296 83.6988 130.756 83.8748 131.18C84.0588 131.604 84.3068 131.976 84.6188 132.296C84.9388 132.608 85.3148 132.852 85.7468 133.028C86.1788 133.196 86.6468 133.28 87.1508 133.28ZM94.494 134V128.216L94.71 128.444H92.106V127.7H97.734V128.444H95.13L95.346 128.216V134H94.494ZM98.9659 134V127.7H104.63V134H103.778V128.216L103.994 128.444H99.6019L99.8179 128.216V134H98.9659ZM110.304 134.06C109.76 134.06 109.268 133.936 108.828 133.688C108.388 133.432 108.036 133.068 107.772 132.596C107.516 132.116 107.388 131.532 107.388 130.844C107.388 130.156 107.516 129.576 107.772 129.104C108.028 128.624 108.376 128.26 108.816 128.012C109.256 127.764 109.752 127.64 110.304 127.64C110.904 127.64 111.44 127.776 111.912 128.048C112.392 128.312 112.768 128.688 113.04 129.176C113.312 129.656 113.448 130.212 113.448 130.844C113.448 131.484 113.312 132.044 113.04 132.524C112.768 133.004 112.392 133.38 111.912 133.652C111.44 133.924 110.904 134.06 110.304 134.06ZM107.052 136.328V127.7H107.868V129.596L107.784 130.856L107.904 132.128V136.328H107.052ZM110.244 133.304C110.692 133.304 111.092 133.204 111.444 133.004C111.796 132.796 112.076 132.508 112.284 132.14C112.492 131.764 112.596 131.332 112.596 130.844C112.596 130.356 112.492 129.928 112.284 129.56C112.076 129.192 111.796 128.904 111.444 128.696C111.092 128.488 110.692 128.384 110.244 128.384C109.796 128.384 109.392 128.488 109.032 128.696C108.68 128.904 108.4 129.192 108.192 129.56C107.992 129.928 107.892 130.356 107.892 130.844C107.892 131.332 107.992 131.764 108.192 132.14C108.4 132.508 108.68 132.796 109.032 133.004C109.392 133.204 109.796 133.304 110.244 133.304ZM119.155 134V132.608L119.119 132.38V130.052C119.119 129.516 118.967 129.104 118.663 128.816C118.367 128.528 117.923 128.384 117.331 128.384C116.923 128.384 116.535 128.452 116.167 128.588C115.799 128.724 115.487 128.904 115.231 129.128L114.847 128.492C115.167 128.22 115.551 128.012 115.999 127.868C116.447 127.716 116.919 127.64 117.415 127.64C118.231 127.64 118.859 127.844 119.299 128.252C119.747 128.652 119.971 129.264 119.971 130.088V134H119.155ZM116.983 134.06C116.511 134.06 116.099 133.984 115.747 133.832C115.403 133.672 115.139 133.456 114.955 133.184C114.771 132.904 114.679 132.584 114.679 132.224C114.679 131.896 114.755 131.6 114.907 131.336C115.067 131.064 115.323 130.848 115.675 130.688C116.035 130.52 116.515 130.436 117.115 130.436H119.287V131.072H117.139C116.531 131.072 116.107 131.18 115.867 131.396C115.635 131.612 115.519 131.88 115.519 132.2C115.519 132.56 115.659 132.848 115.939 133.064C116.219 133.28 116.611 133.388 117.115 133.388C117.595 133.388 118.007 133.28 118.351 133.064C118.703 132.84 118.959 132.52 119.119 132.104L119.311 132.692C119.151 133.108 118.871 133.44 118.471 133.688C118.079 133.936 117.583 134.06 116.983 134.06ZM122.239 134V127.7H125.023C125.735 127.7 126.295 127.836 126.703 128.108C127.119 128.38 127.327 128.78 127.327 129.308C127.327 129.82 127.131 130.216 126.739 130.496C126.347 130.768 125.831 130.904 125.191 130.904L125.359 130.652C126.111 130.652 126.663 130.792 127.015 131.072C127.367 131.352 127.543 131.756 127.543 132.284C127.543 132.828 127.343 133.252 126.943 133.556C126.551 133.852 125.939 134 125.107 134H122.239ZM123.067 133.328H125.071C125.607 133.328 126.011 133.244 126.283 133.076C126.563 132.9 126.703 132.62 126.703 132.236C126.703 131.852 126.579 131.572 126.331 131.396C126.083 131.22 125.691 131.132 125.155 131.132H123.067V133.328ZM123.067 130.496H124.963C125.451 130.496 125.823 130.404 126.079 130.22C126.343 130.036 126.475 129.768 126.475 129.416C126.475 129.064 126.343 128.8 126.079 128.624C125.823 128.448 125.451 128.36 124.963 128.36H123.067V130.496ZM134.16 134L131.568 130.88L132.276 130.46L135.168 134H134.16ZM129.54 134V127.7H130.392V134H129.54ZM130.128 131.192V130.46H132.156V131.192H130.128ZM132.348 130.94L131.556 130.82L134.064 127.7H134.988L132.348 130.94ZM140.308 134V132.608L140.272 132.38V130.052C140.272 129.516 140.12 129.104 139.816 128.816C139.52 128.528 139.076 128.384 138.484 128.384C138.076 128.384 137.688 128.452 137.32 128.588C136.952 128.724 136.64 128.904 136.384 129.128L136 128.492C136.32 128.22 136.704 128.012 137.152 127.868C137.6 127.716 138.072 127.64 138.568 127.64C139.384 127.64 140.012 127.844 140.452 128.252C140.9 128.652 141.124 129.264 141.124 130.088V134H140.308ZM138.136 134.06C137.664 134.06 137.252 133.984 136.9 133.832C136.556 133.672 136.292 133.456 136.108 133.184C135.924 132.904 135.832 132.584 135.832 132.224C135.832 131.896 135.908 131.6 136.06 131.336C136.22 131.064 136.476 130.848 136.828 130.688C137.188 130.52 137.668 130.436 138.268 130.436H140.44V131.072H138.292C137.684 131.072 137.26 131.18 137.02 131.396C136.788 131.612 136.672 131.88 136.672 132.2C136.672 132.56 136.812 132.848 137.092 133.064C137.372 133.28 137.764 133.388 138.268 133.388C138.748 133.388 139.16 133.28 139.504 133.064C139.856 132.84 140.112 132.52 140.272 132.104L140.464 132.692C140.304 133.108 140.024 133.44 139.624 133.688C139.232 133.936 138.736 134.06 138.136 134.06ZM146.532 134V127.7H149.316C150.028 127.7 150.588 127.836 150.996 128.108C151.412 128.38 151.62 128.78 151.62 129.308C151.62 129.82 151.424 130.216 151.032 130.496C150.64 130.768 150.124 130.904 149.484 130.904L149.652 130.652C150.404 130.652 150.956 130.792 151.308 131.072C151.66 131.352 151.836 131.756 151.836 132.284C151.836 132.828 151.636 133.252 151.236 133.556C150.844 133.852 150.232 134 149.4 134H146.532ZM147.36 133.328H149.364C149.9 133.328 150.304 133.244 150.576 133.076C150.856 132.9 150.996 132.62 150.996 132.236C150.996 131.852 150.872 131.572 150.624 131.396C150.376 131.22 149.984 131.132 149.448 131.132H147.36V133.328ZM147.36 130.496H149.256C149.744 130.496 150.116 130.404 150.372 130.22C150.636 130.036 150.768 129.768 150.768 129.416C150.768 129.064 150.636 128.8 150.372 128.624C150.116 128.448 149.744 128.36 149.256 128.36H147.36V130.496ZM161.294 133.592V128.444H158.258L158.186 129.848C158.17 130.272 158.142 130.688 158.102 131.096C158.07 131.504 158.01 131.88 157.922 132.224C157.842 132.56 157.726 132.836 157.574 133.052C157.422 133.26 157.226 133.38 156.986 133.412L156.134 133.256C156.382 133.264 156.586 133.176 156.746 132.992C156.906 132.8 157.03 132.54 157.118 132.212C157.206 131.884 157.27 131.512 157.31 131.096C157.35 130.672 157.382 130.24 157.406 129.8L157.49 127.7H162.146V133.592H161.294ZM155.87 135.524V133.256H163.13V135.524H162.326V134H156.674V135.524H155.87ZM167.49 134.06C166.834 134.06 166.258 133.924 165.762 133.652C165.266 133.372 164.878 132.992 164.598 132.512C164.318 132.024 164.178 131.468 164.178 130.844C164.178 130.22 164.31 129.668 164.574 129.188C164.846 128.708 165.214 128.332 165.678 128.06C166.15 127.78 166.678 127.64 167.262 127.64C167.854 127.64 168.378 127.776 168.834 128.048C169.298 128.312 169.662 128.688 169.926 129.176C170.19 129.656 170.322 130.212 170.322 130.844C170.322 130.884 170.318 130.928 170.31 130.976C170.31 131.016 170.31 131.06 170.31 131.108H164.826V130.472H169.854L169.518 130.724C169.518 130.268 169.418 129.864 169.218 129.512C169.026 129.152 168.762 128.872 168.426 128.672C168.09 128.472 167.702 128.372 167.262 128.372C166.83 128.372 166.442 128.472 166.098 128.672C165.754 128.872 165.486 129.152 165.294 129.512C165.102 129.872 165.006 130.284 165.006 130.748V130.88C165.006 131.36 165.11 131.784 165.318 132.152C165.534 132.512 165.83 132.796 166.206 133.004C166.59 133.204 167.026 133.304 167.514 133.304C167.898 133.304 168.254 133.236 168.582 133.1C168.918 132.964 169.206 132.756 169.446 132.476L169.926 133.028C169.646 133.364 169.294 133.62 168.87 133.796C168.454 133.972 167.994 134.06 167.49 134.06ZM172.208 134V127.7H173.06V130.484H177.032V127.7H177.884V134H177.032V131.216H173.06V134H172.208ZM183.018 129.92C183.81 129.928 184.41 130.104 184.818 130.448C185.234 130.792 185.442 131.288 185.442 131.936C185.442 132.608 185.218 133.124 184.77 133.484C184.33 133.844 183.69 134.02 182.85 134.012L180.306 134V127.7H181.158V129.896L183.018 129.92ZM182.802 133.364C183.386 133.372 183.826 133.256 184.122 133.016C184.426 132.768 184.578 132.408 184.578 131.936C184.578 131.464 184.43 131.12 184.134 130.904C183.838 130.68 183.394 130.564 182.802 130.556L181.158 130.532V133.34L182.802 133.364ZM191.9 134.072C191.444 134.072 190.992 134.008 190.544 133.88C190.096 133.752 189.7 133.556 189.356 133.292L189.632 132.656C189.936 132.88 190.288 133.052 190.688 133.172C191.088 133.284 191.484 133.34 191.876 133.34C192.268 133.332 192.608 133.276 192.896 133.172C193.184 133.068 193.408 132.924 193.568 132.74C193.728 132.556 193.808 132.348 193.808 132.116C193.808 131.78 193.656 131.52 193.352 131.336C193.048 131.144 192.632 131.048 192.104 131.048H191.024V130.424H192.044C192.356 130.424 192.632 130.384 192.872 130.304C193.112 130.224 193.296 130.108 193.424 129.956C193.56 129.804 193.628 129.624 193.628 129.416C193.628 129.192 193.548 129 193.388 128.84C193.236 128.68 193.024 128.56 192.752 128.48C192.48 128.4 192.172 128.36 191.828 128.36C191.516 128.368 191.192 128.416 190.856 128.504C190.52 128.584 190.188 128.708 189.86 128.876L189.62 128.216C189.988 128.024 190.352 127.88 190.712 127.784C191.08 127.68 191.448 127.628 191.816 127.628C192.32 127.612 192.772 127.672 193.172 127.808C193.58 127.944 193.904 128.14 194.144 128.396C194.384 128.644 194.504 128.944 194.504 129.296C194.504 129.608 194.408 129.88 194.216 130.112C194.024 130.344 193.768 130.524 193.448 130.652C193.128 130.78 192.764 130.844 192.356 130.844L192.392 130.616C193.112 130.616 193.672 130.756 194.072 131.036C194.48 131.316 194.684 131.696 194.684 132.176C194.684 132.552 194.56 132.884 194.312 133.172C194.064 133.452 193.728 133.672 193.304 133.832C192.888 133.992 192.42 134.072 191.9 134.072ZM200.53 134V132.608L200.494 132.38V130.052C200.494 129.516 200.342 129.104 200.038 128.816C199.742 128.528 199.298 128.384 198.706 128.384C198.298 128.384 197.91 128.452 197.542 128.588C197.174 128.724 196.862 128.904 196.606 129.128L196.222 128.492C196.542 128.22 196.926 128.012 197.374 127.868C197.822 127.716 198.294 127.64 198.79 127.64C199.606 127.64 200.234 127.844 200.674 128.252C201.122 128.652 201.346 129.264 201.346 130.088V134H200.53ZM198.358 134.06C197.886 134.06 197.474 133.984 197.122 133.832C196.778 133.672 196.514 133.456 196.33 133.184C196.146 132.904 196.054 132.584 196.054 132.224C196.054 131.896 196.13 131.6 196.282 131.336C196.442 131.064 196.698 130.848 197.05 130.688C197.41 130.52 197.89 130.436 198.49 130.436H200.662V131.072H198.514C197.906 131.072 197.482 131.18 197.242 131.396C197.01 131.612 196.894 131.88 196.894 132.2C196.894 132.56 197.034 132.848 197.314 133.064C197.594 133.28 197.986 133.388 198.49 133.388C198.97 133.388 199.382 133.28 199.726 133.064C200.078 132.84 200.334 132.52 200.494 132.104L200.686 132.692C200.526 133.108 200.246 133.44 199.846 133.688C199.454 133.936 198.958 134.06 198.358 134.06ZM208.234 134L205.642 130.88L206.35 130.46L209.242 134H208.234ZM203.614 134V127.7H204.466V134H203.614ZM204.202 131.192V130.46H206.23V131.192H204.202ZM206.422 130.94L205.63 130.82L208.138 127.7H209.062L206.422 130.94ZM214.382 134V132.608L214.346 132.38V130.052C214.346 129.516 214.194 129.104 213.89 128.816C213.594 128.528 213.15 128.384 212.558 128.384C212.15 128.384 211.762 128.452 211.394 128.588C211.026 128.724 210.714 128.904 210.458 129.128L210.074 128.492C210.394 128.22 210.778 128.012 211.226 127.868C211.674 127.716 212.146 127.64 212.642 127.64C213.458 127.64 214.086 127.844 214.526 128.252C214.974 128.652 215.198 129.264 215.198 130.088V134H214.382ZM212.21 134.06C211.738 134.06 211.326 133.984 210.974 133.832C210.63 133.672 210.366 133.456 210.182 133.184C209.998 132.904 209.906 132.584 209.906 132.224C209.906 131.896 209.982 131.6 210.134 131.336C210.294 131.064 210.55 130.848 210.902 130.688C211.262 130.52 211.742 130.436 212.342 130.436H214.514V131.072H212.366C211.758 131.072 211.334 131.18 211.094 131.396C210.862 131.612 210.746 131.88 210.746 132.2C210.746 132.56 210.886 132.848 211.166 133.064C211.446 133.28 211.838 133.388 212.342 133.388C212.822 133.388 213.234 133.28 213.578 133.064C213.93 132.84 214.186 132.52 214.346 132.104L214.538 132.692C214.378 133.108 214.098 133.44 213.698 133.688C213.306 133.936 212.81 134.06 212.21 134.06ZM219.029 134.072C218.573 134.072 218.121 134.008 217.673 133.88C217.225 133.752 216.829 133.556 216.485 133.292L216.761 132.656C217.065 132.88 217.417 133.052 217.817 133.172C218.217 133.284 218.613 133.34 219.005 133.34C219.397 133.332 219.737 133.276 220.025 133.172C220.313 133.068 220.537 132.924 220.697 132.74C220.857 132.556 220.937 132.348 220.937 132.116C220.937 131.78 220.785 131.52 220.481 131.336C220.177 131.144 219.761 131.048 219.233 131.048H218.153V130.424H219.173C219.485 130.424 219.761 130.384 220.001 130.304C220.241 130.224 220.425 130.108 220.553 129.956C220.689 129.804 220.757 129.624 220.757 129.416C220.757 129.192 220.677 129 220.517 128.84C220.365 128.68 220.153 128.56 219.881 128.48C219.609 128.4 219.301 128.36 218.957 128.36C218.645 128.368 218.321 128.416 217.985 128.504C217.649 128.584 217.317 128.708 216.989 128.876L216.749 128.216C217.117 128.024 217.481 127.88 217.841 127.784C218.209 127.68 218.577 127.628 218.945 127.628C219.449 127.612 219.901 127.672 220.301 127.808C220.709 127.944 221.033 128.14 221.273 128.396C221.513 128.644 221.633 128.944 221.633 129.296C221.633 129.608 221.537 129.88 221.345 130.112C221.153 130.344 220.897 130.524 220.577 130.652C220.257 130.78 219.893 130.844 219.485 130.844L219.521 130.616C220.241 130.616 220.801 130.756 221.201 131.036C221.609 131.316 221.813 131.696 221.813 132.176C221.813 132.552 221.689 132.884 221.441 133.172C221.193 133.452 220.857 133.672 220.433 133.832C220.017 133.992 219.549 134.072 219.029 134.072ZM227.659 134V132.608L227.623 132.38V130.052C227.623 129.516 227.471 129.104 227.167 128.816C226.871 128.528 226.427 128.384 225.835 128.384C225.427 128.384 225.039 128.452 224.671 128.588C224.303 128.724 223.991 128.904 223.735 129.128L223.351 128.492C223.671 128.22 224.055 128.012 224.503 127.868C224.951 127.716 225.423 127.64 225.919 127.64C226.735 127.64 227.363 127.844 227.803 128.252C228.251 128.652 228.475 129.264 228.475 130.088V134H227.659ZM225.487 134.06C225.015 134.06 224.603 133.984 224.251 133.832C223.907 133.672 223.643 133.456 223.459 133.184C223.275 132.904 223.183 132.584 223.183 132.224C223.183 131.896 223.259 131.6 223.411 131.336C223.571 131.064 223.827 130.848 224.179 130.688C224.539 130.52 225.019 130.436 225.619 130.436H227.791V131.072H225.643C225.035 131.072 224.611 131.18 224.371 131.396C224.139 131.612 224.023 131.88 224.023 132.2C224.023 132.56 224.163 132.848 224.443 133.064C224.723 133.28 225.115 133.388 225.619 133.388C226.099 133.388 226.511 133.28 226.855 133.064C227.207 132.84 227.463 132.52 227.623 132.104L227.815 132.692C227.655 133.108 227.375 133.44 226.975 133.688C226.583 133.936 226.087 134.06 225.487 134.06Z" fill="#707D89"/>
<defs>
<clipPath id="clip0_5998_17497">
<rect width="16" height="16" fill="white" transform="translate(0 2)"/>
</clipPath>
</defs>
</svg>
