<svg width="48" height="71" viewBox="0 0 48 71" fill="none" xmlns="http://www.w3.org/2000/svg">
<g clip-path="url(#clip0_7101_16696)">
<path d="M10.9086 0.155322C13.0093 -0.267898 15.2653 0.178618 17.0359 1.37839C18.8337 2.57816 20.1228 4.51565 20.5034 6.6434C20.9189 8.80998 20.3985 11.1396 19.0939 12.9179C17.8086 14.7001 15.7739 15.9232 13.5917 16.2066C11.4211 16.5095 9.13794 15.8882 7.42944 14.5137C5.77529 13.2091 4.67253 11.2406 4.42402 9.14777C4.15998 7.0705 4.73078 4.90004 6.00051 3.23434C7.18481 1.65406 8.96321 0.531949 10.9047 0.155322H10.9086Z" fill="#B0CB1F"/>
<path d="M11.0633 54.8439C13.1406 54.4673 15.3577 54.9371 17.0971 56.1407C18.8948 57.3638 20.1723 59.3324 20.5256 61.4834C20.9449 63.8597 20.2305 66.4029 18.6269 68.2045C17.2874 69.7537 15.346 70.7632 13.3076 70.9573C11.1798 71.1786 8.97441 70.5147 7.33201 69.1441C5.72455 67.8317 4.66067 65.8826 4.42383 63.8208C4.16368 61.7125 4.76939 59.511 6.08565 57.8414C7.30095 56.2728 9.11031 55.1817 11.0633 54.8439ZM-2.82527 13.8459C-0.821772 13.4266 1.32927 13.7993 3.06875 14.8749C4.97906 16.0358 6.37297 18.0121 6.80007 20.2098C7.25047 22.388 6.75348 24.7409 5.45275 26.5464C4.20251 28.3169 2.21066 29.5478 0.0596142 29.8623C-2.15355 30.2117 -4.50262 29.5944 -6.24986 28.1888C-7.9738 26.826 -9.10756 24.7409 -9.29005 22.5472C-9.47643 20.532 -8.8746 18.4509 -7.62824 16.8551C-6.45176 15.3253 -4.72005 14.2303 -2.82915 13.842L-2.82527 13.8459ZM24.4549 13.8615C26.4235 13.4305 28.5474 13.7644 30.283 14.7856C32.302 15.9581 33.7774 18.0354 34.1851 20.3379C34.5734 22.3957 34.1269 24.5934 32.9582 26.329C31.7002 28.2354 29.5996 29.5672 27.3321 29.8739C25.2315 30.1807 23.0183 29.6215 21.3177 28.348C19.6054 27.0822 18.4328 25.1176 18.1338 23.0131C17.8232 20.9552 18.3396 18.7809 19.5588 17.0919C20.7197 15.4573 22.5019 14.2808 24.4627 13.8615H24.4549ZM-16.6634 27.5598C-14.7647 27.1288 -12.7146 27.4006 -11.0023 28.3286C-8.94061 29.4313 -7.39527 31.462 -6.90604 33.7528C-6.47506 35.6903 -6.78568 37.787 -7.77966 39.5109C-8.91731 41.5144 -10.9325 43.0054 -13.1961 43.4674C-15.2773 43.9101 -17.5254 43.4907 -19.3037 42.3181C-21.0121 41.1999 -22.2895 39.4333 -22.7671 37.4453C-23.2913 35.3486 -22.9302 33.0461 -21.7809 31.2135C-20.6471 29.3847 -18.7679 28.0296 -16.6673 27.5637L-16.6634 27.5598ZM10.7372 27.552C12.7834 27.0939 15.0004 27.4666 16.7826 28.5771C18.5493 29.6643 19.8811 31.4503 20.3858 33.4655C20.9644 35.6864 20.5489 38.1442 19.2559 40.039C17.9552 41.9842 15.7886 43.3199 13.459 43.5839C11.3079 43.8518 9.06372 43.2034 7.38637 41.8328C5.73232 40.5088 4.64126 38.5169 4.41606 36.4086C4.19086 34.4478 4.70339 32.4132 5.8488 30.8019C7.00198 29.1634 8.77639 27.9753 10.7372 27.552ZM38.0096 27.5753C39.9083 27.1288 41.9623 27.389 43.6823 28.3131C45.5305 29.2915 46.9788 31.0077 47.6117 33.0034C48.3183 35.1778 48.0504 37.655 46.8817 39.6196C45.8334 41.4096 44.0823 42.7724 42.0865 43.3315C40.2927 43.8441 38.328 43.7121 36.6196 42.9627C34.488 42.0386 32.7834 40.1593 32.0962 37.9345C31.4361 35.865 31.6574 33.5315 32.7019 31.6212C33.793 29.6021 35.7693 28.084 38.0096 27.5715V27.5753ZM-2.34769 41.1261C-0.146173 40.8 2.17571 41.4212 3.90742 42.8229C5.60807 44.1663 6.72242 46.2164 6.92432 48.3752C7.15728 50.6233 6.39627 52.9491 4.87811 54.6226C3.3949 56.2883 1.19726 57.2862 -1.03144 57.3133C-3.21743 57.3638 -5.4073 56.4785 -6.94487 54.9216C-8.38537 53.4927 -9.25123 51.5086 -9.31723 49.4779C-9.40654 47.389 -8.64163 45.2807 -7.23219 43.7392C-5.97418 42.3337 -4.2153 41.3863 -2.34769 41.1261ZM24.917 41.1378C27.0137 40.8078 29.2346 41.3319 30.9508 42.5861C32.6941 43.8402 33.9094 45.8049 34.2201 47.9326C34.5773 50.1885 33.9289 52.5764 32.4728 54.3353C31.1333 55.9854 29.1181 57.0648 27.002 57.2706C25.0839 57.4725 23.1037 56.9639 21.5235 55.8573C19.6675 54.5799 18.394 52.4948 18.1066 50.2584C17.8077 48.0996 18.4212 45.832 19.784 44.1314C21.0342 42.5356 22.9057 41.4406 24.9131 41.1339L24.917 41.1378Z" fill="white"/>
</g>
<defs>
<clipPath id="clip0_7101_16696">
<rect width="70.9961" height="71" fill="white" transform="translate(-23)"/>
</clipPath>
</defs>
</svg>
