<svg width="40" height="40" viewBox="0 0 40 40" fill="none" xmlns="http://www.w3.org/2000/svg">
<g clip-path="url(#clip0_5588_22670)">
<path d="M19.1029 0.0874984C20.2864 -0.150935 21.5574 0.100623 22.5549 0.77655C23.5678 1.45248 24.2941 2.54402 24.5084 3.74275C24.7425 4.96336 24.4494 6.27584 23.7144 7.2777C22.9903 8.28174 21.844 8.9708 20.6145 9.13048C19.3917 9.3011 18.1054 8.95111 17.1428 8.17675C16.2109 7.44176 15.5897 6.33271 15.4497 5.15367C15.3009 3.98337 15.6225 2.76058 16.3378 1.82216C17.005 0.93186 18.0069 0.299683 19.1007 0.0874984H19.1029Z" fill="#B0CB1F"/>
<path d="M19.1911 30.8979C20.3614 30.6858 21.6105 30.9504 22.5906 31.6285C23.6034 32.3176 24.3232 33.4266 24.5222 34.6385C24.7585 35.9772 24.356 37.41 23.4525 38.425C22.6978 39.2978 21.604 39.8666 20.4555 39.9759C19.2567 40.1006 18.0142 39.7266 17.0888 38.9544C16.1832 38.215 15.5838 37.1169 15.4503 35.9554C15.3037 34.7676 15.645 33.5273 16.3866 32.5867C17.0713 31.7029 18.0907 31.0882 19.1911 30.8979ZM11.3661 7.80049C12.4949 7.56424 13.7068 7.77424 14.6868 8.38016C15.7631 9.03422 16.5485 10.1476 16.7891 11.3857C17.0429 12.6129 16.7629 13.9385 16.03 14.9557C15.3256 15.9532 14.2034 16.6466 12.9915 16.8238C11.7445 17.0207 10.4211 16.6728 9.43664 15.881C8.46535 15.1132 7.82657 13.9385 7.72376 12.7026C7.61875 11.5673 7.95783 10.3948 8.66004 9.49577C9.32288 8.63391 10.2985 8.01704 11.3639 7.7983L11.3661 7.80049ZM26.7361 7.80924C27.8452 7.56643 29.0418 7.75455 30.0196 8.32985C31.1572 8.99047 31.9885 10.1608 32.2182 11.4579C32.4369 12.6173 32.1853 13.8554 31.5269 14.8332C30.8181 15.9072 29.6346 16.6575 28.3571 16.8303C27.1736 17.0032 25.9267 16.6882 24.9685 15.9707C24.0038 15.2576 23.3431 14.1507 23.1747 12.9651C22.9997 11.8057 23.2906 10.5808 23.9775 9.62921C24.6316 8.70828 25.6357 8.04548 26.7404 7.80924H26.7361ZM3.56953 15.5266C4.63926 15.2838 5.79431 15.4369 6.75903 15.9597C7.92064 16.581 8.7913 17.725 9.06694 19.0156C9.30976 20.1072 9.13475 21.2884 8.57473 22.2596C7.93377 23.3884 6.79841 24.2284 5.52305 24.4887C4.3505 24.738 3.08389 24.5018 2.08198 23.8412C1.11944 23.2112 0.399722 22.2159 0.130649 21.0959C-0.164675 19.9147 0.0387703 18.6175 0.686296 17.585C1.32507 16.5547 2.38386 15.7913 3.56735 15.5288L3.56953 15.5266ZM19.0073 15.5222C20.1602 15.2641 21.4093 15.4741 22.4134 16.0997C23.4087 16.7122 24.1591 17.7185 24.4435 18.8538C24.7694 20.105 24.5354 21.4896 23.8069 22.5571C23.074 23.6531 21.8534 24.4055 20.5408 24.5543C19.3289 24.7052 18.0645 24.3399 17.1194 23.5677C16.1875 22.8218 15.5728 21.6996 15.4459 20.5118C15.3191 19.4072 15.6078 18.2609 16.2532 17.3531C16.9029 16.43 17.9026 15.7607 19.0073 15.5222ZM34.3729 15.5354C35.4426 15.2838 36.5999 15.4304 37.569 15.951C38.6103 16.5022 39.4262 17.4691 39.7828 18.5934C40.181 19.8184 40.03 21.214 39.3716 22.3209C38.7809 23.3293 37.7943 24.0971 36.6699 24.4121C35.6592 24.7008 34.5523 24.6265 33.5898 24.2043C32.3888 23.6837 31.4284 22.6249 31.0412 21.3715C30.6693 20.2056 30.794 18.8909 31.3825 17.8147C31.9972 16.6772 33.1107 15.8219 34.3729 15.5332V15.5354ZM11.6352 23.1696C12.8755 22.9859 14.1837 23.3359 15.1594 24.1255C16.1175 24.8824 16.7454 26.0374 16.8591 27.2536C16.9904 28.5202 16.5616 29.8305 15.7063 30.7733C14.8706 31.7117 13.6324 32.2739 12.3768 32.2892C11.1451 32.3176 9.91134 31.8189 9.04506 30.9417C8.23347 30.1367 7.74563 29.0189 7.70845 27.8749C7.65813 26.698 8.08908 25.5102 8.88318 24.6418C9.59196 23.8499 10.5829 23.3162 11.6352 23.1696ZM26.9964 23.1762C28.1777 22.9902 29.429 23.2856 30.3959 23.9921C31.3781 24.6987 32.0628 25.8055 32.2378 27.0042C32.4391 28.2752 32.0738 29.6205 31.2534 30.6114C30.4987 31.5411 29.3633 32.1492 28.1711 32.2651C27.0904 32.3789 25.9748 32.0923 25.0844 31.4689C24.0388 30.7492 23.3212 29.5745 23.1594 28.3145C22.9909 27.0983 23.3366 25.8208 24.1044 24.8627C24.8088 23.9637 25.8632 23.3468 26.9942 23.174L26.9964 23.1762Z" fill="#E51A4B"/>
</g>
<defs>
<clipPath id="clip0_5588_22670">
<rect width="40" height="40" fill="white"/>
</clipPath>
</defs>
</svg>
