<svg width="348" height="34" viewBox="0 0 348 34" fill="none" xmlns="http://www.w3.org/2000/svg">
<path d="M7.68602 9.78598V2.36598H3.85002L3.78002 4.10198C3.75202 4.75531 3.71002 5.37598 3.65402 5.96398C3.60735 6.54264 3.52802 7.06998 3.41602 7.54598C3.31335 8.02198 3.16868 8.41864 2.98202 8.73598C2.79535 9.05331 2.56668 9.26331 2.29602 9.36598L0.336016 9.08598C0.690683 9.10464 0.980016 8.98331 1.20402 8.72198C1.43735 8.46064 1.61935 8.09664 1.75002 7.62998C1.88068 7.16331 1.97868 6.61731 2.04402 5.99198C2.10935 5.35731 2.15602 4.67131 2.18402 3.93398L2.29602 0.825976H9.47802V9.78598H7.68602ZM1.61193e-05 12.712L0.0140161 9.08598H10.892V12.712H9.21202V10.626H1.69402V12.712H1.61193e-05ZM15.6187 10.724C14.8533 10.724 14.172 10.5606 13.5747 10.234C12.9773 9.89798 12.506 9.44064 12.1607 8.86198C11.8153 8.28331 11.6427 7.62531 11.6427 6.88798C11.6427 6.14131 11.8153 5.48331 12.1607 4.91398C12.506 4.33531 12.9773 3.88264 13.5747 3.55598C14.172 3.22931 14.8533 3.06598 15.6187 3.06598C16.3933 3.06598 17.0793 3.22931 17.6767 3.55598C18.2833 3.88264 18.7547 4.33064 19.0907 4.89998C19.436 5.46931 19.6087 6.13198 19.6087 6.88798C19.6087 7.62531 19.436 8.28331 19.0907 8.86198C18.7547 9.44064 18.2833 9.89798 17.6767 10.234C17.0793 10.5606 16.3933 10.724 15.6187 10.724ZM15.6187 9.22598C16.048 9.22598 16.4307 9.13264 16.7667 8.94598C17.1027 8.75931 17.364 8.48864 17.5507 8.13398C17.7467 7.77931 17.8447 7.36398 17.8447 6.88798C17.8447 6.40264 17.7467 5.98731 17.5507 5.64198C17.364 5.28731 17.1027 5.01664 16.7667 4.82998C16.4307 4.64331 16.0527 4.54998 15.6327 4.54998C15.2033 4.54998 14.8207 4.64331 14.4847 4.82998C14.158 5.01664 13.8967 5.28731 13.7007 5.64198C13.5047 5.98731 13.4067 6.40264 13.4067 6.88798C13.4067 7.36398 13.5047 7.77931 13.7007 8.13398C13.8967 8.48864 14.158 8.75931 14.4847 8.94598C14.8207 9.13264 15.1987 9.22598 15.6187 9.22598ZM24.7394 10.724C23.9554 10.724 23.2554 10.5606 22.6394 10.234C22.0328 9.89798 21.5568 9.44064 21.2114 8.86198C20.8661 8.28331 20.6934 7.62531 20.6934 6.88798C20.6934 6.14131 20.8661 5.48331 21.2114 4.91398C21.5568 4.33531 22.0328 3.88264 22.6394 3.55598C23.2554 3.22931 23.9554 3.06598 24.7394 3.06598C25.4674 3.06598 26.1068 3.21531 26.6574 3.51398C27.2174 3.80331 27.6421 4.23264 27.9314 4.80198L26.5874 5.58598C26.3634 5.23131 26.0881 4.96998 25.7614 4.80198C25.4441 4.63398 25.0988 4.54998 24.7254 4.54998C24.2961 4.54998 23.9088 4.64331 23.5634 4.82998C23.2181 5.01664 22.9474 5.28731 22.7514 5.64198C22.5554 5.98731 22.4574 6.40264 22.4574 6.88798C22.4574 7.37331 22.5554 7.79331 22.7514 8.14798C22.9474 8.49331 23.2181 8.75931 23.5634 8.94598C23.9088 9.13264 24.2961 9.22598 24.7254 9.22598C25.0988 9.22598 25.4441 9.14198 25.7614 8.97398C26.0881 8.80598 26.3634 8.54464 26.5874 8.18998L27.9314 8.97398C27.6421 9.53398 27.2174 9.96798 26.6574 10.276C26.1068 10.5746 25.4674 10.724 24.7394 10.724ZM30.9715 10.626V4.21398L31.3775 4.63398H28.3395V3.14998H35.3395V4.63398H32.3155L32.7215 4.21398V10.626H30.9715ZM41.1449 10.626V9.11398L41.0469 8.79198V6.14598C41.0469 5.63264 40.8929 5.23598 40.5849 4.95598C40.2769 4.66664 39.8103 4.52198 39.1849 4.52198C38.7649 4.52198 38.3496 4.58731 37.9389 4.71798C37.5376 4.84864 37.1969 5.03064 36.9169 5.26398L36.2309 3.98998C36.6323 3.68198 37.1083 3.45331 37.6589 3.30398C38.2189 3.14531 38.7976 3.06598 39.3949 3.06598C40.4776 3.06598 41.3129 3.32731 41.9009 3.84998C42.4983 4.36331 42.7969 5.16131 42.7969 6.24398V10.626H41.1449ZM38.7929 10.724C38.2329 10.724 37.7429 10.6306 37.3229 10.444C36.9029 10.248 36.5763 9.98198 36.3429 9.64598C36.1189 9.30064 36.0069 8.91331 36.0069 8.48398C36.0069 8.06398 36.1049 7.68598 36.3009 7.34998C36.5063 7.01398 36.8376 6.74798 37.2949 6.55198C37.7523 6.35598 38.3589 6.25798 39.1149 6.25798H41.2849V7.41998H39.2409C38.6436 7.41998 38.2423 7.51798 38.0369 7.71398C37.8316 7.90064 37.7289 8.13398 37.7289 8.41398C37.7289 8.73131 37.8549 8.98331 38.1069 9.16998C38.3589 9.35664 38.7089 9.44998 39.1569 9.44998C39.5863 9.44998 39.9689 9.35198 40.3049 9.15598C40.6503 8.95998 40.8976 8.67064 41.0469 8.28798L41.3409 9.33798C41.1729 9.77664 40.8696 10.1173 40.4309 10.36C40.0016 10.6026 39.4556 10.724 38.7929 10.724ZM44.9624 10.626V3.14998H48.6164C49.5218 3.14998 50.2311 3.31798 50.7444 3.65398C51.2671 3.98998 51.5284 4.46598 51.5284 5.08198C51.5284 5.68864 51.2858 6.16464 50.8004 6.50998C50.3151 6.84598 49.6711 7.01398 48.8684 7.01398L49.0784 6.57998C49.9838 6.57998 50.6558 6.74798 51.0944 7.08398C51.5424 7.41064 51.7664 7.89131 51.7664 8.52598C51.7664 9.18864 51.5191 9.70664 51.0244 10.08C50.5298 10.444 49.7784 10.626 48.7704 10.626H44.9624ZM46.6284 9.35198H48.6304C49.1064 9.35198 49.4658 9.27731 49.7084 9.12798C49.9511 8.96931 50.0724 8.73131 50.0724 8.41398C50.0724 8.07798 49.9604 7.83064 49.7364 7.67198C49.5124 7.51331 49.1624 7.43398 48.6864 7.43398H46.6284V9.35198ZM46.6284 6.27198H48.4624C48.9104 6.27198 49.2464 6.19264 49.4704 6.03398C49.7038 5.86598 49.8204 5.63264 49.8204 5.33398C49.8204 5.02598 49.7038 4.79731 49.4704 4.64798C49.2464 4.49864 48.9104 4.42398 48.4624 4.42398H46.6284V6.27198ZM58.9924 10.626L56.2904 7.04198L57.7184 6.15998L61.0504 10.626H58.9924ZM53.6304 10.626V3.14998H55.3804V10.626H53.6304ZM54.8624 7.62998V6.17398H57.3964V7.62998H54.8624ZM57.8864 7.09798L56.2484 6.90198L58.9924 3.14998H60.8684L57.8864 7.09798ZM66.684 10.626V9.11398L66.586 8.79198V6.14598C66.586 5.63264 66.432 5.23598 66.124 4.95598C65.816 4.66664 65.3493 4.52198 64.724 4.52198C64.304 4.52198 63.8887 4.58731 63.478 4.71798C63.0767 4.84864 62.736 5.03064 62.456 5.26398L61.77 3.98998C62.1713 3.68198 62.6473 3.45331 63.198 3.30398C63.758 3.14531 64.3367 3.06598 64.934 3.06598C66.0167 3.06598 66.852 3.32731 67.44 3.84998C68.0373 4.36331 68.336 5.16131 68.336 6.24398V10.626H66.684ZM64.332 10.724C63.772 10.724 63.282 10.6306 62.862 10.444C62.442 10.248 62.1153 9.98198 61.882 9.64598C61.658 9.30064 61.546 8.91331 61.546 8.48398C61.546 8.06398 61.644 7.68598 61.84 7.34998C62.0453 7.01398 62.3767 6.74798 62.834 6.55198C63.2913 6.35598 63.898 6.25798 64.654 6.25798H66.824V7.41998H64.78C64.1827 7.41998 63.7813 7.51798 63.576 7.71398C63.3707 7.90064 63.268 8.13398 63.268 8.41398C63.268 8.73131 63.394 8.98331 63.646 9.16998C63.898 9.35664 64.248 9.44998 64.696 9.44998C65.1253 9.44998 65.508 9.35198 65.844 9.15598C66.1893 8.95998 66.4367 8.67064 66.586 8.28798L66.88 9.33798C66.712 9.77664 66.4087 10.1173 65.97 10.36C65.5407 10.6026 64.9947 10.724 64.332 10.724ZM77.7026 10.724C76.9373 10.724 76.256 10.5606 75.6586 10.234C75.0613 9.89798 74.59 9.44064 74.2446 8.86198C73.8993 8.28331 73.7266 7.62531 73.7266 6.88798C73.7266 6.14131 73.8993 5.48331 74.2446 4.91398C74.59 4.33531 75.0613 3.88264 75.6586 3.55598C76.256 3.22931 76.9373 3.06598 77.7026 3.06598C78.4773 3.06598 79.1633 3.22931 79.7606 3.55598C80.3673 3.88264 80.8386 4.33064 81.1746 4.89998C81.52 5.46931 81.6926 6.13198 81.6926 6.88798C81.6926 7.62531 81.52 8.28331 81.1746 8.86198C80.8386 9.44064 80.3673 9.89798 79.7606 10.234C79.1633 10.5606 78.4773 10.724 77.7026 10.724ZM77.7026 9.22598C78.132 9.22598 78.5146 9.13264 78.8506 8.94598C79.1866 8.75931 79.448 8.48864 79.6346 8.13398C79.8306 7.77931 79.9286 7.36398 79.9286 6.88798C79.9286 6.40264 79.8306 5.98731 79.6346 5.64198C79.448 5.28731 79.1866 5.01664 78.8506 4.82998C78.5146 4.64331 78.1366 4.54998 77.7166 4.54998C77.2873 4.54998 76.9046 4.64331 76.5686 4.82998C76.242 5.01664 75.9806 5.28731 75.7846 5.64198C75.5886 5.98731 75.4906 6.40264 75.4906 6.88798C75.4906 7.36398 75.5886 7.77931 75.7846 8.13398C75.9806 8.48864 76.242 8.75931 76.5686 8.94598C76.9046 9.13264 77.2826 9.22598 77.7026 9.22598ZM86.8234 10.724C86.0394 10.724 85.3394 10.5606 84.7234 10.234C84.1168 9.89798 83.6408 9.44064 83.2954 8.86198C82.9501 8.28331 82.7774 7.62531 82.7774 6.88798C82.7774 6.14131 82.9501 5.48331 83.2954 4.91398C83.6408 4.33531 84.1168 3.88264 84.7234 3.55598C85.3394 3.22931 86.0394 3.06598 86.8234 3.06598C87.5514 3.06598 88.1908 3.21531 88.7414 3.51398C89.3014 3.80331 89.7261 4.23264 90.0154 4.80198L88.6714 5.58598C88.4474 5.23131 88.1721 4.96998 87.8454 4.80198C87.5281 4.63398 87.1828 4.54998 86.8094 4.54998C86.3801 4.54998 85.9928 4.64331 85.6474 4.82998C85.3021 5.01664 85.0314 5.28731 84.8354 5.64198C84.6394 5.98731 84.5414 6.40264 84.5414 6.88798C84.5414 7.37331 84.6394 7.79331 84.8354 8.14798C85.0314 8.49331 85.3021 8.75931 85.6474 8.94598C85.9928 9.13264 86.3801 9.22598 86.8094 9.22598C87.1828 9.22598 87.5281 9.14198 87.8454 8.97398C88.1721 8.80598 88.4474 8.54464 88.6714 8.18998L90.0154 8.97398C89.7261 9.53398 89.3014 9.96798 88.7414 10.276C88.1908 10.5746 87.5514 10.724 86.8234 10.724ZM92.1325 13.44C91.7685 13.44 91.4045 13.3793 91.0405 13.258C90.6765 13.1366 90.3732 12.9686 90.1305 12.754L90.8305 11.466C91.0078 11.6246 91.2085 11.7506 91.4325 11.844C91.6565 11.9373 91.8852 11.984 92.1185 11.984C92.4358 11.984 92.6925 11.9046 92.8885 11.746C93.0845 11.5873 93.2665 11.3213 93.4345 10.948L93.8685 9.96798L94.0085 9.75798L96.8365 3.14998H98.5165L95.0165 11.228C94.7832 11.788 94.5218 12.2313 94.2325 12.558C93.9525 12.8846 93.6352 13.1133 93.2805 13.244C92.9352 13.3746 92.5525 13.44 92.1325 13.44ZM93.6725 10.892L90.2985 3.14998H92.1185L94.8625 9.60398L93.6725 10.892ZM104.758 9.14198L104.38 9.56198V3.14998H106.13V9.56198L105.71 9.14198H109.406L109 9.56198V3.14998H110.75V10.626H99.732V3.14998H101.482V9.56198L101.076 9.14198H104.758ZM110.19 12.166V10.192L110.596 10.626H108.944V9.14198H111.828V12.166H110.19ZM116.589 10.724C115.758 10.724 115.03 10.5606 114.405 10.234C113.789 9.89798 113.308 9.44064 112.963 8.86198C112.627 8.28331 112.459 7.62531 112.459 6.88798C112.459 6.14131 112.622 5.48331 112.949 4.91398C113.285 4.33531 113.742 3.88264 114.321 3.55598C114.909 3.22931 115.576 3.06598 116.323 3.06598C117.051 3.06598 117.7 3.22464 118.269 3.54198C118.838 3.85931 119.286 4.30731 119.613 4.88598C119.94 5.46464 120.103 6.14598 120.103 6.92998C120.103 7.00464 120.098 7.08864 120.089 7.18198C120.089 7.27531 120.084 7.36398 120.075 7.44798H113.845V6.28598H119.151L118.465 6.64998C118.474 6.22064 118.386 5.84264 118.199 5.51598C118.012 5.18931 117.756 4.93264 117.429 4.74598C117.112 4.55931 116.743 4.46598 116.323 4.46598C115.894 4.46598 115.516 4.55931 115.189 4.74598C114.872 4.93264 114.62 5.19398 114.433 5.52998C114.256 5.85664 114.167 6.24398 114.167 6.69198V6.97198C114.167 7.41998 114.27 7.81664 114.475 8.16198C114.68 8.50731 114.97 8.77331 115.343 8.95998C115.716 9.14664 116.146 9.23998 116.631 9.23998C117.051 9.23998 117.429 9.17464 117.765 9.04398C118.101 8.91331 118.4 8.70798 118.661 8.42798L119.599 9.50598C119.263 9.89798 118.838 10.2013 118.325 10.416C117.821 10.6213 117.242 10.724 116.589 10.724ZM125.419 10.724C124.635 10.724 123.935 10.5606 123.319 10.234C122.712 9.89798 122.236 9.44064 121.891 8.86198C121.546 8.28331 121.373 7.62531 121.373 6.88798C121.373 6.14131 121.546 5.48331 121.891 4.91398C122.236 4.33531 122.712 3.88264 123.319 3.55598C123.935 3.22931 124.635 3.06598 125.419 3.06598C126.147 3.06598 126.786 3.21531 127.337 3.51398C127.897 3.80331 128.322 4.23264 128.611 4.80198L127.267 5.58598C127.043 5.23131 126.768 4.96998 126.441 4.80198C126.124 4.63398 125.778 4.54998 125.405 4.54998C124.976 4.54998 124.588 4.64331 124.243 4.82998C123.898 5.01664 123.627 5.28731 123.431 5.64198C123.235 5.98731 123.137 6.40264 123.137 6.88798C123.137 7.37331 123.235 7.79331 123.431 8.14798C123.627 8.49331 123.898 8.75931 124.243 8.94598C124.588 9.13264 124.976 9.22598 125.405 9.22598C125.778 9.22598 126.124 9.14198 126.441 8.97398C126.768 8.80598 127.043 8.54464 127.267 8.18998L128.611 8.97398C128.322 9.53398 127.897 9.96798 127.337 10.276C126.786 10.5746 126.147 10.724 125.419 10.724ZM131.651 10.626V4.21398L132.057 4.63398H129.019V3.14998H136.019V4.63398H132.995L133.401 4.21398V10.626H131.651ZM137.289 10.626V3.14998H140.943C141.848 3.14998 142.557 3.31798 143.071 3.65398C143.593 3.98998 143.855 4.46598 143.855 5.08198C143.855 5.68864 143.612 6.16464 143.127 6.50998C142.641 6.84598 141.997 7.01398 141.195 7.01398L141.405 6.57998C142.31 6.57998 142.982 6.74798 143.421 7.08398C143.869 7.41064 144.093 7.89131 144.093 8.52598C144.093 9.18864 143.845 9.70664 143.351 10.08C142.856 10.444 142.105 10.626 141.097 10.626H137.289ZM138.955 9.35198H140.957C141.433 9.35198 141.792 9.27731 142.035 9.12798C142.277 8.96931 142.399 8.73131 142.399 8.41398C142.399 8.07798 142.287 7.83064 142.063 7.67198C141.839 7.51331 141.489 7.43398 141.013 7.43398H138.955V9.35198ZM138.955 6.27198H140.789C141.237 6.27198 141.573 6.19264 141.797 6.03398C142.03 5.86598 142.147 5.63264 142.147 5.33398C142.147 5.02598 142.03 4.79731 141.797 4.64798C141.573 4.49864 141.237 4.42398 140.789 4.42398H138.955V6.27198ZM144.865 10.612L144.949 9.14198C145.014 9.15131 145.075 9.16064 145.131 9.16998C145.187 9.17931 145.238 9.18398 145.285 9.18398C145.574 9.18398 145.798 9.09531 145.957 8.91798C146.115 8.74064 146.232 8.50264 146.307 8.20398C146.391 7.89598 146.447 7.55531 146.475 7.18198C146.512 6.79931 146.54 6.41664 146.559 6.03398L146.685 3.14998H152.733V10.626H150.983V4.15798L151.389 4.63398H147.833L148.211 4.14398L148.113 6.11798C148.085 6.78064 148.029 7.39664 147.945 7.96598C147.87 8.52598 147.749 9.01598 147.581 9.43598C147.422 9.85598 147.198 10.1826 146.909 10.416C146.629 10.6493 146.269 10.766 145.831 10.766C145.691 10.766 145.537 10.752 145.369 10.724C145.21 10.696 145.042 10.6586 144.865 10.612ZM159.835 10.626V8.07798L160.087 8.37198H157.847C156.821 8.37198 156.013 8.15731 155.425 7.72798C154.847 7.28931 154.557 6.65931 154.557 5.83798C154.557 4.96064 154.865 4.29331 155.481 3.83598C156.107 3.37864 156.937 3.14998 157.973 3.14998H161.403V10.626H159.835ZM154.459 10.626L156.475 7.76998H158.267L156.335 10.626H154.459ZM159.835 7.51798V4.15798L160.087 4.61998H158.029C157.488 4.61998 157.068 4.72264 156.769 4.92798C156.48 5.12398 156.335 5.44598 156.335 5.89398C156.335 6.73398 156.881 7.15398 157.973 7.15398H160.087L159.835 7.51798ZM167.243 10.724C166.413 10.724 165.685 10.5606 165.059 10.234C164.443 9.89798 163.963 9.44064 163.617 8.86198C163.281 8.28331 163.113 7.62531 163.113 6.88798C163.113 6.14131 163.277 5.48331 163.603 4.91398C163.939 4.33531 164.397 3.88264 164.975 3.55598C165.563 3.22931 166.231 3.06598 166.977 3.06598C167.705 3.06598 168.354 3.22464 168.923 3.54198C169.493 3.85931 169.941 4.30731 170.267 4.88598C170.594 5.46464 170.757 6.14598 170.757 6.92998C170.757 7.00464 170.753 7.08864 170.743 7.18198C170.743 7.27531 170.739 7.36398 170.729 7.44798H164.499V6.28598H169.805L169.119 6.64998C169.129 6.22064 169.04 5.84264 168.853 5.51598C168.667 5.18931 168.41 4.93264 168.083 4.74598C167.766 4.55931 167.397 4.46598 166.977 4.46598C166.548 4.46598 166.17 4.55931 165.843 4.74598C165.526 4.93264 165.274 5.19398 165.087 5.52998C164.91 5.85664 164.821 6.24398 164.821 6.69198V6.97198C164.821 7.41998 164.924 7.81664 165.129 8.16198C165.335 8.50731 165.624 8.77331 165.997 8.95998C166.371 9.14664 166.8 9.23998 167.285 9.23998C167.705 9.23998 168.083 9.17464 168.419 9.04398C168.755 8.91331 169.054 8.70798 169.315 8.42798L170.253 9.50598C169.917 9.89798 169.493 10.2013 168.979 10.416C168.475 10.6213 167.897 10.724 167.243 10.724ZM173.938 10.626V4.21398L174.344 4.63398H171.306V3.14998H178.306V4.63398H175.282L175.688 4.21398V10.626H173.938ZM182.65 10.724C181.866 10.724 181.166 10.5606 180.55 10.234C179.943 9.89798 179.467 9.44064 179.122 8.86198C178.776 8.28331 178.604 7.62531 178.604 6.88798C178.604 6.14131 178.776 5.48331 179.122 4.91398C179.467 4.33531 179.943 3.88264 180.55 3.55598C181.166 3.22931 181.866 3.06598 182.65 3.06598C183.378 3.06598 184.017 3.21531 184.568 3.51398C185.128 3.80331 185.552 4.23264 185.842 4.80198L184.498 5.58598C184.274 5.23131 183.998 4.96998 183.672 4.80198C183.354 4.63398 183.009 4.54998 182.636 4.54998C182.206 4.54998 181.819 4.64331 181.474 4.82998C181.128 5.01664 180.858 5.28731 180.662 5.64198C180.466 5.98731 180.368 6.40264 180.368 6.88798C180.368 7.37331 180.466 7.79331 180.662 8.14798C180.858 8.49331 181.128 8.75931 181.474 8.94598C181.819 9.13264 182.206 9.22598 182.636 9.22598C183.009 9.22598 183.354 9.14198 183.672 8.97398C183.998 8.80598 184.274 8.54464 184.498 8.18998L185.842 8.97398C185.552 9.53398 185.128 9.96798 184.568 10.276C184.017 10.5746 183.378 10.724 182.65 10.724ZM191.923 10.626V8.07798L192.175 8.37198H189.935C188.909 8.37198 188.101 8.15731 187.513 7.72798C186.935 7.28931 186.645 6.65931 186.645 5.83798C186.645 4.96064 186.953 4.29331 187.569 3.83598C188.195 3.37864 189.025 3.14998 190.061 3.14998H193.491V10.626H191.923ZM186.547 10.626L188.563 7.76998H190.355L188.423 10.626H186.547ZM191.923 7.51798V4.15798L192.175 4.61998H190.117C189.576 4.61998 189.156 4.72264 188.857 4.92798C188.568 5.12398 188.423 5.44598 188.423 5.89398C188.423 6.73398 188.969 7.15398 190.061 7.15398H192.175L191.923 7.51798ZM203.284 10.766C202.668 10.766 202.118 10.6726 201.632 10.486C201.147 10.2993 200.727 10.0146 200.372 9.63198C200.027 9.23998 199.761 8.74531 199.574 8.14798C199.388 7.55064 199.294 6.84131 199.294 6.01998C199.294 5.42264 199.346 4.87664 199.448 4.38198C199.551 3.88731 199.705 3.44398 199.91 3.05198C200.116 2.65064 200.372 2.29598 200.68 1.98798C200.998 1.67998 201.366 1.42331 201.786 1.21798C202.206 1.01264 202.682 0.853976 203.214 0.741976L206.686 -2.43187e-05L206.938 1.56798L203.788 2.21198C203.611 2.24931 203.396 2.30531 203.144 2.37998C202.902 2.44531 202.65 2.54798 202.388 2.68798C202.136 2.81864 201.898 3.00998 201.674 3.26198C201.46 3.50464 201.282 3.82198 201.142 4.21398C201.012 4.59664 200.946 5.07731 200.946 5.65598C200.946 5.83331 200.951 5.96864 200.96 6.06198C200.979 6.14598 200.993 6.23931 201.002 6.34198C201.021 6.43531 201.03 6.57531 201.03 6.76198L200.372 6.07598C200.559 5.59998 200.816 5.19398 201.142 4.85798C201.478 4.51264 201.866 4.25131 202.304 4.07398C202.752 3.88731 203.238 3.79398 203.76 3.79398C204.46 3.79398 205.081 3.93864 205.622 4.22798C206.164 4.51731 206.588 4.92331 206.896 5.44598C207.204 5.96864 207.358 6.56131 207.358 7.22398C207.358 7.91464 207.19 8.52598 206.854 9.05798C206.518 9.58998 206.042 10.01 205.426 10.318C204.82 10.6166 204.106 10.766 203.284 10.766ZM203.424 9.35198C203.844 9.35198 204.213 9.26331 204.53 9.08598C204.857 8.89931 205.109 8.64731 205.286 8.32998C205.473 8.01264 205.566 7.65798 205.566 7.26598C205.566 6.87398 205.473 6.53331 205.286 6.24398C205.109 5.94531 204.857 5.70731 204.53 5.52998C204.213 5.35264 203.835 5.26398 203.396 5.26398C202.976 5.26398 202.598 5.34798 202.262 5.51598C201.936 5.68398 201.679 5.91731 201.492 6.21598C201.315 6.50531 201.226 6.84131 201.226 7.22398C201.226 7.61598 201.32 7.97531 201.506 8.30198C201.693 8.62864 201.95 8.88531 202.276 9.07198C202.612 9.25864 202.995 9.35198 203.424 9.35198ZM212.538 10.724C211.708 10.724 210.98 10.5606 210.354 10.234C209.738 9.89798 209.258 9.44064 208.912 8.86198C208.576 8.28331 208.408 7.62531 208.408 6.88798C208.408 6.14131 208.572 5.48331 208.898 4.91398C209.234 4.33531 209.692 3.88264 210.27 3.55598C210.858 3.22931 211.526 3.06598 212.272 3.06598C213 3.06598 213.649 3.22464 214.218 3.54198C214.788 3.85931 215.236 4.30731 215.562 4.88598C215.889 5.46464 216.052 6.14598 216.052 6.92998C216.052 7.00464 216.048 7.08864 216.038 7.18198C216.038 7.27531 216.034 7.36398 216.024 7.44798H209.794V6.28598H215.1L214.414 6.64998C214.424 6.22064 214.335 5.84264 214.148 5.51598C213.962 5.18931 213.705 4.93264 213.378 4.74598C213.061 4.55931 212.692 4.46598 212.272 4.46598C211.843 4.46598 211.465 4.55931 211.138 4.74598C210.821 4.93264 210.569 5.19398 210.382 5.52998C210.205 5.85664 210.116 6.24398 210.116 6.69198V6.97198C210.116 7.41998 210.219 7.81664 210.424 8.16198C210.63 8.50731 210.919 8.77331 211.292 8.95998C211.666 9.14664 212.095 9.23998 212.58 9.23998C213 9.23998 213.378 9.17464 213.714 9.04398C214.05 8.91331 214.349 8.70798 214.61 8.42798L215.548 9.50598C215.212 9.89798 214.788 10.2013 214.274 10.416C213.77 10.6213 213.192 10.724 212.538 10.724ZM221.368 10.724C220.584 10.724 219.884 10.5606 219.268 10.234C218.662 9.89798 218.186 9.44064 217.84 8.86198C217.495 8.28331 217.322 7.62531 217.322 6.88798C217.322 6.14131 217.495 5.48331 217.84 4.91398C218.186 4.33531 218.662 3.88264 219.268 3.55598C219.884 3.22931 220.584 3.06598 221.368 3.06598C222.096 3.06598 222.736 3.21531 223.286 3.51398C223.846 3.80331 224.271 4.23264 224.56 4.80198L223.216 5.58598C222.992 5.23131 222.717 4.96998 222.39 4.80198C222.073 4.63398 221.728 4.54998 221.354 4.54998C220.925 4.54998 220.538 4.64331 220.192 4.82998C219.847 5.01664 219.576 5.28731 219.38 5.64198C219.184 5.98731 219.086 6.40264 219.086 6.88798C219.086 7.37331 219.184 7.79331 219.38 8.14798C219.576 8.49331 219.847 8.75931 220.192 8.94598C220.538 9.13264 220.925 9.22598 221.354 9.22598C221.728 9.22598 222.073 9.14198 222.39 8.97398C222.717 8.80598 222.992 8.54464 223.216 8.18998L224.56 8.97398C224.271 9.53398 223.846 9.96798 223.286 10.276C222.736 10.5746 222.096 10.724 221.368 10.724ZM226.101 10.626V3.14998H233.269V10.626H231.533V4.22798L231.939 4.63398H227.445L227.851 4.22798V10.626H226.101ZM234.538 10.612L234.622 9.14198C234.688 9.15131 234.748 9.16064 234.804 9.16998C234.86 9.17931 234.912 9.18398 234.958 9.18398C235.248 9.18398 235.472 9.09531 235.63 8.91798C235.789 8.74064 235.906 8.50264 235.98 8.20398C236.064 7.89598 236.12 7.55531 236.148 7.18198C236.186 6.79931 236.214 6.41664 236.232 6.03398L236.358 3.14998H242.406V10.626H240.656V4.15798L241.062 4.63398H237.506L237.884 4.14398L237.786 6.11798C237.758 6.78064 237.702 7.39664 237.618 7.96598C237.544 8.52598 237.422 9.01598 237.254 9.43598C237.096 9.85598 236.872 10.1826 236.582 10.416C236.302 10.6493 235.943 10.766 235.504 10.766C235.364 10.766 235.21 10.752 235.042 10.724C234.884 10.696 234.716 10.6586 234.538 10.612ZM249.299 10.626V9.11398L249.201 8.79198V6.14598C249.201 5.63264 249.047 5.23598 248.739 4.95598C248.431 4.66664 247.965 4.52198 247.339 4.52198C246.919 4.52198 246.504 4.58731 246.093 4.71798C245.692 4.84864 245.351 5.03064 245.071 5.26398L244.385 3.98998C244.787 3.68198 245.263 3.45331 245.813 3.30398C246.373 3.14531 246.952 3.06598 247.549 3.06598C248.632 3.06598 249.467 3.32731 250.055 3.84998C250.653 4.36331 250.951 5.16131 250.951 6.24398V10.626H249.299ZM246.947 10.724C246.387 10.724 245.897 10.6306 245.477 10.444C245.057 10.248 244.731 9.98198 244.497 9.64598C244.273 9.30064 244.161 8.91331 244.161 8.48398C244.161 8.06398 244.259 7.68598 244.455 7.34998C244.661 7.01398 244.992 6.74798 245.449 6.55198C245.907 6.35598 246.513 6.25798 247.269 6.25798H249.439V7.41998H247.395C246.798 7.41998 246.397 7.51798 246.191 7.71398C245.986 7.90064 245.883 8.13398 245.883 8.41398C245.883 8.73131 246.009 8.98331 246.261 9.16998C246.513 9.35664 246.863 9.44998 247.311 9.44998C247.741 9.44998 248.123 9.35198 248.459 9.15598C248.805 8.95998 249.052 8.67064 249.201 8.28798L249.495 9.33798C249.327 9.77664 249.024 10.1173 248.585 10.36C248.156 10.6026 247.61 10.724 246.947 10.724ZM254.671 10.626V4.21398L255.077 4.63398H252.039V3.14998H259.039V4.63398H256.015L256.421 4.21398V10.626H254.671ZM260.308 10.626V3.14998H262.058V6.18798H265.824V3.14998H267.574V10.626H265.824V7.67198H262.058V10.626H260.308ZM273.251 10.724C272.486 10.724 271.805 10.5606 271.207 10.234C270.61 9.89798 270.139 9.44064 269.793 8.86198C269.448 8.28331 269.275 7.62531 269.275 6.88798C269.275 6.14131 269.448 5.48331 269.793 4.91398C270.139 4.33531 270.61 3.88264 271.207 3.55598C271.805 3.22931 272.486 3.06598 273.251 3.06598C274.026 3.06598 274.712 3.22931 275.309 3.55598C275.916 3.88264 276.387 4.33064 276.723 4.89998C277.069 5.46931 277.241 6.13198 277.241 6.88798C277.241 7.62531 277.069 8.28331 276.723 8.86198C276.387 9.44064 275.916 9.89798 275.309 10.234C274.712 10.5606 274.026 10.724 273.251 10.724ZM273.251 9.22598C273.681 9.22598 274.063 9.13264 274.399 8.94598C274.735 8.75931 274.997 8.48864 275.183 8.13398C275.379 7.77931 275.477 7.36398 275.477 6.88798C275.477 6.40264 275.379 5.98731 275.183 5.64198C274.997 5.28731 274.735 5.01664 274.399 4.82998C274.063 4.64331 273.685 4.54998 273.265 4.54998C272.836 4.54998 272.453 4.64331 272.117 4.82998C271.791 5.01664 271.529 5.28731 271.333 5.64198C271.137 5.98731 271.039 6.40264 271.039 6.88798C271.039 7.36398 271.137 7.77931 271.333 8.13398C271.529 8.48864 271.791 8.75931 272.117 8.94598C272.453 9.13264 272.831 9.22598 273.251 9.22598ZM282.839 10.626V3.14998H286.493C287.399 3.14998 288.108 3.31798 288.621 3.65398C289.144 3.98998 289.405 4.46598 289.405 5.08198C289.405 5.68864 289.163 6.16464 288.677 6.50998C288.192 6.84598 287.548 7.01398 286.745 7.01398L286.955 6.57998C287.861 6.57998 288.533 6.74798 288.971 7.08398C289.419 7.41064 289.643 7.89131 289.643 8.52598C289.643 9.18864 289.396 9.70664 288.901 10.08C288.407 10.444 287.655 10.626 286.647 10.626H282.839ZM284.505 9.35198H286.507C286.983 9.35198 287.343 9.27731 287.585 9.12798C287.828 8.96931 287.949 8.73131 287.949 8.41398C287.949 8.07798 287.837 7.83064 287.613 7.67198C287.389 7.51331 287.039 7.43398 286.563 7.43398H284.505V9.35198ZM284.505 6.27198H286.339C286.787 6.27198 287.123 6.19264 287.347 6.03398C287.581 5.86598 287.697 5.63264 287.697 5.33398C287.697 5.02598 287.581 4.79731 287.347 4.64798C287.123 4.49864 286.787 4.42398 286.339 4.42398H284.505V6.27198ZM295.377 10.626V3.14998H302.545V10.626H300.809V4.22798L301.215 4.63398H296.721L297.127 4.22798V10.626H295.377ZM305.578 13.44C305.214 13.44 304.85 13.3793 304.486 13.258C304.122 13.1366 303.818 12.9686 303.576 12.754L304.276 11.466C304.453 11.6246 304.654 11.7506 304.878 11.844C305.102 11.9373 305.33 11.984 305.564 11.984C305.881 11.984 306.138 11.9046 306.334 11.746C306.53 11.5873 306.712 11.3213 306.88 10.948L307.314 9.96798L307.454 9.75798L310.282 3.14998H311.962L308.462 11.228C308.228 11.788 307.967 12.2313 307.678 12.558C307.398 12.8846 307.08 13.1133 306.726 13.244C306.38 13.3746 305.998 13.44 305.578 13.44ZM307.118 10.892L303.744 3.14998H305.564L308.308 9.60398L307.118 10.892ZM313.177 10.626V3.14998H314.927V6.18798H318.693V3.14998H320.443V10.626H318.693V7.67198H314.927V10.626H313.177ZM328.151 10.626L325.449 7.04198L326.877 6.15998L330.209 10.626H328.151ZM322.789 10.626V3.14998H324.539V10.626H322.789ZM324.021 7.62998V6.17398H326.555V7.62998H324.021ZM327.045 7.09798L325.407 6.90198L328.151 3.14998H330.027L327.045 7.09798ZM332.901 10.626V4.21398L333.307 4.63398H330.269V3.14998H337.269V4.63398H334.245L334.651 4.21398V10.626H332.901ZM346.085 10.626V3.14998H347.835V10.626H346.085ZM342.179 5.61398C343.14 5.61398 343.868 5.82864 344.363 6.25798C344.867 6.68731 345.119 7.29398 345.119 8.07798C345.119 8.88998 344.839 9.52464 344.279 9.98198C343.728 10.43 342.944 10.6493 341.927 10.64L338.539 10.626V3.14998H340.289V5.59998L342.179 5.61398ZM341.773 9.35198C342.286 9.36131 342.678 9.25398 342.949 9.02998C343.219 8.80598 343.355 8.47931 343.355 8.04998C343.355 7.62064 343.219 7.31264 342.949 7.12598C342.687 6.92998 342.295 6.82731 341.773 6.81798L340.289 6.80398V9.33798L341.773 9.35198ZM0.980016 30.626V23.15H4.63402C5.53935 23.15 6.24868 23.318 6.76202 23.654C7.28468 23.99 7.54602 24.466 7.54602 25.082C7.54602 25.6886 7.30335 26.1646 6.81802 26.51C6.33268 26.846 5.68868 27.014 4.88602 27.014L5.09602 26.58C6.00135 26.58 6.67335 26.748 7.11202 27.084C7.56002 27.4106 7.78402 27.8913 7.78402 28.526C7.78402 29.1886 7.53668 29.7066 7.04202 30.08C6.54735 30.444 5.79602 30.626 4.78802 30.626H0.980016ZM2.64602 29.352H4.64802C5.12402 29.352 5.48335 29.2773 5.72602 29.128C5.96868 28.9693 6.09002 28.7313 6.09002 28.414C6.09002 28.078 5.97802 27.8306 5.75402 27.672C5.53002 27.5133 5.18002 27.434 4.70402 27.434H2.64602V29.352ZM2.64602 26.272H4.48002C4.92802 26.272 5.26402 26.1926 5.48802 26.034C5.72135 25.866 5.83802 25.6326 5.83802 25.334C5.83802 25.026 5.72135 24.7973 5.48802 24.648C5.26402 24.4986 4.92802 24.424 4.48002 24.424H2.64602V26.272ZM17.194 30.626V23.15H18.944V30.626H17.194ZM13.288 25.614C14.2493 25.614 14.9773 25.8286 15.472 26.258C15.976 26.6873 16.228 27.294 16.228 28.078C16.228 28.89 15.948 29.5246 15.388 29.982C14.8373 30.43 14.0533 30.6493 13.036 30.64L9.64798 30.626V23.15H11.398V25.6L13.288 25.614ZM12.882 29.352C13.3953 29.3613 13.7873 29.254 14.058 29.03C14.3287 28.806 14.464 28.4793 14.464 28.05C14.464 27.6206 14.3287 27.3126 14.058 27.126C13.7967 26.93 13.4047 26.8273 12.882 26.818L11.398 26.804V29.338L12.882 29.352ZM26.4204 29.814V24.634H23.5504L23.5084 25.838C23.4898 26.2673 23.4618 26.6826 23.4244 27.084C23.3871 27.476 23.3264 27.84 23.2424 28.176C23.1584 28.5026 23.0371 28.7733 22.8784 28.988C22.7198 29.2026 22.5098 29.3426 22.2484 29.408L20.5124 29.142C20.7924 29.142 21.0164 29.0533 21.1844 28.876C21.3618 28.6893 21.4971 28.4373 21.5904 28.12C21.6931 27.7933 21.7678 27.4246 21.8144 27.014C21.8611 26.594 21.8938 26.16 21.9124 25.712L22.0104 23.15H28.1704V29.814H26.4204ZM20.2464 32.292V29.142H29.2764V32.292H27.6384V30.626H21.8704V32.292H20.2464ZM35.3754 30.626V29.114L35.2774 28.792V26.146C35.2774 25.6326 35.1234 25.236 34.8154 24.956C34.5074 24.6666 34.0407 24.522 33.4154 24.522C32.9954 24.522 32.5801 24.5873 32.1694 24.718C31.7681 24.8486 31.4274 25.0306 31.1474 25.264L30.4614 23.99C30.8627 23.682 31.3387 23.4533 31.8894 23.304C32.4494 23.1453 33.0281 23.066 33.6254 23.066C34.7081 23.066 35.5434 23.3273 36.1314 23.85C36.7287 24.3633 37.0274 25.1613 37.0274 26.244V30.626H35.3754ZM33.0234 30.724C32.4634 30.724 31.9734 30.6306 31.5534 30.444C31.1334 30.248 30.8067 29.982 30.5734 29.646C30.3494 29.3006 30.2374 28.9133 30.2374 28.484C30.2374 28.064 30.3354 27.686 30.5314 27.35C30.7367 27.014 31.0681 26.748 31.5254 26.552C31.9827 26.356 32.5894 26.258 33.3454 26.258H35.5154V27.42H33.4714C32.8741 27.42 32.4727 27.518 32.2674 27.714C32.0621 27.9006 31.9594 28.134 31.9594 28.414C31.9594 28.7313 32.0854 28.9833 32.3374 29.17C32.5894 29.3566 32.9394 29.45 33.3874 29.45C33.8167 29.45 34.1994 29.352 34.5354 29.156C34.8807 28.96 35.1281 28.6706 35.2774 28.288L35.5714 29.338C35.4034 29.7766 35.1001 30.1173 34.6614 30.36C34.2321 30.6026 33.6861 30.724 33.0234 30.724ZM43.9109 27.672C43.5562 27.84 43.1782 27.98 42.7769 28.092C42.3849 28.1946 41.9696 28.246 41.5309 28.246C40.5882 28.246 39.8556 28.0266 39.3329 27.588C38.8102 27.1493 38.5489 26.468 38.5489 25.544V23.15H40.2989V25.432C40.2989 25.9266 40.4389 26.286 40.7189 26.51C41.0082 26.734 41.4049 26.846 41.9089 26.846C42.2449 26.846 42.5809 26.804 42.9169 26.72C43.2529 26.636 43.5842 26.5193 43.9109 26.37V27.672ZM43.7849 30.626V23.15H45.5349V30.626H43.7849ZM47.8882 30.626V23.15H49.6382V28.078L53.7682 23.15H55.3642V30.626H53.6142V25.698L49.4982 30.626H47.8882ZM66.2914 30.766C65.5448 30.766 64.8494 30.6446 64.2054 30.402C63.5708 30.15 63.0154 29.8 62.5394 29.352C62.0728 28.8946 61.7088 28.358 61.4474 27.742C61.1861 27.126 61.0554 26.454 61.0554 25.726C61.0554 24.998 61.1861 24.326 61.4474 23.71C61.7088 23.094 62.0774 22.562 62.5534 22.114C63.0294 21.6566 63.5848 21.3066 64.2194 21.064C64.8541 20.812 65.5494 20.686 66.3054 20.686C67.1081 20.686 67.8408 20.826 68.5034 21.106C69.1661 21.3766 69.7261 21.7826 70.1834 22.324L69.0074 23.43C68.6528 23.0473 68.2561 22.7626 67.8174 22.576C67.3788 22.38 66.9028 22.282 66.3894 22.282C65.8761 22.282 65.4048 22.366 64.9754 22.534C64.5554 22.702 64.1868 22.94 63.8694 23.248C63.5614 23.556 63.3188 23.92 63.1414 24.34C62.9734 24.76 62.8894 25.222 62.8894 25.726C62.8894 26.23 62.9734 26.692 63.1414 27.112C63.3188 27.532 63.5614 27.896 63.8694 28.204C64.1868 28.512 64.5554 28.75 64.9754 28.918C65.4048 29.086 65.8761 29.17 66.3894 29.17C66.9028 29.17 67.3788 29.0766 67.8174 28.89C68.2561 28.694 68.6528 28.4 69.0074 28.008L70.1834 29.128C69.7261 29.66 69.1661 30.066 68.5034 30.346C67.8408 30.626 67.1034 30.766 66.2914 30.766ZM78.1372 29.786V22.366H74.3012L74.2312 24.102C74.2032 24.7553 74.1612 25.376 74.1052 25.964C74.0585 26.5426 73.9792 27.07 73.8672 27.546C73.7645 28.022 73.6199 28.4186 73.4332 28.736C73.2465 29.0533 73.0179 29.2633 72.7472 29.366L70.7872 29.086C71.1419 29.1046 71.4312 28.9833 71.6552 28.722C71.8885 28.4606 72.0705 28.0966 72.2012 27.63C72.3319 27.1633 72.4299 26.6173 72.4952 25.992C72.5605 25.3573 72.6072 24.6713 72.6352 23.934L72.7472 20.826H79.9292V29.786H78.1372ZM70.4512 32.712L70.4652 29.086H81.3432V32.712H79.6632V30.626H72.1452V32.712H70.4512ZM84.6949 26.37V24.928H89.7489V26.37H84.6949ZM85.9689 20.686C86.6875 20.686 87.3502 20.812 87.9569 21.064C88.5635 21.3066 89.0909 21.6566 89.5389 22.114C89.9962 22.562 90.3462 23.094 90.5889 23.71C90.8409 24.326 90.9669 24.998 90.9669 25.726C90.9669 26.454 90.8409 27.126 90.5889 27.742C90.3462 28.358 89.9962 28.8946 89.5389 29.352C89.0909 29.8 88.5635 30.15 87.9569 30.402C87.3502 30.6446 86.6875 30.766 85.9689 30.766C85.1382 30.766 84.3822 30.626 83.7009 30.346C83.0289 30.066 82.4689 29.66 82.0209 29.128L83.1689 28.008C83.5329 28.4 83.9389 28.694 84.3869 28.89C84.8442 29.0766 85.3389 29.17 85.8709 29.17C86.3375 29.17 86.7715 29.086 87.1729 28.918C87.5742 28.7406 87.9195 28.5026 88.2089 28.204C88.4982 27.896 88.7222 27.532 88.8809 27.112C89.0395 26.692 89.1189 26.23 89.1189 25.726C89.1189 25.222 89.0395 24.76 88.8809 24.34C88.7222 23.92 88.4982 23.5606 88.2089 23.262C87.9195 22.954 87.5742 22.716 87.1729 22.548C86.7715 22.3706 86.3375 22.282 85.8709 22.282C85.3389 22.282 84.8442 22.38 84.3869 22.576C83.9389 22.7626 83.5329 23.052 83.1689 23.444L82.0209 22.324C82.4689 21.792 83.0289 21.386 83.7009 21.106C84.3822 20.826 85.1382 20.686 85.9689 20.686ZM99.4783 30.626L96.1603 25.852L97.6303 24.942L101.536 30.626H99.4783ZM92.9963 30.626V20.826H94.7883V30.626H92.9963ZM94.2423 26.496V24.928H97.5463V26.496H94.2423ZM97.7983 25.936L96.1323 25.712L99.4783 20.826H101.41L97.7983 25.936ZM106.773 30.626V23.15H108.523V28.078L112.653 23.15H114.249V30.626H112.499V25.698L108.383 30.626H106.773ZM126.366 30.626V27.49L126.814 27.896H123.944C123.123 27.896 122.414 27.7606 121.816 27.49C121.228 27.21 120.776 26.8133 120.458 26.3C120.141 25.7773 119.982 25.152 119.982 24.424C119.982 23.668 120.15 23.024 120.486 22.492C120.822 21.9506 121.298 21.54 121.914 21.26C122.53 20.9706 123.254 20.826 124.084 20.826H128.158V30.626H126.366ZM120.01 30.626L122.432 27.126H124.266L121.928 30.626H120.01ZM126.366 26.902V21.862L126.814 22.366H124.14C123.394 22.366 122.82 22.5386 122.418 22.884C122.026 23.22 121.83 23.724 121.83 24.396C121.83 25.04 122.017 25.5393 122.39 25.894C122.773 26.2393 123.333 26.412 124.07 26.412H126.814L126.366 26.902ZM130.726 30.626V23.15H132.476V26.188H136.242V23.15H137.992V30.626H136.242V27.672H132.476V30.626H130.726ZM145.461 29.814V24.634H142.591L142.549 25.838C142.531 26.2673 142.503 26.6826 142.465 27.084C142.428 27.476 142.367 27.84 142.283 28.176C142.199 28.5026 142.078 28.7733 141.919 28.988C141.761 29.2026 141.551 29.3426 141.289 29.408L139.553 29.142C139.833 29.142 140.057 29.0533 140.225 28.876C140.403 28.6893 140.538 28.4373 140.631 28.12C140.734 27.7933 140.809 27.4246 140.855 27.014C140.902 26.594 140.935 26.16 140.953 25.712L141.051 23.15H147.211V29.814H145.461ZM139.287 32.292V29.142H148.317V32.292H146.679V30.626H140.911V32.292H139.287ZM153.366 30.724C152.536 30.724 151.808 30.5606 151.182 30.234C150.566 29.898 150.086 29.4406 149.74 28.862C149.404 28.2833 149.236 27.6253 149.236 26.888C149.236 26.1413 149.4 25.4833 149.726 24.914C150.062 24.3353 150.52 23.8826 151.098 23.556C151.686 23.2293 152.354 23.066 153.1 23.066C153.828 23.066 154.477 23.2246 155.046 23.542C155.616 23.8593 156.064 24.3073 156.39 24.886C156.717 25.4646 156.88 26.146 156.88 26.93C156.88 27.0046 156.876 27.0886 156.866 27.182C156.866 27.2753 156.862 27.364 156.852 27.448H150.622V26.286H155.928L155.242 26.65C155.252 26.2206 155.163 25.8426 154.976 25.516C154.79 25.1893 154.533 24.9326 154.206 24.746C153.889 24.5593 153.52 24.466 153.1 24.466C152.671 24.466 152.293 24.5593 151.966 24.746C151.649 24.9326 151.397 25.194 151.21 25.53C151.033 25.8566 150.944 26.244 150.944 26.692V26.972C150.944 27.42 151.047 27.8166 151.252 28.162C151.458 28.5073 151.747 28.7733 152.12 28.96C152.494 29.1466 152.923 29.24 153.408 29.24C153.828 29.24 154.206 29.1746 154.542 29.044C154.878 28.9133 155.177 28.708 155.438 28.428L156.376 29.506C156.04 29.898 155.616 30.2013 155.102 30.416C154.598 30.6213 154.02 30.724 153.366 30.724ZM164.156 30.626L161.454 27.042L162.882 26.16L166.214 30.626H164.156ZM158.794 30.626V23.15H160.544V30.626H158.794ZM160.026 27.63V26.174H162.56V27.63H160.026ZM163.05 27.098L161.412 26.902L164.156 23.15H166.032L163.05 27.098ZM170.605 30.724C169.821 30.724 169.121 30.5606 168.505 30.234C167.898 29.898 167.422 29.4406 167.077 28.862C166.731 28.2833 166.559 27.6253 166.559 26.888C166.559 26.1413 166.731 25.4833 167.077 24.914C167.422 24.3353 167.898 23.8826 168.505 23.556C169.121 23.2293 169.821 23.066 170.605 23.066C171.333 23.066 171.972 23.2153 172.523 23.514C173.083 23.8033 173.507 24.2326 173.797 24.802L172.453 25.586C172.229 25.2313 171.953 24.97 171.627 24.802C171.309 24.634 170.964 24.55 170.591 24.55C170.161 24.55 169.774 24.6433 169.429 24.83C169.083 25.0166 168.813 25.2873 168.617 25.642C168.421 25.9873 168.323 26.4026 168.323 26.888C168.323 27.3733 168.421 27.7933 168.617 28.148C168.813 28.4933 169.083 28.7593 169.429 28.946C169.774 29.1326 170.161 29.226 170.591 29.226C170.964 29.226 171.309 29.142 171.627 28.974C171.953 28.806 172.229 28.5446 172.453 28.19L173.797 28.974C173.507 29.534 173.083 29.968 172.523 30.276C171.972 30.5746 171.333 30.724 170.605 30.724ZM176.143 30.724C175.826 30.724 175.555 30.6166 175.331 30.402C175.107 30.178 174.995 29.898 174.995 29.562C174.995 29.2073 175.107 28.9273 175.331 28.722C175.555 28.5073 175.826 28.4 176.143 28.4C176.46 28.4 176.731 28.5073 176.955 28.722C177.179 28.9273 177.291 29.2073 177.291 29.562C177.291 29.898 177.179 30.178 176.955 30.402C176.731 30.6166 176.46 30.724 176.143 30.724ZM179.239 30.626V20.826H180.723L185.021 27.98H184.223L188.451 20.826H189.935L189.963 30.626H188.227L188.213 23.528H188.577L184.993 29.506H184.181L180.541 23.528H180.961V30.626H179.239ZM197.045 30.626V29.114L196.947 28.792V26.146C196.947 25.6326 196.793 25.236 196.485 24.956C196.177 24.6666 195.711 24.522 195.085 24.522C194.665 24.522 194.25 24.5873 193.839 24.718C193.438 24.8486 193.097 25.0306 192.817 25.264L192.131 23.99C192.533 23.682 193.009 23.4533 193.559 23.304C194.119 23.1453 194.698 23.066 195.295 23.066C196.378 23.066 197.213 23.3273 197.801 23.85C198.399 24.3633 198.697 25.1613 198.697 26.244V30.626H197.045ZM194.693 30.724C194.133 30.724 193.643 30.6306 193.223 30.444C192.803 30.248 192.477 29.982 192.243 29.646C192.019 29.3006 191.907 28.9133 191.907 28.484C191.907 28.064 192.005 27.686 192.201 27.35C192.407 27.014 192.738 26.748 193.195 26.552C193.653 26.356 194.259 26.258 195.015 26.258H197.185V27.42H195.141C194.544 27.42 194.143 27.518 193.937 27.714C193.732 27.9006 193.629 28.134 193.629 28.414C193.629 28.7313 193.755 28.9833 194.007 29.17C194.259 29.3566 194.609 29.45 195.057 29.45C195.487 29.45 195.869 29.352 196.205 29.156C196.551 28.96 196.798 28.6706 196.947 28.288L197.241 29.338C197.073 29.7766 196.77 30.1173 196.331 30.36C195.902 30.6026 195.356 30.724 194.693 30.724ZM205.007 30.724C204.4 30.724 203.845 30.584 203.341 30.304C202.846 30.024 202.449 29.604 202.151 29.044C201.861 28.4746 201.717 27.756 201.717 26.888C201.717 26.0106 201.857 25.292 202.137 24.732C202.426 24.172 202.818 23.7566 203.313 23.486C203.807 23.206 204.372 23.066 205.007 23.066C205.744 23.066 206.393 23.2246 206.953 23.542C207.522 23.8593 207.97 24.3026 208.297 24.872C208.633 25.4413 208.801 26.1133 208.801 26.888C208.801 27.6626 208.633 28.3393 208.297 28.918C207.97 29.4873 207.522 29.9306 206.953 30.248C206.393 30.5653 205.744 30.724 205.007 30.724ZM200.863 33.342V23.15H202.529V24.914L202.473 26.902L202.613 28.89V33.342H200.863ZM204.811 29.226C205.231 29.226 205.604 29.1326 205.931 28.946C206.267 28.7593 206.533 28.4886 206.729 28.134C206.925 27.7793 207.023 27.364 207.023 26.888C207.023 26.4026 206.925 25.9873 206.729 25.642C206.533 25.2873 206.267 25.0166 205.931 24.83C205.604 24.6433 205.231 24.55 204.811 24.55C204.391 24.55 204.013 24.6433 203.677 24.83C203.341 25.0166 203.075 25.2873 202.879 25.642C202.683 25.9873 202.585 26.4026 202.585 26.888C202.585 27.364 202.683 27.7793 202.879 28.134C203.075 28.4886 203.341 28.7593 203.677 28.946C204.013 29.1326 204.391 29.226 204.811 29.226ZM215.905 30.626L213.203 27.042L214.631 26.16L217.963 30.626H215.905ZM210.543 30.626V23.15H212.293V30.626H210.543ZM211.775 27.63V26.174H214.309V27.63H211.775ZM214.799 27.098L213.161 26.902L215.905 23.15H217.781L214.799 27.098ZM222.437 30.724C221.606 30.724 220.878 30.5606 220.253 30.234C219.637 29.898 219.156 29.4406 218.811 28.862C218.475 28.2833 218.307 27.6253 218.307 26.888C218.307 26.1413 218.47 25.4833 218.797 24.914C219.133 24.3353 219.59 23.8826 220.169 23.556C220.757 23.2293 221.424 23.066 222.171 23.066C222.899 23.066 223.547 23.2246 224.117 23.542C224.686 23.8593 225.134 24.3073 225.461 24.886C225.787 25.4646 225.951 26.146 225.951 26.93C225.951 27.0046 225.946 27.0886 225.937 27.182C225.937 27.2753 225.932 27.364 225.923 27.448H219.693V26.286H224.999L224.313 26.65C224.322 26.2206 224.233 25.8426 224.047 25.516C223.86 25.1893 223.603 24.9326 223.277 24.746C222.959 24.5593 222.591 24.466 222.171 24.466C221.741 24.466 221.363 24.5593 221.037 24.746C220.719 24.9326 220.467 25.194 220.281 25.53C220.103 25.8566 220.015 26.244 220.015 26.692V26.972C220.015 27.42 220.117 27.8166 220.323 28.162C220.528 28.5073 220.817 28.7733 221.191 28.96C221.564 29.1466 221.993 29.24 222.479 29.24C222.899 29.24 223.277 29.1746 223.613 29.044C223.949 28.9133 224.247 28.708 224.509 28.428L225.447 29.506C225.111 29.898 224.686 30.2013 224.173 30.416C223.669 30.6213 223.09 30.724 222.437 30.724ZM229.132 30.626V24.214L229.538 24.634H226.5V23.15H233.5V24.634H230.476L230.882 24.214V30.626H229.132Z" fill="white"/>
</svg>
