<svg width="19" height="18" viewBox="0 0 19 18" fill="none" xmlns="http://www.w3.org/2000/svg">
<path d="M12.0398 6.75V4.5C12.0398 2.84315 10.6967 1.5 9.03983 1.5C7.38297 1.5 6.03983 2.84315 6.03983 4.5V6.75M2.73383 7.76397L2.28383 12.564C2.15588 13.9287 2.09191 14.6111 2.31837 15.1382C2.5173 15.6012 2.86592 15.984 3.30834 16.2253C3.81197 16.5 4.49735 16.5 5.86811 16.5H12.2115C13.5823 16.5 14.2677 16.5 14.7713 16.2253C15.2137 15.984 15.5624 15.6012 15.7613 15.1382C15.9877 14.6111 15.9238 13.9287 15.7958 12.564L15.3458 7.76397C15.2378 6.61151 15.1838 6.03528 14.9246 5.59962C14.6963 5.21594 14.3591 4.90883 13.9558 4.71738C13.4978 4.5 12.9191 4.5 11.7615 4.5L6.31811 4.5C5.1606 4.5 4.58184 4.5 4.12389 4.71738C3.72058 4.90883 3.38333 5.21594 3.15507 5.59962C2.8959 6.03528 2.84187 6.61151 2.73383 7.76397Z" stroke="white" stroke-width="1.5" stroke-linecap="round" stroke-linejoin="round"/>
</svg>
