<svg width="28" height="28" viewBox="0 0 28 28" fill="none" xmlns="http://www.w3.org/2000/svg">
<path d="M2.33301 2.33334L3.85687 2.33334C4.14389 2.33334 4.2874 2.33334 4.40289 2.38612C4.50466 2.43263 4.59091 2.50743 4.65135 2.60161C4.71993 2.70847 4.74023 2.85054 4.78082 3.13468L5.33301 7M5.33301 7L6.56021 16.02C6.71595 17.1646 6.79381 17.7369 7.06746 18.1677C7.30858 18.5473 7.65427 18.8492 8.06292 19.0369C8.52668 19.25 9.10428 19.25 10.2595 19.25L20.2437 19.25C21.3433 19.25 21.8931 19.25 22.3425 19.0522C22.7386 18.8777 23.0785 18.5965 23.324 18.2399C23.6024 17.8356 23.7053 17.2954 23.9111 16.2152L25.4553 8.10797C25.5277 7.72778 25.5639 7.53768 25.5114 7.38909C25.4654 7.25873 25.3746 7.14897 25.2551 7.07936C25.119 7 24.9255 7 24.5384 7L5.33301 7ZM11.6663 24.5C11.6663 25.1443 11.144 25.6667 10.4997 25.6667C9.85534 25.6667 9.33301 25.1443 9.33301 24.5C9.33301 23.8557 9.85534 23.3333 10.4997 23.3333C11.144 23.3333 11.6663 23.8557 11.6663 24.5ZM20.9997 24.5C20.9997 25.1443 20.4773 25.6667 19.833 25.6667C19.1887 25.6667 18.6663 25.1443 18.6663 24.5C18.6663 23.8557 19.1887 23.3333 19.833 23.3333C20.4773 23.3333 20.9997 23.8557 20.9997 24.5Z" stroke="#28CB47" stroke-width="1.5" stroke-linecap="round" stroke-linejoin="round"/>
</svg>
