<svg width="660" height="124" viewBox="0 0 660 124" fill="none" xmlns="http://www.w3.org/2000/svg">
<path d="M0.256 32L10.24 9.6H15.36L25.376 32H19.936L11.744 12.224H13.792L5.568 32H0.256ZM5.248 27.2L6.624 23.264H18.144L19.552 27.2H5.248ZM27.9625 32V14.784H36.7625C38.9172 14.784 40.6025 15.1787 41.8185 15.968C43.0345 16.736 43.6425 17.824 43.6425 19.232C43.6425 20.64 43.0665 21.7493 41.9145 22.56C40.7838 23.3493 39.2798 23.744 37.4025 23.744L37.9145 22.592C40.0052 22.592 41.5625 22.976 42.5865 23.744C43.6318 24.512 44.1545 25.632 44.1545 27.104C44.1545 28.6187 43.5785 29.8133 42.4265 30.688C41.2745 31.5627 39.5145 32 37.1465 32H27.9625ZM32.5385 28.608H36.7305C37.6478 28.608 38.3305 28.4587 38.7785 28.16C39.2478 27.84 39.4825 27.36 39.4825 26.72C39.4825 26.0587 39.2692 25.5787 38.8425 25.28C38.4158 24.96 37.7438 24.8 36.8265 24.8H32.5385V28.608ZM32.5385 21.856H36.3145C37.1892 21.856 37.8398 21.696 38.2665 21.376C38.7145 21.056 38.9385 20.5973 38.9385 20C38.9385 19.3813 38.7145 18.9227 38.2665 18.624C37.8398 18.3253 37.1892 18.176 36.3145 18.176H32.5385V21.856ZM51.5488 32V17.728L52.6688 18.88H45.7248V14.784H62.3328V18.88H55.3888L56.5088 17.728V32H51.5488ZM72.339 32.256C70.5043 32.256 68.8723 31.872 67.443 31.104C66.035 30.336 64.915 29.2907 64.083 27.968C63.2723 26.624 62.867 25.0987 62.867 23.392C62.867 21.664 63.2723 20.1387 64.083 18.816C64.915 17.472 66.035 16.4267 67.443 15.68C68.8723 14.912 70.5043 14.528 72.339 14.528C74.1523 14.528 75.7737 14.912 77.203 15.68C78.6323 16.4267 79.7523 17.4613 80.563 18.784C81.3737 20.1067 81.779 21.6427 81.779 23.392C81.779 25.0987 81.3737 26.624 80.563 27.968C79.7523 29.2907 78.6323 30.336 77.203 31.104C75.7737 31.872 74.1523 32.256 72.339 32.256ZM72.339 28.16C73.171 28.16 73.9177 27.968 74.579 27.584C75.2403 27.2 75.763 26.656 76.147 25.952C76.531 25.2267 76.723 24.3733 76.723 23.392C76.723 22.3893 76.531 21.536 76.147 20.832C75.763 20.128 75.2403 19.584 74.579 19.2C73.9177 18.816 73.171 18.624 72.339 18.624C71.507 18.624 70.7603 18.816 70.099 19.2C69.4377 19.584 68.9043 20.128 68.499 20.832C68.115 21.536 67.923 22.3893 67.923 23.392C67.923 24.3733 68.115 25.2267 68.499 25.952C68.9043 26.656 69.4377 27.2 70.099 27.584C70.7603 27.968 71.507 28.16 72.339 28.16ZM96.0605 25.408C95.3565 25.792 94.5778 26.1013 93.7245 26.336C92.8712 26.5707 91.9325 26.688 90.9085 26.688C88.6472 26.688 86.9085 26.176 85.6925 25.152C84.4765 24.1067 83.8685 22.4533 83.8685 20.192V14.784H88.8605V19.872C88.8605 20.9387 89.1378 21.7067 89.6925 22.176C90.2472 22.624 91.0258 22.848 92.0285 22.848C92.7538 22.848 93.4472 22.7627 94.1085 22.592C94.7912 22.4213 95.4418 22.176 96.0605 21.856V25.408ZM95.7085 32V14.784H100.701V32H95.7085ZM113.91 32.256C111.947 32.256 110.219 31.872 108.726 31.104C107.254 30.336 106.112 29.2907 105.302 27.968C104.491 26.624 104.086 25.0987 104.086 23.392C104.086 21.664 104.48 20.1387 105.27 18.816C106.08 17.472 107.179 16.4267 108.566 15.68C109.952 14.912 111.52 14.528 113.27 14.528C114.955 14.528 116.47 14.8907 117.814 15.616C119.179 16.32 120.256 17.344 121.046 18.688C121.835 20.0107 122.23 21.6 122.23 23.456C122.23 23.648 122.219 23.872 122.198 24.128C122.176 24.3627 122.155 24.5867 122.134 24.8H108.15V21.888H119.51L117.59 22.752C117.59 21.856 117.408 21.0773 117.046 20.416C116.683 19.7547 116.182 19.2427 115.542 18.88C114.902 18.496 114.155 18.304 113.302 18.304C112.448 18.304 111.691 18.496 111.03 18.88C110.39 19.2427 109.888 19.7653 109.526 20.448C109.163 21.1093 108.982 21.8987 108.982 22.816V23.584C108.982 24.5227 109.184 25.3547 109.59 26.08C110.016 26.784 110.603 27.328 111.35 27.712C112.118 28.0747 113.014 28.256 114.038 28.256C114.955 28.256 115.755 28.1173 116.438 27.84C117.142 27.5627 117.782 27.1467 118.358 26.592L121.014 29.472C120.224 30.368 119.232 31.0613 118.038 31.552C116.843 32.0213 115.467 32.256 113.91 32.256ZM123.284 32L130.996 21.888L130.9 24.64L123.508 14.784H129.108L133.78 21.216L131.668 21.28L136.5 14.784H141.812L134.388 24.544V21.856L142.068 32H136.404L131.508 25.152L133.588 25.44L128.724 32H123.284ZM142.349 31.968L142.605 27.872C142.733 27.8933 142.861 27.9147 142.989 27.936C143.117 27.936 143.234 27.936 143.341 27.936C143.938 27.936 144.408 27.7653 144.749 27.424C145.09 27.0827 145.346 26.624 145.517 26.048C145.688 25.4507 145.805 24.7787 145.869 24.032C145.954 23.2853 146.018 22.5067 146.061 21.696L146.317 14.784H161.037V32H156.045V17.664L157.165 18.88H149.613L150.669 17.6L150.445 21.92C150.381 23.456 150.253 24.864 150.061 26.144C149.89 27.424 149.602 28.5333 149.197 29.472C148.792 30.3893 148.248 31.104 147.565 31.616C146.882 32.1067 146.008 32.352 144.941 32.352C144.557 32.352 144.152 32.32 143.725 32.256C143.298 32.192 142.84 32.096 142.349 31.968ZM183.566 32V14.784H188.526V32H183.566ZM174.894 20.288C177.155 20.3093 178.851 20.8213 179.982 21.824C181.134 22.8053 181.71 24.2027 181.71 26.016C181.71 27.9147 181.059 29.3973 179.758 30.464C178.456 31.5093 176.611 32.032 174.222 32.032L165.838 32V14.784H170.798V20.288H174.894ZM173.774 28.48C174.734 28.5013 175.47 28.2987 175.982 27.872C176.494 27.4453 176.75 26.8053 176.75 25.952C176.75 25.0987 176.494 24.4907 175.982 24.128C175.47 23.744 174.734 23.5413 173.774 23.52L170.798 23.488V28.48H173.774ZM13.248 67.408C12.544 67.792 11.7653 68.1013 10.912 68.336C10.0587 68.5707 9.12 68.688 8.096 68.688C5.83467 68.688 4.096 68.176 2.88 67.152C1.664 66.1067 1.056 64.4533 1.056 62.192V56.784H6.048V61.872C6.048 62.9387 6.32533 63.7067 6.88 64.176C7.43467 64.624 8.21333 64.848 9.216 64.848C9.94133 64.848 10.6347 64.7627 11.296 64.592C11.9787 64.4213 12.6293 64.176 13.248 63.856V67.408ZM12.896 74V56.784H17.888V74H12.896ZM31.0973 74.256C29.1346 74.256 27.4066 73.872 25.9133 73.104C24.4413 72.336 23.2999 71.2907 22.4893 69.968C21.6786 68.624 21.2733 67.0987 21.2733 65.392C21.2733 63.664 21.6679 62.1387 22.4573 60.816C23.2679 59.472 24.3666 58.4267 25.7533 57.68C27.1399 56.912 28.7079 56.528 30.4573 56.528C32.1426 56.528 33.6573 56.8907 35.0013 57.616C36.3666 58.32 37.4439 59.344 38.2333 60.688C39.0226 62.0107 39.4173 63.6 39.4173 65.456C39.4173 65.648 39.4066 65.872 39.3853 66.128C39.3639 66.3627 39.3426 66.5867 39.3213 66.8H25.3373V63.888H36.6973L34.7773 64.752C34.7773 63.856 34.5959 63.0773 34.2333 62.416C33.8706 61.7547 33.3693 61.2427 32.7293 60.88C32.0893 60.496 31.3426 60.304 30.4893 60.304C29.6359 60.304 28.8786 60.496 28.2173 60.88C27.5773 61.2427 27.0759 61.7653 26.7133 62.448C26.3506 63.1093 26.1693 63.8987 26.1693 64.816V65.584C26.1693 66.5227 26.3719 67.3547 26.7773 68.08C27.2039 68.784 27.7906 69.328 28.5373 69.712C29.3053 70.0747 30.2013 70.256 31.2253 70.256C32.1426 70.256 32.9426 70.1173 33.6253 69.84C34.3293 69.5627 34.9693 69.1467 35.5453 68.592L38.2013 71.472C37.4119 72.368 36.4199 73.0613 35.2253 73.552C34.0306 74.0213 32.6546 74.256 31.0973 74.256ZM43.2438 74V56.784H48.4598L54.9558 68.56H52.8758L59.8198 56.784H64.4918L64.5558 74H60.0438V61.904L60.8118 62.416L54.8918 72.336H52.7798L46.8278 62.064L47.7558 61.84V74H43.2438ZM78.4 74V56.784H83.36V63.504H90.848V56.784H95.84V74H90.848V67.568H83.36V74H78.4ZM110.923 74V70.64L110.603 69.904V63.888C110.603 62.8213 110.272 61.9893 109.611 61.392C108.971 60.7947 107.979 60.496 106.635 60.496C105.717 60.496 104.811 60.6453 103.915 60.944C103.04 61.2213 102.293 61.6053 101.675 62.096L99.8828 58.608C100.821 57.9467 101.952 57.4347 103.275 57.072C104.597 56.7093 105.941 56.528 107.307 56.528C109.931 56.528 111.968 57.1467 113.419 58.384C114.869 59.6213 115.595 61.552 115.595 64.176V74H110.923ZM105.675 74.256C104.331 74.256 103.179 74.032 102.219 73.584C101.259 73.1147 100.523 72.4853 100.011 71.696C99.4988 70.9067 99.2428 70.0213 99.2428 69.04C99.2428 68.016 99.4881 67.12 99.9788 66.352C100.491 65.584 101.291 64.9867 102.379 64.56C103.467 64.112 104.885 63.888 106.635 63.888H111.211V66.8H107.179C106.005 66.8 105.195 66.992 104.747 67.376C104.32 67.76 104.107 68.24 104.107 68.816C104.107 69.456 104.352 69.968 104.843 70.352C105.355 70.7147 106.048 70.896 106.923 70.896C107.755 70.896 108.501 70.704 109.163 70.32C109.824 69.9147 110.304 69.328 110.603 68.56L111.371 70.864C111.008 71.9733 110.347 72.816 109.387 73.392C108.427 73.968 107.189 74.256 105.675 74.256ZM128.994 74V56.784H134.21L140.706 68.56H138.626L145.57 56.784H150.242L150.306 74H145.794V61.904L146.562 62.416L140.642 72.336H138.53L132.578 62.064L133.506 61.84V74H128.994ZM165.392 74V70.64L165.072 69.904V63.888C165.072 62.8213 164.741 61.9893 164.08 61.392C163.44 60.7947 162.448 60.496 161.104 60.496C160.186 60.496 159.28 60.6453 158.384 60.944C157.509 61.2213 156.762 61.6053 156.144 62.096L154.352 58.608C155.29 57.9467 156.421 57.4347 157.744 57.072C159.066 56.7093 160.41 56.528 161.776 56.528C164.4 56.528 166.437 57.1467 167.888 58.384C169.338 59.6213 170.064 61.552 170.064 64.176V74H165.392ZM160.144 74.256C158.8 74.256 157.648 74.032 156.688 73.584C155.728 73.1147 154.992 72.4853 154.48 71.696C153.968 70.9067 153.712 70.0213 153.712 69.04C153.712 68.016 153.957 67.12 154.448 66.352C154.96 65.584 155.76 64.9867 156.848 64.56C157.936 64.112 159.354 63.888 161.104 63.888H165.68V66.8H161.648C160.474 66.8 159.664 66.992 159.216 67.376C158.789 67.76 158.576 68.24 158.576 68.816C158.576 69.456 158.821 69.968 159.312 70.352C159.824 70.7147 160.517 70.896 161.392 70.896C162.224 70.896 162.97 70.704 163.632 70.32C164.293 69.9147 164.773 69.328 165.072 68.56L165.84 70.864C165.477 71.9733 164.816 72.816 163.856 73.392C162.896 73.968 161.658 74.256 160.144 74.256ZM184.544 74.256C183.093 74.256 181.824 73.936 180.736 73.296C179.648 72.656 178.795 71.6853 178.176 70.384C177.579 69.0613 177.28 67.3973 177.28 65.392C177.28 63.3653 177.568 61.7013 178.144 60.4C178.72 59.0987 179.552 58.128 180.64 57.488C181.728 56.848 183.029 56.528 184.544 56.528C186.165 56.528 187.616 56.9013 188.896 57.648C190.197 58.3733 191.221 59.3973 191.968 60.72C192.736 62.0427 193.12 63.6 193.12 65.392C193.12 67.2053 192.736 68.7733 191.968 70.096C191.221 71.4187 190.197 72.4427 188.896 73.168C187.616 73.8933 186.165 74.256 184.544 74.256ZM174.368 80.208V56.784H179.136V60.304L179.04 65.424L179.36 70.512V80.208H174.368ZM183.68 70.16C184.512 70.16 185.248 69.968 185.888 69.584C186.549 69.2 187.072 68.656 187.456 67.952C187.861 67.2267 188.064 66.3733 188.064 65.392C188.064 64.3893 187.861 63.536 187.456 62.832C187.072 62.128 186.549 61.584 185.888 61.2C185.248 60.816 184.512 60.624 183.68 60.624C182.848 60.624 182.101 60.816 181.44 61.2C180.779 61.584 180.256 62.128 179.872 62.832C179.488 63.536 179.296 64.3893 179.296 65.392C179.296 66.3733 179.488 67.2267 179.872 67.952C180.256 68.656 180.779 69.2 181.44 69.584C182.101 69.968 182.848 70.16 183.68 70.16ZM208.811 74L203.051 65.84L207.115 63.44L214.699 74H208.811ZM196.619 74V56.784H201.611V74H196.619ZM200.139 67.472V63.472H206.155V67.472H200.139ZM207.595 65.968L202.923 65.456L208.971 56.784H214.283L207.595 65.968ZM225.035 74.256C223.072 74.256 221.344 73.872 219.851 73.104C218.379 72.336 217.237 71.2907 216.427 69.968C215.616 68.624 215.211 67.0987 215.211 65.392C215.211 63.664 215.605 62.1387 216.395 60.816C217.205 59.472 218.304 58.4267 219.691 57.68C221.077 56.912 222.645 56.528 224.395 56.528C226.08 56.528 227.595 56.8907 228.939 57.616C230.304 58.32 231.381 59.344 232.171 60.688C232.96 62.0107 233.355 63.6 233.355 65.456C233.355 65.648 233.344 65.872 233.323 66.128C233.301 66.3627 233.28 66.5867 233.259 66.8H219.275V63.888H230.635L228.715 64.752C228.715 63.856 228.533 63.0773 228.171 62.416C227.808 61.7547 227.307 61.2427 226.667 60.88C226.027 60.496 225.28 60.304 224.427 60.304C223.573 60.304 222.816 60.496 222.155 60.88C221.515 61.2427 221.013 61.7653 220.651 62.448C220.288 63.1093 220.107 63.8987 220.107 64.816V65.584C220.107 66.5227 220.309 67.3547 220.715 68.08C221.141 68.784 221.728 69.328 222.475 69.712C223.243 70.0747 224.139 70.256 225.163 70.256C226.08 70.256 226.88 70.1173 227.563 69.84C228.267 69.5627 228.907 69.1467 229.483 68.592L232.139 71.472C231.349 72.368 230.357 73.0613 229.163 73.552C227.968 74.0213 226.592 74.256 225.035 74.256ZM240.268 74V59.728L241.388 60.88H234.444V56.784H251.052V60.88H244.108L245.228 59.728V74H240.268ZM253.713 74V56.784H270.833V74H265.841V59.76L266.961 60.88H257.553L258.673 59.76V74H253.713ZM273.443 73.968L273.699 69.872C273.827 69.8933 273.955 69.9147 274.083 69.936C274.211 69.936 274.328 69.936 274.435 69.936C275.032 69.936 275.501 69.7653 275.843 69.424C276.184 69.0827 276.44 68.624 276.611 68.048C276.781 67.4507 276.899 66.7787 276.963 66.032C277.048 65.2853 277.112 64.5067 277.155 63.696L277.411 56.784H292.131V74H287.139V59.664L288.259 60.88H280.707L281.763 59.6L281.539 63.92C281.475 65.456 281.347 66.864 281.155 68.144C280.984 69.424 280.696 70.5333 280.291 71.472C279.885 72.3893 279.341 73.104 278.659 73.616C277.976 74.1067 277.101 74.352 276.035 74.352C275.651 74.352 275.245 74.32 274.819 74.256C274.392 74.192 273.933 74.096 273.443 73.968ZM305.347 74.256C303.385 74.256 301.657 73.872 300.163 73.104C298.691 72.336 297.55 71.2907 296.739 69.968C295.929 68.624 295.523 67.0987 295.523 65.392C295.523 63.664 295.918 62.1387 296.707 60.816C297.518 59.472 298.617 58.4267 300.003 57.68C301.39 56.912 302.958 56.528 304.707 56.528C306.393 56.528 307.907 56.8907 309.251 57.616C310.617 58.32 311.694 59.344 312.483 60.688C313.273 62.0107 313.667 63.6 313.667 65.456C313.667 65.648 313.657 65.872 313.635 66.128C313.614 66.3627 313.593 66.5867 313.571 66.8H299.587V63.888H310.947L309.027 64.752C309.027 63.856 308.846 63.0773 308.483 62.416C308.121 61.7547 307.619 61.2427 306.979 60.88C306.339 60.496 305.593 60.304 304.739 60.304C303.886 60.304 303.129 60.496 302.467 60.88C301.827 61.2427 301.326 61.7653 300.963 62.448C300.601 63.1093 300.419 63.8987 300.419 64.816V65.584C300.419 66.5227 300.622 67.3547 301.027 68.08C301.454 68.784 302.041 69.328 302.787 69.712C303.555 70.0747 304.451 70.256 305.475 70.256C306.393 70.256 307.193 70.1173 307.875 69.84C308.579 69.5627 309.219 69.1467 309.795 68.592L312.451 71.472C311.662 72.368 310.67 73.0613 309.475 73.552C308.281 74.0213 306.905 74.256 305.347 74.256ZM317.494 74V56.784H322.454V67.024L330.838 56.784H335.414V74H330.454V63.76L322.102 74H317.494ZM326.134 54.928C324.256 54.928 322.848 54.5227 321.91 53.712C320.971 52.88 320.491 51.632 320.47 49.968H323.734C323.755 50.6933 323.958 51.2693 324.342 51.696C324.726 52.1227 325.312 52.336 326.102 52.336C326.87 52.336 327.456 52.1227 327.862 51.696C328.288 51.2693 328.502 50.6933 328.502 49.968H331.83C331.83 51.632 331.35 52.88 330.39 53.712C329.43 54.5227 328.011 54.928 326.134 54.928ZM348.405 74.256C346.549 74.256 344.895 73.8827 343.445 73.136C341.994 72.368 340.853 71.312 340.021 69.968C339.21 68.624 338.805 67.0987 338.805 65.392C338.805 63.664 339.21 62.1387 340.021 60.816C340.853 59.472 341.994 58.4267 343.445 57.68C344.895 56.912 346.549 56.528 348.405 56.528C350.218 56.528 351.797 56.912 353.141 57.68C354.485 58.4267 355.477 59.504 356.117 60.912L352.245 62.992C351.797 62.1813 351.231 61.584 350.549 61.2C349.887 60.816 349.162 60.624 348.373 60.624C347.519 60.624 346.751 60.816 346.069 61.2C345.386 61.584 344.842 62.128 344.437 62.832C344.053 63.536 343.861 64.3893 343.861 65.392C343.861 66.3947 344.053 67.248 344.437 67.952C344.842 68.656 345.386 69.2 346.069 69.584C346.751 69.968 347.519 70.16 348.373 70.16C349.162 70.16 349.887 69.9787 350.549 69.616C351.231 69.232 351.797 68.624 352.245 67.792L356.117 69.904C355.477 71.2907 354.485 72.368 353.141 73.136C351.797 73.8827 350.218 74.256 348.405 74.256ZM369.454 74V70.64L369.134 69.904V63.888C369.134 62.8213 368.803 61.9893 368.142 61.392C367.502 60.7947 366.51 60.496 365.166 60.496C364.249 60.496 363.342 60.6453 362.446 60.944C361.571 61.2213 360.825 61.6053 360.206 62.096L358.414 58.608C359.353 57.9467 360.483 57.4347 361.806 57.072C363.129 56.7093 364.473 56.528 365.838 56.528C368.462 56.528 370.499 57.1467 371.95 58.384C373.401 59.6213 374.126 61.552 374.126 64.176V74H369.454ZM364.206 74.256C362.862 74.256 361.71 74.032 360.75 73.584C359.79 73.1147 359.054 72.4853 358.542 71.696C358.03 70.9067 357.774 70.0213 357.774 69.04C357.774 68.016 358.019 67.12 358.51 66.352C359.022 65.584 359.822 64.9867 360.91 64.56C361.998 64.112 363.417 63.888 365.166 63.888H369.742V66.8H365.71C364.537 66.8 363.726 66.992 363.278 67.376C362.851 67.76 362.638 68.24 362.638 68.816C362.638 69.456 362.883 69.968 363.374 70.352C363.886 70.7147 364.579 70.896 365.454 70.896C366.286 70.896 367.033 70.704 367.694 70.32C368.355 69.9147 368.835 69.328 369.134 68.56L369.902 70.864C369.539 71.9733 368.878 72.816 367.918 73.392C366.958 73.968 365.721 74.256 364.206 74.256ZM376.159 74L383.871 63.888L383.775 66.64L376.383 56.784H381.983L386.655 63.216L384.543 63.28L389.375 56.784H394.687L387.263 66.544V63.856L394.943 74H389.279L384.383 67.152L386.463 67.44L381.599 74H376.159Z" fill="#141414"/>
<path d="M202.4 32V14.784H207.36V21.504H214.848V14.784H219.84V32H214.848V25.568H207.36V32H202.4ZM234.923 32V28.64L234.603 27.904V21.888C234.603 20.8213 234.272 19.9893 233.611 19.392C232.971 18.7947 231.979 18.496 230.635 18.496C229.717 18.496 228.811 18.6453 227.915 18.944C227.04 19.2213 226.293 19.6053 225.675 20.096L223.883 16.608C224.821 15.9467 225.952 15.4347 227.275 15.072C228.597 14.7093 229.941 14.528 231.307 14.528C233.931 14.528 235.968 15.1467 237.419 16.384C238.869 17.6213 239.595 19.552 239.595 22.176V32H234.923ZM229.675 32.256C228.331 32.256 227.179 32.032 226.219 31.584C225.259 31.1147 224.523 30.4853 224.011 29.696C223.499 28.9067 223.243 28.0213 223.243 27.04C223.243 26.016 223.488 25.12 223.979 24.352C224.491 23.584 225.291 22.9867 226.379 22.56C227.467 22.112 228.885 21.888 230.635 21.888H235.211V24.8H231.179C230.005 24.8 229.195 24.992 228.747 25.376C228.32 25.76 228.107 26.24 228.107 26.816C228.107 27.456 228.352 27.968 228.843 28.352C229.355 28.7147 230.048 28.896 230.923 28.896C231.755 28.896 232.501 28.704 233.163 28.32C233.824 27.9147 234.304 27.328 234.603 26.56L235.371 28.864C235.008 29.9733 234.347 30.816 233.387 31.392C232.427 31.968 231.189 32.256 229.675 32.256ZM255.298 32V11.52L257.538 13.76H250.818V9.6H260.482V32H255.298ZM273.973 32.384C272.138 32.384 270.496 31.936 269.045 31.04C267.594 30.1227 266.453 28.8 265.621 27.072C264.789 25.344 264.373 23.2533 264.373 20.8C264.373 18.3467 264.789 16.256 265.621 14.528C266.453 12.8 267.594 11.488 269.045 10.592C270.496 9.67467 272.138 9.216 273.973 9.216C275.829 9.216 277.472 9.67467 278.901 10.592C280.352 11.488 281.493 12.8 282.325 14.528C283.157 16.256 283.573 18.3467 283.573 20.8C283.573 23.2533 283.157 25.344 282.325 27.072C281.493 28.8 280.352 30.1227 278.901 31.04C277.472 31.936 275.829 32.384 273.973 32.384ZM273.973 28C274.848 28 275.605 27.7547 276.245 27.264C276.906 26.7733 277.418 25.9947 277.781 24.928C278.165 23.8613 278.357 22.4853 278.357 20.8C278.357 19.1147 278.165 17.7387 277.781 16.672C277.418 15.6053 276.906 14.8267 276.245 14.336C275.605 13.8453 274.848 13.6 273.973 13.6C273.12 13.6 272.362 13.8453 271.701 14.336C271.061 14.8267 270.549 15.6053 270.165 16.672C269.802 17.7387 269.621 19.1147 269.621 20.8C269.621 22.4853 269.802 23.8613 270.165 24.928C270.549 25.9947 271.061 26.7733 271.701 27.264C272.362 27.7547 273.12 28 273.973 28ZM286.602 24.992V20.992H295.658V24.992H286.602ZM297.806 32V28.64L306.446 20.48C307.129 19.8613 307.63 19.3067 307.95 18.816C308.27 18.3253 308.483 17.8773 308.59 17.472C308.718 17.0667 308.782 16.6933 308.782 16.352C308.782 15.456 308.473 14.7733 307.854 14.304C307.257 13.8133 306.371 13.568 305.198 13.568C304.259 13.568 303.385 13.7493 302.574 14.112C301.785 14.4747 301.113 15.04 300.558 15.808L296.782 13.376C297.635 12.096 298.83 11.0827 300.366 10.336C301.902 9.58933 303.673 9.216 305.678 9.216C307.342 9.216 308.793 9.49333 310.03 10.048C311.289 10.5813 312.259 11.3387 312.942 12.32C313.646 13.3013 313.998 14.4747 313.998 15.84C313.998 16.5653 313.902 17.2907 313.71 18.016C313.539 18.72 313.177 19.4667 312.622 20.256C312.089 21.0453 311.299 21.9307 310.254 22.912L303.086 29.664L302.094 27.776H314.734V32H297.806ZM326.473 32.384C324.638 32.384 322.996 31.936 321.545 31.04C320.094 30.1227 318.953 28.8 318.121 27.072C317.289 25.344 316.873 23.2533 316.873 20.8C316.873 18.3467 317.289 16.256 318.121 14.528C318.953 12.8 320.094 11.488 321.545 10.592C322.996 9.67467 324.638 9.216 326.473 9.216C328.329 9.216 329.972 9.67467 331.401 10.592C332.852 11.488 333.993 12.8 334.825 14.528C335.657 16.256 336.073 18.3467 336.073 20.8C336.073 23.2533 335.657 25.344 334.825 27.072C333.993 28.8 332.852 30.1227 331.401 31.04C329.972 31.936 328.329 32.384 326.473 32.384ZM326.473 28C327.348 28 328.105 27.7547 328.745 27.264C329.406 26.7733 329.918 25.9947 330.281 24.928C330.665 23.8613 330.857 22.4853 330.857 20.8C330.857 19.1147 330.665 17.7387 330.281 16.672C329.918 15.6053 329.406 14.8267 328.745 14.336C328.105 13.8453 327.348 13.6 326.473 13.6C325.62 13.6 324.862 13.8453 324.201 14.336C323.561 14.8267 323.049 15.6053 322.665 16.672C322.302 17.7387 322.121 19.1147 322.121 20.8C322.121 22.4853 322.302 23.8613 322.665 24.928C323.049 25.9947 323.561 26.7733 324.201 27.264C324.862 27.7547 325.62 28 326.473 28ZM341.824 32L357.12 9.6H360.928L345.632 32H341.824ZM343.776 21.696C342.688 21.696 341.728 21.4507 340.896 20.96C340.064 20.448 339.402 19.7333 338.912 18.816C338.442 17.8773 338.208 16.7787 338.208 15.52C338.208 14.2613 338.442 13.1733 338.912 12.256C339.402 11.3387 340.064 10.624 340.896 10.112C341.728 9.6 342.688 9.344 343.776 9.344C344.864 9.344 345.824 9.6 346.656 10.112C347.488 10.624 348.138 11.3387 348.608 12.256C349.077 13.1733 349.312 14.2613 349.312 15.52C349.312 16.7787 349.077 17.8773 348.608 18.816C348.138 19.7333 347.488 20.448 346.656 20.96C345.824 21.4507 344.864 21.696 343.776 21.696ZM343.776 19.072C344.48 19.072 345.045 18.784 345.472 18.208C345.898 17.6107 346.112 16.7147 346.112 15.52C346.112 14.3253 345.898 13.44 345.472 12.864C345.045 12.2667 344.48 11.968 343.776 11.968C343.093 11.968 342.528 12.2667 342.08 12.864C341.653 13.44 341.44 14.3253 341.44 15.52C341.44 16.6933 341.653 17.5787 342.08 18.176C342.528 18.7733 343.093 19.072 343.776 19.072ZM358.976 32.256C357.909 32.256 356.949 32.0107 356.096 31.52C355.264 31.008 354.613 30.2933 354.144 29.376C353.674 28.4373 353.44 27.3387 353.44 26.08C353.44 24.8213 353.674 23.7333 354.144 22.816C354.613 21.8987 355.264 21.184 356.096 20.672C356.949 20.16 357.909 19.904 358.976 19.904C360.085 19.904 361.056 20.16 361.888 20.672C362.72 21.184 363.37 21.8987 363.84 22.816C364.309 23.7333 364.544 24.8213 364.544 26.08C364.544 27.3387 364.309 28.4373 363.84 29.376C363.37 30.2933 362.72 31.008 361.888 31.52C361.056 32.0107 360.085 32.256 358.976 32.256ZM358.976 29.632C359.68 29.632 360.245 29.344 360.672 28.768C361.098 28.1707 361.312 27.2747 361.312 26.08C361.312 24.9067 361.098 24.0213 360.672 23.424C360.245 22.8267 359.68 22.528 358.976 22.528C358.293 22.528 357.728 22.8267 357.28 23.424C356.853 24 356.64 24.8853 356.64 26.08C356.64 27.2747 356.853 28.1707 357.28 28.768C357.728 29.344 358.293 29.632 358.976 29.632ZM388.709 29.76V18.88H383.077L382.981 21.088C382.938 22.0053 382.885 22.88 382.821 23.712C382.757 24.544 382.629 25.3013 382.437 25.984C382.266 26.6453 382.01 27.2107 381.669 27.68C381.327 28.128 380.869 28.4373 380.293 28.608L375.365 27.904C375.983 27.904 376.485 27.7227 376.869 27.36C377.253 26.976 377.551 26.4533 377.765 25.792C377.978 25.1093 378.138 24.3413 378.245 23.488C378.351 22.6133 378.426 21.696 378.469 20.736L378.693 14.784H393.701V29.76H388.709ZM374.789 35.712V27.904H396.165V35.712H391.525V32H379.429V35.712H374.789ZM407.722 32.256C405.76 32.256 404.032 31.872 402.538 31.104C401.066 30.336 399.925 29.2907 399.114 27.968C398.304 26.624 397.898 25.0987 397.898 23.392C397.898 21.664 398.293 20.1387 399.082 18.816C399.893 17.472 400.992 16.4267 402.378 15.68C403.765 14.912 405.333 14.528 407.082 14.528C408.768 14.528 410.282 14.8907 411.626 15.616C412.992 16.32 414.069 17.344 414.858 18.688C415.648 20.0107 416.042 21.6 416.042 23.456C416.042 23.648 416.032 23.872 416.01 24.128C415.989 24.3627 415.968 24.5867 415.946 24.8H401.962V21.888H413.322L411.402 22.752C411.402 21.856 411.221 21.0773 410.858 20.416C410.496 19.7547 409.994 19.2427 409.354 18.88C408.714 18.496 407.968 18.304 407.114 18.304C406.261 18.304 405.504 18.496 404.842 18.88C404.202 19.2427 403.701 19.7653 403.338 20.448C402.976 21.1093 402.794 21.8987 402.794 22.816V23.584C402.794 24.5227 402.997 25.3547 403.402 26.08C403.829 26.784 404.416 27.328 405.162 27.712C405.93 28.0747 406.826 28.256 407.85 28.256C408.768 28.256 409.568 28.1173 410.25 27.84C410.954 27.5627 411.594 27.1467 412.17 26.592L414.826 29.472C414.037 30.368 413.045 31.0613 411.85 31.552C410.656 32.0213 409.28 32.256 407.722 32.256ZM431.613 27.904L430.525 29.056V14.784H435.517V29.056L434.365 27.904H442.301L441.181 29.056V14.784H446.141V32H419.869V14.784H424.829V29.056L423.709 27.904H431.613ZM459.347 32.256C457.385 32.256 455.657 31.872 454.163 31.104C452.691 30.336 451.55 29.2907 450.739 27.968C449.929 26.624 449.523 25.0987 449.523 23.392C449.523 21.664 449.918 20.1387 450.707 18.816C451.518 17.472 452.617 16.4267 454.003 15.68C455.39 14.912 456.958 14.528 458.707 14.528C460.393 14.528 461.907 14.8907 463.251 15.616C464.617 16.32 465.694 17.344 466.483 18.688C467.273 20.0107 467.667 21.6 467.667 23.456C467.667 23.648 467.657 23.872 467.635 24.128C467.614 24.3627 467.593 24.5867 467.571 24.8H453.587V21.888H464.947L463.027 22.752C463.027 21.856 462.846 21.0773 462.483 20.416C462.121 19.7547 461.619 19.2427 460.979 18.88C460.339 18.496 459.593 18.304 458.739 18.304C457.886 18.304 457.129 18.496 456.467 18.88C455.827 19.2427 455.326 19.7653 454.963 20.448C454.601 21.1093 454.419 21.8987 454.419 22.816V23.584C454.419 24.5227 454.622 25.3547 455.027 26.08C455.454 26.784 456.041 27.328 456.787 27.712C457.555 28.0747 458.451 28.256 459.475 28.256C460.393 28.256 461.193 28.1173 461.875 27.84C462.579 27.5627 463.219 27.1467 463.795 26.592L466.451 29.472C465.662 30.368 464.67 31.0613 463.475 31.552C462.281 32.0213 460.905 32.256 459.347 32.256ZM471.494 32V14.784H480.294C482.448 14.784 484.134 15.1787 485.35 15.968C486.566 16.736 487.174 17.824 487.174 19.232C487.174 20.64 486.598 21.7493 485.446 22.56C484.315 23.3493 482.811 23.744 480.934 23.744L481.446 22.592C483.536 22.592 485.094 22.976 486.118 23.744C487.163 24.512 487.686 25.632 487.686 27.104C487.686 28.6187 487.11 29.8133 485.958 30.688C484.806 31.5627 483.046 32 480.678 32H471.494ZM476.07 28.608H480.262C481.179 28.608 481.862 28.4587 482.31 28.16C482.779 27.84 483.014 27.36 483.014 26.72C483.014 26.0587 482.8 25.5787 482.374 25.28C481.947 24.96 481.275 24.8 480.358 24.8H476.07V28.608ZM476.07 21.856H479.846C480.72 21.856 481.371 21.696 481.798 21.376C482.246 21.056 482.47 20.5973 482.47 20C482.47 19.3813 482.246 18.9227 481.798 18.624C481.371 18.3253 480.72 18.176 479.846 18.176H476.07V21.856ZM489.224 31.968L489.48 27.872C489.608 27.8933 489.736 27.9147 489.864 27.936C489.992 27.936 490.109 27.936 490.216 27.936C490.813 27.936 491.283 27.7653 491.624 27.424C491.965 27.0827 492.221 26.624 492.392 26.048C492.563 25.4507 492.68 24.7787 492.744 24.032C492.829 23.2853 492.893 22.5067 492.936 21.696L493.192 14.784H507.912V32H502.92V17.664L504.04 18.88H496.488L497.544 17.6L497.32 21.92C497.256 23.456 497.128 24.864 496.936 26.144C496.765 27.424 496.477 28.5333 496.072 29.472C495.667 30.3893 495.123 31.104 494.44 31.616C493.757 32.1067 492.883 32.352 491.816 32.352C491.432 32.352 491.027 32.32 490.6 32.256C490.173 32.192 489.715 32.096 489.224 31.968ZM521.129 32.256C519.166 32.256 517.438 31.872 515.945 31.104C514.473 30.336 513.331 29.2907 512.521 27.968C511.71 26.624 511.305 25.0987 511.305 23.392C511.305 21.664 511.699 20.1387 512.489 18.816C513.299 17.472 514.398 16.4267 515.785 15.68C517.171 14.912 518.739 14.528 520.489 14.528C522.174 14.528 523.689 14.8907 525.033 15.616C526.398 16.32 527.475 17.344 528.265 18.688C529.054 20.0107 529.449 21.6 529.449 23.456C529.449 23.648 529.438 23.872 529.417 24.128C529.395 24.3627 529.374 24.5867 529.353 24.8H515.369V21.888H526.729L524.809 22.752C524.809 21.856 524.627 21.0773 524.265 20.416C523.902 19.7547 523.401 19.2427 522.761 18.88C522.121 18.496 521.374 18.304 520.521 18.304C519.667 18.304 518.91 18.496 518.249 18.88C517.609 19.2427 517.107 19.7653 516.745 20.448C516.382 21.1093 516.201 21.8987 516.201 22.816V23.584C516.201 24.5227 516.403 25.3547 516.809 26.08C517.235 26.784 517.822 27.328 518.569 27.712C519.337 28.0747 520.233 28.256 521.257 28.256C522.174 28.256 522.974 28.1173 523.657 27.84C524.361 27.5627 525.001 27.1467 525.577 26.592L528.233 29.472C527.443 30.368 526.451 31.0613 525.257 31.552C524.062 32.0213 522.686 32.256 521.129 32.256ZM532.315 36.928L534.427 29.248L535.131 32.128C534.214 32.128 533.456 31.8613 532.859 31.328C532.283 30.7947 531.995 30.0587 531.995 29.12C531.995 28.1813 532.294 27.4347 532.891 26.88C533.488 26.3253 534.224 26.048 535.099 26.048C535.995 26.048 536.731 26.336 537.307 26.912C537.883 27.4667 538.171 28.2027 538.171 29.12C538.171 29.3973 538.15 29.6747 538.107 29.952C538.064 30.208 537.979 30.528 537.851 30.912C537.744 31.2747 537.563 31.744 537.307 32.32L535.483 36.928H532.315Z" fill="#28CB47"/>
<path d="M1.888 118V106.8H10.08V107.808H3.056V111.472H6.72C8.04267 111.472 9.04533 111.744 9.728 112.288C10.4213 112.821 10.768 113.611 10.768 114.656C10.768 115.733 10.3947 116.56 9.648 117.136C8.912 117.712 7.85067 118 6.464 118H1.888ZM3.056 117.056H6.448C7.48267 117.056 8.26133 116.859 8.784 116.464C9.31733 116.059 9.584 115.472 9.584 114.704C9.584 113.179 8.53867 112.416 6.448 112.416H3.056V117.056ZM16.8254 118.08C15.9507 118.08 15.1827 117.899 14.5214 117.536C13.86 117.163 13.3427 116.656 12.9694 116.016C12.596 115.365 12.4094 114.624 12.4094 113.792C12.4094 112.96 12.5854 112.224 12.9374 111.584C13.3 110.944 13.7907 110.443 14.4094 110.08C15.0387 109.707 15.7427 109.52 16.5214 109.52C17.3107 109.52 18.0094 109.701 18.6174 110.064C19.236 110.416 19.7214 110.917 20.0734 111.568C20.4254 112.208 20.6014 112.949 20.6014 113.792C20.6014 113.845 20.596 113.904 20.5854 113.968C20.5854 114.021 20.5854 114.08 20.5854 114.144H13.2734V113.296H19.9774L19.5294 113.632C19.5294 113.024 19.396 112.485 19.1294 112.016C18.8734 111.536 18.5214 111.163 18.0734 110.896C17.6254 110.629 17.108 110.496 16.5214 110.496C15.9454 110.496 15.428 110.629 14.9694 110.896C14.5107 111.163 14.1534 111.536 13.8974 112.016C13.6414 112.496 13.5134 113.045 13.5134 113.664V113.84C13.5134 114.48 13.652 115.045 13.9294 115.536C14.2174 116.016 14.612 116.395 15.1134 116.672C15.6254 116.939 16.2067 117.072 16.8574 117.072C17.3694 117.072 17.844 116.981 18.2814 116.8C18.7294 116.619 19.1134 116.341 19.4334 115.968L20.0734 116.704C19.7 117.152 19.2307 117.493 18.6654 117.728C18.1107 117.963 17.4974 118.08 16.8254 118.08ZM25.1376 118.096C24.5296 118.096 23.927 118.011 23.3296 117.84C22.7323 117.669 22.2043 117.408 21.7456 117.056L22.1136 116.208C22.519 116.507 22.9883 116.736 23.5216 116.896C24.055 117.045 24.583 117.12 25.1056 117.12C25.6283 117.109 26.0816 117.035 26.4656 116.896C26.8496 116.757 27.1483 116.565 27.3616 116.32C27.575 116.075 27.6816 115.797 27.6816 115.488C27.6816 115.04 27.479 114.693 27.0736 114.448C26.6683 114.192 26.1136 114.064 25.4096 114.064H23.9696V113.232H25.3296C25.7456 113.232 26.1136 113.179 26.4336 113.072C26.7536 112.965 26.999 112.811 27.1696 112.608C27.351 112.405 27.4416 112.165 27.4416 111.888C27.4416 111.589 27.335 111.333 27.1216 111.12C26.919 110.907 26.6363 110.747 26.2736 110.64C25.911 110.533 25.5003 110.48 25.0416 110.48C24.6256 110.491 24.1936 110.555 23.7456 110.672C23.2976 110.779 22.855 110.944 22.4176 111.168L22.0976 110.288C22.5883 110.032 23.0736 109.84 23.5536 109.712C24.0443 109.573 24.535 109.504 25.0256 109.504C25.6976 109.483 26.3003 109.563 26.8336 109.744C27.3776 109.925 27.8096 110.187 28.1296 110.528C28.4496 110.859 28.6096 111.259 28.6096 111.728C28.6096 112.144 28.4816 112.507 28.2256 112.816C27.9696 113.125 27.6283 113.365 27.2016 113.536C26.775 113.707 26.2896 113.792 25.7456 113.792L25.7936 113.488C26.7536 113.488 27.5003 113.675 28.0336 114.048C28.5776 114.421 28.8496 114.928 28.8496 115.568C28.8496 116.069 28.6843 116.512 28.3536 116.896C28.023 117.269 27.575 117.563 27.0096 117.776C26.455 117.989 25.831 118.096 25.1376 118.096ZM35.616 118V109.6H36.752V113.312H42.048V109.6H43.184V118H42.048V114.288H36.752V118H35.616ZM51.6289 118V116.144L51.5809 115.84V112.736C51.5809 112.021 51.3782 111.472 50.9729 111.088C50.5782 110.704 49.9862 110.512 49.1969 110.512C48.6529 110.512 48.1355 110.603 47.6449 110.784C47.1542 110.965 46.7382 111.205 46.3969 111.504L45.8849 110.656C46.3115 110.293 46.8235 110.016 47.4209 109.824C48.0182 109.621 48.6475 109.52 49.3089 109.52C50.3969 109.52 51.2342 109.792 51.8209 110.336C52.4182 110.869 52.7169 111.685 52.7169 112.784V118H51.6289ZM48.7329 118.08C48.1035 118.08 47.5542 117.979 47.0849 117.776C46.6262 117.563 46.2742 117.275 46.0289 116.912C45.7835 116.539 45.6609 116.112 45.6609 115.632C45.6609 115.195 45.7622 114.8 45.9649 114.448C46.1782 114.085 46.5195 113.797 46.9889 113.584C47.4689 113.36 48.1089 113.248 48.9089 113.248H51.8049V114.096H48.9409C48.1302 114.096 47.5649 114.24 47.2449 114.528C46.9355 114.816 46.7809 115.173 46.7809 115.6C46.7809 116.08 46.9675 116.464 47.3409 116.752C47.7142 117.04 48.2369 117.184 48.9089 117.184C49.5489 117.184 50.0982 117.04 50.5569 116.752C51.0262 116.453 51.3675 116.027 51.5809 115.472L51.8369 116.256C51.6235 116.811 51.2502 117.253 50.7169 117.584C50.1942 117.915 49.5329 118.08 48.7329 118.08ZM55.741 118V109.6H56.877V117.008H62.013V109.6H63.149V118H55.741ZM63.437 120.032V117.904L63.725 118H62.013V117.008H64.509V120.032H63.437ZM70.2785 118.08C69.4038 118.08 68.6358 117.899 67.9745 117.536C67.3132 117.163 66.7958 116.656 66.4225 116.016C66.0492 115.365 65.8625 114.624 65.8625 113.792C65.8625 112.96 66.0385 112.224 66.3905 111.584C66.7532 110.944 67.2438 110.443 67.8625 110.08C68.4918 109.707 69.1958 109.52 69.9745 109.52C70.7638 109.52 71.4625 109.701 72.0705 110.064C72.6892 110.416 73.1745 110.917 73.5265 111.568C73.8785 112.208 74.0545 112.949 74.0545 113.792C74.0545 113.845 74.0492 113.904 74.0385 113.968C74.0385 114.021 74.0385 114.08 74.0385 114.144H66.7265V113.296H73.4305L72.9825 113.632C72.9825 113.024 72.8492 112.485 72.5825 112.016C72.3265 111.536 71.9745 111.163 71.5265 110.896C71.0785 110.629 70.5612 110.496 69.9745 110.496C69.3985 110.496 68.8812 110.629 68.4225 110.896C67.9638 111.163 67.6065 111.536 67.3505 112.016C67.0945 112.496 66.9665 113.045 66.9665 113.664V113.84C66.9665 114.48 67.1052 115.045 67.3825 115.536C67.6705 116.016 68.0652 116.395 68.5665 116.672C69.0785 116.939 69.6598 117.072 70.3105 117.072C70.8225 117.072 71.2972 116.981 71.7345 116.8C72.1825 116.619 72.5665 116.341 72.8865 115.968L73.5265 116.704C73.1532 117.152 72.6838 117.493 72.1185 117.728C71.5638 117.963 70.9505 118.08 70.2785 118.08ZM76.5691 118V109.6H77.7051V113.312H83.0011V109.6H84.1371V118H83.0011V114.288H77.7051V118H76.5691ZM93.526 118L90.07 113.84L91.014 113.28L94.87 118H93.526ZM87.366 118V109.6H88.502V118H87.366ZM88.15 114.256V113.28H90.854V114.256H88.15ZM91.11 113.92L90.054 113.76L93.398 109.6H94.63L91.11 113.92ZM96.6629 118V109.6H97.7989V116.272L103.415 109.6H104.423V118H103.287V111.312L97.6869 118H96.6629ZM111.866 118V109.6H119.418V118H118.282V110.288L118.57 110.592H112.714L113.002 110.288V118H111.866ZM126.103 118.08C125.293 118.08 124.562 117.899 123.911 117.536C123.271 117.163 122.765 116.656 122.391 116.016C122.018 115.365 121.831 114.624 121.831 113.792C121.831 112.949 122.018 112.208 122.391 111.568C122.765 110.928 123.271 110.427 123.911 110.064C124.551 109.701 125.282 109.52 126.103 109.52C126.935 109.52 127.671 109.701 128.311 110.064C128.962 110.427 129.469 110.928 129.831 111.568C130.205 112.208 130.391 112.949 130.391 113.792C130.391 114.624 130.205 115.365 129.831 116.016C129.469 116.656 128.962 117.163 128.311 117.536C127.661 117.899 126.925 118.08 126.103 118.08ZM126.103 117.072C126.711 117.072 127.25 116.939 127.719 116.672C128.189 116.395 128.557 116.011 128.823 115.52C129.101 115.019 129.239 114.443 129.239 113.792C129.239 113.131 129.101 112.555 128.823 112.064C128.557 111.573 128.189 111.195 127.719 110.928C127.25 110.651 126.717 110.512 126.119 110.512C125.522 110.512 124.989 110.651 124.519 110.928C124.05 111.195 123.677 111.573 123.399 112.064C123.122 112.555 122.983 113.131 122.983 113.792C122.983 114.443 123.122 115.019 123.399 115.52C123.677 116.011 124.05 116.395 124.519 116.672C124.989 116.939 125.517 117.072 126.103 117.072ZM136.339 118.08C135.507 118.08 134.76 117.899 134.099 117.536C133.448 117.163 132.936 116.656 132.563 116.016C132.19 115.365 132.003 114.624 132.003 113.792C132.003 112.949 132.19 112.208 132.563 111.568C132.936 110.928 133.448 110.427 134.099 110.064C134.76 109.701 135.507 109.52 136.339 109.52C137.054 109.52 137.699 109.659 138.275 109.936C138.851 110.213 139.304 110.629 139.635 111.184L138.787 111.76C138.499 111.333 138.142 111.019 137.715 110.816C137.288 110.613 136.824 110.512 136.323 110.512C135.726 110.512 135.187 110.651 134.707 110.928C134.227 111.195 133.848 111.573 133.571 112.064C133.294 112.555 133.155 113.131 133.155 113.792C133.155 114.453 133.294 115.029 133.571 115.52C133.848 116.011 134.227 116.395 134.707 116.672C135.187 116.939 135.726 117.072 136.323 117.072C136.824 117.072 137.288 116.971 137.715 116.768C138.142 116.565 138.499 116.256 138.787 115.84L139.635 116.416C139.304 116.96 138.851 117.376 138.275 117.664C137.699 117.941 137.054 118.08 136.339 118.08ZM146.171 118.08C145.445 118.08 144.789 117.915 144.203 117.584C143.616 117.243 143.147 116.757 142.795 116.128C142.453 115.488 142.283 114.709 142.283 113.792C142.283 112.875 142.453 112.101 142.795 111.472C143.136 110.832 143.6 110.347 144.187 110.016C144.773 109.685 145.435 109.52 146.171 109.52C146.971 109.52 147.685 109.701 148.315 110.064C148.955 110.416 149.456 110.917 149.819 111.568C150.181 112.208 150.363 112.949 150.363 113.792C150.363 114.645 150.181 115.392 149.819 116.032C149.456 116.672 148.955 117.173 148.315 117.536C147.685 117.899 146.971 118.08 146.171 118.08ZM141.835 121.104V109.6H142.923V112.128L142.811 113.808L142.971 115.504V121.104H141.835ZM146.091 117.072C146.688 117.072 147.221 116.939 147.691 116.672C148.16 116.395 148.533 116.011 148.811 115.52C149.088 115.019 149.227 114.443 149.227 113.792C149.227 113.141 149.088 112.571 148.811 112.08C148.533 111.589 148.16 111.205 147.691 110.928C147.221 110.651 146.688 110.512 146.091 110.512C145.493 110.512 144.955 110.651 144.475 110.928C144.005 111.205 143.632 111.589 143.355 112.08C143.088 112.571 142.955 113.141 142.955 113.792C142.955 114.443 143.088 115.019 143.355 115.52C143.632 116.011 144.005 116.395 144.475 116.672C144.955 116.939 145.493 117.072 146.091 117.072ZM156.404 118.08C155.529 118.08 154.761 117.899 154.1 117.536C153.438 117.163 152.921 116.656 152.548 116.016C152.174 115.365 151.988 114.624 151.988 113.792C151.988 112.96 152.164 112.224 152.516 111.584C152.878 110.944 153.369 110.443 153.988 110.08C154.617 109.707 155.321 109.52 156.1 109.52C156.889 109.52 157.588 109.701 158.196 110.064C158.814 110.416 159.3 110.917 159.652 111.568C160.004 112.208 160.18 112.949 160.18 113.792C160.18 113.845 160.174 113.904 160.164 113.968C160.164 114.021 160.164 114.08 160.164 114.144H152.852V113.296H159.556L159.108 113.632C159.108 113.024 158.974 112.485 158.708 112.016C158.452 111.536 158.1 111.163 157.652 110.896C157.204 110.629 156.686 110.496 156.1 110.496C155.524 110.496 155.006 110.629 154.548 110.896C154.089 111.163 153.732 111.536 153.476 112.016C153.22 112.496 153.092 113.045 153.092 113.664V113.84C153.092 114.48 153.23 115.045 153.508 115.536C153.796 116.016 154.19 116.395 154.692 116.672C155.204 116.939 155.785 117.072 156.436 117.072C156.948 117.072 157.422 116.981 157.86 116.8C158.308 116.619 158.692 116.341 159.012 115.968L159.652 116.704C159.278 117.152 158.809 117.493 158.244 117.728C157.689 117.963 157.076 118.08 156.404 118.08ZM168.282 117.456V110.592H164.234L164.138 112.464C164.117 113.029 164.08 113.584 164.026 114.128C163.984 114.672 163.904 115.173 163.786 115.632C163.68 116.08 163.525 116.448 163.322 116.736C163.12 117.013 162.858 117.173 162.538 117.216L161.402 117.008C161.733 117.019 162.005 116.901 162.218 116.656C162.432 116.4 162.597 116.053 162.714 115.616C162.832 115.179 162.917 114.683 162.97 114.128C163.024 113.563 163.066 112.987 163.098 112.4L163.21 109.6H169.418V117.456H168.282ZM161.05 120.032V117.008H170.73V120.032H169.658V118H162.122V120.032H161.05ZM172.944 118V109.6H174.08V113.312H179.376V109.6H180.512V118H179.376V114.288H174.08V118H172.944ZM183.741 118V109.6H184.877V116.272L190.493 109.6H191.501V118H190.365V111.312L184.765 118H183.741ZM200.917 118L197.461 113.84L198.405 113.28L202.261 118H200.917ZM194.757 118V109.6H195.893V118H194.757ZM195.541 114.256V113.28H198.245V114.256H195.541ZM198.501 113.92L197.445 113.76L200.789 109.6H202.021L198.501 113.92ZM207.213 118.08C206.402 118.08 205.671 117.899 205.021 117.536C204.381 117.163 203.874 116.656 203.501 116.016C203.127 115.365 202.941 114.624 202.941 113.792C202.941 112.949 203.127 112.208 203.501 111.568C203.874 110.928 204.381 110.427 205.021 110.064C205.661 109.701 206.391 109.52 207.213 109.52C208.045 109.52 208.781 109.701 209.421 110.064C210.071 110.427 210.578 110.928 210.941 111.568C211.314 112.208 211.501 112.949 211.501 113.792C211.501 114.624 211.314 115.365 210.941 116.016C210.578 116.656 210.071 117.163 209.421 117.536C208.77 117.899 208.034 118.08 207.213 118.08ZM207.213 117.072C207.821 117.072 208.359 116.939 208.829 116.672C209.298 116.395 209.666 116.011 209.933 115.52C210.21 115.019 210.349 114.443 210.349 113.792C210.349 113.131 210.21 112.555 209.933 112.064C209.666 111.573 209.298 111.195 208.829 110.928C208.359 110.651 207.826 110.512 207.229 110.512C206.631 110.512 206.098 110.651 205.629 110.928C205.159 111.195 204.786 111.573 204.509 112.064C204.231 112.555 204.093 113.131 204.093 113.792C204.093 114.443 204.231 115.019 204.509 115.52C204.786 116.011 205.159 116.395 205.629 116.672C206.098 116.939 206.626 117.072 207.213 117.072ZM213.929 118V109.6H217.641C218.59 109.6 219.337 109.781 219.881 110.144C220.435 110.507 220.713 111.04 220.713 111.744C220.713 112.427 220.451 112.955 219.929 113.328C219.406 113.691 218.718 113.872 217.865 113.872L218.089 113.536C219.091 113.536 219.827 113.723 220.297 114.096C220.766 114.469 221.001 115.008 221.001 115.712C221.001 116.437 220.734 117.003 220.201 117.408C219.678 117.803 218.862 118 217.753 118H213.929ZM215.033 117.104H217.705C218.419 117.104 218.958 116.992 219.321 116.768C219.694 116.533 219.881 116.16 219.881 115.648C219.881 115.136 219.715 114.763 219.385 114.528C219.054 114.293 218.531 114.176 217.817 114.176H215.033V117.104ZM215.033 113.328H217.561C218.211 113.328 218.707 113.205 219.049 112.96C219.401 112.715 219.577 112.357 219.577 111.888C219.577 111.419 219.401 111.067 219.049 110.832C218.707 110.597 218.211 110.48 217.561 110.48H215.033V113.328ZM227.85 118V109.6H228.986V116.272L234.602 109.6H235.61V118H234.474V111.312L228.874 118H227.85ZM248.27 118V116.144L248.222 115.84V112.736C248.222 112.021 248.019 111.472 247.614 111.088C247.219 110.704 246.627 110.512 245.838 110.512C245.294 110.512 244.776 110.603 244.286 110.784C243.795 110.965 243.379 111.205 243.038 111.504L242.526 110.656C242.952 110.293 243.464 110.016 244.062 109.824C244.659 109.621 245.288 109.52 245.95 109.52C247.038 109.52 247.875 109.792 248.462 110.336C249.059 110.869 249.358 111.685 249.358 112.784V118H248.27ZM245.374 118.08C244.744 118.08 244.195 117.979 243.726 117.776C243.267 117.563 242.915 117.275 242.67 116.912C242.424 116.539 242.302 116.112 242.302 115.632C242.302 115.195 242.403 114.8 242.606 114.448C242.819 114.085 243.16 113.797 243.63 113.584C244.11 113.36 244.75 113.248 245.549 113.248H248.446V114.096H245.582C244.771 114.096 244.206 114.24 243.886 114.528C243.576 114.816 243.422 115.173 243.422 115.6C243.422 116.08 243.608 116.464 243.982 116.752C244.355 117.04 244.878 117.184 245.549 117.184C246.19 117.184 246.739 117.04 247.198 116.752C247.667 116.453 248.008 116.027 248.222 115.472L248.478 116.256C248.264 116.811 247.891 117.253 247.358 117.584C246.835 117.915 246.174 118.08 245.374 118.08ZM252.382 118V109.6H258.334V110.592H253.23L253.518 110.304V118H252.382ZM263.185 118.08C262.31 118.08 261.542 117.899 260.881 117.536C260.219 117.163 259.702 116.656 259.329 116.016C258.955 115.365 258.769 114.624 258.769 113.792C258.769 112.96 258.945 112.224 259.297 111.584C259.659 110.944 260.15 110.443 260.769 110.08C261.398 109.707 262.102 109.52 262.881 109.52C263.67 109.52 264.369 109.701 264.977 110.064C265.595 110.416 266.081 110.917 266.433 111.568C266.785 112.208 266.961 112.949 266.961 113.792C266.961 113.845 266.955 113.904 266.945 113.968C266.945 114.021 266.945 114.08 266.945 114.144H259.633V113.296H266.337L265.889 113.632C265.889 113.024 265.755 112.485 265.489 112.016C265.233 111.536 264.881 111.163 264.433 110.896C263.985 110.629 263.467 110.496 262.881 110.496C262.305 110.496 261.787 110.629 261.329 110.896C260.87 111.163 260.513 111.536 260.257 112.016C260.001 112.496 259.873 113.045 259.873 113.664V113.84C259.873 114.48 260.011 115.045 260.289 115.536C260.577 116.016 260.971 116.395 261.473 116.672C261.985 116.939 262.566 117.072 263.217 117.072C263.729 117.072 264.203 116.981 264.641 116.8C265.089 116.619 265.473 116.341 265.793 115.968L266.433 116.704C266.059 117.152 265.59 117.493 265.025 117.728C264.47 117.963 263.857 118.08 263.185 118.08ZM269.475 118V109.6H270.611V113.312H275.907V109.6H277.043V118H275.907V114.288H270.611V118H269.475ZM281.872 118V110.288L282.16 110.592H278.688V109.6H286.192V110.592H282.72L283.008 110.288V118H281.872ZM290.964 118.08C290.132 118.08 289.385 117.899 288.724 117.536C288.073 117.163 287.561 116.656 287.188 116.016C286.815 115.365 286.628 114.624 286.628 113.792C286.628 112.949 286.815 112.208 287.188 111.568C287.561 110.928 288.073 110.427 288.724 110.064C289.385 109.701 290.132 109.52 290.964 109.52C291.679 109.52 292.324 109.659 292.9 109.936C293.476 110.213 293.929 110.629 294.26 111.184L293.412 111.76C293.124 111.333 292.767 111.019 292.34 110.816C291.913 110.613 291.449 110.512 290.948 110.512C290.351 110.512 289.812 110.651 289.332 110.928C288.852 111.195 288.473 111.573 288.196 112.064C287.919 112.555 287.78 113.131 287.78 113.792C287.78 114.453 287.919 115.029 288.196 115.52C288.473 116.011 288.852 116.395 289.332 116.672C289.812 116.939 290.351 117.072 290.948 117.072C291.449 117.072 291.913 116.971 292.34 116.768C292.767 116.565 293.124 116.256 293.412 115.84L294.26 116.416C293.929 116.96 293.476 117.376 292.9 117.664C292.324 117.941 291.679 118.08 290.964 118.08ZM297.904 118V110.288L298.192 110.592H294.72V109.6H302.224V110.592H298.752L299.04 110.288V118H297.904ZM310.026 118L306.57 113.84L307.514 113.28L311.37 118H310.026ZM303.866 118V109.6H305.002V118H303.866ZM304.65 114.256V113.28H307.354V114.256H304.65ZM307.61 113.92L306.554 113.76L309.898 109.6H311.13L307.61 113.92ZM316.322 118.08C315.511 118.08 314.781 117.899 314.13 117.536C313.49 117.163 312.983 116.656 312.61 116.016C312.237 115.365 312.05 114.624 312.05 113.792C312.05 112.949 312.237 112.208 312.61 111.568C312.983 110.928 313.49 110.427 314.13 110.064C314.77 109.701 315.501 109.52 316.322 109.52C317.154 109.52 317.89 109.701 318.53 110.064C319.181 110.427 319.687 110.928 320.05 111.568C320.423 112.208 320.61 112.949 320.61 113.792C320.61 114.624 320.423 115.365 320.05 116.016C319.687 116.656 319.181 117.163 318.53 117.536C317.879 117.899 317.143 118.08 316.322 118.08ZM316.322 117.072C316.93 117.072 317.469 116.939 317.938 116.672C318.407 116.395 318.775 116.011 319.042 115.52C319.319 115.019 319.458 114.443 319.458 113.792C319.458 113.131 319.319 112.555 319.042 112.064C318.775 111.573 318.407 111.195 317.938 110.928C317.469 110.651 316.935 110.512 316.338 110.512C315.741 110.512 315.207 110.651 314.738 110.928C314.269 111.195 313.895 111.573 313.618 112.064C313.341 112.555 313.202 113.131 313.202 113.792C313.202 114.443 313.341 115.019 313.618 115.52C313.895 116.011 314.269 116.395 314.738 116.672C315.207 116.939 315.735 117.072 316.322 117.072ZM323.038 118V109.6H324.174V116.272L329.79 109.6H330.798V118H329.662V111.312L324.062 118H323.038ZM326.846 108.384C326.142 108.384 325.571 108.208 325.134 107.856C324.707 107.493 324.483 106.976 324.462 106.304H325.278C325.289 106.731 325.438 107.067 325.726 107.312C326.014 107.557 326.387 107.68 326.846 107.68C327.305 107.68 327.678 107.557 327.966 107.312C328.265 107.067 328.419 106.731 328.43 106.304H329.246C329.235 106.976 329.011 107.493 328.574 107.856C328.137 108.208 327.561 108.384 326.846 108.384ZM344.401 118L340.945 113.84L341.889 113.28L345.745 118H344.401ZM338.241 118V109.6H339.377V118H338.241ZM339.025 114.256V113.28H341.729V114.256H339.025ZM341.985 113.92L340.929 113.76L344.273 109.6H345.505L341.985 113.92ZM350.697 118.08C349.886 118.08 349.156 117.899 348.505 117.536C347.865 117.163 347.358 116.656 346.985 116.016C346.612 115.365 346.425 114.624 346.425 113.792C346.425 112.949 346.612 112.208 346.985 111.568C347.358 110.928 347.865 110.427 348.505 110.064C349.145 109.701 349.876 109.52 350.697 109.52C351.529 109.52 352.265 109.701 352.905 110.064C353.556 110.427 354.062 110.928 354.425 111.568C354.798 112.208 354.985 112.949 354.985 113.792C354.985 114.624 354.798 115.365 354.425 116.016C354.062 116.656 353.556 117.163 352.905 117.536C352.254 117.899 351.518 118.08 350.697 118.08ZM350.697 117.072C351.305 117.072 351.844 116.939 352.313 116.672C352.782 116.395 353.15 116.011 353.417 115.52C353.694 115.019 353.833 114.443 353.833 113.792C353.833 113.131 353.694 112.555 353.417 112.064C353.15 111.573 352.782 111.195 352.313 110.928C351.844 110.651 351.31 110.512 350.713 110.512C350.116 110.512 349.582 110.651 349.113 110.928C348.644 111.195 348.27 111.573 347.993 112.064C347.716 112.555 347.577 113.131 347.577 113.792C347.577 114.443 347.716 115.019 347.993 115.52C348.27 116.011 348.644 116.395 349.113 116.672C349.582 116.939 350.11 117.072 350.697 117.072ZM357.413 118V109.6H358.565L362.373 116.048H361.893L365.765 109.6H366.821V118H365.781V110.896L365.989 110.992L362.373 116.976H361.861L358.213 110.928L358.453 110.88V118H357.413ZM370.054 118V109.6H371.19V116.272L376.806 109.6H377.814V118H376.678V111.312L371.078 118H370.054ZM384.589 118.08C383.757 118.08 383.01 117.899 382.349 117.536C381.698 117.163 381.186 116.656 380.813 116.016C380.44 115.365 380.253 114.624 380.253 113.792C380.253 112.949 380.44 112.208 380.813 111.568C381.186 110.928 381.698 110.427 382.349 110.064C383.01 109.701 383.757 109.52 384.589 109.52C385.304 109.52 385.949 109.659 386.525 109.936C387.101 110.213 387.554 110.629 387.885 111.184L387.037 111.76C386.749 111.333 386.392 111.019 385.965 110.816C385.538 110.613 385.074 110.512 384.573 110.512C383.976 110.512 383.437 110.651 382.957 110.928C382.477 111.195 382.098 111.573 381.821 112.064C381.544 112.555 381.405 113.131 381.405 113.792C381.405 114.453 381.544 115.029 381.821 115.52C382.098 116.011 382.477 116.395 382.957 116.672C383.437 116.939 383.976 117.072 384.573 117.072C385.074 117.072 385.538 116.971 385.965 116.768C386.392 116.565 386.749 116.256 387.037 115.84L387.885 116.416C387.554 116.96 387.101 117.376 386.525 117.664C385.949 117.941 385.304 118.08 384.589 118.08ZM393.464 118.08C392.632 118.08 391.885 117.899 391.224 117.536C390.573 117.163 390.061 116.656 389.688 116.016C389.315 115.365 389.128 114.624 389.128 113.792C389.128 112.949 389.315 112.208 389.688 111.568C390.061 110.928 390.573 110.427 391.224 110.064C391.885 109.701 392.632 109.52 393.464 109.52C394.179 109.52 394.824 109.659 395.4 109.936C395.976 110.213 396.429 110.629 396.76 111.184L395.912 111.76C395.624 111.333 395.267 111.019 394.84 110.816C394.413 110.613 393.949 110.512 393.448 110.512C392.851 110.512 392.312 110.651 391.832 110.928C391.352 111.195 390.973 111.573 390.696 112.064C390.419 112.555 390.28 113.131 390.28 113.792C390.28 114.453 390.419 115.029 390.696 115.52C390.973 116.011 391.352 116.395 391.832 116.672C392.312 116.939 392.851 117.072 393.448 117.072C393.949 117.072 394.413 116.971 394.84 116.768C395.267 116.565 395.624 116.256 395.912 115.84L396.76 116.416C396.429 116.96 395.976 117.376 395.4 117.664C394.824 117.941 394.179 118.08 393.464 118.08ZM398.96 118V109.6H400.096V116.272L405.712 109.6H406.72V118H405.584V111.312L399.984 118H398.96ZM414.163 118V109.6H415.315L419.123 116.048H418.643L422.515 109.6H423.571V118H422.531V110.896L422.739 110.992L419.123 116.976H418.611L414.963 110.928L415.203 110.88V118H414.163ZM432.02 118V116.144L431.972 115.84V112.736C431.972 112.021 431.769 111.472 431.364 111.088C430.969 110.704 430.377 110.512 429.588 110.512C429.044 110.512 428.526 110.603 428.036 110.784C427.545 110.965 427.129 111.205 426.788 111.504L426.276 110.656C426.702 110.293 427.214 110.016 427.812 109.824C428.409 109.621 429.038 109.52 429.7 109.52C430.788 109.52 431.625 109.792 432.212 110.336C432.809 110.869 433.108 111.685 433.108 112.784V118H432.02ZM429.124 118.08C428.494 118.08 427.945 117.979 427.476 117.776C427.017 117.563 426.665 117.275 426.42 116.912C426.174 116.539 426.052 116.112 426.052 115.632C426.052 115.195 426.153 114.8 426.356 114.448C426.569 114.085 426.91 113.797 427.38 113.584C427.86 113.36 428.5 113.248 429.299 113.248H432.196V114.096H429.332C428.521 114.096 427.956 114.24 427.636 114.528C427.326 114.816 427.172 115.173 427.172 115.6C427.172 116.08 427.358 116.464 427.732 116.752C428.105 117.04 428.628 117.184 429.299 117.184C429.94 117.184 430.489 117.04 430.948 116.752C431.417 116.453 431.758 116.027 431.972 115.472L432.228 116.256C432.014 116.811 431.641 117.253 431.108 117.584C430.585 117.915 429.924 118.08 429.124 118.08ZM440.468 118.08C439.742 118.08 439.086 117.915 438.5 117.584C437.913 117.243 437.444 116.757 437.092 116.128C436.75 115.488 436.58 114.709 436.58 113.792C436.58 112.875 436.75 112.101 437.092 111.472C437.433 110.832 437.897 110.347 438.484 110.016C439.07 109.685 439.732 109.52 440.468 109.52C441.268 109.52 441.982 109.701 442.612 110.064C443.252 110.416 443.753 110.917 444.116 111.568C444.478 112.208 444.66 112.949 444.66 113.792C444.66 114.645 444.478 115.392 444.116 116.032C443.753 116.672 443.252 117.173 442.612 117.536C441.982 117.899 441.268 118.08 440.468 118.08ZM436.132 121.104V109.6H437.22V112.128L437.108 113.808L437.268 115.504V121.104H436.132ZM440.388 117.072C440.985 117.072 441.518 116.939 441.988 116.672C442.457 116.395 442.83 116.011 443.108 115.52C443.385 115.019 443.524 114.443 443.524 113.792C443.524 113.141 443.385 112.571 443.108 112.08C442.83 111.589 442.457 111.205 441.988 110.928C441.518 110.651 440.985 110.512 440.388 110.512C439.79 110.512 439.252 110.651 438.772 110.928C438.302 111.205 437.929 111.589 437.652 112.08C437.385 112.571 437.252 113.141 437.252 113.792C437.252 114.443 437.385 115.019 437.652 115.52C437.929 116.011 438.302 116.395 438.772 116.672C439.252 116.939 439.79 117.072 440.388 117.072ZM453.26 118L449.804 113.84L450.748 113.28L454.604 118H453.26ZM447.1 118V109.6H448.236V118H447.1ZM447.884 114.256V113.28H450.588V114.256H447.884ZM450.844 113.92L449.788 113.76L453.132 109.6H454.364L450.844 113.92ZM459.7 118.08C458.826 118.08 458.058 117.899 457.396 117.536C456.735 117.163 456.218 116.656 455.844 116.016C455.471 115.365 455.284 114.624 455.284 113.792C455.284 112.96 455.46 112.224 455.812 111.584C456.175 110.944 456.666 110.443 457.284 110.08C457.914 109.707 458.618 109.52 459.396 109.52C460.186 109.52 460.884 109.701 461.492 110.064C462.111 110.416 462.596 110.917 462.948 111.568C463.3 112.208 463.476 112.949 463.476 113.792C463.476 113.845 463.471 113.904 463.46 113.968C463.46 114.021 463.46 114.08 463.46 114.144H456.148V113.296H462.852L462.404 113.632C462.404 113.024 462.271 112.485 462.004 112.016C461.748 111.536 461.396 111.163 460.948 110.896C460.5 110.629 459.983 110.496 459.396 110.496C458.82 110.496 458.303 110.629 457.844 110.896C457.386 111.163 457.028 111.536 456.772 112.016C456.516 112.496 456.388 113.045 456.388 113.664V113.84C456.388 114.48 456.527 115.045 456.804 115.536C457.092 116.016 457.487 116.395 457.988 116.672C458.5 116.939 459.082 117.072 459.732 117.072C460.244 117.072 460.719 116.981 461.156 116.8C461.604 116.619 461.988 116.341 462.308 115.968L462.948 116.704C462.575 117.152 462.106 117.493 461.54 117.728C460.986 117.963 460.372 118.08 459.7 118.08ZM467.216 118V110.288L467.504 110.592H464.032V109.6H471.536V110.592H468.064L468.352 110.288V118H467.216ZM473.179 118V109.6H480.731V118H479.595V110.288L479.883 110.592H474.027L474.315 110.288V118H473.179ZM482.424 117.984L482.504 117.008C482.578 117.019 482.648 117.035 482.712 117.056C482.786 117.067 482.85 117.072 482.904 117.072C483.245 117.072 483.517 116.944 483.72 116.688C483.933 116.432 484.093 116.091 484.2 115.664C484.306 115.237 484.381 114.757 484.424 114.224C484.466 113.68 484.504 113.136 484.536 112.592L484.68 109.6H490.84V118H489.704V110.256L489.992 110.592H485.416L485.688 110.24L485.56 112.672C485.528 113.397 485.469 114.091 485.384 114.752C485.309 115.413 485.186 115.995 485.016 116.496C484.856 116.997 484.632 117.392 484.344 117.68C484.056 117.957 483.688 118.096 483.24 118.096C483.112 118.096 482.978 118.085 482.84 118.064C482.712 118.043 482.573 118.016 482.424 117.984ZM497.669 118.08C496.794 118.08 496.026 117.899 495.365 117.536C494.704 117.163 494.186 116.656 493.813 116.016C493.44 115.365 493.253 114.624 493.253 113.792C493.253 112.96 493.429 112.224 493.781 111.584C494.144 110.944 494.634 110.443 495.253 110.08C495.882 109.707 496.586 109.52 497.365 109.52C498.154 109.52 498.853 109.701 499.461 110.064C500.08 110.416 500.565 110.917 500.917 111.568C501.269 112.208 501.445 112.949 501.445 113.792C501.445 113.845 501.44 113.904 501.429 113.968C501.429 114.021 501.429 114.08 501.429 114.144H494.117V113.296H500.821L500.373 113.632C500.373 113.024 500.24 112.485 499.973 112.016C499.717 111.536 499.365 111.163 498.917 110.896C498.469 110.629 497.952 110.496 497.365 110.496C496.789 110.496 496.272 110.629 495.813 110.896C495.354 111.163 494.997 111.536 494.741 112.016C494.485 112.496 494.357 113.045 494.357 113.664V113.84C494.357 114.48 494.496 115.045 494.773 115.536C495.061 116.016 495.456 116.395 495.957 116.672C496.469 116.939 497.05 117.072 497.701 117.072C498.213 117.072 498.688 116.981 499.125 116.8C499.573 116.619 499.957 116.341 500.277 115.968L500.917 116.704C500.544 117.152 500.074 117.493 499.509 117.728C498.954 117.963 498.341 118.08 497.669 118.08ZM503.96 118V109.6H505.096V116.272L510.712 109.6H511.72V118H510.584V111.312L504.984 118H503.96ZM507.768 108.384C507.064 108.384 506.493 108.208 506.056 107.856C505.629 107.493 505.405 106.976 505.384 106.304H506.2C506.21 106.731 506.36 107.067 506.648 107.312C506.936 107.557 507.309 107.68 507.768 107.68C508.226 107.68 508.6 107.557 508.888 107.312C509.186 107.067 509.341 106.731 509.352 106.304H510.168C510.157 106.976 509.933 107.493 509.496 107.856C509.058 108.208 508.482 108.384 507.768 108.384ZM518.495 118.08C517.663 118.08 516.917 117.899 516.255 117.536C515.605 117.163 515.093 116.656 514.719 116.016C514.346 115.365 514.159 114.624 514.159 113.792C514.159 112.949 514.346 112.208 514.719 111.568C515.093 110.928 515.605 110.427 516.255 110.064C516.917 109.701 517.663 109.52 518.495 109.52C519.21 109.52 519.855 109.659 520.431 109.936C521.007 110.213 521.461 110.629 521.791 111.184L520.943 111.76C520.655 111.333 520.298 111.019 519.871 110.816C519.445 110.613 518.981 110.512 518.479 110.512C517.882 110.512 517.343 110.651 516.863 110.928C516.383 111.195 516.005 111.573 515.727 112.064C515.45 112.555 515.311 113.131 515.311 113.792C515.311 114.453 515.45 115.029 515.727 115.52C516.005 116.011 516.383 116.395 516.863 116.672C517.343 116.939 517.882 117.072 518.479 117.072C518.981 117.072 519.445 116.971 519.871 116.768C520.298 116.565 520.655 116.256 520.943 115.84L521.791 116.416C521.461 116.96 521.007 117.376 520.431 117.664C519.855 117.941 519.21 118.08 518.495 118.08ZM527.306 118.08C526.496 118.08 525.765 117.899 525.114 117.536C524.474 117.163 523.968 116.656 523.594 116.016C523.221 115.365 523.034 114.624 523.034 113.792C523.034 112.949 523.221 112.208 523.594 111.568C523.968 110.928 524.474 110.427 525.114 110.064C525.754 109.701 526.485 109.52 527.306 109.52C528.138 109.52 528.874 109.701 529.514 110.064C530.165 110.427 530.672 110.928 531.034 111.568C531.408 112.208 531.594 112.949 531.594 113.792C531.594 114.624 531.408 115.365 531.034 116.016C530.672 116.656 530.165 117.163 529.514 117.536C528.864 117.899 528.128 118.08 527.306 118.08ZM527.306 117.072C527.914 117.072 528.453 116.939 528.922 116.672C529.392 116.395 529.76 116.011 530.026 115.52C530.304 115.019 530.442 114.443 530.442 113.792C530.442 113.131 530.304 112.555 530.026 112.064C529.76 111.573 529.392 111.195 528.922 110.928C528.453 110.651 527.92 110.512 527.322 110.512C526.725 110.512 526.192 110.651 525.722 110.928C525.253 111.195 524.88 111.573 524.602 112.064C524.325 112.555 524.186 113.131 524.186 113.792C524.186 114.443 524.325 115.019 524.602 115.52C524.88 116.011 525.253 116.395 525.722 116.672C526.192 116.939 526.72 117.072 527.306 117.072ZM534.022 118V109.6H537.734C538.684 109.6 539.43 109.781 539.974 110.144C540.529 110.507 540.806 111.04 540.806 111.744C540.806 112.427 540.545 112.955 540.022 113.328C539.5 113.691 538.812 113.872 537.958 113.872L538.182 113.536C539.185 113.536 539.921 113.723 540.39 114.096C540.86 114.469 541.094 115.008 541.094 115.712C541.094 116.437 540.828 117.003 540.294 117.408C539.772 117.803 538.956 118 537.846 118H534.022ZM535.126 117.104H537.798C538.513 117.104 539.052 116.992 539.414 116.768C539.788 116.533 539.974 116.16 539.974 115.648C539.974 115.136 539.809 114.763 539.478 114.528C539.148 114.293 538.625 114.176 537.91 114.176H535.126V117.104ZM535.126 113.328H537.654C538.305 113.328 538.801 113.205 539.142 112.96C539.494 112.715 539.67 112.357 539.67 111.888C539.67 111.419 539.494 111.067 539.142 110.832C538.801 110.597 538.305 110.48 537.654 110.48H535.126V113.328Z" fill="#141414"/>
</svg>
