<svg width="474" height="52" viewBox="0 0 474 52" fill="none" xmlns="http://www.w3.org/2000/svg">
<path d="M0.128 18L5.12 6.8H7.68L12.688 18H9.968L5.872 8.112H6.896L2.784 18H0.128ZM2.624 15.6L3.312 13.632H9.072L9.776 15.6H2.624ZM13.9813 18V9.392H18.3813C19.4586 9.392 20.3013 9.58933 20.9093 9.984C21.5173 10.368 21.8212 10.912 21.8212 11.616C21.8212 12.32 21.5333 12.8747 20.9573 13.28C20.3919 13.6747 19.6399 13.872 18.7013 13.872L18.9573 13.296C20.0026 13.296 20.7813 13.488 21.2933 13.872C21.8159 14.256 22.0773 14.816 22.0773 15.552C22.0773 16.3093 21.7893 16.9067 21.2133 17.344C20.6373 17.7813 19.7573 18 18.5733 18H13.9813ZM16.2693 16.304H18.3653C18.8239 16.304 19.1653 16.2293 19.3893 16.08C19.6239 15.92 19.7413 15.68 19.7413 15.36C19.7413 15.0293 19.6346 14.7893 19.4213 14.64C19.2079 14.48 18.8719 14.4 18.4133 14.4H16.2693V16.304ZM16.2693 12.928H18.1573C18.5946 12.928 18.9199 12.848 19.1333 12.688C19.3573 12.528 19.4693 12.2987 19.4693 12C19.4693 11.6907 19.3573 11.4613 19.1333 11.312C18.9199 11.1627 18.5946 11.088 18.1573 11.088H16.2693V12.928ZM25.7744 18V10.864L26.3344 11.44H22.8624V9.392H31.1664V11.44H27.6944L28.2544 10.864V18H25.7744ZM36.1695 18.128C35.2522 18.128 34.4362 17.936 33.7215 17.552C33.0175 17.168 32.4575 16.6453 32.0415 15.984C31.6362 15.312 31.4335 14.5493 31.4335 13.696C31.4335 12.832 31.6362 12.0693 32.0415 11.408C32.4575 10.736 33.0175 10.2133 33.7215 9.84C34.4362 9.456 35.2522 9.264 36.1695 9.264C37.0762 9.264 37.8868 9.456 38.6015 9.84C39.3162 10.2133 39.8762 10.7307 40.2815 11.392C40.6868 12.0533 40.8895 12.8213 40.8895 13.696C40.8895 14.5493 40.6868 15.312 40.2815 15.984C39.8762 16.6453 39.3162 17.168 38.6015 17.552C37.8868 17.936 37.0762 18.128 36.1695 18.128ZM36.1695 16.08C36.5855 16.08 36.9588 15.984 37.2895 15.792C37.6202 15.6 37.8815 15.328 38.0735 14.976C38.2655 14.6133 38.3615 14.1867 38.3615 13.696C38.3615 13.1947 38.2655 12.768 38.0735 12.416C37.8815 12.064 37.6202 11.792 37.2895 11.6C36.9588 11.408 36.5855 11.312 36.1695 11.312C35.7535 11.312 35.3802 11.408 35.0495 11.6C34.7188 11.792 34.4522 12.064 34.2495 12.416C34.0575 12.768 33.9615 13.1947 33.9615 13.696C33.9615 14.1867 34.0575 14.6133 34.2495 14.976C34.4522 15.328 34.7188 15.6 35.0495 15.792C35.3802 15.984 35.7535 16.08 36.1695 16.08ZM48.0303 14.704C47.6783 14.896 47.2889 15.0507 46.8623 15.168C46.4356 15.2853 45.9663 15.344 45.4543 15.344C44.3236 15.344 43.4543 15.088 42.8463 14.576C42.2383 14.0533 41.9342 13.2267 41.9342 12.096V9.392H44.4303V11.936C44.4303 12.4693 44.5689 12.8533 44.8463 13.088C45.1236 13.312 45.5129 13.424 46.0143 13.424C46.3769 13.424 46.7236 13.3813 47.0543 13.296C47.3956 13.2107 47.7209 13.088 48.0303 12.928V14.704ZM47.8543 18V9.392H50.3503V18H47.8543ZM56.9549 18.128C55.9735 18.128 55.1095 17.936 54.3629 17.552C53.6269 17.168 53.0562 16.6453 52.6509 15.984C52.2455 15.312 52.0429 14.5493 52.0429 13.696C52.0429 12.832 52.2402 12.0693 52.6349 11.408C53.0402 10.736 53.5895 10.2133 54.2829 9.84C54.9762 9.456 55.7602 9.264 56.6349 9.264C57.4775 9.264 58.2349 9.44533 58.9069 9.808C59.5895 10.16 60.1282 10.672 60.5229 11.344C60.9175 12.0053 61.1149 12.8 61.1149 13.728C61.1149 13.824 61.1095 13.936 61.0989 14.064C61.0882 14.1813 61.0775 14.2933 61.0669 14.4H54.0749V12.944H59.7549L58.7949 13.376C58.7949 12.928 58.7042 12.5387 58.5229 12.208C58.3415 11.8773 58.0909 11.6213 57.7709 11.44C57.4509 11.248 57.0775 11.152 56.6509 11.152C56.2242 11.152 55.8455 11.248 55.5149 11.44C55.1949 11.6213 54.9442 11.8827 54.7629 12.224C54.5815 12.5547 54.4909 12.9493 54.4909 13.408V13.792C54.4909 14.2613 54.5922 14.6773 54.7949 15.04C55.0082 15.392 55.3015 15.664 55.6749 15.856C56.0589 16.0373 56.5069 16.128 57.0189 16.128C57.4775 16.128 57.8775 16.0587 58.2189 15.92C58.5709 15.7813 58.8909 15.5733 59.1789 15.296L60.5069 16.736C60.1122 17.184 59.6162 17.5307 59.0189 17.776C58.4215 18.0107 57.7335 18.128 56.9549 18.128ZM61.6418 18L65.4978 12.944L65.4498 14.32L61.7538 9.392H64.5538L66.8898 12.608L65.8338 12.64L68.2498 9.392H70.9058L67.1938 14.272V12.928L71.0338 18H68.2018L65.7538 14.576L66.7938 14.72L64.3618 18H61.6418ZM71.1745 17.984L71.3025 15.936C71.3665 15.9467 71.4305 15.9573 71.4945 15.968C71.5585 15.968 71.6172 15.968 71.6705 15.968C71.9692 15.968 72.2038 15.8827 72.3745 15.712C72.5452 15.5413 72.6732 15.312 72.7585 15.024C72.8438 14.7253 72.9025 14.3893 72.9345 14.016C72.9772 13.6427 73.0092 13.2533 73.0305 12.848L73.1585 9.392H80.5185V18H78.0225V10.832L78.5825 11.44H74.8065L75.3345 10.8L75.2225 12.96C75.1905 13.728 75.1265 14.432 75.0305 15.072C74.9452 15.712 74.8012 16.2667 74.5985 16.736C74.3958 17.1947 74.1238 17.552 73.7825 17.808C73.4412 18.0533 73.0038 18.176 72.4705 18.176C72.2785 18.176 72.0758 18.16 71.8625 18.128C71.6492 18.096 71.4198 18.048 71.1745 17.984ZM91.7828 18V9.392H94.2628V18H91.7828ZM87.4468 12.144C88.5774 12.1547 89.4254 12.4107 89.9908 12.912C90.5668 13.4027 90.8548 14.1013 90.8548 15.008C90.8548 15.9573 90.5294 16.6987 89.8788 17.232C89.2281 17.7547 88.3054 18.016 87.1108 18.016L82.9188 18V9.392H85.3988V12.144H87.4468ZM86.8868 16.24C87.3668 16.2507 87.7348 16.1493 87.9908 15.936C88.2468 15.7227 88.3748 15.4027 88.3748 14.976C88.3748 14.5493 88.2468 14.2453 87.9908 14.064C87.7348 13.872 87.3668 13.7707 86.8868 13.76L85.3988 13.744V16.24H86.8868ZM266.158 20.464L267.214 16.624L267.566 18.064C267.107 18.064 266.728 17.9307 266.43 17.664C266.142 17.3973 265.998 17.0293 265.998 16.56C265.998 16.0907 266.147 15.7173 266.446 15.44C266.744 15.1627 267.112 15.024 267.549 15.024C267.998 15.024 268.366 15.168 268.654 15.456C268.942 15.7333 269.086 16.1013 269.086 16.56C269.086 16.6987 269.075 16.8373 269.054 16.976C269.032 17.104 268.99 17.264 268.926 17.456C268.872 17.6373 268.782 17.872 268.654 18.16L267.742 20.464H266.158ZM280.78 14.704C280.428 14.896 280.039 15.0507 279.612 15.168C279.186 15.2853 278.716 15.344 278.204 15.344C277.074 15.344 276.204 15.088 275.596 14.576C274.988 14.0533 274.684 13.2267 274.684 12.096V9.392H277.18V11.936C277.18 12.4693 277.319 12.8533 277.596 13.088C277.874 13.312 278.263 13.424 278.764 13.424C279.127 13.424 279.474 13.3813 279.804 13.296C280.146 13.2107 280.471 13.088 280.78 12.928V14.704ZM280.604 18V9.392H283.1V18H280.604ZM289.705 18.128C288.724 18.128 287.86 17.936 287.113 17.552C286.377 17.168 285.806 16.6453 285.401 15.984C284.996 15.312 284.793 14.5493 284.793 13.696C284.793 12.832 284.99 12.0693 285.385 11.408C285.79 10.736 286.34 10.2133 287.033 9.84C287.726 9.456 288.51 9.264 289.385 9.264C290.228 9.264 290.985 9.44533 291.657 9.808C292.34 10.16 292.878 10.672 293.273 11.344C293.668 12.0053 293.865 12.8 293.865 13.728C293.865 13.824 293.86 13.936 293.849 14.064C293.838 14.1813 293.828 14.2933 293.817 14.4H286.825V12.944H292.505L291.545 13.376C291.545 12.928 291.454 12.5387 291.273 12.208C291.092 11.8773 290.841 11.6213 290.521 11.44C290.201 11.248 289.828 11.152 289.401 11.152C288.974 11.152 288.596 11.248 288.265 11.44C287.945 11.6213 287.694 11.8827 287.513 12.224C287.332 12.5547 287.241 12.9493 287.241 13.408V13.792C287.241 14.2613 287.342 14.6773 287.545 15.04C287.758 15.392 288.052 15.664 288.425 15.856C288.809 16.0373 289.257 16.128 289.769 16.128C290.228 16.128 290.628 16.0587 290.969 15.92C291.321 15.7813 291.641 15.5733 291.929 15.296L293.257 16.736C292.862 17.184 292.366 17.5307 291.769 17.776C291.172 18.0107 290.484 18.128 289.705 18.128ZM295.778 18V9.392H298.386L301.634 15.28H300.594L304.066 9.392H306.402L306.434 18H304.178V11.952L304.562 12.208L301.602 17.168H300.546L297.57 12.032L298.034 11.92V18H295.778ZM313.356 18V9.392H315.836V12.752H319.58V9.392H322.076V18H319.58V14.784H315.836V18H313.356ZM329.618 18V16.32L329.458 15.952V12.944C329.458 12.4107 329.292 11.9947 328.962 11.696C328.642 11.3973 328.146 11.248 327.474 11.248C327.015 11.248 326.562 11.3227 326.114 11.472C325.676 11.6107 325.303 11.8027 324.994 12.048L324.098 10.304C324.567 9.97333 325.132 9.71733 325.794 9.536C326.455 9.35467 327.127 9.264 327.81 9.264C329.122 9.264 330.14 9.57333 330.866 10.192C331.591 10.8107 331.954 11.776 331.954 13.088V18H329.618ZM326.994 18.128C326.322 18.128 325.746 18.016 325.266 17.792C324.786 17.5573 324.418 17.2427 324.162 16.848C323.906 16.4533 323.778 16.0107 323.778 15.52C323.778 15.008 323.9 14.56 324.146 14.176C324.402 13.792 324.802 13.4933 325.346 13.28C325.89 13.056 326.599 12.944 327.474 12.944H329.762V14.4H327.746C327.159 14.4 326.754 14.496 326.53 14.688C326.316 14.88 326.21 15.12 326.21 15.408C326.21 15.728 326.332 15.984 326.578 16.176C326.834 16.3573 327.18 16.448 327.618 16.448C328.034 16.448 328.407 16.352 328.738 16.16C329.068 15.9573 329.308 15.664 329.458 15.28L329.842 16.432C329.66 16.9867 329.33 17.408 328.85 17.696C328.37 17.984 327.751 18.128 326.994 18.128ZM338.653 18V9.392H341.261L344.509 15.28H343.469L346.941 9.392H349.277L349.309 18H347.053V11.952L347.437 12.208L344.477 17.168H343.421L340.445 12.032L340.909 11.92V18H338.653ZM356.852 18V16.32L356.692 15.952V12.944C356.692 12.4107 356.527 11.9947 356.196 11.696C355.876 11.3973 355.38 11.248 354.708 11.248C354.249 11.248 353.796 11.3227 353.348 11.472C352.911 11.6107 352.537 11.8027 352.228 12.048L351.332 10.304C351.801 9.97333 352.367 9.71733 353.028 9.536C353.689 9.35467 354.361 9.264 355.044 9.264C356.356 9.264 357.375 9.57333 358.1 10.192C358.825 10.8107 359.188 11.776 359.188 13.088V18H356.852ZM354.228 18.128C353.556 18.128 352.98 18.016 352.5 17.792C352.02 17.5573 351.652 17.2427 351.396 16.848C351.14 16.4533 351.012 16.0107 351.012 15.52C351.012 15.008 351.135 14.56 351.38 14.176C351.636 13.792 352.036 13.4933 352.58 13.28C353.124 13.056 353.833 12.944 354.708 12.944H356.996V14.4H354.98C354.393 14.4 353.988 14.496 353.764 14.688C353.551 14.88 353.444 15.12 353.444 15.408C353.444 15.728 353.567 15.984 353.812 16.176C354.068 16.3573 354.415 16.448 354.852 16.448C355.268 16.448 355.641 16.352 355.972 16.16C356.303 15.9573 356.543 15.664 356.692 15.28L357.076 16.432C356.895 16.9867 356.564 17.408 356.084 17.696C355.604 17.984 354.985 18.128 354.228 18.128ZM366.428 18.128C365.703 18.128 365.068 17.968 364.524 17.648C363.98 17.328 363.554 16.8427 363.244 16.192C362.946 15.5307 362.796 14.6987 362.796 13.696C362.796 12.6827 362.94 11.8507 363.228 11.2C363.516 10.5493 363.932 10.064 364.476 9.744C365.02 9.424 365.671 9.264 366.428 9.264C367.239 9.264 367.964 9.45067 368.604 9.824C369.255 10.1867 369.767 10.6987 370.14 11.36C370.524 12.0213 370.716 12.8 370.716 13.696C370.716 14.6027 370.524 15.3867 370.14 16.048C369.767 16.7093 369.255 17.2213 368.604 17.584C367.964 17.9467 367.239 18.128 366.428 18.128ZM361.34 21.104V9.392H363.724V11.152L363.676 13.712L363.836 16.256V21.104H361.34ZM365.996 16.08C366.412 16.08 366.78 15.984 367.1 15.792C367.431 15.6 367.692 15.328 367.884 14.976C368.087 14.6133 368.188 14.1867 368.188 13.696C368.188 13.1947 368.087 12.768 367.884 12.416C367.692 12.064 367.431 11.792 367.1 11.6C366.78 11.408 366.412 11.312 365.996 11.312C365.58 11.312 365.207 11.408 364.876 11.6C364.546 11.792 364.284 12.064 364.092 12.416C363.9 12.768 363.804 13.1947 363.804 13.696C363.804 14.1867 363.9 14.6133 364.092 14.976C364.284 15.328 364.546 15.6 364.876 15.792C365.207 15.984 365.58 16.08 365.996 16.08ZM378.562 18L375.682 13.92L377.714 12.72L381.506 18H378.562ZM372.466 18V9.392H374.962V18H372.466ZM374.226 14.736V12.736H377.234V14.736H374.226ZM377.954 13.984L375.618 13.728L378.642 9.392H381.298L377.954 13.984ZM386.674 18.128C385.692 18.128 384.828 17.936 384.082 17.552C383.346 17.168 382.775 16.6453 382.37 15.984C381.964 15.312 381.762 14.5493 381.762 13.696C381.762 12.832 381.959 12.0693 382.354 11.408C382.759 10.736 383.308 10.2133 384.002 9.84C384.695 9.456 385.479 9.264 386.354 9.264C387.196 9.264 387.954 9.44533 388.626 9.808C389.308 10.16 389.847 10.672 390.242 11.344C390.636 12.0053 390.834 12.8 390.834 13.728C390.834 13.824 390.828 13.936 390.818 14.064C390.807 14.1813 390.796 14.2933 390.786 14.4H383.794V12.944H389.474L388.514 13.376C388.514 12.928 388.423 12.5387 388.242 12.208C388.06 11.8773 387.81 11.6213 387.49 11.44C387.17 11.248 386.796 11.152 386.37 11.152C385.943 11.152 385.564 11.248 385.234 11.44C384.914 11.6213 384.663 11.8827 384.482 12.224C384.3 12.5547 384.21 12.9493 384.21 13.408V13.792C384.21 14.2613 384.311 14.6773 384.514 15.04C384.727 15.392 385.02 15.664 385.394 15.856C385.778 16.0373 386.226 16.128 386.738 16.128C387.196 16.128 387.596 16.0587 387.938 15.92C388.29 15.7813 388.61 15.5733 388.898 15.296L390.226 16.736C389.831 17.184 389.335 17.5307 388.738 17.776C388.14 18.0107 387.452 18.128 386.674 18.128ZM394.29 18V10.864L394.85 11.44H391.378V9.392H399.682V11.44H396.21L396.77 10.864V18H394.29ZM401.013 18V9.392H409.573V18H407.077V10.88L407.637 11.44H402.933L403.493 10.88V18H401.013ZM410.878 17.984L411.006 15.936C411.07 15.9467 411.134 15.9573 411.198 15.968C411.262 15.968 411.32 15.968 411.374 15.968C411.672 15.968 411.907 15.8827 412.078 15.712C412.248 15.5413 412.376 15.312 412.462 15.024C412.547 14.7253 412.606 14.3893 412.638 14.016C412.68 13.6427 412.712 13.2533 412.734 12.848L412.862 9.392H420.222V18H417.726V10.832L418.286 11.44H414.51L415.038 10.8L414.926 12.96C414.894 13.728 414.83 14.432 414.734 15.072C414.648 15.712 414.504 16.2667 414.302 16.736C414.099 17.1947 413.827 17.552 413.486 17.808C413.144 18.0533 412.707 18.176 412.174 18.176C411.982 18.176 411.779 18.16 411.566 18.128C411.352 18.096 411.123 18.048 410.878 17.984ZM426.83 18.128C425.849 18.128 424.985 17.936 424.238 17.552C423.502 17.168 422.931 16.6453 422.526 15.984C422.121 15.312 421.918 14.5493 421.918 13.696C421.918 12.832 422.115 12.0693 422.51 11.408C422.915 10.736 423.465 10.2133 424.158 9.84C424.851 9.456 425.635 9.264 426.51 9.264C427.353 9.264 428.11 9.44533 428.782 9.808C429.465 10.16 430.003 10.672 430.398 11.344C430.793 12.0053 430.99 12.8 430.99 13.728C430.99 13.824 430.985 13.936 430.974 14.064C430.963 14.1813 430.953 14.2933 430.942 14.4H423.95V12.944H429.63L428.67 13.376C428.67 12.928 428.579 12.5387 428.398 12.208C428.217 11.8773 427.966 11.6213 427.646 11.44C427.326 11.248 426.953 11.152 426.526 11.152C426.099 11.152 425.721 11.248 425.39 11.44C425.07 11.6213 424.819 11.8827 424.638 12.224C424.457 12.5547 424.366 12.9493 424.366 13.408V13.792C424.366 14.2613 424.467 14.6773 424.67 15.04C424.883 15.392 425.177 15.664 425.55 15.856C425.934 16.0373 426.382 16.128 426.894 16.128C427.353 16.128 427.753 16.0587 428.094 15.92C428.446 15.7813 428.766 15.5733 429.054 15.296L430.382 16.736C429.987 17.184 429.491 17.5307 428.894 17.776C428.297 18.0107 427.609 18.128 426.83 18.128ZM432.903 18V9.392H435.383V14.512L439.575 9.392H441.863V18H439.383V12.88L435.207 18H432.903ZM437.223 8.464C436.284 8.464 435.58 8.26133 435.111 7.856C434.642 7.44 434.402 6.816 434.391 5.984H436.023C436.034 6.34667 436.135 6.63467 436.327 6.848C436.519 7.06133 436.812 7.168 437.207 7.168C437.591 7.168 437.884 7.06133 438.087 6.848C438.3 6.63467 438.407 6.34667 438.407 5.984H440.071C440.071 6.816 439.831 7.44 439.351 7.856C438.871 8.26133 438.162 8.464 437.223 8.464ZM448.359 18.128C447.431 18.128 446.604 17.9413 445.879 17.568C445.153 17.184 444.583 16.656 444.167 15.984C443.761 15.312 443.559 14.5493 443.559 13.696C443.559 12.832 443.761 12.0693 444.167 11.408C444.583 10.736 445.153 10.2133 445.879 9.84C446.604 9.456 447.431 9.264 448.359 9.264C449.265 9.264 450.055 9.456 450.727 9.84C451.399 10.2133 451.895 10.752 452.215 11.456L450.279 12.496C450.055 12.0907 449.772 11.792 449.431 11.6C449.1 11.408 448.737 11.312 448.343 11.312C447.916 11.312 447.532 11.408 447.191 11.6C446.849 11.792 446.577 12.064 446.375 12.416C446.183 12.768 446.087 13.1947 446.087 13.696C446.087 14.1973 446.183 14.624 446.375 14.976C446.577 15.328 446.849 15.6 447.191 15.792C447.532 15.984 447.916 16.08 448.343 16.08C448.737 16.08 449.1 15.9893 449.431 15.808C449.772 15.616 450.055 15.312 450.279 14.896L452.215 15.952C451.895 16.6453 451.399 17.184 450.727 17.568C450.055 17.9413 449.265 18.128 448.359 18.128ZM458.883 18V16.32L458.723 15.952V12.944C458.723 12.4107 458.558 11.9947 458.227 11.696C457.907 11.3973 457.411 11.248 456.739 11.248C456.281 11.248 455.827 11.3227 455.379 11.472C454.942 11.6107 454.569 11.8027 454.259 12.048L453.363 10.304C453.833 9.97333 454.398 9.71733 455.059 9.536C455.721 9.35467 456.393 9.264 457.075 9.264C458.387 9.264 459.406 9.57333 460.131 10.192C460.857 10.8107 461.219 11.776 461.219 13.088V18H458.883ZM456.259 18.128C455.587 18.128 455.011 18.016 454.531 17.792C454.051 17.5573 453.683 17.2427 453.427 16.848C453.171 16.4533 453.043 16.0107 453.043 15.52C453.043 15.008 453.166 14.56 453.411 14.176C453.667 13.792 454.067 13.4933 454.611 13.28C455.155 13.056 455.865 12.944 456.739 12.944H459.027V14.4H457.011C456.425 14.4 456.019 14.496 455.795 14.688C455.582 14.88 455.475 15.12 455.475 15.408C455.475 15.728 455.598 15.984 455.843 16.176C456.099 16.3573 456.446 16.448 456.883 16.448C457.299 16.448 457.673 16.352 458.003 16.16C458.334 15.9573 458.574 15.664 458.723 15.28L459.107 16.432C458.926 16.9867 458.595 17.408 458.115 17.696C457.635 17.984 457.017 18.128 456.259 18.128ZM462.236 18L466.092 12.944L466.044 14.32L462.348 9.392H465.148L467.484 12.608L466.428 12.64L468.844 9.392H471.5L467.788 14.272V12.928L471.628 18H468.796L466.348 14.576L467.388 14.72L464.956 18H462.236Z" fill="#141414"/>
<path d="M101.2 18V9.392H103.68V12.752H107.424V9.392H109.92V18H107.424V14.784H103.68V18H101.2ZM117.461 18V16.32L117.301 15.952V12.944C117.301 12.4107 117.136 11.9947 116.805 11.696C116.485 11.3973 115.989 11.248 115.317 11.248C114.859 11.248 114.405 11.3227 113.957 11.472C113.52 11.6107 113.147 11.8027 112.837 12.048L111.941 10.304C112.411 9.97333 112.976 9.71733 113.637 9.536C114.299 9.35467 114.971 9.264 115.653 9.264C116.965 9.264 117.984 9.57333 118.709 10.192C119.435 10.8107 119.797 11.776 119.797 13.088V18H117.461ZM114.837 18.128C114.165 18.128 113.589 18.016 113.109 17.792C112.629 17.5573 112.261 17.2427 112.005 16.848C111.749 16.4533 111.621 16.0107 111.621 15.52C111.621 15.008 111.744 14.56 111.989 14.176C112.245 13.792 112.645 13.4933 113.189 13.28C113.733 13.056 114.443 12.944 115.317 12.944H117.605V14.4H115.589C115.003 14.4 114.597 14.496 114.373 14.688C114.16 14.88 114.053 15.12 114.053 15.408C114.053 15.728 114.176 15.984 114.421 16.176C114.677 16.3573 115.024 16.448 115.461 16.448C115.877 16.448 116.251 16.352 116.581 16.16C116.912 15.9573 117.152 15.664 117.301 15.28L117.685 16.432C117.504 16.9867 117.173 17.408 116.693 17.696C116.213 17.984 115.595 18.128 114.837 18.128ZM127.649 18V7.76L128.769 8.88H125.409V6.8H130.241V18H127.649ZM136.987 18.192C136.069 18.192 135.248 17.968 134.523 17.52C133.797 17.0613 133.227 16.4 132.811 15.536C132.395 14.672 132.187 13.6267 132.187 12.4C132.187 11.1733 132.395 10.128 132.811 9.264C133.227 8.4 133.797 7.744 134.523 7.296C135.248 6.83733 136.069 6.608 136.987 6.608C137.915 6.608 138.736 6.83733 139.451 7.296C140.176 7.744 140.747 8.4 141.163 9.264C141.579 10.128 141.787 11.1733 141.787 12.4C141.787 13.6267 141.579 14.672 141.163 15.536C140.747 16.4 140.176 17.0613 139.451 17.52C138.736 17.968 137.915 18.192 136.987 18.192ZM136.987 16C137.424 16 137.803 15.8773 138.123 15.632C138.453 15.3867 138.709 14.9973 138.891 14.464C139.083 13.9307 139.179 13.2427 139.179 12.4C139.179 11.5573 139.083 10.8693 138.891 10.336C138.709 9.80267 138.453 9.41333 138.123 9.168C137.803 8.92267 137.424 8.8 136.987 8.8C136.56 8.8 136.181 8.92267 135.851 9.168C135.531 9.41333 135.275 9.80267 135.083 10.336C134.901 10.8693 134.811 11.5573 134.811 12.4C134.811 13.2427 134.901 13.9307 135.083 14.464C135.275 14.9973 135.531 15.3867 135.851 15.632C136.181 15.8773 136.56 16 136.987 16ZM143.301 14.496V12.496H147.829V14.496H143.301ZM148.903 18V16.32L153.223 12.24C153.564 11.9307 153.815 11.6533 153.975 11.408C154.135 11.1627 154.242 10.9387 154.295 10.736C154.359 10.5333 154.391 10.3467 154.391 10.176C154.391 9.728 154.236 9.38667 153.927 9.152C153.628 8.90667 153.186 8.784 152.599 8.784C152.13 8.784 151.692 8.87467 151.287 9.056C150.892 9.23733 150.556 9.52 150.279 9.904L148.391 8.688C148.818 8.048 149.415 7.54133 150.183 7.168C150.951 6.79467 151.836 6.608 152.839 6.608C153.671 6.608 154.396 6.74667 155.015 7.024C155.644 7.29067 156.13 7.66933 156.471 8.16C156.823 8.65067 156.999 9.23733 156.999 9.92C156.999 10.2827 156.951 10.6453 156.855 11.008C156.77 11.36 156.588 11.7333 156.311 12.128C156.044 12.5227 155.65 12.9653 155.127 13.456L151.543 16.832L151.047 15.888H157.367V18H148.903ZM163.237 18.192C162.319 18.192 161.498 17.968 160.773 17.52C160.047 17.0613 159.477 16.4 159.061 15.536C158.645 14.672 158.437 13.6267 158.437 12.4C158.437 11.1733 158.645 10.128 159.061 9.264C159.477 8.4 160.047 7.744 160.773 7.296C161.498 6.83733 162.319 6.608 163.237 6.608C164.165 6.608 164.986 6.83733 165.701 7.296C166.426 7.744 166.997 8.4 167.413 9.264C167.829 10.128 168.037 11.1733 168.037 12.4C168.037 13.6267 167.829 14.672 167.413 15.536C166.997 16.4 166.426 17.0613 165.701 17.52C164.986 17.968 164.165 18.192 163.237 18.192ZM163.237 16C163.674 16 164.053 15.8773 164.373 15.632C164.703 15.3867 164.959 14.9973 165.141 14.464C165.333 13.9307 165.429 13.2427 165.429 12.4C165.429 11.5573 165.333 10.8693 165.141 10.336C164.959 9.80267 164.703 9.41333 164.373 9.168C164.053 8.92267 163.674 8.8 163.237 8.8C162.81 8.8 162.431 8.92267 162.101 9.168C161.781 9.41333 161.525 9.80267 161.333 10.336C161.151 10.8693 161.061 11.5573 161.061 12.4C161.061 13.2427 161.151 13.9307 161.333 14.464C161.525 14.9973 161.781 15.3867 162.101 15.632C162.431 15.8773 162.81 16 163.237 16ZM170.912 18L178.56 6.8H180.464L172.816 18H170.912ZM171.888 12.848C171.344 12.848 170.864 12.7253 170.448 12.48C170.032 12.224 169.701 11.8667 169.456 11.408C169.221 10.9387 169.104 10.3893 169.104 9.76C169.104 9.13067 169.221 8.58667 169.456 8.128C169.701 7.66933 170.032 7.312 170.448 7.056C170.864 6.8 171.344 6.672 171.888 6.672C172.432 6.672 172.912 6.8 173.328 7.056C173.744 7.312 174.069 7.66933 174.304 8.128C174.539 8.58667 174.656 9.13067 174.656 9.76C174.656 10.3893 174.539 10.9387 174.304 11.408C174.069 11.8667 173.744 12.224 173.328 12.48C172.912 12.7253 172.432 12.848 171.888 12.848ZM171.888 11.536C172.24 11.536 172.523 11.392 172.736 11.104C172.949 10.8053 173.056 10.3573 173.056 9.76C173.056 9.16267 172.949 8.72 172.736 8.432C172.523 8.13333 172.24 7.984 171.888 7.984C171.547 7.984 171.264 8.13333 171.04 8.432C170.827 8.72 170.72 9.16267 170.72 9.76C170.72 10.3467 170.827 10.7893 171.04 11.088C171.264 11.3867 171.547 11.536 171.888 11.536ZM179.488 18.128C178.955 18.128 178.475 18.0053 178.048 17.76C177.632 17.504 177.307 17.1467 177.072 16.688C176.837 16.2187 176.72 15.6693 176.72 15.04C176.72 14.4107 176.837 13.8667 177.072 13.408C177.307 12.9493 177.632 12.592 178.048 12.336C178.475 12.08 178.955 11.952 179.488 11.952C180.043 11.952 180.528 12.08 180.944 12.336C181.36 12.592 181.685 12.9493 181.92 13.408C182.155 13.8667 182.272 14.4107 182.272 15.04C182.272 15.6693 182.155 16.2187 181.92 16.688C181.685 17.1467 181.36 17.504 180.944 17.76C180.528 18.0053 180.043 18.128 179.488 18.128ZM179.488 16.816C179.84 16.816 180.123 16.672 180.336 16.384C180.549 16.0853 180.656 15.6373 180.656 15.04C180.656 14.4533 180.549 14.0107 180.336 13.712C180.123 13.4133 179.84 13.264 179.488 13.264C179.147 13.264 178.864 13.4133 178.64 13.712C178.427 14 178.32 14.4427 178.32 15.04C178.32 15.6373 178.427 16.0853 178.64 16.384C178.864 16.672 179.147 16.816 179.488 16.816ZM194.354 16.88V11.44H191.538L191.49 12.544C191.469 13.0027 191.442 13.44 191.41 13.856C191.378 14.272 191.314 14.6507 191.218 14.992C191.133 15.3227 191.005 15.6053 190.834 15.84C190.664 16.064 190.434 16.2187 190.146 16.304L187.682 15.952C187.992 15.952 188.242 15.8613 188.434 15.68C188.626 15.488 188.776 15.2267 188.882 14.896C188.989 14.5547 189.069 14.1707 189.122 13.744C189.176 13.3067 189.213 12.848 189.234 12.368L189.346 9.392H196.85V16.88H194.354ZM187.394 19.856V15.952H198.082V19.856H195.762V18H189.714V19.856H187.394ZM203.861 18.128C202.88 18.128 202.016 17.936 201.269 17.552C200.533 17.168 199.962 16.6453 199.557 15.984C199.152 15.312 198.949 14.5493 198.949 13.696C198.949 12.832 199.146 12.0693 199.541 11.408C199.946 10.736 200.496 10.2133 201.189 9.84C201.882 9.456 202.666 9.264 203.541 9.264C204.384 9.264 205.141 9.44533 205.813 9.808C206.496 10.16 207.034 10.672 207.429 11.344C207.824 12.0053 208.021 12.8 208.021 13.728C208.021 13.824 208.016 13.936 208.005 14.064C207.994 14.1813 207.984 14.2933 207.973 14.4H200.981V12.944H206.661L205.701 13.376C205.701 12.928 205.61 12.5387 205.429 12.208C205.248 11.8773 204.997 11.6213 204.677 11.44C204.357 11.248 203.984 11.152 203.557 11.152C203.13 11.152 202.752 11.248 202.421 11.44C202.101 11.6213 201.85 11.8827 201.669 12.224C201.488 12.5547 201.397 12.9493 201.397 13.408V13.792C201.397 14.2613 201.498 14.6773 201.701 15.04C201.914 15.392 202.208 15.664 202.581 15.856C202.965 16.0373 203.413 16.128 203.925 16.128C204.384 16.128 204.784 16.0587 205.125 15.92C205.477 15.7813 205.797 15.5733 206.085 15.296L207.413 16.736C207.018 17.184 206.522 17.5307 205.925 17.776C205.328 18.0107 204.64 18.128 203.861 18.128ZM215.806 15.952L215.262 16.528V9.392H217.758V16.528L217.182 15.952H221.15L220.59 16.528V9.392H223.07V18H209.934V9.392H212.414V16.528L211.854 15.952H215.806ZM229.674 18.128C228.692 18.128 227.828 17.936 227.082 17.552C226.346 17.168 225.775 16.6453 225.37 15.984C224.964 15.312 224.762 14.5493 224.762 13.696C224.762 12.832 224.959 12.0693 225.354 11.408C225.759 10.736 226.308 10.2133 227.002 9.84C227.695 9.456 228.479 9.264 229.354 9.264C230.196 9.264 230.954 9.44533 231.626 9.808C232.308 10.16 232.847 10.672 233.242 11.344C233.636 12.0053 233.834 12.8 233.834 13.728C233.834 13.824 233.828 13.936 233.818 14.064C233.807 14.1813 233.796 14.2933 233.786 14.4H226.794V12.944H232.474L231.514 13.376C231.514 12.928 231.423 12.5387 231.242 12.208C231.06 11.8773 230.81 11.6213 230.49 11.44C230.17 11.248 229.796 11.152 229.37 11.152C228.943 11.152 228.564 11.248 228.234 11.44C227.914 11.6213 227.663 11.8827 227.482 12.224C227.3 12.5547 227.21 12.9493 227.21 13.408V13.792C227.21 14.2613 227.311 14.6773 227.514 15.04C227.727 15.392 228.02 15.664 228.394 15.856C228.778 16.0373 229.226 16.128 229.738 16.128C230.196 16.128 230.596 16.0587 230.938 15.92C231.29 15.7813 231.61 15.5733 231.898 15.296L233.226 16.736C232.831 17.184 232.335 17.5307 231.738 17.776C231.14 18.0107 230.452 18.128 229.674 18.128ZM235.747 18V9.392H240.147C241.224 9.392 242.067 9.58933 242.675 9.984C243.283 10.368 243.587 10.912 243.587 11.616C243.587 12.32 243.299 12.8747 242.723 13.28C242.158 13.6747 241.406 13.872 240.467 13.872L240.723 13.296C241.768 13.296 242.547 13.488 243.059 13.872C243.582 14.256 243.843 14.816 243.843 15.552C243.843 16.3093 243.555 16.9067 242.979 17.344C242.403 17.7813 241.523 18 240.339 18H235.747ZM238.035 16.304H240.131C240.59 16.304 240.931 16.2293 241.155 16.08C241.39 15.92 241.507 15.68 241.507 15.36C241.507 15.0293 241.4 14.7893 241.187 14.64C240.974 14.48 240.638 14.4 240.179 14.4H238.035V16.304ZM238.035 12.928H239.923C240.36 12.928 240.686 12.848 240.899 12.688C241.123 12.528 241.235 12.2987 241.235 12C241.235 11.6907 241.123 11.4613 240.899 11.312C240.686 11.1627 240.36 11.088 239.923 11.088H238.035V12.928ZM244.612 17.984L244.74 15.936C244.804 15.9467 244.868 15.9573 244.932 15.968C244.996 15.968 245.055 15.968 245.108 15.968C245.407 15.968 245.641 15.8827 245.812 15.712C245.983 15.5413 246.111 15.312 246.196 15.024C246.281 14.7253 246.34 14.3893 246.372 14.016C246.415 13.6427 246.447 13.2533 246.468 12.848L246.596 9.392H253.956V18H251.46V10.832L252.02 11.44H248.244L248.772 10.8L248.66 12.96C248.628 13.728 248.564 14.432 248.468 15.072C248.383 15.712 248.239 16.2667 248.036 16.736C247.833 17.1947 247.561 17.552 247.22 17.808C246.879 18.0533 246.441 18.176 245.908 18.176C245.716 18.176 245.513 18.16 245.3 18.128C245.087 18.096 244.857 18.048 244.612 17.984ZM260.564 18.128C259.583 18.128 258.719 17.936 257.972 17.552C257.236 17.168 256.666 16.6453 256.26 15.984C255.855 15.312 255.652 14.5493 255.652 13.696C255.652 12.832 255.85 12.0693 256.244 11.408C256.65 10.736 257.199 10.2133 257.892 9.84C258.586 9.456 259.37 9.264 260.244 9.264C261.087 9.264 261.844 9.44533 262.516 9.808C263.199 10.16 263.738 10.672 264.132 11.344C264.527 12.0053 264.724 12.8 264.724 13.728C264.724 13.824 264.719 13.936 264.708 14.064C264.698 14.1813 264.687 14.2933 264.676 14.4H257.684V12.944H263.364L262.404 13.376C262.404 12.928 262.314 12.5387 262.132 12.208C261.951 11.8773 261.7 11.6213 261.38 11.44C261.06 11.248 260.687 11.152 260.26 11.152C259.834 11.152 259.455 11.248 259.124 11.44C258.804 11.6213 258.554 11.8827 258.372 12.224C258.191 12.5547 258.1 12.9493 258.1 13.408V13.792C258.1 14.2613 258.202 14.6773 258.404 15.04C258.618 15.392 258.911 15.664 259.284 15.856C259.668 16.0373 260.116 16.128 260.628 16.128C261.087 16.128 261.487 16.0587 261.828 15.92C262.18 15.7813 262.5 15.5733 262.788 15.296L264.116 16.736C263.722 17.184 263.226 17.5307 262.628 17.776C262.031 18.0107 261.343 18.128 260.564 18.128Z" fill="#28CB47"/>
<path d="M1.416 48V39.6H7.56V40.356H2.292V43.104H5.04C6.032 43.104 6.784 43.308 7.296 43.716C7.816 44.116 8.076 44.708 8.076 45.492C8.076 46.3 7.796 46.92 7.236 47.352C6.684 47.784 5.888 48 4.848 48H1.416ZM2.292 47.292H4.836C5.612 47.292 6.196 47.144 6.588 46.848C6.988 46.544 7.188 46.104 7.188 45.528C7.188 44.384 6.404 43.812 4.836 43.812H2.292V47.292ZM12.619 48.06C11.963 48.06 11.387 47.924 10.891 47.652C10.395 47.372 10.007 46.992 9.72703 46.512C9.44703 46.024 9.30703 45.468 9.30703 44.844C9.30703 44.22 9.43903 43.668 9.70303 43.188C9.97503 42.708 10.343 42.332 10.807 42.06C11.279 41.78 11.807 41.64 12.391 41.64C12.983 41.64 13.507 41.776 13.963 42.048C14.427 42.312 14.791 42.688 15.055 43.176C15.319 43.656 15.451 44.212 15.451 44.844C15.451 44.884 15.447 44.928 15.439 44.976C15.439 45.016 15.439 45.06 15.439 45.108H9.95503V44.472H14.983L14.647 44.724C14.647 44.268 14.547 43.864 14.347 43.512C14.155 43.152 13.891 42.872 13.555 42.672C13.219 42.472 12.831 42.372 12.391 42.372C11.959 42.372 11.571 42.472 11.227 42.672C10.883 42.872 10.615 43.152 10.423 43.512C10.231 43.872 10.135 44.284 10.135 44.748V44.88C10.135 45.36 10.239 45.784 10.447 46.152C10.663 46.512 10.959 46.796 11.335 47.004C11.719 47.204 12.155 47.304 12.643 47.304C13.027 47.304 13.383 47.236 13.711 47.1C14.047 46.964 14.335 46.756 14.575 46.476L15.055 47.028C14.775 47.364 14.423 47.62 13.999 47.796C13.583 47.972 13.123 48.06 12.619 48.06ZM18.8532 48.072C18.3972 48.072 17.9452 48.008 17.4972 47.88C17.0492 47.752 16.6532 47.556 16.3092 47.292L16.5852 46.656C16.8892 46.88 17.2412 47.052 17.6412 47.172C18.0412 47.284 18.4372 47.34 18.8292 47.34C19.2212 47.332 19.5612 47.276 19.8492 47.172C20.1372 47.068 20.3612 46.924 20.5212 46.74C20.6812 46.556 20.7612 46.348 20.7612 46.116C20.7612 45.78 20.6092 45.52 20.3052 45.336C20.0012 45.144 19.5852 45.048 19.0572 45.048H17.9772V44.424H18.9972C19.3092 44.424 19.5852 44.384 19.8252 44.304C20.0652 44.224 20.2492 44.108 20.3772 43.956C20.5132 43.804 20.5812 43.624 20.5812 43.416C20.5812 43.192 20.5012 43 20.3412 42.84C20.1892 42.68 19.9772 42.56 19.7052 42.48C19.4332 42.4 19.1252 42.36 18.7812 42.36C18.4692 42.368 18.1452 42.416 17.8092 42.504C17.4732 42.584 17.1412 42.708 16.8132 42.876L16.5732 42.216C16.9412 42.024 17.3052 41.88 17.6652 41.784C18.0332 41.68 18.4012 41.628 18.7692 41.628C19.2732 41.612 19.7252 41.672 20.1252 41.808C20.5332 41.944 20.8572 42.14 21.0972 42.396C21.3372 42.644 21.4572 42.944 21.4572 43.296C21.4572 43.608 21.3612 43.88 21.1692 44.112C20.9772 44.344 20.7212 44.524 20.4012 44.652C20.0812 44.78 19.7172 44.844 19.3092 44.844L19.3452 44.616C20.0652 44.616 20.6252 44.756 21.0252 45.036C21.4332 45.316 21.6372 45.696 21.6372 46.176C21.6372 46.552 21.5132 46.884 21.2652 47.172C21.0172 47.452 20.6812 47.672 20.2572 47.832C19.8412 47.992 19.3732 48.072 18.8532 48.072ZM26.712 48V41.7H27.564V44.484H31.536V41.7H32.388V48H31.536V45.216H27.564V48H26.712ZM38.7217 48V46.608L38.6857 46.38V44.052C38.6857 43.516 38.5337 43.104 38.2297 42.816C37.9337 42.528 37.4897 42.384 36.8977 42.384C36.4897 42.384 36.1017 42.452 35.7337 42.588C35.3657 42.724 35.0537 42.904 34.7977 43.128L34.4137 42.492C34.7337 42.22 35.1177 42.012 35.5657 41.868C36.0137 41.716 36.4857 41.64 36.9817 41.64C37.7977 41.64 38.4257 41.844 38.8657 42.252C39.3137 42.652 39.5377 43.264 39.5377 44.088V48H38.7217ZM36.5497 48.06C36.0777 48.06 35.6657 47.984 35.3137 47.832C34.9697 47.672 34.7057 47.456 34.5217 47.184C34.3377 46.904 34.2457 46.584 34.2457 46.224C34.2457 45.896 34.3217 45.6 34.4737 45.336C34.6337 45.064 34.8897 44.848 35.2417 44.688C35.6017 44.52 36.0817 44.436 36.6817 44.436H38.8537V45.072H36.7057C36.0977 45.072 35.6737 45.18 35.4337 45.396C35.2017 45.612 35.0857 45.88 35.0857 46.2C35.0857 46.56 35.2257 46.848 35.5057 47.064C35.7857 47.28 36.1777 47.388 36.6817 47.388C37.1617 47.388 37.5737 47.28 37.9177 47.064C38.2697 46.84 38.5257 46.52 38.6857 46.104L38.8777 46.692C38.7177 47.108 38.4377 47.44 38.0377 47.688C37.6457 47.936 37.1497 48.06 36.5497 48.06ZM41.8058 48V41.7H42.6578V47.256H46.5098V41.7H47.3618V48H41.8058ZM47.5778 49.524V47.928L47.7938 48H46.5098V47.256H48.3818V49.524H47.5778ZM52.7089 48.06C52.0529 48.06 51.4769 47.924 50.9809 47.652C50.4849 47.372 50.0969 46.992 49.8169 46.512C49.5369 46.024 49.3969 45.468 49.3969 44.844C49.3969 44.22 49.5289 43.668 49.7929 43.188C50.0649 42.708 50.4329 42.332 50.8969 42.06C51.3689 41.78 51.8969 41.64 52.4809 41.64C53.0729 41.64 53.5969 41.776 54.0529 42.048C54.5169 42.312 54.8809 42.688 55.1449 43.176C55.4089 43.656 55.5409 44.212 55.5409 44.844C55.5409 44.884 55.5369 44.928 55.5289 44.976C55.5289 45.016 55.5289 45.06 55.5289 45.108H50.0449V44.472H55.0729L54.7369 44.724C54.7369 44.268 54.6369 43.864 54.4369 43.512C54.2449 43.152 53.9809 42.872 53.6449 42.672C53.3089 42.472 52.9209 42.372 52.4809 42.372C52.0489 42.372 51.6609 42.472 51.3169 42.672C50.9729 42.872 50.7049 43.152 50.5129 43.512C50.3209 43.872 50.2249 44.284 50.2249 44.748V44.88C50.2249 45.36 50.3289 45.784 50.5369 46.152C50.7529 46.512 51.0489 46.796 51.4249 47.004C51.8089 47.204 52.2449 47.304 52.7329 47.304C53.1169 47.304 53.4729 47.236 53.8009 47.1C54.1369 46.964 54.4249 46.756 54.6649 46.476L55.1449 47.028C54.8649 47.364 54.5129 47.62 54.0889 47.796C53.6729 47.972 53.2129 48.06 52.7089 48.06ZM57.4268 48V41.7H58.2788V44.484H62.2508V41.7H63.1028V48H62.2508V45.216H58.2788V48H57.4268ZM70.1445 48L67.5525 44.88L68.2605 44.46L71.1525 48H70.1445ZM65.5245 48V41.7H66.3765V48H65.5245ZM66.1125 45.192V44.46H68.1405V45.192H66.1125ZM68.3325 44.94L67.5405 44.82L70.0485 41.7H70.9725L68.3325 44.94ZM72.4972 48V41.7H73.3492V46.704L77.5612 41.7H78.3172V48H77.4652V42.984L73.2652 48H72.4972ZM83.8995 48V41.7H89.5635V48H88.7115V42.216L88.9275 42.444H84.5355L84.7515 42.216V48H83.8995ZM94.5774 48.06C93.9694 48.06 93.4214 47.924 92.9334 47.652C92.4534 47.372 92.0734 46.992 91.7934 46.512C91.5134 46.024 91.3734 45.468 91.3734 44.844C91.3734 44.212 91.5134 43.656 91.7934 43.176C92.0734 42.696 92.4534 42.32 92.9334 42.048C93.4134 41.776 93.9614 41.64 94.5774 41.64C95.2014 41.64 95.7534 41.776 96.2334 42.048C96.7214 42.32 97.1014 42.696 97.3734 43.176C97.6534 43.656 97.7934 44.212 97.7934 44.844C97.7934 45.468 97.6534 46.024 97.3734 46.512C97.1014 46.992 96.7214 47.372 96.2334 47.652C95.7454 47.924 95.1934 48.06 94.5774 48.06ZM94.5774 47.304C95.0334 47.304 95.4374 47.204 95.7894 47.004C96.1414 46.796 96.4174 46.508 96.6174 46.14C96.8254 45.764 96.9294 45.332 96.9294 44.844C96.9294 44.348 96.8254 43.916 96.6174 43.548C96.4174 43.18 96.1414 42.896 95.7894 42.696C95.4374 42.488 95.0374 42.384 94.5894 42.384C94.1414 42.384 93.7414 42.488 93.3894 42.696C93.0374 42.896 92.7574 43.18 92.5494 43.548C92.3414 43.916 92.2374 44.348 92.2374 44.844C92.2374 45.332 92.3414 45.764 92.5494 46.14C92.7574 46.508 93.0374 46.796 93.3894 47.004C93.7414 47.204 94.1374 47.304 94.5774 47.304ZM102.254 48.06C101.63 48.06 101.07 47.924 100.574 47.652C100.086 47.372 99.7023 46.992 99.4223 46.512C99.1423 46.024 99.0023 45.468 99.0023 44.844C99.0023 44.212 99.1423 43.656 99.4223 43.176C99.7023 42.696 100.086 42.32 100.574 42.048C101.07 41.776 101.63 41.64 102.254 41.64C102.79 41.64 103.274 41.744 103.706 41.952C104.138 42.16 104.478 42.472 104.726 42.888L104.09 43.32C103.874 43 103.606 42.764 103.286 42.612C102.966 42.46 102.618 42.384 102.242 42.384C101.794 42.384 101.39 42.488 101.03 42.696C100.67 42.896 100.386 43.18 100.178 43.548C99.9703 43.916 99.8663 44.348 99.8663 44.844C99.8663 45.34 99.9703 45.772 100.178 46.14C100.386 46.508 100.67 46.796 101.03 47.004C101.39 47.204 101.794 47.304 102.242 47.304C102.618 47.304 102.966 47.228 103.286 47.076C103.606 46.924 103.874 46.692 104.09 46.38L104.726 46.812C104.478 47.22 104.138 47.532 103.706 47.748C103.274 47.956 102.79 48.06 102.254 48.06ZM109.628 48.06C109.084 48.06 108.592 47.936 108.152 47.688C107.712 47.432 107.36 47.068 107.096 46.596C106.84 46.116 106.712 45.532 106.712 44.844C106.712 44.156 106.84 43.576 107.096 43.104C107.352 42.624 107.7 42.26 108.14 42.012C108.58 41.764 109.076 41.64 109.628 41.64C110.228 41.64 110.764 41.776 111.236 42.048C111.716 42.312 112.092 42.688 112.364 43.176C112.636 43.656 112.772 44.212 112.772 44.844C112.772 45.484 112.636 46.044 112.364 46.524C112.092 47.004 111.716 47.38 111.236 47.652C110.764 47.924 110.228 48.06 109.628 48.06ZM106.376 50.328V41.7H107.192V43.596L107.108 44.856L107.228 46.128V50.328H106.376ZM109.568 47.304C110.016 47.304 110.416 47.204 110.768 47.004C111.12 46.796 111.4 46.508 111.608 46.14C111.816 45.764 111.92 45.332 111.92 44.844C111.92 44.356 111.816 43.928 111.608 43.56C111.4 43.192 111.12 42.904 110.768 42.696C110.416 42.488 110.016 42.384 109.568 42.384C109.12 42.384 108.716 42.488 108.356 42.696C108.004 42.904 107.724 43.192 107.516 43.56C107.316 43.928 107.216 44.356 107.216 44.844C107.216 45.332 107.316 45.764 107.516 46.14C107.724 46.508 108.004 46.796 108.356 47.004C108.716 47.204 109.12 47.304 109.568 47.304ZM117.303 48.06C116.647 48.06 116.071 47.924 115.575 47.652C115.079 47.372 114.691 46.992 114.411 46.512C114.131 46.024 113.991 45.468 113.991 44.844C113.991 44.22 114.123 43.668 114.387 43.188C114.659 42.708 115.027 42.332 115.491 42.06C115.963 41.78 116.491 41.64 117.075 41.64C117.667 41.64 118.191 41.776 118.647 42.048C119.111 42.312 119.475 42.688 119.739 43.176C120.003 43.656 120.135 44.212 120.135 44.844C120.135 44.884 120.131 44.928 120.123 44.976C120.123 45.016 120.123 45.06 120.123 45.108H114.639V44.472H119.667L119.331 44.724C119.331 44.268 119.231 43.864 119.031 43.512C118.839 43.152 118.575 42.872 118.239 42.672C117.903 42.472 117.515 42.372 117.075 42.372C116.643 42.372 116.255 42.472 115.911 42.672C115.567 42.872 115.299 43.152 115.107 43.512C114.915 43.872 114.819 44.284 114.819 44.748V44.88C114.819 45.36 114.923 45.784 115.131 46.152C115.347 46.512 115.643 46.796 116.019 47.004C116.403 47.204 116.839 47.304 117.327 47.304C117.711 47.304 118.067 47.236 118.395 47.1C118.731 46.964 119.019 46.756 119.259 46.476L119.739 47.028C119.459 47.364 119.107 47.62 118.683 47.796C118.267 47.972 117.807 48.06 117.303 48.06ZM126.212 47.592V42.444H123.176L123.104 43.848C123.088 44.272 123.06 44.688 123.02 45.096C122.988 45.504 122.928 45.88 122.84 46.224C122.76 46.56 122.644 46.836 122.492 47.052C122.34 47.26 122.144 47.38 121.904 47.412L121.052 47.256C121.3 47.264 121.504 47.176 121.664 46.992C121.824 46.8 121.948 46.54 122.036 46.212C122.124 45.884 122.188 45.512 122.228 45.096C122.268 44.672 122.3 44.24 122.324 43.8L122.408 41.7H127.064V47.592H126.212ZM120.788 49.524V47.256H128.048V49.524H127.244V48H121.592V49.524H120.788ZM129.708 48V41.7H130.56V44.484H134.532V41.7H135.384V48H134.532V45.216H130.56V48H129.708ZM137.806 48V41.7H138.658V46.704L142.87 41.7H143.626V48H142.774V42.984L138.574 48H137.806ZM150.687 48L148.095 44.88L148.803 44.46L151.695 48H150.687ZM146.067 48V41.7H146.919V48H146.067ZM146.655 45.192V44.46H148.683V45.192H146.655ZM148.875 44.94L148.083 44.82L150.591 41.7H151.515L148.875 44.94ZM155.409 48.06C154.801 48.06 154.253 47.924 153.765 47.652C153.285 47.372 152.905 46.992 152.625 46.512C152.345 46.024 152.205 45.468 152.205 44.844C152.205 44.212 152.345 43.656 152.625 43.176C152.905 42.696 153.285 42.32 153.765 42.048C154.245 41.776 154.793 41.64 155.409 41.64C156.033 41.64 156.585 41.776 157.065 42.048C157.553 42.32 157.933 42.696 158.205 43.176C158.485 43.656 158.625 44.212 158.625 44.844C158.625 45.468 158.485 46.024 158.205 46.512C157.933 46.992 157.553 47.372 157.065 47.652C156.577 47.924 156.025 48.06 155.409 48.06ZM155.409 47.304C155.865 47.304 156.269 47.204 156.621 47.004C156.973 46.796 157.249 46.508 157.449 46.14C157.657 45.764 157.761 45.332 157.761 44.844C157.761 44.348 157.657 43.916 157.449 43.548C157.249 43.18 156.973 42.896 156.621 42.696C156.269 42.488 155.869 42.384 155.421 42.384C154.973 42.384 154.573 42.488 154.221 42.696C153.869 42.896 153.589 43.18 153.381 43.548C153.173 43.916 153.069 44.348 153.069 44.844C153.069 45.332 153.173 45.764 153.381 46.14C153.589 46.508 153.869 46.796 154.221 47.004C154.573 47.204 154.969 47.304 155.409 47.304ZM160.446 48V41.7H163.23C163.942 41.7 164.502 41.836 164.91 42.108C165.326 42.38 165.534 42.78 165.534 43.308C165.534 43.82 165.338 44.216 164.946 44.496C164.554 44.768 164.038 44.904 163.398 44.904L163.566 44.652C164.318 44.652 164.87 44.792 165.222 45.072C165.574 45.352 165.75 45.756 165.75 46.284C165.75 46.828 165.55 47.252 165.15 47.556C164.758 47.852 164.146 48 163.314 48H160.446ZM161.274 47.328H163.278C163.814 47.328 164.218 47.244 164.49 47.076C164.77 46.9 164.91 46.62 164.91 46.236C164.91 45.852 164.786 45.572 164.538 45.396C164.29 45.22 163.898 45.132 163.362 45.132H161.274V47.328ZM161.274 44.496H163.17C163.658 44.496 164.03 44.404 164.286 44.22C164.55 44.036 164.682 43.768 164.682 43.416C164.682 43.064 164.55 42.8 164.286 42.624C164.03 42.448 163.658 42.36 163.17 42.36H161.274V44.496ZM170.888 48V41.7H171.74V46.704L175.952 41.7H176.708V48H175.856V42.984L171.656 48H170.888ZM186.202 48V46.608L186.166 46.38V44.052C186.166 43.516 186.014 43.104 185.71 42.816C185.414 42.528 184.97 42.384 184.378 42.384C183.97 42.384 183.582 42.452 183.214 42.588C182.846 42.724 182.534 42.904 182.278 43.128L181.894 42.492C182.214 42.22 182.598 42.012 183.046 41.868C183.494 41.716 183.966 41.64 184.462 41.64C185.278 41.64 185.906 41.844 186.346 42.252C186.794 42.652 187.018 43.264 187.018 44.088V48H186.202ZM184.03 48.06C183.558 48.06 183.146 47.984 182.794 47.832C182.45 47.672 182.186 47.456 182.002 47.184C181.818 46.904 181.726 46.584 181.726 46.224C181.726 45.896 181.802 45.6 181.954 45.336C182.114 45.064 182.37 44.848 182.722 44.688C183.082 44.52 183.562 44.436 184.162 44.436H186.334V45.072H184.186C183.578 45.072 183.154 45.18 182.914 45.396C182.682 45.612 182.566 45.88 182.566 46.2C182.566 46.56 182.706 46.848 182.986 47.064C183.266 47.28 183.658 47.388 184.162 47.388C184.642 47.388 185.054 47.28 185.398 47.064C185.75 46.84 186.006 46.52 186.166 46.104L186.358 46.692C186.198 47.108 185.918 47.44 185.518 47.688C185.126 47.936 184.63 48.06 184.03 48.06ZM189.286 48V41.7H193.75V42.444H189.922L190.138 42.228V48H189.286ZM197.389 48.06C196.733 48.06 196.157 47.924 195.661 47.652C195.165 47.372 194.777 46.992 194.497 46.512C194.217 46.024 194.077 45.468 194.077 44.844C194.077 44.22 194.209 43.668 194.473 43.188C194.745 42.708 195.113 42.332 195.577 42.06C196.049 41.78 196.577 41.64 197.161 41.64C197.753 41.64 198.277 41.776 198.733 42.048C199.197 42.312 199.561 42.688 199.825 43.176C200.089 43.656 200.221 44.212 200.221 44.844C200.221 44.884 200.217 44.928 200.209 44.976C200.209 45.016 200.209 45.06 200.209 45.108H194.725V44.472H199.753L199.417 44.724C199.417 44.268 199.317 43.864 199.117 43.512C198.925 43.152 198.661 42.872 198.325 42.672C197.989 42.472 197.601 42.372 197.161 42.372C196.729 42.372 196.341 42.472 195.997 42.672C195.653 42.872 195.385 43.152 195.193 43.512C195.001 43.872 194.905 44.284 194.905 44.748V44.88C194.905 45.36 195.009 45.784 195.217 46.152C195.433 46.512 195.729 46.796 196.105 47.004C196.489 47.204 196.925 47.304 197.413 47.304C197.797 47.304 198.153 47.236 198.481 47.1C198.817 46.964 199.105 46.756 199.345 46.476L199.825 47.028C199.545 47.364 199.193 47.62 198.769 47.796C198.353 47.972 197.893 48.06 197.389 48.06ZM202.107 48V41.7H202.959V44.484H206.931V41.7H207.783V48H206.931V45.216H202.959V48H202.107ZM211.404 48V42.216L211.62 42.444H209.016V41.7H214.644V42.444H212.04L212.256 42.216V48H211.404ZM218.223 48.06C217.599 48.06 217.039 47.924 216.543 47.652C216.055 47.372 215.671 46.992 215.391 46.512C215.111 46.024 214.971 45.468 214.971 44.844C214.971 44.212 215.111 43.656 215.391 43.176C215.671 42.696 216.055 42.32 216.543 42.048C217.039 41.776 217.599 41.64 218.223 41.64C218.759 41.64 219.243 41.744 219.675 41.952C220.107 42.16 220.447 42.472 220.695 42.888L220.059 43.32C219.843 43 219.575 42.764 219.255 42.612C218.935 42.46 218.587 42.384 218.211 42.384C217.763 42.384 217.359 42.488 216.999 42.696C216.639 42.896 216.355 43.18 216.147 43.548C215.939 43.916 215.835 44.348 215.835 44.844C215.835 45.34 215.939 45.772 216.147 46.14C216.355 46.508 216.639 46.796 216.999 47.004C217.359 47.204 217.763 47.304 218.211 47.304C218.587 47.304 218.935 47.228 219.255 47.076C219.575 46.924 219.843 46.692 220.059 46.38L220.695 46.812C220.447 47.22 220.107 47.532 219.675 47.748C219.243 47.956 218.759 48.06 218.223 48.06ZM223.428 48V42.216L223.644 42.444H221.04V41.7H226.668V42.444H224.064L224.28 42.216V48H223.428ZM232.52 48L229.928 44.88L230.636 44.46L233.528 48H232.52ZM227.9 48V41.7H228.752V48H227.9ZM228.488 45.192V44.46H230.516V45.192H228.488ZM230.708 44.94L229.916 44.82L232.424 41.7H233.348L230.708 44.94ZM237.242 48.06C236.634 48.06 236.086 47.924 235.598 47.652C235.118 47.372 234.738 46.992 234.458 46.512C234.178 46.024 234.038 45.468 234.038 44.844C234.038 44.212 234.178 43.656 234.458 43.176C234.738 42.696 235.118 42.32 235.598 42.048C236.078 41.776 236.626 41.64 237.242 41.64C237.866 41.64 238.418 41.776 238.898 42.048C239.386 42.32 239.766 42.696 240.038 43.176C240.318 43.656 240.458 44.212 240.458 44.844C240.458 45.468 240.318 46.024 240.038 46.512C239.766 46.992 239.386 47.372 238.898 47.652C238.41 47.924 237.858 48.06 237.242 48.06ZM237.242 47.304C237.698 47.304 238.102 47.204 238.454 47.004C238.806 46.796 239.082 46.508 239.282 46.14C239.49 45.764 239.594 45.332 239.594 44.844C239.594 44.348 239.49 43.916 239.282 43.548C239.082 43.18 238.806 42.896 238.454 42.696C238.102 42.488 237.702 42.384 237.254 42.384C236.806 42.384 236.406 42.488 236.054 42.696C235.702 42.896 235.422 43.18 235.214 43.548C235.006 43.916 234.902 44.348 234.902 44.844C234.902 45.332 235.006 45.764 235.214 46.14C235.422 46.508 235.702 46.796 236.054 47.004C236.406 47.204 236.802 47.304 237.242 47.304ZM242.278 48V41.7H243.13V46.704L247.342 41.7H248.098V48H247.246V42.984L243.046 48H242.278ZM245.134 40.788C244.606 40.788 244.178 40.656 243.85 40.392C243.53 40.12 243.362 39.732 243.346 39.228H243.958C243.966 39.548 244.078 39.8 244.294 39.984C244.51 40.168 244.79 40.26 245.134 40.26C245.478 40.26 245.758 40.168 245.974 39.984C246.198 39.8 246.314 39.548 246.322 39.228H246.934C246.926 39.732 246.758 40.12 246.43 40.392C246.102 40.656 245.67 40.788 245.134 40.788ZM258.301 48L255.709 44.88L256.417 44.46L259.309 48H258.301ZM253.681 48V41.7H254.533V48H253.681ZM254.269 45.192V44.46H256.297V45.192H254.269ZM256.489 44.94L255.697 44.82L258.205 41.7H259.129L256.489 44.94ZM263.023 48.06C262.415 48.06 261.867 47.924 261.379 47.652C260.899 47.372 260.519 46.992 260.239 46.512C259.959 46.024 259.819 45.468 259.819 44.844C259.819 44.212 259.959 43.656 260.239 43.176C260.519 42.696 260.899 42.32 261.379 42.048C261.859 41.776 262.407 41.64 263.023 41.64C263.647 41.64 264.199 41.776 264.679 42.048C265.167 42.32 265.547 42.696 265.819 43.176C266.099 43.656 266.239 44.212 266.239 44.844C266.239 45.468 266.099 46.024 265.819 46.512C265.547 46.992 265.167 47.372 264.679 47.652C264.191 47.924 263.639 48.06 263.023 48.06ZM263.023 47.304C263.479 47.304 263.883 47.204 264.235 47.004C264.587 46.796 264.863 46.508 265.063 46.14C265.271 45.764 265.375 45.332 265.375 44.844C265.375 44.348 265.271 43.916 265.063 43.548C264.863 43.18 264.587 42.896 264.235 42.696C263.883 42.488 263.483 42.384 263.035 42.384C262.587 42.384 262.187 42.488 261.835 42.696C261.483 42.896 261.203 43.18 260.995 43.548C260.787 43.916 260.683 44.348 260.683 44.844C260.683 45.332 260.787 45.764 260.995 46.14C261.203 46.508 261.483 46.796 261.835 47.004C262.187 47.204 262.583 47.304 263.023 47.304ZM268.06 48V41.7H268.924L271.78 46.536H271.42L274.324 41.7H275.116V48H274.336V42.672L274.492 42.744L271.78 47.232H271.396L268.66 42.696L268.84 42.66V48H268.06ZM277.54 48V41.7H278.392V46.704L282.604 41.7H283.36V48H282.508V42.984L278.308 48H277.54ZM288.442 48.06C287.818 48.06 287.258 47.924 286.762 47.652C286.274 47.372 285.89 46.992 285.61 46.512C285.33 46.024 285.19 45.468 285.19 44.844C285.19 44.212 285.33 43.656 285.61 43.176C285.89 42.696 286.274 42.32 286.762 42.048C287.258 41.776 287.818 41.64 288.442 41.64C288.978 41.64 289.462 41.744 289.894 41.952C290.326 42.16 290.666 42.472 290.914 42.888L290.278 43.32C290.062 43 289.794 42.764 289.474 42.612C289.154 42.46 288.806 42.384 288.43 42.384C287.982 42.384 287.578 42.488 287.218 42.696C286.858 42.896 286.574 43.18 286.366 43.548C286.158 43.916 286.054 44.348 286.054 44.844C286.054 45.34 286.158 45.772 286.366 46.14C286.574 46.508 286.858 46.796 287.218 47.004C287.578 47.204 287.982 47.304 288.43 47.304C288.806 47.304 289.154 47.228 289.474 47.076C289.794 46.924 290.062 46.692 290.278 46.38L290.914 46.812C290.666 47.22 290.326 47.532 289.894 47.748C289.462 47.956 288.978 48.06 288.442 48.06ZM295.098 48.06C294.474 48.06 293.914 47.924 293.418 47.652C292.93 47.372 292.546 46.992 292.266 46.512C291.986 46.024 291.846 45.468 291.846 44.844C291.846 44.212 291.986 43.656 292.266 43.176C292.546 42.696 292.93 42.32 293.418 42.048C293.914 41.776 294.474 41.64 295.098 41.64C295.634 41.64 296.118 41.744 296.55 41.952C296.982 42.16 297.322 42.472 297.57 42.888L296.934 43.32C296.718 43 296.45 42.764 296.13 42.612C295.81 42.46 295.462 42.384 295.086 42.384C294.638 42.384 294.234 42.488 293.874 42.696C293.514 42.896 293.23 43.18 293.022 43.548C292.814 43.916 292.71 44.348 292.71 44.844C292.71 45.34 292.814 45.772 293.022 46.14C293.23 46.508 293.514 46.796 293.874 47.004C294.234 47.204 294.638 47.304 295.086 47.304C295.462 47.304 295.81 47.228 296.13 47.076C296.45 46.924 296.718 46.692 296.934 46.38L297.57 46.812C297.322 47.22 296.982 47.532 296.55 47.748C296.118 47.956 295.634 48.06 295.098 48.06ZM299.22 48V41.7H300.072V46.704L304.284 41.7H305.04V48H304.188V42.984L299.988 48H299.22ZM310.622 48V41.7H311.486L314.342 46.536H313.982L316.886 41.7H317.678V48H316.898V42.672L317.054 42.744L314.342 47.232H313.958L311.222 42.696L311.402 42.66V48H310.622ZM324.015 48V46.608L323.979 46.38V44.052C323.979 43.516 323.827 43.104 323.523 42.816C323.227 42.528 322.783 42.384 322.191 42.384C321.783 42.384 321.395 42.452 321.027 42.588C320.659 42.724 320.347 42.904 320.091 43.128L319.707 42.492C320.027 42.22 320.411 42.012 320.859 41.868C321.307 41.716 321.779 41.64 322.275 41.64C323.091 41.64 323.719 41.844 324.159 42.252C324.607 42.652 324.831 43.264 324.831 44.088V48H324.015ZM321.843 48.06C321.371 48.06 320.959 47.984 320.607 47.832C320.263 47.672 319.999 47.456 319.815 47.184C319.631 46.904 319.539 46.584 319.539 46.224C319.539 45.896 319.615 45.6 319.767 45.336C319.927 45.064 320.183 44.848 320.535 44.688C320.895 44.52 321.375 44.436 321.975 44.436H324.147V45.072H321.999C321.391 45.072 320.967 45.18 320.727 45.396C320.495 45.612 320.379 45.88 320.379 46.2C320.379 46.56 320.519 46.848 320.799 47.064C321.079 47.28 321.471 47.388 321.975 47.388C322.455 47.388 322.867 47.28 323.211 47.064C323.563 46.84 323.819 46.52 323.979 46.104L324.171 46.692C324.011 47.108 323.731 47.44 323.331 47.688C322.939 47.936 322.443 48.06 321.843 48.06ZM330.351 48.06C329.807 48.06 329.315 47.936 328.875 47.688C328.435 47.432 328.083 47.068 327.819 46.596C327.563 46.116 327.435 45.532 327.435 44.844C327.435 44.156 327.563 43.576 327.819 43.104C328.075 42.624 328.423 42.26 328.863 42.012C329.303 41.764 329.799 41.64 330.351 41.64C330.951 41.64 331.487 41.776 331.959 42.048C332.439 42.312 332.815 42.688 333.087 43.176C333.359 43.656 333.495 44.212 333.495 44.844C333.495 45.484 333.359 46.044 333.087 46.524C332.815 47.004 332.439 47.38 331.959 47.652C331.487 47.924 330.951 48.06 330.351 48.06ZM327.099 50.328V41.7H327.915V43.596L327.831 44.856L327.951 46.128V50.328H327.099ZM330.291 47.304C330.739 47.304 331.139 47.204 331.491 47.004C331.843 46.796 332.123 46.508 332.331 46.14C332.539 45.764 332.643 45.332 332.643 44.844C332.643 44.356 332.539 43.928 332.331 43.56C332.123 43.192 331.843 42.904 331.491 42.696C331.139 42.488 330.739 42.384 330.291 42.384C329.843 42.384 329.439 42.488 329.079 42.696C328.727 42.904 328.447 43.192 328.239 43.56C328.039 43.928 327.939 44.356 327.939 44.844C327.939 45.332 328.039 45.764 328.239 46.14C328.447 46.508 328.727 46.796 329.079 47.004C329.439 47.204 329.843 47.304 330.291 47.304ZM339.945 48L337.353 44.88L338.061 44.46L340.953 48H339.945ZM335.325 48V41.7H336.177V48H335.325ZM335.913 45.192V44.46H337.941V45.192H335.913ZM338.133 44.94L337.341 44.82L339.849 41.7H340.773L338.133 44.94ZM344.775 48.06C344.119 48.06 343.543 47.924 343.047 47.652C342.551 47.372 342.163 46.992 341.883 46.512C341.603 46.024 341.463 45.468 341.463 44.844C341.463 44.22 341.595 43.668 341.859 43.188C342.131 42.708 342.499 42.332 342.963 42.06C343.435 41.78 343.963 41.64 344.547 41.64C345.139 41.64 345.663 41.776 346.119 42.048C346.583 42.312 346.947 42.688 347.211 43.176C347.475 43.656 347.607 44.212 347.607 44.844C347.607 44.884 347.603 44.928 347.595 44.976C347.595 45.016 347.595 45.06 347.595 45.108H342.111V44.472H347.139L346.803 44.724C346.803 44.268 346.703 43.864 346.503 43.512C346.311 43.152 346.047 42.872 345.711 42.672C345.375 42.472 344.987 42.372 344.547 42.372C344.115 42.372 343.727 42.472 343.383 42.672C343.039 42.872 342.771 43.152 342.579 43.512C342.387 43.872 342.291 44.284 342.291 44.748V44.88C342.291 45.36 342.395 45.784 342.603 46.152C342.819 46.512 343.115 46.796 343.491 47.004C343.875 47.204 344.311 47.304 344.799 47.304C345.183 47.304 345.539 47.236 345.867 47.1C346.203 46.964 346.491 46.756 346.731 46.476L347.211 47.028C346.931 47.364 346.579 47.62 346.155 47.796C345.739 47.972 345.279 48.06 344.775 48.06ZM350.412 48V42.216L350.628 42.444H348.024V41.7H353.652V42.444H351.048L351.264 42.216V48H350.412ZM354.884 48V41.7H360.548V48H359.696V42.216L359.912 42.444H355.52L355.736 42.216V48H354.884ZM361.818 47.988L361.878 47.256C361.934 47.264 361.986 47.276 362.034 47.292C362.09 47.3 362.138 47.304 362.178 47.304C362.434 47.304 362.638 47.208 362.79 47.016C362.95 46.824 363.07 46.568 363.15 46.248C363.23 45.928 363.286 45.568 363.318 45.168C363.35 44.76 363.378 44.352 363.402 43.944L363.51 41.7H368.13V48H367.278V42.192L367.494 42.444H364.062L364.266 42.18L364.17 44.004C364.146 44.548 364.102 45.068 364.038 45.564C363.982 46.06 363.89 46.496 363.762 46.872C363.642 47.248 363.474 47.544 363.258 47.76C363.042 47.968 362.766 48.072 362.43 48.072C362.334 48.072 362.234 48.064 362.13 48.048C362.034 48.032 361.93 48.012 361.818 47.988ZM373.252 48.06C372.596 48.06 372.02 47.924 371.524 47.652C371.028 47.372 370.64 46.992 370.36 46.512C370.08 46.024 369.94 45.468 369.94 44.844C369.94 44.22 370.072 43.668 370.336 43.188C370.608 42.708 370.976 42.332 371.44 42.06C371.912 41.78 372.44 41.64 373.024 41.64C373.616 41.64 374.14 41.776 374.596 42.048C375.06 42.312 375.424 42.688 375.688 43.176C375.952 43.656 376.084 44.212 376.084 44.844C376.084 44.884 376.08 44.928 376.072 44.976C376.072 45.016 376.072 45.06 376.072 45.108H370.588V44.472H375.616L375.28 44.724C375.28 44.268 375.18 43.864 374.98 43.512C374.788 43.152 374.524 42.872 374.188 42.672C373.852 42.472 373.464 42.372 373.024 42.372C372.592 42.372 372.204 42.472 371.86 42.672C371.516 42.872 371.248 43.152 371.056 43.512C370.864 43.872 370.768 44.284 370.768 44.748V44.88C370.768 45.36 370.872 45.784 371.08 46.152C371.296 46.512 371.592 46.796 371.968 47.004C372.352 47.204 372.788 47.304 373.276 47.304C373.66 47.304 374.016 47.236 374.344 47.1C374.68 46.964 374.968 46.756 375.208 46.476L375.688 47.028C375.408 47.364 375.056 47.62 374.632 47.796C374.216 47.972 373.756 48.06 373.252 48.06ZM377.97 48V41.7H378.822V46.704L383.034 41.7H383.79V48H382.938V42.984L378.738 48H377.97ZM380.826 40.788C380.298 40.788 379.87 40.656 379.542 40.392C379.222 40.12 379.054 39.732 379.038 39.228H379.65C379.658 39.548 379.77 39.8 379.986 39.984C380.202 40.168 380.482 40.26 380.826 40.26C381.17 40.26 381.45 40.168 381.666 39.984C381.89 39.8 382.006 39.548 382.014 39.228H382.626C382.618 39.732 382.45 40.12 382.122 40.392C381.794 40.656 381.362 40.788 380.826 40.788ZM388.872 48.06C388.248 48.06 387.688 47.924 387.192 47.652C386.704 47.372 386.32 46.992 386.04 46.512C385.76 46.024 385.62 45.468 385.62 44.844C385.62 44.212 385.76 43.656 386.04 43.176C386.32 42.696 386.704 42.32 387.192 42.048C387.688 41.776 388.248 41.64 388.872 41.64C389.408 41.64 389.892 41.744 390.324 41.952C390.756 42.16 391.096 42.472 391.344 42.888L390.708 43.32C390.492 43 390.224 42.764 389.904 42.612C389.584 42.46 389.236 42.384 388.86 42.384C388.412 42.384 388.008 42.488 387.648 42.696C387.288 42.896 387.004 43.18 386.796 43.548C386.588 43.916 386.484 44.348 386.484 44.844C386.484 45.34 386.588 45.772 386.796 46.14C387.004 46.508 387.288 46.796 387.648 47.004C388.008 47.204 388.412 47.304 388.86 47.304C389.236 47.304 389.584 47.228 389.904 47.076C390.224 46.924 390.492 46.692 390.708 46.38L391.344 46.812C391.096 47.22 390.756 47.532 390.324 47.748C389.892 47.956 389.408 48.06 388.872 48.06ZM395.48 48.06C394.872 48.06 394.324 47.924 393.836 47.652C393.356 47.372 392.976 46.992 392.696 46.512C392.416 46.024 392.276 45.468 392.276 44.844C392.276 44.212 392.416 43.656 392.696 43.176C392.976 42.696 393.356 42.32 393.836 42.048C394.316 41.776 394.864 41.64 395.48 41.64C396.104 41.64 396.656 41.776 397.136 42.048C397.624 42.32 398.004 42.696 398.276 43.176C398.556 43.656 398.696 44.212 398.696 44.844C398.696 45.468 398.556 46.024 398.276 46.512C398.004 46.992 397.624 47.372 397.136 47.652C396.648 47.924 396.096 48.06 395.48 48.06ZM395.48 47.304C395.936 47.304 396.34 47.204 396.692 47.004C397.044 46.796 397.32 46.508 397.52 46.14C397.728 45.764 397.832 45.332 397.832 44.844C397.832 44.348 397.728 43.916 397.52 43.548C397.32 43.18 397.044 42.896 396.692 42.696C396.34 42.488 395.94 42.384 395.492 42.384C395.044 42.384 394.644 42.488 394.292 42.696C393.94 42.896 393.66 43.18 393.452 43.548C393.244 43.916 393.14 44.348 393.14 44.844C393.14 45.332 393.244 45.764 393.452 46.14C393.66 46.508 393.94 46.796 394.292 47.004C394.644 47.204 395.04 47.304 395.48 47.304ZM400.517 48V41.7H403.301C404.013 41.7 404.573 41.836 404.981 42.108C405.397 42.38 405.605 42.78 405.605 43.308C405.605 43.82 405.409 44.216 405.017 44.496C404.625 44.768 404.109 44.904 403.469 44.904L403.637 44.652C404.389 44.652 404.941 44.792 405.293 45.072C405.645 45.352 405.821 45.756 405.821 46.284C405.821 46.828 405.621 47.252 405.221 47.556C404.829 47.852 404.217 48 403.385 48H400.517ZM401.345 47.328H403.349C403.885 47.328 404.289 47.244 404.561 47.076C404.841 46.9 404.981 46.62 404.981 46.236C404.981 45.852 404.857 45.572 404.609 45.396C404.361 45.22 403.969 45.132 403.433 45.132H401.345V47.328ZM401.345 44.496H403.241C403.729 44.496 404.101 44.404 404.357 44.22C404.621 44.036 404.753 43.768 404.753 43.416C404.753 43.064 404.621 42.8 404.357 42.624C404.101 42.448 403.729 42.36 403.241 42.36H401.345V44.496Z" fill="#141414"/>
</svg>
