<svg width="280" height="92" viewBox="0 0 280 92" fill="none" xmlns="http://www.w3.org/2000/svg">
<path d="M0.128 18L5.12 6.8H7.68L12.688 18H9.968L5.872 8.112H6.896L2.784 18H0.128ZM2.624 15.6L3.312 13.632H9.072L9.776 15.6H2.624ZM13.9813 18V9.392H18.3813C19.4586 9.392 20.3013 9.58933 20.9093 9.984C21.5173 10.368 21.8212 10.912 21.8212 11.616C21.8212 12.32 21.5333 12.8747 20.9573 13.28C20.3919 13.6747 19.6399 13.872 18.7013 13.872L18.9573 13.296C20.0026 13.296 20.7813 13.488 21.2933 13.872C21.8159 14.256 22.0773 14.816 22.0773 15.552C22.0773 16.3093 21.7893 16.9067 21.2133 17.344C20.6373 17.7813 19.7573 18 18.5733 18H13.9813ZM16.2693 16.304H18.3653C18.8239 16.304 19.1653 16.2293 19.3893 16.08C19.6239 15.92 19.7413 15.68 19.7413 15.36C19.7413 15.0293 19.6346 14.7893 19.4213 14.64C19.2079 14.48 18.8719 14.4 18.4133 14.4H16.2693V16.304ZM16.2693 12.928H18.1573C18.5946 12.928 18.9199 12.848 19.1333 12.688C19.3573 12.528 19.4693 12.2987 19.4693 12C19.4693 11.6907 19.3573 11.4613 19.1333 11.312C18.9199 11.1627 18.5946 11.088 18.1573 11.088H16.2693V12.928ZM25.7744 18V10.864L26.3344 11.44H22.8624V9.392H31.1664V11.44H27.6944L28.2544 10.864V18H25.7744ZM36.1695 18.128C35.2522 18.128 34.4362 17.936 33.7215 17.552C33.0175 17.168 32.4575 16.6453 32.0415 15.984C31.6362 15.312 31.4335 14.5493 31.4335 13.696C31.4335 12.832 31.6362 12.0693 32.0415 11.408C32.4575 10.736 33.0175 10.2133 33.7215 9.84C34.4362 9.456 35.2522 9.264 36.1695 9.264C37.0762 9.264 37.8868 9.456 38.6015 9.84C39.3162 10.2133 39.8762 10.7307 40.2815 11.392C40.6868 12.0533 40.8895 12.8213 40.8895 13.696C40.8895 14.5493 40.6868 15.312 40.2815 15.984C39.8762 16.6453 39.3162 17.168 38.6015 17.552C37.8868 17.936 37.0762 18.128 36.1695 18.128ZM36.1695 16.08C36.5855 16.08 36.9588 15.984 37.2895 15.792C37.6202 15.6 37.8815 15.328 38.0735 14.976C38.2655 14.6133 38.3615 14.1867 38.3615 13.696C38.3615 13.1947 38.2655 12.768 38.0735 12.416C37.8815 12.064 37.6202 11.792 37.2895 11.6C36.9588 11.408 36.5855 11.312 36.1695 11.312C35.7535 11.312 35.3802 11.408 35.0495 11.6C34.7188 11.792 34.4522 12.064 34.2495 12.416C34.0575 12.768 33.9615 13.1947 33.9615 13.696C33.9615 14.1867 34.0575 14.6133 34.2495 14.976C34.4522 15.328 34.7188 15.6 35.0495 15.792C35.3802 15.984 35.7535 16.08 36.1695 16.08ZM48.0303 14.704C47.6783 14.896 47.2889 15.0507 46.8623 15.168C46.4356 15.2853 45.9663 15.344 45.4543 15.344C44.3236 15.344 43.4543 15.088 42.8463 14.576C42.2383 14.0533 41.9342 13.2267 41.9342 12.096V9.392H44.4303V11.936C44.4303 12.4693 44.5689 12.8533 44.8463 13.088C45.1236 13.312 45.5129 13.424 46.0143 13.424C46.3769 13.424 46.7236 13.3813 47.0543 13.296C47.3956 13.2107 47.7209 13.088 48.0303 12.928V14.704ZM47.8543 18V9.392H50.3503V18H47.8543ZM56.9549 18.128C55.9735 18.128 55.1095 17.936 54.3629 17.552C53.6269 17.168 53.0562 16.6453 52.6509 15.984C52.2455 15.312 52.0429 14.5493 52.0429 13.696C52.0429 12.832 52.2402 12.0693 52.6349 11.408C53.0402 10.736 53.5895 10.2133 54.2829 9.84C54.9762 9.456 55.7602 9.264 56.6349 9.264C57.4775 9.264 58.2349 9.44533 58.9069 9.808C59.5895 10.16 60.1282 10.672 60.5229 11.344C60.9175 12.0053 61.1149 12.8 61.1149 13.728C61.1149 13.824 61.1095 13.936 61.0989 14.064C61.0882 14.1813 61.0775 14.2933 61.0669 14.4H54.0749V12.944H59.7549L58.7949 13.376C58.7949 12.928 58.7042 12.5387 58.5229 12.208C58.3415 11.8773 58.0909 11.6213 57.7709 11.44C57.4509 11.248 57.0775 11.152 56.6509 11.152C56.2242 11.152 55.8455 11.248 55.5149 11.44C55.1949 11.6213 54.9442 11.8827 54.7629 12.224C54.5815 12.5547 54.4909 12.9493 54.4909 13.408V13.792C54.4909 14.2613 54.5922 14.6773 54.7949 15.04C55.0082 15.392 55.3015 15.664 55.6749 15.856C56.0589 16.0373 56.5069 16.128 57.0189 16.128C57.4775 16.128 57.8775 16.0587 58.2189 15.92C58.5709 15.7813 58.8909 15.5733 59.1789 15.296L60.5069 16.736C60.1122 17.184 59.6162 17.5307 59.0189 17.776C58.4215 18.0107 57.7335 18.128 56.9549 18.128ZM61.6418 18L65.4978 12.944L65.4498 14.32L61.7538 9.392H64.5538L66.8898 12.608L65.8338 12.64L68.2498 9.392H70.9058L67.1938 14.272V12.928L71.0338 18H68.2018L65.7538 14.576L66.7938 14.72L64.3618 18H61.6418ZM71.1745 17.984L71.3025 15.936C71.3665 15.9467 71.4305 15.9573 71.4945 15.968C71.5585 15.968 71.6172 15.968 71.6705 15.968C71.9692 15.968 72.2038 15.8827 72.3745 15.712C72.5452 15.5413 72.6732 15.312 72.7585 15.024C72.8438 14.7253 72.9025 14.3893 72.9345 14.016C72.9772 13.6427 73.0092 13.2533 73.0305 12.848L73.1585 9.392H80.5185V18H78.0225V10.832L78.5825 11.44H74.8065L75.3345 10.8L75.2225 12.96C75.1905 13.728 75.1265 14.432 75.0305 15.072C74.9452 15.712 74.8012 16.2667 74.5985 16.736C74.3958 17.1947 74.1238 17.552 73.7825 17.808C73.4412 18.0533 73.0038 18.176 72.4705 18.176C72.2785 18.176 72.0758 18.16 71.8625 18.128C71.6492 18.096 71.4198 18.048 71.1745 17.984ZM91.7828 18V9.392H94.2628V18H91.7828ZM87.4468 12.144C88.5774 12.1547 89.4254 12.4107 89.9908 12.912C90.5668 13.4027 90.8548 14.1013 90.8548 15.008C90.8548 15.9573 90.5294 16.6987 89.8788 17.232C89.2281 17.7547 88.3054 18.016 87.1108 18.016L82.9188 18V9.392H85.3988V12.144H87.4468ZM86.8868 16.24C87.3668 16.2507 87.7348 16.1493 87.9908 15.936C88.2468 15.7227 88.3748 15.4027 88.3748 14.976C88.3748 14.5493 88.2468 14.2453 87.9908 14.064C87.7348 13.872 87.3668 13.7707 86.8868 13.76L85.3988 13.744V16.24H86.8868ZM266.158 20.464L267.214 16.624L267.566 18.064C267.107 18.064 266.728 17.9307 266.43 17.664C266.142 17.3973 265.998 17.0293 265.998 16.56C265.998 16.0907 266.147 15.7173 266.446 15.44C266.744 15.1627 267.112 15.024 267.549 15.024C267.998 15.024 268.366 15.168 268.654 15.456C268.942 15.7333 269.086 16.1013 269.086 16.56C269.086 16.6987 269.075 16.8373 269.054 16.976C269.032 17.104 268.99 17.264 268.926 17.456C268.872 17.6373 268.782 17.872 268.654 18.16L267.742 20.464H266.158ZM6.624 38.704C6.272 38.896 5.88267 39.0507 5.456 39.168C5.02933 39.2853 4.56 39.344 4.048 39.344C2.91733 39.344 2.048 39.088 1.44 38.576C0.832 38.0533 0.528 37.2267 0.528 36.096V33.392H3.024V35.936C3.024 36.4693 3.16267 36.8533 3.44 37.088C3.71733 37.312 4.10667 37.424 4.608 37.424C4.97067 37.424 5.31733 37.3813 5.648 37.296C5.98933 37.2107 6.31467 37.088 6.624 36.928V38.704ZM6.448 42V33.392H8.944V42H6.448ZM15.5486 42.128C14.5673 42.128 13.7033 41.936 12.9566 41.552C12.2206 41.168 11.65 40.6453 11.2446 39.984C10.8393 39.312 10.6366 38.5493 10.6366 37.696C10.6366 36.832 10.834 36.0693 11.2286 35.408C11.634 34.736 12.1833 34.2133 12.8766 33.84C13.57 33.456 14.354 33.264 15.2286 33.264C16.0713 33.264 16.8286 33.4453 17.5006 33.808C18.1833 34.16 18.722 34.672 19.1166 35.344C19.5113 36.0053 19.7086 36.8 19.7086 37.728C19.7086 37.824 19.7033 37.936 19.6926 38.064C19.682 38.1813 19.6713 38.2933 19.6606 38.4H12.6686V36.944H18.3486L17.3886 37.376C17.3886 36.928 17.298 36.5387 17.1166 36.208C16.9353 35.8773 16.6846 35.6213 16.3646 35.44C16.0446 35.248 15.6713 35.152 15.2446 35.152C14.818 35.152 14.4393 35.248 14.1086 35.44C13.7886 35.6213 13.538 35.8827 13.3566 36.224C13.1753 36.5547 13.0846 36.9493 13.0846 37.408V37.792C13.0846 38.2613 13.186 38.6773 13.3886 39.04C13.602 39.392 13.8953 39.664 14.2686 39.856C14.6526 40.0373 15.1006 40.128 15.6126 40.128C16.0713 40.128 16.4713 40.0587 16.8126 39.92C17.1646 39.7813 17.4846 39.5733 17.7726 39.296L19.1006 40.736C18.706 41.184 18.21 41.5307 17.6126 41.776C17.0153 42.0107 16.3273 42.128 15.5486 42.128ZM21.6219 42V33.392H24.2299L27.4779 39.28H26.4379L29.9099 33.392H32.2459L32.2779 42H30.0219V35.952L30.4059 36.208L27.4459 41.168H26.3899L23.4139 36.032L23.8779 35.92V42H21.6219ZM39.2 42V33.392H41.68V36.752H45.424V33.392H47.92V42H45.424V38.784H41.68V42H39.2ZM55.4614 42V40.32L55.3014 39.952V36.944C55.3014 36.4107 55.136 35.9947 54.8054 35.696C54.4854 35.3973 53.9894 35.248 53.3174 35.248C52.8587 35.248 52.4054 35.3227 51.9574 35.472C51.52 35.6107 51.1467 35.8027 50.8374 36.048L49.9414 34.304C50.4107 33.9733 50.976 33.7173 51.6374 33.536C52.2987 33.3547 52.9707 33.264 53.6534 33.264C54.9654 33.264 55.984 33.5733 56.7094 34.192C57.4347 34.8107 57.7974 35.776 57.7974 37.088V42H55.4614ZM52.8374 42.128C52.1654 42.128 51.5894 42.016 51.1094 41.792C50.6294 41.5573 50.2614 41.2427 50.0054 40.848C49.7494 40.4533 49.6214 40.0107 49.6214 39.52C49.6214 39.008 49.744 38.56 49.9894 38.176C50.2454 37.792 50.6454 37.4933 51.1894 37.28C51.7334 37.056 52.4427 36.944 53.3174 36.944H55.6054V38.4H53.5894C53.0027 38.4 52.5974 38.496 52.3734 38.688C52.16 38.88 52.0534 39.12 52.0534 39.408C52.0534 39.728 52.176 39.984 52.4214 40.176C52.6774 40.3573 53.024 40.448 53.4614 40.448C53.8774 40.448 54.2507 40.352 54.5814 40.16C54.912 39.9573 55.152 39.664 55.3014 39.28L55.6854 40.432C55.504 40.9867 55.1734 41.408 54.6934 41.696C54.2134 41.984 53.5947 42.128 52.8374 42.128ZM64.4969 42V33.392H67.1049L70.3529 39.28H69.3129L72.7849 33.392H75.1209L75.1529 42H72.8969V35.952L73.2809 36.208L70.3209 41.168H69.2649L66.2889 36.032L66.7529 35.92V42H64.4969ZM82.6958 42V40.32L82.5358 39.952V36.944C82.5358 36.4107 82.3704 35.9947 82.0398 35.696C81.7198 35.3973 81.2238 35.248 80.5518 35.248C80.0931 35.248 79.6398 35.3227 79.1918 35.472C78.7544 35.6107 78.3811 35.8027 78.0718 36.048L77.1758 34.304C77.6451 33.9733 78.2104 33.7173 78.8718 33.536C79.5331 33.3547 80.2051 33.264 80.8878 33.264C82.1998 33.264 83.2184 33.5733 83.9438 34.192C84.6691 34.8107 85.0318 35.776 85.0318 37.088V42H82.6958ZM80.0718 42.128C79.3998 42.128 78.8238 42.016 78.3438 41.792C77.8638 41.5573 77.4958 41.2427 77.2398 40.848C76.9838 40.4533 76.8558 40.0107 76.8558 39.52C76.8558 39.008 76.9784 38.56 77.2238 38.176C77.4798 37.792 77.8798 37.4933 78.4238 37.28C78.9678 37.056 79.6771 36.944 80.5518 36.944H82.8398V38.4H80.8238C80.2371 38.4 79.8318 38.496 79.6078 38.688C79.3944 38.88 79.2878 39.12 79.2878 39.408C79.2878 39.728 79.4104 39.984 79.6558 40.176C79.9118 40.3573 80.2584 40.448 80.6958 40.448C81.1118 40.448 81.4851 40.352 81.8158 40.16C82.1464 39.9573 82.3864 39.664 82.5358 39.28L82.9198 40.432C82.7384 40.9867 82.4078 41.408 81.9278 41.696C81.4478 41.984 80.8291 42.128 80.0718 42.128ZM92.272 42.128C91.5467 42.128 90.912 41.968 90.368 41.648C89.824 41.328 89.3973 40.8427 89.088 40.192C88.7893 39.5307 88.64 38.6987 88.64 37.696C88.64 36.6827 88.784 35.8507 89.072 35.2C89.36 34.5493 89.776 34.064 90.32 33.744C90.864 33.424 91.5147 33.264 92.272 33.264C93.0827 33.264 93.808 33.4507 94.448 33.824C95.0987 34.1867 95.6107 34.6987 95.984 35.36C96.368 36.0213 96.56 36.8 96.56 37.696C96.56 38.6027 96.368 39.3867 95.984 40.048C95.6107 40.7093 95.0987 41.2213 94.448 41.584C93.808 41.9467 93.0827 42.128 92.272 42.128ZM87.184 45.104V33.392H89.568V35.152L89.52 37.712L89.68 40.256V45.104H87.184ZM91.84 40.08C92.256 40.08 92.624 39.984 92.944 39.792C93.2747 39.6 93.536 39.328 93.728 38.976C93.9307 38.6133 94.032 38.1867 94.032 37.696C94.032 37.1947 93.9307 36.768 93.728 36.416C93.536 36.064 93.2747 35.792 92.944 35.6C92.624 35.408 92.256 35.312 91.84 35.312C91.424 35.312 91.0507 35.408 90.72 35.6C90.3893 35.792 90.128 36.064 89.936 36.416C89.744 36.768 89.648 37.1947 89.648 37.696C89.648 38.1867 89.744 38.6133 89.936 38.976C90.128 39.328 90.3893 39.6 90.72 39.792C91.0507 39.984 91.424 40.08 91.84 40.08ZM104.405 42L101.525 37.92L103.557 36.72L107.349 42H104.405ZM98.3094 42V33.392H100.805V42H98.3094ZM100.069 38.736V36.736H103.077V38.736H100.069ZM103.797 37.984L101.461 37.728L104.485 33.392H107.141L103.797 37.984ZM112.517 42.128C111.536 42.128 110.672 41.936 109.925 41.552C109.189 41.168 108.619 40.6453 108.213 39.984C107.808 39.312 107.605 38.5493 107.605 37.696C107.605 36.832 107.803 36.0693 108.197 35.408C108.603 34.736 109.152 34.2133 109.845 33.84C110.539 33.456 111.323 33.264 112.197 33.264C113.04 33.264 113.797 33.4453 114.469 33.808C115.152 34.16 115.691 34.672 116.085 35.344C116.48 36.0053 116.677 36.8 116.677 37.728C116.677 37.824 116.672 37.936 116.661 38.064C116.651 38.1813 116.64 38.2933 116.629 38.4H109.637V36.944H115.317L114.357 37.376C114.357 36.928 114.267 36.5387 114.085 36.208C113.904 35.8773 113.653 35.6213 113.333 35.44C113.013 35.248 112.64 35.152 112.213 35.152C111.787 35.152 111.408 35.248 111.077 35.44C110.757 35.6213 110.507 35.8827 110.325 36.224C110.144 36.5547 110.053 36.9493 110.053 37.408V37.792C110.053 38.2613 110.155 38.6773 110.357 39.04C110.571 39.392 110.864 39.664 111.237 39.856C111.621 40.0373 112.069 40.128 112.581 40.128C113.04 40.128 113.44 40.0587 113.781 39.92C114.133 39.7813 114.453 39.5733 114.741 39.296L116.069 40.736C115.675 41.184 115.179 41.5307 114.581 41.776C113.984 42.0107 113.296 42.128 112.517 42.128ZM120.134 42V34.864L120.694 35.44H117.222V33.392H125.526V35.44H122.054L122.614 34.864V42H120.134ZM126.856 42V33.392H135.416V42H132.92V34.88L133.48 35.44H128.776L129.336 34.88V42H126.856ZM136.721 41.984L136.849 39.936C136.913 39.9467 136.977 39.9573 137.041 39.968C137.105 39.968 137.164 39.968 137.217 39.968C137.516 39.968 137.751 39.8827 137.921 39.712C138.092 39.5413 138.22 39.312 138.305 39.024C138.391 38.7253 138.449 38.3893 138.481 38.016C138.524 37.6427 138.556 37.2533 138.577 36.848L138.705 33.392H146.065V42H143.569V34.832L144.129 35.44H140.353L140.881 34.8L140.769 36.96C140.737 37.728 140.673 38.432 140.577 39.072C140.492 39.712 140.348 40.2667 140.145 40.736C139.943 41.1947 139.671 41.552 139.329 41.808C138.988 42.0533 138.551 42.176 138.017 42.176C137.825 42.176 137.623 42.16 137.409 42.128C137.196 42.096 136.967 42.048 136.721 41.984ZM152.674 42.128C151.692 42.128 150.828 41.936 150.082 41.552C149.346 41.168 148.775 40.6453 148.37 39.984C147.964 39.312 147.762 38.5493 147.762 37.696C147.762 36.832 147.959 36.0693 148.354 35.408C148.759 34.736 149.308 34.2133 150.002 33.84C150.695 33.456 151.479 33.264 152.354 33.264C153.196 33.264 153.954 33.4453 154.626 33.808C155.308 34.16 155.847 34.672 156.242 35.344C156.636 36.0053 156.834 36.8 156.834 37.728C156.834 37.824 156.828 37.936 156.818 38.064C156.807 38.1813 156.796 38.2933 156.786 38.4H149.794V36.944H155.474L154.514 37.376C154.514 36.928 154.423 36.5387 154.242 36.208C154.06 35.8773 153.81 35.6213 153.49 35.44C153.17 35.248 152.796 35.152 152.37 35.152C151.943 35.152 151.564 35.248 151.234 35.44C150.914 35.6213 150.663 35.8827 150.482 36.224C150.3 36.5547 150.21 36.9493 150.21 37.408V37.792C150.21 38.2613 150.311 38.6773 150.514 39.04C150.727 39.392 151.02 39.664 151.394 39.856C151.778 40.0373 152.226 40.128 152.738 40.128C153.196 40.128 153.596 40.0587 153.938 39.92C154.29 39.7813 154.61 39.5733 154.898 39.296L156.226 40.736C155.831 41.184 155.335 41.5307 154.738 41.776C154.14 42.0107 153.452 42.128 152.674 42.128ZM158.747 42V33.392H161.227V38.512L165.419 33.392H167.707V42H165.227V36.88L161.051 42H158.747ZM163.067 32.464C162.128 32.464 161.424 32.2613 160.955 31.856C160.486 31.44 160.246 30.816 160.235 29.984H161.867C161.878 30.3467 161.979 30.6347 162.171 30.848C162.363 31.0613 162.656 31.168 163.051 31.168C163.435 31.168 163.728 31.0613 163.931 30.848C164.144 30.6347 164.251 30.3467 164.251 29.984H165.915C165.915 30.816 165.675 31.44 165.195 31.856C164.715 32.2613 164.006 32.464 163.067 32.464ZM174.202 42.128C173.274 42.128 172.448 41.9413 171.722 41.568C170.997 41.184 170.426 40.656 170.01 39.984C169.605 39.312 169.402 38.5493 169.402 37.696C169.402 36.832 169.605 36.0693 170.01 35.408C170.426 34.736 170.997 34.2133 171.722 33.84C172.448 33.456 173.274 33.264 174.202 33.264C175.109 33.264 175.898 33.456 176.57 33.84C177.242 34.2133 177.738 34.752 178.058 35.456L176.122 36.496C175.898 36.0907 175.616 35.792 175.274 35.6C174.944 35.408 174.581 35.312 174.186 35.312C173.76 35.312 173.376 35.408 173.034 35.6C172.693 35.792 172.421 36.064 172.218 36.416C172.026 36.768 171.93 37.1947 171.93 37.696C171.93 38.1973 172.026 38.624 172.218 38.976C172.421 39.328 172.693 39.6 173.034 39.792C173.376 39.984 173.76 40.08 174.186 40.08C174.581 40.08 174.944 39.9893 175.274 39.808C175.616 39.616 175.898 39.312 176.122 38.896L178.058 39.952C177.738 40.6453 177.242 41.184 176.57 41.568C175.898 41.9413 175.109 42.128 174.202 42.128ZM184.727 42V40.32L184.567 39.952V36.944C184.567 36.4107 184.402 35.9947 184.071 35.696C183.751 35.3973 183.255 35.248 182.583 35.248C182.124 35.248 181.671 35.3227 181.223 35.472C180.786 35.6107 180.412 35.8027 180.103 36.048L179.207 34.304C179.676 33.9733 180.242 33.7173 180.903 33.536C181.564 33.3547 182.236 33.264 182.919 33.264C184.231 33.264 185.25 33.5733 185.975 34.192C186.7 34.8107 187.063 35.776 187.063 37.088V42H184.727ZM182.103 42.128C181.431 42.128 180.855 42.016 180.375 41.792C179.895 41.5573 179.527 41.2427 179.271 40.848C179.015 40.4533 178.887 40.0107 178.887 39.52C178.887 39.008 179.01 38.56 179.255 38.176C179.511 37.792 179.911 37.4933 180.455 37.28C180.999 37.056 181.708 36.944 182.583 36.944H184.871V38.4H182.855C182.268 38.4 181.863 38.496 181.639 38.688C181.426 38.88 181.319 39.12 181.319 39.408C181.319 39.728 181.442 39.984 181.687 40.176C181.943 40.3573 182.29 40.448 182.727 40.448C183.143 40.448 183.516 40.352 183.847 40.16C184.178 39.9573 184.418 39.664 184.567 39.28L184.951 40.432C184.77 40.9867 184.439 41.408 183.959 41.696C183.479 41.984 182.86 42.128 182.103 42.128ZM188.079 42L191.935 36.944L191.887 38.32L188.191 33.392H190.991L193.327 36.608L192.271 36.64L194.687 33.392H197.343L193.631 38.272V36.928L197.471 42H194.639L192.191 38.576L193.231 38.72L190.799 42H188.079Z" fill="#141414"/>
<path d="M101.2 18V9.392H103.68V12.752H107.424V9.392H109.92V18H107.424V14.784H103.68V18H101.2ZM117.461 18V16.32L117.301 15.952V12.944C117.301 12.4107 117.136 11.9947 116.805 11.696C116.485 11.3973 115.989 11.248 115.317 11.248C114.859 11.248 114.405 11.3227 113.957 11.472C113.52 11.6107 113.147 11.8027 112.837 12.048L111.941 10.304C112.411 9.97333 112.976 9.71733 113.637 9.536C114.299 9.35467 114.971 9.264 115.653 9.264C116.965 9.264 117.984 9.57333 118.709 10.192C119.435 10.8107 119.797 11.776 119.797 13.088V18H117.461ZM114.837 18.128C114.165 18.128 113.589 18.016 113.109 17.792C112.629 17.5573 112.261 17.2427 112.005 16.848C111.749 16.4533 111.621 16.0107 111.621 15.52C111.621 15.008 111.744 14.56 111.989 14.176C112.245 13.792 112.645 13.4933 113.189 13.28C113.733 13.056 114.443 12.944 115.317 12.944H117.605V14.4H115.589C115.003 14.4 114.597 14.496 114.373 14.688C114.16 14.88 114.053 15.12 114.053 15.408C114.053 15.728 114.176 15.984 114.421 16.176C114.677 16.3573 115.024 16.448 115.461 16.448C115.877 16.448 116.251 16.352 116.581 16.16C116.912 15.9573 117.152 15.664 117.301 15.28L117.685 16.432C117.504 16.9867 117.173 17.408 116.693 17.696C116.213 17.984 115.595 18.128 114.837 18.128ZM127.649 18V7.76L128.769 8.88H125.409V6.8H130.241V18H127.649ZM136.987 18.192C136.069 18.192 135.248 17.968 134.523 17.52C133.797 17.0613 133.227 16.4 132.811 15.536C132.395 14.672 132.187 13.6267 132.187 12.4C132.187 11.1733 132.395 10.128 132.811 9.264C133.227 8.4 133.797 7.744 134.523 7.296C135.248 6.83733 136.069 6.608 136.987 6.608C137.915 6.608 138.736 6.83733 139.451 7.296C140.176 7.744 140.747 8.4 141.163 9.264C141.579 10.128 141.787 11.1733 141.787 12.4C141.787 13.6267 141.579 14.672 141.163 15.536C140.747 16.4 140.176 17.0613 139.451 17.52C138.736 17.968 137.915 18.192 136.987 18.192ZM136.987 16C137.424 16 137.803 15.8773 138.123 15.632C138.453 15.3867 138.709 14.9973 138.891 14.464C139.083 13.9307 139.179 13.2427 139.179 12.4C139.179 11.5573 139.083 10.8693 138.891 10.336C138.709 9.80267 138.453 9.41333 138.123 9.168C137.803 8.92267 137.424 8.8 136.987 8.8C136.56 8.8 136.181 8.92267 135.851 9.168C135.531 9.41333 135.275 9.80267 135.083 10.336C134.901 10.8693 134.811 11.5573 134.811 12.4C134.811 13.2427 134.901 13.9307 135.083 14.464C135.275 14.9973 135.531 15.3867 135.851 15.632C136.181 15.8773 136.56 16 136.987 16ZM143.301 14.496V12.496H147.829V14.496H143.301ZM148.903 18V16.32L153.223 12.24C153.564 11.9307 153.815 11.6533 153.975 11.408C154.135 11.1627 154.242 10.9387 154.295 10.736C154.359 10.5333 154.391 10.3467 154.391 10.176C154.391 9.728 154.236 9.38667 153.927 9.152C153.628 8.90667 153.186 8.784 152.599 8.784C152.13 8.784 151.692 8.87467 151.287 9.056C150.892 9.23733 150.556 9.52 150.279 9.904L148.391 8.688C148.818 8.048 149.415 7.54133 150.183 7.168C150.951 6.79467 151.836 6.608 152.839 6.608C153.671 6.608 154.396 6.74667 155.015 7.024C155.644 7.29067 156.13 7.66933 156.471 8.16C156.823 8.65067 156.999 9.23733 156.999 9.92C156.999 10.2827 156.951 10.6453 156.855 11.008C156.77 11.36 156.588 11.7333 156.311 12.128C156.044 12.5227 155.65 12.9653 155.127 13.456L151.543 16.832L151.047 15.888H157.367V18H148.903ZM163.237 18.192C162.319 18.192 161.498 17.968 160.773 17.52C160.047 17.0613 159.477 16.4 159.061 15.536C158.645 14.672 158.437 13.6267 158.437 12.4C158.437 11.1733 158.645 10.128 159.061 9.264C159.477 8.4 160.047 7.744 160.773 7.296C161.498 6.83733 162.319 6.608 163.237 6.608C164.165 6.608 164.986 6.83733 165.701 7.296C166.426 7.744 166.997 8.4 167.413 9.264C167.829 10.128 168.037 11.1733 168.037 12.4C168.037 13.6267 167.829 14.672 167.413 15.536C166.997 16.4 166.426 17.0613 165.701 17.52C164.986 17.968 164.165 18.192 163.237 18.192ZM163.237 16C163.674 16 164.053 15.8773 164.373 15.632C164.703 15.3867 164.959 14.9973 165.141 14.464C165.333 13.9307 165.429 13.2427 165.429 12.4C165.429 11.5573 165.333 10.8693 165.141 10.336C164.959 9.80267 164.703 9.41333 164.373 9.168C164.053 8.92267 163.674 8.8 163.237 8.8C162.81 8.8 162.431 8.92267 162.101 9.168C161.781 9.41333 161.525 9.80267 161.333 10.336C161.151 10.8693 161.061 11.5573 161.061 12.4C161.061 13.2427 161.151 13.9307 161.333 14.464C161.525 14.9973 161.781 15.3867 162.101 15.632C162.431 15.8773 162.81 16 163.237 16ZM170.912 18L178.56 6.8H180.464L172.816 18H170.912ZM171.888 12.848C171.344 12.848 170.864 12.7253 170.448 12.48C170.032 12.224 169.701 11.8667 169.456 11.408C169.221 10.9387 169.104 10.3893 169.104 9.76C169.104 9.13067 169.221 8.58667 169.456 8.128C169.701 7.66933 170.032 7.312 170.448 7.056C170.864 6.8 171.344 6.672 171.888 6.672C172.432 6.672 172.912 6.8 173.328 7.056C173.744 7.312 174.069 7.66933 174.304 8.128C174.539 8.58667 174.656 9.13067 174.656 9.76C174.656 10.3893 174.539 10.9387 174.304 11.408C174.069 11.8667 173.744 12.224 173.328 12.48C172.912 12.7253 172.432 12.848 171.888 12.848ZM171.888 11.536C172.24 11.536 172.523 11.392 172.736 11.104C172.949 10.8053 173.056 10.3573 173.056 9.76C173.056 9.16267 172.949 8.72 172.736 8.432C172.523 8.13333 172.24 7.984 171.888 7.984C171.547 7.984 171.264 8.13333 171.04 8.432C170.827 8.72 170.72 9.16267 170.72 9.76C170.72 10.3467 170.827 10.7893 171.04 11.088C171.264 11.3867 171.547 11.536 171.888 11.536ZM179.488 18.128C178.955 18.128 178.475 18.0053 178.048 17.76C177.632 17.504 177.307 17.1467 177.072 16.688C176.837 16.2187 176.72 15.6693 176.72 15.04C176.72 14.4107 176.837 13.8667 177.072 13.408C177.307 12.9493 177.632 12.592 178.048 12.336C178.475 12.08 178.955 11.952 179.488 11.952C180.043 11.952 180.528 12.08 180.944 12.336C181.36 12.592 181.685 12.9493 181.92 13.408C182.155 13.8667 182.272 14.4107 182.272 15.04C182.272 15.6693 182.155 16.2187 181.92 16.688C181.685 17.1467 181.36 17.504 180.944 17.76C180.528 18.0053 180.043 18.128 179.488 18.128ZM179.488 16.816C179.84 16.816 180.123 16.672 180.336 16.384C180.549 16.0853 180.656 15.6373 180.656 15.04C180.656 14.4533 180.549 14.0107 180.336 13.712C180.123 13.4133 179.84 13.264 179.488 13.264C179.147 13.264 178.864 13.4133 178.64 13.712C178.427 14 178.32 14.4427 178.32 15.04C178.32 15.6373 178.427 16.0853 178.64 16.384C178.864 16.672 179.147 16.816 179.488 16.816ZM194.354 16.88V11.44H191.538L191.49 12.544C191.469 13.0027 191.442 13.44 191.41 13.856C191.378 14.272 191.314 14.6507 191.218 14.992C191.133 15.3227 191.005 15.6053 190.834 15.84C190.664 16.064 190.434 16.2187 190.146 16.304L187.682 15.952C187.992 15.952 188.242 15.8613 188.434 15.68C188.626 15.488 188.776 15.2267 188.882 14.896C188.989 14.5547 189.069 14.1707 189.122 13.744C189.176 13.3067 189.213 12.848 189.234 12.368L189.346 9.392H196.85V16.88H194.354ZM187.394 19.856V15.952H198.082V19.856H195.762V18H189.714V19.856H187.394ZM203.861 18.128C202.88 18.128 202.016 17.936 201.269 17.552C200.533 17.168 199.962 16.6453 199.557 15.984C199.152 15.312 198.949 14.5493 198.949 13.696C198.949 12.832 199.146 12.0693 199.541 11.408C199.946 10.736 200.496 10.2133 201.189 9.84C201.882 9.456 202.666 9.264 203.541 9.264C204.384 9.264 205.141 9.44533 205.813 9.808C206.496 10.16 207.034 10.672 207.429 11.344C207.824 12.0053 208.021 12.8 208.021 13.728C208.021 13.824 208.016 13.936 208.005 14.064C207.994 14.1813 207.984 14.2933 207.973 14.4H200.981V12.944H206.661L205.701 13.376C205.701 12.928 205.61 12.5387 205.429 12.208C205.248 11.8773 204.997 11.6213 204.677 11.44C204.357 11.248 203.984 11.152 203.557 11.152C203.13 11.152 202.752 11.248 202.421 11.44C202.101 11.6213 201.85 11.8827 201.669 12.224C201.488 12.5547 201.397 12.9493 201.397 13.408V13.792C201.397 14.2613 201.498 14.6773 201.701 15.04C201.914 15.392 202.208 15.664 202.581 15.856C202.965 16.0373 203.413 16.128 203.925 16.128C204.384 16.128 204.784 16.0587 205.125 15.92C205.477 15.7813 205.797 15.5733 206.085 15.296L207.413 16.736C207.018 17.184 206.522 17.5307 205.925 17.776C205.328 18.0107 204.64 18.128 203.861 18.128ZM215.806 15.952L215.262 16.528V9.392H217.758V16.528L217.182 15.952H221.15L220.59 16.528V9.392H223.07V18H209.934V9.392H212.414V16.528L211.854 15.952H215.806ZM229.674 18.128C228.692 18.128 227.828 17.936 227.082 17.552C226.346 17.168 225.775 16.6453 225.37 15.984C224.964 15.312 224.762 14.5493 224.762 13.696C224.762 12.832 224.959 12.0693 225.354 11.408C225.759 10.736 226.308 10.2133 227.002 9.84C227.695 9.456 228.479 9.264 229.354 9.264C230.196 9.264 230.954 9.44533 231.626 9.808C232.308 10.16 232.847 10.672 233.242 11.344C233.636 12.0053 233.834 12.8 233.834 13.728C233.834 13.824 233.828 13.936 233.818 14.064C233.807 14.1813 233.796 14.2933 233.786 14.4H226.794V12.944H232.474L231.514 13.376C231.514 12.928 231.423 12.5387 231.242 12.208C231.06 11.8773 230.81 11.6213 230.49 11.44C230.17 11.248 229.796 11.152 229.37 11.152C228.943 11.152 228.564 11.248 228.234 11.44C227.914 11.6213 227.663 11.8827 227.482 12.224C227.3 12.5547 227.21 12.9493 227.21 13.408V13.792C227.21 14.2613 227.311 14.6773 227.514 15.04C227.727 15.392 228.02 15.664 228.394 15.856C228.778 16.0373 229.226 16.128 229.738 16.128C230.196 16.128 230.596 16.0587 230.938 15.92C231.29 15.7813 231.61 15.5733 231.898 15.296L233.226 16.736C232.831 17.184 232.335 17.5307 231.738 17.776C231.14 18.0107 230.452 18.128 229.674 18.128ZM235.747 18V9.392H240.147C241.224 9.392 242.067 9.58933 242.675 9.984C243.283 10.368 243.587 10.912 243.587 11.616C243.587 12.32 243.299 12.8747 242.723 13.28C242.158 13.6747 241.406 13.872 240.467 13.872L240.723 13.296C241.768 13.296 242.547 13.488 243.059 13.872C243.582 14.256 243.843 14.816 243.843 15.552C243.843 16.3093 243.555 16.9067 242.979 17.344C242.403 17.7813 241.523 18 240.339 18H235.747ZM238.035 16.304H240.131C240.59 16.304 240.931 16.2293 241.155 16.08C241.39 15.92 241.507 15.68 241.507 15.36C241.507 15.0293 241.4 14.7893 241.187 14.64C240.974 14.48 240.638 14.4 240.179 14.4H238.035V16.304ZM238.035 12.928H239.923C240.36 12.928 240.686 12.848 240.899 12.688C241.123 12.528 241.235 12.2987 241.235 12C241.235 11.6907 241.123 11.4613 240.899 11.312C240.686 11.1627 240.36 11.088 239.923 11.088H238.035V12.928ZM244.612 17.984L244.74 15.936C244.804 15.9467 244.868 15.9573 244.932 15.968C244.996 15.968 245.055 15.968 245.108 15.968C245.407 15.968 245.641 15.8827 245.812 15.712C245.983 15.5413 246.111 15.312 246.196 15.024C246.281 14.7253 246.34 14.3893 246.372 14.016C246.415 13.6427 246.447 13.2533 246.468 12.848L246.596 9.392H253.956V18H251.46V10.832L252.02 11.44H248.244L248.772 10.8L248.66 12.96C248.628 13.728 248.564 14.432 248.468 15.072C248.383 15.712 248.239 16.2667 248.036 16.736C247.833 17.1947 247.561 17.552 247.22 17.808C246.879 18.0533 246.441 18.176 245.908 18.176C245.716 18.176 245.513 18.16 245.3 18.128C245.087 18.096 244.857 18.048 244.612 17.984ZM260.564 18.128C259.583 18.128 258.719 17.936 257.972 17.552C257.236 17.168 256.666 16.6453 256.26 15.984C255.855 15.312 255.652 14.5493 255.652 13.696C255.652 12.832 255.85 12.0693 256.244 11.408C256.65 10.736 257.199 10.2133 257.892 9.84C258.586 9.456 259.37 9.264 260.244 9.264C261.087 9.264 261.844 9.44533 262.516 9.808C263.199 10.16 263.738 10.672 264.132 11.344C264.527 12.0053 264.724 12.8 264.724 13.728C264.724 13.824 264.719 13.936 264.708 14.064C264.698 14.1813 264.687 14.2933 264.676 14.4H257.684V12.944H263.364L262.404 13.376C262.404 12.928 262.314 12.5387 262.132 12.208C261.951 11.8773 261.7 11.6213 261.38 11.44C261.06 11.248 260.687 11.152 260.26 11.152C259.834 11.152 259.455 11.248 259.124 11.44C258.804 11.6213 258.554 11.8827 258.372 12.224C258.191 12.5547 258.1 12.9493 258.1 13.408V13.792C258.1 14.2613 258.202 14.6773 258.404 15.04C258.618 15.392 258.911 15.664 259.284 15.856C259.668 16.0373 260.116 16.128 260.628 16.128C261.087 16.128 261.487 16.0587 261.828 15.92C262.18 15.7813 262.5 15.5733 262.788 15.296L264.116 16.736C263.722 17.184 263.226 17.5307 262.628 17.776C262.031 18.0107 261.343 18.128 260.564 18.128Z" fill="#28CB47"/>
<path d="M1.416 72V63.6H7.56V64.356H2.292V67.104H5.04C6.032 67.104 6.784 67.308 7.296 67.716C7.816 68.116 8.076 68.708 8.076 69.492C8.076 70.3 7.796 70.92 7.236 71.352C6.684 71.784 5.888 72 4.848 72H1.416ZM2.292 71.292H4.836C5.612 71.292 6.196 71.144 6.588 70.848C6.988 70.544 7.188 70.104 7.188 69.528C7.188 68.384 6.404 67.812 4.836 67.812H2.292V71.292ZM12.619 72.06C11.963 72.06 11.387 71.924 10.891 71.652C10.395 71.372 10.007 70.992 9.72703 70.512C9.44703 70.024 9.30703 69.468 9.30703 68.844C9.30703 68.22 9.43903 67.668 9.70303 67.188C9.97503 66.708 10.343 66.332 10.807 66.06C11.279 65.78 11.807 65.64 12.391 65.64C12.983 65.64 13.507 65.776 13.963 66.048C14.427 66.312 14.791 66.688 15.055 67.176C15.319 67.656 15.451 68.212 15.451 68.844C15.451 68.884 15.447 68.928 15.439 68.976C15.439 69.016 15.439 69.06 15.439 69.108H9.95503V68.472H14.983L14.647 68.724C14.647 68.268 14.547 67.864 14.347 67.512C14.155 67.152 13.891 66.872 13.555 66.672C13.219 66.472 12.831 66.372 12.391 66.372C11.959 66.372 11.571 66.472 11.227 66.672C10.883 66.872 10.615 67.152 10.423 67.512C10.231 67.872 10.135 68.284 10.135 68.748V68.88C10.135 69.36 10.239 69.784 10.447 70.152C10.663 70.512 10.959 70.796 11.335 71.004C11.719 71.204 12.155 71.304 12.643 71.304C13.027 71.304 13.383 71.236 13.711 71.1C14.047 70.964 14.335 70.756 14.575 70.476L15.055 71.028C14.775 71.364 14.423 71.62 13.999 71.796C13.583 71.972 13.123 72.06 12.619 72.06ZM18.8532 72.072C18.3972 72.072 17.9452 72.008 17.4972 71.88C17.0492 71.752 16.6532 71.556 16.3092 71.292L16.5852 70.656C16.8892 70.88 17.2412 71.052 17.6412 71.172C18.0412 71.284 18.4372 71.34 18.8292 71.34C19.2212 71.332 19.5612 71.276 19.8492 71.172C20.1372 71.068 20.3612 70.924 20.5212 70.74C20.6812 70.556 20.7612 70.348 20.7612 70.116C20.7612 69.78 20.6092 69.52 20.3052 69.336C20.0012 69.144 19.5852 69.048 19.0572 69.048H17.9772V68.424H18.9972C19.3092 68.424 19.5852 68.384 19.8252 68.304C20.0652 68.224 20.2492 68.108 20.3772 67.956C20.5132 67.804 20.5812 67.624 20.5812 67.416C20.5812 67.192 20.5012 67 20.3412 66.84C20.1892 66.68 19.9772 66.56 19.7052 66.48C19.4332 66.4 19.1252 66.36 18.7812 66.36C18.4692 66.368 18.1452 66.416 17.8092 66.504C17.4732 66.584 17.1412 66.708 16.8132 66.876L16.5732 66.216C16.9412 66.024 17.3052 65.88 17.6652 65.784C18.0332 65.68 18.4012 65.628 18.7692 65.628C19.2732 65.612 19.7252 65.672 20.1252 65.808C20.5332 65.944 20.8572 66.14 21.0972 66.396C21.3372 66.644 21.4572 66.944 21.4572 67.296C21.4572 67.608 21.3612 67.88 21.1692 68.112C20.9772 68.344 20.7212 68.524 20.4012 68.652C20.0812 68.78 19.7172 68.844 19.3092 68.844L19.3452 68.616C20.0652 68.616 20.6252 68.756 21.0252 69.036C21.4332 69.316 21.6372 69.696 21.6372 70.176C21.6372 70.552 21.5132 70.884 21.2652 71.172C21.0172 71.452 20.6812 71.672 20.2572 71.832C19.8412 71.992 19.3732 72.072 18.8532 72.072ZM26.712 72V65.7H27.564V68.484H31.536V65.7H32.388V72H31.536V69.216H27.564V72H26.712ZM38.7217 72V70.608L38.6857 70.38V68.052C38.6857 67.516 38.5337 67.104 38.2297 66.816C37.9337 66.528 37.4897 66.384 36.8977 66.384C36.4897 66.384 36.1017 66.452 35.7337 66.588C35.3657 66.724 35.0537 66.904 34.7977 67.128L34.4137 66.492C34.7337 66.22 35.1177 66.012 35.5657 65.868C36.0137 65.716 36.4857 65.64 36.9817 65.64C37.7977 65.64 38.4257 65.844 38.8657 66.252C39.3137 66.652 39.5377 67.264 39.5377 68.088V72H38.7217ZM36.5497 72.06C36.0777 72.06 35.6657 71.984 35.3137 71.832C34.9697 71.672 34.7057 71.456 34.5217 71.184C34.3377 70.904 34.2457 70.584 34.2457 70.224C34.2457 69.896 34.3217 69.6 34.4737 69.336C34.6337 69.064 34.8897 68.848 35.2417 68.688C35.6017 68.52 36.0817 68.436 36.6817 68.436H38.8537V69.072H36.7057C36.0977 69.072 35.6737 69.18 35.4337 69.396C35.2017 69.612 35.0857 69.88 35.0857 70.2C35.0857 70.56 35.2257 70.848 35.5057 71.064C35.7857 71.28 36.1777 71.388 36.6817 71.388C37.1617 71.388 37.5737 71.28 37.9177 71.064C38.2697 70.84 38.5257 70.52 38.6857 70.104L38.8777 70.692C38.7177 71.108 38.4377 71.44 38.0377 71.688C37.6457 71.936 37.1497 72.06 36.5497 72.06ZM41.8058 72V65.7H42.6578V71.256H46.5098V65.7H47.3618V72H41.8058ZM47.5778 73.524V71.928L47.7938 72H46.5098V71.256H48.3818V73.524H47.5778ZM52.7089 72.06C52.0529 72.06 51.4769 71.924 50.9809 71.652C50.4849 71.372 50.0969 70.992 49.8169 70.512C49.5369 70.024 49.3969 69.468 49.3969 68.844C49.3969 68.22 49.5289 67.668 49.7929 67.188C50.0649 66.708 50.4329 66.332 50.8969 66.06C51.3689 65.78 51.8969 65.64 52.4809 65.64C53.0729 65.64 53.5969 65.776 54.0529 66.048C54.5169 66.312 54.8809 66.688 55.1449 67.176C55.4089 67.656 55.5409 68.212 55.5409 68.844C55.5409 68.884 55.5369 68.928 55.5289 68.976C55.5289 69.016 55.5289 69.06 55.5289 69.108H50.0449V68.472H55.0729L54.7369 68.724C54.7369 68.268 54.6369 67.864 54.4369 67.512C54.2449 67.152 53.9809 66.872 53.6449 66.672C53.3089 66.472 52.9209 66.372 52.4809 66.372C52.0489 66.372 51.6609 66.472 51.3169 66.672C50.9729 66.872 50.7049 67.152 50.5129 67.512C50.3209 67.872 50.2249 68.284 50.2249 68.748V68.88C50.2249 69.36 50.3289 69.784 50.5369 70.152C50.7529 70.512 51.0489 70.796 51.4249 71.004C51.8089 71.204 52.2449 71.304 52.7329 71.304C53.1169 71.304 53.4729 71.236 53.8009 71.1C54.1369 70.964 54.4249 70.756 54.6649 70.476L55.1449 71.028C54.8649 71.364 54.5129 71.62 54.0889 71.796C53.6729 71.972 53.2129 72.06 52.7089 72.06ZM57.4268 72V65.7H58.2788V68.484H62.2508V65.7H63.1028V72H62.2508V69.216H58.2788V72H57.4268ZM70.1445 72L67.5525 68.88L68.2605 68.46L71.1525 72H70.1445ZM65.5245 72V65.7H66.3765V72H65.5245ZM66.1125 69.192V68.46H68.1405V69.192H66.1125ZM68.3325 68.94L67.5405 68.82L70.0485 65.7H70.9725L68.3325 68.94ZM72.4972 72V65.7H73.3492V70.704L77.5612 65.7H78.3172V72H77.4652V66.984L73.2652 72H72.4972ZM83.8995 72V65.7H89.5635V72H88.7115V66.216L88.9275 66.444H84.5355L84.7515 66.216V72H83.8995ZM94.5774 72.06C93.9694 72.06 93.4214 71.924 92.9334 71.652C92.4534 71.372 92.0734 70.992 91.7934 70.512C91.5134 70.024 91.3734 69.468 91.3734 68.844C91.3734 68.212 91.5134 67.656 91.7934 67.176C92.0734 66.696 92.4534 66.32 92.9334 66.048C93.4134 65.776 93.9614 65.64 94.5774 65.64C95.2014 65.64 95.7534 65.776 96.2334 66.048C96.7214 66.32 97.1014 66.696 97.3734 67.176C97.6534 67.656 97.7934 68.212 97.7934 68.844C97.7934 69.468 97.6534 70.024 97.3734 70.512C97.1014 70.992 96.7214 71.372 96.2334 71.652C95.7454 71.924 95.1934 72.06 94.5774 72.06ZM94.5774 71.304C95.0334 71.304 95.4374 71.204 95.7894 71.004C96.1414 70.796 96.4174 70.508 96.6174 70.14C96.8254 69.764 96.9294 69.332 96.9294 68.844C96.9294 68.348 96.8254 67.916 96.6174 67.548C96.4174 67.18 96.1414 66.896 95.7894 66.696C95.4374 66.488 95.0374 66.384 94.5894 66.384C94.1414 66.384 93.7414 66.488 93.3894 66.696C93.0374 66.896 92.7574 67.18 92.5494 67.548C92.3414 67.916 92.2374 68.348 92.2374 68.844C92.2374 69.332 92.3414 69.764 92.5494 70.14C92.7574 70.508 93.0374 70.796 93.3894 71.004C93.7414 71.204 94.1374 71.304 94.5774 71.304ZM102.254 72.06C101.63 72.06 101.07 71.924 100.574 71.652C100.086 71.372 99.7023 70.992 99.4223 70.512C99.1423 70.024 99.0023 69.468 99.0023 68.844C99.0023 68.212 99.1423 67.656 99.4223 67.176C99.7023 66.696 100.086 66.32 100.574 66.048C101.07 65.776 101.63 65.64 102.254 65.64C102.79 65.64 103.274 65.744 103.706 65.952C104.138 66.16 104.478 66.472 104.726 66.888L104.09 67.32C103.874 67 103.606 66.764 103.286 66.612C102.966 66.46 102.618 66.384 102.242 66.384C101.794 66.384 101.39 66.488 101.03 66.696C100.67 66.896 100.386 67.18 100.178 67.548C99.9703 67.916 99.8663 68.348 99.8663 68.844C99.8663 69.34 99.9703 69.772 100.178 70.14C100.386 70.508 100.67 70.796 101.03 71.004C101.39 71.204 101.794 71.304 102.242 71.304C102.618 71.304 102.966 71.228 103.286 71.076C103.606 70.924 103.874 70.692 104.09 70.38L104.726 70.812C104.478 71.22 104.138 71.532 103.706 71.748C103.274 71.956 102.79 72.06 102.254 72.06ZM109.628 72.06C109.084 72.06 108.592 71.936 108.152 71.688C107.712 71.432 107.36 71.068 107.096 70.596C106.84 70.116 106.712 69.532 106.712 68.844C106.712 68.156 106.84 67.576 107.096 67.104C107.352 66.624 107.7 66.26 108.14 66.012C108.58 65.764 109.076 65.64 109.628 65.64C110.228 65.64 110.764 65.776 111.236 66.048C111.716 66.312 112.092 66.688 112.364 67.176C112.636 67.656 112.772 68.212 112.772 68.844C112.772 69.484 112.636 70.044 112.364 70.524C112.092 71.004 111.716 71.38 111.236 71.652C110.764 71.924 110.228 72.06 109.628 72.06ZM106.376 74.328V65.7H107.192V67.596L107.108 68.856L107.228 70.128V74.328H106.376ZM109.568 71.304C110.016 71.304 110.416 71.204 110.768 71.004C111.12 70.796 111.4 70.508 111.608 70.14C111.816 69.764 111.92 69.332 111.92 68.844C111.92 68.356 111.816 67.928 111.608 67.56C111.4 67.192 111.12 66.904 110.768 66.696C110.416 66.488 110.016 66.384 109.568 66.384C109.12 66.384 108.716 66.488 108.356 66.696C108.004 66.904 107.724 67.192 107.516 67.56C107.316 67.928 107.216 68.356 107.216 68.844C107.216 69.332 107.316 69.764 107.516 70.14C107.724 70.508 108.004 70.796 108.356 71.004C108.716 71.204 109.12 71.304 109.568 71.304ZM117.303 72.06C116.647 72.06 116.071 71.924 115.575 71.652C115.079 71.372 114.691 70.992 114.411 70.512C114.131 70.024 113.991 69.468 113.991 68.844C113.991 68.22 114.123 67.668 114.387 67.188C114.659 66.708 115.027 66.332 115.491 66.06C115.963 65.78 116.491 65.64 117.075 65.64C117.667 65.64 118.191 65.776 118.647 66.048C119.111 66.312 119.475 66.688 119.739 67.176C120.003 67.656 120.135 68.212 120.135 68.844C120.135 68.884 120.131 68.928 120.123 68.976C120.123 69.016 120.123 69.06 120.123 69.108H114.639V68.472H119.667L119.331 68.724C119.331 68.268 119.231 67.864 119.031 67.512C118.839 67.152 118.575 66.872 118.239 66.672C117.903 66.472 117.515 66.372 117.075 66.372C116.643 66.372 116.255 66.472 115.911 66.672C115.567 66.872 115.299 67.152 115.107 67.512C114.915 67.872 114.819 68.284 114.819 68.748V68.88C114.819 69.36 114.923 69.784 115.131 70.152C115.347 70.512 115.643 70.796 116.019 71.004C116.403 71.204 116.839 71.304 117.327 71.304C117.711 71.304 118.067 71.236 118.395 71.1C118.731 70.964 119.019 70.756 119.259 70.476L119.739 71.028C119.459 71.364 119.107 71.62 118.683 71.796C118.267 71.972 117.807 72.06 117.303 72.06ZM126.212 71.592V66.444H123.176L123.104 67.848C123.088 68.272 123.06 68.688 123.02 69.096C122.988 69.504 122.928 69.88 122.84 70.224C122.76 70.56 122.644 70.836 122.492 71.052C122.34 71.26 122.144 71.38 121.904 71.412L121.052 71.256C121.3 71.264 121.504 71.176 121.664 70.992C121.824 70.8 121.948 70.54 122.036 70.212C122.124 69.884 122.188 69.512 122.228 69.096C122.268 68.672 122.3 68.24 122.324 67.8L122.408 65.7H127.064V71.592H126.212ZM120.788 73.524V71.256H128.048V73.524H127.244V72H121.592V73.524H120.788ZM129.708 72V65.7H130.56V68.484H134.532V65.7H135.384V72H134.532V69.216H130.56V72H129.708ZM137.806 72V65.7H138.658V70.704L142.87 65.7H143.626V72H142.774V66.984L138.574 72H137.806ZM150.687 72L148.095 68.88L148.803 68.46L151.695 72H150.687ZM146.067 72V65.7H146.919V72H146.067ZM146.655 69.192V68.46H148.683V69.192H146.655ZM148.875 68.94L148.083 68.82L150.591 65.7H151.515L148.875 68.94ZM155.409 72.06C154.801 72.06 154.253 71.924 153.765 71.652C153.285 71.372 152.905 70.992 152.625 70.512C152.345 70.024 152.205 69.468 152.205 68.844C152.205 68.212 152.345 67.656 152.625 67.176C152.905 66.696 153.285 66.32 153.765 66.048C154.245 65.776 154.793 65.64 155.409 65.64C156.033 65.64 156.585 65.776 157.065 66.048C157.553 66.32 157.933 66.696 158.205 67.176C158.485 67.656 158.625 68.212 158.625 68.844C158.625 69.468 158.485 70.024 158.205 70.512C157.933 70.992 157.553 71.372 157.065 71.652C156.577 71.924 156.025 72.06 155.409 72.06ZM155.409 71.304C155.865 71.304 156.269 71.204 156.621 71.004C156.973 70.796 157.249 70.508 157.449 70.14C157.657 69.764 157.761 69.332 157.761 68.844C157.761 68.348 157.657 67.916 157.449 67.548C157.249 67.18 156.973 66.896 156.621 66.696C156.269 66.488 155.869 66.384 155.421 66.384C154.973 66.384 154.573 66.488 154.221 66.696C153.869 66.896 153.589 67.18 153.381 67.548C153.173 67.916 153.069 68.348 153.069 68.844C153.069 69.332 153.173 69.764 153.381 70.14C153.589 70.508 153.869 70.796 154.221 71.004C154.573 71.204 154.969 71.304 155.409 71.304ZM160.446 72V65.7H163.23C163.942 65.7 164.502 65.836 164.91 66.108C165.326 66.38 165.534 66.78 165.534 67.308C165.534 67.82 165.338 68.216 164.946 68.496C164.554 68.768 164.038 68.904 163.398 68.904L163.566 68.652C164.318 68.652 164.87 68.792 165.222 69.072C165.574 69.352 165.75 69.756 165.75 70.284C165.75 70.828 165.55 71.252 165.15 71.556C164.758 71.852 164.146 72 163.314 72H160.446ZM161.274 71.328H163.278C163.814 71.328 164.218 71.244 164.49 71.076C164.77 70.9 164.91 70.62 164.91 70.236C164.91 69.852 164.786 69.572 164.538 69.396C164.29 69.22 163.898 69.132 163.362 69.132H161.274V71.328ZM161.274 68.496H163.17C163.658 68.496 164.03 68.404 164.286 68.22C164.55 68.036 164.682 67.768 164.682 67.416C164.682 67.064 164.55 66.8 164.286 66.624C164.03 66.448 163.658 66.36 163.17 66.36H161.274V68.496ZM170.888 72V65.7H171.74V70.704L175.952 65.7H176.708V72H175.856V66.984L171.656 72H170.888ZM186.202 72V70.608L186.166 70.38V68.052C186.166 67.516 186.014 67.104 185.71 66.816C185.414 66.528 184.97 66.384 184.378 66.384C183.97 66.384 183.582 66.452 183.214 66.588C182.846 66.724 182.534 66.904 182.278 67.128L181.894 66.492C182.214 66.22 182.598 66.012 183.046 65.868C183.494 65.716 183.966 65.64 184.462 65.64C185.278 65.64 185.906 65.844 186.346 66.252C186.794 66.652 187.018 67.264 187.018 68.088V72H186.202ZM184.03 72.06C183.558 72.06 183.146 71.984 182.794 71.832C182.45 71.672 182.186 71.456 182.002 71.184C181.818 70.904 181.726 70.584 181.726 70.224C181.726 69.896 181.802 69.6 181.954 69.336C182.114 69.064 182.37 68.848 182.722 68.688C183.082 68.52 183.562 68.436 184.162 68.436H186.334V69.072H184.186C183.578 69.072 183.154 69.18 182.914 69.396C182.682 69.612 182.566 69.88 182.566 70.2C182.566 70.56 182.706 70.848 182.986 71.064C183.266 71.28 183.658 71.388 184.162 71.388C184.642 71.388 185.054 71.28 185.398 71.064C185.75 70.84 186.006 70.52 186.166 70.104L186.358 70.692C186.198 71.108 185.918 71.44 185.518 71.688C185.126 71.936 184.63 72.06 184.03 72.06ZM189.286 72V65.7H193.75V66.444H189.922L190.138 66.228V72H189.286ZM197.389 72.06C196.733 72.06 196.157 71.924 195.661 71.652C195.165 71.372 194.777 70.992 194.497 70.512C194.217 70.024 194.077 69.468 194.077 68.844C194.077 68.22 194.209 67.668 194.473 67.188C194.745 66.708 195.113 66.332 195.577 66.06C196.049 65.78 196.577 65.64 197.161 65.64C197.753 65.64 198.277 65.776 198.733 66.048C199.197 66.312 199.561 66.688 199.825 67.176C200.089 67.656 200.221 68.212 200.221 68.844C200.221 68.884 200.217 68.928 200.209 68.976C200.209 69.016 200.209 69.06 200.209 69.108H194.725V68.472H199.753L199.417 68.724C199.417 68.268 199.317 67.864 199.117 67.512C198.925 67.152 198.661 66.872 198.325 66.672C197.989 66.472 197.601 66.372 197.161 66.372C196.729 66.372 196.341 66.472 195.997 66.672C195.653 66.872 195.385 67.152 195.193 67.512C195.001 67.872 194.905 68.284 194.905 68.748V68.88C194.905 69.36 195.009 69.784 195.217 70.152C195.433 70.512 195.729 70.796 196.105 71.004C196.489 71.204 196.925 71.304 197.413 71.304C197.797 71.304 198.153 71.236 198.481 71.1C198.817 70.964 199.105 70.756 199.345 70.476L199.825 71.028C199.545 71.364 199.193 71.62 198.769 71.796C198.353 71.972 197.893 72.06 197.389 72.06ZM202.107 72V65.7H202.959V68.484H206.931V65.7H207.783V72H206.931V69.216H202.959V72H202.107ZM211.404 72V66.216L211.62 66.444H209.016V65.7H214.644V66.444H212.04L212.256 66.216V72H211.404ZM218.223 72.06C217.599 72.06 217.039 71.924 216.543 71.652C216.055 71.372 215.671 70.992 215.391 70.512C215.111 70.024 214.971 69.468 214.971 68.844C214.971 68.212 215.111 67.656 215.391 67.176C215.671 66.696 216.055 66.32 216.543 66.048C217.039 65.776 217.599 65.64 218.223 65.64C218.759 65.64 219.243 65.744 219.675 65.952C220.107 66.16 220.447 66.472 220.695 66.888L220.059 67.32C219.843 67 219.575 66.764 219.255 66.612C218.935 66.46 218.587 66.384 218.211 66.384C217.763 66.384 217.359 66.488 216.999 66.696C216.639 66.896 216.355 67.18 216.147 67.548C215.939 67.916 215.835 68.348 215.835 68.844C215.835 69.34 215.939 69.772 216.147 70.14C216.355 70.508 216.639 70.796 216.999 71.004C217.359 71.204 217.763 71.304 218.211 71.304C218.587 71.304 218.935 71.228 219.255 71.076C219.575 70.924 219.843 70.692 220.059 70.38L220.695 70.812C220.447 71.22 220.107 71.532 219.675 71.748C219.243 71.956 218.759 72.06 218.223 72.06ZM223.428 72V66.216L223.644 66.444H221.04V65.7H226.668V66.444H224.064L224.28 66.216V72H223.428ZM232.52 72L229.928 68.88L230.636 68.46L233.528 72H232.52ZM227.9 72V65.7H228.752V72H227.9ZM228.488 69.192V68.46H230.516V69.192H228.488ZM230.708 68.94L229.916 68.82L232.424 65.7H233.348L230.708 68.94ZM237.242 72.06C236.634 72.06 236.086 71.924 235.598 71.652C235.118 71.372 234.738 70.992 234.458 70.512C234.178 70.024 234.038 69.468 234.038 68.844C234.038 68.212 234.178 67.656 234.458 67.176C234.738 66.696 235.118 66.32 235.598 66.048C236.078 65.776 236.626 65.64 237.242 65.64C237.866 65.64 238.418 65.776 238.898 66.048C239.386 66.32 239.766 66.696 240.038 67.176C240.318 67.656 240.458 68.212 240.458 68.844C240.458 69.468 240.318 70.024 240.038 70.512C239.766 70.992 239.386 71.372 238.898 71.652C238.41 71.924 237.858 72.06 237.242 72.06ZM237.242 71.304C237.698 71.304 238.102 71.204 238.454 71.004C238.806 70.796 239.082 70.508 239.282 70.14C239.49 69.764 239.594 69.332 239.594 68.844C239.594 68.348 239.49 67.916 239.282 67.548C239.082 67.18 238.806 66.896 238.454 66.696C238.102 66.488 237.702 66.384 237.254 66.384C236.806 66.384 236.406 66.488 236.054 66.696C235.702 66.896 235.422 67.18 235.214 67.548C235.006 67.916 234.902 68.348 234.902 68.844C234.902 69.332 235.006 69.764 235.214 70.14C235.422 70.508 235.702 70.796 236.054 71.004C236.406 71.204 236.802 71.304 237.242 71.304ZM242.278 72V65.7H243.13V70.704L247.342 65.7H248.098V72H247.246V66.984L243.046 72H242.278ZM245.134 64.788C244.606 64.788 244.178 64.656 243.85 64.392C243.53 64.12 243.362 63.732 243.346 63.228H243.958C243.966 63.548 244.078 63.8 244.294 63.984C244.51 64.168 244.79 64.26 245.134 64.26C245.478 64.26 245.758 64.168 245.974 63.984C246.198 63.8 246.314 63.548 246.322 63.228H246.934C246.926 63.732 246.758 64.12 246.43 64.392C246.102 64.656 245.67 64.788 245.134 64.788ZM5.832 88L3.24 84.88L3.948 84.46L6.84 88H5.832ZM1.212 88V81.7H2.064V88H1.212ZM1.8 85.192V84.46H3.828V85.192H1.8ZM4.02 84.94L3.228 84.82L5.736 81.7H6.66L4.02 84.94ZM10.554 88.06C9.946 88.06 9.398 87.924 8.91 87.652C8.43 87.372 8.05 86.992 7.77 86.512C7.49 86.024 7.35 85.468 7.35 84.844C7.35 84.212 7.49 83.656 7.77 83.176C8.05 82.696 8.43 82.32 8.91 82.048C9.39 81.776 9.938 81.64 10.554 81.64C11.178 81.64 11.73 81.776 12.21 82.048C12.698 82.32 13.078 82.696 13.35 83.176C13.63 83.656 13.77 84.212 13.77 84.844C13.77 85.468 13.63 86.024 13.35 86.512C13.078 86.992 12.698 87.372 12.21 87.652C11.722 87.924 11.17 88.06 10.554 88.06ZM10.554 87.304C11.01 87.304 11.414 87.204 11.766 87.004C12.118 86.796 12.394 86.508 12.594 86.14C12.802 85.764 12.906 85.332 12.906 84.844C12.906 84.348 12.802 83.916 12.594 83.548C12.394 83.18 12.118 82.896 11.766 82.696C11.414 82.488 11.014 82.384 10.566 82.384C10.118 82.384 9.718 82.488 9.366 82.696C9.014 82.896 8.734 83.18 8.526 83.548C8.318 83.916 8.214 84.348 8.214 84.844C8.214 85.332 8.318 85.764 8.526 86.14C8.734 86.508 9.014 86.796 9.366 87.004C9.718 87.204 10.114 87.304 10.554 87.304ZM15.5909 88V81.7H16.4549L19.3109 86.536H18.9509L21.8549 81.7H22.6469V88H21.8669V82.672L22.0229 82.744L19.3109 87.232H18.9269L16.1909 82.696L16.3709 82.66V88H15.5909ZM25.0714 88V81.7H25.9234V86.704L30.1354 81.7H30.8914V88H30.0394V82.984L25.8394 88H25.0714ZM35.9731 88.06C35.3491 88.06 34.7891 87.924 34.2931 87.652C33.8051 87.372 33.4211 86.992 33.1411 86.512C32.8611 86.024 32.7211 85.468 32.7211 84.844C32.7211 84.212 32.8611 83.656 33.1411 83.176C33.4211 82.696 33.8051 82.32 34.2931 82.048C34.7891 81.776 35.3491 81.64 35.9731 81.64C36.5091 81.64 36.9931 81.744 37.4251 81.952C37.8571 82.16 38.1971 82.472 38.4451 82.888L37.8091 83.32C37.5931 83 37.3251 82.764 37.0051 82.612C36.6851 82.46 36.3371 82.384 35.9611 82.384C35.5131 82.384 35.1091 82.488 34.7491 82.696C34.3891 82.896 34.1051 83.18 33.8971 83.548C33.6891 83.916 33.5851 84.348 33.5851 84.844C33.5851 85.34 33.6891 85.772 33.8971 86.14C34.1051 86.508 34.3891 86.796 34.7491 87.004C35.1091 87.204 35.5131 87.304 35.9611 87.304C36.3371 87.304 36.6851 87.228 37.0051 87.076C37.3251 86.924 37.5931 86.692 37.8091 86.38L38.4451 86.812C38.1971 87.22 37.8571 87.532 37.4251 87.748C36.9931 87.956 36.5091 88.06 35.9731 88.06ZM42.6293 88.06C42.0053 88.06 41.4453 87.924 40.9493 87.652C40.4613 87.372 40.0773 86.992 39.7973 86.512C39.5173 86.024 39.3773 85.468 39.3773 84.844C39.3773 84.212 39.5173 83.656 39.7973 83.176C40.0773 82.696 40.4613 82.32 40.9493 82.048C41.4453 81.776 42.0053 81.64 42.6293 81.64C43.1653 81.64 43.6493 81.744 44.0813 81.952C44.5133 82.16 44.8533 82.472 45.1013 82.888L44.4653 83.32C44.2493 83 43.9813 82.764 43.6613 82.612C43.3413 82.46 42.9933 82.384 42.6173 82.384C42.1693 82.384 41.7653 82.488 41.4053 82.696C41.0453 82.896 40.7613 83.18 40.5533 83.548C40.3453 83.916 40.2413 84.348 40.2413 84.844C40.2413 85.34 40.3453 85.772 40.5533 86.14C40.7613 86.508 41.0453 86.796 41.4053 87.004C41.7653 87.204 42.1693 87.304 42.6173 87.304C42.9933 87.304 43.3413 87.228 43.6613 87.076C43.9813 86.924 44.2493 86.692 44.4653 86.38L45.1013 86.812C44.8533 87.22 44.5133 87.532 44.0813 87.748C43.6493 87.956 43.1653 88.06 42.6293 88.06ZM46.7511 88V81.7H47.6031V86.704L51.8151 81.7H52.5711V88H51.7191V82.984L47.5191 88H46.7511ZM58.1534 88V81.7H59.0174L61.8734 86.536H61.5134L64.4174 81.7H65.2094V88H64.4294V82.672L64.5854 82.744L61.8734 87.232H61.4894L58.7534 82.696L58.9334 82.66V88H58.1534ZM71.5459 88V86.608L71.5099 86.38V84.052C71.5099 83.516 71.3579 83.104 71.0539 82.816C70.7579 82.528 70.3139 82.384 69.7219 82.384C69.3139 82.384 68.9259 82.452 68.5579 82.588C68.1899 82.724 67.8779 82.904 67.6219 83.128L67.2379 82.492C67.5579 82.22 67.9419 82.012 68.3899 81.868C68.8379 81.716 69.3099 81.64 69.8059 81.64C70.6219 81.64 71.2499 81.844 71.6899 82.252C72.1379 82.652 72.3619 83.264 72.3619 84.088V88H71.5459ZM69.3739 88.06C68.9019 88.06 68.4899 87.984 68.1379 87.832C67.7939 87.672 67.5299 87.456 67.3459 87.184C67.1619 86.904 67.0699 86.584 67.0699 86.224C67.0699 85.896 67.1459 85.6 67.2979 85.336C67.4579 85.064 67.7139 84.848 68.0659 84.688C68.4259 84.52 68.9059 84.436 69.5059 84.436H71.6779V85.072H69.5299C68.9219 85.072 68.4979 85.18 68.2579 85.396C68.0259 85.612 67.9099 85.88 67.9099 86.2C67.9099 86.56 68.0499 86.848 68.3299 87.064C68.6099 87.28 69.0019 87.388 69.5059 87.388C69.9859 87.388 70.3979 87.28 70.7419 87.064C71.0939 86.84 71.3499 86.52 71.5099 86.104L71.7019 86.692C71.5419 87.108 71.2619 87.44 70.8619 87.688C70.4699 87.936 69.9739 88.06 69.3739 88.06ZM77.882 88.06C77.338 88.06 76.846 87.936 76.406 87.688C75.966 87.432 75.614 87.068 75.35 86.596C75.094 86.116 74.966 85.532 74.966 84.844C74.966 84.156 75.094 83.576 75.35 83.104C75.606 82.624 75.954 82.26 76.394 82.012C76.834 81.764 77.33 81.64 77.882 81.64C78.482 81.64 79.018 81.776 79.49 82.048C79.97 82.312 80.346 82.688 80.618 83.176C80.89 83.656 81.026 84.212 81.026 84.844C81.026 85.484 80.89 86.044 80.618 86.524C80.346 87.004 79.97 87.38 79.49 87.652C79.018 87.924 78.482 88.06 77.882 88.06ZM74.63 90.328V81.7H75.446V83.596L75.362 84.856L75.482 86.128V90.328H74.63ZM77.822 87.304C78.27 87.304 78.67 87.204 79.022 87.004C79.374 86.796 79.654 86.508 79.862 86.14C80.07 85.764 80.174 85.332 80.174 84.844C80.174 84.356 80.07 83.928 79.862 83.56C79.654 83.192 79.374 82.904 79.022 82.696C78.67 82.488 78.27 82.384 77.822 82.384C77.374 82.384 76.97 82.488 76.61 82.696C76.258 82.904 75.978 83.192 75.77 83.56C75.57 83.928 75.47 84.356 75.47 84.844C75.47 85.332 75.57 85.764 75.77 86.14C75.978 86.508 76.258 86.796 76.61 87.004C76.97 87.204 77.374 87.304 77.822 87.304ZM87.4765 88L84.8845 84.88L85.5925 84.46L88.4845 88H87.4765ZM82.8565 88V81.7H83.7085V88H82.8565ZM83.4445 85.192V84.46H85.4725V85.192H83.4445ZM85.6645 84.94L84.8725 84.82L87.3805 81.7H88.3045L85.6645 84.94ZM92.3065 88.06C91.6505 88.06 91.0745 87.924 90.5785 87.652C90.0825 87.372 89.6945 86.992 89.4145 86.512C89.1345 86.024 88.9945 85.468 88.9945 84.844C88.9945 84.22 89.1265 83.668 89.3905 83.188C89.6625 82.708 90.0305 82.332 90.4945 82.06C90.9665 81.78 91.4945 81.64 92.0785 81.64C92.6705 81.64 93.1945 81.776 93.6505 82.048C94.1145 82.312 94.4785 82.688 94.7425 83.176C95.0065 83.656 95.1385 84.212 95.1385 84.844C95.1385 84.884 95.1345 84.928 95.1265 84.976C95.1265 85.016 95.1265 85.06 95.1265 85.108H89.6425V84.472H94.6705L94.3345 84.724C94.3345 84.268 94.2345 83.864 94.0345 83.512C93.8425 83.152 93.5785 82.872 93.2425 82.672C92.9065 82.472 92.5185 82.372 92.0785 82.372C91.6465 82.372 91.2585 82.472 90.9145 82.672C90.5705 82.872 90.3025 83.152 90.1105 83.512C89.9185 83.872 89.8225 84.284 89.8225 84.748V84.88C89.8225 85.36 89.9265 85.784 90.1345 86.152C90.3505 86.512 90.6465 86.796 91.0225 87.004C91.4065 87.204 91.8425 87.304 92.3305 87.304C92.7145 87.304 93.0705 87.236 93.3985 87.1C93.7345 86.964 94.0225 86.756 94.2625 86.476L94.7425 87.028C94.4625 87.364 94.1105 87.62 93.6865 87.796C93.2705 87.972 92.8105 88.06 92.3065 88.06ZM97.9433 88V82.216L98.1593 82.444H95.5553V81.7H101.183V82.444H98.5793L98.7953 82.216V88H97.9433ZM102.415 88V81.7H108.079V88H107.227V82.216L107.443 82.444H103.051L103.267 82.216V88H102.415ZM109.349 87.988L109.409 87.256C109.465 87.264 109.517 87.276 109.565 87.292C109.621 87.3 109.669 87.304 109.709 87.304C109.965 87.304 110.169 87.208 110.321 87.016C110.481 86.824 110.601 86.568 110.681 86.248C110.761 85.928 110.817 85.568 110.849 85.168C110.881 84.76 110.909 84.352 110.933 83.944L111.041 81.7H115.661V88H114.809V82.192L115.025 82.444H111.593L111.797 82.18L111.701 84.004C111.677 84.548 111.633 85.068 111.569 85.564C111.513 86.06 111.421 86.496 111.293 86.872C111.173 87.248 111.005 87.544 110.789 87.76C110.573 87.968 110.297 88.072 109.961 88.072C109.865 88.072 109.765 88.064 109.661 88.048C109.565 88.032 109.461 88.012 109.349 87.988ZM120.783 88.06C120.127 88.06 119.551 87.924 119.055 87.652C118.559 87.372 118.171 86.992 117.891 86.512C117.611 86.024 117.471 85.468 117.471 84.844C117.471 84.22 117.603 83.668 117.867 83.188C118.139 82.708 118.507 82.332 118.971 82.06C119.443 81.78 119.971 81.64 120.555 81.64C121.147 81.64 121.671 81.776 122.127 82.048C122.591 82.312 122.955 82.688 123.219 83.176C123.483 83.656 123.615 84.212 123.615 84.844C123.615 84.884 123.611 84.928 123.603 84.976C123.603 85.016 123.603 85.06 123.603 85.108H118.119V84.472H123.147L122.811 84.724C122.811 84.268 122.711 83.864 122.511 83.512C122.319 83.152 122.055 82.872 121.719 82.672C121.383 82.472 120.995 82.372 120.555 82.372C120.123 82.372 119.735 82.472 119.391 82.672C119.047 82.872 118.779 83.152 118.587 83.512C118.395 83.872 118.299 84.284 118.299 84.748V84.88C118.299 85.36 118.403 85.784 118.611 86.152C118.827 86.512 119.123 86.796 119.499 87.004C119.883 87.204 120.319 87.304 120.807 87.304C121.191 87.304 121.547 87.236 121.875 87.1C122.211 86.964 122.499 86.756 122.739 86.476L123.219 87.028C122.939 87.364 122.587 87.62 122.163 87.796C121.747 87.972 121.287 88.06 120.783 88.06ZM125.501 88V81.7H126.353V86.704L130.565 81.7H131.321V88H130.469V82.984L126.269 88H125.501ZM128.357 80.788C127.829 80.788 127.401 80.656 127.073 80.392C126.753 80.12 126.585 79.732 126.569 79.228H127.181C127.189 79.548 127.301 79.8 127.517 79.984C127.733 80.168 128.013 80.26 128.357 80.26C128.701 80.26 128.981 80.168 129.197 79.984C129.421 79.8 129.537 79.548 129.545 79.228H130.157C130.149 79.732 129.981 80.12 129.653 80.392C129.325 80.656 128.893 80.788 128.357 80.788ZM136.403 88.06C135.779 88.06 135.219 87.924 134.723 87.652C134.235 87.372 133.851 86.992 133.571 86.512C133.291 86.024 133.151 85.468 133.151 84.844C133.151 84.212 133.291 83.656 133.571 83.176C133.851 82.696 134.235 82.32 134.723 82.048C135.219 81.776 135.779 81.64 136.403 81.64C136.939 81.64 137.423 81.744 137.855 81.952C138.287 82.16 138.627 82.472 138.875 82.888L138.239 83.32C138.023 83 137.755 82.764 137.435 82.612C137.115 82.46 136.767 82.384 136.391 82.384C135.943 82.384 135.539 82.488 135.179 82.696C134.819 82.896 134.535 83.18 134.327 83.548C134.119 83.916 134.015 84.348 134.015 84.844C134.015 85.34 134.119 85.772 134.327 86.14C134.535 86.508 134.819 86.796 135.179 87.004C135.539 87.204 135.943 87.304 136.391 87.304C136.767 87.304 137.115 87.228 137.435 87.076C137.755 86.924 138.023 86.692 138.239 86.38L138.875 86.812C138.627 87.22 138.287 87.532 137.855 87.748C137.423 87.956 136.939 88.06 136.403 88.06ZM143.011 88.06C142.403 88.06 141.855 87.924 141.367 87.652C140.887 87.372 140.507 86.992 140.227 86.512C139.947 86.024 139.807 85.468 139.807 84.844C139.807 84.212 139.947 83.656 140.227 83.176C140.507 82.696 140.887 82.32 141.367 82.048C141.847 81.776 142.395 81.64 143.011 81.64C143.635 81.64 144.187 81.776 144.667 82.048C145.155 82.32 145.535 82.696 145.807 83.176C146.087 83.656 146.227 84.212 146.227 84.844C146.227 85.468 146.087 86.024 145.807 86.512C145.535 86.992 145.155 87.372 144.667 87.652C144.179 87.924 143.627 88.06 143.011 88.06ZM143.011 87.304C143.467 87.304 143.871 87.204 144.223 87.004C144.575 86.796 144.851 86.508 145.051 86.14C145.259 85.764 145.363 85.332 145.363 84.844C145.363 84.348 145.259 83.916 145.051 83.548C144.851 83.18 144.575 82.896 144.223 82.696C143.871 82.488 143.471 82.384 143.023 82.384C142.575 82.384 142.175 82.488 141.823 82.696C141.471 82.896 141.191 83.18 140.983 83.548C140.775 83.916 140.671 84.348 140.671 84.844C140.671 85.332 140.775 85.764 140.983 86.14C141.191 86.508 141.471 86.796 141.823 87.004C142.175 87.204 142.571 87.304 143.011 87.304ZM148.048 88V81.7H150.832C151.544 81.7 152.104 81.836 152.512 82.108C152.928 82.38 153.136 82.78 153.136 83.308C153.136 83.82 152.94 84.216 152.548 84.496C152.156 84.768 151.64 84.904 151 84.904L151.168 84.652C151.92 84.652 152.472 84.792 152.824 85.072C153.176 85.352 153.352 85.756 153.352 86.284C153.352 86.828 153.152 87.252 152.752 87.556C152.36 87.852 151.748 88 150.916 88H148.048ZM148.876 87.328H150.88C151.416 87.328 151.82 87.244 152.092 87.076C152.372 86.9 152.512 86.62 152.512 86.236C152.512 85.852 152.388 85.572 152.14 85.396C151.892 85.22 151.5 85.132 150.964 85.132H148.876V87.328ZM148.876 84.496H150.772C151.26 84.496 151.632 84.404 151.888 84.22C152.152 84.036 152.284 83.768 152.284 83.416C152.284 83.064 152.152 82.8 151.888 82.624C151.632 82.448 151.26 82.36 150.772 82.36H148.876V84.496Z" fill="#141414"/>
</svg>
