<svg width="328" height="130" viewBox="0 0 328 130" fill="none" xmlns="http://www.w3.org/2000/svg">
<path d="M0.16 20L6.4 6H9.6L15.86 20H12.46L7.34 7.64H8.62L3.48 20H0.16ZM3.28 17L4.14 14.54H11.34L12.22 17H3.28ZM17.4766 20V9.24H22.9766C24.3232 9.24 25.3766 9.48667 26.1366 9.98C26.8966 10.46 27.2766 11.14 27.2766 12.02C27.2766 12.9 26.9166 13.5933 26.1966 14.1C25.4899 14.5933 24.5499 14.84 23.3766 14.84L23.6966 14.12C25.0032 14.12 25.9766 14.36 26.6166 14.84C27.2699 15.32 27.5966 16.02 27.5966 16.94C27.5966 17.8867 27.2366 18.6333 26.5166 19.18C25.7966 19.7267 24.6966 20 23.2166 20H17.4766ZM20.3366 17.88H22.9566C23.5299 17.88 23.9566 17.7867 24.2366 17.6C24.5299 17.4 24.6766 17.1 24.6766 16.7C24.6766 16.2867 24.5432 15.9867 24.2766 15.8C24.0099 15.6 23.5899 15.5 23.0166 15.5H20.3366V17.88ZM20.3366 13.66H22.6966C23.2432 13.66 23.6499 13.56 23.9166 13.36C24.1966 13.16 24.3366 12.8733 24.3366 12.5C24.3366 12.1133 24.1966 11.8267 23.9166 11.64C23.6499 11.4533 23.2432 11.36 22.6966 11.36H20.3366V13.66ZM32.218 20V11.08L32.918 11.8H28.578V9.24H38.958V11.8H34.618L35.318 11.08V20H32.218ZM45.2119 20.16C44.0652 20.16 43.0452 19.92 42.1519 19.44C41.2719 18.96 40.5719 18.3067 40.0519 17.48C39.5452 16.64 39.2919 15.6867 39.2919 14.62C39.2919 13.54 39.5452 12.5867 40.0519 11.76C40.5719 10.92 41.2719 10.2667 42.1519 9.8C43.0452 9.32 44.0652 9.08 45.2119 9.08C46.3452 9.08 47.3585 9.32 48.2519 9.8C49.1452 10.2667 49.8452 10.9133 50.3519 11.74C50.8585 12.5667 51.1119 13.5267 51.1119 14.62C51.1119 15.6867 50.8585 16.64 50.3519 17.48C49.8452 18.3067 49.1452 18.96 48.2519 19.44C47.3585 19.92 46.3452 20.16 45.2119 20.16ZM45.2119 17.6C45.7319 17.6 46.1985 17.48 46.6119 17.24C47.0252 17 47.3519 16.66 47.5919 16.22C47.8319 15.7667 47.9519 15.2333 47.9519 14.62C47.9519 13.9933 47.8319 13.46 47.5919 13.02C47.3519 12.58 47.0252 12.24 46.6119 12C46.1985 11.76 45.7319 11.64 45.2119 11.64C44.6919 11.64 44.2252 11.76 43.8119 12C43.3985 12.24 43.0652 12.58 42.8119 13.02C42.5719 13.46 42.4519 13.9933 42.4519 14.62C42.4519 15.2333 42.5719 15.7667 42.8119 16.22C43.0652 16.66 43.3985 17 43.8119 17.24C44.2252 17.48 44.6919 17.6 45.2119 17.6ZM60.0378 15.88C59.5978 16.12 59.1111 16.3133 58.5778 16.46C58.0445 16.6067 57.4578 16.68 56.8178 16.68C55.4045 16.68 54.3178 16.36 53.5578 15.72C52.7978 15.0667 52.4178 14.0333 52.4178 12.62V9.24H55.5378V12.42C55.5378 13.0867 55.7111 13.5667 56.0578 13.86C56.4045 14.14 56.8911 14.28 57.5178 14.28C57.9711 14.28 58.4045 14.2267 58.8178 14.12C59.2445 14.0133 59.6511 13.86 60.0378 13.66V15.88ZM59.8178 20V9.24H62.9378V20H59.8178ZM71.1936 20.16C69.9669 20.16 68.8869 19.92 67.9536 19.44C67.0336 18.96 66.3203 18.3067 65.8136 17.48C65.3069 16.64 65.0536 15.6867 65.0536 14.62C65.0536 13.54 65.3003 12.5867 65.7936 11.76C66.3003 10.92 66.9869 10.2667 67.8536 9.8C68.7203 9.32 69.7003 9.08 70.7936 9.08C71.8469 9.08 72.7936 9.30667 73.6336 9.76C74.4869 10.2 75.1603 10.84 75.6536 11.68C76.1469 12.5067 76.3936 13.5 76.3936 14.66C76.3936 14.78 76.3869 14.92 76.3736 15.08C76.3603 15.2267 76.3469 15.3667 76.3336 15.5H67.5936V13.68H74.6936L73.4936 14.22C73.4936 13.66 73.3803 13.1733 73.1536 12.76C72.9269 12.3467 72.6136 12.0267 72.2136 11.8C71.8136 11.56 71.3469 11.44 70.8136 11.44C70.2803 11.44 69.8069 11.56 69.3936 11.8C68.9936 12.0267 68.6803 12.3533 68.4536 12.78C68.2269 13.1933 68.1136 13.6867 68.1136 14.26V14.74C68.1136 15.3267 68.2403 15.8467 68.4936 16.3C68.7603 16.74 69.1269 17.08 69.5936 17.32C70.0736 17.5467 70.6336 17.66 71.2736 17.66C71.8469 17.66 72.3469 17.5733 72.7736 17.4C73.2136 17.2267 73.6136 16.9667 73.9736 16.62L75.6336 18.42C75.1403 18.98 74.5203 19.4133 73.7736 19.72C73.0269 20.0133 72.1669 20.16 71.1936 20.16ZM77.0522 20L81.8722 13.68L81.8122 15.4L77.1922 9.24H80.6922L83.6122 13.26L82.2922 13.3L85.3122 9.24H88.6322L83.9922 15.34V13.66L88.7922 20H85.2522L82.1922 15.72L83.4922 15.9L80.4522 20H77.0522ZM88.9681 19.98L89.1281 17.42C89.2081 17.4333 89.2881 17.4467 89.3681 17.46C89.4481 17.46 89.5215 17.46 89.5881 17.46C89.9615 17.46 90.2548 17.3533 90.4681 17.14C90.6815 16.9267 90.8415 16.64 90.9481 16.28C91.0548 15.9067 91.1281 15.4867 91.1681 15.02C91.2215 14.5533 91.2615 14.0667 91.2881 13.56L91.4481 9.24H100.648V20H97.5281V11.04L98.2281 11.8H93.5081L94.1681 11L94.0281 13.7C93.9881 14.66 93.9081 15.54 93.7881 16.34C93.6815 17.14 93.5015 17.8333 93.2481 18.42C92.9948 18.9933 92.6548 19.44 92.2281 19.76C91.8015 20.0667 91.2548 20.22 90.5881 20.22C90.3481 20.22 90.0948 20.2 89.8281 20.16C89.5615 20.12 89.2748 20.06 88.9681 19.98ZM114.728 20V9.24H117.828V20H114.728ZM109.308 12.68C110.722 12.6933 111.782 13.0133 112.488 13.64C113.208 14.2533 113.568 15.1267 113.568 16.26C113.568 17.4467 113.162 18.3733 112.348 19.04C111.535 19.6933 110.382 20.02 108.888 20.02L103.648 20V9.24H106.748V12.68H109.308ZM108.608 17.8C109.208 17.8133 109.668 17.6867 109.988 17.42C110.308 17.1533 110.468 16.7533 110.468 16.22C110.468 15.6867 110.308 15.3067 109.988 15.08C109.668 14.84 109.208 14.7133 108.608 14.7L106.748 14.68V17.8H108.608ZM98.6539 49.08L99.9739 44.28L100.414 46.08C99.8406 46.08 99.3672 45.9133 98.9939 45.58C98.6339 45.2467 98.4539 44.7867 98.4539 44.2C98.4539 43.6133 98.6406 43.1467 99.0139 42.8C99.3872 42.4533 99.8472 42.28 100.394 42.28C100.954 42.28 101.414 42.46 101.774 42.82C102.134 43.1667 102.314 43.6267 102.314 44.2C102.314 44.3733 102.301 44.5467 102.274 44.72C102.247 44.88 102.194 45.08 102.114 45.32C102.047 45.5467 101.934 45.84 101.774 46.2L100.634 49.08H98.6539ZM116.932 41.88C116.492 42.12 116.006 42.3133 115.472 42.46C114.939 42.6067 114.352 42.68 113.712 42.68C112.299 42.68 111.212 42.36 110.452 41.72C109.692 41.0667 109.312 40.0333 109.312 38.62V35.24H112.432V38.42C112.432 39.0867 112.606 39.5667 112.952 39.86C113.299 40.14 113.786 40.28 114.412 40.28C114.866 40.28 115.299 40.2267 115.712 40.12C116.139 40.0133 116.546 39.86 116.932 39.66V41.88ZM116.712 46V35.24H119.832V46H116.712ZM128.088 46.16C126.861 46.16 125.781 45.92 124.848 45.44C123.928 44.96 123.215 44.3067 122.708 43.48C122.201 42.64 121.948 41.6867 121.948 40.62C121.948 39.54 122.195 38.5867 122.688 37.76C123.195 36.92 123.881 36.2667 124.748 35.8C125.615 35.32 126.595 35.08 127.688 35.08C128.741 35.08 129.688 35.3067 130.528 35.76C131.381 36.2 132.055 36.84 132.548 37.68C133.041 38.5067 133.288 39.5 133.288 40.66C133.288 40.78 133.281 40.92 133.268 41.08C133.255 41.2267 133.241 41.3667 133.228 41.5H124.488V39.68H131.588L130.388 40.22C130.388 39.66 130.275 39.1733 130.048 38.76C129.821 38.3467 129.508 38.0267 129.108 37.8C128.708 37.56 128.241 37.44 127.708 37.44C127.175 37.44 126.701 37.56 126.288 37.8C125.888 38.0267 125.575 38.3533 125.348 38.78C125.121 39.1933 125.008 39.6867 125.008 40.26V40.74C125.008 41.3267 125.135 41.8467 125.388 42.3C125.655 42.74 126.021 43.08 126.488 43.32C126.968 43.5467 127.528 43.66 128.168 43.66C128.741 43.66 129.241 43.5733 129.668 43.4C130.108 43.2267 130.508 42.9667 130.868 42.62L132.528 44.42C132.035 44.98 131.415 45.4133 130.668 45.72C129.921 46.0133 129.061 46.16 128.088 46.16ZM135.68 46V35.24H138.94L143 42.6H141.7L146.04 35.24H148.96L149 46H146.18V38.44L146.66 38.76L142.96 44.96H141.64L137.92 38.54L138.5 38.4V46H135.68ZM157.652 46V35.24H160.752V39.44H165.432V35.24H168.552V46H165.432V41.98H160.752V46H157.652ZM177.979 46V43.9L177.779 43.44V39.68C177.779 39.0133 177.572 38.4933 177.159 38.12C176.759 37.7467 176.139 37.56 175.299 37.56C174.726 37.56 174.159 37.6533 173.599 37.84C173.052 38.0133 172.586 38.2533 172.199 38.56L171.079 36.38C171.666 35.9667 172.372 35.6467 173.199 35.42C174.026 35.1933 174.866 35.08 175.719 35.08C177.359 35.08 178.632 35.4667 179.539 36.24C180.446 37.0133 180.899 38.22 180.899 39.86V46H177.979ZM174.699 46.16C173.859 46.16 173.139 46.02 172.539 45.74C171.939 45.4467 171.479 45.0533 171.159 44.56C170.839 44.0667 170.679 43.5133 170.679 42.9C170.679 42.26 170.832 41.7 171.139 41.22C171.459 40.74 171.959 40.3667 172.639 40.1C173.319 39.82 174.206 39.68 175.299 39.68H178.159V41.5H175.639C174.906 41.5 174.399 41.62 174.119 41.86C173.852 42.1 173.719 42.4 173.719 42.76C173.719 43.16 173.872 43.48 174.179 43.72C174.499 43.9467 174.932 44.06 175.479 44.06C175.999 44.06 176.466 43.94 176.879 43.7C177.292 43.4467 177.592 43.08 177.779 42.6L178.259 44.04C178.032 44.7333 177.619 45.26 177.019 45.62C176.419 45.98 175.646 46.16 174.699 46.16ZM1.5 72V61.24H4.76L8.82 68.6H7.52L11.86 61.24H14.78L14.82 72H12V64.44L12.48 64.76L8.78 70.96H7.46L3.74 64.54L4.32 64.4V72H1.5ZM24.2486 72V69.9L24.0486 69.44V65.68C24.0486 65.0133 23.8419 64.4933 23.4286 64.12C23.0286 63.7467 22.4086 63.56 21.5686 63.56C20.9953 63.56 20.4286 63.6533 19.8686 63.84C19.3219 64.0133 18.8553 64.2533 18.4686 64.56L17.3486 62.38C17.9353 61.9667 18.6419 61.6467 19.4686 61.42C20.2953 61.1933 21.1353 61.08 21.9886 61.08C23.6286 61.08 24.9019 61.4667 25.8086 62.24C26.7153 63.0133 27.1686 64.22 27.1686 65.86V72H24.2486ZM20.9686 72.16C20.1286 72.16 19.4086 72.02 18.8086 71.74C18.2086 71.4467 17.7486 71.0533 17.4286 70.56C17.1086 70.0667 16.9486 69.5133 16.9486 68.9C16.9486 68.26 17.1019 67.7 17.4086 67.22C17.7286 66.74 18.2286 66.3667 18.9086 66.1C19.5886 65.82 20.4753 65.68 21.5686 65.68H24.4286V67.5H21.9086C21.1753 67.5 20.6686 67.62 20.3886 67.86C20.1219 68.1 19.9886 68.4 19.9886 68.76C19.9886 69.16 20.1419 69.48 20.4486 69.72C20.7686 69.9467 21.2019 70.06 21.7486 70.06C22.2686 70.06 22.7353 69.94 23.1486 69.7C23.5619 69.4467 23.8619 69.08 24.0486 68.6L24.5286 70.04C24.3019 70.7333 23.8886 71.26 23.2886 71.62C22.6886 71.98 21.9153 72.16 20.9686 72.16ZM36.2189 72.16C35.3122 72.16 34.5189 71.96 33.8389 71.56C33.1589 71.16 32.6256 70.5533 32.2389 69.74C31.8656 68.9133 31.6789 67.8733 31.6789 66.62C31.6789 65.3533 31.8589 64.3133 32.2189 63.5C32.5789 62.6867 33.0989 62.08 33.7789 61.68C34.4589 61.28 35.2722 61.08 36.2189 61.08C37.2322 61.08 38.1389 61.3133 38.9389 61.78C39.7522 62.2333 40.3922 62.8733 40.8589 63.7C41.3389 64.5267 41.5789 65.5 41.5789 66.62C41.5789 67.7533 41.3389 68.7333 40.8589 69.56C40.3922 70.3867 39.7522 71.0267 38.9389 71.48C38.1389 71.9333 37.2322 72.16 36.2189 72.16ZM29.8589 75.88V61.24H32.8389V63.44L32.7789 66.64L32.9789 69.82V75.88H29.8589ZM35.6789 69.6C36.1989 69.6 36.6589 69.48 37.0589 69.24C37.4722 69 37.7989 68.66 38.0389 68.22C38.2922 67.7667 38.4189 67.2333 38.4189 66.62C38.4189 65.9933 38.2922 65.46 38.0389 65.02C37.7989 64.58 37.4722 64.24 37.0589 64C36.6589 63.76 36.1989 63.64 35.6789 63.64C35.1589 63.64 34.6922 63.76 34.2789 64C33.8656 64.24 33.5389 64.58 33.2989 65.02C33.0589 65.46 32.9389 65.9933 32.9389 66.62C32.9389 67.2333 33.0589 67.7667 33.2989 68.22C33.5389 68.66 33.8656 69 34.2789 69.24C34.6922 69.48 35.1589 69.6 35.6789 69.6ZM51.3856 72L47.7856 66.9L50.3256 65.4L55.0656 72H51.3856ZM43.7656 72V61.24H46.8856V72H43.7656ZM45.9656 67.92V65.42H49.7256V67.92H45.9656ZM50.6256 66.98L47.7056 66.66L51.4856 61.24H54.8056L50.6256 66.98ZM61.5256 72.16C60.299 72.16 59.219 71.92 58.2856 71.44C57.3656 70.96 56.6523 70.3067 56.1456 69.48C55.639 68.64 55.3856 67.6867 55.3856 66.62C55.3856 65.54 55.6323 64.5867 56.1256 63.76C56.6323 62.92 57.319 62.2667 58.1856 61.8C59.0523 61.32 60.0323 61.08 61.1256 61.08C62.179 61.08 63.1256 61.3067 63.9656 61.76C64.819 62.2 65.4923 62.84 65.9856 63.68C66.479 64.5067 66.7256 65.5 66.7256 66.66C66.7256 66.78 66.719 66.92 66.7056 67.08C66.6923 67.2267 66.679 67.3667 66.6656 67.5H57.9256V65.68H65.0256L63.8256 66.22C63.8256 65.66 63.7123 65.1733 63.4856 64.76C63.259 64.3467 62.9456 64.0267 62.5456 63.8C62.1456 63.56 61.679 63.44 61.1456 63.44C60.6123 63.44 60.139 63.56 59.7256 63.8C59.3256 64.0267 59.0123 64.3533 58.7856 64.78C58.559 65.1933 58.4456 65.6867 58.4456 66.26V66.74C58.4456 67.3267 58.5723 67.8467 58.8256 68.3C59.0923 68.74 59.459 69.08 59.9256 69.32C60.4056 69.5467 60.9656 69.66 61.6056 69.66C62.179 69.66 62.679 69.5733 63.1056 69.4C63.5456 69.2267 63.9456 68.9667 64.3056 68.62L65.9656 70.42C65.4723 70.98 64.8523 71.4133 64.1056 71.72C63.359 72.0133 62.499 72.16 61.5256 72.16ZM71.0461 72V63.08L71.7461 63.8H67.4061V61.24H77.7861V63.8H73.4461L74.1461 63.08V72H71.0461ZM79.4492 72V61.24H90.1492V72H87.0292V63.1L87.7292 63.8H81.8492L82.5492 63.1V72H79.4492ZM91.7806 71.98L91.9406 69.42C92.0206 69.4333 92.1006 69.4467 92.1806 69.46C92.2606 69.46 92.334 69.46 92.4006 69.46C92.774 69.46 93.0673 69.3533 93.2806 69.14C93.494 68.9267 93.654 68.64 93.7606 68.28C93.8673 67.9067 93.9406 67.4867 93.9806 67.02C94.034 66.5533 94.074 66.0667 94.1006 65.56L94.2606 61.24H103.461V72H100.341V63.04L101.041 63.8H96.3206L96.9806 63L96.8406 65.7C96.8006 66.66 96.7206 67.54 96.6006 68.34C96.494 69.14 96.314 69.8333 96.0606 70.42C95.8073 70.9933 95.4673 71.44 95.0406 71.76C94.614 72.0667 94.0673 72.22 93.4006 72.22C93.1606 72.22 92.9073 72.2 92.6406 72.16C92.374 72.12 92.0873 72.06 91.7806 71.98ZM111.721 72.16C110.494 72.16 109.414 71.92 108.481 71.44C107.561 70.96 106.848 70.3067 106.341 69.48C105.834 68.64 105.581 67.6867 105.581 66.62C105.581 65.54 105.828 64.5867 106.321 63.76C106.828 62.92 107.514 62.2667 108.381 61.8C109.248 61.32 110.228 61.08 111.321 61.08C112.374 61.08 113.321 61.3067 114.161 61.76C115.014 62.2 115.688 62.84 116.181 63.68C116.674 64.5067 116.921 65.5 116.921 66.66C116.921 66.78 116.914 66.92 116.901 67.08C116.888 67.2267 116.874 67.3667 116.861 67.5H108.121V65.68H115.221L114.021 66.22C114.021 65.66 113.908 65.1733 113.681 64.76C113.454 64.3467 113.141 64.0267 112.741 63.8C112.341 63.56 111.874 63.44 111.341 63.44C110.808 63.44 110.334 63.56 109.921 63.8C109.521 64.0267 109.208 64.3533 108.981 64.78C108.754 65.1933 108.641 65.6867 108.641 66.26V66.74C108.641 67.3267 108.768 67.8467 109.021 68.3C109.288 68.74 109.654 69.08 110.121 69.32C110.601 69.5467 111.161 69.66 111.801 69.66C112.374 69.66 112.874 69.5733 113.301 69.4C113.741 69.2267 114.141 68.9667 114.501 68.62L116.161 70.42C115.668 70.98 115.048 71.4133 114.301 71.72C113.554 72.0133 112.694 72.16 111.721 72.16ZM119.313 72V61.24H122.413V67.64L127.653 61.24H130.513V72H127.413V65.6L122.193 72H119.313ZM124.713 60.08C123.539 60.08 122.659 59.8267 122.073 59.32C121.486 58.8 121.186 58.02 121.173 56.98H123.213C123.226 57.4333 123.353 57.7933 123.593 58.06C123.833 58.3267 124.199 58.46 124.693 58.46C125.173 58.46 125.539 58.3267 125.793 58.06C126.059 57.7933 126.193 57.4333 126.193 56.98H128.273C128.273 58.02 127.973 58.8 127.373 59.32C126.773 59.8267 125.886 60.08 124.713 60.08ZM138.632 72.16C137.472 72.16 136.438 71.9267 135.532 71.46C134.625 70.98 133.912 70.32 133.392 69.48C132.885 68.64 132.632 67.6867 132.632 66.62C132.632 65.54 132.885 64.5867 133.392 63.76C133.912 62.92 134.625 62.2667 135.532 61.8C136.438 61.32 137.472 61.08 138.632 61.08C139.765 61.08 140.752 61.32 141.592 61.8C142.432 62.2667 143.052 62.94 143.452 63.82L141.032 65.12C140.752 64.6133 140.398 64.24 139.972 64C139.558 63.76 139.105 63.64 138.612 63.64C138.078 63.64 137.598 63.76 137.172 64C136.745 64.24 136.405 64.58 136.152 65.02C135.912 65.46 135.792 65.9933 135.792 66.62C135.792 67.2467 135.912 67.78 136.152 68.22C136.405 68.66 136.745 69 137.172 69.24C137.598 69.48 138.078 69.6 138.612 69.6C139.105 69.6 139.558 69.4867 139.972 69.26C140.398 69.02 140.752 68.64 141.032 68.12L143.452 69.44C143.052 70.3067 142.432 70.98 141.592 71.46C140.752 71.9267 139.765 72.16 138.632 72.16ZM151.788 72V69.9L151.588 69.44V65.68C151.588 65.0133 151.381 64.4933 150.968 64.12C150.568 63.7467 149.948 63.56 149.108 63.56C148.534 63.56 147.968 63.6533 147.408 63.84C146.861 64.0133 146.394 64.2533 146.008 64.56L144.888 62.38C145.474 61.9667 146.181 61.6467 147.008 61.42C147.834 61.1933 148.674 61.08 149.528 61.08C151.168 61.08 152.441 61.4667 153.348 62.24C154.254 63.0133 154.708 64.22 154.708 65.86V72H151.788ZM148.508 72.16C147.668 72.16 146.948 72.02 146.348 71.74C145.748 71.4467 145.288 71.0533 144.968 70.56C144.648 70.0667 144.488 69.5133 144.488 68.9C144.488 68.26 144.641 67.7 144.948 67.22C145.268 66.74 145.768 66.3667 146.448 66.1C147.128 65.82 148.014 65.68 149.108 65.68H151.968V67.5H149.448C148.714 67.5 148.208 67.62 147.928 67.86C147.661 68.1 147.528 68.4 147.528 68.76C147.528 69.16 147.681 69.48 147.988 69.72C148.308 69.9467 148.741 70.06 149.288 70.06C149.808 70.06 150.274 69.94 150.688 69.7C151.101 69.4467 151.401 69.08 151.588 68.6L152.068 70.04C151.841 70.7333 151.428 71.26 150.828 71.62C150.228 71.98 149.454 72.16 148.508 72.16ZM155.978 72L160.798 65.68L160.738 67.4L156.118 61.24H159.618L162.538 65.26L161.218 65.3L164.238 61.24H167.558L162.918 67.34V65.66L167.718 72H164.178L161.118 67.72L162.418 67.9L159.378 72H155.978Z" fill="#141414"/>
<path d="M126.5 20V9.24H129.6V13.44H134.28V9.24H137.4V20H134.28V15.98H129.6V20H126.5ZM146.827 20V17.9L146.627 17.44V13.68C146.627 13.0133 146.42 12.4933 146.007 12.12C145.607 11.7467 144.987 11.56 144.147 11.56C143.573 11.56 143.007 11.6533 142.447 11.84C141.9 12.0133 141.433 12.2533 141.047 12.56L139.927 10.38C140.513 9.96667 141.22 9.64667 142.047 9.42C142.873 9.19333 143.713 9.08 144.567 9.08C146.207 9.08 147.48 9.46667 148.387 10.24C149.293 11.0133 149.747 12.22 149.747 13.86V20H146.827ZM143.547 20.16C142.707 20.16 141.987 20.02 141.387 19.74C140.787 19.4467 140.327 19.0533 140.007 18.56C139.687 18.0667 139.527 17.5133 139.527 16.9C139.527 16.26 139.68 15.7 139.987 15.22C140.307 14.74 140.807 14.3667 141.487 14.1C142.167 13.82 143.053 13.68 144.147 13.68H147.007V15.5H144.487C143.753 15.5 143.247 15.62 142.967 15.86C142.7 16.1 142.567 16.4 142.567 16.76C142.567 17.16 142.72 17.48 143.027 17.72C143.347 17.9467 143.78 18.06 144.327 18.06C144.847 18.06 145.313 17.94 145.727 17.7C146.14 17.4467 146.44 17.08 146.627 16.6L147.107 18.04C146.88 18.7333 146.467 19.26 145.867 19.62C145.267 19.98 144.493 20.16 143.547 20.16ZM159.561 20V7.2L160.961 8.6H156.761V6H162.801V20H159.561ZM171.233 20.24C170.086 20.24 169.06 19.96 168.153 19.4C167.246 18.8267 166.533 18 166.013 16.92C165.493 15.84 165.233 14.5333 165.233 13C165.233 11.4667 165.493 10.16 166.013 9.08C166.533 8 167.246 7.18 168.153 6.62C169.06 6.04667 170.086 5.76 171.233 5.76C172.393 5.76 173.42 6.04667 174.313 6.62C175.22 7.18 175.933 8 176.453 9.08C176.973 10.16 177.233 11.4667 177.233 13C177.233 14.5333 176.973 15.84 176.453 16.92C175.933 18 175.22 18.8267 174.313 19.4C173.42 19.96 172.393 20.24 171.233 20.24ZM171.233 17.5C171.78 17.5 172.253 17.3467 172.653 17.04C173.066 16.7333 173.386 16.2467 173.613 15.58C173.853 14.9133 173.973 14.0533 173.973 13C173.973 11.9467 173.853 11.0867 173.613 10.42C173.386 9.75333 173.066 9.26667 172.653 8.96C172.253 8.65333 171.78 8.5 171.233 8.5C170.7 8.5 170.226 8.65333 169.813 8.96C169.413 9.26667 169.093 9.75333 168.853 10.42C168.626 11.0867 168.513 11.9467 168.513 13C168.513 14.0533 168.626 14.9133 168.853 15.58C169.093 16.2467 169.413 16.7333 169.813 17.04C170.226 17.3467 170.7 17.5 171.233 17.5ZM179.126 15.62V13.12H184.786V15.62H179.126ZM186.129 20V17.9L191.529 12.8C191.955 12.4133 192.269 12.0667 192.469 11.76C192.669 11.4533 192.802 11.1733 192.869 10.92C192.949 10.6667 192.989 10.4333 192.989 10.22C192.989 9.66 192.795 9.23333 192.409 8.94C192.035 8.63333 191.482 8.48 190.749 8.48C190.162 8.48 189.615 8.59333 189.109 8.82C188.615 9.04667 188.195 9.4 187.849 9.88L185.489 8.36C186.022 7.56 186.769 6.92667 187.729 6.46C188.689 5.99333 189.795 5.76 191.049 5.76C192.089 5.76 192.995 5.93333 193.769 6.28C194.555 6.61333 195.162 7.08667 195.589 7.7C196.029 8.31333 196.249 9.04667 196.249 9.9C196.249 10.3533 196.189 10.8067 196.069 11.26C195.962 11.7 195.735 12.1667 195.389 12.66C195.055 13.1533 194.562 13.7067 193.909 14.32L189.429 18.54L188.809 17.36H196.709V20H186.129ZM204.046 20.24C202.899 20.24 201.872 19.96 200.966 19.4C200.059 18.8267 199.346 18 198.826 16.92C198.306 15.84 198.046 14.5333 198.046 13C198.046 11.4667 198.306 10.16 198.826 9.08C199.346 8 200.059 7.18 200.966 6.62C201.872 6.04667 202.899 5.76 204.046 5.76C205.206 5.76 206.232 6.04667 207.126 6.62C208.032 7.18 208.746 8 209.266 9.08C209.786 10.16 210.046 11.4667 210.046 13C210.046 14.5333 209.786 15.84 209.266 16.92C208.746 18 208.032 18.8267 207.126 19.4C206.232 19.96 205.206 20.24 204.046 20.24ZM204.046 17.5C204.592 17.5 205.066 17.3467 205.466 17.04C205.879 16.7333 206.199 16.2467 206.426 15.58C206.666 14.9133 206.786 14.0533 206.786 13C206.786 11.9467 206.666 11.0867 206.426 10.42C206.199 9.75333 205.879 9.26667 205.466 8.96C205.066 8.65333 204.592 8.5 204.046 8.5C203.512 8.5 203.039 8.65333 202.626 8.96C202.226 9.26667 201.906 9.75333 201.666 10.42C201.439 11.0867 201.326 11.9467 201.326 13C201.326 14.0533 201.439 14.9133 201.666 15.58C201.906 16.2467 202.226 16.7333 202.626 17.04C203.039 17.3467 203.512 17.5 204.046 17.5ZM213.64 20L223.2 6H225.58L216.02 20H213.64ZM214.86 13.56C214.18 13.56 213.58 13.4067 213.06 13.1C212.54 12.78 212.127 12.3333 211.82 11.76C211.527 11.1733 211.38 10.4867 211.38 9.7C211.38 8.91333 211.527 8.23333 211.82 7.66C212.127 7.08667 212.54 6.64 213.06 6.32C213.58 6 214.18 5.84 214.86 5.84C215.54 5.84 216.14 6 216.66 6.32C217.18 6.64 217.587 7.08667 217.88 7.66C218.173 8.23333 218.32 8.91333 218.32 9.7C218.32 10.4867 218.173 11.1733 217.88 11.76C217.587 12.3333 217.18 12.78 216.66 13.1C216.14 13.4067 215.54 13.56 214.86 13.56ZM214.86 11.92C215.3 11.92 215.653 11.74 215.92 11.38C216.187 11.0067 216.32 10.4467 216.32 9.7C216.32 8.95333 216.187 8.4 215.92 8.04C215.653 7.66667 215.3 7.48 214.86 7.48C214.433 7.48 214.08 7.66667 213.8 8.04C213.533 8.4 213.4 8.95333 213.4 9.7C213.4 10.4333 213.533 10.9867 213.8 11.36C214.08 11.7333 214.433 11.92 214.86 11.92ZM224.36 20.16C223.693 20.16 223.093 20.0067 222.56 19.7C222.04 19.38 221.633 18.9333 221.34 18.36C221.047 17.7733 220.9 17.0867 220.9 16.3C220.9 15.5133 221.047 14.8333 221.34 14.26C221.633 13.6867 222.04 13.24 222.56 12.92C223.093 12.6 223.693 12.44 224.36 12.44C225.053 12.44 225.66 12.6 226.18 12.92C226.7 13.24 227.107 13.6867 227.4 14.26C227.693 14.8333 227.84 15.5133 227.84 16.3C227.84 17.0867 227.693 17.7733 227.4 18.36C227.107 18.9333 226.7 19.38 226.18 19.7C225.66 20.0067 225.053 20.16 224.36 20.16ZM224.36 18.52C224.8 18.52 225.153 18.34 225.42 17.98C225.687 17.6067 225.82 17.0467 225.82 16.3C225.82 15.5667 225.687 15.0133 225.42 14.64C225.153 14.2667 224.8 14.08 224.36 14.08C223.933 14.08 223.58 14.2667 223.3 14.64C223.033 15 222.9 15.5533 222.9 16.3C222.9 17.0467 223.033 17.6067 223.3 17.98C223.58 18.34 223.933 18.52 224.36 18.52ZM8.9 44.6V37.8H5.38L5.32 39.18C5.29333 39.7533 5.26 40.3 5.22 40.82C5.18 41.34 5.1 41.8133 4.98 42.24C4.87333 42.6533 4.71333 43.0067 4.5 43.3C4.28667 43.58 4 43.7733 3.64 43.88L0.56 43.44C0.946667 43.44 1.26 43.3267 1.5 43.1C1.74 42.86 1.92667 42.5333 2.06 42.12C2.19333 41.6933 2.29333 41.2133 2.36 40.68C2.42667 40.1333 2.47333 39.56 2.5 38.96L2.64 35.24H12.02V44.6H8.9ZM0.2 48.32V43.44H13.56V48.32H10.66V46H3.1V48.32H0.2ZM20.7834 46.16C19.5568 46.16 18.4768 45.92 17.5434 45.44C16.6234 44.96 15.9101 44.3067 15.4034 43.48C14.8968 42.64 14.6434 41.6867 14.6434 40.62C14.6434 39.54 14.8901 38.5867 15.3834 37.76C15.8901 36.92 16.5768 36.2667 17.4434 35.8C18.3101 35.32 19.2901 35.08 20.3834 35.08C21.4368 35.08 22.3834 35.3067 23.2234 35.76C24.0768 36.2 24.7501 36.84 25.2434 37.68C25.7368 38.5067 25.9834 39.5 25.9834 40.66C25.9834 40.78 25.9768 40.92 25.9634 41.08C25.9501 41.2267 25.9368 41.3667 25.9234 41.5H17.1834V39.68H24.2834L23.0834 40.22C23.0834 39.66 22.9701 39.1733 22.7434 38.76C22.5168 38.3467 22.2034 38.0267 21.8034 37.8C21.4034 37.56 20.9368 37.44 20.4034 37.44C19.8701 37.44 19.3968 37.56 18.9834 37.8C18.5834 38.0267 18.2701 38.3533 18.0434 38.78C17.8168 39.1933 17.7034 39.6867 17.7034 40.26V40.74C17.7034 41.3267 17.8301 41.8467 18.0834 42.3C18.3501 42.74 18.7168 43.08 19.1834 43.32C19.6634 43.5467 20.2234 43.66 20.8634 43.66C21.4368 43.66 21.9368 43.5733 22.3634 43.4C22.8034 43.2267 23.2034 42.9667 23.5634 42.62L25.2234 44.42C24.7301 44.98 24.1101 45.4133 23.3634 45.72C22.6168 46.0133 21.7568 46.16 20.7834 46.16ZM35.715 43.44L35.035 44.16V35.24H38.155V44.16L37.435 43.44H42.395L41.695 44.16V35.24H44.795V46H28.375V35.24H31.475V44.16L30.775 43.44H35.715ZM53.0491 46.16C51.8224 46.16 50.7424 45.92 49.8091 45.44C48.8891 44.96 48.1757 44.3067 47.6691 43.48C47.1624 42.64 46.9091 41.6867 46.9091 40.62C46.9091 39.54 47.1557 38.5867 47.6491 37.76C48.1557 36.92 48.8424 36.2667 49.7091 35.8C50.5757 35.32 51.5557 35.08 52.6491 35.08C53.7024 35.08 54.6491 35.3067 55.4891 35.76C56.3424 36.2 57.0157 36.84 57.5091 37.68C58.0024 38.5067 58.2491 39.5 58.2491 40.66C58.2491 40.78 58.2424 40.92 58.2291 41.08C58.2157 41.2267 58.2024 41.3667 58.1891 41.5H49.4491V39.68H56.5491L55.3491 40.22C55.3491 39.66 55.2357 39.1733 55.0091 38.76C54.7824 38.3467 54.4691 38.0267 54.0691 37.8C53.6691 37.56 53.2024 37.44 52.6691 37.44C52.1357 37.44 51.6624 37.56 51.2491 37.8C50.8491 38.0267 50.5357 38.3533 50.3091 38.78C50.0824 39.1933 49.9691 39.6867 49.9691 40.26V40.74C49.9691 41.3267 50.0957 41.8467 50.3491 42.3C50.6157 42.74 50.9824 43.08 51.4491 43.32C51.9291 43.5467 52.4891 43.66 53.1291 43.66C53.7024 43.66 54.2024 43.5733 54.6291 43.4C55.0691 43.2267 55.4691 42.9667 55.8291 42.62L57.4891 44.42C56.9957 44.98 56.3757 45.4133 55.6291 45.72C54.8824 46.0133 54.0224 46.16 53.0491 46.16ZM60.6406 46V35.24H66.1406C67.4873 35.24 68.5406 35.4867 69.3006 35.98C70.0606 36.46 70.4406 37.14 70.4406 38.02C70.4406 38.9 70.0806 39.5933 69.3606 40.1C68.654 40.5933 67.714 40.84 66.5406 40.84L66.8606 40.12C68.1673 40.12 69.1406 40.36 69.7806 40.84C70.434 41.32 70.7606 42.02 70.7606 42.94C70.7606 43.8867 70.4006 44.6333 69.6806 45.18C68.9606 45.7267 67.8606 46 66.3806 46H60.6406ZM63.5006 43.88H66.1206C66.694 43.88 67.1206 43.7867 67.4006 43.6C67.694 43.4 67.8406 43.1 67.8406 42.7C67.8406 42.2867 67.7073 41.9867 67.4406 41.8C67.174 41.6 66.754 41.5 66.1806 41.5H63.5006V43.88ZM63.5006 39.66H65.8606C66.4073 39.66 66.814 39.56 67.0806 39.36C67.3606 39.16 67.5006 38.8733 67.5006 38.5C67.5006 38.1133 67.3606 37.8267 67.0806 37.64C66.814 37.4533 66.4073 37.36 65.8606 37.36H63.5006V39.66ZM71.722 45.98L71.882 43.42C71.962 43.4333 72.042 43.4467 72.122 43.46C72.202 43.46 72.2754 43.46 72.342 43.46C72.7154 43.46 73.0087 43.3533 73.222 43.14C73.4354 42.9267 73.5954 42.64 73.702 42.28C73.8087 41.9067 73.882 41.4867 73.922 41.02C73.9754 40.5533 74.0154 40.0667 74.042 39.56L74.202 35.24H83.402V46H80.282V37.04L80.982 37.8H76.262L76.922 37L76.782 39.7C76.742 40.66 76.662 41.54 76.542 42.34C76.4354 43.14 76.2554 43.8333 76.002 44.42C75.7487 44.9933 75.4087 45.44 74.982 45.76C74.5554 46.0667 74.0087 46.22 73.342 46.22C73.102 46.22 72.8487 46.2 72.582 46.16C72.3154 46.12 72.0287 46.06 71.722 45.98ZM91.6623 46.16C90.4357 46.16 89.3557 45.92 88.4223 45.44C87.5023 44.96 86.789 44.3067 86.2823 43.48C85.7757 42.64 85.5223 41.6867 85.5223 40.62C85.5223 39.54 85.769 38.5867 86.2623 37.76C86.769 36.92 87.4557 36.2667 88.3223 35.8C89.189 35.32 90.169 35.08 91.2623 35.08C92.3157 35.08 93.2623 35.3067 94.1023 35.76C94.9557 36.2 95.629 36.84 96.1223 37.68C96.6157 38.5067 96.8623 39.5 96.8623 40.66C96.8623 40.78 96.8557 40.92 96.8423 41.08C96.829 41.2267 96.8157 41.3667 96.8023 41.5H88.0623V39.68H95.1623L93.9623 40.22C93.9623 39.66 93.849 39.1733 93.6223 38.76C93.3957 38.3467 93.0823 38.0267 92.6823 37.8C92.2823 37.56 91.8157 37.44 91.2823 37.44C90.749 37.44 90.2757 37.56 89.8623 37.8C89.4623 38.0267 89.149 38.3533 88.9223 38.78C88.6957 39.1933 88.5823 39.6867 88.5823 40.26V40.74C88.5823 41.3267 88.709 41.8467 88.9623 42.3C89.229 42.74 89.5957 43.08 90.0623 43.32C90.5423 43.5467 91.1023 43.66 91.7423 43.66C92.3157 43.66 92.8157 43.5733 93.2423 43.4C93.6823 43.2267 94.0823 42.9667 94.4423 42.62L96.1023 44.42C95.609 44.98 94.989 45.4133 94.2423 45.72C93.4957 46.0133 92.6357 46.16 91.6623 46.16Z" fill="#28CB47"/>
<path d="M1.652 105V95.2H8.82V96.082H2.674V99.288H5.88C7.03733 99.288 7.91467 99.526 8.512 100.002C9.11867 100.469 9.422 101.159 9.422 102.074C9.422 103.017 9.09533 103.74 8.442 104.244C7.798 104.748 6.86933 105 5.656 105H1.652ZM2.674 104.174H5.642C6.54733 104.174 7.22867 104.001 7.686 103.656C8.15267 103.301 8.386 102.788 8.386 102.116C8.386 100.781 7.47133 100.114 5.642 100.114H2.674V104.174ZM14.7222 105.07C13.9569 105.07 13.2849 104.911 12.7062 104.594C12.1275 104.267 11.6749 103.824 11.3482 103.264C11.0215 102.695 10.8582 102.046 10.8582 101.318C10.8582 100.59 11.0122 99.946 11.3202 99.386C11.6375 98.826 12.0669 98.3873 12.6082 98.07C13.1589 97.7433 13.7749 97.58 14.4562 97.58C15.1469 97.58 15.7582 97.7387 16.2902 98.056C16.8315 98.364 17.2562 98.8027 17.5642 99.372C17.8722 99.932 18.0262 100.581 18.0262 101.318C18.0262 101.365 18.0215 101.416 18.0122 101.472C18.0122 101.519 18.0122 101.57 18.0122 101.626H11.6142V100.884H17.4802L17.0882 101.178C17.0882 100.646 16.9715 100.175 16.7382 99.764C16.5142 99.344 16.2062 99.0173 15.8142 98.784C15.4222 98.5507 14.9695 98.434 14.4562 98.434C13.9522 98.434 13.4995 98.5507 13.0982 98.784C12.6969 99.0173 12.3842 99.344 12.1602 99.764C11.9362 100.184 11.8242 100.665 11.8242 101.206V101.36C11.8242 101.92 11.9455 102.415 12.1882 102.844C12.4402 103.264 12.7855 103.595 13.2242 103.838C13.6722 104.071 14.1809 104.188 14.7502 104.188C15.1982 104.188 15.6135 104.109 15.9962 103.95C16.3882 103.791 16.7242 103.549 17.0042 103.222L17.5642 103.866C17.2375 104.258 16.8269 104.557 16.3322 104.762C15.8469 104.967 15.3102 105.07 14.7222 105.07ZM21.9954 105.084C21.4634 105.084 20.9361 105.009 20.4134 104.86C19.8908 104.711 19.4288 104.482 19.0274 104.174L19.3494 103.432C19.7041 103.693 20.1148 103.894 20.5814 104.034C21.0481 104.165 21.5101 104.23 21.9674 104.23C22.4248 104.221 22.8214 104.155 23.1574 104.034C23.4934 103.913 23.7548 103.745 23.9414 103.53C24.1281 103.315 24.2214 103.073 24.2214 102.802C24.2214 102.41 24.0441 102.107 23.6894 101.892C23.3348 101.668 22.8494 101.556 22.2334 101.556H20.9734V100.828H22.1634C22.5274 100.828 22.8494 100.781 23.1294 100.688C23.4094 100.595 23.6241 100.459 23.7734 100.282C23.9321 100.105 24.0114 99.8947 24.0114 99.652C24.0114 99.3907 23.9181 99.1667 23.7314 98.98C23.5541 98.7933 23.3068 98.6533 22.9894 98.56C22.6721 98.4667 22.3128 98.42 21.9114 98.42C21.5474 98.4293 21.1694 98.4853 20.7774 98.588C20.3854 98.6813 19.9981 98.826 19.6154 99.022L19.3354 98.252C19.7648 98.028 20.1894 97.86 20.6094 97.748C21.0388 97.6267 21.4681 97.566 21.8974 97.566C22.4854 97.5473 23.0128 97.6173 23.4794 97.776C23.9554 97.9347 24.3334 98.1633 24.6134 98.462C24.8934 98.7513 25.0334 99.1013 25.0334 99.512C25.0334 99.876 24.9214 100.193 24.6974 100.464C24.4734 100.735 24.1748 100.945 23.8014 101.094C23.4281 101.243 23.0034 101.318 22.5274 101.318L22.5694 101.052C23.4094 101.052 24.0628 101.215 24.5294 101.542C25.0054 101.869 25.2434 102.312 25.2434 102.872C25.2434 103.311 25.0988 103.698 24.8094 104.034C24.5201 104.361 24.1281 104.617 23.6334 104.804C23.1481 104.991 22.6021 105.084 21.9954 105.084ZM31.164 105V97.65H32.158V100.898H36.792V97.65H37.786V105H36.792V101.752H32.158V105H31.164ZM45.1753 105V103.376L45.1333 103.11V100.394C45.1333 99.7687 44.9559 99.288 44.6013 98.952C44.2559 98.616 43.7379 98.448 43.0473 98.448C42.5713 98.448 42.1186 98.5273 41.6893 98.686C41.2599 98.8447 40.8959 99.0547 40.5973 99.316L40.1493 98.574C40.5226 98.2567 40.9706 98.014 41.4933 97.846C42.0159 97.6687 42.5666 97.58 43.1453 97.58C44.0973 97.58 44.8299 97.818 45.3433 98.294C45.8659 98.7607 46.1273 99.4747 46.1273 100.436V105H45.1753ZM42.6413 105.07C42.0906 105.07 41.6099 104.981 41.1993 104.804C40.7979 104.617 40.4899 104.365 40.2753 104.048C40.0606 103.721 39.9533 103.348 39.9533 102.928C39.9533 102.545 40.0419 102.2 40.2193 101.892C40.4059 101.575 40.7046 101.323 41.1153 101.136C41.5353 100.94 42.0953 100.842 42.7953 100.842H45.3293V101.584H42.8233C42.1139 101.584 41.6193 101.71 41.3393 101.962C41.0686 102.214 40.9333 102.527 40.9333 102.9C40.9333 103.32 41.0966 103.656 41.4233 103.908C41.7499 104.16 42.2073 104.286 42.7953 104.286C43.3553 104.286 43.8359 104.16 44.2373 103.908C44.6479 103.647 44.9466 103.273 45.1333 102.788L45.3573 103.474C45.1706 103.959 44.8439 104.347 44.3773 104.636C43.9199 104.925 43.3413 105.07 42.6413 105.07ZM48.7734 105V97.65H49.7674V104.132H54.2614V97.65H55.2554V105H48.7734ZM55.5074 106.778V104.916L55.7594 105H54.2614V104.132H56.4454V106.778H55.5074ZM61.4937 105.07C60.7284 105.07 60.0564 104.911 59.4777 104.594C58.899 104.267 58.4464 103.824 58.1197 103.264C57.793 102.695 57.6297 102.046 57.6297 101.318C57.6297 100.59 57.7837 99.946 58.0917 99.386C58.409 98.826 58.8384 98.3873 59.3797 98.07C59.9304 97.7433 60.5464 97.58 61.2277 97.58C61.9184 97.58 62.5297 97.7387 63.0617 98.056C63.603 98.364 64.0277 98.8027 64.3357 99.372C64.6437 99.932 64.7977 100.581 64.7977 101.318C64.7977 101.365 64.793 101.416 64.7837 101.472C64.7837 101.519 64.7837 101.57 64.7837 101.626H58.3857V100.884H64.2517L63.8597 101.178C63.8597 100.646 63.743 100.175 63.5097 99.764C63.2857 99.344 62.9777 99.0173 62.5857 98.784C62.1937 98.5507 61.741 98.434 61.2277 98.434C60.7237 98.434 60.271 98.5507 59.8697 98.784C59.4684 99.0173 59.1557 99.344 58.9317 99.764C58.7077 100.184 58.5957 100.665 58.5957 101.206V101.36C58.5957 101.92 58.717 102.415 58.9597 102.844C59.2117 103.264 59.557 103.595 59.9957 103.838C60.4437 104.071 60.9524 104.188 61.5217 104.188C61.9697 104.188 62.385 104.109 62.7677 103.95C63.1597 103.791 63.4957 103.549 63.7757 103.222L64.3357 103.866C64.009 104.258 63.5984 104.557 63.1037 104.762C62.6184 104.967 62.0817 105.07 61.4937 105.07ZM66.998 105V97.65H67.992V100.898H72.626V97.65H73.62V105H72.626V101.752H67.992V105H66.998ZM81.8353 105L78.8113 101.36L79.6373 100.87L83.0113 105H81.8353ZM76.4453 105V97.65H77.4393V105H76.4453ZM77.1313 101.724V100.87H79.4973V101.724H77.1313ZM79.7213 101.43L78.7973 101.29L81.7233 97.65H82.8013L79.7213 101.43ZM84.58 105V97.65H85.574V103.488L90.488 97.65H91.37V105H90.376V99.148L85.476 105H84.58ZM97.8828 105V97.65H104.491V105H103.497V98.252L103.749 98.518H98.6248L98.8768 98.252V105H97.8828ZM110.34 105.07C109.631 105.07 108.992 104.911 108.422 104.594C107.862 104.267 107.419 103.824 107.092 103.264C106.766 102.695 106.602 102.046 106.602 101.318C106.602 100.581 106.766 99.932 107.092 99.372C107.419 98.812 107.862 98.3733 108.422 98.056C108.982 97.7387 109.622 97.58 110.34 97.58C111.068 97.58 111.712 97.7387 112.272 98.056C112.842 98.3733 113.285 98.812 113.602 99.372C113.929 99.932 114.092 100.581 114.092 101.318C114.092 102.046 113.929 102.695 113.602 103.264C113.285 103.824 112.842 104.267 112.272 104.594C111.703 104.911 111.059 105.07 110.34 105.07ZM110.34 104.188C110.872 104.188 111.344 104.071 111.754 103.838C112.165 103.595 112.487 103.259 112.72 102.83C112.963 102.391 113.084 101.887 113.084 101.318C113.084 100.739 112.963 100.235 112.72 99.806C112.487 99.3767 112.165 99.0453 111.754 98.812C111.344 98.5693 110.877 98.448 110.354 98.448C109.832 98.448 109.365 98.5693 108.954 98.812C108.544 99.0453 108.217 99.3767 107.974 99.806C107.732 100.235 107.61 100.739 107.61 101.318C107.61 101.887 107.732 102.391 107.974 102.83C108.217 103.259 108.544 103.595 108.954 103.838C109.365 104.071 109.827 104.188 110.34 104.188ZM119.297 105.07C118.569 105.07 117.915 104.911 117.337 104.594C116.767 104.267 116.319 103.824 115.993 103.264C115.666 102.695 115.503 102.046 115.503 101.318C115.503 100.581 115.666 99.932 115.993 99.372C116.319 98.812 116.767 98.3733 117.337 98.056C117.915 97.7387 118.569 97.58 119.297 97.58C119.922 97.58 120.487 97.7013 120.991 97.944C121.495 98.1867 121.891 98.5507 122.181 99.036L121.439 99.54C121.187 99.1667 120.874 98.8913 120.501 98.714C120.127 98.5367 119.721 98.448 119.283 98.448C118.76 98.448 118.289 98.5693 117.869 98.812C117.449 99.0453 117.117 99.3767 116.875 99.806C116.632 100.235 116.511 100.739 116.511 101.318C116.511 101.897 116.632 102.401 116.875 102.83C117.117 103.259 117.449 103.595 117.869 103.838C118.289 104.071 118.76 104.188 119.283 104.188C119.721 104.188 120.127 104.099 120.501 103.922C120.874 103.745 121.187 103.474 121.439 103.11L122.181 103.614C121.891 104.09 121.495 104.454 120.991 104.706C120.487 104.949 119.922 105.07 119.297 105.07ZM127.899 105.07C127.265 105.07 126.691 104.925 126.177 104.636C125.664 104.337 125.253 103.913 124.945 103.362C124.647 102.802 124.497 102.121 124.497 101.318C124.497 100.515 124.647 99.8387 124.945 99.288C125.244 98.728 125.65 98.3033 126.163 98.014C126.677 97.7247 127.255 97.58 127.899 97.58C128.599 97.58 129.225 97.7387 129.775 98.056C130.335 98.364 130.774 98.8027 131.091 99.372C131.409 99.932 131.567 100.581 131.567 101.318C131.567 102.065 131.409 102.718 131.091 103.278C130.774 103.838 130.335 104.277 129.775 104.594C129.225 104.911 128.599 105.07 127.899 105.07ZM124.105 107.716V97.65H125.057V99.862L124.959 101.332L125.099 102.816V107.716H124.105ZM127.829 104.188C128.352 104.188 128.819 104.071 129.229 103.838C129.64 103.595 129.967 103.259 130.209 102.83C130.452 102.391 130.573 101.887 130.573 101.318C130.573 100.749 130.452 100.249 130.209 99.82C129.967 99.3907 129.64 99.0547 129.229 98.812C128.819 98.5693 128.352 98.448 127.829 98.448C127.307 98.448 126.835 98.5693 126.415 98.812C126.005 99.0547 125.678 99.3907 125.435 99.82C125.202 100.249 125.085 100.749 125.085 101.318C125.085 101.887 125.202 102.391 125.435 102.83C125.678 103.259 126.005 103.595 126.415 103.838C126.835 104.071 127.307 104.188 127.829 104.188ZM136.853 105.07C136.088 105.07 135.416 104.911 134.837 104.594C134.258 104.267 133.806 103.824 133.479 103.264C133.152 102.695 132.989 102.046 132.989 101.318C132.989 100.59 133.143 99.946 133.451 99.386C133.768 98.826 134.198 98.3873 134.739 98.07C135.29 97.7433 135.906 97.58 136.587 97.58C137.278 97.58 137.889 97.7387 138.421 98.056C138.962 98.364 139.387 98.8027 139.695 99.372C140.003 99.932 140.157 100.581 140.157 101.318C140.157 101.365 140.152 101.416 140.143 101.472C140.143 101.519 140.143 101.57 140.143 101.626H133.745V100.884H139.611L139.219 101.178C139.219 100.646 139.102 100.175 138.869 99.764C138.645 99.344 138.337 99.0173 137.945 98.784C137.553 98.5507 137.1 98.434 136.587 98.434C136.083 98.434 135.63 98.5507 135.229 98.784C134.828 99.0173 134.515 99.344 134.291 99.764C134.067 100.184 133.955 100.665 133.955 101.206V101.36C133.955 101.92 134.076 102.415 134.319 102.844C134.571 103.264 134.916 103.595 135.355 103.838C135.803 104.071 136.312 104.188 136.881 104.188C137.329 104.188 137.744 104.109 138.127 103.95C138.519 103.791 138.855 103.549 139.135 103.222L139.695 103.866C139.368 104.258 138.958 104.557 138.463 104.762C137.978 104.967 137.441 105.07 136.853 105.07ZM147.247 104.524V98.518H143.705L143.621 100.156C143.602 100.651 143.57 101.136 143.523 101.612C143.486 102.088 143.416 102.527 143.313 102.928C143.22 103.32 143.084 103.642 142.907 103.894C142.73 104.137 142.501 104.277 142.221 104.314L141.227 104.132C141.516 104.141 141.754 104.039 141.941 103.824C142.128 103.6 142.272 103.297 142.375 102.914C142.478 102.531 142.552 102.097 142.599 101.612C142.646 101.117 142.683 100.613 142.711 100.1L142.809 97.65H148.241V104.524H147.247ZM140.919 106.778V104.132H149.389V106.778H148.451V105H141.857V106.778H140.919ZM151.326 105V97.65H152.32V100.898H156.954V97.65H157.948V105H156.954V101.752H152.32V105H151.326ZM160.773 105V97.65H161.767V103.488L166.681 97.65H167.563V105H166.569V99.148L161.669 105H160.773ZM175.802 105L172.778 101.36L173.604 100.87L176.978 105H175.802ZM170.412 105V97.65H171.406V105H170.412ZM171.098 101.724V100.87H173.464V101.724H171.098ZM173.688 101.43L172.764 101.29L175.69 97.65H176.768L173.688 101.43ZM181.311 105.07C180.602 105.07 179.962 104.911 179.393 104.594C178.833 104.267 178.39 103.824 178.063 103.264C177.736 102.695 177.573 102.046 177.573 101.318C177.573 100.581 177.736 99.932 178.063 99.372C178.39 98.812 178.833 98.3733 179.393 98.056C179.953 97.7387 180.592 97.58 181.311 97.58C182.039 97.58 182.683 97.7387 183.243 98.056C183.812 98.3733 184.256 98.812 184.573 99.372C184.9 99.932 185.063 100.581 185.063 101.318C185.063 102.046 184.9 102.695 184.573 103.264C184.256 103.824 183.812 104.267 183.243 104.594C182.674 104.911 182.03 105.07 181.311 105.07ZM181.311 104.188C181.843 104.188 182.314 104.071 182.725 103.838C183.136 103.595 183.458 103.259 183.691 102.83C183.934 102.391 184.055 101.887 184.055 101.318C184.055 100.739 183.934 100.235 183.691 99.806C183.458 99.3767 183.136 99.0453 182.725 98.812C182.314 98.5693 181.848 98.448 181.325 98.448C180.802 98.448 180.336 98.5693 179.925 98.812C179.514 99.0453 179.188 99.3767 178.945 99.806C178.702 100.235 178.581 100.739 178.581 101.318C178.581 101.887 178.702 102.391 178.945 102.83C179.188 103.259 179.514 103.595 179.925 103.838C180.336 104.071 180.798 104.188 181.311 104.188ZM187.187 105V97.65H190.435C191.266 97.65 191.919 97.8087 192.395 98.126C192.881 98.4433 193.123 98.91 193.123 99.526C193.123 100.123 192.895 100.585 192.437 100.912C191.98 101.229 191.378 101.388 190.631 101.388L190.827 101.094C191.705 101.094 192.349 101.257 192.759 101.584C193.17 101.911 193.375 102.382 193.375 102.998C193.375 103.633 193.142 104.127 192.675 104.482C192.218 104.827 191.504 105 190.533 105H187.187ZM188.153 104.216H190.491C191.117 104.216 191.588 104.118 191.905 103.922C192.232 103.717 192.395 103.39 192.395 102.942C192.395 102.494 192.251 102.167 191.961 101.962C191.672 101.757 191.215 101.654 190.589 101.654H188.153V104.216ZM188.153 100.912H190.365C190.935 100.912 191.369 100.805 191.667 100.59C191.975 100.375 192.129 100.063 192.129 99.652C192.129 99.2413 191.975 98.9333 191.667 98.728C191.369 98.5227 190.935 98.42 190.365 98.42H188.153V100.912ZM199.369 105V97.65H200.363V103.488L205.277 97.65H206.159V105H205.165V99.148L200.265 105H199.369ZM217.236 105V103.376L217.194 103.11V100.394C217.194 99.7687 217.016 99.288 216.662 98.952C216.316 98.616 215.798 98.448 215.108 98.448C214.632 98.448 214.179 98.5273 213.75 98.686C213.32 98.8447 212.956 99.0547 212.658 99.316L212.21 98.574C212.583 98.2567 213.031 98.014 213.554 97.846C214.076 97.6687 214.627 97.58 215.206 97.58C216.158 97.58 216.89 97.818 217.404 98.294C217.926 98.7607 218.188 99.4747 218.188 100.436V105H217.236ZM214.702 105.07C214.151 105.07 213.67 104.981 213.26 104.804C212.858 104.617 212.55 104.365 212.336 104.048C212.121 103.721 212.014 103.348 212.014 102.928C212.014 102.545 212.102 102.2 212.28 101.892C212.466 101.575 212.765 101.323 213.176 101.136C213.596 100.94 214.156 100.842 214.856 100.842H217.39V101.584H214.884C214.174 101.584 213.68 101.71 213.4 101.962C213.129 102.214 212.994 102.527 212.994 102.9C212.994 103.32 213.157 103.656 213.484 103.908C213.81 104.16 214.268 104.286 214.856 104.286C215.416 104.286 215.896 104.16 216.298 103.908C216.708 103.647 217.007 103.273 217.194 102.788L217.418 103.474C217.231 103.959 216.904 104.347 216.438 104.636C215.98 104.925 215.402 105.07 214.702 105.07ZM220.834 105V97.65H226.042V98.518H221.576L221.828 98.266V105H220.834ZM230.287 105.07C229.521 105.07 228.849 104.911 228.271 104.594C227.692 104.267 227.239 103.824 226.913 103.264C226.586 102.695 226.423 102.046 226.423 101.318C226.423 100.59 226.577 99.946 226.885 99.386C227.202 98.826 227.631 98.3873 228.173 98.07C228.723 97.7433 229.339 97.58 230.021 97.58C230.711 97.58 231.323 97.7387 231.855 98.056C232.396 98.364 232.821 98.8027 233.129 99.372C233.437 99.932 233.591 100.581 233.591 101.318C233.591 101.365 233.586 101.416 233.577 101.472C233.577 101.519 233.577 101.57 233.577 101.626H227.179V100.884H233.045L232.653 101.178C232.653 100.646 232.536 100.175 232.303 99.764C232.079 99.344 231.771 99.0173 231.379 98.784C230.987 98.5507 230.534 98.434 230.021 98.434C229.517 98.434 229.064 98.5507 228.663 98.784C228.261 99.0173 227.949 99.344 227.725 99.764C227.501 100.184 227.389 100.665 227.389 101.206V101.36C227.389 101.92 227.51 102.415 227.753 102.844C228.005 103.264 228.35 103.595 228.789 103.838C229.237 104.071 229.745 104.188 230.315 104.188C230.763 104.188 231.178 104.109 231.561 103.95C231.953 103.791 232.289 103.549 232.569 103.222L233.129 103.866C232.802 104.258 232.391 104.557 231.897 104.762C231.411 104.967 230.875 105.07 230.287 105.07ZM235.791 105V97.65H236.785V100.898H241.419V97.65H242.413V105H241.419V101.752H236.785V105H235.791ZM246.638 105V98.252L246.89 98.518H243.852V97.65H250.418V98.518H247.38L247.632 98.252V105H246.638ZM254.594 105.07C253.866 105.07 253.212 104.911 252.634 104.594C252.064 104.267 251.616 103.824 251.29 103.264C250.963 102.695 250.8 102.046 250.8 101.318C250.8 100.581 250.963 99.932 251.29 99.372C251.616 98.812 252.064 98.3733 252.634 98.056C253.212 97.7387 253.866 97.58 254.594 97.58C255.219 97.58 255.784 97.7013 256.288 97.944C256.792 98.1867 257.188 98.5507 257.478 99.036L256.736 99.54C256.484 99.1667 256.171 98.8913 255.798 98.714C255.424 98.5367 255.018 98.448 254.58 98.448C254.057 98.448 253.586 98.5693 253.166 98.812C252.746 99.0453 252.414 99.3767 252.172 99.806C251.929 100.235 251.808 100.739 251.808 101.318C251.808 101.897 251.929 102.401 252.172 102.83C252.414 103.259 252.746 103.595 253.166 103.838C253.586 104.071 254.057 104.188 254.58 104.188C255.018 104.188 255.424 104.099 255.798 103.922C256.171 103.745 256.484 103.474 256.736 103.11L257.478 103.614C257.188 104.09 256.792 104.454 256.288 104.706C255.784 104.949 255.219 105.07 254.594 105.07ZM260.666 105V98.252L260.918 98.518H257.88V97.65H264.446V98.518H261.408L261.66 98.252V105H260.666ZM271.273 105L268.249 101.36L269.075 100.87L272.449 105H271.273ZM265.883 105V97.65H266.877V105H265.883ZM266.569 101.724V100.87H268.935V101.724H266.569ZM269.159 101.43L268.235 101.29L271.161 97.65H272.239L269.159 101.43ZM276.782 105.07C276.072 105.07 275.433 104.911 274.864 104.594C274.304 104.267 273.86 103.824 273.534 103.264C273.207 102.695 273.044 102.046 273.044 101.318C273.044 100.581 273.207 99.932 273.534 99.372C273.86 98.812 274.304 98.3733 274.864 98.056C275.424 97.7387 276.063 97.58 276.782 97.58C277.51 97.58 278.154 97.7387 278.714 98.056C279.283 98.3733 279.726 98.812 280.044 99.372C280.37 99.932 280.534 100.581 280.534 101.318C280.534 102.046 280.37 102.695 280.044 103.264C279.726 103.824 279.283 104.267 278.714 104.594C278.144 104.911 277.5 105.07 276.782 105.07ZM276.782 104.188C277.314 104.188 277.785 104.071 278.196 103.838C278.606 103.595 278.928 103.259 279.162 102.83C279.404 102.391 279.526 101.887 279.526 101.318C279.526 100.739 279.404 100.235 279.162 99.806C278.928 99.3767 278.606 99.0453 278.196 98.812C277.785 98.5693 277.318 98.448 276.796 98.448C276.273 98.448 275.806 98.5693 275.396 98.812C274.985 99.0453 274.658 99.3767 274.416 99.806C274.173 100.235 274.052 100.739 274.052 101.318C274.052 101.887 274.173 102.391 274.416 102.83C274.658 103.259 274.985 103.595 275.396 103.838C275.806 104.071 276.268 104.188 276.782 104.188ZM282.658 105V97.65H283.652V103.488L288.566 97.65H289.448V105H288.454V99.148L283.554 105H282.658ZM285.99 96.586C285.374 96.586 284.875 96.432 284.492 96.124C284.119 95.8067 283.923 95.354 283.904 94.766H284.618C284.627 95.1393 284.758 95.4333 285.01 95.648C285.262 95.8627 285.589 95.97 285.99 95.97C286.391 95.97 286.718 95.8627 286.97 95.648C287.231 95.4333 287.367 95.1393 287.376 94.766H288.09C288.081 95.354 287.885 95.8067 287.502 96.124C287.119 96.432 286.615 96.586 285.99 96.586ZM6.804 125L3.78 121.36L4.606 120.87L7.98 125H6.804ZM1.414 125V117.65H2.408V125H1.414ZM2.1 121.724V120.87H4.466V121.724H2.1ZM4.69 121.43L3.766 121.29L6.692 117.65H7.77L4.69 121.43ZM12.313 125.07C11.6037 125.07 10.9643 124.911 10.395 124.594C9.835 124.267 9.39167 123.824 9.065 123.264C8.73833 122.695 8.575 122.046 8.575 121.318C8.575 120.581 8.73833 119.932 9.065 119.372C9.39167 118.812 9.835 118.373 10.395 118.056C10.955 117.739 11.5943 117.58 12.313 117.58C13.041 117.58 13.685 117.739 14.245 118.056C14.8143 118.373 15.2577 118.812 15.575 119.372C15.9017 119.932 16.065 120.581 16.065 121.318C16.065 122.046 15.9017 122.695 15.575 123.264C15.2577 123.824 14.8143 124.267 14.245 124.594C13.6757 124.911 13.0317 125.07 12.313 125.07ZM12.313 124.188C12.845 124.188 13.3163 124.071 13.727 123.838C14.1377 123.595 14.4597 123.259 14.693 122.83C14.9357 122.391 15.057 121.887 15.057 121.318C15.057 120.739 14.9357 120.235 14.693 119.806C14.4597 119.377 14.1377 119.045 13.727 118.812C13.3163 118.569 12.8497 118.448 12.327 118.448C11.8043 118.448 11.3377 118.569 10.927 118.812C10.5163 119.045 10.1897 119.377 9.947 119.806C9.70433 120.235 9.583 120.739 9.583 121.318C9.583 121.887 9.70433 122.391 9.947 122.83C10.1897 123.259 10.5163 123.595 10.927 123.838C11.3377 124.071 11.7997 124.188 12.313 124.188ZM18.1894 125V117.65H19.1974L22.5294 123.292H22.1094L25.4974 117.65H26.4214V125H25.5114V118.784L25.6934 118.868L22.5294 124.104H22.0814L18.8894 118.812L19.0994 118.77V125H18.1894ZM29.2499 125V117.65H30.2439V123.488L35.1579 117.65H36.0399V125H35.0459V119.148L30.1459 125H29.2499ZM41.9686 125.07C41.2406 125.07 40.5873 124.911 40.0086 124.594C39.4393 124.267 38.9913 123.824 38.6646 123.264C38.3379 122.695 38.1746 122.046 38.1746 121.318C38.1746 120.581 38.3379 119.932 38.6646 119.372C38.9913 118.812 39.4393 118.373 40.0086 118.056C40.5873 117.739 41.2406 117.58 41.9686 117.58C42.5939 117.58 43.1586 117.701 43.6626 117.944C44.1666 118.187 44.5633 118.551 44.8526 119.036L44.1106 119.54C43.8586 119.167 43.5459 118.891 43.1726 118.714C42.7993 118.537 42.3933 118.448 41.9546 118.448C41.4319 118.448 40.9606 118.569 40.5406 118.812C40.1206 119.045 39.7893 119.377 39.5466 119.806C39.3039 120.235 39.1826 120.739 39.1826 121.318C39.1826 121.897 39.3039 122.401 39.5466 122.83C39.7893 123.259 40.1206 123.595 40.5406 123.838C40.9606 124.071 41.4319 124.188 41.9546 124.188C42.3933 124.188 42.7993 124.099 43.1726 123.922C43.5459 123.745 43.8586 123.474 44.1106 123.11L44.8526 123.614C44.5633 124.09 44.1666 124.454 43.6626 124.706C43.1586 124.949 42.5939 125.07 41.9686 125.07ZM49.7342 125.07C49.0062 125.07 48.3529 124.911 47.7742 124.594C47.2049 124.267 46.7569 123.824 46.4302 123.264C46.1036 122.695 45.9402 122.046 45.9402 121.318C45.9402 120.581 46.1036 119.932 46.4302 119.372C46.7569 118.812 47.2049 118.373 47.7742 118.056C48.3529 117.739 49.0062 117.58 49.7342 117.58C50.3596 117.58 50.9242 117.701 51.4282 117.944C51.9322 118.187 52.3289 118.551 52.6182 119.036L51.8762 119.54C51.6242 119.167 51.3116 118.891 50.9382 118.714C50.5649 118.537 50.1589 118.448 49.7202 118.448C49.1976 118.448 48.7262 118.569 48.3062 118.812C47.8862 119.045 47.5549 119.377 47.3122 119.806C47.0696 120.235 46.9482 120.739 46.9482 121.318C46.9482 121.897 47.0696 122.401 47.3122 122.83C47.5549 123.259 47.8862 123.595 48.3062 123.838C48.7262 124.071 49.1976 124.188 49.7202 124.188C50.1589 124.188 50.5649 124.099 50.9382 123.922C51.3116 123.745 51.6242 123.474 51.8762 123.11L52.6182 123.614C52.3289 124.09 51.9322 124.454 51.4282 124.706C50.9242 124.949 50.3596 125.07 49.7342 125.07ZM54.5429 125V117.65H55.5369V123.488L60.4509 117.65H61.3329V125H60.3389V119.148L55.4389 125H54.5429ZM67.8456 125V117.65H68.8536L72.1856 123.292H71.7656L75.1536 117.65H76.0776V125H75.1676V118.784L75.3496 118.868L72.1856 124.104H71.7376L68.5456 118.812L68.7556 118.77V125H67.8456ZM83.4702 125V123.376L83.4282 123.11V120.394C83.4282 119.769 83.2509 119.288 82.8962 118.952C82.5509 118.616 82.0329 118.448 81.3422 118.448C80.8662 118.448 80.4135 118.527 79.9842 118.686C79.5549 118.845 79.1909 119.055 78.8922 119.316L78.4442 118.574C78.8175 118.257 79.2655 118.014 79.7882 117.846C80.3109 117.669 80.8615 117.58 81.4402 117.58C82.3922 117.58 83.1249 117.818 83.6382 118.294C84.1609 118.761 84.4222 119.475 84.4222 120.436V125H83.4702ZM80.9362 125.07C80.3855 125.07 79.9049 124.981 79.4942 124.804C79.0929 124.617 78.7849 124.365 78.5702 124.048C78.3555 123.721 78.2482 123.348 78.2482 122.928C78.2482 122.545 78.3369 122.2 78.5142 121.892C78.7009 121.575 78.9995 121.323 79.4102 121.136C79.8302 120.94 80.3902 120.842 81.0902 120.842H83.6242V121.584H81.1182C80.4089 121.584 79.9142 121.71 79.6342 121.962C79.3635 122.214 79.2282 122.527 79.2282 122.9C79.2282 123.32 79.3915 123.656 79.7182 123.908C80.0449 124.16 80.5022 124.286 81.0902 124.286C81.6502 124.286 82.1309 124.16 82.5322 123.908C82.9429 123.647 83.2415 123.273 83.4282 122.788L83.6522 123.474C83.4655 123.959 83.1389 124.347 82.6722 124.636C82.2149 124.925 81.6362 125.07 80.9362 125.07ZM90.8623 125.07C90.2276 125.07 89.6536 124.925 89.1403 124.636C88.627 124.337 88.2163 123.913 87.9083 123.362C87.6096 122.802 87.4603 122.121 87.4603 121.318C87.4603 120.515 87.6096 119.839 87.9083 119.288C88.207 118.728 88.613 118.303 89.1263 118.014C89.6396 117.725 90.2183 117.58 90.8623 117.58C91.5623 117.58 92.1876 117.739 92.7383 118.056C93.2983 118.364 93.737 118.803 94.0543 119.372C94.3716 119.932 94.5303 120.581 94.5303 121.318C94.5303 122.065 94.3716 122.718 94.0543 123.278C93.737 123.838 93.2983 124.277 92.7383 124.594C92.1876 124.911 91.5623 125.07 90.8623 125.07ZM87.0683 127.716V117.65H88.0203V119.862L87.9223 121.332L88.0623 122.816V127.716H87.0683ZM90.7923 124.188C91.315 124.188 91.7816 124.071 92.1923 123.838C92.603 123.595 92.9296 123.259 93.1723 122.83C93.415 122.391 93.5363 121.887 93.5363 121.318C93.5363 120.749 93.415 120.249 93.1723 119.82C92.9296 119.391 92.603 119.055 92.1923 118.812C91.7816 118.569 91.315 118.448 90.7923 118.448C90.2696 118.448 89.7983 118.569 89.3783 118.812C88.9676 119.055 88.641 119.391 88.3983 119.82C88.165 120.249 88.0483 120.749 88.0483 121.318C88.0483 121.887 88.165 122.391 88.3983 122.83C88.641 123.259 88.9676 123.595 89.3783 123.838C89.7983 124.071 90.2696 124.188 90.7923 124.188ZM102.056 125L99.032 121.36L99.858 120.87L103.232 125H102.056ZM96.666 125V117.65H97.66V125H96.666ZM97.352 121.724V120.87H99.718V121.724H97.352ZM99.942 121.43L99.018 121.29L101.944 117.65H103.022L99.942 121.43ZM107.691 125.07C106.926 125.07 106.254 124.911 105.675 124.594C105.096 124.267 104.644 123.824 104.317 123.264C103.99 122.695 103.827 122.046 103.827 121.318C103.827 120.59 103.981 119.946 104.289 119.386C104.606 118.826 105.036 118.387 105.577 118.07C106.128 117.743 106.744 117.58 107.425 117.58C108.116 117.58 108.727 117.739 109.259 118.056C109.8 118.364 110.225 118.803 110.533 119.372C110.841 119.932 110.995 120.581 110.995 121.318C110.995 121.365 110.99 121.416 110.981 121.472C110.981 121.519 110.981 121.57 110.981 121.626H104.583V120.884H110.449L110.057 121.178C110.057 120.646 109.94 120.175 109.707 119.764C109.483 119.344 109.175 119.017 108.783 118.784C108.391 118.551 107.938 118.434 107.425 118.434C106.921 118.434 106.468 118.551 106.067 118.784C105.666 119.017 105.353 119.344 105.129 119.764C104.905 120.184 104.793 120.665 104.793 121.206V121.36C104.793 121.92 104.914 122.415 105.157 122.844C105.409 123.264 105.754 123.595 106.193 123.838C106.641 124.071 107.15 124.188 107.719 124.188C108.167 124.188 108.582 124.109 108.965 123.95C109.357 123.791 109.693 123.549 109.973 123.222L110.533 123.866C110.206 124.258 109.796 124.557 109.301 124.762C108.816 124.967 108.279 125.07 107.691 125.07ZM114.267 125V118.252L114.519 118.518H111.481V117.65H118.047V118.518H115.009L115.261 118.252V125H114.267ZM119.484 125V117.65H126.092V125H125.098V118.252L125.35 118.518H120.226L120.478 118.252V125H119.484ZM127.574 124.986L127.644 124.132C127.709 124.141 127.77 124.155 127.826 124.174C127.891 124.183 127.947 124.188 127.994 124.188C128.293 124.188 128.531 124.076 128.708 123.852C128.895 123.628 129.035 123.329 129.128 122.956C129.221 122.583 129.287 122.163 129.324 121.696C129.361 121.22 129.394 120.744 129.422 120.268L129.548 117.65H134.938V125H133.944V118.224L134.196 118.518H130.192L130.43 118.21L130.318 120.338C130.29 120.973 130.239 121.579 130.164 122.158C130.099 122.737 129.991 123.245 129.842 123.684C129.702 124.123 129.506 124.468 129.254 124.72C129.002 124.963 128.68 125.084 128.288 125.084C128.176 125.084 128.059 125.075 127.938 125.056C127.826 125.037 127.705 125.014 127.574 124.986ZM140.914 125.07C140.148 125.07 139.476 124.911 138.898 124.594C138.319 124.267 137.866 123.824 137.54 123.264C137.213 122.695 137.05 122.046 137.05 121.318C137.05 120.59 137.204 119.946 137.512 119.386C137.829 118.826 138.258 118.387 138.8 118.07C139.35 117.743 139.966 117.58 140.648 117.58C141.338 117.58 141.95 117.739 142.482 118.056C143.023 118.364 143.448 118.803 143.756 119.372C144.064 119.932 144.218 120.581 144.218 121.318C144.218 121.365 144.213 121.416 144.204 121.472C144.204 121.519 144.204 121.57 144.204 121.626H137.806V120.884H143.672L143.28 121.178C143.28 120.646 143.163 120.175 142.93 119.764C142.706 119.344 142.398 119.017 142.006 118.784C141.614 118.551 141.161 118.434 140.648 118.434C140.144 118.434 139.691 118.551 139.29 118.784C138.888 119.017 138.576 119.344 138.352 119.764C138.128 120.184 138.016 120.665 138.016 121.206V121.36C138.016 121.92 138.137 122.415 138.38 122.844C138.632 123.264 138.977 123.595 139.416 123.838C139.864 124.071 140.372 124.188 140.942 124.188C141.39 124.188 141.805 124.109 142.188 123.95C142.58 123.791 142.916 123.549 143.196 123.222L143.756 123.866C143.429 124.258 143.018 124.557 142.524 124.762C142.038 124.967 141.502 125.07 140.914 125.07ZM146.418 125V117.65H147.412V123.488L152.326 117.65H153.208V125H152.214V119.148L147.314 125H146.418ZM149.75 116.586C149.134 116.586 148.635 116.432 148.252 116.124C147.879 115.807 147.683 115.354 147.664 114.766H148.378C148.387 115.139 148.518 115.433 148.77 115.648C149.022 115.863 149.349 115.97 149.75 115.97C150.151 115.97 150.478 115.863 150.73 115.648C150.991 115.433 151.127 115.139 151.136 114.766H151.85C151.841 115.354 151.645 115.807 151.262 116.124C150.879 116.432 150.375 116.586 149.75 116.586ZM159.137 125.07C158.409 125.07 157.755 124.911 157.177 124.594C156.607 124.267 156.159 123.824 155.833 123.264C155.506 122.695 155.343 122.046 155.343 121.318C155.343 120.581 155.506 119.932 155.833 119.372C156.159 118.812 156.607 118.373 157.177 118.056C157.755 117.739 158.409 117.58 159.137 117.58C159.762 117.58 160.327 117.701 160.831 117.944C161.335 118.187 161.731 118.551 162.021 119.036L161.279 119.54C161.027 119.167 160.714 118.891 160.341 118.714C159.967 118.537 159.561 118.448 159.123 118.448C158.6 118.448 158.129 118.569 157.709 118.812C157.289 119.045 156.957 119.377 156.715 119.806C156.472 120.235 156.351 120.739 156.351 121.318C156.351 121.897 156.472 122.401 156.715 122.83C156.957 123.259 157.289 123.595 157.709 123.838C158.129 124.071 158.6 124.188 159.123 124.188C159.561 124.188 159.967 124.099 160.341 123.922C160.714 123.745 161.027 123.474 161.279 123.11L162.021 123.614C161.731 124.09 161.335 124.454 160.831 124.706C160.327 124.949 159.762 125.07 159.137 125.07ZM166.846 125.07C166.137 125.07 165.498 124.911 164.928 124.594C164.368 124.267 163.925 123.824 163.598 123.264C163.272 122.695 163.108 122.046 163.108 121.318C163.108 120.581 163.272 119.932 163.598 119.372C163.925 118.812 164.368 118.373 164.928 118.056C165.488 117.739 166.128 117.58 166.846 117.58C167.574 117.58 168.218 117.739 168.778 118.056C169.348 118.373 169.791 118.812 170.108 119.372C170.435 119.932 170.598 120.581 170.598 121.318C170.598 122.046 170.435 122.695 170.108 123.264C169.791 123.824 169.348 124.267 168.778 124.594C168.209 124.911 167.565 125.07 166.846 125.07ZM166.846 124.188C167.378 124.188 167.85 124.071 168.26 123.838C168.671 123.595 168.993 123.259 169.226 122.83C169.469 122.391 169.59 121.887 169.59 121.318C169.59 120.739 169.469 120.235 169.226 119.806C168.993 119.377 168.671 119.045 168.26 118.812C167.85 118.569 167.383 118.448 166.86 118.448C166.338 118.448 165.871 118.569 165.46 118.812C165.05 119.045 164.723 119.377 164.48 119.806C164.238 120.235 164.116 120.739 164.116 121.318C164.116 121.887 164.238 122.391 164.48 122.83C164.723 123.259 165.05 123.595 165.46 123.838C165.871 124.071 166.333 124.188 166.846 124.188ZM172.723 125V117.65H175.971C176.801 117.65 177.455 117.809 177.931 118.126C178.416 118.443 178.659 118.91 178.659 119.526C178.659 120.123 178.43 120.585 177.973 120.912C177.515 121.229 176.913 121.388 176.167 121.388L176.363 121.094C177.24 121.094 177.884 121.257 178.295 121.584C178.705 121.911 178.911 122.382 178.911 122.998C178.911 123.633 178.677 124.127 178.211 124.482C177.753 124.827 177.039 125 176.069 125H172.723ZM173.689 124.216H176.027C176.652 124.216 177.123 124.118 177.441 123.922C177.767 123.717 177.931 123.39 177.931 122.942C177.931 122.494 177.786 122.167 177.497 121.962C177.207 121.757 176.75 121.654 176.125 121.654H173.689V124.216ZM173.689 120.912H175.901C176.47 120.912 176.904 120.805 177.203 120.59C177.511 120.375 177.665 120.063 177.665 119.652C177.665 119.241 177.511 118.933 177.203 118.728C176.904 118.523 176.47 118.42 175.901 118.42H173.689V120.912Z" fill="#141414"/>
</svg>
