<svg width="270" height="162" viewBox="0 0 270 162" fill="none" xmlns="http://www.w3.org/2000/svg">
<path d="M0.16 22L6.4 8H9.6L15.86 22H12.46L7.34 9.64H8.62L3.48 22H0.16ZM3.28 19L4.14 16.54H11.34L12.22 19H3.28ZM17.4766 22V11.24H22.9766C24.3232 11.24 25.3766 11.4867 26.1366 11.98C26.8966 12.46 27.2766 13.14 27.2766 14.02C27.2766 14.9 26.9166 15.5933 26.1966 16.1C25.4899 16.5933 24.5499 16.84 23.3766 16.84L23.6966 16.12C25.0032 16.12 25.9766 16.36 26.6166 16.84C27.2699 17.32 27.5966 18.02 27.5966 18.94C27.5966 19.8867 27.2366 20.6333 26.5166 21.18C25.7966 21.7267 24.6966 22 23.2166 22H17.4766ZM20.3366 19.88H22.9566C23.5299 19.88 23.9566 19.7867 24.2366 19.6C24.5299 19.4 24.6766 19.1 24.6766 18.7C24.6766 18.2867 24.5432 17.9867 24.2766 17.8C24.0099 17.6 23.5899 17.5 23.0166 17.5H20.3366V19.88ZM20.3366 15.66H22.6966C23.2432 15.66 23.6499 15.56 23.9166 15.36C24.1966 15.16 24.3366 14.8733 24.3366 14.5C24.3366 14.1133 24.1966 13.8267 23.9166 13.64C23.6499 13.4533 23.2432 13.36 22.6966 13.36H20.3366V15.66ZM32.218 22V13.08L32.918 13.8H28.578V11.24H38.958V13.8H34.618L35.318 13.08V22H32.218ZM45.2119 22.16C44.0652 22.16 43.0452 21.92 42.1519 21.44C41.2719 20.96 40.5719 20.3067 40.0519 19.48C39.5452 18.64 39.2919 17.6867 39.2919 16.62C39.2919 15.54 39.5452 14.5867 40.0519 13.76C40.5719 12.92 41.2719 12.2667 42.1519 11.8C43.0452 11.32 44.0652 11.08 45.2119 11.08C46.3452 11.08 47.3585 11.32 48.2519 11.8C49.1452 12.2667 49.8452 12.9133 50.3519 13.74C50.8585 14.5667 51.1119 15.5267 51.1119 16.62C51.1119 17.6867 50.8585 18.64 50.3519 19.48C49.8452 20.3067 49.1452 20.96 48.2519 21.44C47.3585 21.92 46.3452 22.16 45.2119 22.16ZM45.2119 19.6C45.7319 19.6 46.1985 19.48 46.6119 19.24C47.0252 19 47.3519 18.66 47.5919 18.22C47.8319 17.7667 47.9519 17.2333 47.9519 16.62C47.9519 15.9933 47.8319 15.46 47.5919 15.02C47.3519 14.58 47.0252 14.24 46.6119 14C46.1985 13.76 45.7319 13.64 45.2119 13.64C44.6919 13.64 44.2252 13.76 43.8119 14C43.3985 14.24 43.0652 14.58 42.8119 15.02C42.5719 15.46 42.4519 15.9933 42.4519 16.62C42.4519 17.2333 42.5719 17.7667 42.8119 18.22C43.0652 18.66 43.3985 19 43.8119 19.24C44.2252 19.48 44.6919 19.6 45.2119 19.6ZM60.0378 17.88C59.5978 18.12 59.1111 18.3133 58.5778 18.46C58.0445 18.6067 57.4578 18.68 56.8178 18.68C55.4045 18.68 54.3178 18.36 53.5578 17.72C52.7978 17.0667 52.4178 16.0333 52.4178 14.62V11.24H55.5378V14.42C55.5378 15.0867 55.7111 15.5667 56.0578 15.86C56.4045 16.14 56.8911 16.28 57.5178 16.28C57.9711 16.28 58.4045 16.2267 58.8178 16.12C59.2445 16.0133 59.6511 15.86 60.0378 15.66V17.88ZM59.8178 22V11.24H62.9378V22H59.8178ZM71.1936 22.16C69.9669 22.16 68.8869 21.92 67.9536 21.44C67.0336 20.96 66.3203 20.3067 65.8136 19.48C65.3069 18.64 65.0536 17.6867 65.0536 16.62C65.0536 15.54 65.3003 14.5867 65.7936 13.76C66.3003 12.92 66.9869 12.2667 67.8536 11.8C68.7203 11.32 69.7003 11.08 70.7936 11.08C71.8469 11.08 72.7936 11.3067 73.6336 11.76C74.4869 12.2 75.1603 12.84 75.6536 13.68C76.1469 14.5067 76.3936 15.5 76.3936 16.66C76.3936 16.78 76.3869 16.92 76.3736 17.08C76.3603 17.2267 76.3469 17.3667 76.3336 17.5H67.5936V15.68H74.6936L73.4936 16.22C73.4936 15.66 73.3803 15.1733 73.1536 14.76C72.9269 14.3467 72.6136 14.0267 72.2136 13.8C71.8136 13.56 71.3469 13.44 70.8136 13.44C70.2803 13.44 69.8069 13.56 69.3936 13.8C68.9936 14.0267 68.6803 14.3533 68.4536 14.78C68.2269 15.1933 68.1136 15.6867 68.1136 16.26V16.74C68.1136 17.3267 68.2403 17.8467 68.4936 18.3C68.7603 18.74 69.1269 19.08 69.5936 19.32C70.0736 19.5467 70.6336 19.66 71.2736 19.66C71.8469 19.66 72.3469 19.5733 72.7736 19.4C73.2136 19.2267 73.6136 18.9667 73.9736 18.62L75.6336 20.42C75.1403 20.98 74.5203 21.4133 73.7736 21.72C73.0269 22.0133 72.1669 22.16 71.1936 22.16ZM77.0522 22L81.8722 15.68L81.8122 17.4L77.1922 11.24H80.6922L83.6122 15.26L82.2922 15.3L85.3122 11.24H88.6322L83.9922 17.34V15.66L88.7922 22H85.2522L82.1922 17.72L83.4922 17.9L80.4522 22H77.0522ZM88.9681 21.98L89.1281 19.42C89.2081 19.4333 89.2881 19.4467 89.3681 19.46C89.4481 19.46 89.5215 19.46 89.5881 19.46C89.9615 19.46 90.2548 19.3533 90.4681 19.14C90.6815 18.9267 90.8415 18.64 90.9481 18.28C91.0548 17.9067 91.1281 17.4867 91.1681 17.02C91.2215 16.5533 91.2615 16.0667 91.2881 15.56L91.4481 11.24H100.648V22H97.5281V13.04L98.2281 13.8H93.5081L94.1681 13L94.0281 15.7C93.9881 16.66 93.9081 17.54 93.7881 18.34C93.6815 19.14 93.5015 19.8333 93.2481 20.42C92.9948 20.9933 92.6548 21.44 92.2281 21.76C91.8015 22.0667 91.2548 22.22 90.5881 22.22C90.3481 22.22 90.0948 22.2 89.8281 22.16C89.5615 22.12 89.2748 22.06 88.9681 21.98ZM114.728 22V11.24H117.828V22H114.728ZM109.308 14.68C110.722 14.6933 111.782 15.0133 112.488 15.64C113.208 16.2533 113.568 17.1267 113.568 18.26C113.568 19.4467 113.162 20.3733 112.348 21.04C111.535 21.6933 110.382 22.02 108.888 22.02L103.648 22V11.24H106.748V14.68H109.308ZM108.608 19.8C109.208 19.8133 109.668 19.6867 109.988 19.42C110.308 19.1533 110.468 18.7533 110.468 18.22C110.468 17.6867 110.308 17.3067 109.988 17.08C109.668 16.84 109.208 16.7133 108.608 16.7L106.748 16.68V19.8H108.608ZM98.6539 55.08L99.9739 50.28L100.414 52.08C99.8406 52.08 99.3672 51.9133 98.9939 51.58C98.6339 51.2467 98.4539 50.7867 98.4539 50.2C98.4539 49.6133 98.6406 49.1467 99.0139 48.8C99.3872 48.4533 99.8472 48.28 100.394 48.28C100.954 48.28 101.414 48.46 101.774 48.82C102.134 49.1667 102.314 49.6267 102.314 50.2C102.314 50.3733 102.301 50.5467 102.274 50.72C102.247 50.88 102.194 51.08 102.114 51.32C102.047 51.5467 101.934 51.84 101.774 52.2L100.634 55.08H98.6539ZM116.932 47.88C116.492 48.12 116.006 48.3133 115.472 48.46C114.939 48.6067 114.352 48.68 113.712 48.68C112.299 48.68 111.212 48.36 110.452 47.72C109.692 47.0667 109.312 46.0333 109.312 44.62V41.24H112.432V44.42C112.432 45.0867 112.606 45.5667 112.952 45.86C113.299 46.14 113.786 46.28 114.412 46.28C114.866 46.28 115.299 46.2267 115.712 46.12C116.139 46.0133 116.546 45.86 116.932 45.66V47.88ZM116.712 52V41.24H119.832V52H116.712ZM128.088 52.16C126.861 52.16 125.781 51.92 124.848 51.44C123.928 50.96 123.215 50.3067 122.708 49.48C122.201 48.64 121.948 47.6867 121.948 46.62C121.948 45.54 122.195 44.5867 122.688 43.76C123.195 42.92 123.881 42.2667 124.748 41.8C125.615 41.32 126.595 41.08 127.688 41.08C128.741 41.08 129.688 41.3067 130.528 41.76C131.381 42.2 132.055 42.84 132.548 43.68C133.041 44.5067 133.288 45.5 133.288 46.66C133.288 46.78 133.281 46.92 133.268 47.08C133.255 47.2267 133.241 47.3667 133.228 47.5H124.488V45.68H131.588L130.388 46.22C130.388 45.66 130.275 45.1733 130.048 44.76C129.821 44.3467 129.508 44.0267 129.108 43.8C128.708 43.56 128.241 43.44 127.708 43.44C127.175 43.44 126.701 43.56 126.288 43.8C125.888 44.0267 125.575 44.3533 125.348 44.78C125.121 45.1933 125.008 45.6867 125.008 46.26V46.74C125.008 47.3267 125.135 47.8467 125.388 48.3C125.655 48.74 126.021 49.08 126.488 49.32C126.968 49.5467 127.528 49.66 128.168 49.66C128.741 49.66 129.241 49.5733 129.668 49.4C130.108 49.2267 130.508 48.9667 130.868 48.62L132.528 50.42C132.035 50.98 131.415 51.4133 130.668 51.72C129.921 52.0133 129.061 52.16 128.088 52.16ZM135.68 52V41.24H138.94L143 48.6H141.7L146.04 41.24H148.96L149 52H146.18V44.44L146.66 44.76L142.96 50.96H141.64L137.92 44.54L138.5 44.4V52H135.68ZM157.652 52V41.24H160.752V45.44H165.432V41.24H168.552V52H165.432V47.98H160.752V52H157.652ZM177.979 52V49.9L177.779 49.44V45.68C177.779 45.0133 177.572 44.4933 177.159 44.12C176.759 43.7467 176.139 43.56 175.299 43.56C174.726 43.56 174.159 43.6533 173.599 43.84C173.052 44.0133 172.586 44.2533 172.199 44.56L171.079 42.38C171.666 41.9667 172.372 41.6467 173.199 41.42C174.026 41.1933 174.866 41.08 175.719 41.08C177.359 41.08 178.632 41.4667 179.539 42.24C180.446 43.0133 180.899 44.22 180.899 45.86V52H177.979ZM174.699 52.16C173.859 52.16 173.139 52.02 172.539 51.74C171.939 51.4467 171.479 51.0533 171.159 50.56C170.839 50.0667 170.679 49.5133 170.679 48.9C170.679 48.26 170.832 47.7 171.139 47.22C171.459 46.74 171.959 46.3667 172.639 46.1C173.319 45.82 174.206 45.68 175.299 45.68H178.159V47.5H175.639C174.906 47.5 174.399 47.62 174.119 47.86C173.852 48.1 173.719 48.4 173.719 48.76C173.719 49.16 173.872 49.48 174.179 49.72C174.499 49.9467 174.932 50.06 175.479 50.06C175.999 50.06 176.466 49.94 176.879 49.7C177.292 49.4467 177.592 49.08 177.779 48.6L178.259 50.04C178.032 50.7333 177.619 51.26 177.019 51.62C176.419 51.98 175.646 52.16 174.699 52.16ZM1.5 82V71.24H4.76L8.82 78.6H7.52L11.86 71.24H14.78L14.82 82H12V74.44L12.48 74.76L8.78 80.96H7.46L3.74 74.54L4.32 74.4V82H1.5ZM24.2486 82V79.9L24.0486 79.44V75.68C24.0486 75.0133 23.8419 74.4933 23.4286 74.12C23.0286 73.7467 22.4086 73.56 21.5686 73.56C20.9953 73.56 20.4286 73.6533 19.8686 73.84C19.3219 74.0133 18.8553 74.2533 18.4686 74.56L17.3486 72.38C17.9353 71.9667 18.6419 71.6467 19.4686 71.42C20.2953 71.1933 21.1353 71.08 21.9886 71.08C23.6286 71.08 24.9019 71.4667 25.8086 72.24C26.7153 73.0133 27.1686 74.22 27.1686 75.86V82H24.2486ZM20.9686 82.16C20.1286 82.16 19.4086 82.02 18.8086 81.74C18.2086 81.4467 17.7486 81.0533 17.4286 80.56C17.1086 80.0667 16.9486 79.5133 16.9486 78.9C16.9486 78.26 17.1019 77.7 17.4086 77.22C17.7286 76.74 18.2286 76.3667 18.9086 76.1C19.5886 75.82 20.4753 75.68 21.5686 75.68H24.4286V77.5H21.9086C21.1753 77.5 20.6686 77.62 20.3886 77.86C20.1219 78.1 19.9886 78.4 19.9886 78.76C19.9886 79.16 20.1419 79.48 20.4486 79.72C20.7686 79.9467 21.2019 80.06 21.7486 80.06C22.2686 80.06 22.7353 79.94 23.1486 79.7C23.5619 79.4467 23.8619 79.08 24.0486 78.6L24.5286 80.04C24.3019 80.7333 23.8886 81.26 23.2886 81.62C22.6886 81.98 21.9153 82.16 20.9686 82.16ZM36.2189 82.16C35.3122 82.16 34.5189 81.96 33.8389 81.56C33.1589 81.16 32.6256 80.5533 32.2389 79.74C31.8656 78.9133 31.6789 77.8733 31.6789 76.62C31.6789 75.3533 31.8589 74.3133 32.2189 73.5C32.5789 72.6867 33.0989 72.08 33.7789 71.68C34.4589 71.28 35.2722 71.08 36.2189 71.08C37.2322 71.08 38.1389 71.3133 38.9389 71.78C39.7522 72.2333 40.3922 72.8733 40.8589 73.7C41.3389 74.5267 41.5789 75.5 41.5789 76.62C41.5789 77.7533 41.3389 78.7333 40.8589 79.56C40.3922 80.3867 39.7522 81.0267 38.9389 81.48C38.1389 81.9333 37.2322 82.16 36.2189 82.16ZM29.8589 85.88V71.24H32.8389V73.44L32.7789 76.64L32.9789 79.82V85.88H29.8589ZM35.6789 79.6C36.1989 79.6 36.6589 79.48 37.0589 79.24C37.4722 79 37.7989 78.66 38.0389 78.22C38.2922 77.7667 38.4189 77.2333 38.4189 76.62C38.4189 75.9933 38.2922 75.46 38.0389 75.02C37.7989 74.58 37.4722 74.24 37.0589 74C36.6589 73.76 36.1989 73.64 35.6789 73.64C35.1589 73.64 34.6922 73.76 34.2789 74C33.8656 74.24 33.5389 74.58 33.2989 75.02C33.0589 75.46 32.9389 75.9933 32.9389 76.62C32.9389 77.2333 33.0589 77.7667 33.2989 78.22C33.5389 78.66 33.8656 79 34.2789 79.24C34.6922 79.48 35.1589 79.6 35.6789 79.6ZM51.3856 82L47.7856 76.9L50.3256 75.4L55.0656 82H51.3856ZM43.7656 82V71.24H46.8856V82H43.7656ZM45.9656 77.92V75.42H49.7256V77.92H45.9656ZM50.6256 76.98L47.7056 76.66L51.4856 71.24H54.8056L50.6256 76.98ZM61.5256 82.16C60.299 82.16 59.219 81.92 58.2856 81.44C57.3656 80.96 56.6523 80.3067 56.1456 79.48C55.639 78.64 55.3856 77.6867 55.3856 76.62C55.3856 75.54 55.6323 74.5867 56.1256 73.76C56.6323 72.92 57.319 72.2667 58.1856 71.8C59.0523 71.32 60.0323 71.08 61.1256 71.08C62.179 71.08 63.1256 71.3067 63.9656 71.76C64.819 72.2 65.4923 72.84 65.9856 73.68C66.479 74.5067 66.7256 75.5 66.7256 76.66C66.7256 76.78 66.719 76.92 66.7056 77.08C66.6923 77.2267 66.679 77.3667 66.6656 77.5H57.9256V75.68H65.0256L63.8256 76.22C63.8256 75.66 63.7123 75.1733 63.4856 74.76C63.259 74.3467 62.9456 74.0267 62.5456 73.8C62.1456 73.56 61.679 73.44 61.1456 73.44C60.6123 73.44 60.139 73.56 59.7256 73.8C59.3256 74.0267 59.0123 74.3533 58.7856 74.78C58.559 75.1933 58.4456 75.6867 58.4456 76.26V76.74C58.4456 77.3267 58.5723 77.8467 58.8256 78.3C59.0923 78.74 59.459 79.08 59.9256 79.32C60.4056 79.5467 60.9656 79.66 61.6056 79.66C62.179 79.66 62.679 79.5733 63.1056 79.4C63.5456 79.2267 63.9456 78.9667 64.3056 78.62L65.9656 80.42C65.4723 80.98 64.8523 81.4133 64.1056 81.72C63.359 82.0133 62.499 82.16 61.5256 82.16ZM71.0461 82V73.08L71.7461 73.8H67.4061V71.24H77.7861V73.8H73.4461L74.1461 73.08V82H71.0461ZM79.4492 82V71.24H90.1492V82H87.0292V73.1L87.7292 73.8H81.8492L82.5492 73.1V82H79.4492ZM91.7806 81.98L91.9406 79.42C92.0206 79.4333 92.1006 79.4467 92.1806 79.46C92.2606 79.46 92.334 79.46 92.4006 79.46C92.774 79.46 93.0673 79.3533 93.2806 79.14C93.494 78.9267 93.654 78.64 93.7606 78.28C93.8673 77.9067 93.9406 77.4867 93.9806 77.02C94.034 76.5533 94.074 76.0667 94.1006 75.56L94.2606 71.24H103.461V82H100.341V73.04L101.041 73.8H96.3206L96.9806 73L96.8406 75.7C96.8006 76.66 96.7206 77.54 96.6006 78.34C96.494 79.14 96.314 79.8333 96.0606 80.42C95.8073 80.9933 95.4673 81.44 95.0406 81.76C94.614 82.0667 94.0673 82.22 93.4006 82.22C93.1606 82.22 92.9073 82.2 92.6406 82.16C92.374 82.12 92.0873 82.06 91.7806 81.98ZM111.721 82.16C110.494 82.16 109.414 81.92 108.481 81.44C107.561 80.96 106.848 80.3067 106.341 79.48C105.834 78.64 105.581 77.6867 105.581 76.62C105.581 75.54 105.828 74.5867 106.321 73.76C106.828 72.92 107.514 72.2667 108.381 71.8C109.248 71.32 110.228 71.08 111.321 71.08C112.374 71.08 113.321 71.3067 114.161 71.76C115.014 72.2 115.688 72.84 116.181 73.68C116.674 74.5067 116.921 75.5 116.921 76.66C116.921 76.78 116.914 76.92 116.901 77.08C116.888 77.2267 116.874 77.3667 116.861 77.5H108.121V75.68H115.221L114.021 76.22C114.021 75.66 113.908 75.1733 113.681 74.76C113.454 74.3467 113.141 74.0267 112.741 73.8C112.341 73.56 111.874 73.44 111.341 73.44C110.808 73.44 110.334 73.56 109.921 73.8C109.521 74.0267 109.208 74.3533 108.981 74.78C108.754 75.1933 108.641 75.6867 108.641 76.26V76.74C108.641 77.3267 108.768 77.8467 109.021 78.3C109.288 78.74 109.654 79.08 110.121 79.32C110.601 79.5467 111.161 79.66 111.801 79.66C112.374 79.66 112.874 79.5733 113.301 79.4C113.741 79.2267 114.141 78.9667 114.501 78.62L116.161 80.42C115.668 80.98 115.048 81.4133 114.301 81.72C113.554 82.0133 112.694 82.16 111.721 82.16ZM119.313 82V71.24H122.413V77.64L127.653 71.24H130.513V82H127.413V75.6L122.193 82H119.313ZM124.713 70.08C123.539 70.08 122.659 69.8267 122.073 69.32C121.486 68.8 121.186 68.02 121.173 66.98H123.213C123.226 67.4333 123.353 67.7933 123.593 68.06C123.833 68.3267 124.199 68.46 124.693 68.46C125.173 68.46 125.539 68.3267 125.793 68.06C126.059 67.7933 126.193 67.4333 126.193 66.98H128.273C128.273 68.02 127.973 68.8 127.373 69.32C126.773 69.8267 125.886 70.08 124.713 70.08ZM138.632 82.16C137.472 82.16 136.438 81.9267 135.532 81.46C134.625 80.98 133.912 80.32 133.392 79.48C132.885 78.64 132.632 77.6867 132.632 76.62C132.632 75.54 132.885 74.5867 133.392 73.76C133.912 72.92 134.625 72.2667 135.532 71.8C136.438 71.32 137.472 71.08 138.632 71.08C139.765 71.08 140.752 71.32 141.592 71.8C142.432 72.2667 143.052 72.94 143.452 73.82L141.032 75.12C140.752 74.6133 140.398 74.24 139.972 74C139.558 73.76 139.105 73.64 138.612 73.64C138.078 73.64 137.598 73.76 137.172 74C136.745 74.24 136.405 74.58 136.152 75.02C135.912 75.46 135.792 75.9933 135.792 76.62C135.792 77.2467 135.912 77.78 136.152 78.22C136.405 78.66 136.745 79 137.172 79.24C137.598 79.48 138.078 79.6 138.612 79.6C139.105 79.6 139.558 79.4867 139.972 79.26C140.398 79.02 140.752 78.64 141.032 78.12L143.452 79.44C143.052 80.3067 142.432 80.98 141.592 81.46C140.752 81.9267 139.765 82.16 138.632 82.16ZM151.788 82V79.9L151.588 79.44V75.68C151.588 75.0133 151.381 74.4933 150.968 74.12C150.568 73.7467 149.948 73.56 149.108 73.56C148.534 73.56 147.968 73.6533 147.408 73.84C146.861 74.0133 146.394 74.2533 146.008 74.56L144.888 72.38C145.474 71.9667 146.181 71.6467 147.008 71.42C147.834 71.1933 148.674 71.08 149.528 71.08C151.168 71.08 152.441 71.4667 153.348 72.24C154.254 73.0133 154.708 74.22 154.708 75.86V82H151.788ZM148.508 82.16C147.668 82.16 146.948 82.02 146.348 81.74C145.748 81.4467 145.288 81.0533 144.968 80.56C144.648 80.0667 144.488 79.5133 144.488 78.9C144.488 78.26 144.641 77.7 144.948 77.22C145.268 76.74 145.768 76.3667 146.448 76.1C147.128 75.82 148.014 75.68 149.108 75.68H151.968V77.5H149.448C148.714 77.5 148.208 77.62 147.928 77.86C147.661 78.1 147.528 78.4 147.528 78.76C147.528 79.16 147.681 79.48 147.988 79.72C148.308 79.9467 148.741 80.06 149.288 80.06C149.808 80.06 150.274 79.94 150.688 79.7C151.101 79.4467 151.401 79.08 151.588 78.6L152.068 80.04C151.841 80.7333 151.428 81.26 150.828 81.62C150.228 81.98 149.454 82.16 148.508 82.16ZM155.978 82L160.798 75.68L160.738 77.4L156.118 71.24H159.618L162.538 75.26L161.218 75.3L164.238 71.24H167.558L162.918 77.34V75.66L167.718 82H164.178L161.118 77.72L162.418 77.9L159.378 82H155.978Z" fill="#141414"/>
<path d="M126.5 22V11.24H129.6V15.44H134.28V11.24H137.4V22H134.28V17.98H129.6V22H126.5ZM146.827 22V19.9L146.627 19.44V15.68C146.627 15.0133 146.42 14.4933 146.007 14.12C145.607 13.7467 144.987 13.56 144.147 13.56C143.573 13.56 143.007 13.6533 142.447 13.84C141.9 14.0133 141.433 14.2533 141.047 14.56L139.927 12.38C140.513 11.9667 141.22 11.6467 142.047 11.42C142.873 11.1933 143.713 11.08 144.567 11.08C146.207 11.08 147.48 11.4667 148.387 12.24C149.293 13.0133 149.747 14.22 149.747 15.86V22H146.827ZM143.547 22.16C142.707 22.16 141.987 22.02 141.387 21.74C140.787 21.4467 140.327 21.0533 140.007 20.56C139.687 20.0667 139.527 19.5133 139.527 18.9C139.527 18.26 139.68 17.7 139.987 17.22C140.307 16.74 140.807 16.3667 141.487 16.1C142.167 15.82 143.053 15.68 144.147 15.68H147.007V17.5H144.487C143.753 17.5 143.247 17.62 142.967 17.86C142.7 18.1 142.567 18.4 142.567 18.76C142.567 19.16 142.72 19.48 143.027 19.72C143.347 19.9467 143.78 20.06 144.327 20.06C144.847 20.06 145.313 19.94 145.727 19.7C146.14 19.4467 146.44 19.08 146.627 18.6L147.107 20.04C146.88 20.7333 146.467 21.26 145.867 21.62C145.267 21.98 144.493 22.16 143.547 22.16ZM159.561 22V9.2L160.961 10.6H156.761V8H162.801V22H159.561ZM171.233 22.24C170.086 22.24 169.06 21.96 168.153 21.4C167.246 20.8267 166.533 20 166.013 18.92C165.493 17.84 165.233 16.5333 165.233 15C165.233 13.4667 165.493 12.16 166.013 11.08C166.533 10 167.246 9.18 168.153 8.62C169.06 8.04667 170.086 7.76 171.233 7.76C172.393 7.76 173.42 8.04667 174.313 8.62C175.22 9.18 175.933 10 176.453 11.08C176.973 12.16 177.233 13.4667 177.233 15C177.233 16.5333 176.973 17.84 176.453 18.92C175.933 20 175.22 20.8267 174.313 21.4C173.42 21.96 172.393 22.24 171.233 22.24ZM171.233 19.5C171.78 19.5 172.253 19.3467 172.653 19.04C173.066 18.7333 173.386 18.2467 173.613 17.58C173.853 16.9133 173.973 16.0533 173.973 15C173.973 13.9467 173.853 13.0867 173.613 12.42C173.386 11.7533 173.066 11.2667 172.653 10.96C172.253 10.6533 171.78 10.5 171.233 10.5C170.7 10.5 170.226 10.6533 169.813 10.96C169.413 11.2667 169.093 11.7533 168.853 12.42C168.626 13.0867 168.513 13.9467 168.513 15C168.513 16.0533 168.626 16.9133 168.853 17.58C169.093 18.2467 169.413 18.7333 169.813 19.04C170.226 19.3467 170.7 19.5 171.233 19.5ZM179.126 17.62V15.12H184.786V17.62H179.126ZM186.129 22V19.9L191.529 14.8C191.955 14.4133 192.269 14.0667 192.469 13.76C192.669 13.4533 192.802 13.1733 192.869 12.92C192.949 12.6667 192.989 12.4333 192.989 12.22C192.989 11.66 192.795 11.2333 192.409 10.94C192.035 10.6333 191.482 10.48 190.749 10.48C190.162 10.48 189.615 10.5933 189.109 10.82C188.615 11.0467 188.195 11.4 187.849 11.88L185.489 10.36C186.022 9.56 186.769 8.92667 187.729 8.46C188.689 7.99333 189.795 7.76 191.049 7.76C192.089 7.76 192.995 7.93333 193.769 8.28C194.555 8.61333 195.162 9.08667 195.589 9.7C196.029 10.3133 196.249 11.0467 196.249 11.9C196.249 12.3533 196.189 12.8067 196.069 13.26C195.962 13.7 195.735 14.1667 195.389 14.66C195.055 15.1533 194.562 15.7067 193.909 16.32L189.429 20.54L188.809 19.36H196.709V22H186.129ZM204.046 22.24C202.899 22.24 201.872 21.96 200.966 21.4C200.059 20.8267 199.346 20 198.826 18.92C198.306 17.84 198.046 16.5333 198.046 15C198.046 13.4667 198.306 12.16 198.826 11.08C199.346 10 200.059 9.18 200.966 8.62C201.872 8.04667 202.899 7.76 204.046 7.76C205.206 7.76 206.232 8.04667 207.126 8.62C208.032 9.18 208.746 10 209.266 11.08C209.786 12.16 210.046 13.4667 210.046 15C210.046 16.5333 209.786 17.84 209.266 18.92C208.746 20 208.032 20.8267 207.126 21.4C206.232 21.96 205.206 22.24 204.046 22.24ZM204.046 19.5C204.592 19.5 205.066 19.3467 205.466 19.04C205.879 18.7333 206.199 18.2467 206.426 17.58C206.666 16.9133 206.786 16.0533 206.786 15C206.786 13.9467 206.666 13.0867 206.426 12.42C206.199 11.7533 205.879 11.2667 205.466 10.96C205.066 10.6533 204.592 10.5 204.046 10.5C203.512 10.5 203.039 10.6533 202.626 10.96C202.226 11.2667 201.906 11.7533 201.666 12.42C201.439 13.0867 201.326 13.9467 201.326 15C201.326 16.0533 201.439 16.9133 201.666 17.58C201.906 18.2467 202.226 18.7333 202.626 19.04C203.039 19.3467 203.512 19.5 204.046 19.5ZM213.64 22L223.2 8H225.58L216.02 22H213.64ZM214.86 15.56C214.18 15.56 213.58 15.4067 213.06 15.1C212.54 14.78 212.127 14.3333 211.82 13.76C211.527 13.1733 211.38 12.4867 211.38 11.7C211.38 10.9133 211.527 10.2333 211.82 9.66C212.127 9.08667 212.54 8.64 213.06 8.32C213.58 8 214.18 7.84 214.86 7.84C215.54 7.84 216.14 8 216.66 8.32C217.18 8.64 217.587 9.08667 217.88 9.66C218.173 10.2333 218.32 10.9133 218.32 11.7C218.32 12.4867 218.173 13.1733 217.88 13.76C217.587 14.3333 217.18 14.78 216.66 15.1C216.14 15.4067 215.54 15.56 214.86 15.56ZM214.86 13.92C215.3 13.92 215.653 13.74 215.92 13.38C216.187 13.0067 216.32 12.4467 216.32 11.7C216.32 10.9533 216.187 10.4 215.92 10.04C215.653 9.66667 215.3 9.48 214.86 9.48C214.433 9.48 214.08 9.66667 213.8 10.04C213.533 10.4 213.4 10.9533 213.4 11.7C213.4 12.4333 213.533 12.9867 213.8 13.36C214.08 13.7333 214.433 13.92 214.86 13.92ZM224.36 22.16C223.693 22.16 223.093 22.0067 222.56 21.7C222.04 21.38 221.633 20.9333 221.34 20.36C221.047 19.7733 220.9 19.0867 220.9 18.3C220.9 17.5133 221.047 16.8333 221.34 16.26C221.633 15.6867 222.04 15.24 222.56 14.92C223.093 14.6 223.693 14.44 224.36 14.44C225.053 14.44 225.66 14.6 226.18 14.92C226.7 15.24 227.107 15.6867 227.4 16.26C227.693 16.8333 227.84 17.5133 227.84 18.3C227.84 19.0867 227.693 19.7733 227.4 20.36C227.107 20.9333 226.7 21.38 226.18 21.7C225.66 22.0067 225.053 22.16 224.36 22.16ZM224.36 20.52C224.8 20.52 225.153 20.34 225.42 19.98C225.687 19.6067 225.82 19.0467 225.82 18.3C225.82 17.5667 225.687 17.0133 225.42 16.64C225.153 16.2667 224.8 16.08 224.36 16.08C223.933 16.08 223.58 16.2667 223.3 16.64C223.033 17 222.9 17.5533 222.9 18.3C222.9 19.0467 223.033 19.6067 223.3 19.98C223.58 20.34 223.933 20.52 224.36 20.52ZM8.9 50.6V43.8H5.38L5.32 45.18C5.29333 45.7533 5.26 46.3 5.22 46.82C5.18 47.34 5.1 47.8133 4.98 48.24C4.87333 48.6533 4.71333 49.0067 4.5 49.3C4.28667 49.58 4 49.7733 3.64 49.88L0.56 49.44C0.946667 49.44 1.26 49.3267 1.5 49.1C1.74 48.86 1.92667 48.5333 2.06 48.12C2.19333 47.6933 2.29333 47.2133 2.36 46.68C2.42667 46.1333 2.47333 45.56 2.5 44.96L2.64 41.24H12.02V50.6H8.9ZM0.2 54.32V49.44H13.56V54.32H10.66V52H3.1V54.32H0.2ZM20.7834 52.16C19.5568 52.16 18.4768 51.92 17.5434 51.44C16.6234 50.96 15.9101 50.3067 15.4034 49.48C14.8968 48.64 14.6434 47.6867 14.6434 46.62C14.6434 45.54 14.8901 44.5867 15.3834 43.76C15.8901 42.92 16.5768 42.2667 17.4434 41.8C18.3101 41.32 19.2901 41.08 20.3834 41.08C21.4368 41.08 22.3834 41.3067 23.2234 41.76C24.0768 42.2 24.7501 42.84 25.2434 43.68C25.7368 44.5067 25.9834 45.5 25.9834 46.66C25.9834 46.78 25.9768 46.92 25.9634 47.08C25.9501 47.2267 25.9368 47.3667 25.9234 47.5H17.1834V45.68H24.2834L23.0834 46.22C23.0834 45.66 22.9701 45.1733 22.7434 44.76C22.5168 44.3467 22.2034 44.0267 21.8034 43.8C21.4034 43.56 20.9368 43.44 20.4034 43.44C19.8701 43.44 19.3968 43.56 18.9834 43.8C18.5834 44.0267 18.2701 44.3533 18.0434 44.78C17.8168 45.1933 17.7034 45.6867 17.7034 46.26V46.74C17.7034 47.3267 17.8301 47.8467 18.0834 48.3C18.3501 48.74 18.7168 49.08 19.1834 49.32C19.6634 49.5467 20.2234 49.66 20.8634 49.66C21.4368 49.66 21.9368 49.5733 22.3634 49.4C22.8034 49.2267 23.2034 48.9667 23.5634 48.62L25.2234 50.42C24.7301 50.98 24.1101 51.4133 23.3634 51.72C22.6168 52.0133 21.7568 52.16 20.7834 52.16ZM35.715 49.44L35.035 50.16V41.24H38.155V50.16L37.435 49.44H42.395L41.695 50.16V41.24H44.795V52H28.375V41.24H31.475V50.16L30.775 49.44H35.715ZM53.0491 52.16C51.8224 52.16 50.7424 51.92 49.8091 51.44C48.8891 50.96 48.1757 50.3067 47.6691 49.48C47.1624 48.64 46.9091 47.6867 46.9091 46.62C46.9091 45.54 47.1557 44.5867 47.6491 43.76C48.1557 42.92 48.8424 42.2667 49.7091 41.8C50.5757 41.32 51.5557 41.08 52.6491 41.08C53.7024 41.08 54.6491 41.3067 55.4891 41.76C56.3424 42.2 57.0157 42.84 57.5091 43.68C58.0024 44.5067 58.2491 45.5 58.2491 46.66C58.2491 46.78 58.2424 46.92 58.2291 47.08C58.2157 47.2267 58.2024 47.3667 58.1891 47.5H49.4491V45.68H56.5491L55.3491 46.22C55.3491 45.66 55.2357 45.1733 55.0091 44.76C54.7824 44.3467 54.4691 44.0267 54.0691 43.8C53.6691 43.56 53.2024 43.44 52.6691 43.44C52.1357 43.44 51.6624 43.56 51.2491 43.8C50.8491 44.0267 50.5357 44.3533 50.3091 44.78C50.0824 45.1933 49.9691 45.6867 49.9691 46.26V46.74C49.9691 47.3267 50.0957 47.8467 50.3491 48.3C50.6157 48.74 50.9824 49.08 51.4491 49.32C51.9291 49.5467 52.4891 49.66 53.1291 49.66C53.7024 49.66 54.2024 49.5733 54.6291 49.4C55.0691 49.2267 55.4691 48.9667 55.8291 48.62L57.4891 50.42C56.9957 50.98 56.3757 51.4133 55.6291 51.72C54.8824 52.0133 54.0224 52.16 53.0491 52.16ZM60.6406 52V41.24H66.1406C67.4873 41.24 68.5406 41.4867 69.3006 41.98C70.0606 42.46 70.4406 43.14 70.4406 44.02C70.4406 44.9 70.0806 45.5933 69.3606 46.1C68.654 46.5933 67.714 46.84 66.5406 46.84L66.8606 46.12C68.1673 46.12 69.1406 46.36 69.7806 46.84C70.434 47.32 70.7606 48.02 70.7606 48.94C70.7606 49.8867 70.4006 50.6333 69.6806 51.18C68.9606 51.7267 67.8606 52 66.3806 52H60.6406ZM63.5006 49.88H66.1206C66.694 49.88 67.1206 49.7867 67.4006 49.6C67.694 49.4 67.8406 49.1 67.8406 48.7C67.8406 48.2867 67.7073 47.9867 67.4406 47.8C67.174 47.6 66.754 47.5 66.1806 47.5H63.5006V49.88ZM63.5006 45.66H65.8606C66.4073 45.66 66.814 45.56 67.0806 45.36C67.3606 45.16 67.5006 44.8733 67.5006 44.5C67.5006 44.1133 67.3606 43.8267 67.0806 43.64C66.814 43.4533 66.4073 43.36 65.8606 43.36H63.5006V45.66ZM71.722 51.98L71.882 49.42C71.962 49.4333 72.042 49.4467 72.122 49.46C72.202 49.46 72.2754 49.46 72.342 49.46C72.7154 49.46 73.0087 49.3533 73.222 49.14C73.4354 48.9267 73.5954 48.64 73.702 48.28C73.8087 47.9067 73.882 47.4867 73.922 47.02C73.9754 46.5533 74.0154 46.0667 74.042 45.56L74.202 41.24H83.402V52H80.282V43.04L80.982 43.8H76.262L76.922 43L76.782 45.7C76.742 46.66 76.662 47.54 76.542 48.34C76.4354 49.14 76.2554 49.8333 76.002 50.42C75.7487 50.9933 75.4087 51.44 74.982 51.76C74.5554 52.0667 74.0087 52.22 73.342 52.22C73.102 52.22 72.8487 52.2 72.582 52.16C72.3154 52.12 72.0287 52.06 71.722 51.98ZM91.6623 52.16C90.4357 52.16 89.3557 51.92 88.4223 51.44C87.5023 50.96 86.789 50.3067 86.2823 49.48C85.7757 48.64 85.5223 47.6867 85.5223 46.62C85.5223 45.54 85.769 44.5867 86.2623 43.76C86.769 42.92 87.4557 42.2667 88.3223 41.8C89.189 41.32 90.169 41.08 91.2623 41.08C92.3157 41.08 93.2623 41.3067 94.1023 41.76C94.9557 42.2 95.629 42.84 96.1223 43.68C96.6157 44.5067 96.8623 45.5 96.8623 46.66C96.8623 46.78 96.8557 46.92 96.8423 47.08C96.829 47.2267 96.8157 47.3667 96.8023 47.5H88.0623V45.68H95.1623L93.9623 46.22C93.9623 45.66 93.849 45.1733 93.6223 44.76C93.3957 44.3467 93.0823 44.0267 92.6823 43.8C92.2823 43.56 91.8157 43.44 91.2823 43.44C90.749 43.44 90.2757 43.56 89.8623 43.8C89.4623 44.0267 89.149 44.3533 88.9223 44.78C88.6957 45.1933 88.5823 45.6867 88.5823 46.26V46.74C88.5823 47.3267 88.709 47.8467 88.9623 48.3C89.229 48.74 89.5957 49.08 90.0623 49.32C90.5423 49.5467 91.1023 49.66 91.7423 49.66C92.3157 49.66 92.8157 49.5733 93.2423 49.4C93.6823 49.2267 94.0823 48.9667 94.4423 48.62L96.1023 50.42C95.609 50.98 94.989 51.4133 94.2423 51.72C93.4957 52.0133 92.6357 52.16 91.6623 52.16Z" fill="#28CB47"/>
<path d="M1.652 117V107.2H8.82V108.082H2.674V111.288H5.88C7.03733 111.288 7.91467 111.526 8.512 112.002C9.11867 112.469 9.422 113.159 9.422 114.074C9.422 115.017 9.09533 115.74 8.442 116.244C7.798 116.748 6.86933 117 5.656 117H1.652ZM2.674 116.174H5.642C6.54733 116.174 7.22867 116.001 7.686 115.656C8.15267 115.301 8.386 114.788 8.386 114.116C8.386 112.781 7.47133 112.114 5.642 112.114H2.674V116.174ZM14.7222 117.07C13.9569 117.07 13.2849 116.911 12.7062 116.594C12.1275 116.267 11.6749 115.824 11.3482 115.264C11.0215 114.695 10.8582 114.046 10.8582 113.318C10.8582 112.59 11.0122 111.946 11.3202 111.386C11.6375 110.826 12.0669 110.387 12.6082 110.07C13.1589 109.743 13.7749 109.58 14.4562 109.58C15.1469 109.58 15.7582 109.739 16.2902 110.056C16.8315 110.364 17.2562 110.803 17.5642 111.372C17.8722 111.932 18.0262 112.581 18.0262 113.318C18.0262 113.365 18.0215 113.416 18.0122 113.472C18.0122 113.519 18.0122 113.57 18.0122 113.626H11.6142V112.884H17.4802L17.0882 113.178C17.0882 112.646 16.9715 112.175 16.7382 111.764C16.5142 111.344 16.2062 111.017 15.8142 110.784C15.4222 110.551 14.9695 110.434 14.4562 110.434C13.9522 110.434 13.4995 110.551 13.0982 110.784C12.6969 111.017 12.3842 111.344 12.1602 111.764C11.9362 112.184 11.8242 112.665 11.8242 113.206V113.36C11.8242 113.92 11.9455 114.415 12.1882 114.844C12.4402 115.264 12.7855 115.595 13.2242 115.838C13.6722 116.071 14.1809 116.188 14.7502 116.188C15.1982 116.188 15.6135 116.109 15.9962 115.95C16.3882 115.791 16.7242 115.549 17.0042 115.222L17.5642 115.866C17.2375 116.258 16.8269 116.557 16.3322 116.762C15.8469 116.967 15.3102 117.07 14.7222 117.07ZM21.9954 117.084C21.4634 117.084 20.9361 117.009 20.4134 116.86C19.8908 116.711 19.4288 116.482 19.0274 116.174L19.3494 115.432C19.7041 115.693 20.1148 115.894 20.5814 116.034C21.0481 116.165 21.5101 116.23 21.9674 116.23C22.4248 116.221 22.8214 116.155 23.1574 116.034C23.4934 115.913 23.7548 115.745 23.9414 115.53C24.1281 115.315 24.2214 115.073 24.2214 114.802C24.2214 114.41 24.0441 114.107 23.6894 113.892C23.3348 113.668 22.8494 113.556 22.2334 113.556H20.9734V112.828H22.1634C22.5274 112.828 22.8494 112.781 23.1294 112.688C23.4094 112.595 23.6241 112.459 23.7734 112.282C23.9321 112.105 24.0114 111.895 24.0114 111.652C24.0114 111.391 23.9181 111.167 23.7314 110.98C23.5541 110.793 23.3068 110.653 22.9894 110.56C22.6721 110.467 22.3128 110.42 21.9114 110.42C21.5474 110.429 21.1694 110.485 20.7774 110.588C20.3854 110.681 19.9981 110.826 19.6154 111.022L19.3354 110.252C19.7648 110.028 20.1894 109.86 20.6094 109.748C21.0388 109.627 21.4681 109.566 21.8974 109.566C22.4854 109.547 23.0128 109.617 23.4794 109.776C23.9554 109.935 24.3334 110.163 24.6134 110.462C24.8934 110.751 25.0334 111.101 25.0334 111.512C25.0334 111.876 24.9214 112.193 24.6974 112.464C24.4734 112.735 24.1748 112.945 23.8014 113.094C23.4281 113.243 23.0034 113.318 22.5274 113.318L22.5694 113.052C23.4094 113.052 24.0628 113.215 24.5294 113.542C25.0054 113.869 25.2434 114.312 25.2434 114.872C25.2434 115.311 25.0988 115.698 24.8094 116.034C24.5201 116.361 24.1281 116.617 23.6334 116.804C23.1481 116.991 22.6021 117.084 21.9954 117.084ZM31.164 117V109.65H32.158V112.898H36.792V109.65H37.786V117H36.792V113.752H32.158V117H31.164ZM45.1753 117V115.376L45.1333 115.11V112.394C45.1333 111.769 44.9559 111.288 44.6013 110.952C44.2559 110.616 43.7379 110.448 43.0473 110.448C42.5713 110.448 42.1186 110.527 41.6893 110.686C41.2599 110.845 40.8959 111.055 40.5973 111.316L40.1493 110.574C40.5226 110.257 40.9706 110.014 41.4933 109.846C42.0159 109.669 42.5666 109.58 43.1453 109.58C44.0973 109.58 44.8299 109.818 45.3433 110.294C45.8659 110.761 46.1273 111.475 46.1273 112.436V117H45.1753ZM42.6413 117.07C42.0906 117.07 41.6099 116.981 41.1993 116.804C40.7979 116.617 40.4899 116.365 40.2753 116.048C40.0606 115.721 39.9533 115.348 39.9533 114.928C39.9533 114.545 40.0419 114.2 40.2193 113.892C40.4059 113.575 40.7046 113.323 41.1153 113.136C41.5353 112.94 42.0953 112.842 42.7953 112.842H45.3293V113.584H42.8233C42.1139 113.584 41.6193 113.71 41.3393 113.962C41.0686 114.214 40.9333 114.527 40.9333 114.9C40.9333 115.32 41.0966 115.656 41.4233 115.908C41.7499 116.16 42.2073 116.286 42.7953 116.286C43.3553 116.286 43.8359 116.16 44.2373 115.908C44.6479 115.647 44.9466 115.273 45.1333 114.788L45.3573 115.474C45.1706 115.959 44.8439 116.347 44.3773 116.636C43.9199 116.925 43.3413 117.07 42.6413 117.07ZM48.7734 117V109.65H49.7674V116.132H54.2614V109.65H55.2554V117H48.7734ZM55.5074 118.778V116.916L55.7594 117H54.2614V116.132H56.4454V118.778H55.5074ZM61.4937 117.07C60.7284 117.07 60.0564 116.911 59.4777 116.594C58.899 116.267 58.4464 115.824 58.1197 115.264C57.793 114.695 57.6297 114.046 57.6297 113.318C57.6297 112.59 57.7837 111.946 58.0917 111.386C58.409 110.826 58.8384 110.387 59.3797 110.07C59.9304 109.743 60.5464 109.58 61.2277 109.58C61.9184 109.58 62.5297 109.739 63.0617 110.056C63.603 110.364 64.0277 110.803 64.3357 111.372C64.6437 111.932 64.7977 112.581 64.7977 113.318C64.7977 113.365 64.793 113.416 64.7837 113.472C64.7837 113.519 64.7837 113.57 64.7837 113.626H58.3857V112.884H64.2517L63.8597 113.178C63.8597 112.646 63.743 112.175 63.5097 111.764C63.2857 111.344 62.9777 111.017 62.5857 110.784C62.1937 110.551 61.741 110.434 61.2277 110.434C60.7237 110.434 60.271 110.551 59.8697 110.784C59.4684 111.017 59.1557 111.344 58.9317 111.764C58.7077 112.184 58.5957 112.665 58.5957 113.206V113.36C58.5957 113.92 58.717 114.415 58.9597 114.844C59.2117 115.264 59.557 115.595 59.9957 115.838C60.4437 116.071 60.9524 116.188 61.5217 116.188C61.9697 116.188 62.385 116.109 62.7677 115.95C63.1597 115.791 63.4957 115.549 63.7757 115.222L64.3357 115.866C64.009 116.258 63.5984 116.557 63.1037 116.762C62.6184 116.967 62.0817 117.07 61.4937 117.07ZM66.998 117V109.65H67.992V112.898H72.626V109.65H73.62V117H72.626V113.752H67.992V117H66.998ZM81.8353 117L78.8113 113.36L79.6373 112.87L83.0113 117H81.8353ZM76.4453 117V109.65H77.4393V117H76.4453ZM77.1313 113.724V112.87H79.4973V113.724H77.1313ZM79.7213 113.43L78.7973 113.29L81.7233 109.65H82.8013L79.7213 113.43ZM84.58 117V109.65H85.574V115.488L90.488 109.65H91.37V117H90.376V111.148L85.476 117H84.58ZM97.8828 117V109.65H104.491V117H103.497V110.252L103.749 110.518H98.6248L98.8768 110.252V117H97.8828ZM110.34 117.07C109.631 117.07 108.992 116.911 108.422 116.594C107.862 116.267 107.419 115.824 107.092 115.264C106.766 114.695 106.602 114.046 106.602 113.318C106.602 112.581 106.766 111.932 107.092 111.372C107.419 110.812 107.862 110.373 108.422 110.056C108.982 109.739 109.622 109.58 110.34 109.58C111.068 109.58 111.712 109.739 112.272 110.056C112.842 110.373 113.285 110.812 113.602 111.372C113.929 111.932 114.092 112.581 114.092 113.318C114.092 114.046 113.929 114.695 113.602 115.264C113.285 115.824 112.842 116.267 112.272 116.594C111.703 116.911 111.059 117.07 110.34 117.07ZM110.34 116.188C110.872 116.188 111.344 116.071 111.754 115.838C112.165 115.595 112.487 115.259 112.72 114.83C112.963 114.391 113.084 113.887 113.084 113.318C113.084 112.739 112.963 112.235 112.72 111.806C112.487 111.377 112.165 111.045 111.754 110.812C111.344 110.569 110.877 110.448 110.354 110.448C109.832 110.448 109.365 110.569 108.954 110.812C108.544 111.045 108.217 111.377 107.974 111.806C107.732 112.235 107.61 112.739 107.61 113.318C107.61 113.887 107.732 114.391 107.974 114.83C108.217 115.259 108.544 115.595 108.954 115.838C109.365 116.071 109.827 116.188 110.34 116.188ZM119.297 117.07C118.569 117.07 117.915 116.911 117.337 116.594C116.767 116.267 116.319 115.824 115.993 115.264C115.666 114.695 115.503 114.046 115.503 113.318C115.503 112.581 115.666 111.932 115.993 111.372C116.319 110.812 116.767 110.373 117.337 110.056C117.915 109.739 118.569 109.58 119.297 109.58C119.922 109.58 120.487 109.701 120.991 109.944C121.495 110.187 121.891 110.551 122.181 111.036L121.439 111.54C121.187 111.167 120.874 110.891 120.501 110.714C120.127 110.537 119.721 110.448 119.283 110.448C118.76 110.448 118.289 110.569 117.869 110.812C117.449 111.045 117.117 111.377 116.875 111.806C116.632 112.235 116.511 112.739 116.511 113.318C116.511 113.897 116.632 114.401 116.875 114.83C117.117 115.259 117.449 115.595 117.869 115.838C118.289 116.071 118.76 116.188 119.283 116.188C119.721 116.188 120.127 116.099 120.501 115.922C120.874 115.745 121.187 115.474 121.439 115.11L122.181 115.614C121.891 116.09 121.495 116.454 120.991 116.706C120.487 116.949 119.922 117.07 119.297 117.07ZM127.899 117.07C127.265 117.07 126.691 116.925 126.177 116.636C125.664 116.337 125.253 115.913 124.945 115.362C124.647 114.802 124.497 114.121 124.497 113.318C124.497 112.515 124.647 111.839 124.945 111.288C125.244 110.728 125.65 110.303 126.163 110.014C126.677 109.725 127.255 109.58 127.899 109.58C128.599 109.58 129.225 109.739 129.775 110.056C130.335 110.364 130.774 110.803 131.091 111.372C131.409 111.932 131.567 112.581 131.567 113.318C131.567 114.065 131.409 114.718 131.091 115.278C130.774 115.838 130.335 116.277 129.775 116.594C129.225 116.911 128.599 117.07 127.899 117.07ZM124.105 119.716V109.65H125.057V111.862L124.959 113.332L125.099 114.816V119.716H124.105ZM127.829 116.188C128.352 116.188 128.819 116.071 129.229 115.838C129.64 115.595 129.967 115.259 130.209 114.83C130.452 114.391 130.573 113.887 130.573 113.318C130.573 112.749 130.452 112.249 130.209 111.82C129.967 111.391 129.64 111.055 129.229 110.812C128.819 110.569 128.352 110.448 127.829 110.448C127.307 110.448 126.835 110.569 126.415 110.812C126.005 111.055 125.678 111.391 125.435 111.82C125.202 112.249 125.085 112.749 125.085 113.318C125.085 113.887 125.202 114.391 125.435 114.83C125.678 115.259 126.005 115.595 126.415 115.838C126.835 116.071 127.307 116.188 127.829 116.188ZM136.853 117.07C136.088 117.07 135.416 116.911 134.837 116.594C134.258 116.267 133.806 115.824 133.479 115.264C133.152 114.695 132.989 114.046 132.989 113.318C132.989 112.59 133.143 111.946 133.451 111.386C133.768 110.826 134.198 110.387 134.739 110.07C135.29 109.743 135.906 109.58 136.587 109.58C137.278 109.58 137.889 109.739 138.421 110.056C138.962 110.364 139.387 110.803 139.695 111.372C140.003 111.932 140.157 112.581 140.157 113.318C140.157 113.365 140.152 113.416 140.143 113.472C140.143 113.519 140.143 113.57 140.143 113.626H133.745V112.884H139.611L139.219 113.178C139.219 112.646 139.102 112.175 138.869 111.764C138.645 111.344 138.337 111.017 137.945 110.784C137.553 110.551 137.1 110.434 136.587 110.434C136.083 110.434 135.63 110.551 135.229 110.784C134.828 111.017 134.515 111.344 134.291 111.764C134.067 112.184 133.955 112.665 133.955 113.206V113.36C133.955 113.92 134.076 114.415 134.319 114.844C134.571 115.264 134.916 115.595 135.355 115.838C135.803 116.071 136.312 116.188 136.881 116.188C137.329 116.188 137.744 116.109 138.127 115.95C138.519 115.791 138.855 115.549 139.135 115.222L139.695 115.866C139.368 116.258 138.958 116.557 138.463 116.762C137.978 116.967 137.441 117.07 136.853 117.07ZM147.247 116.524V110.518H143.705L143.621 112.156C143.602 112.651 143.57 113.136 143.523 113.612C143.486 114.088 143.416 114.527 143.313 114.928C143.22 115.32 143.084 115.642 142.907 115.894C142.73 116.137 142.501 116.277 142.221 116.314L141.227 116.132C141.516 116.141 141.754 116.039 141.941 115.824C142.128 115.6 142.272 115.297 142.375 114.914C142.478 114.531 142.552 114.097 142.599 113.612C142.646 113.117 142.683 112.613 142.711 112.1L142.809 109.65H148.241V116.524H147.247ZM140.919 118.778V116.132H149.389V118.778H148.451V117H141.857V118.778H140.919ZM151.326 117V109.65H152.32V112.898H156.954V109.65H157.948V117H156.954V113.752H152.32V117H151.326ZM160.773 117V109.65H161.767V115.488L166.681 109.65H167.563V117H166.569V111.148L161.669 117H160.773ZM175.802 117L172.778 113.36L173.604 112.87L176.978 117H175.802ZM170.412 117V109.65H171.406V117H170.412ZM171.098 113.724V112.87H173.464V113.724H171.098ZM173.688 113.43L172.764 113.29L175.69 109.65H176.768L173.688 113.43ZM181.311 117.07C180.602 117.07 179.962 116.911 179.393 116.594C178.833 116.267 178.39 115.824 178.063 115.264C177.736 114.695 177.573 114.046 177.573 113.318C177.573 112.581 177.736 111.932 178.063 111.372C178.39 110.812 178.833 110.373 179.393 110.056C179.953 109.739 180.592 109.58 181.311 109.58C182.039 109.58 182.683 109.739 183.243 110.056C183.812 110.373 184.256 110.812 184.573 111.372C184.9 111.932 185.063 112.581 185.063 113.318C185.063 114.046 184.9 114.695 184.573 115.264C184.256 115.824 183.812 116.267 183.243 116.594C182.674 116.911 182.03 117.07 181.311 117.07ZM181.311 116.188C181.843 116.188 182.314 116.071 182.725 115.838C183.136 115.595 183.458 115.259 183.691 114.83C183.934 114.391 184.055 113.887 184.055 113.318C184.055 112.739 183.934 112.235 183.691 111.806C183.458 111.377 183.136 111.045 182.725 110.812C182.314 110.569 181.848 110.448 181.325 110.448C180.802 110.448 180.336 110.569 179.925 110.812C179.514 111.045 179.188 111.377 178.945 111.806C178.702 112.235 178.581 112.739 178.581 113.318C178.581 113.887 178.702 114.391 178.945 114.83C179.188 115.259 179.514 115.595 179.925 115.838C180.336 116.071 180.798 116.188 181.311 116.188ZM187.187 117V109.65H190.435C191.266 109.65 191.919 109.809 192.395 110.126C192.881 110.443 193.123 110.91 193.123 111.526C193.123 112.123 192.895 112.585 192.437 112.912C191.98 113.229 191.378 113.388 190.631 113.388L190.827 113.094C191.705 113.094 192.349 113.257 192.759 113.584C193.17 113.911 193.375 114.382 193.375 114.998C193.375 115.633 193.142 116.127 192.675 116.482C192.218 116.827 191.504 117 190.533 117H187.187ZM188.153 116.216H190.491C191.117 116.216 191.588 116.118 191.905 115.922C192.232 115.717 192.395 115.39 192.395 114.942C192.395 114.494 192.251 114.167 191.961 113.962C191.672 113.757 191.215 113.654 190.589 113.654H188.153V116.216ZM188.153 112.912H190.365C190.935 112.912 191.369 112.805 191.667 112.59C191.975 112.375 192.129 112.063 192.129 111.652C192.129 111.241 191.975 110.933 191.667 110.728C191.369 110.523 190.935 110.42 190.365 110.42H188.153V112.912ZM1.414 137V129.65H2.408V135.488L7.322 129.65H8.204V137H7.21V131.148L2.31 137H1.414ZM19.2807 137V135.376L19.2387 135.11V132.394C19.2387 131.769 19.0614 131.288 18.7067 130.952C18.3614 130.616 17.8434 130.448 17.1527 130.448C16.6767 130.448 16.2241 130.527 15.7947 130.686C15.3654 130.845 15.0014 131.055 14.7027 131.316L14.2547 130.574C14.6281 130.257 15.0761 130.014 15.5987 129.846C16.1214 129.669 16.6721 129.58 17.2507 129.58C18.2027 129.58 18.9354 129.818 19.4487 130.294C19.9714 130.761 20.2327 131.475 20.2327 132.436V137H19.2807ZM16.7467 137.07C16.1961 137.07 15.7154 136.981 15.3047 136.804C14.9034 136.617 14.5954 136.365 14.3807 136.048C14.1661 135.721 14.0587 135.348 14.0587 134.928C14.0587 134.545 14.1474 134.2 14.3247 133.892C14.5114 133.575 14.8101 133.323 15.2207 133.136C15.6407 132.94 16.2007 132.842 16.9007 132.842H19.4347V133.584H16.9287C16.2194 133.584 15.7247 133.71 15.4447 133.962C15.1741 134.214 15.0387 134.527 15.0387 134.9C15.0387 135.32 15.2021 135.656 15.5287 135.908C15.8554 136.16 16.3127 136.286 16.9007 136.286C17.4607 136.286 17.9414 136.16 18.3427 135.908C18.7534 135.647 19.0521 135.273 19.2387 134.788L19.4627 135.474C19.2761 135.959 18.9494 136.347 18.4827 136.636C18.0254 136.925 17.4467 137.07 16.7467 137.07ZM22.8788 137V129.65H28.0868V130.518H23.6208L23.8728 130.266V137H22.8788ZM32.3316 137.07C31.5662 137.07 30.8942 136.911 30.3156 136.594C29.7369 136.267 29.2842 135.824 28.9576 135.264C28.6309 134.695 28.4676 134.046 28.4676 133.318C28.4676 132.59 28.6216 131.946 28.9296 131.386C29.2469 130.826 29.6762 130.387 30.2176 130.07C30.7682 129.743 31.3842 129.58 32.0656 129.58C32.7562 129.58 33.3676 129.739 33.8996 130.056C34.4409 130.364 34.8656 130.803 35.1736 131.372C35.4816 131.932 35.6356 132.581 35.6356 133.318C35.6356 133.365 35.6309 133.416 35.6216 133.472C35.6216 133.519 35.6216 133.57 35.6216 133.626H29.2236V132.884H35.0896L34.6976 133.178C34.6976 132.646 34.5809 132.175 34.3476 131.764C34.1236 131.344 33.8156 131.017 33.4236 130.784C33.0316 130.551 32.5789 130.434 32.0656 130.434C31.5616 130.434 31.1089 130.551 30.7076 130.784C30.3062 131.017 29.9936 131.344 29.7696 131.764C29.5456 132.184 29.4336 132.665 29.4336 133.206V133.36C29.4336 133.92 29.5549 134.415 29.7976 134.844C30.0496 135.264 30.3949 135.595 30.8336 135.838C31.2816 136.071 31.7902 136.188 32.3596 136.188C32.8076 136.188 33.2229 136.109 33.6056 135.95C33.9976 135.791 34.3336 135.549 34.6136 135.222L35.1736 135.866C34.8469 136.258 34.4362 136.557 33.9416 136.762C33.4562 136.967 32.9196 137.07 32.3316 137.07ZM37.8359 137V129.65H38.8299V132.898H43.4639V129.65H44.4579V137H43.4639V133.752H38.8299V137H37.8359ZM48.6831 137V130.252L48.9351 130.518H45.8971V129.65H52.4631V130.518H49.4251L49.6771 130.252V137H48.6831ZM56.6385 137.07C55.9105 137.07 55.2572 136.911 54.6785 136.594C54.1092 136.267 53.6612 135.824 53.3345 135.264C53.0079 134.695 52.8445 134.046 52.8445 133.318C52.8445 132.581 53.0079 131.932 53.3345 131.372C53.6612 130.812 54.1092 130.373 54.6785 130.056C55.2572 129.739 55.9105 129.58 56.6385 129.58C57.2639 129.58 57.8285 129.701 58.3325 129.944C58.8365 130.187 59.2332 130.551 59.5225 131.036L58.7805 131.54C58.5285 131.167 58.2159 130.891 57.8425 130.714C57.4692 130.537 57.0632 130.448 56.6245 130.448C56.1019 130.448 55.6305 130.569 55.2105 130.812C54.7905 131.045 54.4592 131.377 54.2165 131.806C53.9739 132.235 53.8525 132.739 53.8525 133.318C53.8525 133.897 53.9739 134.401 54.2165 134.83C54.4592 135.259 54.7905 135.595 55.2105 135.838C55.6305 136.071 56.1019 136.188 56.6245 136.188C57.0632 136.188 57.4692 136.099 57.8425 135.922C58.2159 135.745 58.5285 135.474 58.7805 135.11L59.5225 135.614C59.2332 136.09 58.8365 136.454 58.3325 136.706C57.8285 136.949 57.2639 137.07 56.6385 137.07ZM62.7105 137V130.252L62.9625 130.518H59.9245V129.65H66.4905V130.518H63.4525L63.7045 130.252V137H62.7105ZM73.3177 137L70.2937 133.36L71.1197 132.87L74.4937 137H73.3177ZM67.9277 137V129.65H68.9217V137H67.9277ZM68.6137 133.724V132.87H70.9797V133.724H68.6137ZM71.2037 133.43L70.2797 133.29L73.2057 129.65H74.2837L71.2037 133.43ZM78.8267 137.07C78.1173 137.07 77.478 136.911 76.9087 136.594C76.3487 136.267 75.9053 135.824 75.5787 135.264C75.252 134.695 75.0887 134.046 75.0887 133.318C75.0887 132.581 75.252 131.932 75.5787 131.372C75.9053 130.812 76.3487 130.373 76.9087 130.056C77.4687 129.739 78.108 129.58 78.8267 129.58C79.5547 129.58 80.1987 129.739 80.7587 130.056C81.328 130.373 81.7713 130.812 82.0887 131.372C82.4153 131.932 82.5787 132.581 82.5787 133.318C82.5787 134.046 82.4153 134.695 82.0887 135.264C81.7713 135.824 81.328 136.267 80.7587 136.594C80.1893 136.911 79.5453 137.07 78.8267 137.07ZM78.8267 136.188C79.3587 136.188 79.83 136.071 80.2407 135.838C80.6513 135.595 80.9733 135.259 81.2067 134.83C81.4493 134.391 81.5707 133.887 81.5707 133.318C81.5707 132.739 81.4493 132.235 81.2067 131.806C80.9733 131.377 80.6513 131.045 80.2407 130.812C79.83 130.569 79.3633 130.448 78.8407 130.448C78.318 130.448 77.8513 130.569 77.4407 130.812C77.03 131.045 76.7033 131.377 76.4607 131.806C76.218 132.235 76.0967 132.739 76.0967 133.318C76.0967 133.887 76.218 134.391 76.4607 134.83C76.7033 135.259 77.03 135.595 77.4407 135.838C77.8513 136.071 78.3133 136.188 78.8267 136.188ZM84.7031 137V129.65H85.6971V135.488L90.6111 129.65H91.4931V137H90.4991V131.148L85.5991 137H84.7031ZM88.0351 128.586C87.4191 128.586 86.9197 128.432 86.5371 128.124C86.1637 127.807 85.9677 127.354 85.9491 126.766H86.6631C86.6724 127.139 86.8031 127.433 87.0551 127.648C87.3071 127.863 87.6337 127.97 88.0351 127.97C88.4364 127.97 88.7631 127.863 89.0151 127.648C89.2764 127.433 89.4117 127.139 89.4211 126.766H90.1351C90.1257 127.354 89.9297 127.807 89.5471 128.124C89.1644 128.432 88.6604 128.586 88.0351 128.586ZM103.396 137L100.372 133.36L101.198 132.87L104.572 137H103.396ZM98.0058 137V129.65H98.9998V137H98.0058ZM98.6918 133.724V132.87H101.058V133.724H98.6918ZM101.282 133.43L100.358 133.29L103.284 129.65H104.362L101.282 133.43ZM108.905 137.07C108.195 137.07 107.556 136.911 106.987 136.594C106.427 136.267 105.983 135.824 105.657 135.264C105.33 134.695 105.167 134.046 105.167 133.318C105.167 132.581 105.33 131.932 105.657 131.372C105.983 130.812 106.427 130.373 106.987 130.056C107.547 129.739 108.186 129.58 108.905 129.58C109.633 129.58 110.277 129.739 110.837 130.056C111.406 130.373 111.849 130.812 112.167 131.372C112.493 131.932 112.657 132.581 112.657 133.318C112.657 134.046 112.493 134.695 112.167 135.264C111.849 135.824 111.406 136.267 110.837 136.594C110.267 136.911 109.623 137.07 108.905 137.07ZM108.905 136.188C109.437 136.188 109.908 136.071 110.319 135.838C110.729 135.595 111.051 135.259 111.285 134.83C111.527 134.391 111.649 133.887 111.649 133.318C111.649 132.739 111.527 132.235 111.285 131.806C111.051 131.377 110.729 131.045 110.319 130.812C109.908 130.569 109.441 130.448 108.919 130.448C108.396 130.448 107.929 130.569 107.519 130.812C107.108 131.045 106.781 131.377 106.539 131.806C106.296 132.235 106.175 132.739 106.175 133.318C106.175 133.887 106.296 134.391 106.539 134.83C106.781 135.259 107.108 135.595 107.519 135.838C107.929 136.071 108.391 136.188 108.905 136.188ZM114.781 137V129.65H115.789L119.121 135.292H118.701L122.089 129.65H123.013V137H122.103V130.784L122.285 130.868L119.121 136.104H118.673L115.481 130.812L115.691 130.77V137H114.781ZM125.842 137V129.65H126.836V135.488L131.75 129.65H132.632V137H131.638V131.148L126.738 137H125.842ZM138.56 137.07C137.832 137.07 137.179 136.911 136.6 136.594C136.031 136.267 135.583 135.824 135.256 135.264C134.93 134.695 134.766 134.046 134.766 133.318C134.766 132.581 134.93 131.932 135.256 131.372C135.583 130.812 136.031 130.373 136.6 130.056C137.179 129.739 137.832 129.58 138.56 129.58C139.186 129.58 139.75 129.701 140.254 129.944C140.758 130.187 141.155 130.551 141.444 131.036L140.702 131.54C140.45 131.167 140.138 130.891 139.764 130.714C139.391 130.537 138.985 130.448 138.546 130.448C138.024 130.448 137.552 130.569 137.132 130.812C136.712 131.045 136.381 131.377 136.138 131.806C135.896 132.235 135.774 132.739 135.774 133.318C135.774 133.897 135.896 134.401 136.138 134.83C136.381 135.259 136.712 135.595 137.132 135.838C137.552 136.071 138.024 136.188 138.546 136.188C138.985 136.188 139.391 136.099 139.764 135.922C140.138 135.745 140.45 135.474 140.702 135.11L141.444 135.614C141.155 136.09 140.758 136.454 140.254 136.706C139.75 136.949 139.186 137.07 138.56 137.07ZM146.326 137.07C145.598 137.07 144.945 136.911 144.366 136.594C143.797 136.267 143.349 135.824 143.022 135.264C142.695 134.695 142.532 134.046 142.532 133.318C142.532 132.581 142.695 131.932 143.022 131.372C143.349 130.812 143.797 130.373 144.366 130.056C144.945 129.739 145.598 129.58 146.326 129.58C146.951 129.58 147.516 129.701 148.02 129.944C148.524 130.187 148.921 130.551 149.21 131.036L148.468 131.54C148.216 131.167 147.903 130.891 147.53 130.714C147.157 130.537 146.751 130.448 146.312 130.448C145.789 130.448 145.318 130.569 144.898 130.812C144.478 131.045 144.147 131.377 143.904 131.806C143.661 132.235 143.54 132.739 143.54 133.318C143.54 133.897 143.661 134.401 143.904 134.83C144.147 135.259 144.478 135.595 144.898 135.838C145.318 136.071 145.789 136.188 146.312 136.188C146.751 136.188 147.157 136.099 147.53 135.922C147.903 135.745 148.216 135.474 148.468 135.11L149.21 135.614C148.921 136.09 148.524 136.454 148.02 136.706C147.516 136.949 146.951 137.07 146.326 137.07ZM151.135 137V129.65H152.129V135.488L157.043 129.65H157.925V137H156.931V131.148L152.031 137H151.135ZM1.414 157V149.65H2.422L5.754 155.292H5.334L8.722 149.65H9.646V157H8.736V150.784L8.918 150.868L5.754 156.104H5.306L2.114 150.812L2.324 150.77V157H1.414ZM17.0385 157V155.376L16.9965 155.11V152.394C16.9965 151.769 16.8192 151.288 16.4645 150.952C16.1192 150.616 15.6012 150.448 14.9105 150.448C14.4345 150.448 13.9819 150.527 13.5525 150.686C13.1232 150.845 12.7592 151.055 12.4605 151.316L12.0125 150.574C12.3859 150.257 12.8339 150.014 13.3565 149.846C13.8792 149.669 14.4299 149.58 15.0085 149.58C15.9605 149.58 16.6932 149.818 17.2065 150.294C17.7292 150.761 17.9905 151.475 17.9905 152.436V157H17.0385ZM14.5045 157.07C13.9539 157.07 13.4732 156.981 13.0625 156.804C12.6612 156.617 12.3532 156.365 12.1385 156.048C11.9239 155.721 11.8165 155.348 11.8165 154.928C11.8165 154.545 11.9052 154.2 12.0825 153.892C12.2692 153.575 12.5679 153.323 12.9785 153.136C13.3985 152.94 13.9585 152.842 14.6585 152.842H17.1925V153.584H14.6865C13.9772 153.584 13.4825 153.71 13.2025 153.962C12.9319 154.214 12.7965 154.527 12.7965 154.9C12.7965 155.32 12.9599 155.656 13.2865 155.908C13.6132 156.16 14.0705 156.286 14.6585 156.286C15.2185 156.286 15.6992 156.16 16.1005 155.908C16.5112 155.647 16.8099 155.273 16.9965 154.788L17.2205 155.474C17.0339 155.959 16.7072 156.347 16.2405 156.636C15.7832 156.925 15.2045 157.07 14.5045 157.07ZM24.4307 157.07C23.796 157.07 23.222 156.925 22.7087 156.636C22.1953 156.337 21.7847 155.913 21.4767 155.362C21.178 154.802 21.0287 154.121 21.0287 153.318C21.0287 152.515 21.178 151.839 21.4767 151.288C21.7753 150.728 22.1813 150.303 22.6947 150.014C23.208 149.725 23.7867 149.58 24.4307 149.58C25.1307 149.58 25.756 149.739 26.3067 150.056C26.8667 150.364 27.3053 150.803 27.6227 151.372C27.94 151.932 28.0987 152.581 28.0987 153.318C28.0987 154.065 27.94 154.718 27.6227 155.278C27.3053 155.838 26.8667 156.277 26.3067 156.594C25.756 156.911 25.1307 157.07 24.4307 157.07ZM20.6367 159.716V149.65H21.5887V151.862L21.4907 153.332L21.6307 154.816V159.716H20.6367ZM24.3607 156.188C24.8833 156.188 25.35 156.071 25.7607 155.838C26.1713 155.595 26.498 155.259 26.7407 154.83C26.9833 154.391 27.1047 153.887 27.1047 153.318C27.1047 152.749 26.9833 152.249 26.7407 151.82C26.498 151.391 26.1713 151.055 25.7607 150.812C25.35 150.569 24.8833 150.448 24.3607 150.448C23.838 150.448 23.3667 150.569 22.9467 150.812C22.536 151.055 22.2093 151.391 21.9667 151.82C21.7333 152.249 21.6167 152.749 21.6167 153.318C21.6167 153.887 21.7333 154.391 21.9667 154.83C22.2093 155.259 22.536 155.595 22.9467 155.838C23.3667 156.071 23.838 156.188 24.3607 156.188ZM35.6243 157L32.6003 153.36L33.4263 152.87L36.8003 157H35.6243ZM30.2343 157V149.65H31.2283V157H30.2343ZM30.9203 153.724V152.87H33.2863V153.724H30.9203ZM33.5103 153.43L32.5863 153.29L35.5123 149.65H36.5903L33.5103 153.43ZM41.2593 157.07C40.494 157.07 39.822 156.911 39.2433 156.594C38.6646 156.267 38.212 155.824 37.8853 155.264C37.5586 154.695 37.3953 154.046 37.3953 153.318C37.3953 152.59 37.5493 151.946 37.8573 151.386C38.1746 150.826 38.604 150.387 39.1453 150.07C39.696 149.743 40.312 149.58 40.9933 149.58C41.684 149.58 42.2953 149.739 42.8273 150.056C43.3686 150.364 43.7933 150.803 44.1013 151.372C44.4093 151.932 44.5633 152.581 44.5633 153.318C44.5633 153.365 44.5586 153.416 44.5493 153.472C44.5493 153.519 44.5493 153.57 44.5493 153.626H38.1513V152.884H44.0173L43.6253 153.178C43.6253 152.646 43.5086 152.175 43.2753 151.764C43.0513 151.344 42.7433 151.017 42.3513 150.784C41.9593 150.551 41.5066 150.434 40.9933 150.434C40.4893 150.434 40.0366 150.551 39.6353 150.784C39.234 151.017 38.9213 151.344 38.6973 151.764C38.4733 152.184 38.3613 152.665 38.3613 153.206V153.36C38.3613 153.92 38.4826 154.415 38.7253 154.844C38.9773 155.264 39.3226 155.595 39.7613 155.838C40.2093 156.071 40.718 156.188 41.2873 156.188C41.7353 156.188 42.1506 156.109 42.5333 155.95C42.9253 155.791 43.2613 155.549 43.5413 155.222L44.1013 155.866C43.7746 156.258 43.364 156.557 42.8693 156.762C42.384 156.967 41.8473 157.07 41.2593 157.07ZM47.8355 157V150.252L48.0875 150.518H45.0495V149.65H51.6155V150.518H48.5775L48.8295 150.252V157H47.8355ZM53.0527 157V149.65H59.6607V157H58.6667V150.252L58.9187 150.518H53.7947L54.0467 150.252V157H53.0527ZM61.1423 156.986L61.2123 156.132C61.2776 156.141 61.3383 156.155 61.3943 156.174C61.4596 156.183 61.5156 156.188 61.5623 156.188C61.8609 156.188 62.0989 156.076 62.2763 155.852C62.4629 155.628 62.6029 155.329 62.6963 154.956C62.7896 154.583 62.8549 154.163 62.8923 153.696C62.9296 153.22 62.9623 152.744 62.9903 152.268L63.1163 149.65H68.5063V157H67.5123V150.224L67.7643 150.518H63.7603L63.9983 150.21L63.8863 152.338C63.8583 152.973 63.8069 153.579 63.7323 154.158C63.6669 154.737 63.5596 155.245 63.4103 155.684C63.2703 156.123 63.0743 156.468 62.8223 156.72C62.5703 156.963 62.2483 157.084 61.8563 157.084C61.7443 157.084 61.6276 157.075 61.5063 157.056C61.3943 157.037 61.2729 157.014 61.1423 156.986ZM74.482 157.07C73.7166 157.07 73.0446 156.911 72.466 156.594C71.8873 156.267 71.4346 155.824 71.108 155.264C70.7813 154.695 70.618 154.046 70.618 153.318C70.618 152.59 70.772 151.946 71.08 151.386C71.3973 150.826 71.8266 150.387 72.368 150.07C72.9186 149.743 73.5346 149.58 74.216 149.58C74.9066 149.58 75.518 149.739 76.05 150.056C76.5913 150.364 77.016 150.803 77.324 151.372C77.632 151.932 77.786 152.581 77.786 153.318C77.786 153.365 77.7813 153.416 77.772 153.472C77.772 153.519 77.772 153.57 77.772 153.626H71.374V152.884H77.24L76.848 153.178C76.848 152.646 76.7313 152.175 76.498 151.764C76.274 151.344 75.966 151.017 75.574 150.784C75.182 150.551 74.7293 150.434 74.216 150.434C73.712 150.434 73.2593 150.551 72.858 150.784C72.4566 151.017 72.144 151.344 71.92 151.764C71.696 152.184 71.584 152.665 71.584 153.206V153.36C71.584 153.92 71.7053 154.415 71.948 154.844C72.2 155.264 72.5453 155.595 72.984 155.838C73.432 156.071 73.9406 156.188 74.51 156.188C74.958 156.188 75.3733 156.109 75.756 155.95C76.148 155.791 76.484 155.549 76.764 155.222L77.324 155.866C76.9973 156.258 76.5866 156.557 76.092 156.762C75.6066 156.967 75.07 157.07 74.482 157.07ZM79.9863 157V149.65H80.9803V155.488L85.8943 149.65H86.7763V157H85.7823V151.148L80.8823 157H79.9863ZM83.3183 148.586C82.7023 148.586 82.2029 148.432 81.8203 148.124C81.4469 147.807 81.2509 147.354 81.2323 146.766H81.9463C81.9556 147.139 82.0863 147.433 82.3383 147.648C82.5903 147.863 82.9169 147.97 83.3183 147.97C83.7196 147.97 84.0463 147.863 84.2983 147.648C84.5596 147.433 84.6949 147.139 84.7043 146.766H85.4183C85.4089 147.354 85.2129 147.807 84.8303 148.124C84.4476 148.432 83.9436 148.586 83.3183 148.586ZM92.7049 157.07C91.9769 157.07 91.3236 156.911 90.7449 156.594C90.1756 156.267 89.7276 155.824 89.4009 155.264C89.0743 154.695 88.9109 154.046 88.9109 153.318C88.9109 152.581 89.0743 151.932 89.4009 151.372C89.7276 150.812 90.1756 150.373 90.7449 150.056C91.3236 149.739 91.9769 149.58 92.7049 149.58C93.3303 149.58 93.8949 149.701 94.3989 149.944C94.9029 150.187 95.2996 150.551 95.5889 151.036L94.8469 151.54C94.5949 151.167 94.2823 150.891 93.9089 150.714C93.5356 150.537 93.1296 150.448 92.6909 150.448C92.1683 150.448 91.6969 150.569 91.2769 150.812C90.8569 151.045 90.5256 151.377 90.2829 151.806C90.0403 152.235 89.9189 152.739 89.9189 153.318C89.9189 153.897 90.0403 154.401 90.2829 154.83C90.5256 155.259 90.8569 155.595 91.2769 155.838C91.6969 156.071 92.1683 156.188 92.6909 156.188C93.1296 156.188 93.5356 156.099 93.9089 155.922C94.2823 155.745 94.5949 155.474 94.8469 155.11L95.5889 155.614C95.2996 156.09 94.9029 156.454 94.3989 156.706C93.8949 156.949 93.3303 157.07 92.7049 157.07ZM100.415 157.07C99.7052 157.07 99.0659 156.911 98.4966 156.594C97.9366 156.267 97.4932 155.824 97.1666 155.264C96.8399 154.695 96.6766 154.046 96.6766 153.318C96.6766 152.581 96.8399 151.932 97.1666 151.372C97.4932 150.812 97.9366 150.373 98.4966 150.056C99.0566 149.739 99.6959 149.58 100.415 149.58C101.143 149.58 101.787 149.739 102.347 150.056C102.916 150.373 103.359 150.812 103.677 151.372C104.003 151.932 104.167 152.581 104.167 153.318C104.167 154.046 104.003 154.695 103.677 155.264C103.359 155.824 102.916 156.267 102.347 156.594C101.777 156.911 101.133 157.07 100.415 157.07ZM100.415 156.188C100.947 156.188 101.418 156.071 101.829 155.838C102.239 155.595 102.561 155.259 102.795 154.83C103.037 154.391 103.159 153.887 103.159 153.318C103.159 152.739 103.037 152.235 102.795 151.806C102.561 151.377 102.239 151.045 101.829 150.812C101.418 150.569 100.951 150.448 100.429 150.448C99.9059 150.448 99.4392 150.569 99.0286 150.812C98.6179 151.045 98.2912 151.377 98.0486 151.806C97.8059 152.235 97.6846 152.739 97.6846 153.318C97.6846 153.887 97.8059 154.391 98.0486 154.83C98.2912 155.259 98.6179 155.595 99.0286 155.838C99.4392 156.071 99.9012 156.188 100.415 156.188ZM106.291 157V149.65H109.539C110.37 149.65 111.023 149.809 111.499 150.126C111.984 150.443 112.227 150.91 112.227 151.526C112.227 152.123 111.998 152.585 111.541 152.912C111.084 153.229 110.482 153.388 109.735 153.388L109.931 153.094C110.808 153.094 111.452 153.257 111.863 153.584C112.274 153.911 112.479 154.382 112.479 154.998C112.479 155.633 112.246 156.127 111.779 156.482C111.322 156.827 110.608 157 109.637 157H106.291ZM107.257 156.216H109.595C110.22 156.216 110.692 156.118 111.009 155.922C111.336 155.717 111.499 155.39 111.499 154.942C111.499 154.494 111.354 154.167 111.065 153.962C110.776 153.757 110.318 153.654 109.693 153.654H107.257V156.216ZM107.257 152.912H109.469C110.038 152.912 110.472 152.805 110.771 152.59C111.079 152.375 111.233 152.063 111.233 151.652C111.233 151.241 111.079 150.933 110.771 150.728C110.472 150.523 110.038 150.42 109.469 150.42H107.257V152.912Z" fill="#141414"/>
</svg>
