<svg width="342" height="148" viewBox="0 0 342 148" fill="none" xmlns="http://www.w3.org/2000/svg">
<path d="M0.208 25L8.32 6.8H12.48L20.618 25H16.198L9.542 8.932H11.206L4.524 25H0.208ZM4.264 21.1L5.382 17.902H14.742L15.886 21.1H4.264ZM22.7195 25V11.012H29.8695C31.6202 11.012 32.9895 11.3327 33.9775 11.974C34.9655 12.598 35.4595 13.482 35.4595 14.626C35.4595 15.77 34.9915 16.6713 34.0555 17.33C33.1369 17.9713 31.9149 18.292 30.3895 18.292L30.8055 17.356C32.5042 17.356 33.7695 17.668 34.6015 18.292C35.4509 18.916 35.8755 19.826 35.8755 21.022C35.8755 22.2527 35.4075 23.2233 34.4715 23.934C33.5355 24.6447 32.1055 25 30.1815 25H22.7195ZM26.4375 22.244H29.8435C30.5889 22.244 31.1435 22.1227 31.5075 21.88C31.8889 21.62 32.0795 21.23 32.0795 20.71C32.0795 20.1727 31.9062 19.7827 31.5595 19.54C31.2129 19.28 30.6669 19.15 29.9215 19.15H26.4375V22.244ZM26.4375 16.758H29.5055C30.2162 16.758 30.7449 16.628 31.0915 16.368C31.4555 16.108 31.6375 15.7353 31.6375 15.25C31.6375 14.7473 31.4555 14.3747 31.0915 14.132C30.7449 13.8893 30.2162 13.768 29.5055 13.768H26.4375V16.758ZM41.8834 25V13.404L42.7934 14.34H37.1514V11.012H50.6454V14.34H45.0034L45.9134 13.404V25H41.8834ZM58.7754 25.208C57.2848 25.208 55.9588 24.896 54.7974 24.272C53.6534 23.648 52.7434 22.7987 52.0674 21.724C51.4088 20.632 51.0794 19.3927 51.0794 18.006C51.0794 16.602 51.4088 15.3627 52.0674 14.288C52.7434 13.196 53.6534 12.3467 54.7974 11.74C55.9588 11.116 57.2848 10.804 58.7754 10.804C60.2488 10.804 61.5661 11.116 62.7274 11.74C63.8888 12.3467 64.7988 13.1873 65.4574 14.262C66.1161 15.3367 66.4454 16.5847 66.4454 18.006C66.4454 19.3927 66.1161 20.632 65.4574 21.724C64.7988 22.7987 63.8888 23.648 62.7274 24.272C61.5661 24.896 60.2488 25.208 58.7754 25.208ZM58.7754 21.88C59.4514 21.88 60.0581 21.724 60.5954 21.412C61.1328 21.1 61.5574 20.658 61.8694 20.086C62.1814 19.4967 62.3374 18.8033 62.3374 18.006C62.3374 17.1913 62.1814 16.498 61.8694 15.926C61.5574 15.354 61.1328 14.912 60.5954 14.6C60.0581 14.288 59.4514 14.132 58.7754 14.132C58.0994 14.132 57.4928 14.288 56.9554 14.6C56.4181 14.912 55.9848 15.354 55.6554 15.926C55.3434 16.498 55.1874 17.1913 55.1874 18.006C55.1874 18.8033 55.3434 19.4967 55.6554 20.086C55.9848 20.658 56.4181 21.1 56.9554 21.412C57.4928 21.724 58.0994 21.88 58.7754 21.88ZM78.0492 19.644C77.4772 19.956 76.8445 20.2073 76.1512 20.398C75.4578 20.5887 74.6952 20.684 73.8632 20.684C72.0258 20.684 70.6132 20.268 69.6252 19.436C68.6372 18.5867 68.1432 17.2433 68.1432 15.406V11.012H72.1992V15.146C72.1992 16.0127 72.4245 16.6367 72.8752 17.018C73.3258 17.382 73.9585 17.564 74.7732 17.564C75.3625 17.564 75.9258 17.4947 76.4632 17.356C77.0178 17.2173 77.5465 17.018 78.0492 16.758V19.644ZM77.7632 25V11.012H81.8192V25H77.7632ZM92.5517 25.208C90.957 25.208 89.553 24.896 88.3397 24.272C87.1437 23.648 86.2163 22.7987 85.5577 21.724C84.899 20.632 84.5697 19.3927 84.5697 18.006C84.5697 16.602 84.8903 15.3627 85.5317 14.288C86.1903 13.196 87.083 12.3467 88.2097 11.74C89.3363 11.116 90.6103 10.804 92.0317 10.804C93.401 10.804 94.6317 11.0987 95.7237 11.688C96.833 12.26 97.7083 13.092 98.3497 14.184C98.991 15.2587 99.3117 16.55 99.3117 18.058C99.3117 18.214 99.303 18.396 99.2857 18.604C99.2683 18.7947 99.251 18.9767 99.2337 19.15H87.8717V16.784H97.1017L95.5417 17.486C95.5417 16.758 95.3943 16.1253 95.0997 15.588C94.805 15.0507 94.3977 14.6347 93.8777 14.34C93.3577 14.028 92.751 13.872 92.0577 13.872C91.3643 13.872 90.749 14.028 90.2117 14.34C89.6917 14.6347 89.2843 15.0593 88.9897 15.614C88.695 16.1513 88.5477 16.7927 88.5477 17.538V18.162C88.5477 18.9247 88.7123 19.6007 89.0417 20.19C89.3883 20.762 89.865 21.204 90.4717 21.516C91.0957 21.8107 91.8237 21.958 92.6557 21.958C93.401 21.958 94.051 21.8453 94.6057 21.62C95.1777 21.3947 95.6977 21.0567 96.1657 20.606L98.3237 22.946C97.6823 23.674 96.8763 24.2373 95.9057 24.636C94.935 25.0173 93.817 25.208 92.5517 25.208ZM100.168 25L106.434 16.784L106.356 19.02L100.35 11.012H104.9L108.696 16.238L106.98 16.29L110.906 11.012H115.222L109.19 18.942V16.758L115.43 25H110.828L106.85 19.436L108.54 19.67L104.588 25H100.168ZM115.659 24.974L115.867 21.646C115.971 21.6633 116.075 21.6807 116.179 21.698C116.283 21.698 116.378 21.698 116.465 21.698C116.95 21.698 117.331 21.5593 117.609 21.282C117.886 21.0047 118.094 20.632 118.233 20.164C118.371 19.6787 118.467 19.1327 118.519 18.526C118.588 17.9193 118.64 17.2867 118.675 16.628L118.883 11.012H130.843V25H126.787V13.352L127.697 14.34H121.561L122.419 13.3L122.237 16.81C122.185 18.058 122.081 19.202 121.925 20.242C121.786 21.282 121.552 22.1833 121.223 22.946C120.893 23.6913 120.451 24.272 119.897 24.688C119.342 25.0867 118.631 25.286 117.765 25.286C117.453 25.286 117.123 25.26 116.777 25.208C116.43 25.156 116.057 25.078 115.659 24.974ZM149.147 25V11.012H153.177V25H149.147ZM142.101 15.484C143.938 15.5013 145.316 15.9173 146.235 16.732C147.171 17.5293 147.639 18.6647 147.639 20.138C147.639 21.6807 147.11 22.8853 146.053 23.752C144.996 24.6013 143.496 25.026 141.555 25.026L134.743 25V11.012H138.773V15.484H142.101ZM141.191 22.14C141.971 22.1573 142.569 21.9927 142.985 21.646C143.401 21.2993 143.609 20.7793 143.609 20.086C143.609 19.3927 143.401 18.8987 142.985 18.604C142.569 18.292 141.971 18.1273 141.191 18.11L138.773 18.084V22.14H141.191ZM128.25 61.004L129.966 54.764L130.538 57.104C129.793 57.104 129.177 56.8873 128.692 56.454C128.224 56.0207 127.99 55.4227 127.99 54.66C127.99 53.8973 128.233 53.2907 128.718 52.84C129.203 52.3893 129.801 52.164 130.512 52.164C131.24 52.164 131.838 52.398 132.306 52.866C132.774 53.3167 133.008 53.9147 133.008 54.66C133.008 54.8853 132.991 55.1107 132.956 55.336C132.921 55.544 132.852 55.804 132.748 56.116C132.661 56.4107 132.514 56.792 132.306 57.26L130.824 61.004H128.25ZM152.012 51.644C151.44 51.956 150.807 52.2073 150.114 52.398C149.421 52.5887 148.658 52.684 147.826 52.684C145.989 52.684 144.576 52.268 143.588 51.436C142.6 50.5867 142.106 49.2433 142.106 47.406V43.012H146.162V47.146C146.162 48.0127 146.387 48.6367 146.838 49.018C147.289 49.382 147.921 49.564 148.736 49.564C149.325 49.564 149.889 49.4947 150.426 49.356C150.981 49.2173 151.509 49.018 152.012 48.758V51.644ZM151.726 57V43.012H155.782V57H151.726ZM166.515 57.208C164.92 57.208 163.516 56.896 162.303 56.272C161.107 55.648 160.179 54.7987 159.521 53.724C158.862 52.632 158.533 51.3927 158.533 50.006C158.533 48.602 158.853 47.3627 159.495 46.288C160.153 45.196 161.046 44.3467 162.173 43.74C163.299 43.116 164.573 42.804 165.995 42.804C167.364 42.804 168.595 43.0987 169.687 43.688C170.796 44.26 171.671 45.092 172.313 46.184C172.954 47.2587 173.275 48.55 173.275 50.058C173.275 50.214 173.266 50.396 173.249 50.604C173.231 50.7947 173.214 50.9767 173.197 51.15H161.835V48.784H171.065L169.505 49.486C169.505 48.758 169.357 48.1253 169.063 47.588C168.768 47.0507 168.361 46.6347 167.841 46.34C167.321 46.028 166.714 45.872 166.021 45.872C165.327 45.872 164.712 46.028 164.175 46.34C163.655 46.6347 163.247 47.0593 162.953 47.614C162.658 48.1513 162.511 48.7927 162.511 49.538V50.162C162.511 50.9247 162.675 51.6007 163.005 52.19C163.351 52.762 163.828 53.204 164.435 53.516C165.059 53.8107 165.787 53.958 166.619 53.958C167.364 53.958 168.014 53.8453 168.569 53.62C169.141 53.3947 169.661 53.0567 170.129 52.606L172.287 54.946C171.645 55.674 170.839 56.2373 169.869 56.636C168.898 57.0173 167.78 57.208 166.515 57.208ZM176.384 57V43.012H180.622L185.9 52.58H184.21L189.852 43.012H193.648L193.7 57H190.034V47.172L190.658 47.588L185.848 55.648H184.132L179.296 47.302L180.05 47.12V57H176.384ZM204.948 57V43.012H208.978V48.472H215.062V43.012H219.118V57H215.062V51.774H208.978V57H204.948ZM231.373 57V54.27L231.113 53.672V48.784C231.113 47.9173 230.844 47.2413 230.307 46.756C229.787 46.2707 228.981 46.028 227.889 46.028C227.143 46.028 226.407 46.1493 225.679 46.392C224.968 46.6173 224.361 46.9293 223.859 47.328L222.403 44.494C223.165 43.9567 224.084 43.5407 225.159 43.246C226.233 42.9513 227.325 42.804 228.435 42.804C230.567 42.804 232.222 43.3067 233.401 44.312C234.579 45.3173 235.169 46.886 235.169 49.018V57H231.373ZM227.109 57.208C226.017 57.208 225.081 57.026 224.301 56.662C223.521 56.2807 222.923 55.7693 222.507 55.128C222.091 54.4867 221.883 53.7673 221.883 52.97C221.883 52.138 222.082 51.41 222.481 50.786C222.897 50.162 223.547 49.6767 224.431 49.33C225.315 48.966 226.467 48.784 227.889 48.784H231.607V51.15H228.331C227.377 51.15 226.719 51.306 226.355 51.618C226.008 51.93 225.835 52.32 225.835 52.788C225.835 53.308 226.034 53.724 226.433 54.036C226.849 54.3307 227.412 54.478 228.123 54.478C228.799 54.478 229.405 54.322 229.943 54.01C230.48 53.6807 230.87 53.204 231.113 52.58L231.737 54.452C231.442 55.3533 230.905 56.038 230.125 56.506C229.345 56.974 228.339 57.208 227.109 57.208ZM1.95 89V75.012H6.188L11.466 84.58H9.776L15.418 75.012H19.214L19.266 89H15.6V79.172L16.224 79.588L11.414 87.648H9.698L4.862 79.302L5.616 79.12V89H1.95ZM31.5232 89V86.27L31.2632 85.672V80.784C31.2632 79.9173 30.9945 79.2413 30.4572 78.756C29.9372 78.2707 29.1312 78.028 28.0392 78.028C27.2938 78.028 26.5572 78.1493 25.8292 78.392C25.1185 78.6173 24.5118 78.9293 24.0092 79.328L22.5532 76.494C23.3158 75.9567 24.2345 75.5407 25.3092 75.246C26.3838 74.9513 27.4758 74.804 28.5852 74.804C30.7172 74.804 32.3725 75.3067 33.5512 76.312C34.7298 77.3173 35.3192 78.886 35.3192 81.018V89H31.5232ZM27.2592 89.208C26.1672 89.208 25.2312 89.026 24.4512 88.662C23.6712 88.2807 23.0732 87.7693 22.6572 87.128C22.2412 86.4867 22.0332 85.7673 22.0332 84.97C22.0332 84.138 22.2325 83.41 22.6312 82.786C23.0472 82.162 23.6972 81.6767 24.5812 81.33C25.4652 80.966 26.6178 80.784 28.0392 80.784H31.7572V83.15H28.4812C27.5278 83.15 26.8692 83.306 26.5052 83.618C26.1585 83.93 25.9852 84.32 25.9852 84.788C25.9852 85.308 26.1845 85.724 26.5832 86.036C26.9992 86.3307 27.5625 86.478 28.2732 86.478C28.9492 86.478 29.5558 86.322 30.0932 86.01C30.6305 85.6807 31.0205 85.204 31.2632 84.58L31.8872 86.452C31.5925 87.3533 31.0552 88.038 30.2752 88.506C29.4952 88.974 28.4898 89.208 27.2592 89.208ZM47.0846 89.208C45.9059 89.208 44.8746 88.948 43.9906 88.428C43.1066 87.908 42.4132 87.1193 41.9106 86.062C41.4252 84.9873 41.1826 83.6353 41.1826 82.006C41.1826 80.3593 41.4166 79.0073 41.8846 77.95C42.3526 76.8927 43.0286 76.104 43.9126 75.584C44.7966 75.064 45.8539 74.804 47.0846 74.804C48.4019 74.804 49.5806 75.1073 50.6206 75.714C51.6779 76.3033 52.5099 77.1353 53.1166 78.21C53.7406 79.2847 54.0526 80.55 54.0526 82.006C54.0526 83.4793 53.7406 84.7533 53.1166 85.828C52.5099 86.9027 51.6779 87.7347 50.6206 88.324C49.5806 88.9133 48.4019 89.208 47.0846 89.208ZM38.8166 94.044V75.012H42.6906V77.872L42.6126 82.032L42.8726 86.166V94.044H38.8166ZM46.3826 85.88C47.0586 85.88 47.6566 85.724 48.1766 85.412C48.7139 85.1 49.1386 84.658 49.4506 84.086C49.7799 83.4967 49.9446 82.8033 49.9446 82.006C49.9446 81.1913 49.7799 80.498 49.4506 79.926C49.1386 79.354 48.7139 78.912 48.1766 78.6C47.6566 78.288 47.0586 78.132 46.3826 78.132C45.7066 78.132 45.0999 78.288 44.5626 78.6C44.0252 78.912 43.6006 79.354 43.2886 79.926C42.9766 80.498 42.8206 81.1913 42.8206 82.006C42.8206 82.8033 42.9766 83.4967 43.2886 84.086C43.6006 84.658 44.0252 85.1 44.5626 85.412C45.0999 85.724 45.7066 85.88 46.3826 85.88ZM66.8013 89L62.1213 82.37L65.4233 80.42L71.5853 89H66.8013ZM56.8953 89V75.012H60.9513V89H56.8953ZM59.7553 83.696V80.446H64.6433V83.696H59.7553ZM65.8133 82.474L62.0173 82.058L66.9313 75.012H71.2473L65.8133 82.474ZM79.9833 89.208C78.3886 89.208 76.9846 88.896 75.7713 88.272C74.5753 87.648 73.648 86.7987 72.9893 85.724C72.3306 84.632 72.0013 83.3927 72.0013 82.006C72.0013 80.602 72.322 79.3627 72.9633 78.288C73.622 77.196 74.5146 76.3467 75.6413 75.74C76.768 75.116 78.042 74.804 79.4633 74.804C80.8326 74.804 82.0633 75.0987 83.1553 75.688C84.2646 76.26 85.14 77.092 85.7813 78.184C86.4226 79.2587 86.7433 80.55 86.7433 82.058C86.7433 82.214 86.7346 82.396 86.7173 82.604C86.7 82.7947 86.6826 82.9767 86.6653 83.15H75.3033V80.784H84.5333L82.9733 81.486C82.9733 80.758 82.826 80.1253 82.5313 79.588C82.2366 79.0507 81.8293 78.6347 81.3093 78.34C80.7893 78.028 80.1826 77.872 79.4893 77.872C78.796 77.872 78.1806 78.028 77.6433 78.34C77.1233 78.6347 76.716 79.0593 76.4213 79.614C76.1266 80.1513 75.9793 80.7927 75.9793 81.538V82.162C75.9793 82.9247 76.144 83.6007 76.4733 84.19C76.82 84.762 77.2966 85.204 77.9033 85.516C78.5273 85.8107 79.2553 85.958 80.0873 85.958C80.8326 85.958 81.4826 85.8453 82.0373 85.62C82.6093 85.3947 83.1293 85.0567 83.5973 84.606L85.7553 86.946C85.114 87.674 84.308 88.2373 83.3373 88.636C82.3666 89.0173 81.2486 89.208 79.9833 89.208ZM92.3599 89V77.404L93.2699 78.34H87.6279V75.012H101.122V78.34H95.4799L96.3899 77.404V89H92.3599ZM103.284 89V75.012H117.194V89H113.138V77.43L114.048 78.34H106.404L107.314 77.43V89H103.284ZM119.315 88.974L119.523 85.646C119.627 85.6633 119.731 85.6807 119.835 85.698C119.939 85.698 120.034 85.698 120.121 85.698C120.606 85.698 120.987 85.5593 121.265 85.282C121.542 85.0047 121.75 84.632 121.889 84.164C122.027 83.6787 122.123 83.1327 122.175 82.526C122.244 81.9193 122.296 81.2867 122.331 80.628L122.539 75.012H134.499V89H130.443V77.352L131.353 78.34H125.217L126.075 77.3L125.893 80.81C125.841 82.058 125.737 83.202 125.581 84.242C125.442 85.282 125.208 86.1833 124.879 86.946C124.549 87.6913 124.107 88.272 123.553 88.688C122.998 89.0867 122.287 89.286 121.421 89.286C121.109 89.286 120.779 89.26 120.433 89.208C120.086 89.156 119.713 89.078 119.315 88.974ZM145.237 89.208C143.643 89.208 142.239 88.896 141.025 88.272C139.829 87.648 138.902 86.7987 138.243 85.724C137.585 84.632 137.255 83.3927 137.255 82.006C137.255 80.602 137.576 79.3627 138.217 78.288C138.876 77.196 139.769 76.3467 140.895 75.74C142.022 75.116 143.296 74.804 144.717 74.804C146.087 74.804 147.317 75.0987 148.409 75.688C149.519 76.26 150.394 77.092 151.035 78.184C151.677 79.2587 151.997 80.55 151.997 82.058C151.997 82.214 151.989 82.396 151.971 82.604C151.954 82.7947 151.937 82.9767 151.919 83.15H140.557V80.784H149.787L148.227 81.486C148.227 80.758 148.08 80.1253 147.785 79.588C147.491 79.0507 147.083 78.6347 146.563 78.34C146.043 78.028 145.437 77.872 144.743 77.872C144.05 77.872 143.435 78.028 142.897 78.34C142.377 78.6347 141.97 79.0593 141.675 79.614C141.381 80.1513 141.233 80.7927 141.233 81.538V82.162C141.233 82.9247 141.398 83.6007 141.727 84.19C142.074 84.762 142.551 85.204 143.157 85.516C143.781 85.8107 144.509 85.958 145.341 85.958C146.087 85.958 146.737 85.8453 147.291 85.62C147.863 85.3947 148.383 85.0567 148.851 84.606L151.009 86.946C150.368 87.674 149.562 88.2373 148.591 88.636C147.621 89.0173 146.503 89.208 145.237 89.208ZM155.106 89V75.012H159.136V83.332L165.948 75.012H169.666V89H165.636V80.68L158.85 89H155.106ZM162.126 73.504C160.601 73.504 159.457 73.1747 158.694 72.516C157.932 71.84 157.542 70.826 157.524 69.474H160.176C160.194 70.0633 160.358 70.5313 160.67 70.878C160.982 71.2247 161.459 71.398 162.1 71.398C162.724 71.398 163.201 71.2247 163.53 70.878C163.877 70.5313 164.05 70.0633 164.05 69.474H166.754C166.754 70.826 166.364 71.84 165.584 72.516C164.804 73.1747 163.652 73.504 162.126 73.504ZM180.221 89.208C178.713 89.208 177.37 88.9047 176.191 88.298C175.013 87.674 174.085 86.816 173.409 85.724C172.751 84.632 172.421 83.3927 172.421 82.006C172.421 80.602 172.751 79.3627 173.409 78.288C174.085 77.196 175.013 76.3467 176.191 75.74C177.37 75.116 178.713 74.804 180.221 74.804C181.695 74.804 182.977 75.116 184.069 75.74C185.161 76.3467 185.967 77.222 186.487 78.366L183.341 80.056C182.977 79.3973 182.518 78.912 181.963 78.6C181.426 78.288 180.837 78.132 180.195 78.132C179.502 78.132 178.878 78.288 178.323 78.6C177.769 78.912 177.327 79.354 176.997 79.926C176.685 80.498 176.529 81.1913 176.529 82.006C176.529 82.8207 176.685 83.514 176.997 84.086C177.327 84.658 177.769 85.1 178.323 85.412C178.878 85.724 179.502 85.88 180.195 85.88C180.837 85.88 181.426 85.7327 181.963 85.438C182.518 85.126 182.977 84.632 183.341 83.956L186.487 85.672C185.967 86.7987 185.161 87.674 184.069 88.298C182.977 88.9047 181.695 89.208 180.221 89.208ZM197.324 89V86.27L197.064 85.672V80.784C197.064 79.9173 196.795 79.2413 196.258 78.756C195.738 78.2707 194.932 78.028 193.84 78.028C193.095 78.028 192.358 78.1493 191.63 78.392C190.919 78.6173 190.313 78.9293 189.81 79.328L188.354 76.494C189.117 75.9567 190.035 75.5407 191.11 75.246C192.185 74.9513 193.277 74.804 194.386 74.804C196.518 74.804 198.173 75.3067 199.352 76.312C200.531 77.3173 201.12 78.886 201.12 81.018V89H197.324ZM193.06 89.208C191.968 89.208 191.032 89.026 190.252 88.662C189.472 88.2807 188.874 87.7693 188.458 87.128C188.042 86.4867 187.834 85.7673 187.834 84.97C187.834 84.138 188.033 83.41 188.432 82.786C188.848 82.162 189.498 81.6767 190.382 81.33C191.266 80.966 192.419 80.784 193.84 80.784H197.558V83.15H194.282C193.329 83.15 192.67 83.306 192.306 83.618C191.959 83.93 191.786 84.32 191.786 84.788C191.786 85.308 191.985 85.724 192.384 86.036C192.8 86.3307 193.363 86.478 194.074 86.478C194.75 86.478 195.357 86.322 195.894 86.01C196.431 85.6807 196.821 85.204 197.064 84.58L197.688 86.452C197.393 87.3533 196.856 88.038 196.076 88.506C195.296 88.974 194.291 89.208 193.06 89.208ZM202.771 89L209.037 80.784L208.959 83.02L202.953 75.012H207.503L211.299 80.238L209.583 80.29L213.509 75.012H217.825L211.793 82.942V80.758L218.033 89H213.431L209.453 83.436L211.143 83.67L207.191 89H202.771Z" fill="#141414"/>
<path d="M164.45 25V11.012H168.48V16.472H174.564V11.012H178.62V25H174.564V19.774H168.48V25H164.45ZM190.875 25V22.27L190.615 21.672V16.784C190.615 15.9173 190.346 15.2413 189.809 14.756C189.289 14.2707 188.483 14.028 187.391 14.028C186.645 14.028 185.909 14.1493 185.181 14.392C184.47 14.6173 183.863 14.9293 183.361 15.328L181.905 12.494C182.667 11.9567 183.586 11.5407 184.661 11.246C185.735 10.9513 186.827 10.804 187.937 10.804C190.069 10.804 191.724 11.3067 192.903 12.312C194.081 13.3173 194.671 14.886 194.671 17.018V25H190.875ZM186.611 25.208C185.519 25.208 184.583 25.026 183.803 24.662C183.023 24.2807 182.425 23.7693 182.009 23.128C181.593 22.4867 181.385 21.7673 181.385 20.97C181.385 20.138 181.584 19.41 181.983 18.786C182.399 18.162 183.049 17.6767 183.933 17.33C184.817 16.966 185.969 16.784 187.391 16.784H191.109V19.15H187.833C186.879 19.15 186.221 19.306 185.857 19.618C185.51 19.93 185.337 20.32 185.337 20.788C185.337 21.308 185.536 21.724 185.935 22.036C186.351 22.3307 186.914 22.478 187.625 22.478C188.301 22.478 188.907 22.322 189.445 22.01C189.982 21.6807 190.372 21.204 190.615 20.58L191.239 22.452C190.944 23.3533 190.407 24.038 189.627 24.506C188.847 24.974 187.841 25.208 186.611 25.208ZM207.429 25V8.36L209.249 10.18H203.789V6.8H211.641V25H207.429ZM222.603 25.312C221.112 25.312 219.778 24.948 218.599 24.22C217.42 23.4747 216.493 22.4 215.817 20.996C215.141 19.592 214.803 17.8933 214.803 15.9C214.803 13.9067 215.141 12.208 215.817 10.804C216.493 9.4 217.42 8.334 218.599 7.606C219.778 6.86067 221.112 6.488 222.603 6.488C224.111 6.488 225.446 6.86067 226.607 7.606C227.786 8.334 228.713 9.4 229.389 10.804C230.065 12.208 230.403 13.9067 230.403 15.9C230.403 17.8933 230.065 19.592 229.389 20.996C228.713 22.4 227.786 23.4747 226.607 24.22C225.446 24.948 224.111 25.312 222.603 25.312ZM222.603 21.75C223.314 21.75 223.929 21.5507 224.449 21.152C224.986 20.7533 225.402 20.1207 225.697 19.254C226.009 18.3873 226.165 17.2693 226.165 15.9C226.165 14.5307 226.009 13.4127 225.697 12.546C225.402 11.6793 224.986 11.0467 224.449 10.648C223.929 10.2493 223.314 10.05 222.603 10.05C221.91 10.05 221.294 10.2493 220.757 10.648C220.237 11.0467 219.821 11.6793 219.509 12.546C219.214 13.4127 219.067 14.5307 219.067 15.9C219.067 17.2693 219.214 18.3873 219.509 19.254C219.821 20.1207 220.237 20.7533 220.757 21.152C221.294 21.5507 221.91 21.75 222.603 21.75ZM232.864 19.306V16.056H240.222V19.306H232.864ZM241.967 25V22.27L248.987 15.64C249.542 15.1373 249.949 14.6867 250.209 14.288C250.469 13.8893 250.643 13.5253 250.729 13.196C250.833 12.8667 250.885 12.5633 250.885 12.286C250.885 11.558 250.634 11.0033 250.131 10.622C249.646 10.2233 248.927 10.024 247.973 10.024C247.211 10.024 246.5 10.1713 245.841 10.466C245.2 10.7607 244.654 11.22 244.203 11.844L241.135 9.868C241.829 8.828 242.799 8.00467 244.047 7.398C245.295 6.79133 246.734 6.488 248.363 6.488C249.715 6.488 250.894 6.71333 251.899 7.164C252.922 7.59733 253.711 8.21267 254.265 9.01C254.837 9.80733 255.123 10.7607 255.123 11.87C255.123 12.4593 255.045 13.0487 254.889 13.638C254.751 14.21 254.456 14.8167 254.005 15.458C253.572 16.0993 252.931 16.8187 252.081 17.616L246.257 23.102L245.451 21.568H255.721V25H241.967ZM265.259 25.312C263.769 25.312 262.434 24.948 261.255 24.22C260.077 23.4747 259.149 22.4 258.473 20.996C257.797 19.592 257.459 17.8933 257.459 15.9C257.459 13.9067 257.797 12.208 258.473 10.804C259.149 9.4 260.077 8.334 261.255 7.606C262.434 6.86067 263.769 6.488 265.259 6.488C266.767 6.488 268.102 6.86067 269.263 7.606C270.442 8.334 271.369 9.4 272.045 10.804C272.721 12.208 273.059 13.9067 273.059 15.9C273.059 17.8933 272.721 19.592 272.045 20.996C271.369 22.4 270.442 23.4747 269.263 24.22C268.102 24.948 266.767 25.312 265.259 25.312ZM265.259 21.75C265.97 21.75 266.585 21.5507 267.105 21.152C267.643 20.7533 268.059 20.1207 268.353 19.254C268.665 18.3873 268.821 17.2693 268.821 15.9C268.821 14.5307 268.665 13.4127 268.353 12.546C268.059 11.6793 267.643 11.0467 267.105 10.648C266.585 10.2493 265.97 10.05 265.259 10.05C264.566 10.05 263.951 10.2493 263.413 10.648C262.893 11.0467 262.477 11.6793 262.165 12.546C261.871 13.4127 261.723 14.5307 261.723 15.9C261.723 17.2693 261.871 18.3873 262.165 19.254C262.477 20.1207 262.893 20.7533 263.413 21.152C263.951 21.5507 264.566 21.75 265.259 21.75ZM277.732 25L290.16 6.8H293.254L280.826 25H277.732ZM279.318 16.628C278.434 16.628 277.654 16.4287 276.978 16.03C276.302 15.614 275.764 15.0333 275.366 14.288C274.984 13.5253 274.794 12.6327 274.794 11.61C274.794 10.5873 274.984 9.70333 275.366 8.958C275.764 8.21267 276.302 7.632 276.978 7.216C277.654 6.8 278.434 6.592 279.318 6.592C280.202 6.592 280.982 6.8 281.658 7.216C282.334 7.632 282.862 8.21267 283.244 8.958C283.625 9.70333 283.816 10.5873 283.816 11.61C283.816 12.6327 283.625 13.5253 283.244 14.288C282.862 15.0333 282.334 15.614 281.658 16.03C280.982 16.4287 280.202 16.628 279.318 16.628ZM279.318 14.496C279.89 14.496 280.349 14.262 280.696 13.794C281.042 13.3087 281.216 12.5807 281.216 11.61C281.216 10.6393 281.042 9.92 280.696 9.452C280.349 8.96667 279.89 8.724 279.318 8.724C278.763 8.724 278.304 8.96667 277.94 9.452C277.593 9.92 277.42 10.6393 277.42 11.61C277.42 12.5633 277.593 13.2827 277.94 13.768C278.304 14.2533 278.763 14.496 279.318 14.496ZM291.668 25.208C290.801 25.208 290.021 25.0087 289.328 24.61C288.652 24.194 288.123 23.6133 287.742 22.868C287.36 22.1053 287.17 21.2127 287.17 20.19C287.17 19.1673 287.36 18.2833 287.742 17.538C288.123 16.7927 288.652 16.212 289.328 15.796C290.021 15.38 290.801 15.172 291.668 15.172C292.569 15.172 293.358 15.38 294.034 15.796C294.71 16.212 295.238 16.7927 295.62 17.538C296.001 18.2833 296.192 19.1673 296.192 20.19C296.192 21.2127 296.001 22.1053 295.62 22.868C295.238 23.6133 294.71 24.194 294.034 24.61C293.358 25.0087 292.569 25.208 291.668 25.208ZM291.668 23.076C292.24 23.076 292.699 22.842 293.046 22.374C293.392 21.8887 293.566 21.1607 293.566 20.19C293.566 19.2367 293.392 18.5173 293.046 18.032C292.699 17.5467 292.24 17.304 291.668 17.304C291.113 17.304 290.654 17.5467 290.29 18.032C289.943 18.5 289.77 19.2193 289.77 20.19C289.77 21.1607 289.943 21.8887 290.29 22.374C290.654 22.842 291.113 23.076 291.668 23.076ZM11.57 55.18V46.34H6.994L6.916 48.134C6.88133 48.8793 6.838 49.59 6.786 50.266C6.734 50.942 6.63 51.5573 6.474 52.112C6.33533 52.6493 6.12733 53.1087 5.85 53.49C5.57267 53.854 5.2 54.1053 4.732 54.244L0.728 53.672C1.23067 53.672 1.638 53.5247 1.95 53.23C2.262 52.918 2.50467 52.4933 2.678 51.956C2.85133 51.4013 2.98133 50.7773 3.068 50.084C3.15467 49.3733 3.21533 48.628 3.25 47.848L3.432 43.012H15.626V55.18H11.57ZM0.26 60.016V53.672H17.628V60.016H13.858V57H4.03V60.016H0.26ZM27.0185 57.208C25.4238 57.208 24.0198 56.896 22.8065 56.272C21.6105 55.648 20.6831 54.7987 20.0245 53.724C19.3658 52.632 19.0365 51.3927 19.0365 50.006C19.0365 48.602 19.3571 47.3627 19.9985 46.288C20.6571 45.196 21.5498 44.3467 22.6765 43.74C23.8031 43.116 25.0771 42.804 26.4985 42.804C27.8678 42.804 29.0985 43.0987 30.1905 43.688C31.2998 44.26 32.1751 45.092 32.8165 46.184C33.4578 47.2587 33.7785 48.55 33.7785 50.058C33.7785 50.214 33.7698 50.396 33.7525 50.604C33.7351 50.7947 33.7178 50.9767 33.7005 51.15H22.3385V48.784H31.5685L30.0085 49.486C30.0085 48.758 29.8611 48.1253 29.5665 47.588C29.2718 47.0507 28.8645 46.6347 28.3445 46.34C27.8245 46.028 27.2178 45.872 26.5245 45.872C25.8311 45.872 25.2158 46.028 24.6785 46.34C24.1585 46.6347 23.7511 47.0593 23.4565 47.614C23.1618 48.1513 23.0145 48.7927 23.0145 49.538V50.162C23.0145 50.9247 23.1791 51.6007 23.5085 52.19C23.8551 52.762 24.3318 53.204 24.9385 53.516C25.5625 53.8107 26.2905 53.958 27.1225 53.958C27.8678 53.958 28.5178 53.8453 29.0725 53.62C29.6445 53.3947 30.1645 53.0567 30.6325 52.606L32.7905 54.946C32.1491 55.674 31.3431 56.2373 30.3725 56.636C29.4018 57.0173 28.2838 57.208 27.0185 57.208ZM46.4295 53.672L45.5455 54.608V43.012H49.6015V54.608L48.6655 53.672H55.1135L54.2035 54.608V43.012H58.2335V57H36.8875V43.012H40.9175V54.608L40.0075 53.672H46.4295ZM68.9638 57.208C67.3691 57.208 65.9651 56.896 64.7518 56.272C63.5558 55.648 62.6284 54.7987 61.9698 53.724C61.3111 52.632 60.9818 51.3927 60.9818 50.006C60.9818 48.602 61.3024 47.3627 61.9438 46.288C62.6024 45.196 63.4951 44.3467 64.6218 43.74C65.7484 43.116 67.0224 42.804 68.4438 42.804C69.8131 42.804 71.0438 43.0987 72.1358 43.688C73.2451 44.26 74.1204 45.092 74.7618 46.184C75.4031 47.2587 75.7238 48.55 75.7238 50.058C75.7238 50.214 75.7151 50.396 75.6978 50.604C75.6804 50.7947 75.6631 50.9767 75.6458 51.15H64.2838V48.784H73.5138L71.9538 49.486C71.9538 48.758 71.8064 48.1253 71.5118 47.588C71.2171 47.0507 70.8098 46.6347 70.2898 46.34C69.7698 46.028 69.1631 45.872 68.4698 45.872C67.7764 45.872 67.1611 46.028 66.6238 46.34C66.1038 46.6347 65.6964 47.0593 65.4018 47.614C65.1071 48.1513 64.9598 48.7927 64.9598 49.538V50.162C64.9598 50.9247 65.1244 51.6007 65.4538 52.19C65.8004 52.762 66.2771 53.204 66.8838 53.516C67.5078 53.8107 68.2358 53.958 69.0678 53.958C69.8131 53.958 70.4631 53.8453 71.0178 53.62C71.5898 53.3947 72.1098 53.0567 72.5778 52.606L74.7358 54.946C74.0944 55.674 73.2884 56.2373 72.3178 56.636C71.3471 57.0173 70.2291 57.208 68.9638 57.208ZM78.8328 57V43.012H85.9828C87.7335 43.012 89.1028 43.3327 90.0908 43.974C91.0788 44.598 91.5728 45.482 91.5728 46.626C91.5728 47.77 91.1048 48.6713 90.1688 49.33C89.2501 49.9713 88.0281 50.292 86.5028 50.292L86.9188 49.356C88.6175 49.356 89.8828 49.668 90.7148 50.292C91.5641 50.916 91.9888 51.826 91.9888 53.022C91.9888 54.2527 91.5208 55.2233 90.5848 55.934C89.6488 56.6447 88.2188 57 86.2948 57H78.8328ZM82.5508 54.244H85.9568C86.7021 54.244 87.2568 54.1227 87.6208 53.88C88.0021 53.62 88.1928 53.23 88.1928 52.71C88.1928 52.1727 88.0195 51.7827 87.6728 51.54C87.3261 51.28 86.7801 51.15 86.0348 51.15H82.5508V54.244ZM82.5508 48.758H85.6188C86.3295 48.758 86.8581 48.628 87.2048 48.368C87.5688 48.108 87.7508 47.7353 87.7508 47.25C87.7508 46.7473 87.5688 46.3747 87.2048 46.132C86.8581 45.8893 86.3295 45.768 85.6188 45.768H82.5508V48.758ZM93.2386 56.974L93.4466 53.646C93.5506 53.6633 93.6546 53.6807 93.7586 53.698C93.8626 53.698 93.958 53.698 94.0446 53.698C94.53 53.698 94.9113 53.5593 95.1886 53.282C95.466 53.0047 95.674 52.632 95.8126 52.164C95.9513 51.6787 96.0466 51.1327 96.0986 50.526C96.168 49.9193 96.22 49.2867 96.2546 48.628L96.4626 43.012H108.423V57H104.367V45.352L105.277 46.34H99.1406L99.9986 45.3L99.8166 48.81C99.7646 50.058 99.6606 51.202 99.5046 52.242C99.366 53.282 99.132 54.1833 98.8026 54.946C98.4733 55.6913 98.0313 56.272 97.4766 56.688C96.922 57.0867 96.2113 57.286 95.3446 57.286C95.0326 57.286 94.7033 57.26 94.3566 57.208C94.01 57.156 93.6373 57.078 93.2386 56.974ZM119.161 57.208C117.566 57.208 116.162 56.896 114.949 56.272C113.753 55.648 112.826 54.7987 112.167 53.724C111.508 52.632 111.179 51.3927 111.179 50.006C111.179 48.602 111.5 47.3627 112.141 46.288C112.8 45.196 113.692 44.3467 114.819 43.74C115.946 43.116 117.22 42.804 118.641 42.804C120.01 42.804 121.241 43.0987 122.333 43.688C123.442 44.26 124.318 45.092 124.959 46.184C125.6 47.2587 125.921 48.55 125.921 50.058C125.921 50.214 125.912 50.396 125.895 50.604C125.878 50.7947 125.86 50.9767 125.843 51.15H114.481V48.784H123.711L122.151 49.486C122.151 48.758 122.004 48.1253 121.709 47.588C121.414 47.0507 121.007 46.6347 120.487 46.34C119.967 46.028 119.36 45.872 118.667 45.872C117.974 45.872 117.358 46.028 116.821 46.34C116.301 46.6347 115.894 47.0593 115.599 47.614C115.304 48.1513 115.157 48.7927 115.157 49.538V50.162C115.157 50.9247 115.322 51.6007 115.651 52.19C115.998 52.762 116.474 53.204 117.081 53.516C117.705 53.8107 118.433 53.958 119.265 53.958C120.01 53.958 120.66 53.8453 121.215 53.62C121.787 53.3947 122.307 53.0567 122.775 52.606L124.933 54.946C124.292 55.674 123.486 56.2373 122.515 56.636C121.544 57.0173 120.426 57.208 119.161 57.208Z" fill="#28CB47"/>
<path d="M1.652 123V113.2H8.82V114.082H2.674V117.288H5.88C7.03733 117.288 7.91467 117.526 8.512 118.002C9.11867 118.469 9.422 119.159 9.422 120.074C9.422 121.017 9.09533 121.74 8.442 122.244C7.798 122.748 6.86933 123 5.656 123H1.652ZM2.674 122.174H5.642C6.54733 122.174 7.22867 122.001 7.686 121.656C8.15267 121.301 8.386 120.788 8.386 120.116C8.386 118.781 7.47133 118.114 5.642 118.114H2.674V122.174ZM14.7222 123.07C13.9569 123.07 13.2849 122.911 12.7062 122.594C12.1275 122.267 11.6749 121.824 11.3482 121.264C11.0215 120.695 10.8582 120.046 10.8582 119.318C10.8582 118.59 11.0122 117.946 11.3202 117.386C11.6375 116.826 12.0669 116.387 12.6082 116.07C13.1589 115.743 13.7749 115.58 14.4562 115.58C15.1469 115.58 15.7582 115.739 16.2902 116.056C16.8315 116.364 17.2562 116.803 17.5642 117.372C17.8722 117.932 18.0262 118.581 18.0262 119.318C18.0262 119.365 18.0215 119.416 18.0122 119.472C18.0122 119.519 18.0122 119.57 18.0122 119.626H11.6142V118.884H17.4802L17.0882 119.178C17.0882 118.646 16.9715 118.175 16.7382 117.764C16.5142 117.344 16.2062 117.017 15.8142 116.784C15.4222 116.551 14.9695 116.434 14.4562 116.434C13.9522 116.434 13.4995 116.551 13.0982 116.784C12.6969 117.017 12.3842 117.344 12.1602 117.764C11.9362 118.184 11.8242 118.665 11.8242 119.206V119.36C11.8242 119.92 11.9455 120.415 12.1882 120.844C12.4402 121.264 12.7855 121.595 13.2242 121.838C13.6722 122.071 14.1809 122.188 14.7502 122.188C15.1982 122.188 15.6135 122.109 15.9962 121.95C16.3882 121.791 16.7242 121.549 17.0042 121.222L17.5642 121.866C17.2375 122.258 16.8269 122.557 16.3322 122.762C15.8469 122.967 15.3102 123.07 14.7222 123.07ZM21.9954 123.084C21.4634 123.084 20.9361 123.009 20.4134 122.86C19.8908 122.711 19.4288 122.482 19.0274 122.174L19.3494 121.432C19.7041 121.693 20.1148 121.894 20.5814 122.034C21.0481 122.165 21.5101 122.23 21.9674 122.23C22.4248 122.221 22.8214 122.155 23.1574 122.034C23.4934 121.913 23.7548 121.745 23.9414 121.53C24.1281 121.315 24.2214 121.073 24.2214 120.802C24.2214 120.41 24.0441 120.107 23.6894 119.892C23.3348 119.668 22.8494 119.556 22.2334 119.556H20.9734V118.828H22.1634C22.5274 118.828 22.8494 118.781 23.1294 118.688C23.4094 118.595 23.6241 118.459 23.7734 118.282C23.9321 118.105 24.0114 117.895 24.0114 117.652C24.0114 117.391 23.9181 117.167 23.7314 116.98C23.5541 116.793 23.3068 116.653 22.9894 116.56C22.6721 116.467 22.3128 116.42 21.9114 116.42C21.5474 116.429 21.1694 116.485 20.7774 116.588C20.3854 116.681 19.9981 116.826 19.6154 117.022L19.3354 116.252C19.7648 116.028 20.1894 115.86 20.6094 115.748C21.0388 115.627 21.4681 115.566 21.8974 115.566C22.4854 115.547 23.0128 115.617 23.4794 115.776C23.9554 115.935 24.3334 116.163 24.6134 116.462C24.8934 116.751 25.0334 117.101 25.0334 117.512C25.0334 117.876 24.9214 118.193 24.6974 118.464C24.4734 118.735 24.1748 118.945 23.8014 119.094C23.4281 119.243 23.0034 119.318 22.5274 119.318L22.5694 119.052C23.4094 119.052 24.0628 119.215 24.5294 119.542C25.0054 119.869 25.2434 120.312 25.2434 120.872C25.2434 121.311 25.0988 121.698 24.8094 122.034C24.5201 122.361 24.1281 122.617 23.6334 122.804C23.1481 122.991 22.6021 123.084 21.9954 123.084ZM31.164 123V115.65H32.158V118.898H36.792V115.65H37.786V123H36.792V119.752H32.158V123H31.164ZM45.1753 123V121.376L45.1333 121.11V118.394C45.1333 117.769 44.9559 117.288 44.6013 116.952C44.2559 116.616 43.7379 116.448 43.0473 116.448C42.5713 116.448 42.1186 116.527 41.6893 116.686C41.2599 116.845 40.8959 117.055 40.5973 117.316L40.1493 116.574C40.5226 116.257 40.9706 116.014 41.4933 115.846C42.0159 115.669 42.5666 115.58 43.1453 115.58C44.0973 115.58 44.8299 115.818 45.3433 116.294C45.8659 116.761 46.1273 117.475 46.1273 118.436V123H45.1753ZM42.6413 123.07C42.0906 123.07 41.6099 122.981 41.1993 122.804C40.7979 122.617 40.4899 122.365 40.2753 122.048C40.0606 121.721 39.9533 121.348 39.9533 120.928C39.9533 120.545 40.0419 120.2 40.2193 119.892C40.4059 119.575 40.7046 119.323 41.1153 119.136C41.5353 118.94 42.0953 118.842 42.7953 118.842H45.3293V119.584H42.8233C42.1139 119.584 41.6193 119.71 41.3393 119.962C41.0686 120.214 40.9333 120.527 40.9333 120.9C40.9333 121.32 41.0966 121.656 41.4233 121.908C41.7499 122.16 42.2073 122.286 42.7953 122.286C43.3553 122.286 43.8359 122.16 44.2373 121.908C44.6479 121.647 44.9466 121.273 45.1333 120.788L45.3573 121.474C45.1706 121.959 44.8439 122.347 44.3773 122.636C43.9199 122.925 43.3413 123.07 42.6413 123.07ZM48.7734 123V115.65H49.7674V122.132H54.2614V115.65H55.2554V123H48.7734ZM55.5074 124.778V122.916L55.7594 123H54.2614V122.132H56.4454V124.778H55.5074ZM61.4937 123.07C60.7284 123.07 60.0564 122.911 59.4777 122.594C58.899 122.267 58.4464 121.824 58.1197 121.264C57.793 120.695 57.6297 120.046 57.6297 119.318C57.6297 118.59 57.7837 117.946 58.0917 117.386C58.409 116.826 58.8384 116.387 59.3797 116.07C59.9304 115.743 60.5464 115.58 61.2277 115.58C61.9184 115.58 62.5297 115.739 63.0617 116.056C63.603 116.364 64.0277 116.803 64.3357 117.372C64.6437 117.932 64.7977 118.581 64.7977 119.318C64.7977 119.365 64.793 119.416 64.7837 119.472C64.7837 119.519 64.7837 119.57 64.7837 119.626H58.3857V118.884H64.2517L63.8597 119.178C63.8597 118.646 63.743 118.175 63.5097 117.764C63.2857 117.344 62.9777 117.017 62.5857 116.784C62.1937 116.551 61.741 116.434 61.2277 116.434C60.7237 116.434 60.271 116.551 59.8697 116.784C59.4684 117.017 59.1557 117.344 58.9317 117.764C58.7077 118.184 58.5957 118.665 58.5957 119.206V119.36C58.5957 119.92 58.717 120.415 58.9597 120.844C59.2117 121.264 59.557 121.595 59.9957 121.838C60.4437 122.071 60.9524 122.188 61.5217 122.188C61.9697 122.188 62.385 122.109 62.7677 121.95C63.1597 121.791 63.4957 121.549 63.7757 121.222L64.3357 121.866C64.009 122.258 63.5984 122.557 63.1037 122.762C62.6184 122.967 62.0817 123.07 61.4937 123.07ZM66.998 123V115.65H67.992V118.898H72.626V115.65H73.62V123H72.626V119.752H67.992V123H66.998ZM81.8353 123L78.8113 119.36L79.6373 118.87L83.0113 123H81.8353ZM76.4453 123V115.65H77.4393V123H76.4453ZM77.1313 119.724V118.87H79.4973V119.724H77.1313ZM79.7213 119.43L78.7973 119.29L81.7233 115.65H82.8013L79.7213 119.43ZM84.58 123V115.65H85.574V121.488L90.488 115.65H91.37V123H90.376V117.148L85.476 123H84.58ZM97.8828 123V115.65H104.491V123H103.497V116.252L103.749 116.518H98.6248L98.8768 116.252V123H97.8828ZM110.34 123.07C109.631 123.07 108.992 122.911 108.422 122.594C107.862 122.267 107.419 121.824 107.092 121.264C106.766 120.695 106.602 120.046 106.602 119.318C106.602 118.581 106.766 117.932 107.092 117.372C107.419 116.812 107.862 116.373 108.422 116.056C108.982 115.739 109.622 115.58 110.34 115.58C111.068 115.58 111.712 115.739 112.272 116.056C112.842 116.373 113.285 116.812 113.602 117.372C113.929 117.932 114.092 118.581 114.092 119.318C114.092 120.046 113.929 120.695 113.602 121.264C113.285 121.824 112.842 122.267 112.272 122.594C111.703 122.911 111.059 123.07 110.34 123.07ZM110.34 122.188C110.872 122.188 111.344 122.071 111.754 121.838C112.165 121.595 112.487 121.259 112.72 120.83C112.963 120.391 113.084 119.887 113.084 119.318C113.084 118.739 112.963 118.235 112.72 117.806C112.487 117.377 112.165 117.045 111.754 116.812C111.344 116.569 110.877 116.448 110.354 116.448C109.832 116.448 109.365 116.569 108.954 116.812C108.544 117.045 108.217 117.377 107.974 117.806C107.732 118.235 107.61 118.739 107.61 119.318C107.61 119.887 107.732 120.391 107.974 120.83C108.217 121.259 108.544 121.595 108.954 121.838C109.365 122.071 109.827 122.188 110.34 122.188ZM119.297 123.07C118.569 123.07 117.915 122.911 117.337 122.594C116.767 122.267 116.319 121.824 115.993 121.264C115.666 120.695 115.503 120.046 115.503 119.318C115.503 118.581 115.666 117.932 115.993 117.372C116.319 116.812 116.767 116.373 117.337 116.056C117.915 115.739 118.569 115.58 119.297 115.58C119.922 115.58 120.487 115.701 120.991 115.944C121.495 116.187 121.891 116.551 122.181 117.036L121.439 117.54C121.187 117.167 120.874 116.891 120.501 116.714C120.127 116.537 119.721 116.448 119.283 116.448C118.76 116.448 118.289 116.569 117.869 116.812C117.449 117.045 117.117 117.377 116.875 117.806C116.632 118.235 116.511 118.739 116.511 119.318C116.511 119.897 116.632 120.401 116.875 120.83C117.117 121.259 117.449 121.595 117.869 121.838C118.289 122.071 118.76 122.188 119.283 122.188C119.721 122.188 120.127 122.099 120.501 121.922C120.874 121.745 121.187 121.474 121.439 121.11L122.181 121.614C121.891 122.09 121.495 122.454 120.991 122.706C120.487 122.949 119.922 123.07 119.297 123.07ZM127.899 123.07C127.265 123.07 126.691 122.925 126.177 122.636C125.664 122.337 125.253 121.913 124.945 121.362C124.647 120.802 124.497 120.121 124.497 119.318C124.497 118.515 124.647 117.839 124.945 117.288C125.244 116.728 125.65 116.303 126.163 116.014C126.677 115.725 127.255 115.58 127.899 115.58C128.599 115.58 129.225 115.739 129.775 116.056C130.335 116.364 130.774 116.803 131.091 117.372C131.409 117.932 131.567 118.581 131.567 119.318C131.567 120.065 131.409 120.718 131.091 121.278C130.774 121.838 130.335 122.277 129.775 122.594C129.225 122.911 128.599 123.07 127.899 123.07ZM124.105 125.716V115.65H125.057V117.862L124.959 119.332L125.099 120.816V125.716H124.105ZM127.829 122.188C128.352 122.188 128.819 122.071 129.229 121.838C129.64 121.595 129.967 121.259 130.209 120.83C130.452 120.391 130.573 119.887 130.573 119.318C130.573 118.749 130.452 118.249 130.209 117.82C129.967 117.391 129.64 117.055 129.229 116.812C128.819 116.569 128.352 116.448 127.829 116.448C127.307 116.448 126.835 116.569 126.415 116.812C126.005 117.055 125.678 117.391 125.435 117.82C125.202 118.249 125.085 118.749 125.085 119.318C125.085 119.887 125.202 120.391 125.435 120.83C125.678 121.259 126.005 121.595 126.415 121.838C126.835 122.071 127.307 122.188 127.829 122.188ZM136.853 123.07C136.088 123.07 135.416 122.911 134.837 122.594C134.258 122.267 133.806 121.824 133.479 121.264C133.152 120.695 132.989 120.046 132.989 119.318C132.989 118.59 133.143 117.946 133.451 117.386C133.768 116.826 134.198 116.387 134.739 116.07C135.29 115.743 135.906 115.58 136.587 115.58C137.278 115.58 137.889 115.739 138.421 116.056C138.962 116.364 139.387 116.803 139.695 117.372C140.003 117.932 140.157 118.581 140.157 119.318C140.157 119.365 140.152 119.416 140.143 119.472C140.143 119.519 140.143 119.57 140.143 119.626H133.745V118.884H139.611L139.219 119.178C139.219 118.646 139.102 118.175 138.869 117.764C138.645 117.344 138.337 117.017 137.945 116.784C137.553 116.551 137.1 116.434 136.587 116.434C136.083 116.434 135.63 116.551 135.229 116.784C134.828 117.017 134.515 117.344 134.291 117.764C134.067 118.184 133.955 118.665 133.955 119.206V119.36C133.955 119.92 134.076 120.415 134.319 120.844C134.571 121.264 134.916 121.595 135.355 121.838C135.803 122.071 136.312 122.188 136.881 122.188C137.329 122.188 137.744 122.109 138.127 121.95C138.519 121.791 138.855 121.549 139.135 121.222L139.695 121.866C139.368 122.258 138.958 122.557 138.463 122.762C137.978 122.967 137.441 123.07 136.853 123.07ZM147.247 122.524V116.518H143.705L143.621 118.156C143.602 118.651 143.57 119.136 143.523 119.612C143.486 120.088 143.416 120.527 143.313 120.928C143.22 121.32 143.084 121.642 142.907 121.894C142.73 122.137 142.501 122.277 142.221 122.314L141.227 122.132C141.516 122.141 141.754 122.039 141.941 121.824C142.128 121.6 142.272 121.297 142.375 120.914C142.478 120.531 142.552 120.097 142.599 119.612C142.646 119.117 142.683 118.613 142.711 118.1L142.809 115.65H148.241V122.524H147.247ZM140.919 124.778V122.132H149.389V124.778H148.451V123H141.857V124.778H140.919ZM151.326 123V115.65H152.32V118.898H156.954V115.65H157.948V123H156.954V119.752H152.32V123H151.326ZM160.773 123V115.65H161.767V121.488L166.681 115.65H167.563V123H166.569V117.148L161.669 123H160.773ZM175.802 123L172.778 119.36L173.604 118.87L176.978 123H175.802ZM170.412 123V115.65H171.406V123H170.412ZM171.098 119.724V118.87H173.464V119.724H171.098ZM173.688 119.43L172.764 119.29L175.69 115.65H176.768L173.688 119.43ZM181.311 123.07C180.602 123.07 179.962 122.911 179.393 122.594C178.833 122.267 178.39 121.824 178.063 121.264C177.736 120.695 177.573 120.046 177.573 119.318C177.573 118.581 177.736 117.932 178.063 117.372C178.39 116.812 178.833 116.373 179.393 116.056C179.953 115.739 180.592 115.58 181.311 115.58C182.039 115.58 182.683 115.739 183.243 116.056C183.812 116.373 184.256 116.812 184.573 117.372C184.9 117.932 185.063 118.581 185.063 119.318C185.063 120.046 184.9 120.695 184.573 121.264C184.256 121.824 183.812 122.267 183.243 122.594C182.674 122.911 182.03 123.07 181.311 123.07ZM181.311 122.188C181.843 122.188 182.314 122.071 182.725 121.838C183.136 121.595 183.458 121.259 183.691 120.83C183.934 120.391 184.055 119.887 184.055 119.318C184.055 118.739 183.934 118.235 183.691 117.806C183.458 117.377 183.136 117.045 182.725 116.812C182.314 116.569 181.848 116.448 181.325 116.448C180.802 116.448 180.336 116.569 179.925 116.812C179.514 117.045 179.188 117.377 178.945 117.806C178.702 118.235 178.581 118.739 178.581 119.318C178.581 119.887 178.702 120.391 178.945 120.83C179.188 121.259 179.514 121.595 179.925 121.838C180.336 122.071 180.798 122.188 181.311 122.188ZM187.187 123V115.65H190.435C191.266 115.65 191.919 115.809 192.395 116.126C192.881 116.443 193.123 116.91 193.123 117.526C193.123 118.123 192.895 118.585 192.437 118.912C191.98 119.229 191.378 119.388 190.631 119.388L190.827 119.094C191.705 119.094 192.349 119.257 192.759 119.584C193.17 119.911 193.375 120.382 193.375 120.998C193.375 121.633 193.142 122.127 192.675 122.482C192.218 122.827 191.504 123 190.533 123H187.187ZM188.153 122.216H190.491C191.117 122.216 191.588 122.118 191.905 121.922C192.232 121.717 192.395 121.39 192.395 120.942C192.395 120.494 192.251 120.167 191.961 119.962C191.672 119.757 191.215 119.654 190.589 119.654H188.153V122.216ZM188.153 118.912H190.365C190.935 118.912 191.369 118.805 191.667 118.59C191.975 118.375 192.129 118.063 192.129 117.652C192.129 117.241 191.975 116.933 191.667 116.728C191.369 116.523 190.935 116.42 190.365 116.42H188.153V118.912ZM199.369 123V115.65H200.363V121.488L205.277 115.65H206.159V123H205.165V117.148L200.265 123H199.369ZM217.236 123V121.376L217.194 121.11V118.394C217.194 117.769 217.016 117.288 216.662 116.952C216.316 116.616 215.798 116.448 215.108 116.448C214.632 116.448 214.179 116.527 213.75 116.686C213.32 116.845 212.956 117.055 212.658 117.316L212.21 116.574C212.583 116.257 213.031 116.014 213.554 115.846C214.076 115.669 214.627 115.58 215.206 115.58C216.158 115.58 216.89 115.818 217.404 116.294C217.926 116.761 218.188 117.475 218.188 118.436V123H217.236ZM214.702 123.07C214.151 123.07 213.67 122.981 213.26 122.804C212.858 122.617 212.55 122.365 212.336 122.048C212.121 121.721 212.014 121.348 212.014 120.928C212.014 120.545 212.102 120.2 212.28 119.892C212.466 119.575 212.765 119.323 213.176 119.136C213.596 118.94 214.156 118.842 214.856 118.842H217.39V119.584H214.884C214.174 119.584 213.68 119.71 213.4 119.962C213.129 120.214 212.994 120.527 212.994 120.9C212.994 121.32 213.157 121.656 213.484 121.908C213.81 122.16 214.268 122.286 214.856 122.286C215.416 122.286 215.896 122.16 216.298 121.908C216.708 121.647 217.007 121.273 217.194 120.788L217.418 121.474C217.231 121.959 216.904 122.347 216.438 122.636C215.98 122.925 215.402 123.07 214.702 123.07ZM220.834 123V115.65H226.042V116.518H221.576L221.828 116.266V123H220.834ZM230.287 123.07C229.521 123.07 228.849 122.911 228.271 122.594C227.692 122.267 227.239 121.824 226.913 121.264C226.586 120.695 226.423 120.046 226.423 119.318C226.423 118.59 226.577 117.946 226.885 117.386C227.202 116.826 227.631 116.387 228.173 116.07C228.723 115.743 229.339 115.58 230.021 115.58C230.711 115.58 231.323 115.739 231.855 116.056C232.396 116.364 232.821 116.803 233.129 117.372C233.437 117.932 233.591 118.581 233.591 119.318C233.591 119.365 233.586 119.416 233.577 119.472C233.577 119.519 233.577 119.57 233.577 119.626H227.179V118.884H233.045L232.653 119.178C232.653 118.646 232.536 118.175 232.303 117.764C232.079 117.344 231.771 117.017 231.379 116.784C230.987 116.551 230.534 116.434 230.021 116.434C229.517 116.434 229.064 116.551 228.663 116.784C228.261 117.017 227.949 117.344 227.725 117.764C227.501 118.184 227.389 118.665 227.389 119.206V119.36C227.389 119.92 227.51 120.415 227.753 120.844C228.005 121.264 228.35 121.595 228.789 121.838C229.237 122.071 229.745 122.188 230.315 122.188C230.763 122.188 231.178 122.109 231.561 121.95C231.953 121.791 232.289 121.549 232.569 121.222L233.129 121.866C232.802 122.258 232.391 122.557 231.897 122.762C231.411 122.967 230.875 123.07 230.287 123.07ZM235.791 123V115.65H236.785V118.898H241.419V115.65H242.413V123H241.419V119.752H236.785V123H235.791ZM246.638 123V116.252L246.89 116.518H243.852V115.65H250.418V116.518H247.38L247.632 116.252V123H246.638ZM254.594 123.07C253.866 123.07 253.212 122.911 252.634 122.594C252.064 122.267 251.616 121.824 251.29 121.264C250.963 120.695 250.8 120.046 250.8 119.318C250.8 118.581 250.963 117.932 251.29 117.372C251.616 116.812 252.064 116.373 252.634 116.056C253.212 115.739 253.866 115.58 254.594 115.58C255.219 115.58 255.784 115.701 256.288 115.944C256.792 116.187 257.188 116.551 257.478 117.036L256.736 117.54C256.484 117.167 256.171 116.891 255.798 116.714C255.424 116.537 255.018 116.448 254.58 116.448C254.057 116.448 253.586 116.569 253.166 116.812C252.746 117.045 252.414 117.377 252.172 117.806C251.929 118.235 251.808 118.739 251.808 119.318C251.808 119.897 251.929 120.401 252.172 120.83C252.414 121.259 252.746 121.595 253.166 121.838C253.586 122.071 254.057 122.188 254.58 122.188C255.018 122.188 255.424 122.099 255.798 121.922C256.171 121.745 256.484 121.474 256.736 121.11L257.478 121.614C257.188 122.09 256.792 122.454 256.288 122.706C255.784 122.949 255.219 123.07 254.594 123.07ZM260.666 123V116.252L260.918 116.518H257.88V115.65H264.446V116.518H261.408L261.66 116.252V123H260.666ZM271.273 123L268.249 119.36L269.075 118.87L272.449 123H271.273ZM265.883 123V115.65H266.877V123H265.883ZM266.569 119.724V118.87H268.935V119.724H266.569ZM269.159 119.43L268.235 119.29L271.161 115.65H272.239L269.159 119.43ZM276.782 123.07C276.072 123.07 275.433 122.911 274.864 122.594C274.304 122.267 273.86 121.824 273.534 121.264C273.207 120.695 273.044 120.046 273.044 119.318C273.044 118.581 273.207 117.932 273.534 117.372C273.86 116.812 274.304 116.373 274.864 116.056C275.424 115.739 276.063 115.58 276.782 115.58C277.51 115.58 278.154 115.739 278.714 116.056C279.283 116.373 279.726 116.812 280.044 117.372C280.37 117.932 280.534 118.581 280.534 119.318C280.534 120.046 280.37 120.695 280.044 121.264C279.726 121.824 279.283 122.267 278.714 122.594C278.144 122.911 277.5 123.07 276.782 123.07ZM276.782 122.188C277.314 122.188 277.785 122.071 278.196 121.838C278.606 121.595 278.928 121.259 279.162 120.83C279.404 120.391 279.526 119.887 279.526 119.318C279.526 118.739 279.404 118.235 279.162 117.806C278.928 117.377 278.606 117.045 278.196 116.812C277.785 116.569 277.318 116.448 276.796 116.448C276.273 116.448 275.806 116.569 275.396 116.812C274.985 117.045 274.658 117.377 274.416 117.806C274.173 118.235 274.052 118.739 274.052 119.318C274.052 119.887 274.173 120.391 274.416 120.83C274.658 121.259 274.985 121.595 275.396 121.838C275.806 122.071 276.268 122.188 276.782 122.188ZM282.658 123V115.65H283.652V121.488L288.566 115.65H289.448V123H288.454V117.148L283.554 123H282.658ZM285.99 114.586C285.374 114.586 284.875 114.432 284.492 114.124C284.119 113.807 283.923 113.354 283.904 112.766H284.618C284.627 113.139 284.758 113.433 285.01 113.648C285.262 113.863 285.589 113.97 285.99 113.97C286.391 113.97 286.718 113.863 286.97 113.648C287.231 113.433 287.367 113.139 287.376 112.766H288.09C288.081 113.354 287.885 113.807 287.502 114.124C287.119 114.432 286.615 114.586 285.99 114.586ZM6.804 143L3.78 139.36L4.606 138.87L7.98 143H6.804ZM1.414 143V135.65H2.408V143H1.414ZM2.1 139.724V138.87H4.466V139.724H2.1ZM4.69 139.43L3.766 139.29L6.692 135.65H7.77L4.69 139.43ZM12.313 143.07C11.6037 143.07 10.9643 142.911 10.395 142.594C9.835 142.267 9.39167 141.824 9.065 141.264C8.73833 140.695 8.575 140.046 8.575 139.318C8.575 138.581 8.73833 137.932 9.065 137.372C9.39167 136.812 9.835 136.373 10.395 136.056C10.955 135.739 11.5943 135.58 12.313 135.58C13.041 135.58 13.685 135.739 14.245 136.056C14.8143 136.373 15.2577 136.812 15.575 137.372C15.9017 137.932 16.065 138.581 16.065 139.318C16.065 140.046 15.9017 140.695 15.575 141.264C15.2577 141.824 14.8143 142.267 14.245 142.594C13.6757 142.911 13.0317 143.07 12.313 143.07ZM12.313 142.188C12.845 142.188 13.3163 142.071 13.727 141.838C14.1377 141.595 14.4597 141.259 14.693 140.83C14.9357 140.391 15.057 139.887 15.057 139.318C15.057 138.739 14.9357 138.235 14.693 137.806C14.4597 137.377 14.1377 137.045 13.727 136.812C13.3163 136.569 12.8497 136.448 12.327 136.448C11.8043 136.448 11.3377 136.569 10.927 136.812C10.5163 137.045 10.1897 137.377 9.947 137.806C9.70433 138.235 9.583 138.739 9.583 139.318C9.583 139.887 9.70433 140.391 9.947 140.83C10.1897 141.259 10.5163 141.595 10.927 141.838C11.3377 142.071 11.7997 142.188 12.313 142.188ZM18.1894 143V135.65H19.1974L22.5294 141.292H22.1094L25.4974 135.65H26.4214V143H25.5114V136.784L25.6934 136.868L22.5294 142.104H22.0814L18.8894 136.812L19.0994 136.77V143H18.1894ZM29.2499 143V135.65H30.2439V141.488L35.1579 135.65H36.0399V143H35.0459V137.148L30.1459 143H29.2499ZM41.9686 143.07C41.2406 143.07 40.5873 142.911 40.0086 142.594C39.4393 142.267 38.9913 141.824 38.6646 141.264C38.3379 140.695 38.1746 140.046 38.1746 139.318C38.1746 138.581 38.3379 137.932 38.6646 137.372C38.9913 136.812 39.4393 136.373 40.0086 136.056C40.5873 135.739 41.2406 135.58 41.9686 135.58C42.5939 135.58 43.1586 135.701 43.6626 135.944C44.1666 136.187 44.5633 136.551 44.8526 137.036L44.1106 137.54C43.8586 137.167 43.5459 136.891 43.1726 136.714C42.7993 136.537 42.3933 136.448 41.9546 136.448C41.4319 136.448 40.9606 136.569 40.5406 136.812C40.1206 137.045 39.7893 137.377 39.5466 137.806C39.3039 138.235 39.1826 138.739 39.1826 139.318C39.1826 139.897 39.3039 140.401 39.5466 140.83C39.7893 141.259 40.1206 141.595 40.5406 141.838C40.9606 142.071 41.4319 142.188 41.9546 142.188C42.3933 142.188 42.7993 142.099 43.1726 141.922C43.5459 141.745 43.8586 141.474 44.1106 141.11L44.8526 141.614C44.5633 142.09 44.1666 142.454 43.6626 142.706C43.1586 142.949 42.5939 143.07 41.9686 143.07ZM49.7342 143.07C49.0062 143.07 48.3529 142.911 47.7742 142.594C47.2049 142.267 46.7569 141.824 46.4302 141.264C46.1036 140.695 45.9402 140.046 45.9402 139.318C45.9402 138.581 46.1036 137.932 46.4302 137.372C46.7569 136.812 47.2049 136.373 47.7742 136.056C48.3529 135.739 49.0062 135.58 49.7342 135.58C50.3596 135.58 50.9242 135.701 51.4282 135.944C51.9322 136.187 52.3289 136.551 52.6182 137.036L51.8762 137.54C51.6242 137.167 51.3116 136.891 50.9382 136.714C50.5649 136.537 50.1589 136.448 49.7202 136.448C49.1976 136.448 48.7262 136.569 48.3062 136.812C47.8862 137.045 47.5549 137.377 47.3122 137.806C47.0696 138.235 46.9482 138.739 46.9482 139.318C46.9482 139.897 47.0696 140.401 47.3122 140.83C47.5549 141.259 47.8862 141.595 48.3062 141.838C48.7262 142.071 49.1976 142.188 49.7202 142.188C50.1589 142.188 50.5649 142.099 50.9382 141.922C51.3116 141.745 51.6242 141.474 51.8762 141.11L52.6182 141.614C52.3289 142.09 51.9322 142.454 51.4282 142.706C50.9242 142.949 50.3596 143.07 49.7342 143.07ZM54.5429 143V135.65H55.5369V141.488L60.4509 135.65H61.3329V143H60.3389V137.148L55.4389 143H54.5429ZM67.8456 143V135.65H68.8536L72.1856 141.292H71.7656L75.1536 135.65H76.0776V143H75.1676V136.784L75.3496 136.868L72.1856 142.104H71.7376L68.5456 136.812L68.7556 136.77V143H67.8456ZM83.4702 143V141.376L83.4282 141.11V138.394C83.4282 137.769 83.2509 137.288 82.8962 136.952C82.5509 136.616 82.0329 136.448 81.3422 136.448C80.8662 136.448 80.4135 136.527 79.9842 136.686C79.5549 136.845 79.1909 137.055 78.8922 137.316L78.4442 136.574C78.8175 136.257 79.2655 136.014 79.7882 135.846C80.3109 135.669 80.8615 135.58 81.4402 135.58C82.3922 135.58 83.1249 135.818 83.6382 136.294C84.1609 136.761 84.4222 137.475 84.4222 138.436V143H83.4702ZM80.9362 143.07C80.3855 143.07 79.9049 142.981 79.4942 142.804C79.0929 142.617 78.7849 142.365 78.5702 142.048C78.3555 141.721 78.2482 141.348 78.2482 140.928C78.2482 140.545 78.3369 140.2 78.5142 139.892C78.7009 139.575 78.9995 139.323 79.4102 139.136C79.8302 138.94 80.3902 138.842 81.0902 138.842H83.6242V139.584H81.1182C80.4089 139.584 79.9142 139.71 79.6342 139.962C79.3635 140.214 79.2282 140.527 79.2282 140.9C79.2282 141.32 79.3915 141.656 79.7182 141.908C80.0449 142.16 80.5022 142.286 81.0902 142.286C81.6502 142.286 82.1309 142.16 82.5322 141.908C82.9429 141.647 83.2415 141.273 83.4282 140.788L83.6522 141.474C83.4655 141.959 83.1389 142.347 82.6722 142.636C82.2149 142.925 81.6362 143.07 80.9362 143.07ZM90.8623 143.07C90.2276 143.07 89.6536 142.925 89.1403 142.636C88.627 142.337 88.2163 141.913 87.9083 141.362C87.6096 140.802 87.4603 140.121 87.4603 139.318C87.4603 138.515 87.6096 137.839 87.9083 137.288C88.207 136.728 88.613 136.303 89.1263 136.014C89.6396 135.725 90.2183 135.58 90.8623 135.58C91.5623 135.58 92.1876 135.739 92.7383 136.056C93.2983 136.364 93.737 136.803 94.0543 137.372C94.3716 137.932 94.5303 138.581 94.5303 139.318C94.5303 140.065 94.3716 140.718 94.0543 141.278C93.737 141.838 93.2983 142.277 92.7383 142.594C92.1876 142.911 91.5623 143.07 90.8623 143.07ZM87.0683 145.716V135.65H88.0203V137.862L87.9223 139.332L88.0623 140.816V145.716H87.0683ZM90.7923 142.188C91.315 142.188 91.7816 142.071 92.1923 141.838C92.603 141.595 92.9296 141.259 93.1723 140.83C93.415 140.391 93.5363 139.887 93.5363 139.318C93.5363 138.749 93.415 138.249 93.1723 137.82C92.9296 137.391 92.603 137.055 92.1923 136.812C91.7816 136.569 91.315 136.448 90.7923 136.448C90.2696 136.448 89.7983 136.569 89.3783 136.812C88.9676 137.055 88.641 137.391 88.3983 137.82C88.165 138.249 88.0483 138.749 88.0483 139.318C88.0483 139.887 88.165 140.391 88.3983 140.83C88.641 141.259 88.9676 141.595 89.3783 141.838C89.7983 142.071 90.2696 142.188 90.7923 142.188ZM102.056 143L99.032 139.36L99.858 138.87L103.232 143H102.056ZM96.666 143V135.65H97.66V143H96.666ZM97.352 139.724V138.87H99.718V139.724H97.352ZM99.942 139.43L99.018 139.29L101.944 135.65H103.022L99.942 139.43ZM107.691 143.07C106.926 143.07 106.254 142.911 105.675 142.594C105.096 142.267 104.644 141.824 104.317 141.264C103.99 140.695 103.827 140.046 103.827 139.318C103.827 138.59 103.981 137.946 104.289 137.386C104.606 136.826 105.036 136.387 105.577 136.07C106.128 135.743 106.744 135.58 107.425 135.58C108.116 135.58 108.727 135.739 109.259 136.056C109.8 136.364 110.225 136.803 110.533 137.372C110.841 137.932 110.995 138.581 110.995 139.318C110.995 139.365 110.99 139.416 110.981 139.472C110.981 139.519 110.981 139.57 110.981 139.626H104.583V138.884H110.449L110.057 139.178C110.057 138.646 109.94 138.175 109.707 137.764C109.483 137.344 109.175 137.017 108.783 136.784C108.391 136.551 107.938 136.434 107.425 136.434C106.921 136.434 106.468 136.551 106.067 136.784C105.666 137.017 105.353 137.344 105.129 137.764C104.905 138.184 104.793 138.665 104.793 139.206V139.36C104.793 139.92 104.914 140.415 105.157 140.844C105.409 141.264 105.754 141.595 106.193 141.838C106.641 142.071 107.15 142.188 107.719 142.188C108.167 142.188 108.582 142.109 108.965 141.95C109.357 141.791 109.693 141.549 109.973 141.222L110.533 141.866C110.206 142.258 109.796 142.557 109.301 142.762C108.816 142.967 108.279 143.07 107.691 143.07ZM114.267 143V136.252L114.519 136.518H111.481V135.65H118.047V136.518H115.009L115.261 136.252V143H114.267ZM119.484 143V135.65H126.092V143H125.098V136.252L125.35 136.518H120.226L120.478 136.252V143H119.484ZM127.574 142.986L127.644 142.132C127.709 142.141 127.77 142.155 127.826 142.174C127.891 142.183 127.947 142.188 127.994 142.188C128.293 142.188 128.531 142.076 128.708 141.852C128.895 141.628 129.035 141.329 129.128 140.956C129.221 140.583 129.287 140.163 129.324 139.696C129.361 139.22 129.394 138.744 129.422 138.268L129.548 135.65H134.938V143H133.944V136.224L134.196 136.518H130.192L130.43 136.21L130.318 138.338C130.29 138.973 130.239 139.579 130.164 140.158C130.099 140.737 129.991 141.245 129.842 141.684C129.702 142.123 129.506 142.468 129.254 142.72C129.002 142.963 128.68 143.084 128.288 143.084C128.176 143.084 128.059 143.075 127.938 143.056C127.826 143.037 127.705 143.014 127.574 142.986ZM140.914 143.07C140.148 143.07 139.476 142.911 138.898 142.594C138.319 142.267 137.866 141.824 137.54 141.264C137.213 140.695 137.05 140.046 137.05 139.318C137.05 138.59 137.204 137.946 137.512 137.386C137.829 136.826 138.258 136.387 138.8 136.07C139.35 135.743 139.966 135.58 140.648 135.58C141.338 135.58 141.95 135.739 142.482 136.056C143.023 136.364 143.448 136.803 143.756 137.372C144.064 137.932 144.218 138.581 144.218 139.318C144.218 139.365 144.213 139.416 144.204 139.472C144.204 139.519 144.204 139.57 144.204 139.626H137.806V138.884H143.672L143.28 139.178C143.28 138.646 143.163 138.175 142.93 137.764C142.706 137.344 142.398 137.017 142.006 136.784C141.614 136.551 141.161 136.434 140.648 136.434C140.144 136.434 139.691 136.551 139.29 136.784C138.888 137.017 138.576 137.344 138.352 137.764C138.128 138.184 138.016 138.665 138.016 139.206V139.36C138.016 139.92 138.137 140.415 138.38 140.844C138.632 141.264 138.977 141.595 139.416 141.838C139.864 142.071 140.372 142.188 140.942 142.188C141.39 142.188 141.805 142.109 142.188 141.95C142.58 141.791 142.916 141.549 143.196 141.222L143.756 141.866C143.429 142.258 143.018 142.557 142.524 142.762C142.038 142.967 141.502 143.07 140.914 143.07ZM146.418 143V135.65H147.412V141.488L152.326 135.65H153.208V143H152.214V137.148L147.314 143H146.418ZM149.75 134.586C149.134 134.586 148.635 134.432 148.252 134.124C147.879 133.807 147.683 133.354 147.664 132.766H148.378C148.387 133.139 148.518 133.433 148.77 133.648C149.022 133.863 149.349 133.97 149.75 133.97C150.151 133.97 150.478 133.863 150.73 133.648C150.991 133.433 151.127 133.139 151.136 132.766H151.85C151.841 133.354 151.645 133.807 151.262 134.124C150.879 134.432 150.375 134.586 149.75 134.586ZM159.137 143.07C158.409 143.07 157.755 142.911 157.177 142.594C156.607 142.267 156.159 141.824 155.833 141.264C155.506 140.695 155.343 140.046 155.343 139.318C155.343 138.581 155.506 137.932 155.833 137.372C156.159 136.812 156.607 136.373 157.177 136.056C157.755 135.739 158.409 135.58 159.137 135.58C159.762 135.58 160.327 135.701 160.831 135.944C161.335 136.187 161.731 136.551 162.021 137.036L161.279 137.54C161.027 137.167 160.714 136.891 160.341 136.714C159.967 136.537 159.561 136.448 159.123 136.448C158.6 136.448 158.129 136.569 157.709 136.812C157.289 137.045 156.957 137.377 156.715 137.806C156.472 138.235 156.351 138.739 156.351 139.318C156.351 139.897 156.472 140.401 156.715 140.83C156.957 141.259 157.289 141.595 157.709 141.838C158.129 142.071 158.6 142.188 159.123 142.188C159.561 142.188 159.967 142.099 160.341 141.922C160.714 141.745 161.027 141.474 161.279 141.11L162.021 141.614C161.731 142.09 161.335 142.454 160.831 142.706C160.327 142.949 159.762 143.07 159.137 143.07ZM166.846 143.07C166.137 143.07 165.498 142.911 164.928 142.594C164.368 142.267 163.925 141.824 163.598 141.264C163.272 140.695 163.108 140.046 163.108 139.318C163.108 138.581 163.272 137.932 163.598 137.372C163.925 136.812 164.368 136.373 164.928 136.056C165.488 135.739 166.128 135.58 166.846 135.58C167.574 135.58 168.218 135.739 168.778 136.056C169.348 136.373 169.791 136.812 170.108 137.372C170.435 137.932 170.598 138.581 170.598 139.318C170.598 140.046 170.435 140.695 170.108 141.264C169.791 141.824 169.348 142.267 168.778 142.594C168.209 142.911 167.565 143.07 166.846 143.07ZM166.846 142.188C167.378 142.188 167.85 142.071 168.26 141.838C168.671 141.595 168.993 141.259 169.226 140.83C169.469 140.391 169.59 139.887 169.59 139.318C169.59 138.739 169.469 138.235 169.226 137.806C168.993 137.377 168.671 137.045 168.26 136.812C167.85 136.569 167.383 136.448 166.86 136.448C166.338 136.448 165.871 136.569 165.46 136.812C165.05 137.045 164.723 137.377 164.48 137.806C164.238 138.235 164.116 138.739 164.116 139.318C164.116 139.887 164.238 140.391 164.48 140.83C164.723 141.259 165.05 141.595 165.46 141.838C165.871 142.071 166.333 142.188 166.846 142.188ZM172.723 143V135.65H175.971C176.801 135.65 177.455 135.809 177.931 136.126C178.416 136.443 178.659 136.91 178.659 137.526C178.659 138.123 178.43 138.585 177.973 138.912C177.515 139.229 176.913 139.388 176.167 139.388L176.363 139.094C177.24 139.094 177.884 139.257 178.295 139.584C178.705 139.911 178.911 140.382 178.911 140.998C178.911 141.633 178.677 142.127 178.211 142.482C177.753 142.827 177.039 143 176.069 143H172.723ZM173.689 142.216H176.027C176.652 142.216 177.123 142.118 177.441 141.922C177.767 141.717 177.931 141.39 177.931 140.942C177.931 140.494 177.786 140.167 177.497 139.962C177.207 139.757 176.75 139.654 176.125 139.654H173.689V142.216ZM173.689 138.912H175.901C176.47 138.912 176.904 138.805 177.203 138.59C177.511 138.375 177.665 138.063 177.665 137.652C177.665 137.241 177.511 136.933 177.203 136.728C176.904 136.523 176.47 136.42 175.901 136.42H173.689V138.912Z" fill="#141414"/>
</svg>
