<svg width="24" height="25" viewBox="0 0 24 25" fill="none" xmlns="http://www.w3.org/2000/svg">
<g clip-path="url(#clip0_5587_18541)">
<path d="M23.25 12.875C23.25 13.835 22.0706 14.6262 21.8344 15.5112C21.5906 16.4262 22.2075 17.7013 21.7444 18.5019C21.2738 19.3156 19.8581 19.4131 19.1981 20.0731C18.5381 20.7331 18.4406 22.1488 17.6269 22.6194C16.8263 23.0825 15.5512 22.4656 14.6362 22.7094C13.7512 22.9456 12.96 24.125 12 24.125C11.04 24.125 10.2487 22.9456 9.36375 22.7094C8.44875 22.4656 7.17375 23.0825 6.37313 22.6194C5.55938 22.1488 5.46187 20.7331 4.80188 20.0731C4.14188 19.4131 2.72625 19.3156 2.25563 18.5019C1.7925 17.7013 2.40938 16.4262 2.16563 15.5112C1.92938 14.6262 0.75 13.835 0.75 12.875C0.75 11.915 1.92938 11.1237 2.16563 10.2387C2.40938 9.32375 1.7925 8.04875 2.25563 7.24813C2.72625 6.43438 4.14188 6.33687 4.80188 5.67688C5.46187 5.01688 5.55938 3.60125 6.37313 3.13063C7.17375 2.6675 8.44875 3.28438 9.36375 3.04063C10.2487 2.80438 11.04 1.625 12 1.625C12.96 1.625 13.7512 2.80438 14.6362 3.04063C15.5512 3.28438 16.8263 2.6675 17.6269 3.13063C18.4406 3.60125 18.5381 5.01688 19.1981 5.67688C19.8581 6.33687 21.2738 6.43438 21.7444 7.24813C22.2075 8.04875 21.5906 9.32375 21.8344 10.2387C22.0706 11.1237 23.25 11.915 23.25 12.875Z" fill="#28CB47"/>
<path d="M15.2511 9.52254L10.9686 13.805L8.74863 11.5869C8.26676 11.105 7.48488 11.105 7.00301 11.5869C6.52113 12.0688 6.52113 12.8507 7.00301 13.3325L10.1174 16.4469C10.5861 16.9157 11.3474 16.9157 11.8161 16.4469L16.9949 11.2682C17.4768 10.7863 17.4768 10.0044 16.9949 9.52254C16.513 9.04066 15.733 9.04066 15.2511 9.52254Z" fill="white"/>
</g>
<defs>
<clipPath id="clip0_5587_18541">
<rect width="24" height="24" fill="white" transform="translate(0 0.875)"/>
</clipPath>
</defs>
</svg>
