<svg width="1344" height="146" viewBox="0 0 1344 146" fill="none" xmlns="http://www.w3.org/2000/svg">
<rect width="1344" height="146" rx="12" fill="url(#paint0_linear_5979_17491)"/>
<path d="M63.1499 68.0002C63.5418 66.8863 64.3152 65.947 65.3332 65.3487C66.3512 64.7504 67.5481 64.5317 68.7119 64.7313C69.8757 64.931 70.9313 65.536 71.6917 66.4394C72.4521 67.3427 72.8683 68.486 72.8666 69.6668C72.8666 73.0002 67.8666 74.6668 67.8666 74.6668M67.9999 81.3335H68.0166M84.6666 73.0002C84.6666 82.2049 77.2047 89.6668 67.9999 89.6668C58.7952 89.6668 51.3333 82.2049 51.3333 73.0002C51.3333 63.7954 58.7952 56.3335 67.9999 56.3335C77.2047 56.3335 84.6666 63.7954 84.6666 73.0002Z" stroke="white" stroke-width="4" stroke-linecap="round" stroke-linejoin="round"/>
<path d="M119.456 71.68H130.208V75.84H119.456V71.68ZM119.84 84H114.656V61.6H131.584V65.76H119.84V84ZM131.243 84L141.227 61.6H146.347L156.363 84H150.923L142.731 64.224H144.779L136.555 84H131.243ZM136.235 79.2L137.611 75.264H149.131L150.539 79.2H136.235ZM169.223 84.384C167.473 84.384 165.841 84.096 164.327 83.52C162.833 82.944 161.532 82.1333 160.423 81.088C159.335 80.0427 158.481 78.816 157.863 77.408C157.265 76 156.967 74.464 156.967 72.8C156.967 71.136 157.265 69.6 157.863 68.192C158.481 66.784 159.345 65.5573 160.455 64.512C161.564 63.4667 162.865 62.656 164.359 62.08C165.852 61.504 167.473 61.216 169.223 61.216C170.993 61.216 172.615 61.504 174.087 62.08C175.58 62.656 176.871 63.4667 177.959 64.512C179.068 65.536 179.932 66.752 180.551 68.16C181.169 69.568 181.479 71.1147 181.479 72.8C181.479 74.464 181.169 76.0107 180.551 77.44C179.932 78.848 179.068 80.0747 177.959 81.12C176.871 82.144 175.58 82.944 174.087 83.52C172.615 84.096 170.993 84.384 169.223 84.384ZM176.551 89.152C175.676 89.152 174.844 89.056 174.055 88.864C173.287 88.672 172.519 88.3627 171.751 87.936C171.004 87.5093 170.215 86.9333 169.383 86.208C168.572 85.4827 167.687 84.5867 166.727 83.52L172.167 82.144C172.743 82.9333 173.276 83.5627 173.767 84.032C174.257 84.5013 174.727 84.832 175.175 85.024C175.644 85.216 176.135 85.312 176.647 85.312C178.012 85.312 179.228 84.7573 180.295 83.648L182.599 86.4C181.084 88.2347 179.068 89.152 176.551 89.152ZM169.223 79.968C170.225 79.968 171.143 79.7973 171.975 79.456C172.828 79.1147 173.575 78.624 174.215 77.984C174.855 77.344 175.345 76.5867 175.687 75.712C176.049 74.816 176.231 73.8453 176.231 72.8C176.231 71.7333 176.049 70.7627 175.687 69.888C175.345 69.0133 174.855 68.256 174.215 67.616C173.575 66.976 172.828 66.4853 171.975 66.144C171.143 65.8027 170.225 65.632 169.223 65.632C168.22 65.632 167.292 65.8027 166.439 66.144C165.585 66.4853 164.839 66.976 164.199 67.616C163.58 68.256 163.089 69.0133 162.727 69.888C162.385 70.7627 162.215 71.7333 162.215 72.8C162.215 73.8453 162.385 74.816 162.727 75.712C163.089 76.5867 163.58 77.344 164.199 77.984C164.839 78.624 165.585 79.1147 166.439 79.456C167.292 79.7973 168.22 79.968 169.223 79.968ZM194.181 84V66.784H202.981C205.136 66.784 206.821 67.1787 208.037 67.968C209.253 68.736 209.861 69.824 209.861 71.232C209.861 72.64 209.285 73.7493 208.133 74.56C207.003 75.3493 205.499 75.744 203.621 75.744L204.133 74.592C206.224 74.592 207.781 74.976 208.805 75.744C209.851 76.512 210.373 77.632 210.373 79.104C210.373 80.6187 209.797 81.8133 208.645 82.688C207.493 83.5627 205.733 84 203.365 84H194.181ZM198.757 80.608H202.949C203.867 80.608 204.549 80.4587 204.997 80.16C205.467 79.84 205.701 79.36 205.701 78.72C205.701 78.0587 205.488 77.5787 205.061 77.28C204.635 76.96 203.963 76.8 203.045 76.8H198.757V80.608ZM198.757 73.856H202.533C203.408 73.856 204.059 73.696 204.485 73.376C204.933 73.056 205.157 72.5973 205.157 72C205.157 71.3813 204.933 70.9227 204.485 70.624C204.059 70.3253 203.408 70.176 202.533 70.176H198.757V73.856ZM222.152 84.256C220.317 84.256 218.685 83.872 217.256 83.104C215.848 82.336 214.728 81.2907 213.896 79.968C213.085 78.624 212.68 77.0987 212.68 75.392C212.68 73.664 213.085 72.1387 213.896 70.816C214.728 69.472 215.848 68.4267 217.256 67.68C218.685 66.912 220.317 66.528 222.152 66.528C223.965 66.528 225.586 66.912 227.016 67.68C228.445 68.4267 229.565 69.4613 230.376 70.784C231.186 72.1067 231.592 73.6427 231.592 75.392C231.592 77.0987 231.186 78.624 230.376 79.968C229.565 81.2907 228.445 82.336 227.016 83.104C225.586 83.872 223.965 84.256 222.152 84.256ZM222.152 80.16C222.984 80.16 223.73 79.968 224.392 79.584C225.053 79.2 225.576 78.656 225.96 77.952C226.344 77.2267 226.536 76.3733 226.536 75.392C226.536 74.3893 226.344 73.536 225.96 72.832C225.576 72.128 225.053 71.584 224.392 71.2C223.73 70.816 222.984 70.624 222.152 70.624C221.32 70.624 220.573 70.816 219.911 71.2C219.25 71.584 218.717 72.128 218.312 72.832C217.928 73.536 217.736 74.3893 217.736 75.392C217.736 76.3733 217.928 77.2267 218.312 77.952C218.717 78.656 219.25 79.2 219.911 79.584C220.573 79.968 221.32 80.16 222.152 80.16ZM235.025 84V66.784H252.145V84H247.153V69.76L248.273 70.88H238.865L239.985 69.76V84H235.025ZM267.075 84.256C265.625 84.256 264.355 83.936 263.267 83.296C262.179 82.656 261.326 81.6853 260.707 80.384C260.11 79.0613 259.811 77.3973 259.811 75.392C259.811 73.3653 260.099 71.7013 260.675 70.4C261.251 69.0987 262.083 68.128 263.171 67.488C264.259 66.848 265.561 66.528 267.075 66.528C268.697 66.528 270.147 66.9013 271.427 67.648C272.729 68.3733 273.753 69.3973 274.499 70.72C275.267 72.0427 275.651 73.6 275.651 75.392C275.651 77.2053 275.267 78.7733 274.499 80.096C273.753 81.4187 272.729 82.4427 271.427 83.168C270.147 83.8933 268.697 84.256 267.075 84.256ZM256.899 90.208V66.784H261.667V70.304L261.571 75.424L261.891 80.512V90.208H256.899ZM266.211 80.16C267.043 80.16 267.779 79.968 268.419 79.584C269.081 79.2 269.603 78.656 269.987 77.952C270.393 77.2267 270.595 76.3733 270.595 75.392C270.595 74.3893 270.393 73.536 269.987 72.832C269.603 72.128 269.081 71.584 268.419 71.2C267.779 70.816 267.043 70.624 266.211 70.624C265.379 70.624 264.633 70.816 263.971 71.2C263.31 71.584 262.787 72.128 262.403 72.832C262.019 73.536 261.827 74.3893 261.827 75.392C261.827 76.3733 262.019 77.2267 262.403 77.952C262.787 78.656 263.31 79.2 263.971 79.584C264.633 79.968 265.379 80.16 266.211 80.16ZM287.214 84.256C285.379 84.256 283.747 83.872 282.318 83.104C280.91 82.336 279.79 81.2907 278.958 79.968C278.147 78.624 277.742 77.0987 277.742 75.392C277.742 73.664 278.147 72.1387 278.958 70.816C279.79 69.472 280.91 68.4267 282.318 67.68C283.747 66.912 285.379 66.528 287.214 66.528C289.027 66.528 290.649 66.912 292.078 67.68C293.507 68.4267 294.627 69.4613 295.438 70.784C296.249 72.1067 296.654 73.6427 296.654 75.392C296.654 77.0987 296.249 78.624 295.438 79.968C294.627 81.2907 293.507 82.336 292.078 83.104C290.649 83.872 289.027 84.256 287.214 84.256ZM287.214 80.16C288.046 80.16 288.793 79.968 289.454 79.584C290.115 79.2 290.638 78.656 291.022 77.952C291.406 77.2267 291.598 76.3733 291.598 75.392C291.598 74.3893 291.406 73.536 291.022 72.832C290.638 72.128 290.115 71.584 289.454 71.2C288.793 70.816 288.046 70.624 287.214 70.624C286.382 70.624 285.635 70.816 284.974 71.2C284.313 71.584 283.779 72.128 283.374 72.832C282.99 73.536 282.798 74.3893 282.798 75.392C282.798 76.3733 282.99 77.2267 283.374 77.952C283.779 78.656 284.313 79.2 284.974 79.584C285.635 79.968 286.382 80.16 287.214 80.16ZM308.28 84.256C306.424 84.256 304.77 83.8827 303.32 83.136C301.869 82.368 300.728 81.312 299.896 79.968C299.085 78.624 298.68 77.0987 298.68 75.392C298.68 73.664 299.085 72.1387 299.896 70.816C300.728 69.472 301.869 68.4267 303.32 67.68C304.77 66.912 306.424 66.528 308.28 66.528C310.093 66.528 311.672 66.912 313.016 67.68C314.36 68.4267 315.352 69.504 315.992 70.912L312.12 72.992C311.672 72.1813 311.106 71.584 310.424 71.2C309.762 70.816 309.037 70.624 308.248 70.624C307.394 70.624 306.626 70.816 305.944 71.2C305.261 71.584 304.717 72.128 304.312 72.832C303.928 73.536 303.736 74.3893 303.736 75.392C303.736 76.3947 303.928 77.248 304.312 77.952C304.717 78.656 305.261 79.2 305.944 79.584C306.626 79.968 307.394 80.16 308.248 80.16C309.037 80.16 309.762 79.9787 310.424 79.616C311.106 79.232 311.672 78.624 312.12 77.792L315.992 79.904C315.352 81.2907 314.36 82.368 313.016 83.136C311.672 83.8827 310.093 84.256 308.28 84.256ZM336.152 84.256C334.317 84.256 332.685 83.872 331.256 83.104C329.848 82.336 328.728 81.2907 327.896 79.968C327.085 78.624 326.68 77.0987 326.68 75.392C326.68 73.664 327.085 72.1387 327.896 70.816C328.728 69.472 329.848 68.4267 331.256 67.68C332.685 66.912 334.317 66.528 336.152 66.528C337.965 66.528 339.586 66.912 341.016 67.68C342.445 68.4267 343.565 69.4613 344.376 70.784C345.186 72.1067 345.592 73.6427 345.592 75.392C345.592 77.0987 345.186 78.624 344.376 79.968C343.565 81.2907 342.445 82.336 341.016 83.104C339.586 83.872 337.965 84.256 336.152 84.256ZM336.152 80.16C336.984 80.16 337.73 79.968 338.392 79.584C339.053 79.2 339.576 78.656 339.96 77.952C340.344 77.2267 340.536 76.3733 340.536 75.392C340.536 74.3893 340.344 73.536 339.96 72.832C339.576 72.128 339.053 71.584 338.392 71.2C337.73 70.816 336.984 70.624 336.152 70.624C335.32 70.624 334.573 70.816 333.911 71.2C333.25 71.584 332.717 72.128 332.312 72.832C331.928 73.536 331.736 74.3893 331.736 75.392C331.736 76.3733 331.928 77.2267 332.312 77.952C332.717 78.656 333.25 79.2 333.911 79.584C334.573 79.968 335.32 80.16 336.152 80.16ZM352.08 84V69.728L353.2 70.88H346.256V66.784H362.864V70.88H355.92L357.04 69.728V84H352.08ZM365.525 84V66.784H374.325C376.48 66.784 378.165 67.1787 379.381 67.968C380.597 68.736 381.205 69.824 381.205 71.232C381.205 72.64 380.629 73.7493 379.477 74.56C378.346 75.3493 376.842 75.744 374.965 75.744L375.477 74.592C377.568 74.592 379.125 74.976 380.149 75.744C381.194 76.512 381.717 77.632 381.717 79.104C381.717 80.6187 381.141 81.8133 379.989 82.688C378.837 83.5627 377.077 84 374.709 84H365.525ZM370.101 80.608H374.293C375.21 80.608 375.893 80.4587 376.341 80.16C376.81 79.84 377.045 79.36 377.045 78.72C377.045 78.0587 376.832 77.5787 376.405 77.28C375.978 76.96 375.306 76.8 374.389 76.8H370.101V80.608ZM370.101 73.856H373.877C374.752 73.856 375.402 73.696 375.829 73.376C376.277 73.056 376.501 72.5973 376.501 72C376.501 71.3813 376.277 70.9227 375.829 70.624C375.402 70.3253 374.752 70.176 373.877 70.176H370.101V73.856ZM393.847 84.256C391.885 84.256 390.157 83.872 388.663 83.104C387.191 82.336 386.05 81.2907 385.239 79.968C384.429 78.624 384.023 77.0987 384.023 75.392C384.023 73.664 384.418 72.1387 385.207 70.816C386.018 69.472 387.117 68.4267 388.503 67.68C389.89 66.912 391.458 66.528 393.207 66.528C394.893 66.528 396.407 66.8907 397.751 67.616C399.117 68.32 400.194 69.344 400.983 70.688C401.773 72.0107 402.167 73.6 402.167 75.456C402.167 75.648 402.157 75.872 402.135 76.128C402.114 76.3627 402.093 76.5867 402.071 76.8H388.087V73.888H399.447L397.527 74.752C397.527 73.856 397.346 73.0773 396.983 72.416C396.621 71.7547 396.119 71.2427 395.479 70.88C394.839 70.496 394.093 70.304 393.239 70.304C392.386 70.304 391.629 70.496 390.967 70.88C390.327 71.2427 389.826 71.7653 389.463 72.448C389.101 73.1093 388.919 73.8987 388.919 74.816V75.584C388.919 76.5227 389.122 77.3547 389.527 78.08C389.954 78.784 390.541 79.328 391.287 79.712C392.055 80.0747 392.951 80.256 393.975 80.256C394.893 80.256 395.693 80.1173 396.375 79.84C397.079 79.5627 397.719 79.1467 398.295 78.592L400.951 81.472C400.162 82.368 399.17 83.0613 397.975 83.552C396.781 84.0213 395.405 84.256 393.847 84.256ZM409.08 84V69.728L410.2 70.88H403.256V66.784H419.864V70.88H412.92L414.04 69.728V84H409.08Z" fill="white"/>
<rect x="1044.5" y="48.5" width="251" height="49" rx="5.5" stroke="white"/>
<path d="M1081.53 78V68.2H1089.97V78H1088.6V69.054L1088.93 69.418H1082.56L1082.91 69.054V78H1081.53ZM1096.1 78.084C1095.31 78.084 1094.61 77.9207 1094 77.594C1093.41 77.2673 1092.94 76.8193 1092.6 76.25C1092.28 75.6807 1092.11 75.0273 1092.11 74.29C1092.11 73.5527 1092.27 72.8993 1092.59 72.33C1092.92 71.7607 1093.36 71.3173 1093.92 71C1094.49 70.6733 1095.13 70.51 1095.84 70.51C1096.56 70.51 1097.19 70.6687 1097.74 70.986C1098.29 71.3033 1098.72 71.7513 1099.03 72.33C1099.35 72.8993 1099.51 73.5667 1099.51 74.332C1099.51 74.388 1099.5 74.4533 1099.49 74.528C1099.49 74.6027 1099.49 74.6727 1099.48 74.738H1093.16V73.772H1098.78L1098.23 74.108C1098.24 73.632 1098.14 73.2073 1097.94 72.834C1097.73 72.4607 1097.45 72.1713 1097.08 71.966C1096.73 71.7513 1096.31 71.644 1095.84 71.644C1095.37 71.644 1094.96 71.7513 1094.59 71.966C1094.23 72.1713 1093.94 72.4653 1093.74 72.848C1093.53 73.2213 1093.43 73.6507 1093.43 74.136V74.36C1093.43 74.8547 1093.54 75.298 1093.77 75.69C1094 76.0727 1094.32 76.3713 1094.73 76.586C1095.14 76.8007 1095.61 76.908 1096.15 76.908C1096.58 76.908 1096.98 76.8333 1097.34 76.684C1097.7 76.5347 1098.02 76.3107 1098.29 76.012L1099.03 76.88C1098.69 77.272 1098.27 77.5707 1097.77 77.776C1097.28 77.9813 1096.72 78.084 1096.1 78.084ZM1105.53 78.084C1104.91 78.084 1104.34 77.944 1103.83 77.664C1103.33 77.3747 1102.92 76.95 1102.61 76.39C1102.31 75.83 1102.17 75.13 1102.17 74.29C1102.17 73.45 1102.31 72.75 1102.6 72.19C1102.9 71.63 1103.3 71.21 1103.8 70.93C1104.32 70.65 1104.89 70.51 1105.53 70.51C1106.25 70.51 1106.9 70.6687 1107.46 70.986C1108.02 71.3033 1108.46 71.7467 1108.79 72.316C1109.11 72.876 1109.28 73.534 1109.28 74.29C1109.28 75.046 1109.11 75.7087 1108.79 76.278C1108.46 76.8473 1108.02 77.2907 1107.46 77.608C1106.9 77.9253 1106.25 78.084 1105.53 78.084ZM1101.59 80.716V70.58H1102.88V72.582L1102.8 74.304L1102.94 76.026V80.716H1101.59ZM1105.41 76.908C1105.89 76.908 1106.31 76.8007 1106.69 76.586C1107.07 76.3713 1107.37 76.068 1107.58 75.676C1107.81 75.2747 1107.92 74.8127 1107.92 74.29C1107.92 73.758 1107.81 73.3007 1107.58 72.918C1107.37 72.526 1107.07 72.2227 1106.69 72.008C1106.31 71.7933 1105.89 71.686 1105.41 71.686C1104.95 71.686 1104.52 71.7933 1104.14 72.008C1103.77 72.2227 1103.47 72.526 1103.24 72.918C1103.03 73.3007 1102.92 73.758 1102.92 74.29C1102.92 74.8127 1103.03 75.2747 1103.24 75.676C1103.47 76.068 1103.77 76.3713 1104.14 76.586C1104.52 76.8007 1104.95 76.908 1105.41 76.908ZM1114.53 78.084C1113.74 78.084 1113.04 77.9207 1112.43 77.594C1111.84 77.2673 1111.37 76.8193 1111.03 76.25C1110.71 75.6807 1110.54 75.0273 1110.54 74.29C1110.54 73.5527 1110.7 72.8993 1111.02 72.33C1111.35 71.7607 1111.79 71.3173 1112.35 71C1112.92 70.6733 1113.56 70.51 1114.27 70.51C1114.99 70.51 1115.62 70.6687 1116.17 70.986C1116.72 71.3033 1117.15 71.7513 1117.46 72.33C1117.78 72.8993 1117.94 73.5667 1117.94 74.332C1117.94 74.388 1117.93 74.4533 1117.92 74.528C1117.92 74.6027 1117.92 74.6727 1117.91 74.738H1111.59V73.772H1117.21L1116.66 74.108C1116.67 73.632 1116.57 73.2073 1116.37 72.834C1116.16 72.4607 1115.88 72.1713 1115.51 71.966C1115.16 71.7513 1114.74 71.644 1114.27 71.644C1113.8 71.644 1113.39 71.7513 1113.02 71.966C1112.66 72.1713 1112.37 72.4653 1112.17 72.848C1111.96 73.2213 1111.86 73.6507 1111.86 74.136V74.36C1111.86 74.8547 1111.97 75.298 1112.2 75.69C1112.43 76.0727 1112.75 76.3713 1113.16 76.586C1113.57 76.8007 1114.04 76.908 1114.58 76.908C1115.01 76.908 1115.41 76.8333 1115.77 76.684C1116.13 76.5347 1116.45 76.3107 1116.72 76.012L1117.46 76.88C1117.12 77.272 1116.7 77.5707 1116.2 77.776C1115.71 77.9813 1115.15 78.084 1114.53 78.084ZM1120.02 78V70.58H1121.36V75.984L1125.91 70.58H1127.13V78H1125.79V72.596L1121.25 78H1120.02ZM1123.49 69.614C1122.81 69.614 1122.27 69.4507 1121.88 69.124C1121.5 68.788 1121.3 68.3073 1121.29 67.682H1122.2C1122.21 68.0367 1122.33 68.3167 1122.55 68.522C1122.79 68.7273 1123.1 68.83 1123.48 68.83C1123.86 68.83 1124.17 68.7273 1124.4 68.522C1124.64 68.3167 1124.76 68.0367 1124.77 67.682H1125.7C1125.7 68.3073 1125.49 68.788 1125.1 69.124C1124.71 69.4507 1124.17 69.614 1123.49 69.614ZM1131.21 78V71.406L1131.55 71.756H1128.5V70.58H1135.27V71.756H1132.23L1132.56 71.406V78H1131.21ZM1136.65 78V70.58H1137.99V75.984L1142.54 70.58H1143.76V78H1142.41V72.596L1137.88 78H1136.65ZM1150.13 78V70.58H1153.57C1154.44 70.58 1155.12 70.748 1155.61 71.084C1156.12 71.4107 1156.37 71.8773 1156.37 72.484C1156.37 73.0907 1156.13 73.562 1155.66 73.898C1155.19 74.2247 1154.57 74.388 1153.79 74.388L1154 74.024C1154.89 74.024 1155.55 74.1873 1155.98 74.514C1156.41 74.8407 1156.62 75.3213 1156.62 75.956C1156.62 76.6 1156.38 77.104 1155.89 77.468C1155.42 77.8227 1154.69 78 1153.7 78H1150.13ZM1151.44 76.964H1153.6C1154.16 76.964 1154.58 76.88 1154.86 76.712C1155.14 76.5347 1155.28 76.2547 1155.28 75.872C1155.28 75.48 1155.15 75.1953 1154.89 75.018C1154.63 74.8313 1154.23 74.738 1153.68 74.738H1151.44V76.964ZM1151.44 73.772H1153.46C1153.97 73.772 1154.36 73.6787 1154.62 73.492C1154.89 73.296 1155.03 73.0253 1155.03 72.68C1155.03 72.3253 1154.89 72.0593 1154.62 71.882C1154.36 71.7047 1153.97 71.616 1153.46 71.616H1151.44V73.772ZM1162.49 78V70.58H1165.93C1166.8 70.58 1167.48 70.748 1167.97 71.084C1168.48 71.4107 1168.73 71.8773 1168.73 72.484C1168.73 73.0907 1168.49 73.562 1168.02 73.898C1167.55 74.2247 1166.93 74.388 1166.15 74.388L1166.36 74.024C1167.25 74.024 1167.91 74.1873 1168.34 74.514C1168.77 74.8407 1168.98 75.3213 1168.98 75.956C1168.98 76.6 1168.74 77.104 1168.25 77.468C1167.78 77.8227 1167.04 78 1166.06 78H1162.49ZM1163.8 76.964H1165.96C1166.52 76.964 1166.94 76.88 1167.22 76.712C1167.5 76.5347 1167.64 76.2547 1167.64 75.872C1167.64 75.48 1167.51 75.1953 1167.25 75.018C1166.99 74.8313 1166.59 74.738 1166.04 74.738H1163.8V76.964ZM1163.8 73.772H1165.82C1166.33 73.772 1166.72 73.6787 1166.98 73.492C1167.25 73.296 1167.39 73.0253 1167.39 72.68C1167.39 72.3253 1167.25 72.0593 1166.98 71.882C1166.72 71.7047 1166.33 71.616 1165.82 71.616H1163.8V73.772ZM1174.26 78.084C1173.52 78.084 1172.85 77.9207 1172.28 77.594C1171.7 77.2673 1171.24 76.8193 1170.9 76.25C1170.57 75.6713 1170.4 75.018 1170.4 74.29C1170.4 73.5527 1170.57 72.8993 1170.9 72.33C1171.24 71.7607 1171.7 71.3173 1172.28 71C1172.85 70.6733 1173.52 70.51 1174.26 70.51C1175 70.51 1175.66 70.6733 1176.24 71C1176.83 71.3173 1177.28 71.7607 1177.61 72.33C1177.95 72.89 1178.11 73.5433 1178.11 74.29C1178.11 75.0273 1177.95 75.6807 1177.61 76.25C1177.28 76.8193 1176.83 77.2673 1176.24 77.594C1175.66 77.9207 1175 78.084 1174.26 78.084ZM1174.26 76.908C1174.74 76.908 1175.16 76.8007 1175.54 76.586C1175.92 76.3713 1176.22 76.068 1176.43 75.676C1176.65 75.2747 1176.76 74.8127 1176.76 74.29C1176.76 73.758 1176.65 73.3007 1176.43 72.918C1176.22 72.526 1175.92 72.2227 1175.54 72.008C1175.16 71.7933 1174.74 71.686 1174.26 71.686C1173.79 71.686 1173.36 71.7933 1172.99 72.008C1172.62 72.2227 1172.32 72.526 1172.09 72.918C1171.87 73.3007 1171.76 73.758 1171.76 74.29C1171.76 74.8127 1171.87 75.2747 1172.09 75.676C1172.32 76.068 1172.62 76.3713 1172.99 76.586C1173.36 76.8007 1173.79 76.908 1174.26 76.908ZM1180.05 78V70.58H1186.93V78H1185.58V71.42L1185.91 71.756H1181.08L1181.4 71.42V78H1180.05ZM1193.46 78.084C1192.85 78.084 1192.28 77.944 1191.77 77.664C1191.26 77.3747 1190.86 76.95 1190.55 76.39C1190.25 75.83 1190.1 75.13 1190.1 74.29C1190.1 73.45 1190.25 72.75 1190.54 72.19C1190.84 71.63 1191.24 71.21 1191.74 70.93C1192.25 70.65 1192.83 70.51 1193.46 70.51C1194.19 70.51 1194.83 70.6687 1195.39 70.986C1195.95 71.3033 1196.4 71.7467 1196.72 72.316C1197.05 72.876 1197.21 73.534 1197.21 74.29C1197.21 75.046 1197.05 75.7087 1196.72 76.278C1196.4 76.8473 1195.95 77.2907 1195.39 77.608C1194.83 77.9253 1194.19 78.084 1193.46 78.084ZM1189.53 80.716V70.58H1190.82V72.582L1190.73 74.304L1190.87 76.026V80.716H1189.53ZM1193.35 76.908C1193.83 76.908 1194.25 76.8007 1194.62 76.586C1195.01 76.3713 1195.31 76.068 1195.52 75.676C1195.74 75.2747 1195.86 74.8127 1195.86 74.29C1195.86 73.758 1195.74 73.3007 1195.52 72.918C1195.31 72.526 1195.01 72.2227 1194.62 72.008C1194.25 71.7933 1193.83 71.686 1193.35 71.686C1192.88 71.686 1192.46 71.7933 1192.08 72.008C1191.7 72.2227 1191.4 72.526 1191.18 72.918C1190.97 73.3007 1190.86 73.758 1190.86 74.29C1190.86 74.8127 1190.97 75.2747 1191.18 75.676C1191.4 76.068 1191.7 76.3713 1192.08 76.586C1192.46 76.8007 1192.88 76.908 1193.35 76.908ZM1202.35 78.084C1201.6 78.084 1200.94 77.9207 1200.36 77.594C1199.78 77.2673 1199.32 76.8193 1198.99 76.25C1198.65 75.6713 1198.48 75.018 1198.48 74.29C1198.48 73.5527 1198.65 72.8993 1198.99 72.33C1199.32 71.7607 1199.78 71.3173 1200.36 71C1200.94 70.6733 1201.6 70.51 1202.35 70.51C1203.08 70.51 1203.74 70.6733 1204.32 71C1204.91 71.3173 1205.36 71.7607 1205.69 72.33C1206.03 72.89 1206.2 73.5433 1206.2 74.29C1206.2 75.0273 1206.03 75.6807 1205.69 76.25C1205.36 76.8193 1204.91 77.2673 1204.32 77.594C1203.74 77.9207 1203.08 78.084 1202.35 78.084ZM1202.35 76.908C1202.82 76.908 1203.25 76.8007 1203.62 76.586C1204 76.3713 1204.3 76.068 1204.52 75.676C1204.73 75.2747 1204.84 74.8127 1204.84 74.29C1204.84 73.758 1204.73 73.3007 1204.52 72.918C1204.3 72.526 1204 72.2227 1203.62 72.008C1203.25 71.7933 1202.82 71.686 1202.35 71.686C1201.87 71.686 1201.44 71.7933 1201.07 72.008C1200.7 72.2227 1200.4 72.526 1200.18 72.918C1199.95 73.3007 1199.84 73.758 1199.84 74.29C1199.84 74.8127 1199.95 75.2747 1200.18 75.676C1200.4 76.068 1200.7 76.3713 1201.07 76.586C1201.44 76.8007 1201.87 76.908 1202.35 76.908ZM1211.37 78.084C1210.61 78.084 1209.94 77.9207 1209.34 77.594C1208.75 77.2673 1208.29 76.8193 1207.95 76.25C1207.62 75.6807 1207.45 75.0273 1207.45 74.29C1207.45 73.5527 1207.62 72.8993 1207.95 72.33C1208.29 71.7607 1208.75 71.3173 1209.34 71C1209.94 70.6733 1210.61 70.51 1211.37 70.51C1212.04 70.51 1212.64 70.6453 1213.16 70.916C1213.69 71.1773 1214.1 71.5693 1214.39 72.092L1213.37 72.75C1213.13 72.386 1212.83 72.12 1212.48 71.952C1212.13 71.7747 1211.76 71.686 1211.36 71.686C1210.87 71.686 1210.44 71.7933 1210.05 72.008C1209.67 72.2227 1209.37 72.526 1209.14 72.918C1208.92 73.3007 1208.81 73.758 1208.81 74.29C1208.81 74.822 1208.92 75.284 1209.14 75.676C1209.37 76.068 1209.67 76.3713 1210.05 76.586C1210.44 76.8007 1210.87 76.908 1211.36 76.908C1211.76 76.908 1212.13 76.824 1212.48 76.656C1212.83 76.4787 1213.13 76.208 1213.37 75.844L1214.39 76.488C1214.1 77.0013 1213.69 77.398 1213.16 77.678C1212.64 77.9487 1212.04 78.084 1211.37 78.084ZM1215.48 74.738V73.576H1219.25V74.738H1215.48ZM1224.66 78.084C1223.91 78.084 1223.25 77.9207 1222.67 77.594C1222.09 77.2673 1221.63 76.8193 1221.3 76.25C1220.96 75.6713 1220.79 75.018 1220.79 74.29C1220.79 73.5527 1220.96 72.8993 1221.3 72.33C1221.63 71.7607 1222.09 71.3173 1222.67 71C1223.25 70.6733 1223.91 70.51 1224.66 70.51C1225.4 70.51 1226.05 70.6733 1226.63 71C1227.22 71.3173 1227.68 71.7607 1228 72.33C1228.34 72.89 1228.51 73.5433 1228.51 74.29C1228.51 75.0273 1228.34 75.6807 1228 76.25C1227.68 76.8193 1227.22 77.2673 1226.63 77.594C1226.05 77.9207 1225.4 78.084 1224.66 78.084ZM1224.66 76.908C1225.13 76.908 1225.56 76.8007 1225.93 76.586C1226.31 76.3713 1226.61 76.068 1226.83 75.676C1227.04 75.2747 1227.15 74.8127 1227.15 74.29C1227.15 73.758 1227.04 73.3007 1226.83 72.918C1226.61 72.526 1226.31 72.2227 1225.93 72.008C1225.56 71.7933 1225.13 71.686 1224.66 71.686C1224.18 71.686 1223.76 71.7933 1223.38 72.008C1223.01 72.2227 1222.71 72.526 1222.49 72.918C1222.26 73.3007 1222.15 73.758 1222.15 74.29C1222.15 74.8127 1222.26 75.2747 1222.49 75.676C1222.71 76.068 1223.01 76.3713 1223.38 76.586C1223.76 76.8007 1224.18 76.908 1224.66 76.908ZM1231.65 78V71.406L1231.98 71.756H1228.93V70.58H1235.71V71.756H1232.67L1232.99 71.406V78H1231.65ZM1237.08 78V70.58H1240.52C1241.39 70.58 1242.07 70.748 1242.57 71.084C1243.07 71.4107 1243.32 71.8773 1243.32 72.484C1243.32 73.0907 1243.09 73.562 1242.61 73.898C1242.14 74.2247 1241.52 74.388 1240.75 74.388L1240.96 74.024C1241.84 74.024 1242.5 74.1873 1242.93 74.514C1243.36 74.8407 1243.58 75.3213 1243.58 75.956C1243.58 76.6 1243.33 77.104 1242.85 77.468C1242.37 77.8227 1241.64 78 1240.65 78H1237.08ZM1238.4 76.964H1240.55C1241.11 76.964 1241.53 76.88 1241.81 76.712C1242.09 76.5347 1242.23 76.2547 1242.23 75.872C1242.23 75.48 1242.1 75.1953 1241.84 75.018C1241.59 74.8313 1241.19 74.738 1240.64 74.738H1238.4V76.964ZM1238.4 73.772H1240.41C1240.92 73.772 1241.31 73.6787 1241.57 73.492C1241.84 73.296 1241.98 73.0253 1241.98 72.68C1241.98 72.3253 1241.84 72.0593 1241.57 71.882C1241.31 71.7047 1240.92 71.616 1240.41 71.616H1238.4V73.772ZM1248.98 78.084C1248.19 78.084 1247.49 77.9207 1246.88 77.594C1246.29 77.2673 1245.82 76.8193 1245.48 76.25C1245.16 75.6807 1244.99 75.0273 1244.99 74.29C1244.99 73.5527 1245.15 72.8993 1245.47 72.33C1245.8 71.7607 1246.24 71.3173 1246.8 71C1247.37 70.6733 1248.01 70.51 1248.72 70.51C1249.44 70.51 1250.07 70.6687 1250.62 70.986C1251.17 71.3033 1251.6 71.7513 1251.91 72.33C1252.23 72.8993 1252.38 73.5667 1252.38 74.332C1252.38 74.388 1252.38 74.4533 1252.37 74.528C1252.37 74.6027 1252.37 74.6727 1252.36 74.738H1246.04V73.772H1251.66L1251.11 74.108C1251.12 73.632 1251.02 73.2073 1250.82 72.834C1250.61 72.4607 1250.33 72.1713 1249.96 71.966C1249.61 71.7513 1249.19 71.644 1248.72 71.644C1248.25 71.644 1247.83 71.7513 1247.47 71.966C1247.11 72.1713 1246.82 72.4653 1246.62 72.848C1246.41 73.2213 1246.31 73.6507 1246.31 74.136V74.36C1246.31 74.8547 1246.42 75.298 1246.64 75.69C1246.88 76.0727 1247.2 76.3713 1247.61 76.586C1248.02 76.8007 1248.49 76.908 1249.02 76.908C1249.46 76.908 1249.86 76.8333 1250.21 76.684C1250.58 76.5347 1250.9 76.3107 1251.17 76.012L1251.91 76.88C1251.57 77.272 1251.15 77.5707 1250.65 77.776C1250.15 77.9813 1249.6 78.084 1248.98 78.084ZM1255.63 78V71.406L1255.96 71.756H1252.91V70.58H1259.69V71.756H1256.65L1256.97 71.406V78H1255.63Z" fill="white"/>
<defs>
<linearGradient id="paint0_linear_5979_17491" x1="0" y1="0" x2="1072.86" y2="617.263" gradientUnits="userSpaceOnUse">
<stop stop-color="#669ADE"/>
<stop offset="1" stop-color="#96C5F5"/>
</linearGradient>
</defs>
</svg>
