<svg width="328" height="202" viewBox="0 0 328 202" fill="none" xmlns="http://www.w3.org/2000/svg">
<rect width="328" height="202" rx="12" fill="url(#paint0_linear_5979_17493)"/>
<g clip-path="url(#clip0_5979_17493)">
<path d="M36.12 35.9998C36.4335 35.1087 37.0522 34.3573 37.8666 33.8787C38.681 33.4 39.6385 33.2251 40.5696 33.3848C41.5006 33.5445 42.3451 34.0285 42.9534 34.7512C43.5618 35.4739 43.8947 36.3885 43.8933 37.3332C43.8933 39.9998 39.8933 41.3332 39.8933 41.3332M40 46.6665H40.0133M53.3333 39.9998C53.3333 47.3636 47.3638 53.3332 40 53.3332C32.6362 53.3332 26.6667 47.3636 26.6667 39.9998C26.6667 32.636 32.6362 26.6665 40 26.6665C47.3638 26.6665 53.3333 32.636 53.3333 39.9998Z" stroke="white" stroke-width="4" stroke-linecap="round" stroke-linejoin="round"/>
</g>
<path d="M29.126 92.53H36.518V95.39H29.126V92.53ZM29.39 101H25.826V85.6H37.464V88.46H29.39V101ZM37.2297 101L44.0937 85.6H47.6137L54.4997 101H50.7597L45.1277 87.404H46.5357L40.8817 101H37.2297ZM40.6617 97.7L41.6077 94.994H49.5277L50.4957 97.7H40.6617ZM63.3406 101.264C62.138 101.264 61.016 101.066 59.9746 100.67C58.948 100.274 58.0533 99.7167 57.2906 98.998C56.5426 98.2793 55.956 97.436 55.5306 96.468C55.12 95.5 54.9146 94.444 54.9146 93.3C54.9146 92.156 55.12 91.1 55.5306 90.132C55.956 89.164 56.55 88.3207 57.3126 87.602C58.0753 86.8833 58.97 86.326 59.9966 85.93C61.0233 85.534 62.138 85.336 63.3406 85.336C64.558 85.336 65.6726 85.534 66.6846 85.93C67.7113 86.326 68.5986 86.8833 69.3466 87.602C70.1093 88.306 70.7033 89.142 71.1286 90.11C71.554 91.078 71.7666 92.1413 71.7666 93.3C71.7666 94.444 71.554 95.5073 71.1286 96.49C70.7033 97.458 70.1093 98.3013 69.3466 99.02C68.5986 99.724 67.7113 100.274 66.6846 100.67C65.6726 101.066 64.558 101.264 63.3406 101.264ZM68.3786 104.542C67.7773 104.542 67.2053 104.476 66.6626 104.344C66.1346 104.212 65.6066 103.999 65.0786 103.706C64.5653 103.413 64.0226 103.017 63.4506 102.518C62.8933 102.019 62.2846 101.403 61.6246 100.67L65.3646 99.724C65.7606 100.267 66.1273 100.699 66.4646 101.022C66.802 101.345 67.1246 101.572 67.4326 101.704C67.7553 101.836 68.0926 101.902 68.4446 101.902C69.3833 101.902 70.2193 101.521 70.9526 100.758L72.5366 102.65C71.4953 103.911 70.1093 104.542 68.3786 104.542ZM63.3406 98.228C64.03 98.228 64.6606 98.1107 65.2326 97.876C65.8193 97.6413 66.3326 97.304 66.7726 96.864C67.2126 96.424 67.55 95.9033 67.7846 95.302C68.034 94.686 68.1586 94.0187 68.1586 93.3C68.1586 92.5667 68.034 91.8993 67.7846 91.298C67.55 90.6967 67.2126 90.176 66.7726 89.736C66.3326 89.296 65.8193 88.9587 65.2326 88.724C64.6606 88.4893 64.03 88.372 63.3406 88.372C62.6513 88.372 62.0133 88.4893 61.4266 88.724C60.84 88.9587 60.3266 89.296 59.8866 89.736C59.4613 90.176 59.124 90.6967 58.8746 91.298C58.64 91.8993 58.5226 92.5667 58.5226 93.3C58.5226 94.0187 58.64 94.686 58.8746 95.302C59.124 95.9033 59.4613 96.424 59.8866 96.864C60.3266 97.304 60.84 97.6413 61.4266 97.876C62.0133 98.1107 62.6513 98.228 63.3406 98.228ZM80.4996 101V89.164H86.5496C88.0309 89.164 89.1896 89.4353 90.0256 89.978C90.8616 90.506 91.2796 91.254 91.2796 92.222C91.2796 93.19 90.8836 93.9527 90.0916 94.51C89.3143 95.0527 88.2803 95.324 86.9896 95.324L87.3416 94.532C88.7789 94.532 89.8496 94.796 90.5536 95.324C91.2723 95.852 91.6316 96.622 91.6316 97.634C91.6316 98.6753 91.2356 99.4967 90.4436 100.098C89.6516 100.699 88.4416 101 86.8136 101H80.4996ZM83.6456 98.668H86.5276C87.1583 98.668 87.6276 98.5653 87.9356 98.36C88.2583 98.14 88.4196 97.81 88.4196 97.37C88.4196 96.9153 88.2729 96.5853 87.9796 96.38C87.6863 96.16 87.2243 96.05 86.5936 96.05H83.6456V98.668ZM83.6456 94.026H86.2416C86.8429 94.026 87.2903 93.916 87.5836 93.696C87.8916 93.476 88.0456 93.1607 88.0456 92.75C88.0456 92.3247 87.8916 92.0093 87.5836 91.804C87.2903 91.5987 86.8429 91.496 86.2416 91.496H83.6456V94.026ZM99.7292 101.176C98.4678 101.176 97.3458 100.912 96.3632 100.384C95.3952 99.856 94.6252 99.1373 94.0532 98.228C93.4958 97.304 93.2172 96.2553 93.2172 95.082C93.2172 93.894 93.4958 92.8453 94.0532 91.936C94.6252 91.012 95.3952 90.2933 96.3632 89.78C97.3458 89.252 98.4678 88.988 99.7292 88.988C100.976 88.988 102.09 89.252 103.073 89.78C104.056 90.2933 104.826 91.0047 105.383 91.914C105.94 92.8233 106.219 93.8793 106.219 95.082C106.219 96.2553 105.94 97.304 105.383 98.228C104.826 99.1373 104.056 99.856 103.073 100.384C102.09 100.912 100.976 101.176 99.7292 101.176ZM99.7292 98.36C100.301 98.36 100.814 98.228 101.269 97.964C101.724 97.7 102.083 97.326 102.347 96.842C102.611 96.3433 102.743 95.7567 102.743 95.082C102.743 94.3927 102.611 93.806 102.347 93.322C102.083 92.838 101.724 92.464 101.269 92.2C100.814 91.936 100.301 91.804 99.7292 91.804C99.1572 91.804 98.6438 91.936 98.1892 92.2C97.7345 92.464 97.3678 92.838 97.0892 93.322C96.8252 93.806 96.6932 94.3927 96.6932 95.082C96.6932 95.7567 96.8252 96.3433 97.0892 96.842C97.3678 97.326 97.7345 97.7 98.1892 97.964C98.6438 98.228 99.1572 98.36 99.7292 98.36ZM108.58 101V89.164H120.35V101H116.918V91.21L117.688 91.98H111.22L111.99 91.21V101H108.58ZM130.614 101.176C129.617 101.176 128.744 100.956 127.996 100.516C127.248 100.076 126.662 99.4087 126.236 98.514C125.826 97.6047 125.62 96.4607 125.62 95.082C125.62 93.6887 125.818 92.5447 126.214 91.65C126.61 90.7553 127.182 90.088 127.93 89.648C128.678 89.208 129.573 88.988 130.614 88.988C131.729 88.988 132.726 89.2447 133.606 89.758C134.501 90.2567 135.205 90.9607 135.718 91.87C136.246 92.7793 136.51 93.85 136.51 95.082C136.51 96.3287 136.246 97.4067 135.718 98.316C135.205 99.2253 134.501 99.9293 133.606 100.428C132.726 100.927 131.729 101.176 130.614 101.176ZM123.618 105.268V89.164H126.896V91.584L126.83 95.104L127.05 98.602V105.268H123.618ZM130.02 98.36C130.592 98.36 131.098 98.228 131.538 97.964C131.993 97.7 132.352 97.326 132.616 96.842C132.895 96.3433 133.034 95.7567 133.034 95.082C133.034 94.3927 132.895 93.806 132.616 93.322C132.352 92.838 131.993 92.464 131.538 92.2C131.098 91.936 130.592 91.804 130.02 91.804C129.448 91.804 128.935 91.936 128.48 92.2C128.026 92.464 127.666 92.838 127.402 93.322C127.138 93.806 127.006 94.3927 127.006 95.082C127.006 95.7567 127.138 96.3433 127.402 96.842C127.666 97.326 128.026 97.7 128.48 97.964C128.935 98.228 129.448 98.36 130.02 98.36ZM144.46 101.176C143.198 101.176 142.076 100.912 141.094 100.384C140.126 99.856 139.356 99.1373 138.784 98.228C138.226 97.304 137.948 96.2553 137.948 95.082C137.948 93.894 138.226 92.8453 138.784 91.936C139.356 91.012 140.126 90.2933 141.094 89.78C142.076 89.252 143.198 88.988 144.46 88.988C145.706 88.988 146.821 89.252 147.804 89.78C148.786 90.2933 149.556 91.0047 150.114 91.914C150.671 92.8233 150.95 93.8793 150.95 95.082C150.95 96.2553 150.671 97.304 150.114 98.228C149.556 99.1373 148.786 99.856 147.804 100.384C146.821 100.912 145.706 101.176 144.46 101.176ZM144.46 98.36C145.032 98.36 145.545 98.228 146 97.964C146.454 97.7 146.814 97.326 147.078 96.842C147.342 96.3433 147.474 95.7567 147.474 95.082C147.474 94.3927 147.342 93.806 147.078 93.322C146.814 92.838 146.454 92.464 146 92.2C145.545 91.936 145.032 91.804 144.46 91.804C143.888 91.804 143.374 91.936 142.92 92.2C142.465 92.464 142.098 92.838 141.82 93.322C141.556 93.806 141.424 94.3927 141.424 95.082C141.424 95.7567 141.556 96.3433 141.82 96.842C142.098 97.326 142.465 97.7 142.92 97.964C143.374 98.228 143.888 98.36 144.46 98.36ZM158.942 101.176C157.666 101.176 156.529 100.919 155.532 100.406C154.535 99.878 153.75 99.152 153.178 98.228C152.621 97.304 152.342 96.2553 152.342 95.082C152.342 93.894 152.621 92.8453 153.178 91.936C153.75 91.012 154.535 90.2933 155.532 89.78C156.529 89.252 157.666 88.988 158.942 88.988C160.189 88.988 161.274 89.252 162.198 89.78C163.122 90.2933 163.804 91.034 164.244 92.002L161.582 93.432C161.274 92.8747 160.885 92.464 160.416 92.2C159.961 91.936 159.463 91.804 158.92 91.804C158.333 91.804 157.805 91.936 157.336 92.2C156.867 92.464 156.493 92.838 156.214 93.322C155.95 93.806 155.818 94.3927 155.818 95.082C155.818 95.7713 155.95 96.358 156.214 96.842C156.493 97.326 156.867 97.7 157.336 97.964C157.805 98.228 158.333 98.36 158.92 98.36C159.463 98.36 159.961 98.2353 160.416 97.986C160.885 97.722 161.274 97.304 161.582 96.732L164.244 98.184C163.804 99.1373 163.122 99.878 162.198 100.406C161.274 100.919 160.189 101.176 158.942 101.176ZM178.104 101.176C176.843 101.176 175.721 100.912 174.738 100.384C173.77 99.856 173 99.1373 172.428 98.228C171.871 97.304 171.592 96.2553 171.592 95.082C171.592 93.894 171.871 92.8453 172.428 91.936C173 91.012 173.77 90.2933 174.738 89.78C175.721 89.252 176.843 88.988 178.104 88.988C179.351 88.988 180.465 89.252 181.448 89.78C182.431 90.2933 183.201 91.0047 183.758 91.914C184.315 92.8233 184.594 93.8793 184.594 95.082C184.594 96.2553 184.315 97.304 183.758 98.228C183.201 99.1373 182.431 99.856 181.448 100.384C180.465 100.912 179.351 101.176 178.104 101.176ZM178.104 98.36C178.676 98.36 179.189 98.228 179.644 97.964C180.099 97.7 180.458 97.326 180.722 96.842C180.986 96.3433 181.118 95.7567 181.118 95.082C181.118 94.3927 180.986 93.806 180.722 93.322C180.458 92.838 180.099 92.464 179.644 92.2C179.189 91.936 178.676 91.804 178.104 91.804C177.532 91.804 177.019 91.936 176.564 92.2C176.109 92.464 175.743 92.838 175.464 93.322C175.2 93.806 175.068 94.3927 175.068 95.082C175.068 95.7567 175.2 96.3433 175.464 96.842C175.743 97.326 176.109 97.7 176.564 97.964C177.019 98.228 177.532 98.36 178.104 98.36ZM189.055 101V91.188L189.825 91.98H185.051V89.164H196.469V91.98H191.695L192.465 91.188V101H189.055ZM198.298 101V89.164H204.348C205.83 89.164 206.988 89.4353 207.824 89.978C208.66 90.506 209.078 91.254 209.078 92.222C209.078 93.19 208.682 93.9527 207.89 94.51C207.113 95.0527 206.079 95.324 204.788 95.324L205.14 94.532C206.578 94.532 207.648 94.796 208.352 95.324C209.071 95.852 209.43 96.622 209.43 97.634C209.43 98.6753 209.034 99.4967 208.242 100.098C207.45 100.699 206.24 101 204.612 101H198.298ZM201.444 98.668H204.326C204.957 98.668 205.426 98.5653 205.734 98.36C206.057 98.14 206.218 97.81 206.218 97.37C206.218 96.9153 206.072 96.5853 205.778 96.38C205.485 96.16 205.023 96.05 204.392 96.05H201.444V98.668ZM201.444 94.026H204.04C204.642 94.026 205.089 93.916 205.382 93.696C205.69 93.476 205.844 93.1607 205.844 92.75C205.844 92.3247 205.69 92.0093 205.382 91.804C205.089 91.5987 204.642 91.496 204.04 91.496H201.444V94.026ZM217.77 101.176C216.421 101.176 215.233 100.912 214.206 100.384C213.194 99.856 212.409 99.1373 211.852 98.228C211.295 97.304 211.016 96.2553 211.016 95.082C211.016 93.894 211.287 92.8453 211.83 91.936C212.387 91.012 213.143 90.2933 214.096 89.78C215.049 89.252 216.127 88.988 217.33 88.988C218.489 88.988 219.53 89.2373 220.454 89.736C221.393 90.22 222.133 90.924 222.676 91.848C223.219 92.7573 223.49 93.85 223.49 95.126C223.49 95.258 223.483 95.412 223.468 95.588C223.453 95.7493 223.439 95.9033 223.424 96.05H213.81V94.048H221.62L220.3 94.642C220.3 94.026 220.175 93.4907 219.926 93.036C219.677 92.5813 219.332 92.2293 218.892 91.98C218.452 91.716 217.939 91.584 217.352 91.584C216.765 91.584 216.245 91.716 215.79 91.98C215.35 92.2293 215.005 92.5887 214.756 93.058C214.507 93.5127 214.382 94.0553 214.382 94.686V95.214C214.382 95.8593 214.521 96.4313 214.8 96.93C215.093 97.414 215.497 97.788 216.01 98.052C216.538 98.3013 217.154 98.426 217.858 98.426C218.489 98.426 219.039 98.3307 219.508 98.14C219.992 97.9493 220.432 97.6633 220.828 97.282L222.654 99.262C222.111 99.878 221.429 100.355 220.608 100.692C219.787 101.015 218.841 101.176 217.77 101.176ZM228.243 101V91.188L229.013 91.98H224.239V89.164H235.657V91.98H230.883L231.653 91.188V101H228.243Z" fill="white"/>
<rect x="24.5" y="130.5" width="279" height="47" rx="5.5" stroke="white"/>
<path d="M87.808 158V149.6H95.044V158H93.868V150.332L94.156 150.644H88.696L88.996 150.332V158H87.808ZM100.303 158.072C99.6235 158.072 99.0235 157.932 98.5035 157.652C97.9915 157.372 97.5915 156.988 97.3035 156.5C97.0235 156.012 96.8835 155.452 96.8835 154.82C96.8835 154.188 97.0195 153.628 97.2915 153.14C97.5715 152.652 97.9515 152.272 98.4315 152C98.9195 151.72 99.4675 151.58 100.075 151.58C100.691 151.58 101.235 151.716 101.707 151.988C102.179 152.26 102.547 152.644 102.811 153.14C103.083 153.628 103.219 154.2 103.219 154.856C103.219 154.904 103.215 154.96 103.207 155.024C103.207 155.088 103.203 155.148 103.195 155.204H97.7835V154.376H102.595L102.127 154.664C102.135 154.256 102.051 153.892 101.875 153.572C101.699 153.252 101.455 153.004 101.143 152.828C100.839 152.644 100.483 152.552 100.075 152.552C99.6755 152.552 99.3195 152.644 99.0075 152.828C98.6955 153.004 98.4515 153.256 98.2755 153.584C98.0995 153.904 98.0115 154.272 98.0115 154.688V154.88C98.0115 155.304 98.1075 155.684 98.2995 156.02C98.4995 156.348 98.7755 156.604 99.1275 156.788C99.4795 156.972 99.8835 157.064 100.339 157.064C100.715 157.064 101.055 157 101.359 156.872C101.671 156.744 101.943 156.552 102.175 156.296L102.811 157.04C102.523 157.376 102.163 157.632 101.731 157.808C101.307 157.984 100.831 158.072 100.303 158.072ZM108.379 158.072C107.851 158.072 107.367 157.952 106.927 157.712C106.495 157.464 106.147 157.1 105.883 156.62C105.627 156.14 105.499 155.54 105.499 154.82C105.499 154.1 105.623 153.5 105.871 153.02C106.127 152.54 106.471 152.18 106.903 151.94C107.343 151.7 107.835 151.58 108.379 151.58C109.003 151.58 109.555 151.716 110.035 151.988C110.515 152.26 110.895 152.64 111.175 153.128C111.455 153.608 111.595 154.172 111.595 154.82C111.595 155.468 111.455 156.036 111.175 156.524C110.895 157.012 110.515 157.392 110.035 157.664C109.555 157.936 109.003 158.072 108.379 158.072ZM105.007 160.328V151.64H106.111V153.356L106.039 154.832L106.159 156.308V160.328H105.007ZM108.283 157.064C108.691 157.064 109.055 156.972 109.375 156.788C109.703 156.604 109.959 156.344 110.143 156.008C110.335 155.664 110.431 155.268 110.431 154.82C110.431 154.364 110.335 153.972 110.143 153.644C109.959 153.308 109.703 153.048 109.375 152.864C109.055 152.68 108.691 152.588 108.283 152.588C107.883 152.588 107.519 152.68 107.191 152.864C106.871 153.048 106.615 153.308 106.423 153.644C106.239 153.972 106.147 154.364 106.147 154.82C106.147 155.268 106.239 155.664 106.423 156.008C106.615 156.344 106.871 156.604 107.191 156.788C107.519 156.972 107.883 157.064 108.283 157.064ZM116.1 158.072C115.42 158.072 114.82 157.932 114.3 157.652C113.788 157.372 113.388 156.988 113.1 156.5C112.82 156.012 112.68 155.452 112.68 154.82C112.68 154.188 112.816 153.628 113.088 153.14C113.368 152.652 113.748 152.272 114.228 152C114.716 151.72 115.264 151.58 115.872 151.58C116.488 151.58 117.032 151.716 117.504 151.988C117.976 152.26 118.344 152.644 118.608 153.14C118.88 153.628 119.016 154.2 119.016 154.856C119.016 154.904 119.012 154.96 119.004 155.024C119.004 155.088 119 155.148 118.992 155.204H113.58V154.376H118.392L117.924 154.664C117.932 154.256 117.848 153.892 117.672 153.572C117.496 153.252 117.252 153.004 116.94 152.828C116.636 152.644 116.28 152.552 115.872 152.552C115.472 152.552 115.116 152.644 114.804 152.828C114.492 153.004 114.248 153.256 114.072 153.584C113.896 153.904 113.808 154.272 113.808 154.688V154.88C113.808 155.304 113.904 155.684 114.096 156.02C114.296 156.348 114.572 156.604 114.924 156.788C115.276 156.972 115.68 157.064 116.136 157.064C116.512 157.064 116.852 157 117.156 156.872C117.468 156.744 117.74 156.552 117.972 156.296L118.608 157.04C118.32 157.376 117.96 157.632 117.528 157.808C117.104 157.984 116.628 158.072 116.1 158.072ZM120.804 158V151.64H121.956V156.272L125.855 151.64H126.9V158H125.747V153.368L121.86 158H120.804ZM123.78 150.812C123.196 150.812 122.736 150.672 122.4 150.392C122.072 150.104 121.904 149.692 121.896 149.156H122.676C122.684 149.46 122.784 149.7 122.976 149.876C123.176 150.052 123.44 150.14 123.768 150.14C124.096 150.14 124.36 150.052 124.56 149.876C124.76 149.7 124.864 149.46 124.872 149.156H125.676C125.668 149.692 125.496 150.104 125.16 150.392C124.824 150.672 124.364 150.812 123.78 150.812ZM130.396 158V152.348L130.684 152.648H128.068V151.64H133.876V152.648H131.272L131.548 152.348V158H130.396ZM135.054 158V151.64H136.206V156.272L140.105 151.64H141.15V158H139.997V153.368L136.11 158H135.054ZM146.608 158V151.64H149.56C150.304 151.64 150.888 151.784 151.312 152.072C151.744 152.352 151.96 152.752 151.96 153.272C151.96 153.792 151.756 154.196 151.348 154.484C150.948 154.764 150.416 154.904 149.752 154.904L149.932 154.592C150.692 154.592 151.256 154.732 151.624 155.012C151.992 155.292 152.176 155.704 152.176 156.248C152.176 156.8 151.968 157.232 151.552 157.544C151.144 157.848 150.516 158 149.668 158H146.608ZM147.736 157.112H149.584C150.064 157.112 150.424 157.04 150.664 156.896C150.904 156.744 151.024 156.504 151.024 156.176C151.024 155.84 150.912 155.596 150.688 155.444C150.472 155.284 150.128 155.204 149.656 155.204H147.736V157.112ZM147.736 154.376H149.464C149.904 154.376 150.236 154.296 150.46 154.136C150.692 153.968 150.808 153.736 150.808 153.44C150.808 153.136 150.692 152.908 150.46 152.756C150.236 152.604 149.904 152.528 149.464 152.528H147.736V154.376ZM157.202 158V151.64H160.154C160.898 151.64 161.482 151.784 161.906 152.072C162.338 152.352 162.554 152.752 162.554 153.272C162.554 153.792 162.35 154.196 161.942 154.484C161.542 154.764 161.01 154.904 160.346 154.904L160.526 154.592C161.286 154.592 161.85 154.732 162.218 155.012C162.586 155.292 162.77 155.704 162.77 156.248C162.77 156.8 162.562 157.232 162.146 157.544C161.738 157.848 161.11 158 160.262 158H157.202ZM158.33 157.112H160.178C160.658 157.112 161.018 157.04 161.258 156.896C161.498 156.744 161.618 156.504 161.618 156.176C161.618 155.84 161.506 155.596 161.282 155.444C161.066 155.284 160.722 155.204 160.25 155.204H158.33V157.112ZM158.33 154.376H160.058C160.498 154.376 160.83 154.296 161.054 154.136C161.286 153.968 161.402 153.736 161.402 153.44C161.402 153.136 161.286 152.908 161.054 152.756C160.83 152.604 160.498 152.528 160.058 152.528H158.33V154.376ZM167.297 158.072C166.657 158.072 166.089 157.932 165.593 157.652C165.097 157.372 164.705 156.988 164.417 156.5C164.129 156.004 163.985 155.444 163.985 154.82C163.985 154.188 164.129 153.628 164.417 153.14C164.705 152.652 165.097 152.272 165.593 152C166.089 151.72 166.657 151.58 167.297 151.58C167.929 151.58 168.493 151.72 168.989 152C169.493 152.272 169.885 152.652 170.165 153.14C170.453 153.62 170.597 154.18 170.597 154.82C170.597 155.452 170.453 156.012 170.165 156.5C169.885 156.988 169.493 157.372 168.989 157.652C168.493 157.932 167.929 158.072 167.297 158.072ZM167.297 157.064C167.705 157.064 168.069 156.972 168.389 156.788C168.717 156.604 168.973 156.344 169.157 156.008C169.341 155.664 169.433 155.268 169.433 154.82C169.433 154.364 169.341 153.972 169.157 153.644C168.973 153.308 168.717 153.048 168.389 152.864C168.069 152.68 167.705 152.588 167.297 152.588C166.889 152.588 166.525 152.68 166.205 152.864C165.885 153.048 165.629 153.308 165.437 153.644C165.245 153.972 165.149 154.364 165.149 154.82C165.149 155.268 165.245 155.664 165.437 156.008C165.629 156.344 165.885 156.604 166.205 156.788C166.525 156.972 166.889 157.064 167.297 157.064ZM172.261 158V151.64H178.153V158H177.001V152.36L177.277 152.648H173.137L173.413 152.36V158H172.261ZM183.754 158.072C183.226 158.072 182.742 157.952 182.302 157.712C181.87 157.464 181.522 157.1 181.258 156.62C181.002 156.14 180.874 155.54 180.874 154.82C180.874 154.1 180.998 153.5 181.246 153.02C181.502 152.54 181.846 152.18 182.278 151.94C182.718 151.7 183.21 151.58 183.754 151.58C184.378 151.58 184.93 151.716 185.41 151.988C185.89 152.26 186.27 152.64 186.55 153.128C186.83 153.608 186.97 154.172 186.97 154.82C186.97 155.468 186.83 156.036 186.55 156.524C186.27 157.012 185.89 157.392 185.41 157.664C184.93 157.936 184.378 158.072 183.754 158.072ZM180.382 160.328V151.64H181.486V153.356L181.414 154.832L181.534 156.308V160.328H180.382ZM183.658 157.064C184.066 157.064 184.43 156.972 184.75 156.788C185.078 156.604 185.334 156.344 185.518 156.008C185.71 155.664 185.806 155.268 185.806 154.82C185.806 154.364 185.71 153.972 185.518 153.644C185.334 153.308 185.078 153.048 184.75 152.864C184.43 152.68 184.066 152.588 183.658 152.588C183.258 152.588 182.894 152.68 182.566 152.864C182.246 153.048 181.99 153.308 181.798 153.644C181.614 153.972 181.522 154.364 181.522 154.82C181.522 155.268 181.614 155.664 181.798 156.008C181.99 156.344 182.246 156.604 182.566 156.788C182.894 156.972 183.258 157.064 183.658 157.064ZM191.367 158.072C190.727 158.072 190.159 157.932 189.663 157.652C189.167 157.372 188.775 156.988 188.487 156.5C188.199 156.004 188.055 155.444 188.055 154.82C188.055 154.188 188.199 153.628 188.487 153.14C188.775 152.652 189.167 152.272 189.663 152C190.159 151.72 190.727 151.58 191.367 151.58C191.999 151.58 192.563 151.72 193.059 152C193.563 152.272 193.955 152.652 194.235 153.14C194.523 153.62 194.667 154.18 194.667 154.82C194.667 155.452 194.523 156.012 194.235 156.5C193.955 156.988 193.563 157.372 193.059 157.652C192.563 157.932 191.999 158.072 191.367 158.072ZM191.367 157.064C191.775 157.064 192.139 156.972 192.459 156.788C192.787 156.604 193.043 156.344 193.227 156.008C193.411 155.664 193.503 155.268 193.503 154.82C193.503 154.364 193.411 153.972 193.227 153.644C193.043 153.308 192.787 153.048 192.459 152.864C192.139 152.68 191.775 152.588 191.367 152.588C190.959 152.588 190.595 152.68 190.275 152.864C189.955 153.048 189.699 153.308 189.507 153.644C189.315 153.972 189.219 154.364 189.219 154.82C189.219 155.268 189.315 155.664 189.507 156.008C189.699 156.344 189.955 156.604 190.275 156.788C190.595 156.972 190.959 157.064 191.367 157.064ZM199.103 158.072C198.455 158.072 197.875 157.932 197.363 157.652C196.859 157.372 196.463 156.988 196.175 156.5C195.887 156.012 195.743 155.452 195.743 154.82C195.743 154.188 195.887 153.628 196.175 153.14C196.463 152.652 196.859 152.272 197.363 152C197.875 151.72 198.455 151.58 199.103 151.58C199.679 151.58 200.191 151.696 200.639 151.928C201.095 152.152 201.447 152.488 201.695 152.936L200.819 153.5C200.611 153.188 200.355 152.96 200.051 152.816C199.755 152.664 199.435 152.588 199.091 152.588C198.675 152.588 198.303 152.68 197.975 152.864C197.647 153.048 197.387 153.308 197.195 153.644C197.003 153.972 196.907 154.364 196.907 154.82C196.907 155.276 197.003 155.672 197.195 156.008C197.387 156.344 197.647 156.604 197.975 156.788C198.303 156.972 198.675 157.064 199.091 157.064C199.435 157.064 199.755 156.992 200.051 156.848C200.355 156.696 200.611 156.464 200.819 156.152L201.695 156.704C201.447 157.144 201.095 157.484 200.639 157.724C200.191 157.956 199.679 158.072 199.103 158.072ZM202.625 155.204V154.208H205.853V155.204H202.625ZM210.492 158.072C209.852 158.072 209.284 157.932 208.788 157.652C208.292 157.372 207.9 156.988 207.612 156.5C207.324 156.004 207.18 155.444 207.18 154.82C207.18 154.188 207.324 153.628 207.612 153.14C207.9 152.652 208.292 152.272 208.788 152C209.284 151.72 209.852 151.58 210.492 151.58C211.124 151.58 211.688 151.72 212.184 152C212.688 152.272 213.08 152.652 213.36 153.14C213.648 153.62 213.792 154.18 213.792 154.82C213.792 155.452 213.648 156.012 213.36 156.5C213.08 156.988 212.688 157.372 212.184 157.652C211.688 157.932 211.124 158.072 210.492 158.072ZM210.492 157.064C210.9 157.064 211.264 156.972 211.584 156.788C211.912 156.604 212.168 156.344 212.352 156.008C212.536 155.664 212.628 155.268 212.628 154.82C212.628 154.364 212.536 153.972 212.352 153.644C212.168 153.308 211.912 153.048 211.584 152.864C211.264 152.68 210.9 152.588 210.492 152.588C210.084 152.588 209.72 152.68 209.4 152.864C209.08 153.048 208.824 153.308 208.632 153.644C208.44 153.972 208.344 154.364 208.344 154.82C208.344 155.268 208.44 155.664 208.632 156.008C208.824 156.344 209.08 156.604 209.4 156.788C209.72 156.972 210.084 157.064 210.492 157.064ZM216.481 158V152.348L216.769 152.648H214.153V151.64H219.961V152.648H217.357L217.633 152.348V158H216.481ZM221.139 158V151.64H224.091C224.835 151.64 225.419 151.784 225.843 152.072C226.275 152.352 226.491 152.752 226.491 153.272C226.491 153.792 226.287 154.196 225.879 154.484C225.479 154.764 224.947 154.904 224.283 154.904L224.463 154.592C225.223 154.592 225.787 154.732 226.155 155.012C226.523 155.292 226.707 155.704 226.707 156.248C226.707 156.8 226.499 157.232 226.083 157.544C225.675 157.848 225.047 158 224.199 158H221.139ZM222.267 157.112H224.115C224.595 157.112 224.955 157.04 225.195 156.896C225.435 156.744 225.555 156.504 225.555 156.176C225.555 155.84 225.443 155.596 225.219 155.444C225.003 155.284 224.659 155.204 224.187 155.204H222.267V157.112ZM222.267 154.376H223.995C224.435 154.376 224.767 154.296 224.991 154.136C225.223 153.968 225.339 153.736 225.339 153.44C225.339 153.136 225.223 152.908 224.991 152.756C224.767 152.604 224.435 152.528 223.995 152.528H222.267V154.376ZM231.343 158.072C230.663 158.072 230.063 157.932 229.543 157.652C229.031 157.372 228.631 156.988 228.343 156.5C228.063 156.012 227.923 155.452 227.923 154.82C227.923 154.188 228.059 153.628 228.331 153.14C228.611 152.652 228.991 152.272 229.471 152C229.959 151.72 230.507 151.58 231.115 151.58C231.731 151.58 232.275 151.716 232.747 151.988C233.219 152.26 233.587 152.644 233.851 153.14C234.123 153.628 234.259 154.2 234.259 154.856C234.259 154.904 234.255 154.96 234.247 155.024C234.247 155.088 234.243 155.148 234.235 155.204H228.823V154.376H233.635L233.167 154.664C233.175 154.256 233.091 153.892 232.915 153.572C232.739 153.252 232.495 153.004 232.183 152.828C231.879 152.644 231.523 152.552 231.115 152.552C230.715 152.552 230.359 152.644 230.047 152.828C229.735 153.004 229.491 153.256 229.315 153.584C229.139 153.904 229.051 154.272 229.051 154.688V154.88C229.051 155.304 229.147 155.684 229.339 156.02C229.539 156.348 229.815 156.604 230.167 156.788C230.519 156.972 230.923 157.064 231.379 157.064C231.755 157.064 232.095 157 232.399 156.872C232.711 156.744 232.983 156.552 233.215 156.296L233.851 157.04C233.563 157.376 233.203 157.632 232.771 157.808C232.347 157.984 231.871 158.072 231.343 158.072ZM237.036 158V152.348L237.324 152.648H234.708V151.64H240.516V152.648H237.912L238.188 152.348V158H237.036Z" fill="white"/>
<defs>
<linearGradient id="paint0_linear_5979_17493" x1="0" y1="0" x2="344.947" y2="35.007" gradientUnits="userSpaceOnUse">
<stop stop-color="#669ADE"/>
<stop offset="1" stop-color="#96C5F5"/>
</linearGradient>
<clipPath id="clip0_5979_17493">
<rect width="32" height="32" fill="white" transform="translate(24 24)"/>
</clipPath>
</defs>
</svg>
