<svg width="708" height="144" viewBox="0 0 708 144" fill="none" xmlns="http://www.w3.org/2000/svg">
<rect width="708" height="144" rx="12" fill="url(#paint0_linear_5979_17492)"/>
<g clip-path="url(#clip0_5979_17492)">
<path d="M60.12 67.9998C60.4335 67.1087 61.0522 66.3573 61.8666 65.8787C62.681 65.4 63.6385 65.2251 64.5696 65.3848C65.5006 65.5445 66.3451 66.0285 66.9535 66.7512C67.5618 67.4739 67.8948 68.3885 67.8934 69.3332C67.8934 71.9998 63.8934 73.3332 63.8934 73.3332M64 78.6665H64.0134M77.3334 71.9998C77.3334 79.3636 71.3638 85.3332 64 85.3332C56.6362 85.3332 50.6667 79.3636 50.6667 71.9998C50.6667 64.636 56.6362 58.6665 64 58.6665C71.3638 58.6665 77.3334 64.636 77.3334 71.9998Z" stroke="white" stroke-width="4" stroke-linecap="round" stroke-linejoin="round"/>
</g>
<path d="M102.058 70.99H110.794V74.37H102.058V70.99ZM102.37 81H98.158V62.8H111.912V66.18H102.37V81ZM111.635 81L119.747 62.8H123.907L132.045 81H127.625L120.969 64.932H122.633L115.951 81H111.635ZM115.691 77.1L116.809 73.902H126.169L127.313 77.1H115.691ZM142.493 81.312C141.072 81.312 139.746 81.078 138.515 80.61C137.302 80.142 136.245 79.4833 135.343 78.634C134.459 77.7847 133.766 76.788 133.263 75.644C132.778 74.5 132.535 73.252 132.535 71.9C132.535 70.548 132.778 69.3 133.263 68.156C133.766 67.012 134.468 66.0153 135.369 65.166C136.271 64.3167 137.328 63.658 138.541 63.19C139.755 62.722 141.072 62.488 142.493 62.488C143.932 62.488 145.249 62.722 146.445 63.19C147.659 63.658 148.707 64.3167 149.591 65.166C150.493 65.998 151.195 66.986 151.697 68.13C152.2 69.274 152.451 70.5307 152.451 71.9C152.451 73.252 152.2 74.5087 151.697 75.67C151.195 76.814 150.493 77.8107 149.591 78.66C148.707 79.492 147.659 80.142 146.445 80.61C145.249 81.078 143.932 81.312 142.493 81.312ZM148.447 85.186C147.737 85.186 147.061 85.108 146.419 84.952C145.795 84.796 145.171 84.5447 144.547 84.198C143.941 83.8513 143.299 83.3833 142.623 82.794C141.965 82.2047 141.245 81.4767 140.465 80.61L144.885 79.492C145.353 80.1333 145.787 80.6447 146.185 81.026C146.584 81.4073 146.965 81.676 147.329 81.832C147.711 81.988 148.109 82.066 148.525 82.066C149.635 82.066 150.623 81.6153 151.489 80.714L153.361 82.95C152.131 84.4407 150.493 85.186 148.447 85.186ZM142.493 77.724C143.308 77.724 144.053 77.5853 144.729 77.308C145.423 77.0307 146.029 76.632 146.549 76.112C147.069 75.592 147.468 74.9767 147.745 74.266C148.04 73.538 148.187 72.7493 148.187 71.9C148.187 71.0333 148.04 70.2447 147.745 69.534C147.468 68.8233 147.069 68.208 146.549 67.688C146.029 67.168 145.423 66.7693 144.729 66.492C144.053 66.2147 143.308 66.076 142.493 66.076C141.679 66.076 140.925 66.2147 140.231 66.492C139.538 66.7693 138.931 67.168 138.411 67.688C137.909 68.208 137.51 68.8233 137.215 69.534C136.938 70.2447 136.799 71.0333 136.799 71.9C136.799 72.7493 136.938 73.538 137.215 74.266C137.51 74.9767 137.909 75.592 138.411 76.112C138.931 76.632 139.538 77.0307 140.231 77.308C140.925 77.5853 141.679 77.724 142.493 77.724ZM162.772 81V67.012H169.922C171.673 67.012 173.042 67.3327 174.03 67.974C175.018 68.598 175.512 69.482 175.512 70.626C175.512 71.77 175.044 72.6713 174.108 73.33C173.19 73.9713 171.968 74.292 170.442 74.292L170.858 73.356C172.557 73.356 173.822 73.668 174.654 74.292C175.504 74.916 175.928 75.826 175.928 77.022C175.928 78.2527 175.46 79.2233 174.524 79.934C173.588 80.6447 172.158 81 170.234 81H162.772ZM166.49 78.244H169.896C170.642 78.244 171.196 78.1227 171.56 77.88C171.942 77.62 172.132 77.23 172.132 76.71C172.132 76.1727 171.959 75.7827 171.612 75.54C171.266 75.28 170.72 75.15 169.974 75.15H166.49V78.244ZM166.49 72.758H169.558C170.269 72.758 170.798 72.628 171.144 72.368C171.508 72.108 171.69 71.7353 171.69 71.25C171.69 70.7473 171.508 70.3747 171.144 70.132C170.798 69.8893 170.269 69.768 169.558 69.768H166.49V72.758ZM185.498 81.208C184.007 81.208 182.681 80.896 181.52 80.272C180.376 79.648 179.466 78.7987 178.79 77.724C178.131 76.632 177.802 75.3927 177.802 74.006C177.802 72.602 178.131 71.3627 178.79 70.288C179.466 69.196 180.376 68.3467 181.52 67.74C182.681 67.116 184.007 66.804 185.498 66.804C186.971 66.804 188.289 67.116 189.45 67.74C190.611 68.3467 191.521 69.1873 192.18 70.262C192.839 71.3367 193.168 72.5847 193.168 74.006C193.168 75.3927 192.839 76.632 192.18 77.724C191.521 78.7987 190.611 79.648 189.45 80.272C188.289 80.896 186.971 81.208 185.498 81.208ZM185.498 77.88C186.174 77.88 186.781 77.724 187.318 77.412C187.855 77.1 188.28 76.658 188.592 76.086C188.904 75.4967 189.06 74.8033 189.06 74.006C189.06 73.1913 188.904 72.498 188.592 71.926C188.28 71.354 187.855 70.912 187.318 70.6C186.781 70.288 186.174 70.132 185.498 70.132C184.822 70.132 184.215 70.288 183.678 70.6C183.141 70.912 182.707 71.354 182.378 71.926C182.066 72.498 181.91 73.1913 181.91 74.006C181.91 74.8033 182.066 75.4967 182.378 76.086C182.707 76.658 183.141 77.1 183.678 77.412C184.215 77.724 184.822 77.88 185.498 77.88ZM195.958 81V67.012H209.868V81H205.812V69.43L206.722 70.34H199.078L199.988 69.43V81H195.958ZM221.999 81.208C220.82 81.208 219.789 80.948 218.905 80.428C218.021 79.908 217.327 79.1193 216.825 78.062C216.339 76.9873 216.097 75.6353 216.097 74.006C216.097 72.3593 216.331 71.0073 216.799 69.95C217.267 68.8927 217.943 68.104 218.827 67.584C219.711 67.064 220.768 66.804 221.999 66.804C223.316 66.804 224.495 67.1073 225.535 67.714C226.592 68.3033 227.424 69.1353 228.031 70.21C228.655 71.2847 228.967 72.55 228.967 74.006C228.967 75.4793 228.655 76.7533 228.031 77.828C227.424 78.9027 226.592 79.7347 225.535 80.324C224.495 80.9133 223.316 81.208 221.999 81.208ZM213.731 86.044V67.012H217.605V69.872L217.527 74.032L217.787 78.166V86.044H213.731ZM221.297 77.88C221.973 77.88 222.571 77.724 223.091 77.412C223.628 77.1 224.053 76.658 224.365 76.086C224.694 75.4967 224.859 74.8033 224.859 74.006C224.859 73.1913 224.694 72.498 224.365 71.926C224.053 71.354 223.628 70.912 223.091 70.6C222.571 70.288 221.973 70.132 221.297 70.132C220.621 70.132 220.014 70.288 219.477 70.6C218.939 70.912 218.515 71.354 218.203 71.926C217.891 72.498 217.735 73.1913 217.735 74.006C217.735 74.8033 217.891 75.4967 218.203 76.086C218.515 76.658 218.939 77.1 219.477 77.412C220.014 77.724 220.621 77.88 221.297 77.88ZM238.361 81.208C236.871 81.208 235.545 80.896 234.383 80.272C233.239 79.648 232.329 78.7987 231.653 77.724C230.995 76.632 230.665 75.3927 230.665 74.006C230.665 72.602 230.995 71.3627 231.653 70.288C232.329 69.196 233.239 68.3467 234.383 67.74C235.545 67.116 236.871 66.804 238.361 66.804C239.835 66.804 241.152 67.116 242.313 67.74C243.475 68.3467 244.385 69.1873 245.043 70.262C245.702 71.3367 246.031 72.5847 246.031 74.006C246.031 75.3927 245.702 76.632 245.043 77.724C244.385 78.7987 243.475 79.648 242.313 80.272C241.152 80.896 239.835 81.208 238.361 81.208ZM238.361 77.88C239.037 77.88 239.644 77.724 240.181 77.412C240.719 77.1 241.143 76.658 241.455 76.086C241.767 75.4967 241.923 74.8033 241.923 74.006C241.923 73.1913 241.767 72.498 241.455 71.926C241.143 71.354 240.719 70.912 240.181 70.6C239.644 70.288 239.037 70.132 238.361 70.132C237.685 70.132 237.079 70.288 236.541 70.6C236.004 70.912 235.571 71.354 235.241 71.926C234.929 72.498 234.773 73.1913 234.773 74.006C234.773 74.8033 234.929 75.4967 235.241 76.086C235.571 76.658 236.004 77.1 236.541 77.412C237.079 77.724 237.685 77.88 238.361 77.88ZM255.477 81.208C253.969 81.208 252.626 80.9047 251.447 80.298C250.268 79.674 249.341 78.816 248.665 77.724C248.006 76.632 247.677 75.3927 247.677 74.006C247.677 72.602 248.006 71.3627 248.665 70.288C249.341 69.196 250.268 68.3467 251.447 67.74C252.626 67.116 253.969 66.804 255.477 66.804C256.95 66.804 258.233 67.116 259.325 67.74C260.417 68.3467 261.223 69.222 261.743 70.366L258.597 72.056C258.233 71.3973 257.774 70.912 257.219 70.6C256.682 70.288 256.092 70.132 255.451 70.132C254.758 70.132 254.134 70.288 253.579 70.6C253.024 70.912 252.582 71.354 252.253 71.926C251.941 72.498 251.785 73.1913 251.785 74.006C251.785 74.8207 251.941 75.514 252.253 76.086C252.582 76.658 253.024 77.1 253.579 77.412C254.134 77.724 254.758 77.88 255.451 77.88C256.092 77.88 256.682 77.7327 257.219 77.438C257.774 77.126 258.233 76.632 258.597 75.956L261.743 77.672C261.223 78.7987 260.417 79.674 259.325 80.298C258.233 80.9047 256.95 81.208 255.477 81.208ZM278.123 81.208C276.632 81.208 275.306 80.896 274.145 80.272C273.001 79.648 272.091 78.7987 271.415 77.724C270.756 76.632 270.427 75.3927 270.427 74.006C270.427 72.602 270.756 71.3627 271.415 70.288C272.091 69.196 273.001 68.3467 274.145 67.74C275.306 67.116 276.632 66.804 278.123 66.804C279.596 66.804 280.914 67.116 282.075 67.74C283.236 68.3467 284.146 69.1873 284.805 70.262C285.464 71.3367 285.793 72.5847 285.793 74.006C285.793 75.3927 285.464 76.632 284.805 77.724C284.146 78.7987 283.236 79.648 282.075 80.272C280.914 80.896 279.596 81.208 278.123 81.208ZM278.123 77.88C278.799 77.88 279.406 77.724 279.943 77.412C280.48 77.1 280.905 76.658 281.217 76.086C281.529 75.4967 281.685 74.8033 281.685 74.006C281.685 73.1913 281.529 72.498 281.217 71.926C280.905 71.354 280.48 70.912 279.943 70.6C279.406 70.288 278.799 70.132 278.123 70.132C277.447 70.132 276.84 70.288 276.303 70.6C275.766 70.912 275.332 71.354 275.003 71.926C274.691 72.498 274.535 73.1913 274.535 74.006C274.535 74.8033 274.691 75.4967 275.003 76.086C275.332 76.658 275.766 77.1 276.303 77.412C276.84 77.724 277.447 77.88 278.123 77.88ZM291.065 81V69.404L291.975 70.34H286.333V67.012H299.827V70.34H294.185L295.095 69.404V81H291.065ZM301.989 81V67.012H309.139C310.89 67.012 312.259 67.3327 313.247 67.974C314.235 68.598 314.729 69.482 314.729 70.626C314.729 71.77 314.261 72.6713 313.325 73.33C312.406 73.9713 311.184 74.292 309.659 74.292L310.075 73.356C311.774 73.356 313.039 73.668 313.871 74.292C314.72 74.916 315.145 75.826 315.145 77.022C315.145 78.2527 314.677 79.2233 313.741 79.934C312.805 80.6447 311.375 81 309.451 81H301.989ZM305.707 78.244H309.113C309.858 78.244 310.413 78.1227 310.777 77.88C311.158 77.62 311.349 77.23 311.349 76.71C311.349 76.1727 311.176 75.7827 310.829 75.54C310.482 75.28 309.936 75.15 309.191 75.15H305.707V78.244ZM305.707 72.758H308.775C309.486 72.758 310.014 72.628 310.361 72.368C310.725 72.108 310.907 71.7353 310.907 71.25C310.907 70.7473 310.725 70.3747 310.361 70.132C310.014 69.8893 309.486 69.768 308.775 69.768H305.707V72.758ZM325.001 81.208C323.406 81.208 322.002 80.896 320.789 80.272C319.593 79.648 318.666 78.7987 318.007 77.724C317.348 76.632 317.019 75.3927 317.019 74.006C317.019 72.602 317.34 71.3627 317.981 70.288C318.64 69.196 319.532 68.3467 320.659 67.74C321.786 67.116 323.06 66.804 324.481 66.804C325.85 66.804 327.081 67.0987 328.173 67.688C329.282 68.26 330.158 69.092 330.799 70.184C331.44 71.2587 331.761 72.55 331.761 74.058C331.761 74.214 331.752 74.396 331.735 74.604C331.718 74.7947 331.7 74.9767 331.683 75.15H320.321V72.784H329.551L327.991 73.486C327.991 72.758 327.844 72.1253 327.549 71.588C327.254 71.0507 326.847 70.6347 326.327 70.34C325.807 70.028 325.2 69.872 324.507 69.872C323.814 69.872 323.198 70.028 322.661 70.34C322.141 70.6347 321.734 71.0593 321.439 71.614C321.144 72.1513 320.997 72.7927 320.997 73.538V74.162C320.997 74.9247 321.162 75.6007 321.491 76.19C321.838 76.762 322.314 77.204 322.921 77.516C323.545 77.8107 324.273 77.958 325.105 77.958C325.85 77.958 326.5 77.8453 327.055 77.62C327.627 77.3947 328.147 77.0567 328.615 76.606L330.773 78.946C330.132 79.674 329.326 80.2373 328.355 80.636C327.384 81.0173 326.266 81.208 325.001 81.208ZM337.378 81V69.404L338.288 70.34H332.646V67.012H346.14V70.34H340.498L341.408 69.404V81H337.378Z" fill="white"/>
<rect x="433.5" y="48.5" width="226" height="47" rx="5.5" stroke="white"/>
<path d="M470.308 76V67.6H477.544V76H476.368V68.332L476.656 68.644H471.196L471.496 68.332V76H470.308ZM482.803 76.072C482.123 76.072 481.523 75.932 481.003 75.652C480.491 75.372 480.091 74.988 479.803 74.5C479.523 74.012 479.383 73.452 479.383 72.82C479.383 72.188 479.519 71.628 479.791 71.14C480.071 70.652 480.451 70.272 480.931 70C481.419 69.72 481.967 69.58 482.575 69.58C483.191 69.58 483.735 69.716 484.207 69.988C484.679 70.26 485.047 70.644 485.311 71.14C485.583 71.628 485.719 72.2 485.719 72.856C485.719 72.904 485.715 72.96 485.707 73.024C485.707 73.088 485.703 73.148 485.695 73.204H480.283V72.376H485.095L484.627 72.664C484.635 72.256 484.551 71.892 484.375 71.572C484.199 71.252 483.955 71.004 483.643 70.828C483.339 70.644 482.983 70.552 482.575 70.552C482.175 70.552 481.819 70.644 481.507 70.828C481.195 71.004 480.951 71.256 480.775 71.584C480.599 71.904 480.511 72.272 480.511 72.688V72.88C480.511 73.304 480.607 73.684 480.799 74.02C480.999 74.348 481.275 74.604 481.627 74.788C481.979 74.972 482.383 75.064 482.839 75.064C483.215 75.064 483.555 75 483.859 74.872C484.171 74.744 484.443 74.552 484.675 74.296L485.311 75.04C485.023 75.376 484.663 75.632 484.231 75.808C483.807 75.984 483.331 76.072 482.803 76.072ZM490.879 76.072C490.351 76.072 489.867 75.952 489.427 75.712C488.995 75.464 488.647 75.1 488.383 74.62C488.127 74.14 487.999 73.54 487.999 72.82C487.999 72.1 488.123 71.5 488.371 71.02C488.627 70.54 488.971 70.18 489.403 69.94C489.843 69.7 490.335 69.58 490.879 69.58C491.503 69.58 492.055 69.716 492.535 69.988C493.015 70.26 493.395 70.64 493.675 71.128C493.955 71.608 494.095 72.172 494.095 72.82C494.095 73.468 493.955 74.036 493.675 74.524C493.395 75.012 493.015 75.392 492.535 75.664C492.055 75.936 491.503 76.072 490.879 76.072ZM487.507 78.328V69.64H488.611V71.356L488.539 72.832L488.659 74.308V78.328H487.507ZM490.783 75.064C491.191 75.064 491.555 74.972 491.875 74.788C492.203 74.604 492.459 74.344 492.643 74.008C492.835 73.664 492.931 73.268 492.931 72.82C492.931 72.364 492.835 71.972 492.643 71.644C492.459 71.308 492.203 71.048 491.875 70.864C491.555 70.68 491.191 70.588 490.783 70.588C490.383 70.588 490.019 70.68 489.691 70.864C489.371 71.048 489.115 71.308 488.923 71.644C488.739 71.972 488.647 72.364 488.647 72.82C488.647 73.268 488.739 73.664 488.923 74.008C489.115 74.344 489.371 74.604 489.691 74.788C490.019 74.972 490.383 75.064 490.783 75.064ZM498.6 76.072C497.92 76.072 497.32 75.932 496.8 75.652C496.288 75.372 495.888 74.988 495.6 74.5C495.32 74.012 495.18 73.452 495.18 72.82C495.18 72.188 495.316 71.628 495.588 71.14C495.868 70.652 496.248 70.272 496.728 70C497.216 69.72 497.764 69.58 498.372 69.58C498.988 69.58 499.532 69.716 500.004 69.988C500.476 70.26 500.844 70.644 501.108 71.14C501.38 71.628 501.516 72.2 501.516 72.856C501.516 72.904 501.512 72.96 501.504 73.024C501.504 73.088 501.5 73.148 501.492 73.204H496.08V72.376H500.892L500.424 72.664C500.432 72.256 500.348 71.892 500.172 71.572C499.996 71.252 499.752 71.004 499.44 70.828C499.136 70.644 498.78 70.552 498.372 70.552C497.972 70.552 497.616 70.644 497.304 70.828C496.992 71.004 496.748 71.256 496.572 71.584C496.396 71.904 496.308 72.272 496.308 72.688V72.88C496.308 73.304 496.404 73.684 496.596 74.02C496.796 74.348 497.072 74.604 497.424 74.788C497.776 74.972 498.18 75.064 498.636 75.064C499.012 75.064 499.352 75 499.656 74.872C499.968 74.744 500.24 74.552 500.472 74.296L501.108 75.04C500.82 75.376 500.46 75.632 500.028 75.808C499.604 75.984 499.128 76.072 498.6 76.072ZM503.304 76V69.64H504.456V74.272L508.355 69.64H509.4V76H508.247V71.368L504.36 76H503.304ZM506.28 68.812C505.696 68.812 505.236 68.672 504.9 68.392C504.572 68.104 504.404 67.692 504.396 67.156H505.176C505.184 67.46 505.284 67.7 505.476 67.876C505.676 68.052 505.94 68.14 506.268 68.14C506.596 68.14 506.86 68.052 507.06 67.876C507.26 67.7 507.364 67.46 507.372 67.156H508.176C508.168 67.692 507.996 68.104 507.66 68.392C507.324 68.672 506.864 68.812 506.28 68.812ZM512.896 76V70.348L513.184 70.648H510.568V69.64H516.376V70.648H513.772L514.048 70.348V76H512.896ZM517.554 76V69.64H518.706V74.272L522.605 69.64H523.65V76H522.497V71.368L518.61 76H517.554ZM529.108 76V69.64H532.06C532.804 69.64 533.388 69.784 533.812 70.072C534.244 70.352 534.46 70.752 534.46 71.272C534.46 71.792 534.256 72.196 533.848 72.484C533.448 72.764 532.916 72.904 532.252 72.904L532.432 72.592C533.192 72.592 533.756 72.732 534.124 73.012C534.492 73.292 534.676 73.704 534.676 74.248C534.676 74.8 534.468 75.232 534.052 75.544C533.644 75.848 533.016 76 532.168 76H529.108ZM530.236 75.112H532.084C532.564 75.112 532.924 75.04 533.164 74.896C533.404 74.744 533.524 74.504 533.524 74.176C533.524 73.84 533.412 73.596 533.188 73.444C532.972 73.284 532.628 73.204 532.156 73.204H530.236V75.112ZM530.236 72.376H531.964C532.404 72.376 532.736 72.296 532.96 72.136C533.192 71.968 533.308 71.736 533.308 71.44C533.308 71.136 533.192 70.908 532.96 70.756C532.736 70.604 532.404 70.528 531.964 70.528H530.236V72.376ZM539.702 76V69.64H542.654C543.398 69.64 543.982 69.784 544.406 70.072C544.838 70.352 545.054 70.752 545.054 71.272C545.054 71.792 544.85 72.196 544.442 72.484C544.042 72.764 543.51 72.904 542.846 72.904L543.026 72.592C543.786 72.592 544.35 72.732 544.718 73.012C545.086 73.292 545.27 73.704 545.27 74.248C545.27 74.8 545.062 75.232 544.646 75.544C544.238 75.848 543.61 76 542.762 76H539.702ZM540.83 75.112H542.678C543.158 75.112 543.518 75.04 543.758 74.896C543.998 74.744 544.118 74.504 544.118 74.176C544.118 73.84 544.006 73.596 543.782 73.444C543.566 73.284 543.222 73.204 542.75 73.204H540.83V75.112ZM540.83 72.376H542.558C542.998 72.376 543.33 72.296 543.554 72.136C543.786 71.968 543.902 71.736 543.902 71.44C543.902 71.136 543.786 70.908 543.554 70.756C543.33 70.604 542.998 70.528 542.558 70.528H540.83V72.376ZM549.797 76.072C549.157 76.072 548.589 75.932 548.093 75.652C547.597 75.372 547.205 74.988 546.917 74.5C546.629 74.004 546.485 73.444 546.485 72.82C546.485 72.188 546.629 71.628 546.917 71.14C547.205 70.652 547.597 70.272 548.093 70C548.589 69.72 549.157 69.58 549.797 69.58C550.429 69.58 550.993 69.72 551.489 70C551.993 70.272 552.385 70.652 552.665 71.14C552.953 71.62 553.097 72.18 553.097 72.82C553.097 73.452 552.953 74.012 552.665 74.5C552.385 74.988 551.993 75.372 551.489 75.652C550.993 75.932 550.429 76.072 549.797 76.072ZM549.797 75.064C550.205 75.064 550.569 74.972 550.889 74.788C551.217 74.604 551.473 74.344 551.657 74.008C551.841 73.664 551.933 73.268 551.933 72.82C551.933 72.364 551.841 71.972 551.657 71.644C551.473 71.308 551.217 71.048 550.889 70.864C550.569 70.68 550.205 70.588 549.797 70.588C549.389 70.588 549.025 70.68 548.705 70.864C548.385 71.048 548.129 71.308 547.937 71.644C547.745 71.972 547.649 72.364 547.649 72.82C547.649 73.268 547.745 73.664 547.937 74.008C548.129 74.344 548.385 74.604 548.705 74.788C549.025 74.972 549.389 75.064 549.797 75.064ZM554.761 76V69.64H560.653V76H559.501V70.36L559.777 70.648H555.637L555.913 70.36V76H554.761ZM566.254 76.072C565.726 76.072 565.242 75.952 564.802 75.712C564.37 75.464 564.022 75.1 563.758 74.62C563.502 74.14 563.374 73.54 563.374 72.82C563.374 72.1 563.498 71.5 563.746 71.02C564.002 70.54 564.346 70.18 564.778 69.94C565.218 69.7 565.71 69.58 566.254 69.58C566.878 69.58 567.43 69.716 567.91 69.988C568.39 70.26 568.77 70.64 569.05 71.128C569.33 71.608 569.47 72.172 569.47 72.82C569.47 73.468 569.33 74.036 569.05 74.524C568.77 75.012 568.39 75.392 567.91 75.664C567.43 75.936 566.878 76.072 566.254 76.072ZM562.882 78.328V69.64H563.986V71.356L563.914 72.832L564.034 74.308V78.328H562.882ZM566.158 75.064C566.566 75.064 566.93 74.972 567.25 74.788C567.578 74.604 567.834 74.344 568.018 74.008C568.21 73.664 568.306 73.268 568.306 72.82C568.306 72.364 568.21 71.972 568.018 71.644C567.834 71.308 567.578 71.048 567.25 70.864C566.93 70.68 566.566 70.588 566.158 70.588C565.758 70.588 565.394 70.68 565.066 70.864C564.746 71.048 564.49 71.308 564.298 71.644C564.114 71.972 564.022 72.364 564.022 72.82C564.022 73.268 564.114 73.664 564.298 74.008C564.49 74.344 564.746 74.604 565.066 74.788C565.394 74.972 565.758 75.064 566.158 75.064ZM573.867 76.072C573.227 76.072 572.659 75.932 572.163 75.652C571.667 75.372 571.275 74.988 570.987 74.5C570.699 74.004 570.555 73.444 570.555 72.82C570.555 72.188 570.699 71.628 570.987 71.14C571.275 70.652 571.667 70.272 572.163 70C572.659 69.72 573.227 69.58 573.867 69.58C574.499 69.58 575.063 69.72 575.559 70C576.063 70.272 576.455 70.652 576.735 71.14C577.023 71.62 577.167 72.18 577.167 72.82C577.167 73.452 577.023 74.012 576.735 74.5C576.455 74.988 576.063 75.372 575.559 75.652C575.063 75.932 574.499 76.072 573.867 76.072ZM573.867 75.064C574.275 75.064 574.639 74.972 574.959 74.788C575.287 74.604 575.543 74.344 575.727 74.008C575.911 73.664 576.003 73.268 576.003 72.82C576.003 72.364 575.911 71.972 575.727 71.644C575.543 71.308 575.287 71.048 574.959 70.864C574.639 70.68 574.275 70.588 573.867 70.588C573.459 70.588 573.095 70.68 572.775 70.864C572.455 71.048 572.199 71.308 572.007 71.644C571.815 71.972 571.719 72.364 571.719 72.82C571.719 73.268 571.815 73.664 572.007 74.008C572.199 74.344 572.455 74.604 572.775 74.788C573.095 74.972 573.459 75.064 573.867 75.064ZM581.603 76.072C580.955 76.072 580.375 75.932 579.863 75.652C579.359 75.372 578.963 74.988 578.675 74.5C578.387 74.012 578.243 73.452 578.243 72.82C578.243 72.188 578.387 71.628 578.675 71.14C578.963 70.652 579.359 70.272 579.863 70C580.375 69.72 580.955 69.58 581.603 69.58C582.179 69.58 582.691 69.696 583.139 69.928C583.595 70.152 583.947 70.488 584.195 70.936L583.319 71.5C583.111 71.188 582.855 70.96 582.551 70.816C582.255 70.664 581.935 70.588 581.591 70.588C581.175 70.588 580.803 70.68 580.475 70.864C580.147 71.048 579.887 71.308 579.695 71.644C579.503 71.972 579.407 72.364 579.407 72.82C579.407 73.276 579.503 73.672 579.695 74.008C579.887 74.344 580.147 74.604 580.475 74.788C580.803 74.972 581.175 75.064 581.591 75.064C581.935 75.064 582.255 74.992 582.551 74.848C582.855 74.696 583.111 74.464 583.319 74.152L584.195 74.704C583.947 75.144 583.595 75.484 583.139 75.724C582.691 75.956 582.179 76.072 581.603 76.072ZM585.125 73.204V72.208H588.353V73.204H585.125ZM592.992 76.072C592.352 76.072 591.784 75.932 591.288 75.652C590.792 75.372 590.4 74.988 590.112 74.5C589.824 74.004 589.68 73.444 589.68 72.82C589.68 72.188 589.824 71.628 590.112 71.14C590.4 70.652 590.792 70.272 591.288 70C591.784 69.72 592.352 69.58 592.992 69.58C593.624 69.58 594.188 69.72 594.684 70C595.188 70.272 595.58 70.652 595.86 71.14C596.148 71.62 596.292 72.18 596.292 72.82C596.292 73.452 596.148 74.012 595.86 74.5C595.58 74.988 595.188 75.372 594.684 75.652C594.188 75.932 593.624 76.072 592.992 76.072ZM592.992 75.064C593.4 75.064 593.764 74.972 594.084 74.788C594.412 74.604 594.668 74.344 594.852 74.008C595.036 73.664 595.128 73.268 595.128 72.82C595.128 72.364 595.036 71.972 594.852 71.644C594.668 71.308 594.412 71.048 594.084 70.864C593.764 70.68 593.4 70.588 592.992 70.588C592.584 70.588 592.22 70.68 591.9 70.864C591.58 71.048 591.324 71.308 591.132 71.644C590.94 71.972 590.844 72.364 590.844 72.82C590.844 73.268 590.94 73.664 591.132 74.008C591.324 74.344 591.58 74.604 591.9 74.788C592.22 74.972 592.584 75.064 592.992 75.064ZM598.981 76V70.348L599.269 70.648H596.653V69.64H602.461V70.648H599.857L600.133 70.348V76H598.981ZM603.639 76V69.64H606.591C607.335 69.64 607.919 69.784 608.343 70.072C608.775 70.352 608.991 70.752 608.991 71.272C608.991 71.792 608.787 72.196 608.379 72.484C607.979 72.764 607.447 72.904 606.783 72.904L606.963 72.592C607.723 72.592 608.287 72.732 608.655 73.012C609.023 73.292 609.207 73.704 609.207 74.248C609.207 74.8 608.999 75.232 608.583 75.544C608.175 75.848 607.547 76 606.699 76H603.639ZM604.767 75.112H606.615C607.095 75.112 607.455 75.04 607.695 74.896C607.935 74.744 608.055 74.504 608.055 74.176C608.055 73.84 607.943 73.596 607.719 73.444C607.503 73.284 607.159 73.204 606.687 73.204H604.767V75.112ZM604.767 72.376H606.495C606.935 72.376 607.267 72.296 607.491 72.136C607.723 71.968 607.839 71.736 607.839 71.44C607.839 71.136 607.723 70.908 607.491 70.756C607.267 70.604 606.935 70.528 606.495 70.528H604.767V72.376ZM613.843 76.072C613.163 76.072 612.563 75.932 612.043 75.652C611.531 75.372 611.131 74.988 610.843 74.5C610.563 74.012 610.423 73.452 610.423 72.82C610.423 72.188 610.559 71.628 610.831 71.14C611.111 70.652 611.491 70.272 611.971 70C612.459 69.72 613.007 69.58 613.615 69.58C614.231 69.58 614.775 69.716 615.247 69.988C615.719 70.26 616.087 70.644 616.351 71.14C616.623 71.628 616.759 72.2 616.759 72.856C616.759 72.904 616.755 72.96 616.747 73.024C616.747 73.088 616.743 73.148 616.735 73.204H611.323V72.376H616.135L615.667 72.664C615.675 72.256 615.591 71.892 615.415 71.572C615.239 71.252 614.995 71.004 614.683 70.828C614.379 70.644 614.023 70.552 613.615 70.552C613.215 70.552 612.859 70.644 612.547 70.828C612.235 71.004 611.991 71.256 611.815 71.584C611.639 71.904 611.551 72.272 611.551 72.688V72.88C611.551 73.304 611.647 73.684 611.839 74.02C612.039 74.348 612.315 74.604 612.667 74.788C613.019 74.972 613.423 75.064 613.879 75.064C614.255 75.064 614.595 75 614.899 74.872C615.211 74.744 615.483 74.552 615.715 74.296L616.351 75.04C616.063 75.376 615.703 75.632 615.271 75.808C614.847 75.984 614.371 76.072 613.843 76.072ZM619.536 76V70.348L619.824 70.648H617.208V69.64H623.016V70.648H620.412L620.688 70.348V76H619.536Z" fill="white"/>
<defs>
<linearGradient id="paint0_linear_5979_17492" x1="0" y1="0" x2="687.345" y2="211.215" gradientUnits="userSpaceOnUse">
<stop stop-color="#669ADE"/>
<stop offset="1" stop-color="#96C5F5"/>
</linearGradient>
<clipPath id="clip0_5979_17492">
<rect width="32" height="32" fill="white" transform="translate(48 56)"/>
</clipPath>
</defs>
</svg>
