<svg width="48" height="48" viewBox="0 0 48 48" fill="none" xmlns="http://www.w3.org/2000/svg">
<path d="M20.108 38.6003C22.2603 36.4544 25.7396 36.4544 27.8886 38.6003C30.0478 40.7497 30.0478 44.236 27.8886 46.3854C25.7396 48.5381 22.2569 48.5381 20.108 46.3854C17.9692 44.236 17.9692 40.7497 20.108 38.6003Z" fill="white"/>
<path d="M29.3553 29.3565C27.2097 31.5025 27.2097 34.9855 29.3553 37.1416C31.5076 39.2842 34.9937 39.2842 37.1427 37.1416C39.2882 34.9889 39.2882 31.5025 37.1427 29.3565C34.9937 27.2106 31.5076 27.2106 29.3553 29.3565Z" fill="white"/>
<path d="M38.6078 20.1088C36.4589 22.2547 36.4589 25.7411 38.6078 27.8837C40.7568 30.0432 44.2429 30.0432 46.3918 27.8837C48.534 25.7411 48.534 22.2547 46.3918 20.1088C44.2395 17.956 40.7568 17.956 38.6078 20.1088Z" fill="white"/>
<path d="M10.8629 29.3565C8.70715 31.5025 8.70715 34.9889 10.8629 37.1416C13.0119 39.2842 16.498 39.2842 18.647 37.1416C20.7925 34.9889 20.7925 31.5025 18.647 29.3565C16.4946 27.2106 13.0119 27.2106 10.8629 29.3565Z" fill="white"/>
<path d="M1.61428 20.1088C-0.538093 22.2582 -0.538093 25.7412 1.61428 27.8838C3.76324 30.0433 7.24593 30.0433 9.39489 27.8838C11.5473 25.7412 11.5473 22.2582 9.39489 20.1088C7.24593 17.9561 3.75983 17.9561 1.61428 20.1088Z" fill="white"/>
<path d="M20.108 20.1088C17.9692 22.2548 17.9692 25.7412 20.108 27.8838C22.2603 30.0433 25.7396 30.0433 27.8988 27.8838C30.0478 25.7412 30.0478 22.2548 27.8988 20.1088C25.7396 17.9561 22.2603 17.9561 20.108 20.1088Z" fill="white"/>
<path d="M10.8629 10.8614C8.70715 13.0107 8.70715 16.4937 10.8629 18.6465C13.0119 20.7958 16.498 20.7958 18.647 18.6465C20.7925 16.4937 20.7925 13.0141 18.647 10.8614C16.4946 8.70864 13.0119 8.70864 10.8629 10.8614Z" fill="white"/>
<path d="M29.3553 10.8614C27.2097 13.0107 27.2097 16.4937 29.3553 18.6465C31.5076 20.7958 34.9937 20.7958 37.1427 18.6465C39.2882 16.4937 39.2882 13.0141 37.1427 10.8614C34.9937 8.70864 31.5076 8.70864 29.3553 10.8614Z" fill="white"/>
<path fill-rule="evenodd" clip-rule="evenodd" d="M20.108 1.61456C22.2603 -0.538185 25.7396 -0.538185 27.8988 1.61456C30.0478 3.7673 30.0478 7.24689 27.8988 9.39624C25.7396 11.5456 22.2603 11.5456 20.108 9.39624C17.9692 7.24689 17.9692 3.7673 20.108 1.61456Z" fill="#B0CB1F"/>
</svg>
