<svg width="40" height="40" viewBox="0 0 40 40" fill="none" xmlns="http://www.w3.org/2000/svg">
<path d="M15.1497 15.0002C15.5415 13.8863 16.3149 12.947 17.3329 12.3487C18.3509 11.7504 19.5478 11.5317 20.7116 11.7313C21.8754 11.931 22.931 12.536 23.6915 13.4394C24.4519 14.3427 24.8681 15.486 24.8663 16.6668C24.8663 20.0002 19.8663 21.6668 19.8663 21.6668M19.9997 28.3335H20.0163M36.6663 20.0002C36.6663 29.2049 29.2044 36.6668 19.9997 36.6668C10.7949 36.6668 3.33301 29.2049 3.33301 20.0002C3.33301 10.7954 10.7949 3.3335 19.9997 3.3335C29.2044 3.3335 36.6663 10.7954 36.6663 20.0002Z" stroke="white" stroke-width="4" stroke-linecap="round" stroke-linejoin="round"/>
</svg>
