<svg width="19" height="20" viewBox="0 0 19 20" fill="none" xmlns="http://www.w3.org/2000/svg">
<path fill-rule="evenodd" clip-rule="evenodd" d="M9.50009 1.85815C7.79582 1.85895 6.16158 2.55816 4.95648 3.80214C3.75138 5.04611 3.07402 6.73308 3.07324 8.49232C3.1937 9.84309 3.65192 11.1384 4.40302 12.2515C5.70689 14.2836 7.21014 16.1717 8.88896 17.8857C9.0525 18.0502 9.27178 18.1422 9.50009 18.1422C9.7284 18.1422 9.94769 18.0502 10.1112 17.8857C11.79 16.1717 13.2933 14.2836 14.5972 12.2515C15.3483 11.1384 15.8065 9.84309 15.9269 8.49232C15.9262 6.73308 15.2488 5.04611 14.0437 3.80214C12.8386 2.55816 11.2044 1.85895 9.50009 1.85815ZM9.50009 5.47679C8.98009 5.47679 8.47177 5.63596 8.03941 5.93418C7.60704 6.23239 7.27005 6.65626 7.07106 7.15217C6.87206 7.64809 6.82 8.19378 6.92144 8.72024C7.02289 9.2467 7.2733 9.73028 7.64099 10.1098C8.00869 10.4894 8.47716 10.7479 8.98717 10.8526C9.49717 10.9573 10.0258 10.9036 10.5062 10.6982C10.9866 10.4927 11.3973 10.1449 11.6862 9.69857C11.9751 9.25226 12.1293 8.72754 12.1293 8.19077C12.1289 7.47108 11.8518 6.78095 11.3589 6.27205C10.8659 5.76315 10.1973 5.47711 9.50009 5.47679Z" fill="#28CB47"/>
</svg>
