<svg width="19" height="20" viewBox="0 0 19 20" fill="none" xmlns="http://www.w3.org/2000/svg">
<path fill-rule="evenodd" clip-rule="evenodd" d="M9.50009 1.85806C7.79582 1.85886 6.16158 2.55807 4.95648 3.80205C3.75138 5.04602 3.07402 6.73299 3.07324 8.49223C3.1937 9.843 3.65192 11.1383 4.40302 12.2514C5.70689 14.2835 7.21014 16.1716 8.88896 17.8856C9.0525 18.0501 9.27178 18.1421 9.50009 18.1421C9.7284 18.1421 9.94769 18.0501 10.1112 17.8856C11.79 16.1716 13.2933 14.2835 14.5972 12.2514C15.3483 11.1383 15.8065 9.843 15.9269 8.49223C15.9262 6.73299 15.2488 5.04602 14.0437 3.80205C12.8386 2.55807 11.2044 1.85886 9.50009 1.85806ZM9.50009 5.4767C8.98009 5.4767 8.47177 5.63587 8.03941 5.93409C7.60704 6.2323 7.27005 6.65617 7.07106 7.15208C6.87206 7.648 6.82 8.19369 6.92144 8.72015C7.02289 9.24661 7.2733 9.73019 7.64099 10.1097C8.00869 10.4893 8.47716 10.7478 8.98717 10.8525C9.49717 10.9572 10.0258 10.9035 10.5062 10.6981C10.9866 10.4927 11.3973 10.1448 11.6862 9.69848C11.9751 9.25217 12.1293 8.72745 12.1293 8.19068C12.1289 7.47098 11.8518 6.78086 11.3589 6.27196C10.8659 5.76306 10.1973 5.47702 9.50009 5.4767Z" fill="white"/>
</svg>
