<svg width="157" height="48" viewBox="0 0 157 48" fill="none" xmlns="http://www.w3.org/2000/svg">
<g clip-path="url(#clip0_7171_2449)">
<path d="M13.0674 42.242C13.767 42.2302 14.1113 42.4549 14.1113 42.9041C14.1113 43.0223 14.0876 43.176 14.0283 43.3651L13.8027 44.1805C13.7434 44.3697 13.649 44.5358 13.5186 44.6659C13.4237 44.7604 13.2692 44.8669 13.0439 44.9969C13.2692 45.0797 13.3877 45.2334 13.3877 45.4461C13.3876 45.5643 13.3639 45.7065 13.3047 45.8836L13.0674 46.6991C12.9369 47.1364 12.747 47.4678 12.498 47.6688C12.2372 47.8814 11.8697 47.9998 11.3838 47.9998H6.75879L8.40723 42.242H13.0674ZM51.582 43.7196H48.2979L48.084 44.4764H51.084L50.7285 45.6942H47.7285L47.5156 46.4393H50.7998L50.3496 47.9998H45.1201L46.7686 42.242H52.0068L51.582 43.7196ZM82.4844 42.242C82.8994 42.242 83.2077 42.2774 83.3975 42.3602C83.6939 42.4784 83.8477 42.703 83.8477 43.034C83.8476 43.2114 83.8008 43.4601 83.7178 43.7674C83.6467 44.0037 83.5749 44.2401 83.5156 44.4764C83.3734 44.9609 83.1011 45.3154 82.6982 45.5282C82.4374 45.67 82.1052 45.741 81.7021 45.7411H79.2354L78.583 47.9998H76.6738L78.3223 42.242H82.4844ZM6.01172 47.9881H4.10254L4.7666 45.6825H2.63281L1.96875 47.9881H0.0712891L1.30469 43.6483C1.45887 43.0929 1.74356 42.7028 2.13477 42.4901C2.46679 42.3128 2.96496 42.2303 3.62891 42.2303H7.66016L6.01172 47.9881ZM20.1465 43.7196H18.2617L17.04 47.9881H15.1074L16.3291 43.7196H14.4434L14.8701 42.2303H20.5742L20.1465 43.7196ZM24.9023 42.242C25.3646 42.2421 25.7201 42.2775 25.9453 42.3602C26.3128 42.4784 26.4911 42.7264 26.4912 43.0926C26.4912 43.27 26.4549 43.4713 26.3838 43.7196L25.6016 46.4393C25.4355 47.042 25.1626 47.4677 24.7832 47.6805C24.4512 47.8814 23.9415 47.9881 23.2422 47.9881H21.1191C20.6569 47.9881 20.3015 47.9517 20.0762 47.869C19.7205 47.739 19.5303 47.4912 19.5303 47.1366C19.5303 46.9475 19.5655 46.7228 19.6484 46.4393L20.4316 43.7196C20.5977 43.1403 20.8706 42.738 21.25 42.5252C21.582 42.3362 22.0919 42.242 22.7676 42.242H24.9023ZM31.7676 47.9881H29.8584L30.5225 45.6825H28.4004L27.7363 47.9881H25.8271L27.0723 43.6483C27.2265 43.0929 27.5111 42.7028 27.9023 42.4901C28.2344 42.3128 28.7326 42.2303 29.3965 42.2303H33.416L31.7676 47.9881ZM35.3965 44.4881H35.6221L38.1826 42.2303H40.0918L37.5303 44.4881C38.5617 44.4881 39.072 44.8427 39.0723 45.5399C39.0723 45.7054 39.0368 45.9072 38.9775 46.12L38.4434 47.9881H36.5225L37.1982 45.6346H35.0645L34.3887 47.9881H32.4795L34.1279 42.2303H36.0488L35.3965 44.4881ZM45.7842 43.7196H42.1318L41.3486 46.4266H45.001L44.5508 47.9881H40.8984C40.3175 47.9881 39.9023 47.9287 39.6533 47.7987C39.4043 47.6804 39.2861 47.4674 39.2861 47.16C39.2861 46.9708 39.333 46.7221 39.416 46.4266L40.1992 43.7196C40.3652 43.1287 40.6492 42.7146 41.0166 42.5018C41.3368 42.3245 41.8473 42.2303 42.5469 42.2303H46.2109L45.7842 43.7196ZM57.7725 43.7196H54.1201L53.3379 46.4266H56.9893L56.5391 47.9881H52.8867C52.3057 47.9881 51.8906 47.9287 51.6416 47.7987C51.3926 47.6804 51.2744 47.4674 51.2744 47.16C51.2744 46.9708 51.3213 46.7221 51.4043 46.4266L52.1875 43.7196C52.3535 43.1285 52.6383 42.7146 53.0059 42.5018C53.326 42.3246 53.8358 42.2303 54.5352 42.2303H58.1992L57.7725 43.7196ZM63.915 43.7196H60.2627L59.4795 46.4266H63.1318L62.6816 47.9881H59.0293C58.4483 47.9881 58.0332 47.9287 57.7842 47.7987C57.5352 47.6804 57.417 47.4674 57.417 47.16C57.417 46.9708 57.4639 46.7221 57.5469 46.4266L58.3301 43.7196C58.4961 43.1287 58.78 42.7146 59.1475 42.5018C59.4676 42.3245 59.9781 42.2303 60.6777 42.2303H64.3418L63.915 43.7196ZM66.2627 44.453H68.4209L69.0615 42.2186H70.9707V42.2303L69.7607 46.4266C69.5948 47.0175 69.3578 47.4197 69.0615 47.6444C68.7651 47.869 68.2906 47.9881 67.6504 47.9881H63.5586L64.0098 46.4266H67.8516L68.0654 45.6825H65.4805C64.9824 45.6825 64.6496 45.6114 64.4717 45.4696C64.3414 45.3632 64.2822 45.2087 64.2822 44.9842C64.2823 44.8543 64.3178 44.6772 64.377 44.453L65.0176 42.2186H66.9033L66.2627 44.453ZM75.9502 47.9881H74.042L74.7061 45.6825H72.5713L71.9072 47.9881H69.998L71.2432 43.6483C71.3973 43.0929 71.682 42.7028 72.0732 42.4901C72.4053 42.3128 72.9034 42.2303 73.5674 42.2303H77.5986L75.9502 47.9881ZM85.9707 44.4647H88.0693C88.6148 44.4647 88.9823 44.5241 89.1602 44.6541C89.3143 44.7487 89.3857 44.9138 89.3857 45.1502C89.3857 45.3157 89.3503 45.5049 89.291 45.7176L89.0303 46.6395C88.7694 47.538 88.1522 47.9881 87.168 47.9881H83.0537L84.7021 42.2303H86.6113L85.9707 44.4647ZM91.0576 47.9881H89.1484L90.7969 42.2303H92.7061L91.0576 47.9881ZM147.739 47.9881H93.4766L94.9707 42.2303H149.114L147.739 47.9881ZM21.5703 46.4266H23.6924L24.4746 43.7196H22.3525L21.5703 46.4266ZM85.4014 46.4266H87.1924L87.4053 45.6825H85.6152L85.4014 46.4266ZM9.13086 46.4149H11.2656L11.4902 45.6346H9.35645L9.13086 46.4149ZM2.97656 44.5233H5.09863L5.34766 43.6483H3.22559L2.97656 44.5233ZM28.7207 44.5233H30.8428L31.0918 43.6483H28.9697L28.7207 44.5233ZM72.9033 44.5233H75.0254L75.2744 43.6483H73.1523L72.9033 44.5233ZM79.5791 44.5116H81.5947L81.8203 43.7196H79.8047L79.5791 44.5116ZM9.67676 44.4881H11.8105L12.0127 43.7909H9.87793L9.67676 44.4881ZM52.0098 42.242H52.0068L52.0098 42.2303V42.242ZM25.3291 22.0135L20.4912 39.9959H14.835L18.416 26.66H13.1865L10.9092 35.1131C10.3875 37.0163 9.80644 38.2699 9.1543 38.8846C8.38353 39.6174 7.06743 39.9832 5.19434 39.9832H2.39551L3.7002 35.1131H5.40723L7.73145 26.4471C8.19391 24.721 9.0003 23.5145 10.1387 22.8524C11.0873 22.2849 12.5224 22.0018 14.4434 22.0018H25.3291V22.0135ZM59.4922 26.66H53.9775L50.3965 39.9959H44.7402L48.3213 26.66H42.8076L44.0645 22.0135H60.749L59.4922 26.66ZM73.4248 22.0135C74.7885 22.0135 75.8085 22.1432 76.4844 22.3914C77.5279 22.7934 78.0615 23.5739 78.0615 24.7088C78.0615 25.2527 77.9662 25.9033 77.7646 26.66L75.4883 35.1483C74.9902 37.0517 74.1954 38.3403 73.1045 39.0496C72.1321 39.688 70.6381 39.9959 68.5986 39.9959H62.373C61.0095 39.9959 59.9893 39.8653 59.3135 39.617C58.2585 39.2151 57.7365 38.4468 57.7363 37.3241C57.7363 36.7448 57.8556 36.0113 58.0928 35.1483L60.3691 26.66C60.8553 24.8512 61.6499 23.5977 62.7764 22.912C63.7487 22.309 65.219 22.0136 67.2109 22.0135H73.4248ZM93.4883 39.9959H87.9033L89.8359 32.8075H83.623L81.6904 39.9959H76.1045L79.7334 26.4588C80.1958 24.7091 81.0139 23.5027 82.1641 22.8407C83.1364 22.2968 84.5836 22.0135 86.5283 22.0135H98.3271L93.4883 39.9959ZM134.813 26.66H129.3L125.719 39.9959H120.062L123.644 26.66H118.13L119.387 22.0135H136.07L134.813 26.66ZM148.747 22.0135C150.111 22.0135 151.131 22.1432 151.807 22.3914C152.85 22.7934 153.372 23.5739 153.372 24.7088C153.372 25.2527 153.277 25.9033 153.075 26.66L150.799 35.1483C150.301 37.0517 149.506 38.3403 148.415 39.0496C147.443 39.688 145.949 39.9959 143.909 39.9959H137.695C136.332 39.9959 135.312 39.8653 134.636 39.617C133.581 39.2151 133.059 38.4469 133.059 37.3241C133.059 36.7448 133.178 36.0113 133.415 35.1483L135.691 26.66C136.178 24.8511 136.972 23.5977 138.099 22.912C139.071 22.309 140.541 22.0135 142.533 22.0135H148.747ZM41.5391 26.66H31.9219L31.293 29.0125H40.0566L39.0244 32.8075H30.2617L29.6455 35.1131H39.2617L37.958 39.9832H22.6846L27.5107 22.0135H42.7959L41.5391 26.66ZM114.134 22.0018C116.161 22.0137 117.181 22.7111 117.181 24.1297C117.181 24.508 117.11 24.9931 116.956 25.5487L116.279 28.0897C116.113 28.6926 115.841 29.1897 115.449 29.5916C115.176 29.8753 114.726 30.2181 114.074 30.62C114.738 30.8919 115.07 31.3534 115.07 32.0155C115.07 32.3819 114.999 32.8429 114.845 33.3866L114.146 35.9286C113.766 37.3117 113.208 38.3165 112.497 38.9549C111.726 39.6406 110.647 39.9832 109.236 39.9832H95.6709L100.509 22.0018H114.134ZM63.6777 35.1131H69.8916L72.168 26.6473H65.9541L63.6777 35.1131ZM139 35.1131H145.213L147.49 26.6473H141.276L139 35.1131ZM102.607 35.0653H108.845L109.497 32.6414H103.26L102.607 35.0653ZM84.5947 29.201H90.8086L91.5322 26.4588H85.3184L84.5947 29.201ZM104.208 29.0477H110.445L111.051 26.8719H104.813L104.208 29.0477ZM59.0645 0.224452C62.7522 -0.130217 66.4641 -0.0243739 70.1162 0.40121C73.7685 0.826825 77.3622 1.60743 80.8604 2.58871C84.3702 3.56997 87.7851 4.77635 91.1289 6.10043C94.4847 7.41273 97.7578 8.87827 101.007 10.3797L103.414 11.5028C103.793 11.6801 104.185 11.8578 104.576 12.0233C104.967 12.1888 105.359 12.354 105.75 12.5077C107.327 13.1342 108.94 13.6668 110.588 14.1161C112.236 14.5535 113.896 14.9079 115.58 15.1444C116.007 15.2035 116.422 15.2621 116.849 15.3094C117.276 15.3567 117.691 15.4048 118.118 15.4403C118.545 15.4757 118.972 15.5104 119.398 15.534C119.825 15.5577 120.265 15.5699 120.691 15.5936C127.782 15.901 134.897 16.232 141.988 16.5985L147.312 16.8827L149.98 17.036L151.309 17.1073L151.973 17.1424C152.198 17.1542 152.411 17.1657 152.66 17.1893C153.146 17.2366 153.668 17.3314 154.166 17.4969C154.676 17.6624 155.186 17.899 155.625 18.2655C156.064 18.6201 156.419 19.1048 156.633 19.6131C156.846 20.1215 156.917 20.6537 156.917 21.1502C156.917 22.1433 156.668 23.0539 156.348 23.9051C156.028 24.7561 155.625 25.5599 155.127 26.3045C155.411 25.4534 155.636 24.602 155.755 23.7391C155.885 22.888 155.944 22.0133 155.778 21.245C155.695 20.855 155.565 20.5121 155.388 20.2166C155.21 19.9329 154.972 19.7082 154.688 19.5545C154.13 19.2354 153.383 19.1645 152.601 19.2118C152.399 19.2354 152.173 19.2235 151.948 19.2235H147.288L141.964 19.2118C134.849 19.1999 127.758 19.1284 120.644 19.0575C120.193 19.0575 119.743 19.0694 119.28 19.0457C118.818 19.0339 118.355 19.0216 117.893 18.9862C117.43 18.9625 116.967 18.9279 116.505 18.8924C116.043 18.857 115.58 18.8089 115.13 18.7498C113.292 18.537 111.465 18.2303 109.663 17.7811C107.861 17.3437 106.094 16.7995 104.351 16.1493C103.912 15.9956 103.485 15.8178 103.058 15.6405C102.631 15.475 102.204 15.2856 101.777 15.0965L99.3467 13.9979C92.9078 11.125 86.4095 8.4404 79.7334 6.53695C76.4013 5.57933 73.0214 4.85838 69.6182 4.3973C66.215 3.9599 62.7878 3.81808 59.3965 4.05453C55.9934 4.291 52.6379 4.91794 49.3652 5.91098C46.1043 6.9159 42.9377 8.27513 39.9258 9.95394C36.902 11.6091 34.0204 13.5718 31.2812 15.7235C29.8109 16.8938 28.1512 17.8873 26.4082 18.5848C24.6532 19.2942 22.815 19.7552 20.9414 19.9207L20.2422 19.9676L19.542 19.992L18.2021 20.0037L15.5342 20.0975L12.8662 20.1219H12.2021C11.9768 20.1219 11.7513 20.1218 11.5615 20.1336C11.1703 20.1455 10.7671 20.2049 10.3877 20.3231C9.6289 20.5477 8.9052 20.9607 8.32422 21.5399C8.03965 21.8236 7.77886 22.155 7.56543 22.5096C7.35199 22.8643 7.19824 23.2432 7.03223 23.6688C6.38009 25.3238 5.73933 26.9669 5.06348 28.6219C5.51407 26.9077 5.98873 25.1936 6.45117 23.4793C6.55789 23.0655 6.69978 22.5924 6.90137 22.1668C7.10295 21.7412 7.36358 21.339 7.67188 20.9725C8.27658 20.2278 9.09499 19.6486 9.99609 19.2821C10.4466 19.093 10.9329 18.9751 11.4189 18.9041C11.6798 18.8687 11.8821 18.8565 12.1074 18.8328L12.7715 18.7743L15.4277 18.537L19.4121 18.1825L20.04 18.1121L20.6689 18.0174C22.329 17.7218 23.9297 17.225 25.4355 16.492C26.9414 15.7591 28.3048 14.8367 29.5498 13.7254C32.2534 11.3254 35.1714 9.15047 38.29 7.23519C41.4086 5.34363 44.7284 3.71138 48.2383 2.52914C49.9813 1.93804 51.7719 1.44174 53.5742 1.0516C55.3884 0.661483 57.2148 0.389973 59.0645 0.224452ZM4.63672 1.91488C12.2615 3.48728 27.2501 4.04327 19.7559 16.2205C18.9258 14.2816 17.8941 12.4128 16.6016 10.7577C15.0482 8.74788 13.0911 7.0929 10.8975 5.94613C12.9489 7.34121 14.6453 9.16232 15.9141 11.2313C17.0048 12.9926 17.7873 14.9077 18.3564 16.87C7.0914 18.4778 11.9055 7.42427 4.63672 1.91488ZM30.3564 7.83773C26.9889 10.3914 29.2182 15.5112 24.0127 14.7664C24.2736 13.8562 24.6407 12.9689 25.1387 12.1532C25.7197 11.1956 26.5144 10.3561 27.4629 9.7059C26.4433 10.2379 25.5426 11.0066 24.8193 11.9286C24.2264 12.697 23.7398 13.5603 23.3604 14.4588C19.886 8.83133 26.8227 8.57071 30.3564 7.83773Z" fill="url(#paint0_linear_7171_2449)"/>
</g>
<defs>
<linearGradient id="paint0_linear_7171_2449" x1="78.4942" y1="0.0107422" x2="78.4942" y2="47.9996" gradientUnits="userSpaceOnUse">
<stop stop-color="#28CB47"/>
<stop offset="1" stop-color="#4691F2"/>
</linearGradient>
<clipPath id="clip0_7171_2449">
<rect width="157" height="48" fill="white"/>
</clipPath>
</defs>
</svg>
