<svg width="157" height="49" viewBox="0 0 157 49" fill="none" xmlns="http://www.w3.org/2000/svg">
<g clip-path="url(#clip0_7229_2182)">
<path d="M13.0674 42.67C13.767 42.6582 14.1113 42.8829 14.1113 43.3321C14.1113 43.4503 14.0876 43.6041 14.0283 43.7931L13.8027 44.6085C13.7434 44.7976 13.649 44.9638 13.5186 45.0938C13.4237 45.1884 13.2692 45.2949 13.0439 45.4249C13.2692 45.5077 13.3877 45.6614 13.3877 45.8741C13.3876 45.9922 13.3638 46.1337 13.3047 46.3106L13.0674 47.127C12.9369 47.5644 12.747 47.8958 12.498 48.0968C12.2372 48.3093 11.8697 48.4278 11.3838 48.4278H6.75879L8.40723 42.67H13.0674ZM51.582 44.1475H48.2979L48.084 44.9044H51.084L50.7285 46.1222H47.7285L47.5156 46.8673H50.7998L50.3496 48.4278H45.1201L46.7686 42.67H52.0068L51.582 44.1475ZM82.4844 42.67C82.8994 42.67 83.2077 42.7054 83.3975 42.7882C83.6939 42.9064 83.8477 43.131 83.8477 43.462C83.8476 43.6392 83.8007 43.8873 83.7178 44.1944C83.6466 44.4309 83.5749 44.6679 83.5156 44.9044C83.3734 45.3888 83.1011 45.7434 82.6982 45.9561C82.4374 46.098 82.1052 46.169 81.7021 46.169H79.2354L78.583 48.4278H76.6738L78.3223 42.67H82.4844ZM6.01172 48.4151H4.10254L4.7666 46.1104H2.63281L1.96875 48.4151H0.0712891L1.30469 44.0763C1.45887 43.5208 1.74355 43.1308 2.13477 42.9181C2.46679 42.7408 2.96494 42.6583 3.62891 42.6583H7.66016L6.01172 48.4151ZM20.1465 44.1475H18.2617L17.04 48.4151H15.1074L16.3291 44.1475H14.4434L14.8701 42.6583H20.5742L20.1465 44.1475ZM24.9023 42.67C25.3646 42.67 25.7201 42.7055 25.9453 42.7882C26.3128 42.9064 26.4911 43.1543 26.4912 43.5206C26.4912 43.6979 26.4549 43.8993 26.3838 44.1475L25.6016 46.8663C25.4356 47.4693 25.1627 47.8957 24.7832 48.1085C24.4512 48.3093 23.9414 48.4151 23.2422 48.4151H21.1191C20.6569 48.4151 20.3015 48.3796 20.0762 48.297C19.7205 48.1669 19.5303 47.9191 19.5303 47.5645C19.5303 47.3754 19.5654 47.15 19.6484 46.8663L20.4316 44.1475C20.5977 43.5683 20.8706 43.166 21.25 42.9532C21.582 42.7642 22.0919 42.67 22.7676 42.67H24.9023ZM31.7676 48.4151H29.8584L30.5225 46.1104H28.4004L27.7363 48.4151H25.8271L27.0723 44.0763C27.2264 43.5208 27.5111 43.1308 27.9023 42.9181C28.2344 42.7408 28.7326 42.6583 29.3965 42.6583H33.416L31.7676 48.4151ZM35.3965 44.9161H35.6221L38.1826 42.6583H40.0918L37.5303 44.9161C38.5617 44.9161 39.0721 45.2706 39.0723 45.9679C39.0723 46.1334 39.0368 46.3351 38.9775 46.5479L38.4434 48.4151H36.5225L37.1982 46.0626H35.0645L34.3887 48.4151H32.4795L34.1279 42.6583H36.0488L35.3965 44.9161ZM45.7842 44.1475H42.1318L41.3486 46.8546H45.001L44.5508 48.4151H40.8984C40.3175 48.4151 39.9024 48.3567 39.6533 48.2267C39.4043 48.1084 39.2861 47.8954 39.2861 47.588C39.2861 47.3988 39.333 47.1501 39.416 46.8546L40.1992 44.1475C40.3652 43.5566 40.6492 43.1426 41.0166 42.9298C41.3368 42.7524 41.8473 42.6583 42.5469 42.6583H46.2109L45.7842 44.1475ZM57.7725 44.1475H54.1201L53.3379 46.8546H56.9893L56.5391 48.4151H52.8867C52.3057 48.4151 51.8906 48.3567 51.6416 48.2267C51.3926 48.1084 51.2744 47.8954 51.2744 47.588C51.2744 47.3988 51.3213 47.1501 51.4043 46.8546L52.1875 44.1475C52.3535 43.5565 52.6383 43.1426 53.0059 42.9298C53.326 42.7526 53.8358 42.6583 54.5352 42.6583H58.1992L57.7725 44.1475ZM63.915 44.1475H60.2627L59.4795 46.8546H63.1318L62.6816 48.4151H59.0293C58.4483 48.4151 58.0332 48.3567 57.7842 48.2267C57.5352 48.1084 57.417 47.8954 57.417 47.588C57.417 47.3988 57.4639 47.1501 57.5469 46.8546L58.3301 44.1475C58.4961 43.5566 58.78 43.1426 59.1475 42.9298C59.4676 42.7524 59.9781 42.6583 60.6777 42.6583H64.3418L63.915 44.1475ZM66.2627 44.8809H68.4209L69.0615 42.6466H70.9707V42.6583L69.7607 46.8546C69.5948 47.4455 69.3578 47.8477 69.0615 48.0724C68.7651 48.2969 68.2906 48.4151 67.6504 48.4151H63.5586L64.0098 46.8546H67.8516L68.0654 46.1104H65.4805C64.9824 46.1104 64.6496 46.0394 64.4717 45.8975C64.3413 45.7911 64.2822 45.6367 64.2822 45.4122C64.2823 45.2823 64.3178 45.1051 64.377 44.8809L65.0176 42.6466H66.9033L66.2627 44.8809ZM75.9502 48.4151H74.042L74.7061 46.1104H72.5713L71.9072 48.4151H69.998L71.2432 44.0763C71.3973 43.5208 71.682 43.1308 72.0732 42.9181C72.4053 42.7407 72.9034 42.6583 73.5674 42.6583H77.5986L75.9502 48.4151ZM85.9707 44.8927H88.0693C88.6144 44.8927 88.9821 44.9513 89.1602 45.0811C89.3143 45.1757 89.3857 45.3418 89.3857 45.5782C89.3857 45.7437 89.3503 45.9328 89.291 46.1456L89.0303 47.0675C88.7694 47.966 88.1522 48.4151 87.168 48.4151H83.0537L84.7021 42.6583H86.6113L85.9707 44.8927ZM91.0576 48.4151H89.1484L90.7969 42.6583H92.7061L91.0576 48.4151ZM147.739 48.4151H93.4766L94.9707 42.6583H149.114L147.739 48.4151ZM21.5703 46.8546H23.6924L24.4746 44.1475H22.3525L21.5703 46.8546ZM85.4014 46.8546H87.1924L87.4053 46.1104H85.6152L85.4014 46.8546ZM9.13086 46.8429H11.2656L11.4902 46.0626H9.35645L9.13086 46.8429ZM2.97656 44.9513H5.09863L5.34766 44.0763H3.22559L2.97656 44.9513ZM28.7207 44.9513H30.8428L31.0918 44.0763H28.9697L28.7207 44.9513ZM72.9033 44.9513H75.0254L75.2744 44.0763H73.1523L72.9033 44.9513ZM79.5791 44.9395H81.5947L81.8203 44.1475H79.8047L79.5791 44.9395ZM9.67676 44.9161H11.8105L12.0127 44.2188H9.87793L9.67676 44.9161ZM52.0098 42.67H52.0068L52.0098 42.6583V42.67ZM116.83 27.211H107.213L106.585 29.5636H115.348L114.316 33.3595H105.553L104.937 35.6642H114.553L113.249 40.5352H97.9756L102.802 22.5655H118.087L116.83 27.211ZM22.4883 40.4239H16.9033L18.8359 33.2364H12.6221L10.6895 40.4239H5.10449L8.7334 26.8878C9.19586 25.138 10.0138 23.9317 11.1641 23.2696C12.1364 22.7258 13.5829 22.4425 15.5273 22.4425H27.3262L22.4883 40.4239ZM61.8145 27.087H56.2998L52.7188 40.4229H47.0625L50.6436 27.087H45.1299L46.3867 22.4415H63.0713L61.8145 27.087ZM76.4248 22.4415C77.7881 22.4415 78.8075 22.5713 79.4834 22.8194C80.5269 23.2214 81.0605 24.0018 81.0605 25.1368C81.0605 25.6805 80.9661 26.3306 80.7646 27.087L78.4873 35.5763C77.9893 37.4795 77.1953 38.7683 76.1045 39.4776C75.1322 40.116 73.638 40.4229 71.5986 40.4229H65.373C64.0094 40.4229 62.9894 40.2933 62.3135 40.045C61.2581 39.643 60.7363 38.8742 60.7363 37.7511C60.7364 37.1719 60.8547 36.439 61.0918 35.5763L63.3691 27.087C63.8553 25.2783 64.6499 24.0256 65.7764 23.3399C66.7487 22.737 68.2189 22.4415 70.2109 22.4415H76.4248ZM101.329 22.4415L96.4912 40.4229H90.835L94.416 27.087H89.1865L86.9092 35.5411C86.3875 37.4442 85.8064 38.6969 85.1543 39.3116C84.3836 40.0446 83.0677 40.4112 81.1943 40.4112H78.3955L79.7002 35.5411H81.4072L83.7314 26.8751C84.1939 25.149 85.0003 23.9424 86.1387 23.2804C87.0873 22.7129 88.5224 22.4298 90.4434 22.4298H101.329V22.4415ZM134.773 27.087H129.259L125.678 40.4229H120.021L123.603 27.087H118.089L119.346 22.4415H136.03L134.773 27.087ZM148.747 22.4415C150.11 22.4415 151.13 22.5713 151.806 22.8194C152.849 23.2214 153.371 24.0018 153.371 25.1368C153.371 25.6805 153.277 26.3306 153.075 27.087L150.798 35.5763C150.3 37.4794 149.506 38.7683 148.415 39.4776C147.443 40.1161 145.948 40.4229 143.908 40.4229H137.695C136.332 40.4229 135.312 40.2933 134.636 40.045C133.58 39.643 133.059 38.8742 133.059 37.7511C133.059 37.1719 133.177 36.439 133.414 35.5763L135.691 27.087C136.178 25.2783 136.972 24.0256 138.099 23.3399C139.071 22.737 140.541 22.4415 142.533 22.4415H148.747ZM42.1338 22.4298C44.1615 22.4416 45.1816 23.139 45.1816 24.5577C45.1816 24.9359 45.1101 25.4203 44.9561 25.9757L44.2803 28.5177C44.1143 29.1206 43.8415 29.6176 43.4502 30.0196C43.1775 30.3034 42.7264 30.646 42.0742 31.0479C42.7383 31.3199 43.0703 31.7814 43.0703 32.4434C43.0703 32.8099 42.9998 33.2709 42.8457 33.8145L42.1455 36.3565C41.7661 37.7397 41.2085 38.7445 40.4971 39.3829C39.7263 40.0685 38.6473 40.4112 37.2363 40.4112H23.6709L28.5088 22.4298H42.1338ZM66.6768 35.5401H72.8906L75.168 27.0753H68.9541L66.6768 35.5401ZM138.999 35.5401H145.213L147.49 27.0753H141.276L138.999 35.5401ZM30.6074 35.4933H36.8447L37.4971 33.0694H31.2598L30.6074 35.4933ZM13.5947 29.63H19.8086L20.5322 26.8878H14.3184L13.5947 29.63ZM32.209 29.4757H38.4463L39.0508 27.2999H32.8135L32.209 29.4757ZM59.0645 0.652431C62.7522 0.297761 66.4641 0.403604 70.1162 0.829189C73.7685 1.2548 77.3622 2.03541 80.8604 3.01669C84.3701 3.99793 87.7851 5.20338 91.1289 6.52743C94.4847 7.83975 97.7577 9.30623 101.007 10.8077L103.414 11.9308C103.793 12.1081 104.185 12.2858 104.576 12.4513C104.967 12.6167 105.359 12.782 105.75 12.9356C107.327 13.5622 108.94 14.0948 110.588 14.544C112.236 14.9815 113.896 15.3359 115.58 15.5724C116.007 15.6315 116.422 15.6901 116.849 15.7374C117.276 15.7847 117.691 15.8318 118.118 15.8673C118.545 15.9027 118.972 15.9384 119.398 15.962C119.825 15.9856 120.265 15.9979 120.691 16.0216C127.782 16.329 134.897 16.66 141.988 17.0265L147.312 17.3097L149.98 17.464L151.309 17.5352L151.973 17.5704C152.198 17.5822 152.411 17.5936 152.66 17.6173C153.146 17.6646 153.668 17.7594 154.166 17.9249C154.676 18.0904 155.186 18.3269 155.625 18.6934C156.064 19.0481 156.419 19.5328 156.633 20.0411C156.846 20.5495 156.917 21.0817 156.917 21.5782C156.917 22.5713 156.668 23.4819 156.348 24.3331C156.028 25.184 155.625 25.9879 155.127 26.7325C155.411 25.8814 155.636 25.03 155.755 24.1671C155.885 23.316 155.944 22.4413 155.778 21.6729C155.695 21.2828 155.566 20.9392 155.388 20.6436C155.21 20.36 154.972 20.1362 154.688 19.9825C154.13 19.6633 153.383 19.5915 152.601 19.6388C152.399 19.6624 152.173 19.6515 151.948 19.6515H147.288L141.964 19.6388C134.849 19.6269 127.758 19.5564 120.644 19.4854C120.193 19.4854 119.743 19.4973 119.28 19.4737C118.818 19.4619 118.355 19.4496 117.893 19.4142C117.43 19.3905 116.967 19.3559 116.505 19.3204C116.043 19.2849 115.58 19.2369 115.13 19.1778C113.292 18.965 111.465 18.6583 109.663 18.2091C107.861 17.7716 106.094 17.2275 104.351 16.5772C103.912 16.4235 103.485 16.2458 103.058 16.0684C102.631 15.903 102.204 15.7136 101.777 15.5245L99.3467 14.4259C92.9078 11.553 86.4095 8.86838 79.7334 6.96493C76.4013 6.00731 73.0214 5.28636 69.6182 4.82528C66.215 4.38788 62.7878 4.24606 59.3965 4.48251C55.9934 4.71898 52.6379 5.34591 49.3652 6.33895C46.1043 7.34388 42.9377 8.7031 39.9258 10.3819C36.902 12.0371 34.0204 13.9998 31.2812 16.1515C29.8109 17.3218 28.1512 18.3153 26.4082 19.0128C24.6532 19.7221 22.815 20.1832 20.9414 20.3487L20.2422 20.3956L19.542 20.419L18.2021 20.4317L15.5342 20.5255L12.8662 20.5499H12.2021C11.9768 20.5499 11.7513 20.5498 11.5615 20.5616C11.1703 20.5734 10.7671 20.6319 10.3877 20.7501C9.62882 20.9747 8.90525 21.3886 8.32422 21.9679C8.03964 22.2516 7.77887 22.5829 7.56543 22.9376C7.35199 23.2923 7.19824 23.6712 7.03223 24.0968C6.38009 25.7518 5.73933 27.3948 5.06348 29.0499C5.51407 27.3357 5.98873 25.6215 6.45117 23.9073C6.55789 23.4935 6.69979 23.0204 6.90137 22.5948C7.10295 22.1692 7.36358 21.767 7.67188 21.4005C8.27657 20.6557 9.09499 20.0766 9.99609 19.71C10.4465 19.5209 10.9329 19.4031 11.4189 19.3321C11.6798 19.2966 11.8821 19.2845 12.1074 19.2608L12.7715 19.2022L15.4277 18.9649L19.4121 18.6104L20.04 18.5401L20.6689 18.4454C22.329 18.1498 23.9297 17.653 25.4355 16.92C26.9414 16.187 28.3048 15.2646 29.5498 14.1534C32.2534 11.7534 35.1714 9.57844 38.29 7.66317C41.4086 5.7716 44.7284 4.13936 48.2383 2.95712C49.9813 2.36603 51.7719 1.86971 53.5742 1.47958C55.3884 1.08946 57.2148 0.817952 59.0645 0.652431ZM4.63672 2.34286C12.2615 3.91525 27.2501 4.47125 19.7559 16.6485C18.9258 14.7096 17.8941 12.8408 16.6016 11.1856C15.0482 9.17584 13.0911 7.52088 10.8975 6.37411C12.9489 7.76918 14.6453 9.5903 15.9141 11.6593C17.0048 13.4206 17.7873 15.3357 18.3564 17.2979C7.09142 18.9058 11.9054 7.85226 4.63672 2.34286ZM30.3564 8.26571C26.9889 10.8194 29.2183 15.9383 24.0127 15.1934C24.2735 14.2833 24.6408 13.3967 25.1387 12.5811C25.7196 11.6236 26.5144 10.7841 27.4629 10.1339C26.4433 10.6659 25.5426 11.4345 24.8193 12.3565C24.2264 13.125 23.7398 13.9883 23.3604 14.8868C19.886 9.25932 26.8227 8.99869 30.3564 8.26571Z" fill="url(#paint0_linear_7229_2182)"/>
</g>
<defs>
<linearGradient id="paint0_linear_7229_2182" x1="78.4942" y1="0.438721" x2="78.4942" y2="48.4276" gradientUnits="userSpaceOnUse">
<stop stop-color="#28CB47"/>
<stop offset="1" stop-color="#4691F2"/>
</linearGradient>
<clipPath id="clip0_7229_2182">
<rect width="157" height="48" fill="white" transform="translate(0 0.42749)"/>
</clipPath>
</defs>
</svg>
