<svg width="24" height="24" viewBox="0 0 24 24" fill="none" xmlns="http://www.w3.org/2000/svg">
<path d="M16.7412 11.7075V15.0306H18.5874V13.0614H20.6797C21.5597 13.0552 22.3074 12.4921 22.5904 11.7075H16.7412Z" fill="#37A72E"/>
<path d="M16.4951 8.96924C16.6028 10.3262 17.889 11.4 19.4582 11.4C19.4643 11.4 22.6674 11.4 22.6674 11.4C22.692 11.2769 22.7044 11.1477 22.7044 11.0154C22.7044 9.88924 21.7967 8.97847 20.6736 8.96924H16.4951Z" fill="url(#paint0_linear_5325_3209)"/>
<path d="M13.7628 11.3662C13.7844 11.3292 13.8182 11.3077 13.8613 11.3077C13.9228 11.3077 13.969 11.3569 13.9721 11.4154V15H15.8182V8.96924H13.9721C13.7382 8.97847 13.4736 9.1477 13.3751 9.36001L11.9074 12.5108C11.9044 12.5231 11.8982 12.5354 11.8921 12.5477C11.8705 12.5785 11.8336 12.6 11.7905 12.6C11.7228 12.6 11.6674 12.5446 11.6674 12.4769V8.96924H9.82129V15H11.6674C11.8982 14.9877 12.1567 14.8185 12.2551 14.6092L13.7628 11.3754C13.7598 11.3723 13.7628 11.3692 13.7628 11.3662Z" fill="#37A72E"/>
<path d="M6.87065 11.4707L5.79065 14.9999H4.46142L3.38449 11.4676C3.37526 11.4122 3.32603 11.3691 3.26449 11.3691C3.1968 11.3691 3.14449 11.4245 3.14449 11.4891V14.9968H1.29834V8.96606H2.88296H3.35372C3.69219 8.96606 4.04911 9.23068 4.14757 9.55376L5.04603 12.4922C5.09219 12.6399 5.16296 12.6368 5.20911 12.4922L6.10757 9.55376C6.20603 9.2276 6.56296 8.96606 6.90142 8.96606H7.37219H8.9568V14.9968H7.11065V11.4891C7.11065 11.4891 7.11065 11.4891 7.11065 11.4861C7.11065 11.4184 7.05526 11.3661 6.99065 11.3661C6.92911 11.3691 6.87988 11.4122 6.87065 11.4707Z" fill="#37A72E"/>
<defs>
<linearGradient id="paint0_linear_5325_3209" x1="16.4959" y1="10.1846" x2="22.704" y2="10.1846" gradientUnits="userSpaceOnUse">
<stop stop-color="#00A0E5"/>
<stop offset="1" stop-color="#0077C3"/>
</linearGradient>
</defs>
</svg>
