<svg width="37" height="37" viewBox="0 0 37 37" fill="none" xmlns="http://www.w3.org/2000/svg">
<mask id="mask0_7171_2503" style="mask-type:luminance" maskUnits="userSpaceOnUse" x="0" y="0" width="37" height="37">
<path d="M18.6906 36.4485C8.76377 36.4485 0.716309 28.4005 0.716309 18.4755C0.716309 8.55056 8.76377 0.5 18.6906 0.5C28.6174 0.5 36.6648 8.54802 36.6648 18.4755C36.6623 28.4005 28.6148 36.4485 18.6906 36.4485Z" fill="white"/>
</mask>
<g mask="url(#mask0_7171_2503)">
<path d="M36.6623 0.5H0.716309V36.4485H36.6623V0.5Z" fill="#005BFF"/>
</g>
<mask id="mask1_7171_2503" style="mask-type:luminance" maskUnits="userSpaceOnUse" x="0" y="0" width="37" height="37">
<path d="M18.6906 36.4485C8.76377 36.4485 0.716309 28.4005 0.716309 18.4755C0.716309 8.55056 8.76377 0.5 18.6906 0.5C28.6174 0.5 36.6648 8.54802 36.6648 18.4755C36.6623 28.4005 28.6148 36.4485 18.6906 36.4485Z" fill="white"/>
</mask>
<g mask="url(#mask1_7171_2503)">
<path d="M40.6386 31.299C37.9073 33.756 34.7586 37.3823 30.8034 37.2395C29.7386 36.5219 31.4224 35.1231 31.9622 34.5177C33.686 32.5836 35.3871 30.5193 37.0628 28.4151C43.0911 20.8457 41.1177 25.065 40.6389 31.299H40.6386Z" fill="#F1117E"/>
<path d="M7.293 2.40215C5.68756 4.10155 4.12018 5.80348 2.55025 7.53838C1.69554 8.487 0.924527 9.50917 0.0799627 10.473C-1.42909 12.1952 -2.99141 13.8972 -4.77438 15.3049C-6.58271 16.7303 -8.528 18.171 -10.3718 19.5508C-10.3769 19.4468 -10.595 14.6124 -10.6001 14.5034C-9.81894 13.1793 -9.03271 11.6803 -8.45191 10.2422C-8.10952 9.39249 -7.80771 8.49968 -7.46278 7.64998C-6.80336 6.014 -5.93851 4.51752 -4.66532 3.32541C-3.95518 2.65833 -3.13851 2.18656 -2.29902 1.73761C0.219456 0.388245 2.7354 -0.983952 5.25894 -2.32064C6.76293 -3.11961 7.90169 -4.5121 9.24336 -5.56471L14.5669 -5.80566C12.1499 -3.05366 9.81147 -0.263612 7.293 2.40215Z" fill="#F1117E"/>
<path d="M15.8325 21.1522L12.718 21.9866L15.2845 15.656C15.3408 15.5147 15.272 15.3547 15.1308 15.2981C15.0762 15.2763 15.0161 15.2728 14.9593 15.2875L9.20512 16.8294C8.69711 16.9656 8.3958 17.4876 8.53175 17.9956C8.66794 18.5036 9.1899 18.805 9.6979 18.669L12.2854 17.9756L9.70475 24.3125C9.64642 24.4513 9.7116 24.6113 9.85033 24.6697C9.90714 24.6935 9.97055 24.6976 10.0299 24.6808L16.3258 22.9936C16.826 22.8313 17.0999 22.2943 16.9376 21.7941C16.7872 21.3302 16.3106 21.0553 15.8338 21.1567L15.8325 21.1517V21.1522ZM34.4165 10.0739C33.9085 10.2101 33.6072 10.7321 33.7431 11.2401L34.5697 14.3249L28.5416 11.7122C28.4041 11.6503 28.2428 11.7117 28.1809 11.8491C28.1548 11.9072 28.15 11.9724 28.167 12.0338L29.866 18.3751C30.0022 18.8831 30.5241 19.1844 31.0322 19.0482C31.5402 18.912 31.8415 18.39 31.7055 17.882L30.879 14.7972L36.9078 17.4125C37.0478 17.4721 37.2094 17.4072 37.269 17.2671C37.2931 17.2106 37.2977 17.1477 37.2819 17.0883L35.5829 10.7471C35.4467 10.239 34.9248 9.93769 34.4168 10.0736M22.8363 19.4619C20.7335 20.0255 18.8631 19.3384 18.5973 18.3466C18.3315 17.3549 19.608 15.8247 21.7108 15.2611C23.8135 14.6975 25.684 15.3846 25.9498 16.3764C26.2156 17.3681 24.9442 18.897 22.8363 19.4619ZM21.2185 13.424C18.1737 14.2399 16.1775 16.6637 16.7603 18.8387C17.3431 21.0137 20.2836 22.1147 23.3284 21.2988C26.3731 20.4828 28.3691 18.059 27.7863 15.884C27.2035 13.7091 24.2632 12.608 21.2182 13.424M4.73425 24.3153C3.57342 24.6278 2.37885 23.9402 2.06614 22.779C1.75367 21.6179 2.4415 20.4235 3.60233 20.1107C4.76316 19.7982 5.95773 20.4859 6.27044 21.647L6.27121 21.6496C6.58215 22.81 5.89432 24.0031 4.73425 24.3153ZM3.11588 18.2749C0.939798 18.8565 -0.352917 21.0923 0.22864 23.2685C0.810197 25.445 3.04588 26.7376 5.22222 26.156C7.39831 25.5744 8.69102 23.3386 8.10946 21.1621L8.1082 21.157C7.52562 18.9825 5.29045 17.692 3.11614 18.2746" fill="white"/>
</g>
</svg>
