<svg width="32" height="32" viewBox="0 0 32 32" fill="none" xmlns="http://www.w3.org/2000/svg">
<path d="M6.9375 9.71094L9.63504 14.5326V17.4737L6.94066 22.2859L6.9375 9.71094Z" fill="#5B57A2"/>
<path d="M17.2969 12.7783L19.8246 11.229L24.9976 11.2242L17.2969 15.9417V12.7783Z" fill="#D90751"/>
<path d="M17.2833 9.68256L17.2976 16.0663L14.5938 14.4049V4.86237L17.2833 9.68256Z" fill="#FAB718"/>
<path d="M24.9984 11.224L19.8251 11.2288L17.2833 9.68256L14.5938 4.86237L24.9984 11.224Z" fill="#ED6F26"/>
<path d="M17.2976 22.3126V19.2154L14.5938 17.5856L14.5952 27.1377L17.2976 22.3126Z" fill="#63B22F"/>
<path d="M19.8163 20.7775L9.63485 14.5326L6.9375 9.71094L24.9848 20.7712L19.8163 20.7775Z" fill="#1487C9"/>
<path d="M14.5938 27.1376L17.2957 22.3126L19.8171 20.7774L24.9856 20.7711L14.5938 27.1376Z" fill="#017F36"/>
<path d="M6.94531 22.2858L14.6179 17.5857L12.0384 16.0031L9.6397 17.4736L6.94531 22.2858Z" fill="#984995"/>
</svg>
