<svg width="32" height="32" viewBox="0 0 32 32" fill="none" xmlns="http://www.w3.org/2000/svg">
<g clip-path="url(#clip0_5343_12335)">
<path d="M14.206 20.2232H12.0085L13.3819 11.7827H15.5797L14.206 20.2232ZM10.1598 11.7827L8.06485 17.5882L7.81694 16.338L7.81717 16.3385L7.07775 12.5427C7.07775 12.5427 6.98834 11.7827 6.03533 11.7827H2.57189L2.53125 11.9256C2.53125 11.9256 3.59038 12.146 4.8299 12.8904L6.73908 20.2234H9.0287L12.5249 11.7827H10.1598ZM27.4443 20.2232H29.4621L27.7028 11.7825H25.9363C25.1206 11.7825 24.9219 12.4115 24.9219 12.4115L21.6445 20.2232H23.9353L24.3934 18.9695H27.1869L27.4443 20.2232ZM25.0262 17.2375L26.1808 14.0789L26.8304 17.2375H25.0262ZM21.8163 13.8125L22.1299 11.9999C22.1299 11.9999 21.1622 11.6319 20.1535 11.6319C19.063 11.6319 16.4733 12.1085 16.4733 14.4261C16.4733 16.6067 19.5127 16.6338 19.5127 17.7792C19.5127 18.9245 16.7864 18.7193 15.8867 17.997L15.56 19.8922C15.56 19.8922 16.5412 20.3688 18.0404 20.3688C19.54 20.3688 21.8023 19.5924 21.8023 17.4791C21.8023 15.2845 18.7356 15.0802 18.7356 14.1261C18.7358 13.1717 20.876 13.2943 21.8163 13.8125Z" fill="#2566AF"/>
<path d="M7.81717 16.3382L7.07775 12.5424C7.07775 12.5424 6.98834 11.7825 6.03533 11.7825H2.57189L2.53125 11.9254C2.53125 11.9254 4.19591 12.2704 5.79262 13.563C7.31933 14.7984 7.81717 16.3382 7.81717 16.3382Z" fill="#E6A540"/>
</g>
<defs>
<clipPath id="clip0_5343_12335">
<rect width="32" height="32" fill="white"/>
</clipPath>
</defs>
</svg>
