<svg width="32" height="32" viewBox="0 0 32 32" fill="none" xmlns="http://www.w3.org/2000/svg">
<path d="M22.3281 15.6103V20.0411H24.7897V17.4154H27.5794C28.7527 17.4072 29.7497 16.6564 30.1271 15.6103H22.3281Z" fill="#37A72E"/>
<path d="M22 11.959C22.1436 13.7682 23.8585 15.2 25.9508 15.2C25.959 15.2 30.2297 15.2 30.2297 15.2C30.2626 15.0359 30.279 14.8636 30.279 14.6872C30.279 13.1857 29.0687 11.9713 27.5713 11.959H22Z" fill="url(#paint0_linear_5343_12344)"/>
<path d="M18.3569 15.1549C18.3857 15.1057 18.4308 15.0769 18.4882 15.0769C18.5703 15.0769 18.6318 15.1426 18.6359 15.2205V20H21.0975V11.959H18.6359C18.3241 11.9713 17.9713 12.1969 17.84 12.48L15.8831 16.681C15.879 16.6974 15.8708 16.7139 15.8626 16.7303C15.8339 16.7713 15.7846 16.8 15.7272 16.8C15.6369 16.8 15.5631 16.7262 15.5631 16.6359V11.959H13.1016V20H15.5631C15.8708 19.9836 16.2154 19.758 16.3467 19.479L18.3569 15.1672C18.3528 15.1631 18.3569 15.159 18.3569 15.1549Z" fill="#37A72E"/>
<path d="M9.16412 15.2944L7.72412 20H5.95181L4.51591 15.2903C4.50361 15.2164 4.43796 15.159 4.35591 15.159C4.26566 15.159 4.19591 15.2328 4.19591 15.319V19.9959H1.73438V11.9549H3.8472H4.47489C4.92617 11.9549 5.40207 12.3077 5.53335 12.7385L6.7313 16.6564C6.79284 16.8534 6.8872 16.8493 6.94873 16.6564L8.14668 12.7385C8.27797 12.3036 8.75386 11.9549 9.20514 11.9549H9.83284H11.9457V19.9959H9.48412V15.319C9.48412 15.319 9.48412 15.319 9.48412 15.3149C9.48412 15.2246 9.41027 15.1549 9.32412 15.1549C9.24207 15.159 9.17643 15.2164 9.16412 15.2944Z" fill="#37A72E"/>
<defs>
<linearGradient id="paint0_linear_5343_12344" x1="22.001" y1="13.5795" x2="30.2785" y2="13.5795" gradientUnits="userSpaceOnUse">
<stop stop-color="#00A0E5"/>
<stop offset="1" stop-color="#0077C3"/>
</linearGradient>
</defs>
</svg>
