<svg width="16" height="16" viewBox="0 0 16 16" fill="none" xmlns="http://www.w3.org/2000/svg">
<g clip-path="url(#clip0_7187_6103)">
<path d="M6.00016 6H6.00683M10.0002 10H10.0068M10.6668 5.33334L5.3335 10.6667M6.3335 6C6.3335 6.1841 6.18426 6.33334 6.00016 6.33334C5.81607 6.33334 5.66683 6.1841 5.66683 6C5.66683 5.81591 5.81607 5.66667 6.00016 5.66667C6.18426 5.66667 6.3335 5.81591 6.3335 6ZM10.3335 10C10.3335 10.1841 10.1843 10.3333 10.0002 10.3333C9.81607 10.3333 9.66683 10.1841 9.66683 10C9.66683 9.81591 9.81607 9.66667 10.0002 9.66667C10.1843 9.66667 10.3335 9.81591 10.3335 10ZM14.6668 8C14.6668 11.6819 11.6821 14.6667 8.00016 14.6667C4.31826 14.6667 1.3335 11.6819 1.3335 8C1.3335 4.3181 4.31826 1.33334 8.00016 1.33334C11.6821 1.33334 14.6668 4.3181 14.6668 8Z" stroke="#28CB47" stroke-width="1.5" stroke-linecap="round" stroke-linejoin="round"/>
</g>
<defs>
<clipPath id="clip0_7187_6103">
<rect width="16" height="16" fill="white"/>
</clipPath>
</defs>
</svg>
