<svg width="40" height="40" viewBox="0 0 40 40" fill="none" xmlns="http://www.w3.org/2000/svg">
<rect width="40" height="40" rx="20" fill="url(#paint0_linear_5571_14157)"/>
<path d="M16.3803 16.8532C17.0763 18.3028 18.0251 19.6615 19.2266 20.8631C20.4282 22.0646 21.7869 23.0134 23.2365 23.7094C23.3612 23.7693 23.4235 23.7992 23.5024 23.8222C23.7828 23.904 24.127 23.8453 24.3644 23.6752C24.4313 23.6274 24.4884 23.5702 24.6027 23.4559C24.9523 23.1063 25.1271 22.9315 25.3029 22.8172C25.9658 22.3862 26.8204 22.3862 27.4833 22.8172C27.6591 22.9315 27.8339 23.1063 28.1835 23.4559L28.3783 23.6508C28.9098 24.1822 29.1755 24.448 29.3198 24.7333C29.6069 25.3009 29.6069 25.9712 29.3198 26.5387C29.1755 26.8241 28.9098 27.0898 28.3783 27.6213L28.2207 27.7789C27.6911 28.3085 27.4263 28.5733 27.0662 28.7756C26.6667 29 26.0462 29.1614 25.588 29.16C25.1751 29.1588 24.8928 29.0787 24.3284 28.9185C21.295 28.0575 18.4326 26.433 16.0447 24.045C13.6567 21.6571 12.0322 18.7947 11.1712 15.7613C11.011 15.1969 10.9309 14.9146 10.9297 14.5017C10.9283 14.0435 11.0897 13.423 11.3141 13.0235C11.5164 12.6634 11.7812 12.3986 12.3108 11.869L12.4684 11.7114C12.9999 11.1799 13.2656 10.9142 13.551 10.7699C14.1185 10.4828 14.7888 10.4828 15.3564 10.7699C15.6417 10.9142 15.9075 11.1799 16.4389 11.7114L16.6338 11.9062C16.9834 12.2559 17.1582 12.4307 17.2725 12.6064C17.7035 13.2693 17.7035 14.1239 17.2725 14.7868C17.1582 14.9626 16.9834 15.1374 16.6338 15.487C16.5195 15.6013 16.4623 15.6584 16.4145 15.7253C16.2445 15.9627 16.1858 16.307 16.2675 16.5873C16.2905 16.6662 16.3204 16.7285 16.3803 16.8532Z" stroke="white" stroke-width="1.5" stroke-linecap="round" stroke-linejoin="round"/>
<defs>
<linearGradient id="paint0_linear_5571_14157" x1="20" y1="0" x2="20" y2="40" gradientUnits="userSpaceOnUse">
<stop stop-color="#28CB47"/>
<stop offset="1" stop-color="#4691F2"/>
</linearGradient>
</defs>
</svg>
