<svg width="48" height="48" viewBox="0 0 48 48" fill="none" xmlns="http://www.w3.org/2000/svg">
<rect width="48" height="48" rx="24" fill="white"/>
<path d="M18 16.9895C18 16.0183 18 15.5328 18.2025 15.2651C18.3789 15.0319 18.6485 14.8876 18.9404 14.8702C19.2754 14.8502 19.6795 15.1195 20.4875 15.6582L31.0031 22.6686C31.6708 23.1137 32.0046 23.3363 32.1209 23.6168C32.2227 23.8621 32.2227 24.1377 32.1209 24.383C32.0046 24.6635 31.6708 24.886 31.0031 25.3312L20.4875 32.3415C19.6795 32.8802 19.2754 33.1496 18.9404 33.1296C18.6485 33.1122 18.3789 32.9679 18.2025 32.7347C18 32.467 18 31.9814 18 31.0103V16.9895Z" fill="#28CB47"/>
</svg>
