<svg width="41" height="40" viewBox="0 0 41 40" fill="none" xmlns="http://www.w3.org/2000/svg">
<path d="M31.2443 20.8907C31.2321 17.3017 30.9177 13.7202 30.3046 10.184C30.1772 9.53596 29.8253 8.95375 29.311 8.54002C29.2585 8.35951 29.1701 8.19147 29.0512 8.04595C28.9323 7.90043 28.7852 7.78042 28.6189 7.6931L27.7937 7.26405C27.63 7.17793 27.4507 7.12533 27.2664 7.10933C27.0822 7.09334 26.8965 7.11426 26.7204 7.17088C26.6851 7.18252 26.653 7.20069 26.619 7.21467C25.4768 6.64726 23.5402 6.02441 20.5396 6.02441C17.5391 6.02441 15.6025 6.64726 14.4603 7.21467C14.4263 7.20069 14.3942 7.18252 14.3589 7.17088C14.1832 7.11457 13.998 7.0938 13.8143 7.1098C13.6305 7.1258 13.4517 7.17823 13.2884 7.26405L12.4599 7.69217C12.2934 7.77935 12.1462 7.89944 12.0273 8.04517C11.9085 8.19089 11.8204 8.35924 11.7683 8.54002C11.2535 8.9542 10.9014 9.53712 10.7742 10.1859C10.1598 13.735 9.84562 17.3297 9.83496 20.9317C9.83601 21.2914 9.92066 21.6459 10.0822 21.9672C10.2438 22.2886 10.4778 22.5678 10.7658 22.783V24.6306C10.4561 24.8643 10.2155 25.1778 10.0698 25.5377C9.92408 25.8975 9.87862 26.2901 9.93828 26.6738L10.3278 29.2057C10.3981 29.6767 10.6121 30.1144 10.9404 30.459C11.2687 30.8037 11.6954 31.0384 12.1621 31.1311V32.578C12.1621 32.9487 12.3092 33.3041 12.571 33.5662C12.8329 33.8283 13.188 33.9756 13.5583 33.9756H27.521C27.8913 33.9756 28.2464 33.8283 28.5083 33.5662C28.7701 33.3041 28.9172 32.9487 28.9172 32.578V31.1311C29.3839 31.0384 29.8106 30.8037 30.1389 30.459C30.4672 30.1144 30.6811 29.6767 30.7515 29.2057L31.141 26.6738C31.2009 26.2902 31.1555 25.8975 31.0098 25.5377C30.864 25.178 30.6234 24.8646 30.3135 24.631V22.7802C30.6041 22.5588 30.8394 22.2729 31.0009 21.945C31.1624 21.6171 31.2457 21.2563 31.2443 20.8907ZM29.1402 9.72328C29.2612 9.91897 29.3462 10.1348 29.391 10.3606C29.9941 13.8522 30.3027 17.3883 30.3135 20.9317C30.3135 21.3024 30.1664 21.6578 29.9045 21.9199C29.6427 22.182 29.2875 22.3293 28.9172 22.3293C28.7343 22.3292 28.5532 22.293 28.3842 22.2229C28.2153 22.1527 28.0618 22.0499 27.9325 21.9203C27.8033 21.7907 27.7008 21.6369 27.631 21.4677C27.5612 21.2985 27.5254 21.1171 27.5256 20.934C27.541 17.7159 27.5964 14.9315 27.689 12.6516C28.1646 11.6715 28.6483 10.6954 29.1402 9.72328ZM27.009 8.06298C27.0674 8.04354 27.129 8.03588 27.1904 8.04044C27.2517 8.045 27.3116 8.06169 27.3664 8.08954L28.1921 8.51859C28.2463 8.54593 28.2946 8.58375 28.3341 8.62985C28.3736 8.67595 28.4036 8.72943 28.4224 8.7872C28.4412 8.84497 28.4484 8.9059 28.4435 8.96645C28.4386 9.02701 28.4218 9.08601 28.3941 9.14004C27.2837 11.328 26.2165 13.5377 25.1929 15.7677L23.4969 14.9977C24.7731 12.2025 26.0754 9.59378 26.7381 8.28939C26.7661 8.23564 26.8045 8.18797 26.851 8.14911C26.8975 8.11026 26.9512 8.08099 27.009 8.06298ZM24.384 16.426C23.4499 18.4757 22.6512 20.5847 21.9932 22.7392C21.7328 22.58 21.448 22.4648 21.1503 22.3982C21.8123 20.2317 22.6078 18.1083 23.5323 16.0402L23.9079 16.2107L24.384 16.426ZM20.5396 26.5219C19.848 26.5219 19.2365 26.493 18.678 26.4469V25.1244C18.678 24.6302 18.8741 24.1562 19.2232 23.8067C19.5724 23.4573 20.0459 23.261 20.5396 23.261C21.0334 23.261 21.5069 23.4573 21.8561 23.8067C22.2052 24.1562 22.4013 24.6302 22.4013 25.1244V26.4469C21.8428 26.493 21.2313 26.5219 20.5396 26.5219ZM17.2719 16.1637L17.547 16.0388C18.4716 18.1075 19.2671 20.2315 19.929 22.3987C19.6313 22.466 19.3466 22.582 19.0866 22.742C18.4288 20.5864 17.6299 18.4765 16.6953 16.426L17.2719 16.1637ZM22.6243 15.3252C22.6538 15.4012 22.6934 15.473 22.742 15.5385C21.9074 17.3962 21.1722 19.2971 20.5396 21.2331C19.9075 19.2975 19.1728 17.3969 18.3387 15.5395C18.3873 15.4739 18.4269 15.4022 18.4564 15.3261C18.5 15.2113 18.5202 15.089 18.516 14.9663C18.5118 14.8436 18.4831 14.723 18.4318 14.6115L18.3033 14.332C19.0605 14.3785 19.8117 14.4098 20.5396 14.4098C21.2676 14.4098 22.0188 14.3785 22.776 14.332L22.6475 14.6115C22.5962 14.723 22.5675 14.8436 22.5633 14.9663C22.5591 15.089 22.5793 15.2113 22.6229 15.3261L22.6243 15.3252ZM25.8878 7.9018C24.971 9.71089 24.0821 11.534 23.2214 13.3704C21.4362 13.5069 19.6431 13.5069 17.8579 13.3704C16.9982 11.5334 16.1091 9.7103 15.191 7.9018C16.8891 7.2188 18.7106 6.89675 20.5396 6.95612C22.3686 6.89674 24.1899 7.21878 25.8878 7.9018ZM12.8891 8.51859L13.7156 8.08907C13.8256 8.03403 13.9526 8.02402 14.0699 8.06115C14.1871 8.09829 14.2852 8.17965 14.3435 8.28799C15.0063 9.59238 16.3085 12.2012 17.5847 14.9963L15.8887 15.7649C14.6288 13.0052 13.3419 10.4295 12.6875 9.14004C12.6598 9.08603 12.6429 9.02706 12.6381 8.96653C12.6332 8.90599 12.6403 8.84508 12.659 8.78731C12.6777 8.72954 12.7077 8.67606 12.7472 8.62994C12.7867 8.58382 12.8349 8.54597 12.8891 8.51859ZM11.6878 10.3624C11.7327 10.1361 11.8178 9.91958 11.9391 9.72328C12.431 10.6954 12.9147 11.6715 13.3903 12.6516C13.4834 14.9315 13.5383 17.7159 13.5537 20.934C13.5539 21.1171 13.5181 21.2985 13.4483 21.4677C13.3785 21.6369 13.276 21.7907 13.1468 21.9203C13.0175 22.0499 12.864 22.1527 12.6951 22.2229C12.5261 22.293 12.345 22.3292 12.1621 22.3293C11.9769 22.3283 11.7937 22.2908 11.6231 22.2187C11.4525 22.1466 11.2978 22.0414 11.168 21.9092C11.0382 21.7769 10.9359 21.6203 10.8668 21.4483C10.7978 21.2763 10.7635 21.0923 10.7658 20.907C10.7776 17.3725 11.086 13.8452 11.6878 10.3624ZM11.6966 23.2144C12.0346 23.2836 12.3836 23.2765 12.7185 23.1938C13.0534 23.1111 13.3656 22.9548 13.6326 22.7362C13.8995 22.5176 14.1145 22.2423 14.2619 21.9301C14.4092 21.618 14.4853 21.2769 14.4845 20.9317C14.4733 18.6444 14.4417 16.5792 14.3914 14.7517C14.6065 15.2106 14.8247 15.6806 15.043 16.1562C15.1109 16.3022 15.2156 16.428 15.3468 16.5212C15.4781 16.6143 15.6313 16.6716 15.7914 16.6873C16.8042 18.8712 17.6488 21.1294 18.3177 23.4422C17.9485 23.9252 17.748 24.5162 17.7471 25.1244V26.3477C15.3707 26.0216 14.4426 25.3186 14.1708 25.0596C13.6096 24.5054 12.8532 24.194 12.0648 24.1927C11.9411 24.1952 11.8179 24.2086 11.6966 24.2327V23.2144ZM27.9864 32.578C27.9864 32.7016 27.9374 32.8201 27.8501 32.9074C27.7628 32.9948 27.6444 33.0439 27.521 33.0439H13.5583C13.4349 33.0439 13.3165 32.9948 13.2292 32.9074C13.1419 32.8201 13.0929 32.7016 13.0929 32.578V31.1804H27.9864V32.578ZM18.678 30.2487C18.678 29.809 19.4743 29.317 20.5396 29.317C21.605 29.317 22.4013 29.809 22.4013 30.2487H18.678ZM30.2204 26.5322L29.8309 29.0636C29.7817 29.3941 29.6153 29.6958 29.362 29.9135C29.1088 30.1311 28.7856 30.2501 28.4518 30.2487H23.3322C23.3322 29.2038 22.1053 28.3853 20.5396 28.3853C18.974 28.3853 17.7471 29.2038 17.7471 30.2487H12.6275C12.2935 30.2504 11.9702 30.1314 11.7167 29.9138C11.4632 29.6961 11.2967 29.3943 11.2475 29.0636L10.8589 26.5322C10.832 26.3581 10.843 26.1802 10.8912 26.0108C10.9394 25.8414 11.0237 25.6844 11.1381 25.5506C11.2587 25.4123 11.4082 25.3024 11.5762 25.2287C11.7441 25.155 11.9262 25.1194 12.1095 25.1244C12.6421 25.1351 13.1498 25.3522 13.5258 25.73C14.0638 26.2489 15.8245 27.4536 20.5396 27.4536C25.2548 27.4536 27.0155 26.2489 27.5535 25.73C27.9419 25.3435 28.4669 25.1259 29.0145 25.1244C29.1904 25.1246 29.3642 25.1629 29.524 25.2366C29.6837 25.3103 29.8257 25.4176 29.9402 25.5513C30.0547 25.6849 30.139 25.8418 30.1874 26.0111C30.2358 26.1804 30.247 26.3581 30.2204 26.5322ZM29.3827 24.2351C29.2466 24.2088 29.1084 24.1946 28.9698 24.1927C28.1964 24.2031 27.4572 24.514 26.9085 25.0596C26.639 25.3186 25.7086 26.0197 23.3322 26.3477V25.1244C23.3324 24.5146 23.1326 23.9216 22.7634 23.4366C23.4316 21.125 24.2753 18.8679 25.2869 16.685C25.4471 16.6692 25.6003 16.612 25.7315 16.5188C25.8628 16.4257 25.9675 16.2999 26.0353 16.1539C26.2522 15.6783 26.4705 15.2082 26.6869 14.7494C26.6333 16.809 26.6023 18.8691 26.5938 20.9294C26.5928 21.2749 26.6687 21.6162 26.8159 21.9287C26.9632 22.2412 27.1783 22.5168 27.4454 22.7357C27.7125 22.9545 28.0249 23.1111 28.36 23.1939C28.6951 23.2767 29.0445 23.2837 29.3827 23.2144V24.2351Z" fill="#28CB47"/>
</svg>
