<svg width="16" height="16" viewBox="0 0 16 16" fill="none" xmlns="http://www.w3.org/2000/svg">
<g clip-path="url(#clip0_5462_12725)">
<path d="M7.64156 0.0349506C8.11495 -0.060423 8.62335 0.0402005 9.02236 0.310571C9.42751 0.580942 9.71802 1.01756 9.80377 1.49705C9.8974 1.9853 9.78014 2.51029 9.48613 2.91103C9.1965 3.31265 8.73798 3.58827 8.24621 3.65214C7.75707 3.72039 7.24255 3.5804 6.85753 3.27065C6.48477 2.97665 6.23626 2.53304 6.18025 2.06142C6.12075 1.5933 6.24938 1.10418 6.53552 0.728815C6.8024 0.372695 7.20317 0.119824 7.64069 0.0349506H7.64156Z" fill="#B0CB1F"/>
<path d="M7.67624 12.3591C8.14438 12.2742 8.64402 12.3801 9.03604 12.6513C9.44118 12.9269 9.72907 13.3706 9.80869 13.8553C9.9032 14.3908 9.74219 14.9639 9.3808 15.3699C9.07892 15.719 8.6414 15.9465 8.18201 15.9903C7.70249 16.0401 7.20547 15.8905 6.83533 15.5817C6.47306 15.2859 6.2333 14.8467 6.17993 14.382C6.1213 13.9069 6.25781 13.4108 6.55444 13.0346C6.82833 12.6811 7.23609 12.4352 7.67624 12.3591ZM4.54624 3.1201C4.99776 3.0256 5.48253 3.1096 5.87454 3.35197C6.30506 3.61359 6.61919 4.05896 6.71545 4.5542C6.81695 5.04507 6.70495 5.57531 6.41181 5.98218C6.13005 6.38117 5.68116 6.65854 5.19639 6.72942C4.69762 6.80816 4.16822 6.66904 3.77446 6.3523C3.38594 6.04518 3.13043 5.57531 3.08931 5.08094C3.04731 4.62682 3.18294 4.15783 3.46382 3.79821C3.72896 3.45347 4.11922 3.20672 4.54536 3.11922L4.54624 3.1201ZM10.6942 3.1236C11.1379 3.02647 11.6165 3.10172 12.0077 3.33184C12.4627 3.59609 12.7952 4.06421 12.8871 4.58307C12.9746 5.04682 12.8739 5.54206 12.6106 5.93318C12.327 6.3628 11.8536 6.66292 11.3426 6.73204C10.8692 6.80116 10.3705 6.67517 9.9872 6.38817C9.60131 6.10293 9.33705 5.66018 9.26967 5.18594C9.19967 4.7222 9.31605 4.2322 9.59081 3.85159C9.85245 3.48322 10.2541 3.2181 10.696 3.1236H10.6942ZM1.42762 6.21055C1.85551 6.11343 2.31753 6.17467 2.70342 6.3838C3.16806 6.63229 3.51632 7.08991 3.62658 7.60615C3.72371 8.04277 3.6537 8.51526 3.4297 8.90376C3.17331 9.35525 2.71917 9.69124 2.20902 9.79537C1.74001 9.89512 1.23336 9.80062 0.832595 9.53637C0.44758 9.28438 0.159693 8.88626 0.0520642 8.43826C-0.0660654 7.96577 0.0153128 7.4469 0.274323 7.03391C0.529833 6.62179 0.953349 6.31642 1.42674 6.21142L1.42762 6.21055ZM7.60273 6.2088C8.06388 6.10555 8.56352 6.18955 8.96516 6.43979C9.3633 6.68479 9.66344 7.08729 9.77719 7.5414C9.90757 8.04189 9.81394 8.59576 9.52256 9.02275C9.22942 9.46112 8.74115 9.76212 8.21613 9.82162C7.73136 9.88199 7.22559 9.73587 6.84758 9.427C6.47481 9.12863 6.22893 8.67976 6.17818 8.20464C6.12743 7.76277 6.24293 7.30428 6.50107 6.94116C6.76095 6.57192 7.16084 6.30417 7.60273 6.2088ZM13.749 6.21405C14.1769 6.11342 14.6398 6.17205 15.0274 6.3803C15.4439 6.60079 15.7703 6.98754 15.9129 7.43728C16.0722 7.92727 16.0118 8.48551 15.7484 8.92826C15.5122 9.33162 15.1175 9.63874 14.6678 9.76474C14.2635 9.88024 13.8207 9.85049 13.4357 9.68162C12.9553 9.47337 12.5712 9.04988 12.4163 8.54851C12.2675 8.08214 12.3174 7.55628 12.5528 7.12578C12.7987 6.67079 13.2441 6.32867 13.749 6.21317V6.21405ZM4.65387 9.26775C5.15001 9.19425 5.67328 9.33425 6.06355 9.65012C6.44681 9.95287 6.69795 10.4149 6.74345 10.9014C6.79595 11.408 6.62445 11.9321 6.28231 12.3092C5.94804 12.6846 5.45278 12.9094 4.95051 12.9156C4.45786 12.9269 3.96434 12.7274 3.61783 12.3766C3.29319 12.0546 3.09806 11.6075 3.08318 11.1498C3.06306 10.6791 3.23544 10.204 3.55308 9.85662C3.83659 9.53987 4.23298 9.32637 4.65387 9.26775ZM10.7984 9.27038C11.2709 9.196 11.7714 9.31413 12.1582 9.59675C12.5511 9.87937 12.8249 10.3221 12.8949 10.8016C12.9754 11.31 12.8293 11.8481 12.5012 12.2445C12.1993 12.6163 11.7451 12.8596 11.2683 12.9059C10.836 12.9514 10.3897 12.8368 10.0336 12.5874C9.61531 12.2996 9.3283 11.8297 9.26355 11.3257C9.19617 10.8392 9.33443 10.3282 9.64156 9.94499C9.92332 9.58537 10.3451 9.33862 10.7975 9.2695L10.7984 9.27038Z" fill="#E51A4B"/>
</g>
<defs>
<clipPath id="clip0_5462_12725">
<rect width="16" height="16" fill="white"/>
</clipPath>
</defs>
</svg>
