<svg width="41" height="40" viewBox="0 0 41 40" fill="none" xmlns="http://www.w3.org/2000/svg">
<g clip-path="url(#clip0_7187_5314)">
<path d="M33.1917 12.0256H22.6587C22.4056 10.8553 21.3302 9.93799 20.0966 9.93799C18.8314 9.93799 17.7876 10.8236 17.5345 12.0256H7.85549C7.53918 12.0256 7.28613 12.2787 7.28613 12.595C7.28613 12.9113 7.53918 13.1643 7.85549 13.1643H17.5029C17.7559 14.3347 18.8314 15.252 20.065 15.252C21.3302 15.252 22.374 14.3663 22.6271 13.1643H33.1917C33.508 13.1643 33.7611 12.9113 33.7611 12.595C33.7611 12.2787 33.508 12.0256 33.1917 12.0256ZM20.0966 14.1449C19.2742 14.1449 18.5783 13.4806 18.5783 12.6266C18.5783 11.7726 19.2426 11.1083 20.0966 11.1083C20.919 11.1083 21.6149 11.7726 21.6149 12.6266C21.6149 13.449 20.9506 14.1449 20.0966 14.1449ZM33.2234 19.8384H17.2498C16.9968 18.6681 15.9213 17.7508 14.6877 17.7508C13.4225 17.7508 12.3787 18.6365 12.1256 19.8384H7.85549C7.53918 19.8384 7.28613 20.0915 7.28613 20.4078C7.28613 20.7241 7.53918 20.9771 7.85549 20.9771H12.1256C12.3787 22.1475 13.4541 23.0648 14.6877 23.0648C15.953 23.0648 16.9968 22.1791 17.2498 20.9771H33.2234C33.5397 20.9771 33.7927 20.7241 33.7927 20.4078C33.7927 20.0915 33.5397 19.8384 33.2234 19.8384ZM14.6877 21.9261C13.8653 21.9261 13.1695 21.2618 13.1695 20.4078C13.1695 19.5854 13.8653 18.8895 14.6877 18.8895C15.5101 18.8895 16.206 19.5537 16.206 20.4078C16.206 21.2302 15.5418 21.9261 14.6877 21.9261ZM33.1917 27.6196H28.2257C27.9727 26.4493 26.8972 25.532 25.6636 25.532C24.3984 25.532 23.3546 26.4176 23.1015 27.6196H7.85549C7.53918 27.6196 7.28613 27.8726 7.28613 28.1889C7.28613 28.5053 7.53918 28.7583 7.85549 28.7583H23.0699C23.3229 29.9286 24.3984 30.8459 25.632 30.8459C26.8972 30.8459 27.941 29.9603 28.1941 28.7583H33.1917C33.508 28.7583 33.7611 28.5053 33.7611 28.1889C33.7611 27.8726 33.508 27.6196 33.1917 27.6196ZM25.632 29.7389C24.8096 29.7389 24.1137 29.0746 24.1137 28.2206C24.1137 27.3665 24.8096 26.7023 25.632 26.7023C26.4544 26.7023 27.1503 27.3665 27.1503 28.2206C27.1503 29.0746 26.486 29.7389 25.632 29.7389Z" fill="#28CB47"/>
</g>
<defs>
<clipPath id="clip0_7187_5314">
<rect width="26.5066" height="26.5066" fill="white" transform="translate(7.28613 7.13867)"/>
</clipPath>
</defs>
</svg>
