<svg width="41" height="40" viewBox="0 0 41 40" fill="none" xmlns="http://www.w3.org/2000/svg">
<g clip-path="url(#clip0_7187_5302)">
<path d="M35.4829 7.80757C35.4353 7.69257 35.3546 7.59426 35.251 7.52509C35.1474 7.45591 35.0256 7.41897 34.9009 7.41895C10.4564 7.41895 7.81738 17.5332 7.81738 21.8823C7.81738 27.5242 12.1205 31.3149 18.5248 31.3149C26.6133 31.3149 28.3076 23.6304 29.2184 19.5027C30.4428 13.945 33.1373 10.7002 35.3469 8.49297C35.435 8.40506 35.4951 8.29297 35.5193 8.17093C35.5435 8.04888 35.5309 7.92241 35.4829 7.80757ZM27.9877 19.2324C26.8325 24.4694 25.0551 30.0572 18.5248 30.0572C12.8738 30.0572 9.07706 26.7722 9.07706 21.8823C9.07706 17.9973 11.4856 9.07402 33.4144 8.68917C31.3322 10.9769 29.0937 14.2079 27.9877 19.2324Z" fill="#28CB47"/>
<path d="M25.3902 14.0615C25.2378 13.7496 24.8611 13.62 24.5487 13.7697C14.3111 18.7225 7.81738 30.7195 7.81738 34.4586C7.81738 34.8057 8.09958 35.0875 8.44725 35.0875C8.79493 35.0875 9.07712 34.8057 9.07712 34.4586C9.07712 31.5194 14.7596 19.9034 25.098 14.9016C25.4103 14.7495 25.5413 14.3734 25.3902 14.0615Z" fill="#28CB47"/>
</g>
<defs>
<clipPath id="clip0_7187_5302">
<rect width="30" height="32" fill="white" transform="translate(5.34619 3)"/>
</clipPath>
</defs>
</svg>
