<svg width="41" height="40" viewBox="0 0 41 40" fill="none" xmlns="http://www.w3.org/2000/svg">
<g clip-path="url(#clip0_7187_5308)">
<path d="M29.8291 19.9743C31.412 19.9743 31.5989 21.0736 32.253 20.7713C32.7147 20.568 32.5773 20.8428 32.5773 11.7296C32.5773 11.5838 32.5194 11.444 32.4163 11.3409C32.3132 11.2379 32.1734 11.1799 32.0277 11.1799H24.5084C24.8666 10.4257 24.9697 9.57534 24.8022 8.75733C24.6346 7.93931 24.2055 7.19801 23.5795 6.64533C20.485 3.89708 15.7745 7.42583 17.5609 11.1799H12.2403C12.0945 11.1799 11.9547 11.2379 11.8516 11.3409C11.7485 11.444 11.6906 11.5838 11.6906 11.7296V19.2488C10.9363 18.8906 10.086 18.7875 9.268 18.9551C8.44999 19.1227 7.70869 19.5518 7.15601 20.1777C4.40776 23.2997 7.9475 27.9772 11.6906 26.2239V31.517C11.6906 31.6628 11.7485 31.8026 11.8516 31.9056C11.9547 32.0087 12.0945 32.0666 12.2403 32.0666H18.5832C18.6894 32.0664 18.7933 32.0354 18.8822 31.9773C18.9712 31.9193 19.0414 31.8368 19.0845 31.7397C19.1275 31.6426 19.1414 31.5351 19.1247 31.4302C19.1079 31.3253 19.0611 31.2276 18.99 31.1487C18.712 30.8271 18.5124 30.4454 18.4069 30.0336C18.3015 29.6219 18.2929 29.1912 18.382 28.7756C18.4711 28.36 18.6554 27.9707 18.9204 27.6383C19.1854 27.306 19.5239 27.0396 19.9092 26.8602C20.2946 26.6808 20.7163 26.5932 21.1412 26.6043C21.5661 26.6154 21.9827 26.725 22.3581 26.9244C22.7335 27.1237 23.0576 27.4074 23.3048 27.7532C23.5521 28.099 23.7157 28.4974 23.7829 28.9171C24.0412 30.753 22.6836 31.0443 23.0134 31.7423C23.2168 32.204 22.9419 32.0666 32.0551 32.0666C32.2009 32.0666 32.3407 32.0087 32.4438 31.9056C32.5469 31.8026 32.6048 31.6628 32.6048 31.517V25.174C32.6045 25.0678 32.5735 24.964 32.5155 24.875C32.4575 24.7861 32.3749 24.7158 32.2778 24.6728C32.1807 24.6298 32.0732 24.6158 31.9684 24.6326C31.8635 24.6493 31.7657 24.6961 31.6869 24.7673C31.3559 25.0645 30.9578 25.2769 30.5267 25.3863C30.0955 25.4957 29.6443 25.4988 29.2117 25.3954C28.7791 25.292 28.378 25.0851 28.043 24.7926C27.7079 24.5 27.4489 24.1305 27.2882 23.7158C27.1274 23.301 27.0697 22.8535 27.12 22.4115C27.1704 21.9696 27.3272 21.5465 27.5771 21.1785C27.827 20.8105 28.1625 20.5087 28.5547 20.299C28.947 20.0892 29.3843 19.9778 29.8291 19.9743ZM26.9434 20.1777C24.1951 23.2997 27.7349 27.9772 31.478 26.2239V30.9673H24.5084C26.2948 27.2132 21.6063 23.6845 18.4898 26.4327C17.8639 26.9854 17.4347 27.7267 17.2672 28.5447C17.0996 29.3627 17.2027 30.2131 17.5609 30.9673H12.7899V25.174C12.7897 25.0678 12.7587 24.964 12.7006 24.875C12.6426 24.7861 12.56 24.7158 12.4629 24.6728C12.3658 24.6298 12.2584 24.6158 12.1535 24.6326C12.0486 24.6493 11.9508 24.6961 11.872 24.7673C11.5402 25.0653 11.1409 25.278 10.7085 25.3872C10.2761 25.4964 9.82359 25.4987 9.3901 25.3939C8.9566 25.2892 8.55512 25.0805 8.2203 24.7859C7.88548 24.4913 7.62738 24.1196 7.46828 23.703C7.30917 23.2864 7.25385 22.8373 7.30709 22.3945C7.36032 21.9517 7.52051 21.5286 7.77383 21.1615C8.02715 20.7945 8.36598 20.4946 8.76109 20.2878C9.15619 20.0809 9.5957 19.9734 10.0417 19.9743C11.6247 19.9743 11.8115 21.0736 12.4656 20.7713C12.9218 20.568 12.7899 20.8098 12.7899 12.2792C18.88 12.2792 18.8855 12.4112 19.0834 11.9549C19.3912 11.2624 18.0556 10.9931 18.3139 9.12975C18.3758 8.70543 18.5361 8.30148 18.7821 7.95021C19.028 7.59893 19.3527 7.31009 19.7303 7.10677C20.1078 6.90345 20.5277 6.7913 20.9564 6.77928C21.385 6.76727 21.8105 6.85572 22.1989 7.03758C22.5872 7.21943 22.9276 7.48963 23.1928 7.82658C23.4581 8.16352 23.6408 8.55786 23.7263 8.97804C23.8119 9.39823 23.798 9.83261 23.6856 10.2464C23.5733 10.6603 23.3657 11.0421 23.0794 11.3613C23.0082 11.4402 22.9614 11.5379 22.9446 11.6428C22.9279 11.7477 22.9418 11.8552 22.9849 11.9523C23.0279 12.0494 23.0981 12.1319 23.1871 12.1899C23.276 12.248 23.3799 12.279 23.4861 12.2792H31.478V19.2488C30.7237 18.8906 29.8734 18.7875 29.0554 18.9551C28.2374 19.1227 27.4961 19.5518 26.9434 20.1777Z" fill="#28CB47"/>
</g>
<defs>
<clipPath id="clip0_7187_5308">
<rect width="26.3832" height="26.3832" fill="white" transform="translate(6.19434 5.68359)"/>
</clipPath>
</defs>
</svg>
