<svg width="48" height="48" viewBox="0 0 48 48" fill="none" xmlns="http://www.w3.org/2000/svg">
<rect width="48" height="48" rx="24" fill="url(#paint0_linear_5329_2427)"/>
<path d="M15.8808 30.4H13.3566L9.59961 17.6028H11.8954L14.6832 27.6035L17.6993 17.6028H19.7111L22.7068 27.6035L25.4945 17.6028H27.7903L24.0333 30.4H21.5091L18.7008 21.0596L15.875 30.4H15.8808ZM36.5401 23.7629C37.6968 24.3471 38.3996 25.4081 38.3996 26.7428C38.3996 27.7841 38.0189 28.6617 37.2429 29.3559C36.464 30.0501 35.5357 30.3972 34.4171 30.3972H28.7274V17.6H34.0013C35.0818 17.6 36.013 17.9471 36.751 18.6243C37.5094 19.3016 37.8901 20.1425 37.8901 21.1471C37.8901 22.2617 37.4362 23.1224 36.5431 23.7601L36.5401 23.7629ZM33.9984 19.5781H30.906V22.9418H33.9984C34.9647 22.9418 35.7056 22.2109 35.7056 21.2599C35.7056 20.309 34.9647 19.5781 33.9984 19.5781ZM30.906 28.4247H34.4142C35.4186 28.4247 36.2151 27.6374 36.2151 26.6328C36.2151 25.6282 35.4186 24.8409 34.4142 24.8409H30.906V28.4247Z" fill="white"/>
<defs>
<linearGradient id="paint0_linear_5329_2427" x1="48" y1="0" x2="0" y2="48" gradientUnits="userSpaceOnUse">
<stop stop-color="#491174"/>
<stop offset="1" stop-color="#CC11AC"/>
</linearGradient>
</defs>
</svg>
