<svg width="48" height="48" viewBox="0 0 48 48" fill="none" xmlns="http://www.w3.org/2000/svg">
<g clip-path="url(#clip0_5329_2433)">
<mask id="mask0_5329_2433" style="mask-type:luminance" maskUnits="userSpaceOnUse" x="0" y="0" width="48" height="48">
<path d="M24 48C10.7453 48 0 37.2539 0 24.0017C0 10.7495 10.7453 0 24 0C37.2547 0 48 10.7461 48 24.0017C47.9966 37.2539 37.2513 48 24 48Z" fill="white"/>
</mask>
<g mask="url(#mask0_5329_2433)">
<path d="M47.9966 0H0V48H47.9966V0Z" fill="#005BFF"/>
</g>
<mask id="mask1_5329_2433" style="mask-type:luminance" maskUnits="userSpaceOnUse" x="0" y="0" width="48" height="48">
<path d="M24 48C10.7453 48 0 37.2539 0 24.0017C0 10.7495 10.7453 0 24 0C37.2547 0 48 10.7461 48 24.0017C47.9966 37.2539 37.2513 48 24 48Z" fill="white"/>
</mask>
<g mask="url(#mask1_5329_2433)">
<path d="M53.3052 41.1249C49.6583 44.4056 45.4539 49.2476 40.1727 49.057C38.7511 48.0989 40.9994 46.2311 41.72 45.4227C44.0218 42.8403 46.2931 40.0838 48.5306 37.2742C56.5799 27.1672 53.9449 32.801 53.3055 41.1249H53.3052Z" fill="#F1117E"/>
<path d="M8.7803 2.54C6.63666 4.8091 4.54381 7.08159 2.44758 9.39811C1.30634 10.6647 0.276846 12.0296 -0.850853 13.3165C-2.86581 15.6161 -4.95188 17.8886 -7.33258 19.7682C-9.74714 21.6716 -12.3446 23.5952 -14.8065 25.4376C-14.8133 25.2988 -15.1046 18.8437 -15.1113 18.698C-14.0683 16.9302 -13.0185 14.9286 -12.243 13.0084C-11.7858 11.8738 -11.3828 10.6817 -10.9222 9.54712C-10.0418 7.36269 -8.88697 5.36452 -7.18696 3.77276C-6.23874 2.88205 -5.1483 2.25212 -4.02737 1.65267C-0.664596 -0.149061 2.6948 -1.98128 6.06434 -3.76608C8.07253 -4.8329 9.59306 -6.69221 11.3845 -8.0977L18.4927 -8.41943C15.2654 -4.74484 12.1431 -1.01945 8.7803 2.54Z" fill="#F1117E"/>
<path d="M20.1831 27.5763L16.0245 28.6905L19.4513 20.2376C19.5264 20.049 19.4347 19.8353 19.246 19.7598C19.1732 19.7306 19.093 19.7259 19.0171 19.7455L11.3339 21.8043C10.6556 21.9862 10.2532 22.6832 10.4348 23.3615C10.6166 24.0399 11.3135 24.4422 11.9919 24.2607L15.4467 23.3348L12.001 31.7962C11.9231 31.9814 12.0101 32.1951 12.1954 32.273C12.2712 32.3049 12.3559 32.3103 12.4351 32.2879L20.8417 30.0351C21.5096 29.8183 21.8753 29.1014 21.6586 28.4335C21.4578 27.8141 20.8214 27.4469 20.1848 27.5824L20.1831 27.5756V27.5763ZM44.9972 12.7841C44.3189 12.966 43.9166 13.663 44.0981 14.3413L45.2017 18.4603L37.1527 14.9716C36.9692 14.889 36.7538 14.9709 36.6712 15.1545C36.6363 15.2321 36.6299 15.3191 36.6526 15.4011L38.9212 23.8682C39.103 24.5466 39.7999 24.9489 40.4783 24.767C41.1566 24.5852 41.5589 23.8882 41.3774 23.2098L40.2737 19.0909L48.3237 22.5829C48.5107 22.6625 48.7264 22.5758 48.806 22.3889C48.8381 22.3134 48.8442 22.2294 48.8232 22.1501L46.5546 13.683C46.3728 13.0046 45.6758 12.6023 44.9975 12.7838M29.5348 25.3194C26.7271 26.0719 24.2296 25.1545 23.8747 23.8303C23.5198 22.5061 25.2242 20.4628 28.0319 19.7103C30.8397 18.9578 33.3372 19.8753 33.6921 21.1995C34.047 22.5237 32.3494 24.5652 29.5348 25.3194ZM27.3746 17.2573C23.3091 18.3468 20.6436 21.5832 21.4219 24.4873C22.2001 27.3914 26.1264 28.8616 30.1918 27.7721C34.2573 26.6826 36.9225 23.4462 36.1442 20.5421C35.366 17.638 31.4401 16.1678 27.3743 17.2573M5.36417 31.7999C3.81418 32.2171 2.21915 31.299 1.80159 29.7486C1.38438 28.1981 2.30279 26.6033 3.85279 26.1857C5.40278 25.7685 6.99781 26.6866 7.41537 28.2371L7.41638 28.2405C7.83156 29.7899 6.91315 31.383 5.36417 31.7999ZM3.20326 23.7344C0.297657 24.511 -1.42843 27.4964 -0.651912 30.4022C0.124608 33.3083 3.10979 35.0342 6.01573 34.2576C8.92133 33.4811 10.6474 30.4957 9.8709 27.5895L9.86921 27.5828C9.09133 24.6793 6.10683 22.9562 3.2036 23.7341" fill="white"/>
</g>
</g>
<defs>
<clipPath id="clip0_5329_2433">
<rect width="48" height="48" fill="white"/>
</clipPath>
</defs>
</svg>
