<svg width="48" height="48" viewBox="0 0 48 48" fill="none" xmlns="http://www.w3.org/2000/svg">
<rect width="48" height="48" rx="24" fill="#00B33C"/>
<g clip-path="url(#clip0_5329_2471)">
<path fill-rule="evenodd" clip-rule="evenodd" d="M10.4238 26.9182H8.65581C5.89782 26.9182 7.9015 20.8548 10.2234 20.8548H13.0168C13.4646 20.8548 14.2543 20.9402 14.6433 19.7934L15.2444 18.0122L11.4138 18.0122C9.33944 18.0122 7.72469 18.7686 6.55785 20.0374C4.54239 22.209 3.85878 25.6006 4.34202 27.2232C4.80169 28.7238 6.05104 29.712 8.00756 29.7364L9.52801 29.7486H11.402L11.8617 28.3212C12.2035 27.3086 11.4374 26.9182 10.4238 26.9182ZM31.9456 24.405L32.5231 22.4652H26.3589C25.3335 22.4652 24.8738 22.758 24.697 23.368L24.1195 25.3078H30.2837C31.3091 25.3078 31.7688 25.015 31.9456 24.405ZM23.2002 27.821L22.6226 29.7608H28.7869C29.8005 29.7608 30.2719 29.468 30.4488 28.858L31.0263 26.9182H24.862C23.8484 26.9182 23.3887 27.211 23.2002 27.821ZM33.3835 19.9642L33.9612 18.0244H27.7968C26.7714 18.0244 26.3117 18.3172 26.135 18.9272L25.5574 20.867H31.7217C32.7354 20.867 33.1949 20.5742 33.3835 19.9642ZM24.0724 20.3546C23.813 18.549 22.8819 18.0244 20.6189 18.0244H16.4937L14.0893 25.3078H15.6098C16.5173 25.3078 16.977 25.32 17.4602 23.978L18.4621 20.8548H19.9943C21.3026 20.8548 21.0079 22.5506 20.3479 24.1976C19.7586 25.6494 18.7331 26.9304 17.4956 26.9304H14.9379C13.9125 26.9304 13.4411 27.2232 13.2525 27.8332L12.616 29.773H14.4901L16.3287 29.7608C17.9552 29.7486 19.2871 29.6266 20.8429 28.1748C22.493 26.6254 24.4024 22.6482 24.0724 20.3546ZM44.7928 18.0122H41.2216L37.8624 21.7088C37.4733 22.1358 37.0727 22.5628 36.6836 23.063H36.6482L38.3219 18.0122L35.4109 18.0122L31.4859 29.7608L34.3972 29.7608L35.6464 26.0642L36.9429 24.9296L37.9684 28.2724C38.2865 29.3094 38.6168 29.7608 39.324 29.7608H41.5516L39.2649 23.1972L44.7928 18.0122Z" fill="white"/>
</g>
<defs>
<clipPath id="clip0_5329_2471">
<rect width="41" height="12" fill="white" transform="translate(4 18)"/>
</clipPath>
</defs>
</svg>
