<svg width="48" height="48" viewBox="0 0 48 48" fill="none" xmlns="http://www.w3.org/2000/svg">
<rect width="48" height="48" rx="24" fill="#E51A4B"/>
<g clip-path="url(#clip0_5329_2471)">
<path d="M23.3291 9.06562C24.2168 8.8868 25.17 9.07547 25.9182 9.58241C26.6778 10.0894 27.2225 10.908 27.3833 11.8071C27.5588 12.7225 27.339 13.7069 26.7877 14.4583C26.2447 15.2113 25.3849 15.7281 24.4629 15.8479C23.5457 15.9758 22.581 15.7133 21.8591 15.1326C21.1602 14.5813 20.6942 13.7495 20.5892 12.8653C20.4776 11.9875 20.7188 11.0704 21.2553 10.3666C21.7557 9.6989 22.5072 9.22476 23.3275 9.06562H23.3291Z" fill="#B0CB1F"/>
<path d="M23.3948 32.1735C24.2725 32.0144 25.2094 32.2129 25.9444 32.7215C26.704 33.2383 27.2438 34.0701 27.3931 34.979C27.5703 35.983 27.2684 37.0576 26.5908 37.8188C26.0248 38.4734 25.2045 38.9 24.3431 38.982C23.444 39.0755 22.5121 38.795 21.8181 38.2159C21.1388 37.6613 20.6893 36.8378 20.5892 35.9666C20.4793 35.0758 20.7352 34.1455 21.2914 33.4401C21.8049 32.7773 22.5695 32.3163 23.3948 32.1735ZM17.526 14.8504C18.3726 14.6733 19.2816 14.8308 20.0166 15.2852C20.8238 15.7757 21.4128 16.6108 21.5933 17.5394C21.7836 18.4598 21.5736 19.454 21.024 20.2168C20.4957 20.965 19.654 21.485 18.7451 21.6179C17.8099 21.7656 16.8173 21.5047 16.0789 20.9108C15.3505 20.335 14.8714 19.454 14.7943 18.527C14.7155 17.6756 14.9698 16.7962 15.4965 16.1219C15.9936 15.4755 16.7254 15.0129 17.5244 14.8488L17.526 14.8504ZM29.0535 14.857C29.8853 14.6749 30.7828 14.816 31.5162 15.2475C32.3693 15.7429 32.9928 16.6206 33.1651 17.5935C33.3291 18.463 33.1405 19.3916 32.6466 20.125C32.115 20.9305 31.2274 21.4932 30.2693 21.6228C29.3816 21.7524 28.4465 21.5162 27.7278 20.9781C27.0043 20.4432 26.5088 19.6131 26.3825 18.7239C26.2512 17.8544 26.4694 16.9356 26.9846 16.222C27.4752 15.5313 28.2282 15.0342 29.0568 14.857H29.0535ZM11.6786 20.645C12.4809 20.4629 13.3472 20.5778 14.0707 20.9699C14.9419 21.4358 15.5949 22.2938 15.8017 23.2618C15.9838 24.0805 15.8525 24.9664 15.4325 25.6948C14.9518 26.5414 14.1003 27.1713 13.1437 27.3666C12.2643 27.5536 11.3144 27.3764 10.5629 26.881C9.84104 26.4085 9.30126 25.662 9.09945 24.822C8.87796 23.9361 9.03054 22.9632 9.51619 22.1888C9.99527 21.4161 10.7894 20.8435 11.677 20.6467L11.6786 20.645ZM23.257 20.6418C24.1216 20.4482 25.0584 20.6057 25.8115 21.0749C26.558 21.5342 27.1208 22.2889 27.3341 23.1404C27.5785 24.0788 27.403 25.1173 26.8566 25.9179C26.307 26.7399 25.3915 27.3042 24.4071 27.4158C23.4981 27.529 22.5498 27.255 21.841 26.6759C21.1421 26.1164 20.6811 25.2748 20.5859 24.384C20.4908 23.5555 20.7073 22.6958 21.1913 22.0149C21.6786 21.3226 22.4284 20.8206 23.257 20.6418ZM34.7812 20.6516C35.5835 20.4629 36.4514 20.5729 37.1782 20.9633C37.9592 21.3767 38.5711 22.1019 38.8386 22.9452C39.1372 23.8639 39.024 24.9106 38.5301 25.7407C38.0871 26.4971 37.3472 27.0729 36.5039 27.3092C35.7459 27.5257 34.9157 27.4699 34.1938 27.1533C33.293 26.7628 32.5728 25.9688 32.2824 25.0287C32.0035 24.1543 32.097 23.1683 32.5383 22.3611C32.9994 21.508 33.8345 20.8665 34.7812 20.65V20.6516ZM17.7278 26.3773C18.6581 26.2395 19.6392 26.502 20.371 27.0942C21.0896 27.6619 21.5605 28.5281 21.6458 29.4403C21.7442 30.3902 21.4227 31.3729 20.7812 32.08C20.1544 32.7838 19.2258 33.2055 18.284 33.217C17.3603 33.2383 16.435 32.8642 15.7853 32.2063C15.1766 31.6026 14.8107 30.7643 14.7828 29.9062C14.7451 29.0236 15.0683 28.1327 15.6638 27.4814C16.1954 26.8875 16.9387 26.4872 17.7278 26.3773ZM29.2488 26.3822C30.1347 26.2428 31.0732 26.4642 31.7984 26.9942C32.535 27.5241 33.0486 28.3542 33.1798 29.2533C33.3308 30.2065 33.0568 31.2154 32.4415 31.9586C31.8755 32.6559 31.024 33.112 30.1298 33.1989C29.3193 33.2842 28.4825 33.0693 27.8148 32.6017C27.0305 32.062 26.4924 31.181 26.371 30.236C26.2447 29.3238 26.5039 28.3657 27.0798 27.6471C27.6081 26.9728 28.3989 26.5102 29.2471 26.3806L29.2488 26.3822Z" fill="white"/>
</g>
<defs>
<clipPath id="clip0_5329_2471">
<rect width="30" height="30" fill="white" transform="translate(9 9)"/>
</clipPath>
</defs>
</svg>
