<svg width="34" height="35" viewBox="0 0 34 35" fill="none" xmlns="http://www.w3.org/2000/svg">
<g clip-path="url(#clip0_7150_13179)">
<path d="M17 0C7.61148 0 0 7.70545 0 17.2099C0 26.7143 7.61148 34.4198 17 34.4198C26.3885 34.4198 34 26.7143 34 17.2099C34 7.70545 26.3885 0 17 0ZM17 32.8137C8.48738 32.8137 1.58645 25.8276 1.58645 17.2099C1.58645 8.59216 8.48738 1.60603 17 1.60603C25.5126 1.60603 32.4136 8.59216 32.4136 17.2099C32.4136 25.8276 25.5126 32.8137 17 32.8137Z" fill="white"/>
<path d="M10.9443 16.8858H17.8632V18.9133H10.9443V16.8858ZM10.9443 20.4918H17.8632V22.5207H10.9443V20.4918ZM12.7307 9.61328H14.8371V24.8064H12.7307V9.61328ZM13.8124 16.8858H18.6136C19.0343 16.8943 19.4487 16.7819 19.8089 16.5618C20.1581 16.3402 20.4361 16.0207 20.6091 15.6421C20.7965 15.2086 20.8933 14.7405 20.8933 14.2673C20.8933 13.7941 20.7965 13.3261 20.6091 12.8926C20.4366 12.5133 20.1605 12.1919 19.8136 11.9662C19.4545 11.7428 19.0396 11.6285 18.6182 11.6368H13.8124V9.61328H18.5419C19.4366 9.61328 20.2246 9.80667 20.9059 10.1934C21.5795 10.5719 22.1302 11.1401 22.4911 11.8291C22.866 12.5331 23.0535 13.3486 23.0535 14.2754C23.0535 15.2022 22.866 16.0157 22.4911 16.7157C22.1298 17.4018 21.579 17.9667 20.9059 18.3412C20.2246 18.7244 19.4366 18.916 18.5419 18.916H13.8124V16.8858Z" fill="white"/>
</g>
<defs>
<clipPath id="clip0_7150_13179">
<rect width="34" height="34.4198" fill="white"/>
</clipPath>
</defs>
</svg>
