<svg width="40" height="40" viewBox="0 0 40 40" fill="none" xmlns="http://www.w3.org/2000/svg">
<path d="M30.1098 16.217C30.2013 16.3085 30.3253 16.3598 30.4547 16.3598C30.584 16.3598 30.7081 16.3085 30.7996 16.217L33.0823 13.9338C33.1277 13.8886 33.1636 13.8348 33.1881 13.7756C33.2127 13.7164 33.2253 13.653 33.2253 13.5889C33.2253 13.5249 33.2127 13.4615 33.1881 13.4023C33.1636 13.3431 33.1277 13.2893 33.0823 13.2441L26.7557 6.91786C26.7104 6.87254 26.6566 6.83659 26.5974 6.81206C26.5383 6.78753 26.4748 6.7749 26.4108 6.7749C26.3467 6.7749 26.2833 6.78753 26.2241 6.81206C26.1649 6.83659 26.1111 6.87254 26.0659 6.91786L23.7831 9.20063C23.7378 9.24591 23.7018 9.29967 23.6773 9.35885C23.6528 9.41803 23.6401 9.48147 23.6401 9.54553C23.6401 9.60959 23.6528 9.67302 23.6773 9.7322C23.7018 9.79138 23.7378 9.84515 23.7831 9.89043L30.1098 16.217ZM26.4108 7.95247L32.0477 13.5889L30.4547 15.1823L24.8179 9.54553L26.4108 7.95247Z" fill="#28CB47"/>
<path d="M18.9691 16.8976L23.1026 21.0311C23.2548 21.1835 23.4357 21.3043 23.6347 21.3867C23.8338 21.469 24.0472 21.5112 24.2626 21.5109C24.6829 21.5109 25.1033 21.3508 25.4231 21.0311L27.6054 18.8487L28.7196 19.9629C29.8092 21.0525 31.5812 21.0521 32.6705 19.9629L36.8283 15.805C37.9175 14.7158 37.9175 12.9434 36.8283 11.8542L36.3136 11.3395L39.5203 8.1327C39.9331 7.71994 40.0958 7.1129 39.9449 6.54812L38.8191 2.3423C38.7442 2.06408 38.5976 1.81041 38.3938 1.60668C38.1901 1.40295 37.9364 1.25631 37.6582 1.18143L33.4517 0.0549136C32.8876 -0.0948885 32.2805 0.0666902 31.8674 0.479861L28.6606 3.68665L28.1459 3.17193C27.0571 2.08272 25.2846 2.08272 24.1951 3.17193L20.0373 7.32974C18.948 8.41896 18.948 10.1914 20.0373 11.2806L21.1512 12.3945L18.969 14.5771C18.3292 15.217 18.3292 16.2577 18.9691 16.8976ZM32.5572 1.16966C32.7246 1.00199 32.9715 0.937585 33.1997 0.997374L37.406 2.12348C37.5188 2.15387 37.6216 2.21334 37.7042 2.29593C37.7868 2.37853 37.8462 2.48135 37.8766 2.59414L39.0024 6.79996C39.0325 6.9128 39.0325 7.03155 39.0023 7.14437C38.9721 7.25719 38.9129 7.36012 38.8305 7.4429L35.624 10.6494L29.3507 4.3762L32.5572 1.16966ZM20.7271 8.01954L24.885 3.86173C25.5952 3.15151 26.7457 3.15118 27.4562 3.86173L36.1384 12.5439C36.8487 13.2542 36.8489 14.4046 36.1384 15.1152L31.9806 19.273C31.2703 19.9833 30.1199 19.9835 29.4093 19.273C27.1079 16.971 21.8648 11.7284 20.7271 10.5908C20.0169 9.88058 20.0166 8.73009 20.7271 8.01954ZM19.6589 15.2669L21.8411 13.0843L26.9156 18.1588L24.7332 20.3412C24.4737 20.6004 24.051 20.6004 23.7923 20.3412L19.6588 16.2078C19.3993 15.9483 19.3993 15.5264 19.6589 15.2669ZM9.05024 28.0284L11.9722 30.9503C12.2919 31.2701 12.7123 31.4301 13.1322 31.4301C13.5521 31.4301 13.9725 31.27 14.2922 30.9503L18.2759 26.9667C18.9158 26.3268 18.9158 25.286 18.2759 24.6462L15.354 21.7242C14.7145 21.0848 13.6733 21.0848 13.0338 21.7242L9.05016 25.7079C8.41035 26.3478 8.41035 27.3886 9.05024 28.0284ZM9.74004 26.3977L13.7237 22.414C13.7854 22.3523 13.8587 22.3033 13.9394 22.27C14.0201 22.2366 14.1066 22.2195 14.1939 22.2197C14.2812 22.2195 14.3677 22.2366 14.4484 22.27C14.5291 22.3033 14.6024 22.3523 14.6642 22.414L17.5861 25.336C17.6481 25.3976 17.6972 25.4708 17.7307 25.5515C17.7642 25.6323 17.7814 25.7188 17.7812 25.8062C17.7814 25.8937 17.7643 25.9803 17.7308 26.0611C17.6973 26.1419 17.6481 26.2152 17.5861 26.2769L13.6024 30.2605C13.3509 30.5113 12.9134 30.5113 12.6619 30.2605L9.73996 27.3386C9.48054 27.0791 9.48054 26.6572 9.74004 26.3977Z" fill="#28CB47"/>
<path d="M0.481015 35.2973L4.70249 39.5188C5.33636 40.1527 6.37378 40.1676 7.02265 39.5188L11.3453 35.1961C12.4459 36.1128 14.0804 36.0526 15.1084 35.0252L22.3512 27.7824C23.4435 26.6902 23.4445 24.9225 22.3512 23.83L16.1697 17.6486C15.077 16.5551 13.3104 16.5555 12.2173 17.6486L10.032 19.8339C9.84146 20.0244 9.84146 20.3331 10.032 20.5237C10.2226 20.7142 10.5313 20.7142 10.7218 20.5237L12.9071 18.3384C13.6223 17.6241 14.7714 17.6291 15.4799 18.3384L21.6613 24.5198C22.3714 25.2291 22.3741 26.3791 21.6613 27.0926L14.4185 34.3354C13.7093 35.0439 12.5557 35.0447 11.8457 34.3354L5.6643 28.154C4.95507 27.4448 4.95506 26.2904 5.66389 25.5816L7.63454 23.6148C7.67989 23.5695 7.71588 23.5158 7.74046 23.4566C7.76504 23.3975 7.77773 23.3341 7.77779 23.27C7.77786 23.206 7.76531 23.1425 7.74086 23.0833C7.71641 23.0241 7.68053 22.9703 7.63528 22.925C7.59004 22.8796 7.53631 22.8436 7.47716 22.819C7.418 22.7945 7.35459 22.7818 7.29053 22.7817C7.22648 22.7816 7.16303 22.7942 7.10383 22.8186C7.04463 22.8431 6.99082 22.879 6.94548 22.9242L4.97442 24.8915C3.94565 25.9203 3.8894 27.5579 4.80353 28.6547L0.481015 32.9772C-0.152864 33.6111 -0.16777 34.6485 0.481015 35.2973ZM1.17081 33.667L5.4837 29.3541L10.6456 34.516L6.33277 38.8289C6.08126 39.0804 5.64371 39.0804 5.3922 38.8289L1.17073 34.6075C1.10886 34.5458 1.05978 34.4725 1.02629 34.3918C0.992802 34.3111 0.975568 34.2246 0.975576 34.1372C0.975583 34.0498 0.992833 33.9633 1.02634 33.8826C1.05984 33.8019 1.10894 33.7287 1.17081 33.667ZM34.8227 24.5114C34.9442 24.5113 35.0613 24.4658 35.1511 24.3839C35.2409 24.302 35.2969 24.1896 35.3082 24.0686C35.3201 23.9398 35.2803 23.8115 35.1976 23.7119C35.115 23.6124 34.9961 23.5497 34.8673 23.5378L31.8467 23.258C31.5731 23.2355 31.341 23.431 31.3159 23.6989C31.304 23.8278 31.3438 23.9561 31.4265 24.0556C31.5091 24.1551 31.6279 24.2178 31.7568 24.2298L34.7774 24.5095C34.7925 24.5107 34.8078 24.5114 34.8227 24.5114ZM29.1976 28.2119C29.1523 28.2572 29.1164 28.311 29.0918 28.3701C29.0673 28.4293 29.0547 28.4928 29.0547 28.5568C29.0547 28.6209 29.0673 28.6843 29.0918 28.7435C29.1164 28.8027 29.1523 28.8564 29.1976 28.9017L31.3425 31.0461C31.533 31.2367 31.8417 31.2367 32.0323 31.0461C32.2228 30.8556 32.2228 30.5469 32.0323 30.3563L29.8874 28.2119C29.8422 28.1666 29.7884 28.1307 29.7292 28.1061C29.67 28.0816 29.6066 28.069 29.5425 28.069C29.4785 28.069 29.415 28.0816 29.3559 28.1061C29.2967 28.1307 29.2429 28.1666 29.1976 28.2119ZM24.685 30.3301C24.5562 30.342 24.4373 30.4046 24.3547 30.5042C24.272 30.6037 24.2322 30.7321 24.2441 30.8609L24.5235 33.8812C24.5472 34.1352 24.7668 34.3437 25.0543 34.3221C25.1832 34.3101 25.302 34.2475 25.3846 34.1479C25.4673 34.0484 25.5071 33.9201 25.4952 33.7912L25.2159 30.771C25.1908 30.5027 24.9468 30.3079 24.685 30.3301ZM16.3008 8.68396C16.4297 8.67198 16.5485 8.60933 16.6312 8.50979C16.7138 8.41025 16.7536 8.28196 16.7417 8.15311L16.462 5.13252C16.4369 4.86421 16.2002 4.66986 15.9311 4.6916C15.8023 4.70358 15.6835 4.76623 15.6008 4.86577C15.5181 4.96531 15.4783 5.0936 15.4902 5.22246L15.77 8.24304C15.7937 8.49718 16.0133 8.70554 16.3008 8.68396ZM11.7879 10.8021C11.8332 10.7568 11.8692 10.7031 11.8937 10.6439C11.9182 10.5847 11.9309 10.5213 11.9309 10.4572C11.9309 10.3931 11.9182 10.3297 11.8937 10.2705C11.8692 10.2114 11.8332 10.1576 11.7879 10.1123L9.64348 7.96748C9.45292 7.77691 9.14425 7.77691 8.95368 7.96748C8.76312 8.15805 8.76312 8.46671 8.95368 8.65728L11.0981 10.8021C11.1434 10.8474 11.1971 10.8834 11.2563 10.9079C11.3155 10.9324 11.3789 10.9451 11.443 10.9451C11.5071 10.9451 11.5705 10.9324 11.6297 10.9079C11.6889 10.8834 11.7426 10.8474 11.7879 10.8021ZM5.67772 14.9454C5.66586 15.0743 5.70564 15.2026 5.78831 15.3021C5.87099 15.4016 5.9898 15.4643 6.11865 15.4763L9.1389 15.7556C9.42607 15.7772 9.64595 15.5694 9.66975 15.3147C9.68166 15.1858 9.6419 15.0575 9.55921 14.958C9.47653 14.8584 9.35769 14.7958 9.22883 14.7838L6.20858 14.5045C5.93491 14.4862 5.70284 14.6772 5.67772 14.9454Z" fill="#28CB47"/>
</svg>
