<svg width="31" height="40" viewBox="0 0 31 40" fill="none" xmlns="http://www.w3.org/2000/svg">
<path d="M31 21.2747C30.9822 16.1386 30.5271 11.0131 29.6393 5.95267C29.4549 5.02527 28.9453 4.19208 28.2005 3.6C28.1245 3.34169 27.9966 3.10121 27.8244 2.89295C27.6522 2.6847 27.4393 2.51296 27.1984 2.388L26.0036 1.774C25.7665 1.65076 25.507 1.57549 25.2401 1.55259C24.9733 1.5297 24.7045 1.55964 24.4495 1.64067C24.3983 1.65733 24.3518 1.68333 24.3026 1.70333C22.6489 0.891333 19.8447 0 15.5 0C11.1553 0 8.35112 0.891333 6.69734 1.70333C6.64815 1.68333 6.60165 1.65733 6.55043 1.64067C6.29604 1.56008 6.02799 1.53037 5.76189 1.55326C5.49578 1.57615 5.23694 1.65119 5.00043 1.774L3.80087 2.38667C3.5597 2.51144 3.34661 2.68329 3.17449 2.89184C3.00236 3.10038 2.87477 3.34129 2.79943 3.6C2.05396 4.19272 1.54413 5.02691 1.35996 5.95533C0.470365 11.0344 0.0154339 16.1786 0 21.3333C0.00151594 21.8481 0.124085 22.3555 0.358014 22.8153C0.591943 23.2751 0.930814 23.6748 1.34782 23.9827V26.6267C0.899365 26.9612 0.551068 27.4099 0.340055 27.9248C0.129042 28.4397 0.0632214 29.0016 0.149609 29.5507L0.713673 33.174C0.815476 33.848 1.12526 34.4744 1.60066 34.9676C2.07605 35.4608 2.69385 35.7967 3.36956 35.9293V38C3.36956 38.5304 3.58257 39.0391 3.96172 39.4142C4.34086 39.7893 4.8551 40 5.3913 40H25.6087C26.1449 40 26.6591 39.7893 27.0383 39.4142C27.4174 39.0391 27.6304 38.5304 27.6304 38V35.9293C28.3061 35.7967 28.9239 35.4608 29.3993 34.9676C29.8747 34.4744 30.1845 33.848 30.2863 33.174L30.8504 29.5507C30.9371 29.0017 30.8714 28.4398 30.6604 27.9249C30.4493 27.41 30.1008 26.9615 29.6521 26.6273V23.9787C30.0729 23.6618 30.4136 23.2527 30.6475 22.7835C30.8814 22.3143 31.002 21.7978 31 21.2747ZM27.9532 5.29333C28.1285 5.57338 28.2515 5.88228 28.3165 6.20533C29.1897 11.202 29.6365 16.2625 29.6521 21.3333C29.6521 21.8638 29.4391 22.3725 29.06 22.7475C28.6808 23.1226 28.1666 23.3333 27.6304 23.3333C27.3655 23.3332 27.1033 23.2815 26.8586 23.1811C26.614 23.0807 26.3917 22.9336 26.2046 22.7481C26.0175 22.5627 25.8691 22.3426 25.768 22.1004C25.6669 21.8582 25.6151 21.5987 25.6154 21.3367C25.6376 16.7313 25.7178 12.7467 25.852 9.484C26.5406 8.08137 27.2411 6.68443 27.9532 5.29333ZM24.8674 2.91733C24.9519 2.88951 25.0412 2.87855 25.13 2.88507C25.2188 2.89159 25.3055 2.91547 25.3849 2.95533L26.5805 3.56933C26.6589 3.60846 26.7288 3.66258 26.786 3.72855C26.8433 3.79453 26.8867 3.87106 26.9139 3.95374C26.9411 4.03641 26.9515 4.1236 26.9445 4.21026C26.9374 4.29692 26.9131 4.38135 26.8729 4.45867C25.2651 7.58984 23.7198 10.752 22.2378 13.9433L19.782 12.8413C21.6299 8.84133 23.5155 5.108 24.4752 3.24133C24.5157 3.16442 24.5712 3.09619 24.6386 3.04059C24.7059 2.98498 24.7836 2.9431 24.8674 2.91733ZM21.0665 14.8853C19.7139 17.8187 18.5575 20.8367 17.6046 23.92C17.2276 23.6922 16.8153 23.5273 16.3842 23.432C17.3427 20.3315 18.4946 17.2928 19.8332 14.3333L20.3771 14.5773L21.0665 14.8853ZM15.5 29.3333C14.4986 29.3333 13.613 29.292 12.8043 29.226V27.3333C12.8043 26.6261 13.0883 25.9478 13.5939 25.4477C14.0994 24.9476 14.7851 24.6667 15.5 24.6667C16.2149 24.6667 16.9006 24.9476 17.4061 25.4477C17.9116 25.9478 18.1956 26.6261 18.1956 27.3333V29.226C17.3869 29.292 16.5014 29.3333 15.5 29.3333ZM10.7684 14.51L11.1667 14.3313C12.5055 17.2916 13.6574 20.3313 14.6158 23.4327C14.1847 23.529 13.7726 23.695 13.396 23.924C12.4435 20.8392 11.2868 17.8198 9.93347 14.8853L10.7684 14.51ZM18.5184 13.31C18.5612 13.4189 18.6186 13.5215 18.6889 13.6153C17.4804 16.2738 16.4159 18.9941 15.5 21.7647C14.5847 18.9946 13.5208 16.2748 12.3131 13.6167C12.3834 13.5229 12.4408 13.4202 12.4836 13.3113C12.5466 13.1471 12.576 12.972 12.5698 12.7964C12.5637 12.6208 12.5222 12.4482 12.4478 12.2887L12.2618 11.8887C13.3583 11.9553 14.446 12 15.5 12C16.554 12 17.6417 11.9553 18.7381 11.8887L18.5521 12.2887C18.4777 12.4482 18.4363 12.6208 18.4301 12.7964C18.424 12.972 18.4533 13.1471 18.5164 13.3113L18.5184 13.31ZM23.2439 2.68667C21.9165 5.2756 20.6294 7.88457 19.3831 10.5127C16.7981 10.708 14.2019 10.708 11.6169 10.5127C10.3721 7.88375 9.08476 5.27475 7.75538 2.68667C10.2141 1.70925 12.8515 1.24838 15.5 1.33333C18.1482 1.24835 20.7854 1.70923 23.2439 2.68667ZM4.42221 3.56933L5.61908 2.95467C5.77829 2.8759 5.96225 2.86157 6.13196 2.91471C6.30167 2.96785 6.44379 3.08429 6.52819 3.23933C7.48784 5.106 9.37345 8.83933 11.2213 12.8393L8.76558 13.9393C6.9413 9.99 5.07793 6.304 4.13041 4.45867C4.0902 4.38139 4.06585 4.297 4.05877 4.21036C4.05168 4.12373 4.062 4.03657 4.08913 3.9539C4.11625 3.87123 4.15965 3.79468 4.21682 3.72868C4.27398 3.66268 4.34379 3.60852 4.42221 3.56933ZM2.68285 6.208C2.74789 5.88404 2.87115 5.57424 3.04676 5.29333C3.75891 6.68443 4.45936 8.08137 5.14802 9.484C5.2828 12.7467 5.36232 16.7313 5.38456 21.3367C5.38491 21.5987 5.33306 21.8582 5.23197 22.1004C5.13087 22.3426 4.98251 22.5627 4.79538 22.7481C4.60824 22.9336 4.38599 23.0807 4.14134 23.1811C3.89669 23.2815 3.63443 23.3332 3.36956 23.3333C3.10142 23.332 2.83619 23.2782 2.58916 23.1751C2.34213 23.0719 2.11819 22.9213 1.93025 22.7321C1.74231 22.5429 1.59409 22.3188 1.49413 22.0727C1.39417 21.8265 1.34444 21.5632 1.34782 21.298C1.36493 16.2399 1.81151 11.1921 2.68285 6.208ZM2.69565 24.6C3.18493 24.699 3.69037 24.689 4.17524 24.5706C4.66011 24.4522 5.11225 24.2285 5.4988 23.9157C5.88536 23.6029 6.19663 23.2088 6.41001 22.7622C6.62338 22.3155 6.73351 21.8274 6.73239 21.3333C6.71621 18.06 6.67039 15.1047 6.5976 12.4893C6.90895 13.146 7.22502 13.8187 7.54108 14.4993C7.63933 14.7083 7.79095 14.8883 7.98099 15.0215C8.17102 15.1548 8.3929 15.2368 8.62473 15.2593C10.0912 18.3847 11.3141 21.6163 12.2827 24.926C11.7481 25.6172 11.4578 26.463 11.4565 27.3333V29.084C8.01552 28.6173 6.67173 27.6113 6.27817 27.2407C5.46548 26.4475 4.37033 26.002 3.22871 26C3.04967 26.0036 2.87129 26.0228 2.69565 26.0573V24.6ZM26.2826 38C26.2826 38.1768 26.2116 38.3464 26.0852 38.4714C25.9588 38.5964 25.7874 38.6667 25.6087 38.6667H5.3913C5.21257 38.6667 5.04115 38.5964 4.91477 38.4714C4.78839 38.3464 4.71739 38.1768 4.71739 38V36H26.2826V38ZM12.8043 34.6667C12.8043 34.0373 13.9574 33.3333 15.5 33.3333C17.0426 33.3333 18.1956 34.0373 18.1956 34.6667H12.8043ZM29.5174 29.348L28.9533 32.9707C28.8822 33.4436 28.6412 33.8754 28.2745 34.1868C27.9077 34.4983 27.4398 34.6687 26.9565 34.6667H19.5435C19.5435 33.1713 17.767 32 15.5 32C13.2329 32 11.4565 33.1713 11.4565 34.6667H4.04348C3.5599 34.669 3.09169 34.4988 2.72468 34.1873C2.35768 33.8758 2.11649 33.4438 2.04532 32.9707L1.48261 29.348C1.44367 29.0989 1.45965 28.8444 1.52944 28.6019C1.59923 28.3595 1.72119 28.1348 1.88695 27.9433C2.06146 27.7454 2.27804 27.5881 2.52118 27.4826C2.76432 27.3772 3.02802 27.3262 3.29341 27.3333C4.06463 27.3486 4.79978 27.6593 5.34413 28.2C6.12317 28.9427 8.67258 30.6667 15.5 30.6667C22.3274 30.6667 24.8768 28.9427 25.6558 28.2C26.2182 27.6469 26.9783 27.3355 27.7713 27.3333C28.026 27.3337 28.2776 27.3885 28.5089 27.4939C28.7403 27.5994 28.9459 27.753 29.1117 27.9443C29.2775 28.1356 29.3996 28.36 29.4696 28.6023C29.5396 28.8446 29.5559 29.0989 29.5174 29.348ZM28.3043 26.0607C28.1073 26.023 27.9072 26.0027 27.7066 26C26.5866 26.0149 25.5164 26.4598 24.7218 27.2407C24.3316 27.6113 22.9845 28.6147 19.5435 29.084V27.3333C19.5438 26.4607 19.2545 25.6121 18.7199 24.918C19.6875 21.61 20.909 18.3799 22.3739 15.256C22.6057 15.2335 22.8276 15.1515 23.0176 15.0182C23.2077 14.8849 23.3593 14.7049 23.4575 14.496C23.7716 13.8153 24.0877 13.1427 24.401 12.486C24.3234 15.4334 24.2784 18.3816 24.2662 21.33C24.2647 21.8244 24.3746 22.313 24.5878 22.7601C24.8011 23.2073 25.1124 23.6018 25.4992 23.915C25.8859 24.2282 26.3384 24.4521 26.8236 24.5706C27.3088 24.6891 27.8147 24.6992 28.3043 24.6V26.0607Z" fill="#28CB47"/>
</svg>
