<svg width="40" height="40" viewBox="0 0 40 40" fill="none" xmlns="http://www.w3.org/2000/svg">
<g clip-path="url(#clip0_7101_12851)">
<path d="M39.9301 0.562295C39.8614 0.396052 39.7449 0.253934 39.5954 0.153927C39.4458 0.0539204 39.27 0.00052124 39.0901 0.000488281C3.80898 0.000488281 0 14.6219 0 20.9091C0 29.0653 6.21081 34.5452 15.4542 34.5452C27.1285 34.5452 29.5739 23.4363 30.8885 17.4692C32.6557 9.43478 36.5447 4.74397 39.7337 1.55313C39.861 1.42605 39.9477 1.264 39.9826 1.08757C40.0176 0.911147 39.9993 0.72831 39.9301 0.562295ZM29.1121 17.0783C27.4448 24.6491 24.8795 32.7271 15.4542 32.7271C7.29803 32.7271 1.81812 27.9781 1.81812 20.9091C1.81812 15.2928 5.29438 2.39311 36.9447 1.83676C33.9393 5.14402 30.7085 9.8148 29.1121 17.0783Z" fill="#28CB47"/>
<path d="M25.3631 9.60349C25.1431 9.15256 24.5995 8.96532 24.1486 9.1817C9.37251 16.3416 0 33.6848 0 39.0902C0 39.592 0.407293 39.9993 0.909101 39.9993C1.41091 39.9993 1.8182 39.592 1.8182 39.0902C1.8182 34.8411 10.0199 18.0487 24.9413 10.818C25.3922 10.5981 25.5813 10.0544 25.3631 9.60349Z" fill="#28CB47"/>
</g>
<defs>
<clipPath id="clip0_7101_12851">
<rect width="40" height="40" fill="white"/>
</clipPath>
</defs>
</svg>
