<svg width="35" height="40" viewBox="0 0 35 40" fill="none" xmlns="http://www.w3.org/2000/svg">
<path fill-rule="evenodd" clip-rule="evenodd" d="M4.01769 28.808C3.86637 28.8078 3.72027 28.7527 3.60649 28.653C3.4927 28.5532 3.41898 28.4156 3.39898 28.2656L0.0159452 2.89139C0.0148442 2.8832 0.0139035 2.87499 0.0131239 2.86676C-0.0416723 2.27822 0.0762756 1.69011 0.345374 1.21062C0.63715 0.690649 1.08485 0.330296 1.6059 0.196073C2.10852 0.0662028 2.62552 0.000324258 3.14464 0C3.97288 0 4.79678 0.166993 5.59344 0.496421C6.36763 0.816518 7.09854 1.28266 7.76597 1.88206C9.1248 3.10222 10.1349 4.78691 10.687 6.75371C11.5359 9.77824 11.6967 11.8058 11.6967 14.4891C11.6967 15.2507 11.6837 16.0654 11.6667 17.0514C11.6033 20.7227 11.0241 24.3668 9.9462 27.8769C9.92261 27.956 9.8836 28.0296 9.83143 28.0935C9.77925 28.1574 9.71495 28.2103 9.64221 28.2492C9.56948 28.2881 9.48976 28.3123 9.40765 28.3203C9.32555 28.3282 9.24267 28.3198 9.16382 28.2956C9.08496 28.2714 9.01168 28.2318 8.94819 28.1791C8.88471 28.1265 8.83228 28.0617 8.79394 27.9887C8.75559 27.9157 8.73208 27.8358 8.72477 27.7536C8.71745 27.6714 8.72648 27.5886 8.75132 27.5099C9.79479 24.1118 10.3555 20.584 10.4169 17.0298C10.4338 16.05 10.4467 15.2407 10.4467 14.4892C10.4467 11.8592 10.2978 9.99308 9.48342 7.0916C8.50262 3.59767 5.95531 1.25011 3.14464 1.25011C2.73329 1.25011 2.32053 1.30274 1.91797 1.40658C1.49034 1.51671 1.20139 2.10092 1.25673 2.73948L4.63792 28.1006C4.64966 28.1889 4.64238 28.2787 4.61658 28.364C4.59078 28.4492 4.54704 28.528 4.48831 28.595C4.42958 28.662 4.3572 28.7157 4.27603 28.7524C4.19487 28.7891 4.10679 28.8081 4.01769 28.808ZM28.7401 40H28.7386C24.5648 39.9979 12.7716 39.9975 8.57977 39.9975C6.68881 39.9975 5.03321 38.7198 4.55394 36.8905C4.54744 36.8656 4.54244 36.8402 4.53896 36.8147L3.94771 32.3796C3.93616 32.2975 3.94106 32.214 3.96213 32.1338C3.98319 32.0536 4.02 31.9784 4.07041 31.9125C4.12082 31.8467 4.18382 31.7916 4.25574 31.7503C4.32766 31.7091 4.40707 31.6826 4.48935 31.6723C4.57162 31.662 4.65512 31.6682 4.73497 31.6906C4.81482 31.7129 4.88944 31.7508 4.95447 31.8023C5.01951 31.8537 5.07366 31.9176 5.11378 31.9901C5.1539 32.0627 5.17918 32.1425 5.18816 32.2249L5.77258 36.6093C6.11991 37.8702 7.26889 38.7475 8.57977 38.7475C12.7717 38.7475 24.5652 38.7479 28.7393 38.75H28.74C29.2518 38.75 29.6861 38.3674 29.7504 37.8597L29.7629 37.7614C29.9848 36.0466 29.5605 34.3107 28.5725 32.8917C27.5846 31.4727 26.1038 30.4722 24.4186 30.0853L24.3224 30.0631C19.9631 29.0505 15.409 29.2591 11.1605 30.666L11.1475 30.6703C10.7826 30.7909 10.3981 30.8087 10.0341 30.7221C9.95377 30.7036 9.87792 30.6693 9.81089 30.6213C9.74386 30.5734 9.68698 30.5126 9.64353 30.4426C9.60008 30.3725 9.57091 30.2946 9.55771 30.2132C9.54451 30.1318 9.54754 30.0486 9.56661 29.9685C9.58569 29.8883 9.62044 29.8126 9.66887 29.7459C9.71729 29.6792 9.77843 29.6228 9.84877 29.5798C9.91911 29.5368 9.99725 29.5082 10.0787 29.4955C10.1602 29.4829 10.2433 29.4864 10.3234 29.5061C10.4637 29.5395 10.6085 29.532 10.7537 29.484L10.7665 29.4798C15.2331 28.0004 20.021 27.7809 24.6042 28.8454L24.7004 28.8675C26.6858 29.3269 28.4295 30.5079 29.593 32.181C30.7583 33.8523 31.2609 35.8971 31.0031 37.9182L30.9904 38.0178C30.8472 39.1477 29.8797 40 28.7401 40Z" fill="#28CB47"/>
<path fill-rule="evenodd" clip-rule="evenodd" d="M6.86384 33.8445C4.68751 33.8445 2.91699 32.074 2.91699 29.8976C2.91699 27.7214 4.68751 25.9508 6.86384 25.9508C9.04016 25.9508 10.8107 27.7213 10.8107 29.8976C10.8106 32.074 9.04006 33.8445 6.86384 33.8445ZM6.86384 27.2008C5.37685 27.2008 4.167 28.4105 4.167 29.8976C4.167 31.3846 5.37674 32.5945 6.86384 32.5945C8.35093 32.5945 9.56067 31.3846 9.56067 29.8976C9.56056 28.4106 8.35082 27.2008 6.86384 27.2008ZM28.3601 15.4434C28.2506 15.4434 28.143 15.4145 28.0481 15.3596L25.9072 14.1235C25.7637 14.0405 25.659 13.904 25.6161 13.744C25.5732 13.5839 25.5956 13.4133 25.6783 13.2698L29.4849 6.67664C29.5678 6.53318 29.7043 6.42849 29.8644 6.38559C30.0245 6.34268 30.195 6.36506 30.3386 6.4478L32.4796 7.68392C32.5507 7.72495 32.613 7.77958 32.6629 7.84469C32.7129 7.90981 32.7495 7.98412 32.7708 8.0634C32.792 8.14268 32.7974 8.22537 32.7867 8.30674C32.776 8.38811 32.7494 8.46658 32.7083 8.53765L28.9018 15.1308C28.847 15.2259 28.768 15.3049 28.6729 15.3598C28.5778 15.4147 28.4699 15.4435 28.3601 15.4434ZM27.0735 13.3534L28.1319 13.9645L31.3134 8.45399L30.2551 7.84288L27.0735 13.3534Z" fill="#28CB47"/>
<path fill-rule="evenodd" clip-rule="evenodd" d="M33.5124 14.0224C33.4029 14.0224 33.2953 13.9935 33.2005 13.9387L29.9518 12.063C29.8807 12.022 29.8184 11.9674 29.7684 11.9022C29.7184 11.8371 29.6818 11.7628 29.6606 11.6835C29.6393 11.6043 29.6339 11.5216 29.6446 11.4402C29.6553 11.3588 29.682 11.2804 29.723 11.2093C29.7641 11.1382 29.8187 11.0759 29.8838 11.0259C29.9489 10.976 30.0232 10.9393 30.1025 10.9181C30.1818 10.8968 30.2645 10.8914 30.3459 10.9021C30.4272 10.9129 30.5057 10.9395 30.5768 10.9806L33.8255 12.8562C33.9447 12.925 34.0379 13.0312 34.0906 13.1584C34.1433 13.2856 34.1525 13.4266 34.1168 13.5596C34.0812 13.6925 34.0026 13.81 33.8933 13.8937C33.784 13.9774 33.6501 14.0226 33.5124 14.0224ZM24.1031 13.1136C24.0701 13.1136 24.0371 13.1109 24.0045 13.1058L20.2107 12.5005C19.309 12.3574 18.4494 12.0193 17.6917 11.5099C16.934 11.0005 16.2966 10.3319 15.8238 9.55086C15.3497 8.77058 15.0515 7.89628 14.95 6.98893C14.8486 6.08158 14.9462 5.16301 15.2361 4.29726C15.5035 3.4937 15.9313 2.75279 16.4935 2.11942C17.0983 1.43544 17.845 0.89161 18.6816 0.525837C19.5181 0.160063 20.4244 -0.01885 21.3372 0.00157067C22.25 0.0204841 23.1477 0.238248 23.9677 0.639682C24.7877 1.04112 25.5103 1.61656 26.0851 2.3259L28.5061 5.30877C28.5859 5.40699 28.6339 5.52712 28.6439 5.65325C28.6539 5.77939 28.6254 5.90559 28.5621 6.01515L24.6442 12.8012C24.5893 12.8961 24.5105 12.975 24.4155 13.0298C24.3205 13.0846 24.2128 13.1135 24.1031 13.1136ZM17.4292 2.94808C16.9787 3.45558 16.636 4.04924 16.4217 4.6931C15.9517 6.1 16.1234 7.6343 16.8925 8.90264C17.6616 10.171 18.9428 11.0324 20.4076 11.2661L23.7766 11.8037L27.2645 5.76255L25.1144 3.11367C24.6538 2.54528 24.0748 2.08419 23.4178 1.76253C22.7607 1.44088 22.0414 1.26639 21.31 1.25125C20.5787 1.23502 19.8526 1.37843 19.1824 1.67148C18.5121 1.96453 17.9138 2.40018 17.4292 2.94808Z" fill="#28CB47"/>
</svg>
