<svg width="24" height="24" viewBox="0 0 24 24" fill="none" xmlns="http://www.w3.org/2000/svg">
<path d="M5.2063 7.2832L7.22945 10.8995V13.1053L5.20867 16.7144L5.2063 7.2832Z" fill="#5B57A2"/>
<path d="M12.9744 9.58365L14.8701 8.42171L18.7499 8.41809L12.9744 11.9562V9.58365Z" fill="#D90751"/>
<path d="M12.9637 7.26187L12.9744 12.0497L10.9465 10.8036V3.64673L12.9637 7.26187Z" fill="#FAB718"/>
<path d="M18.75 8.41796L14.87 8.42158L12.9637 7.26187L10.9465 3.64673L18.75 8.41796Z" fill="#ED6F26"/>
<path d="M12.9744 16.7345V14.4116L10.9465 13.1892L10.9476 20.3532L12.9744 16.7345Z" fill="#63B22F"/>
<path d="M14.8654 15.5831L7.22931 10.8995L5.2063 7.2832L18.7417 15.5784L14.8654 15.5831Z" fill="#1487C9"/>
<path d="M10.9478 20.3531L12.9742 16.7343L14.8653 15.583L18.7416 15.5782L10.9478 20.3531Z" fill="#017F36"/>
<path d="M5.20874 16.7144L10.9631 13.1893L9.02854 12.0023L7.22953 13.1052L5.20874 16.7144Z" fill="#984995"/>
</svg>
