<svg width="98" height="28" viewBox="0 0 98 28" fill="none" xmlns="http://www.w3.org/2000/svg">
<g clip-path="url(#clip0_5654_17690)">
<path fill-rule="evenodd" clip-rule="evenodd" d="M15.3551 20.8092L11.1292 20.8092C4.53696 20.8092 9.32625 6.6613 14.8762 6.6613L21.553 6.6613C22.6235 6.6613 24.511 6.8606 25.4408 4.1847L26.8775 0.0285645L17.7215 0.0285645C12.7633 0.0285645 8.90363 1.7935 6.11461 4.75404C1.29716 9.82109 -0.336829 17.7348 0.818233 21.5209C1.91695 25.0223 4.9032 27.3281 9.57976 27.3851L13.214 27.4135H17.6934L18.7921 24.0829C19.6091 21.7202 17.7779 20.8092 15.3551 20.8092ZM66.7976 14.9451L68.1778 10.4189L53.4439 10.4189C50.9929 10.4189 49.8942 11.1021 49.4716 12.5254L48.0912 17.0516L62.8253 17.0516C65.2762 17.0516 66.375 16.3684 66.7976 14.9451ZM45.8938 22.9158L44.5133 27.442L59.2474 27.442C61.6702 27.442 62.7971 26.7588 63.2197 25.3355L64.6001 20.8092L49.8661 20.8092C47.4432 20.8092 46.3445 21.4924 45.8938 22.9158ZM70.2345 4.58324L71.6152 0.0570308L56.8809 0.0570308C54.43 0.0570308 53.3312 0.74023 52.9087 2.16357L51.5282 6.68977L66.2623 6.68977C68.6854 6.68977 69.7837 6.00657 70.2345 4.58324ZM47.9785 5.49417C47.3587 1.2811 45.1331 0.0570308 39.724 0.0570308L29.8638 0.0570308L24.1167 17.0516H27.7509C29.9201 17.0516 31.0189 17.0801 32.1739 13.9488L34.5685 6.6613L38.2309 6.6613C41.3581 6.6613 40.6537 10.6182 39.0761 14.4612C37.6675 17.8487 35.2165 20.8377 32.2584 20.8377H26.1451C23.6941 20.8377 22.5672 21.5209 22.1164 22.9443L20.5951 27.4704H25.0745L29.4694 27.442C33.3571 27.4135 36.5406 27.1288 40.2593 23.7413C44.2034 20.126 48.7673 10.8459 47.9785 5.49417ZM97.5055 0.0285645L88.9694 0.0285645L80.9401 8.65397C80.0101 9.65029 79.0524 10.6466 78.1225 11.8138H78.038L82.0384 0.0285645L75.0804 0.0285645L65.6988 27.442H72.6574L75.6434 18.8166L78.7422 16.1692L81.1936 23.9691C81.9539 26.3887 82.7433 27.442 84.4337 27.442H89.7581L84.2924 12.1269L97.5055 0.0285645Z" fill="white"/>
</g>
<defs>
<clipPath id="clip0_5654_17690">
<rect width="98" height="28" fill="white"/>
</clipPath>
</defs>
</svg>
