<svg width="113" height="32" viewBox="0 0 113 32" fill="none" xmlns="http://www.w3.org/2000/svg">
<path fill-rule="evenodd" clip-rule="evenodd" d="M18.0489 23.7819H13.2194C5.68538 23.7819 11.1588 7.61286 17.5016 7.61286L25.1323 7.61286C26.3557 7.61286 28.5129 7.84063 29.5754 4.78246L31.2174 0.0325928L20.7535 0.0325928C15.0869 0.0325928 10.6759 2.04966 7.4884 5.43313C1.98274 11.224 0.115332 20.2683 1.4354 24.5953C2.69108 28.5968 6.10394 31.2321 11.4486 31.2972L15.602 31.3297H20.7213L21.977 27.5233C22.9107 24.823 20.8179 23.7819 18.0489 23.7819ZM76.8404 17.08L78.4178 11.9073L61.579 11.9073C58.7779 11.9073 57.5222 12.6881 57.0393 14.3147L55.4616 19.4875L72.3006 19.4875C75.1017 19.4875 76.3574 18.7067 76.8404 17.08ZM52.9503 26.1894L51.3726 31.3622L68.2116 31.3622C70.9805 31.3622 72.2684 30.5814 72.7514 28.9548L74.329 23.7819H57.4901C54.7211 23.7819 53.4654 24.5627 52.9503 26.1894ZM80.7682 5.23793L82.3463 0.0651257L65.507 0.0651257C62.706 0.0651257 61.4502 0.845925 60.9673 2.47259L59.3897 7.6454L76.2286 7.6454C78.9979 7.6454 80.253 6.8646 80.7682 5.23793ZM55.3329 6.279C54.6245 1.46406 52.0809 0.0651257 45.8992 0.0651257L34.6303 0.0651257L28.0622 19.4875H32.2155C34.6947 19.4875 35.9504 19.5201 37.2705 15.9414L40.0072 7.61286L44.1927 7.61286C47.7666 7.61286 46.9617 12.135 45.1586 16.527C43.5489 20.3984 40.7477 23.8145 37.367 23.8145L30.3804 23.8145C27.5792 23.8145 26.2914 24.5953 25.7762 26.222L24.0375 31.3947H29.1569L34.1796 31.3622C38.6227 31.3296 42.2609 31.0043 46.5109 27.1329C51.0185 23.0011 56.2344 12.3952 55.3329 6.279ZM111.935 0.0325928L102.18 0.0325928L93.0033 9.89019C91.9404 11.0288 90.8459 12.1675 89.7831 13.5014H89.6865L94.2584 0.0325928L86.3064 0.0325928L75.5846 31.3622L83.5373 31.3622L86.9499 21.5046L90.4914 18.479L93.2929 27.3932C94.1619 30.1584 95.0641 31.3622 96.9959 31.3622L103.081 31.3622L96.8344 13.8593L111.935 0.0325928Z" fill="#00B33C"/>
</svg>
