<svg width="26" height="26" viewBox="0 0 26 26" fill="none" xmlns="http://www.w3.org/2000/svg">
<g clip-path="url(#clip0_7101_16726)">
<path d="M19.5958 14.69C19.2725 14.2817 19.365 14.1 19.5958 13.735C19.6 13.7308 22.2692 10.0425 22.5442 8.79167L22.5458 8.79083C22.6825 8.335 22.5458 8 21.885 8H19.6983C19.1417 8 18.885 8.2875 18.7475 8.60917C18.7475 8.60917 17.6342 11.2742 16.0592 13.0017C15.5508 13.5008 15.3158 13.6608 15.0383 13.6608C14.9017 13.6608 14.6892 13.5008 14.6892 13.045V8.79083C14.6892 8.24417 14.5333 8 14.0725 8H10.6342C10.285 8 10.0775 8.255 10.0775 8.4925C10.0775 9.01083 10.865 9.13 10.9467 10.5883V13.7525C10.9467 14.4458 10.8208 14.5733 10.5417 14.5733C9.79833 14.5733 7.99417 11.8975 6.925 8.835C6.70917 8.24083 6.49833 8.00083 5.9375 8.00083H3.75C3.12583 8.00083 3 8.28833 3 8.61C3 9.17833 3.74333 12.0042 6.45667 15.7375C8.265 18.2858 10.8117 19.6667 13.1283 19.6667C14.5208 19.6667 14.6908 19.36 14.6908 18.8325C14.6908 16.3975 14.565 16.1675 15.2625 16.1675C15.5858 16.1675 16.1425 16.3275 17.4425 17.5567C18.9283 19.0142 19.1725 19.6667 20.0042 19.6667H22.1908C22.8142 19.6667 23.13 19.36 22.9483 18.755C22.5325 17.4825 19.7225 14.865 19.5958 14.69Z" fill="#28CB47"/>
</g>
<defs>
<clipPath id="clip0_7101_16726">
<rect width="26" height="26" rx="13" fill="white"/>
</clipPath>
</defs>
</svg>
