<svg width="26" height="26" viewBox="0 0 26 26" fill="none" xmlns="http://www.w3.org/2000/svg">
<path d="M5.04224 12.097C5.04224 12.097 12.5609 9.02377 15.1685 7.9416C16.1682 7.50877 19.5581 6.12358 19.5581 6.12358C19.5581 6.12358 21.1227 5.51762 20.9923 6.98931C20.9488 7.59533 20.6011 9.7163 20.2535 12.0105C19.7319 15.2569 19.1669 18.8063 19.1669 18.8063C19.1669 18.8063 19.08 19.8019 18.3412 19.9751C17.6024 20.1482 16.3854 19.3691 16.1682 19.1959C15.9943 19.0661 12.9086 17.1182 11.7786 16.1659C11.4744 15.9062 11.1267 15.3868 11.8221 14.7808C13.3867 13.3523 15.2555 11.5776 16.3854 10.4522C16.907 9.93275 17.4285 8.72076 15.2555 10.1924C12.1698 12.3135 9.12754 14.3046 9.12754 14.3046C9.12754 14.3046 8.43215 14.7375 7.12835 14.3479C5.82449 13.9584 4.30336 13.4389 4.30336 13.4389C4.30336 13.4389 3.26037 12.7896 5.04224 12.097Z" fill="#28CB47"/>
</svg>
