<svg width="24" height="24" viewBox="0 0 24 24" fill="none" xmlns="http://www.w3.org/2000/svg">
<g clip-path="url(#clip0_7101_16717)">
<path d="M10.5001 12.75C10.8222 13.1806 11.2332 13.5369 11.7051 13.7947C12.177 14.0525 12.6988 14.2058 13.2351 14.2442C13.7715 14.2826 14.3098 14.2053 14.8137 14.0173C15.3175 13.8294 15.775 13.5353 16.1552 13.155L18.4052 10.905C19.0882 10.1977 19.4662 9.25046 19.4577 8.26722C19.4491 7.28398 19.0548 6.34344 18.3595 5.64815C17.6642 4.95287 16.7236 4.55849 15.7404 4.54995C14.7572 4.5414 13.8099 4.91938 13.1026 5.60247L11.8126 6.88497M13.5001 11.25C13.1781 10.8194 12.7671 10.4631 12.2952 10.2053C11.8233 9.94745 11.3015 9.79414 10.7652 9.75572C10.2288 9.71731 9.69046 9.7947 9.18664 9.98264C8.68282 10.1706 8.22531 10.4647 7.84515 10.845L5.59515 13.095C4.91206 13.8022 4.53408 14.7495 4.54262 15.7327C4.55117 16.716 4.94555 17.6565 5.64083 18.3518C6.33611 19.0471 7.27666 19.4415 8.2599 19.45C9.24313 19.4585 10.1904 19.0806 10.8976 18.3975L12.1801 17.115" stroke="#28CB47" stroke-width="1.5" stroke-linecap="round" stroke-linejoin="round"/>
</g>
<defs>
<clipPath id="clip0_7101_16717">
<rect width="18" height="18" fill="white" transform="translate(3 3)"/>
</clipPath>
</defs>
</svg>
