<svg width="26" height="26" viewBox="0 0 26 26" fill="none" xmlns="http://www.w3.org/2000/svg">
<g clip-path="url(#clip0_7101_16721)">
<path d="M17.2275 14.0591C17.1951 14.0422 15.9822 13.3945 15.7667 13.3104C15.6787 13.2761 15.5844 13.2427 15.4841 13.2427C15.3204 13.2427 15.1828 13.3312 15.0756 13.505C14.9544 13.7004 14.5877 14.1653 14.4743 14.3042C14.4595 14.3225 14.4393 14.3445 14.4272 14.3445C14.4164 14.3445 14.2287 14.2606 14.1718 14.2339C12.8707 13.6209 11.8831 12.1469 11.7477 11.8984C11.7283 11.8626 11.7275 11.8464 11.7274 11.8464C11.7321 11.8275 11.7759 11.7799 11.7984 11.7554C11.8645 11.6845 11.9361 11.5911 12.0053 11.5007C12.0381 11.4578 12.071 11.415 12.1032 11.3745C12.2037 11.2478 12.2484 11.1494 12.3003 11.0354L12.3274 10.9761C12.4541 10.7033 12.3459 10.4731 12.311 10.3987C12.2823 10.3365 11.7701 8.99607 11.7157 8.85524C11.5848 8.51541 11.4117 8.35718 11.1713 8.35718C11.149 8.35718 11.1713 8.35718 11.0777 8.36145C10.9638 8.36667 10.3434 8.45524 10.0691 8.64276C9.77824 8.84165 9.28613 9.47562 9.28613 10.5905C9.28613 11.594 9.87331 12.5414 10.1254 12.9018C10.1317 12.9108 10.1432 12.9293 10.1599 12.9558C11.1253 14.4849 12.3289 15.6181 13.549 16.1467C14.7236 16.6555 15.2798 16.7143 15.5961 16.7143H15.5961C15.729 16.7143 15.8354 16.703 15.9292 16.693L15.9887 16.6868C16.3945 16.6478 17.2862 16.1467 17.4891 15.5354C17.6489 15.0539 17.691 14.5279 17.5847 14.337C17.5119 14.2071 17.3864 14.1418 17.2275 14.0591Z" fill="#28CB47"/>
<path d="M13.1486 4.64288C8.62182 4.64288 4.93903 8.29799 4.93903 12.7907C4.93903 14.2438 5.32791 15.6662 6.06458 16.9111L4.65456 21.0704C4.62829 21.148 4.64783 21.2337 4.70519 21.2921C4.7466 21.3344 4.80276 21.3572 4.86012 21.3572C4.8821 21.3572 4.90424 21.3539 4.92584 21.347L9.26288 19.9688C10.4497 20.6029 11.7911 20.9376 13.1486 20.9376C17.6749 20.9377 21.3574 17.283 21.3574 12.7907C21.3574 8.29799 17.6749 4.64288 13.1486 4.64288ZM13.1486 19.2404C11.8712 19.2404 10.6339 18.8716 9.57041 18.1737C9.53465 18.1502 9.49313 18.1382 9.45135 18.1382C9.42926 18.1382 9.40712 18.1415 9.38557 18.1484L7.21299 18.839L7.91434 16.7698C7.93702 16.7028 7.92568 16.629 7.88389 16.5719C7.07401 15.4653 6.64589 14.1578 6.64589 12.7907C6.64589 9.23389 9.56297 6.34014 13.1485 6.34014C16.7336 6.34014 19.6504 9.23389 19.6504 12.7907C19.6504 16.3471 16.7337 19.2404 13.1486 19.2404Z" fill="#28CB47"/>
</g>
<defs>
<clipPath id="clip0_7101_16721">
<rect width="26" height="26" rx="13" fill="white"/>
</clipPath>
</defs>
</svg>
