<svg width="232" height="40" viewBox="0 0 232 40" fill="none" xmlns="http://www.w3.org/2000/svg">
<path d="M18.8041 5.75561C19.1882 4.97738 19.3803 4.58826 19.6411 4.46394C19.8679 4.35577 20.1315 4.35577 20.3583 4.46394C20.6191 4.58826 20.8112 4.97738 21.1953 5.75561L24.8398 13.1389C24.9532 13.3686 25.0099 13.4835 25.0928 13.5727C25.1661 13.6517 25.2541 13.7157 25.3519 13.7611C25.4623 13.8125 25.589 13.831 25.8425 13.868L33.9947 15.0596C34.8531 15.1851 35.2823 15.2478 35.481 15.4575C35.6538 15.6399 35.7351 15.8906 35.7022 16.1397C35.6644 16.426 35.3536 16.7287 34.7321 17.334L28.8354 23.0774C28.6516 23.2565 28.5597 23.346 28.5004 23.4525C28.4479 23.5468 28.4142 23.6504 28.4012 23.7576C28.3865 23.8786 28.4082 24.0051 28.4516 24.258L29.8429 32.3703C29.9897 33.2259 30.0631 33.6537 29.9252 33.9076C29.8052 34.1285 29.5919 34.2834 29.3448 34.3292C29.0607 34.3819 28.6765 34.1798 27.9082 33.7758L20.6203 29.9431C20.3932 29.8237 20.2797 29.764 20.1601 29.7406C20.0542 29.7198 19.9452 29.7198 19.8393 29.7406C19.7197 29.764 19.6062 29.8237 19.3791 29.9431L12.0912 33.7758C11.3229 34.1798 10.9387 34.3819 10.6546 34.3292C10.4075 34.2834 10.1942 34.1285 10.0742 33.9076C9.93634 33.6537 10.0097 33.2259 10.1565 32.3703L11.5478 24.258C11.5912 24.0051 11.6129 23.8786 11.5982 23.7576C11.5852 23.6504 11.5515 23.5468 11.499 23.4525C11.4397 23.346 11.3478 23.2565 11.164 23.0774L5.26727 17.334C4.64578 16.7287 4.33503 16.426 4.29722 16.1397C4.26432 15.8906 4.3456 15.6399 4.51843 15.4575C4.71707 15.2478 5.14629 15.1851 6.00475 15.0596L14.1569 13.868C14.4104 13.831 14.5371 13.8125 14.6475 13.7611C14.7453 13.7157 14.8333 13.6517 14.9066 13.5727C14.9895 13.4835 15.0462 13.3686 15.1596 13.1389L18.8041 5.75561Z" fill="#F8B808"/>
<path d="M66.8041 5.75561C67.1882 4.97738 67.3803 4.58826 67.6411 4.46394C67.8679 4.35577 68.1315 4.35577 68.3583 4.46394C68.6191 4.58826 68.8112 4.97738 69.1953 5.75561L72.8398 13.1389C72.9532 13.3686 73.0099 13.4835 73.0928 13.5727C73.1661 13.6517 73.2541 13.7157 73.3519 13.7611C73.4623 13.8125 73.589 13.831 73.8425 13.868L81.9947 15.0596C82.8531 15.1851 83.2823 15.2478 83.481 15.4575C83.6538 15.6399 83.7351 15.8906 83.7022 16.1397C83.6644 16.426 83.3536 16.7287 82.7321 17.334L76.8354 23.0774C76.6516 23.2565 76.5597 23.346 76.5004 23.4525C76.4479 23.5468 76.4142 23.6504 76.4012 23.7576C76.3865 23.8786 76.4082 24.0051 76.4516 24.258L77.8429 32.3703C77.9897 33.2259 78.0631 33.6537 77.9252 33.9076C77.8052 34.1285 77.5919 34.2834 77.3448 34.3292C77.0607 34.3819 76.6765 34.1798 75.9082 33.7758L68.6203 29.9431C68.3932 29.8237 68.2797 29.764 68.1601 29.7406C68.0542 29.7198 67.9452 29.7198 67.8393 29.7406C67.7197 29.764 67.6062 29.8237 67.3791 29.9431L60.0912 33.7758C59.3229 34.1798 58.9387 34.3819 58.6546 34.3292C58.4075 34.2834 58.1942 34.1285 58.0742 33.9076C57.9363 33.6537 58.0097 33.2259 58.1565 32.3703L59.5478 24.258C59.5912 24.0051 59.6129 23.8786 59.5982 23.7576C59.5852 23.6504 59.5515 23.5468 59.499 23.4525C59.4397 23.346 59.3478 23.2565 59.164 23.0774L53.2673 17.334C52.6458 16.7287 52.335 16.426 52.2972 16.1397C52.2643 15.8906 52.3456 15.6399 52.5184 15.4575C52.7171 15.2478 53.1463 15.1851 54.0047 15.0596L62.1569 13.868C62.4104 13.831 62.5371 13.8125 62.6475 13.7611C62.7453 13.7157 62.8333 13.6517 62.9066 13.5727C62.9895 13.4835 63.0462 13.3686 63.1596 13.1389L66.8041 5.75561Z" fill="#F8B808"/>
<path d="M114.804 5.75561C115.188 4.97738 115.38 4.58826 115.641 4.46394C115.868 4.35577 116.131 4.35577 116.358 4.46394C116.619 4.58826 116.811 4.97738 117.195 5.75561L120.84 13.1389C120.953 13.3686 121.01 13.4835 121.093 13.5727C121.166 13.6517 121.254 13.7157 121.352 13.7611C121.462 13.8125 121.589 13.831 121.843 13.868L129.995 15.0596C130.853 15.1851 131.282 15.2478 131.481 15.4575C131.654 15.6399 131.735 15.8906 131.702 16.1397C131.664 16.426 131.354 16.7287 130.732 17.334L124.835 23.0774C124.652 23.2565 124.56 23.346 124.5 23.4525C124.448 23.5468 124.414 23.6504 124.401 23.7576C124.387 23.8786 124.408 24.0051 124.452 24.258L125.843 32.3703C125.99 33.2259 126.063 33.6537 125.925 33.9076C125.805 34.1285 125.592 34.2834 125.345 34.3292C125.061 34.3819 124.677 34.1798 123.908 33.7758L116.62 29.9431C116.393 29.8237 116.28 29.764 116.16 29.7406C116.054 29.7198 115.945 29.7198 115.839 29.7406C115.72 29.764 115.606 29.8237 115.379 29.9431L108.091 33.7758C107.323 34.1798 106.939 34.3819 106.655 34.3292C106.407 34.2834 106.194 34.1285 106.074 33.9076C105.936 33.6537 106.01 33.2259 106.156 32.3703L107.548 24.258C107.591 24.0051 107.613 23.8786 107.598 23.7576C107.585 23.6504 107.552 23.5468 107.499 23.4525C107.44 23.346 107.348 23.2565 107.164 23.0774L101.267 17.334C100.646 16.7287 100.335 16.426 100.297 16.1397C100.264 15.8906 100.346 15.6399 100.518 15.4575C100.717 15.2478 101.146 15.1851 102.005 15.0596L110.157 13.868C110.41 13.831 110.537 13.8125 110.648 13.7611C110.745 13.7157 110.833 13.6517 110.907 13.5727C110.99 13.4835 111.046 13.3686 111.16 13.1389L114.804 5.75561Z" fill="#F8B808"/>
<path d="M162.804 5.75561C163.188 4.97738 163.38 4.58826 163.641 4.46394C163.868 4.35577 164.131 4.35577 164.358 4.46394C164.619 4.58826 164.811 4.97738 165.195 5.75561L168.84 13.1389C168.953 13.3686 169.01 13.4835 169.093 13.5727C169.166 13.6517 169.254 13.7157 169.352 13.7611C169.462 13.8125 169.589 13.831 169.843 13.868L177.995 15.0596C178.853 15.1851 179.282 15.2478 179.481 15.4575C179.654 15.6399 179.735 15.8906 179.702 16.1397C179.664 16.426 179.354 16.7287 178.732 17.334L172.835 23.0774C172.652 23.2565 172.56 23.346 172.5 23.4525C172.448 23.5468 172.414 23.6504 172.401 23.7576C172.387 23.8786 172.408 24.0051 172.452 24.258L173.843 32.3703C173.99 33.2259 174.063 33.6537 173.925 33.9076C173.805 34.1285 173.592 34.2834 173.345 34.3292C173.061 34.3819 172.677 34.1798 171.908 33.7758L164.62 29.9431C164.393 29.8237 164.28 29.764 164.16 29.7406C164.054 29.7198 163.945 29.7198 163.839 29.7406C163.72 29.764 163.606 29.8237 163.379 29.9431L156.091 33.7758C155.323 34.1798 154.939 34.3819 154.655 34.3292C154.407 34.2834 154.194 34.1285 154.074 33.9076C153.936 33.6537 154.01 33.2259 154.156 32.3703L155.548 24.258C155.591 24.0051 155.613 23.8786 155.598 23.7576C155.585 23.6504 155.552 23.5468 155.499 23.4525C155.44 23.346 155.348 23.2565 155.164 23.0774L149.267 17.334C148.646 16.7287 148.335 16.426 148.297 16.1397C148.264 15.8906 148.346 15.6399 148.518 15.4575C148.717 15.2478 149.146 15.1851 150.005 15.0596L158.157 13.868C158.41 13.831 158.537 13.8125 158.648 13.7611C158.745 13.7157 158.833 13.6517 158.907 13.5727C158.99 13.4835 159.046 13.3686 159.16 13.1389L162.804 5.75561Z" fill="#F8B808"/>
<path d="M210.804 5.75561C211.188 4.97738 211.38 4.58826 211.641 4.46394C211.868 4.35577 212.131 4.35577 212.358 4.46394C212.619 4.58826 212.811 4.97738 213.195 5.75561L216.84 13.1389C216.953 13.3686 217.01 13.4835 217.093 13.5727C217.166 13.6517 217.254 13.7157 217.352 13.7611C217.462 13.8125 217.589 13.831 217.843 13.868L225.995 15.0596C226.853 15.1851 227.282 15.2478 227.481 15.4575C227.654 15.6399 227.735 15.8906 227.702 16.1397C227.664 16.426 227.354 16.7287 226.732 17.334L220.835 23.0774C220.652 23.2565 220.56 23.346 220.5 23.4525C220.448 23.5468 220.414 23.6504 220.401 23.7576C220.387 23.8786 220.408 24.0051 220.452 24.258L221.843 32.3703C221.99 33.2259 222.063 33.6537 221.925 33.9076C221.805 34.1285 221.592 34.2834 221.345 34.3292C221.061 34.3819 220.677 34.1798 219.908 33.7758L212.62 29.9431C212.393 29.8237 212.28 29.764 212.16 29.7406C212.054 29.7198 211.945 29.7198 211.839 29.7406C211.72 29.764 211.606 29.8237 211.379 29.9431L204.091 33.7758C203.323 34.1798 202.939 34.3819 202.655 34.3292C202.407 34.2834 202.194 34.1285 202.074 33.9076C201.936 33.6537 202.01 33.2259 202.156 32.3703L203.548 24.258C203.591 24.0051 203.613 23.8786 203.598 23.7576C203.585 23.6504 203.552 23.5468 203.499 23.4525C203.44 23.346 203.348 23.2565 203.164 23.0774L197.267 17.334C196.646 16.7287 196.335 16.426 196.297 16.1397C196.264 15.8906 196.346 15.6399 196.518 15.4575C196.717 15.2478 197.146 15.1851 198.005 15.0596L206.157 13.868C206.41 13.831 206.537 13.8125 206.648 13.7611C206.745 13.7157 206.833 13.6517 206.907 13.5727C206.99 13.4835 207.046 13.3686 207.16 13.1389L210.804 5.75561Z" fill="#F8B808"/>
</svg>
