<svg width="32" height="33" viewBox="0 0 32 33" fill="none" xmlns="http://www.w3.org/2000/svg">
<rect y="0.163818" width="32" height="32" rx="16" fill="#3390EC"/>
<path d="M9.27609 15.3601C9.27609 15.3601 15.7061 12.6246 17.9361 11.6613C18.791 11.2761 21.6901 10.0431 21.6901 10.0431C21.6901 10.0431 23.0281 9.50373 22.9166 10.8137C22.8794 11.3531 22.5821 13.241 22.2848 15.2831C21.8387 18.1728 21.3556 21.3321 21.3556 21.3321C21.3556 21.3321 21.2812 22.2183 20.6494 22.3724C20.0176 22.5266 18.9768 21.8331 18.791 21.6789C18.6423 21.5634 16.0034 19.8295 15.0371 18.9819C14.7769 18.7507 14.4796 18.2884 15.0742 17.749C16.4123 16.4775 18.0105 14.8978 18.9768 13.8961C19.4229 13.4337 19.8688 12.3549 18.0105 13.6648C15.3716 15.5528 12.7699 17.3251 12.7699 17.3251C12.7699 17.3251 12.1752 17.7104 11.0601 17.3636C9.94507 17.0169 8.6442 16.5545 8.6442 16.5545C8.6442 16.5545 7.75223 15.9766 9.27609 15.3601Z" fill="white"/>
</svg>
