<svg width="553" height="84" viewBox="0 0 553 84" fill="none" xmlns="http://www.w3.org/2000/svg">
<path d="M16.8 23.648C15.6907 24.096 14.624 24.4373 13.6 24.672C12.576 24.8853 11.5947 24.992 10.656 24.992C7.648 24.992 5.344 24.2773 3.744 22.848C2.144 21.3973 1.344 19.3173 1.344 16.608V9.6H6.464V16.032C6.464 17.568 6.88 18.7307 7.712 19.52C8.544 20.288 9.728 20.672 11.264 20.672C12.2453 20.672 13.1947 20.5653 14.112 20.352C15.0293 20.1173 15.8827 19.7867 16.672 19.36L16.8 23.648ZM16.064 32V9.6H21.184V32H16.064ZM34.7848 32.256C32.8221 32.256 31.0941 31.872 29.6008 31.104C28.1288 30.336 26.9874 29.2907 26.1768 27.968C25.3661 26.624 24.9608 25.0987 24.9608 23.392C24.9608 21.664 25.3554 20.1387 26.1448 18.816C26.9554 17.472 28.0541 16.4267 29.4408 15.68C30.8274 14.912 32.3954 14.528 34.1448 14.528C35.8301 14.528 37.3448 14.8907 38.6888 15.616C40.0541 16.32 41.1314 17.344 41.9208 18.688C42.7101 20.0107 43.1048 21.6 43.1048 23.456C43.1048 23.648 43.0941 23.872 43.0728 24.128C43.0514 24.3627 43.0301 24.5867 43.0088 24.8H29.0248V21.888H40.3848L38.4648 22.752C38.4648 21.856 38.2834 21.0773 37.9208 20.416C37.5581 19.7547 37.0568 19.2427 36.4168 18.88C35.7768 18.496 35.0301 18.304 34.1768 18.304C33.3234 18.304 32.5661 18.496 31.9048 18.88C31.2648 19.2427 30.7634 19.7653 30.4008 20.448C30.0381 21.1093 29.8568 21.8987 29.8568 22.816V23.584C29.8568 24.5227 30.0594 25.3547 30.4648 26.08C30.8914 26.784 31.4781 27.328 32.2248 27.712C32.9928 28.0747 33.8888 28.256 34.9128 28.256C35.8301 28.256 36.6301 28.1173 37.3128 27.84C38.0168 27.5627 38.6568 27.1467 39.2328 26.592L41.8888 29.472C41.0994 30.368 40.1074 31.0613 38.9128 31.552C37.7181 32.0213 36.3421 32.256 34.7848 32.256ZM55.1233 32.256C53.2673 32.256 51.6139 31.8827 50.1633 31.136C48.7126 30.368 47.5713 29.312 46.7393 27.968C45.9286 26.624 45.5233 25.0987 45.5233 23.392C45.5233 21.664 45.9286 20.1387 46.7393 18.816C47.5713 17.472 48.7126 16.4267 50.1633 15.68C51.6139 14.912 53.2673 14.528 55.1233 14.528C56.9366 14.528 58.5153 14.912 59.8593 15.68C61.2033 16.4267 62.1953 17.504 62.8353 18.912L58.9633 20.992C58.5153 20.1813 57.9499 19.584 57.2673 19.2C56.6059 18.816 55.8806 18.624 55.0913 18.624C54.2379 18.624 53.4699 18.816 52.7873 19.2C52.1046 19.584 51.5606 20.128 51.1553 20.832C50.7713 21.536 50.5793 22.3893 50.5793 23.392C50.5793 24.3947 50.7713 25.248 51.1553 25.952C51.5606 26.656 52.1046 27.2 52.7873 27.584C53.4699 27.968 54.2379 28.16 55.0913 28.16C55.8806 28.16 56.6059 27.9787 57.2673 27.616C57.9499 27.232 58.5153 26.624 58.9633 25.792L62.8353 27.904C62.1953 29.2907 61.2033 30.368 59.8593 31.136C58.5153 31.8827 56.9366 32.256 55.1233 32.256ZM69.5175 32V17.728L70.6375 18.88H63.6935V14.784H80.3015V18.88H73.3575L74.4775 17.728V32H69.5175ZM82.9625 32V14.784H87.9225V21.504H95.4105V14.784H100.403V32H95.4105V25.568H87.9225V32H82.9625ZM122.909 32V14.784H127.869V32H122.909ZM114.237 20.288C116.499 20.3093 118.195 20.8213 119.325 21.824C120.477 22.8053 121.053 24.2027 121.053 26.016C121.053 27.9147 120.403 29.3973 119.101 30.464C117.8 31.5093 115.955 32.032 113.565 32.032L105.181 32V14.784H110.141V20.288H114.237ZM113.117 28.48C114.077 28.5013 114.813 28.2987 115.325 27.872C115.837 27.4453 116.093 26.8053 116.093 25.952C116.093 25.0987 115.837 24.4907 115.325 24.128C114.813 23.744 114.077 23.5413 113.117 23.52L110.141 23.488V28.48H113.117ZM141.097 32.256C139.135 32.256 137.407 31.872 135.913 31.104C134.441 30.336 133.3 29.2907 132.489 27.968C131.679 26.624 131.273 25.0987 131.273 23.392C131.273 21.664 131.668 20.1387 132.457 18.816C133.268 17.472 134.367 16.4267 135.753 15.68C137.14 14.912 138.708 14.528 140.457 14.528C142.143 14.528 143.657 14.8907 145.001 15.616C146.367 16.32 147.444 17.344 148.233 18.688C149.023 20.0107 149.417 21.6 149.417 23.456C149.417 23.648 149.407 23.872 149.385 24.128C149.364 24.3627 149.343 24.5867 149.321 24.8H135.337V21.888H146.697L144.777 22.752C144.777 21.856 144.596 21.0773 144.233 20.416C143.871 19.7547 143.369 19.2427 142.729 18.88C142.089 18.496 141.343 18.304 140.489 18.304C139.636 18.304 138.879 18.496 138.217 18.88C137.577 19.2427 137.076 19.7653 136.713 20.448C136.351 21.1093 136.169 21.8987 136.169 22.816V23.584C136.169 24.5227 136.372 25.3547 136.777 26.08C137.204 26.784 137.791 27.328 138.537 27.712C139.305 28.0747 140.201 28.256 141.225 28.256C142.143 28.256 142.943 28.1173 143.625 27.84C144.329 27.5627 144.969 27.1467 145.545 26.592L148.201 29.472C147.412 30.368 146.42 31.0613 145.225 31.552C144.031 32.0213 142.655 32.256 141.097 32.256ZM170.37 32.256C168.536 32.256 166.904 31.872 165.474 31.104C164.066 30.336 162.946 29.2907 162.114 27.968C161.304 26.624 160.898 25.0987 160.898 23.392C160.898 21.664 161.304 20.1387 162.114 18.816C162.946 17.472 164.066 16.4267 165.474 15.68C166.904 14.912 168.536 14.528 170.37 14.528C172.184 14.528 173.805 14.912 175.234 15.68C176.664 16.4267 177.784 17.4613 178.594 18.784C179.405 20.1067 179.81 21.6427 179.81 23.392C179.81 25.0987 179.405 26.624 178.594 27.968C177.784 29.2907 176.664 30.336 175.234 31.104C173.805 31.872 172.184 32.256 170.37 32.256ZM170.37 28.16C171.202 28.16 171.949 27.968 172.61 27.584C173.272 27.2 173.794 26.656 174.178 25.952C174.562 25.2267 174.754 24.3733 174.754 23.392C174.754 22.3893 174.562 21.536 174.178 20.832C173.794 20.128 173.272 19.584 172.61 19.2C171.949 18.816 171.202 18.624 170.37 18.624C169.538 18.624 168.792 18.816 168.13 19.2C167.469 19.584 166.936 20.128 166.53 20.832C166.146 21.536 165.954 22.3893 165.954 23.392C165.954 24.3733 166.146 25.2267 166.53 25.952C166.936 26.656 167.469 27.2 168.13 27.584C168.792 27.968 169.538 28.16 170.37 28.16ZM186.299 32V17.728L187.419 18.88H180.475V14.784H197.083V18.88H190.139L191.259 17.728V32H186.299ZM205.38 32.32C204.058 32.32 202.735 32.1813 201.412 31.904C200.111 31.6267 198.906 31.2107 197.796 30.656L199.14 27.168C200.015 27.5947 200.964 27.9253 201.988 28.16C203.034 28.3733 204.09 28.48 205.156 28.48C205.924 28.48 206.586 28.4053 207.14 28.256C207.716 28.0853 208.154 27.8507 208.452 27.552C208.751 27.2533 208.9 26.8907 208.9 26.464C208.9 25.9093 208.666 25.4933 208.196 25.216C207.727 24.9173 207.044 24.768 206.148 24.768H202.628V21.664H205.732C206.308 21.664 206.799 21.6 207.204 21.472C207.61 21.344 207.908 21.1627 208.1 20.928C208.314 20.672 208.42 20.3733 208.42 20.032C208.42 19.6693 208.292 19.36 208.036 19.104C207.78 18.848 207.407 18.656 206.916 18.528C206.426 18.3787 205.807 18.304 205.06 18.304C204.207 18.304 203.322 18.4107 202.404 18.624C201.487 18.816 200.548 19.104 199.588 19.488L198.372 16.032C199.503 15.5627 200.623 15.1893 201.732 14.912C202.842 14.6347 203.94 14.4853 205.028 14.464C206.628 14.4213 208.068 14.592 209.348 14.976C210.628 15.36 211.631 15.9147 212.356 16.64C213.103 17.3653 213.476 18.2507 213.476 19.296C213.476 20.128 213.22 20.8747 212.708 21.536C212.218 22.1973 211.535 22.72 210.66 23.104C209.786 23.4667 208.804 23.648 207.716 23.648L207.844 22.656C209.743 22.656 211.236 23.04 212.324 23.808C213.412 24.5547 213.956 25.5787 213.956 26.88C213.956 27.9893 213.572 28.96 212.804 29.792C212.058 30.6027 211.034 31.232 209.732 31.68C208.452 32.1067 207.002 32.32 205.38 32.32ZM235.253 32V14.784H240.213V32H235.253ZM226.581 20.288C228.842 20.3093 230.538 20.8213 231.669 21.824C232.821 22.8053 233.397 24.2027 233.397 26.016C233.397 27.9147 232.746 29.3973 231.445 30.464C230.144 31.5093 228.298 32.032 225.909 32.032L217.525 32V14.784H222.485V20.288H226.581ZM225.461 28.48C226.421 28.5013 227.157 28.2987 227.669 27.872C228.181 27.4453 228.437 26.8053 228.437 25.952C228.437 25.0987 228.181 24.4907 227.669 24.128C227.157 23.744 226.421 23.5413 225.461 23.52L222.485 23.488V28.48H225.461ZM245.025 32V14.784H253.825C255.98 14.784 257.665 15.1787 258.881 15.968C260.097 16.736 260.705 17.824 260.705 19.232C260.705 20.64 260.129 21.7493 258.977 22.56C257.846 23.3493 256.342 23.744 254.465 23.744L254.977 22.592C257.068 22.592 258.625 22.976 259.649 23.744C260.694 24.512 261.217 25.632 261.217 27.104C261.217 28.6187 260.641 29.8133 259.489 30.688C258.337 31.5627 256.577 32 254.209 32H245.025ZM249.601 28.608H253.793C254.71 28.608 255.393 28.4587 255.841 28.16C256.31 27.84 256.545 27.36 256.545 26.72C256.545 26.0587 256.332 25.5787 255.905 25.28C255.478 24.96 254.806 24.8 253.889 24.8H249.601V28.608ZM249.601 21.856H253.377C254.252 21.856 254.902 21.696 255.329 21.376C255.777 21.056 256.001 20.5973 256.001 20C256.001 19.3813 255.777 18.9227 255.329 18.624C254.902 18.3253 254.252 18.176 253.377 18.176H249.601V21.856ZM282.659 32V14.784H287.619V32H282.659ZM273.987 20.288C276.249 20.3093 277.945 20.8213 279.075 21.824C280.227 22.8053 280.803 24.2027 280.803 26.016C280.803 27.9147 280.153 29.3973 278.851 30.464C277.55 31.5093 275.705 32.032 273.315 32.032L264.931 32V14.784H269.891V20.288H273.987ZM272.867 28.48C273.827 28.5013 274.563 28.2987 275.075 27.872C275.587 27.4453 275.843 26.8053 275.843 25.952C275.843 25.0987 275.587 24.4907 275.075 24.128C274.563 23.744 273.827 23.5413 272.867 23.52L269.891 23.488V28.48H272.867ZM301.494 32V14.784H306.454V21.504H313.942V14.784H318.934V32H313.942V25.568H306.454V32H301.494ZM334.017 32V28.64L333.697 27.904V21.888C333.697 20.8213 333.366 19.9893 332.705 19.392C332.065 18.7947 331.073 18.496 329.729 18.496C328.811 18.496 327.905 18.6453 327.009 18.944C326.134 19.2213 325.387 19.6053 324.769 20.096L322.977 16.608C323.915 15.9467 325.046 15.4347 326.369 15.072C327.691 14.7093 329.035 14.528 330.401 14.528C333.025 14.528 335.062 15.1467 336.513 16.384C337.963 17.6213 338.689 19.552 338.689 22.176V32H334.017ZM328.769 32.256C327.425 32.256 326.273 32.032 325.312 31.584C324.353 31.1147 323.617 30.4853 323.105 29.696C322.593 28.9067 322.337 28.0213 322.337 27.04C322.337 26.016 322.582 25.12 323.073 24.352C323.585 23.584 324.385 22.9867 325.473 22.56C326.561 22.112 327.979 21.888 329.729 21.888H334.305V24.8H330.273C329.099 24.8 328.289 24.992 327.841 25.376C327.414 25.76 327.201 26.24 327.201 26.816C327.201 27.456 327.446 27.968 327.937 28.352C328.449 28.7147 329.142 28.896 330.017 28.896C330.849 28.896 331.595 28.704 332.257 28.32C332.918 27.9147 333.398 27.328 333.697 26.56L334.465 28.864C334.102 29.9733 333.441 30.816 332.481 31.392C331.521 31.968 330.283 32.256 328.769 32.256ZM354.769 27.904L353.681 29.056V14.784H358.673V29.056L357.521 27.904H365.457L364.337 29.056V14.784H369.297V32H343.025V14.784H347.985V29.056L346.865 27.904H354.769ZM374.088 32V14.784H379.048V25.024L387.432 14.784H392.008V32H387.048V21.76L378.696 32H374.088ZM394.502 32L402.214 21.888L402.118 24.64L394.726 14.784H400.326L404.998 21.216L402.886 21.28L407.718 14.784H413.03L405.606 24.544V21.856L413.286 32H407.622L402.726 25.152L404.806 25.44L399.942 32H394.502ZM2.4 74V56.784H19.52V74H14.528V59.76L15.648 60.88H6.24L7.36 59.76V74H2.4ZM32.3703 74.256C30.5356 74.256 28.9036 73.872 27.4743 73.104C26.0663 72.336 24.9463 71.2907 24.1143 69.968C23.3036 68.624 22.8983 67.0987 22.8983 65.392C22.8983 63.664 23.3036 62.1387 24.1143 60.816C24.9463 59.472 26.0663 58.4267 27.4743 57.68C28.9036 56.912 30.5356 56.528 32.3703 56.528C34.1836 56.528 35.8049 56.912 37.2343 57.68C38.6636 58.4267 39.7836 59.4613 40.5943 60.784C41.4049 62.1067 41.8103 63.6427 41.8103 65.392C41.8103 67.0987 41.4049 68.624 40.5943 69.968C39.7836 71.2907 38.6636 72.336 37.2343 73.104C35.8049 73.872 34.1836 74.256 32.3703 74.256ZM32.3703 70.16C33.2023 70.16 33.9489 69.968 34.6103 69.584C35.2716 69.2 35.7943 68.656 36.1783 67.952C36.5623 67.2267 36.7543 66.3733 36.7543 65.392C36.7543 64.3893 36.5623 63.536 36.1783 62.832C35.7943 62.128 35.2716 61.584 34.6103 61.2C33.9489 60.816 33.2023 60.624 32.3703 60.624C31.5383 60.624 30.7916 60.816 30.1302 61.2C29.4689 61.584 28.9356 62.128 28.5303 62.832C28.1463 63.536 27.9543 64.3893 27.9543 65.392C27.9543 66.3733 28.1463 67.2267 28.5303 67.952C28.9356 68.656 29.4689 69.2 30.1302 69.584C30.7916 69.968 31.5383 70.16 32.3703 70.16ZM57.4358 74L51.6758 65.84L55.7398 63.44L63.3238 74H57.4358ZM45.2438 74V56.784H50.2358V74H45.2438ZM48.7638 67.472V63.472H54.7798V67.472H48.7638ZM56.2198 65.968L51.5478 65.456L57.5958 56.784H62.9078L56.2198 65.968ZM67.1423 80.464C66.2463 80.464 65.3609 80.3253 64.4863 80.048C63.6116 79.7707 62.8969 79.3867 62.3422 78.896L64.1663 75.344C64.5503 75.6853 64.9876 75.952 65.4783 76.144C65.9903 76.336 66.4916 76.432 66.9823 76.432C67.6863 76.432 68.2409 76.2613 68.6463 75.92C69.0729 75.6 69.4569 75.056 69.7983 74.288L70.6943 72.176L71.0783 71.632L77.2543 56.784H82.0543L74.2783 75.056C73.7236 76.4427 73.0836 77.5307 72.3583 78.32C71.6543 79.1093 70.8649 79.664 69.9903 79.984C69.1369 80.304 68.1876 80.464 67.1423 80.464ZM70.0863 74.672L62.4062 56.784H67.5583L73.5103 71.184L70.0863 74.672ZM84.4625 74V56.784H101.583V74H96.5905V59.76L97.7105 60.88H88.3025L89.4225 59.76V74H84.4625ZM116.673 74V70.64L116.353 69.904V63.888C116.353 62.8213 116.022 61.9893 115.361 61.392C114.721 60.7947 113.729 60.496 112.385 60.496C111.467 60.496 110.561 60.6453 109.665 60.944C108.79 61.2213 108.043 61.6053 107.425 62.096L105.633 58.608C106.571 57.9467 107.702 57.4347 109.025 57.072C110.347 56.7093 111.691 56.528 113.057 56.528C115.681 56.528 117.718 57.1467 119.169 58.384C120.619 59.6213 121.345 61.552 121.345 64.176V74H116.673ZM111.425 74.256C110.081 74.256 108.929 74.032 107.969 73.584C107.009 73.1147 106.273 72.4853 105.761 71.696C105.249 70.9067 104.993 70.0213 104.993 69.04C104.993 68.016 105.238 67.12 105.729 66.352C106.241 65.584 107.041 64.9867 108.129 64.56C109.217 64.112 110.635 63.888 112.385 63.888H116.961V66.8H112.929C111.755 66.8 110.945 66.992 110.497 67.376C110.07 67.76 109.857 68.24 109.857 68.816C109.857 69.456 110.102 69.968 110.593 70.352C111.105 70.7147 111.798 70.896 112.673 70.896C113.505 70.896 114.251 70.704 114.913 70.32C115.574 69.9147 116.054 69.328 116.353 68.56L117.121 70.864C116.758 71.9733 116.097 72.816 115.137 73.392C114.177 73.968 112.939 74.256 111.425 74.256ZM129.361 74V59.728L130.481 60.88H123.537V56.784H140.145V60.88H133.201L134.321 59.728V74H129.361ZM150.504 74.256C148.541 74.256 146.813 73.872 145.32 73.104C143.848 72.336 142.706 71.2907 141.896 69.968C141.085 68.624 140.68 67.0987 140.68 65.392C140.68 63.664 141.074 62.1387 141.864 60.816C142.674 59.472 143.773 58.4267 145.16 57.68C146.546 56.912 148.114 56.528 149.864 56.528C151.549 56.528 153.064 56.8907 154.408 57.616C155.773 58.32 156.85 59.344 157.64 60.688C158.429 62.0107 158.824 63.6 158.824 65.456C158.824 65.648 158.813 65.872 158.792 66.128C158.77 66.3627 158.749 66.5867 158.728 66.8H144.744V63.888H156.104L154.184 64.752C154.184 63.856 154.002 63.0773 153.64 62.416C153.277 61.7547 152.776 61.2427 152.136 60.88C151.496 60.496 150.749 60.304 149.896 60.304C149.042 60.304 148.285 60.496 147.624 60.88C146.984 61.2427 146.482 61.7653 146.12 62.448C145.757 63.1093 145.576 63.8987 145.576 64.816V65.584C145.576 66.5227 145.778 67.3547 146.184 68.08C146.61 68.784 147.197 69.328 147.944 69.712C148.712 70.0747 149.608 70.256 150.632 70.256C151.549 70.256 152.349 70.1173 153.032 69.84C153.736 69.5627 154.376 69.1467 154.952 68.592L157.608 71.472C156.818 72.368 155.826 73.0613 154.632 73.552C153.437 74.0213 152.061 74.256 150.504 74.256ZM160.318 73.968L160.574 69.872C160.702 69.8933 160.83 69.9147 160.958 69.936C161.086 69.936 161.203 69.936 161.31 69.936C161.907 69.936 162.376 69.7653 162.718 69.424C163.059 69.0827 163.315 68.624 163.486 68.048C163.656 67.4507 163.774 66.7787 163.838 66.032C163.923 65.2853 163.987 64.5067 164.03 63.696L164.286 56.784H179.006V74H174.014V59.664L175.134 60.88H167.582L168.638 59.6L168.414 63.92C168.35 65.456 168.222 66.864 168.03 68.144C167.859 69.424 167.571 70.5333 167.166 71.472C166.76 72.3893 166.216 73.104 165.534 73.616C164.851 74.1067 163.976 74.352 162.91 74.352C162.526 74.352 162.12 74.32 161.694 74.256C161.267 74.192 160.808 74.096 160.318 73.968ZM192.222 74.256C190.26 74.256 188.532 73.872 187.038 73.104C185.566 72.336 184.425 71.2907 183.614 69.968C182.804 68.624 182.398 67.0987 182.398 65.392C182.398 63.664 182.793 62.1387 183.582 60.816C184.393 59.472 185.492 58.4267 186.878 57.68C188.265 56.912 189.833 56.528 191.582 56.528C193.268 56.528 194.782 56.8907 196.126 57.616C197.492 58.32 198.569 59.344 199.358 60.688C200.148 62.0107 200.542 63.6 200.542 65.456C200.542 65.648 200.532 65.872 200.51 66.128C200.489 66.3627 200.468 66.5867 200.446 66.8H186.462V63.888H197.822L195.902 64.752C195.902 63.856 195.721 63.0773 195.358 62.416C194.996 61.7547 194.494 61.2427 193.854 60.88C193.214 60.496 192.468 60.304 191.614 60.304C190.761 60.304 190.004 60.496 189.342 60.88C188.702 61.2427 188.201 61.7653 187.838 62.448C187.476 63.1093 187.294 63.8987 187.294 64.816V65.584C187.294 66.5227 187.497 67.3547 187.902 68.08C188.329 68.784 188.916 69.328 189.662 69.712C190.43 70.0747 191.326 70.256 192.35 70.256C193.268 70.256 194.068 70.1173 194.75 69.84C195.454 69.5627 196.094 69.1467 196.67 68.592L199.326 71.472C198.537 72.368 197.545 73.0613 196.35 73.552C195.156 74.0213 193.78 74.256 192.222 74.256ZM204.369 74V56.784H209.329V67.024L217.713 56.784H222.289V74H217.329V63.76L208.977 74H204.369ZM213.009 54.928C211.131 54.928 209.723 54.5227 208.785 53.712C207.846 52.88 207.366 51.632 207.345 49.968H210.609C210.63 50.6933 210.833 51.2693 211.217 51.696C211.601 52.1227 212.187 52.336 212.977 52.336C213.745 52.336 214.331 52.1227 214.737 51.696C215.163 51.2693 215.377 50.6933 215.377 49.968H218.705C218.705 51.632 218.225 52.88 217.265 53.712C216.305 54.5227 214.886 54.928 213.009 54.928ZM236.15 74V56.784H241.11V63.504H248.598V56.784H253.59V74H248.598V67.568H241.11V74H236.15ZM268.673 74V70.64L268.353 69.904V63.888C268.353 62.8213 268.022 61.9893 267.361 61.392C266.721 60.7947 265.729 60.496 264.385 60.496C263.467 60.496 262.561 60.6453 261.665 60.944C260.79 61.2213 260.043 61.6053 259.425 62.096L257.633 58.608C258.571 57.9467 259.702 57.4347 261.025 57.072C262.347 56.7093 263.691 56.528 265.057 56.528C267.681 56.528 269.718 57.1467 271.169 58.384C272.619 59.6213 273.345 61.552 273.345 64.176V74H268.673ZM263.425 74.256C262.081 74.256 260.929 74.032 259.969 73.584C259.009 73.1147 258.273 72.4853 257.761 71.696C257.249 70.9067 256.993 70.0213 256.993 69.04C256.993 68.016 257.238 67.12 257.729 66.352C258.241 65.584 259.041 64.9867 260.129 64.56C261.217 64.112 262.635 63.888 264.385 63.888H268.961V66.8H264.929C263.755 66.8 262.945 66.992 262.497 67.376C262.07 67.76 261.857 68.24 261.857 68.816C261.857 69.456 262.102 69.968 262.593 70.352C263.105 70.7147 263.798 70.896 264.673 70.896C265.505 70.896 266.251 70.704 266.913 70.32C267.574 69.9147 268.054 69.328 268.353 68.56L269.121 70.864C268.758 71.9733 268.097 72.816 267.137 73.392C266.177 73.968 264.939 74.256 263.425 74.256ZM286.744 74V56.784H291.96L298.456 68.56H296.376L303.32 56.784H307.992L308.056 74H303.544V61.904L304.312 62.416L298.392 72.336H296.28L290.328 62.064L291.256 61.84V74H286.744ZM323.142 74V70.64L322.822 69.904V63.888C322.822 62.8213 322.491 61.9893 321.83 61.392C321.19 60.7947 320.198 60.496 318.854 60.496C317.936 60.496 317.03 60.6453 316.134 60.944C315.259 61.2213 314.512 61.6053 313.894 62.096L312.102 58.608C313.04 57.9467 314.171 57.4347 315.494 57.072C316.816 56.7093 318.16 56.528 319.526 56.528C322.15 56.528 324.187 57.1467 325.638 58.384C327.088 59.6213 327.814 61.552 327.814 64.176V74H323.142ZM317.894 74.256C316.55 74.256 315.398 74.032 314.438 73.584C313.478 73.1147 312.742 72.4853 312.23 71.696C311.718 70.9067 311.462 70.0213 311.462 69.04C311.462 68.016 311.707 67.12 312.198 66.352C312.71 65.584 313.51 64.9867 314.598 64.56C315.686 64.112 317.104 63.888 318.854 63.888H323.43V66.8H319.398C318.224 66.8 317.414 66.992 316.966 67.376C316.539 67.76 316.326 68.24 316.326 68.816C316.326 69.456 316.571 69.968 317.062 70.352C317.574 70.7147 318.267 70.896 319.142 70.896C319.974 70.896 320.72 70.704 321.382 70.32C322.043 69.9147 322.523 69.328 322.822 68.56L323.59 70.864C323.227 71.9733 322.566 72.816 321.606 73.392C320.646 73.968 319.408 74.256 317.894 74.256ZM342.294 74.256C340.843 74.256 339.574 73.936 338.486 73.296C337.398 72.656 336.545 71.6853 335.926 70.384C335.329 69.0613 335.03 67.3973 335.03 65.392C335.03 63.3653 335.318 61.7013 335.894 60.4C336.47 59.0987 337.302 58.128 338.39 57.488C339.478 56.848 340.779 56.528 342.294 56.528C343.915 56.528 345.366 56.9013 346.646 57.648C347.947 58.3733 348.971 59.3973 349.718 60.72C350.486 62.0427 350.87 63.6 350.87 65.392C350.87 67.2053 350.486 68.7733 349.718 70.096C348.971 71.4187 347.947 72.4427 346.646 73.168C345.366 73.8933 343.915 74.256 342.294 74.256ZM332.118 80.208V56.784H336.886V60.304L336.79 65.424L337.11 70.512V80.208H332.118ZM341.43 70.16C342.262 70.16 342.998 69.968 343.638 69.584C344.299 69.2 344.822 68.656 345.206 67.952C345.611 67.2267 345.814 66.3733 345.814 65.392C345.814 64.3893 345.611 63.536 345.206 62.832C344.822 62.128 344.299 61.584 343.638 61.2C342.998 60.816 342.262 60.624 341.43 60.624C340.598 60.624 339.851 60.816 339.19 61.2C338.529 61.584 338.006 62.128 337.622 62.832C337.238 63.536 337.046 64.3893 337.046 65.392C337.046 66.3733 337.238 67.2267 337.622 67.952C338.006 68.656 338.529 69.2 339.19 69.584C339.851 69.968 340.598 70.16 341.43 70.16ZM366.561 74L360.801 65.84L364.865 63.44L372.449 74H366.561ZM354.369 74V56.784H359.361V74H354.369ZM357.889 67.472V63.472H363.905V67.472H357.889ZM365.345 65.968L360.673 65.456L366.721 56.784H372.033L365.345 65.968ZM382.785 74.256C380.822 74.256 379.094 73.872 377.601 73.104C376.129 72.336 374.987 71.2907 374.177 69.968C373.366 68.624 372.961 67.0987 372.961 65.392C372.961 63.664 373.355 62.1387 374.145 60.816C374.955 59.472 376.054 58.4267 377.441 57.68C378.827 56.912 380.395 56.528 382.145 56.528C383.83 56.528 385.345 56.8907 386.689 57.616C388.054 58.32 389.131 59.344 389.921 60.688C390.71 62.0107 391.105 63.6 391.105 65.456C391.105 65.648 391.094 65.872 391.073 66.128C391.051 66.3627 391.03 66.5867 391.009 66.8H377.025V63.888H388.385L386.465 64.752C386.465 63.856 386.283 63.0773 385.921 62.416C385.558 61.7547 385.057 61.2427 384.417 60.88C383.777 60.496 383.03 60.304 382.177 60.304C381.323 60.304 380.566 60.496 379.905 60.88C379.265 61.2427 378.763 61.7653 378.401 62.448C378.038 63.1093 377.857 63.8987 377.857 64.816V65.584C377.857 66.5227 378.059 67.3547 378.465 68.08C378.891 68.784 379.478 69.328 380.225 69.712C380.993 70.0747 381.889 70.256 382.913 70.256C383.83 70.256 384.63 70.1173 385.313 69.84C386.017 69.5627 386.657 69.1467 387.233 68.592L389.889 71.472C389.099 72.368 388.107 73.0613 386.913 73.552C385.718 74.0213 384.342 74.256 382.785 74.256ZM398.018 74V59.728L399.138 60.88H392.194V56.784H408.802V60.88H401.858L402.978 59.728V74H398.018ZM411.463 74V56.784H428.583V74H423.591V59.76L424.711 60.88H415.303L416.423 59.76V74H411.463ZM431.193 73.968L431.449 69.872C431.577 69.8933 431.705 69.9147 431.833 69.936C431.961 69.936 432.078 69.936 432.185 69.936C432.782 69.936 433.251 69.7653 433.593 69.424C433.934 69.0827 434.19 68.624 434.361 68.048C434.531 67.4507 434.649 66.7787 434.713 66.032C434.798 65.2853 434.862 64.5067 434.905 63.696L435.161 56.784H449.881V74H444.889V59.664L446.009 60.88H438.457L439.513 59.6L439.289 63.92C439.225 65.456 439.097 66.864 438.905 68.144C438.734 69.424 438.446 70.5333 438.041 71.472C437.635 72.3893 437.091 73.104 436.409 73.616C435.726 74.1067 434.851 74.352 433.785 74.352C433.401 74.352 432.995 74.32 432.569 74.256C432.142 74.192 431.683 74.096 431.193 73.968ZM463.097 74.256C461.135 74.256 459.407 73.872 457.913 73.104C456.441 72.336 455.3 71.2907 454.489 69.968C453.679 68.624 453.273 67.0987 453.273 65.392C453.273 63.664 453.668 62.1387 454.457 60.816C455.268 59.472 456.367 58.4267 457.753 57.68C459.14 56.912 460.708 56.528 462.457 56.528C464.143 56.528 465.657 56.8907 467.001 57.616C468.367 58.32 469.444 59.344 470.233 60.688C471.023 62.0107 471.417 63.6 471.417 65.456C471.417 65.648 471.407 65.872 471.385 66.128C471.364 66.3627 471.343 66.5867 471.321 66.8H457.337V63.888H468.697L466.777 64.752C466.777 63.856 466.596 63.0773 466.233 62.416C465.871 61.7547 465.369 61.2427 464.729 60.88C464.089 60.496 463.343 60.304 462.489 60.304C461.636 60.304 460.879 60.496 460.217 60.88C459.577 61.2427 459.076 61.7653 458.713 62.448C458.351 63.1093 458.169 63.8987 458.169 64.816V65.584C458.169 66.5227 458.372 67.3547 458.777 68.08C459.204 68.784 459.791 69.328 460.537 69.712C461.305 70.0747 462.201 70.256 463.225 70.256C464.143 70.256 464.943 70.1173 465.625 69.84C466.329 69.5627 466.969 69.1467 467.545 68.592L470.201 71.472C469.412 72.368 468.42 73.0613 467.225 73.552C466.031 74.0213 464.655 74.256 463.097 74.256ZM475.244 74V56.784H480.204V67.024L488.588 56.784H493.164V74H488.204V63.76L479.852 74H475.244ZM483.884 54.928C482.006 54.928 480.598 54.5227 479.66 53.712C478.721 52.88 478.241 51.632 478.22 49.968H481.484C481.505 50.6933 481.708 51.2693 482.092 51.696C482.476 52.1227 483.062 52.336 483.852 52.336C484.62 52.336 485.206 52.1227 485.612 51.696C486.038 51.2693 486.252 50.6933 486.252 49.968H489.58C489.58 51.632 489.1 52.88 488.14 53.712C487.18 54.5227 485.761 54.928 483.884 54.928ZM506.155 74.256C504.299 74.256 502.645 73.8827 501.195 73.136C499.744 72.368 498.603 71.312 497.771 69.968C496.96 68.624 496.555 67.0987 496.555 65.392C496.555 63.664 496.96 62.1387 497.771 60.816C498.603 59.472 499.744 58.4267 501.195 57.68C502.645 56.912 504.299 56.528 506.155 56.528C507.968 56.528 509.547 56.912 510.891 57.68C512.235 58.4267 513.227 59.504 513.867 60.912L509.995 62.992C509.547 62.1813 508.981 61.584 508.299 61.2C507.637 60.816 506.912 60.624 506.123 60.624C505.269 60.624 504.501 60.816 503.819 61.2C503.136 61.584 502.592 62.128 502.187 62.832C501.803 63.536 501.611 64.3893 501.611 65.392C501.611 66.3947 501.803 67.248 502.187 67.952C502.592 68.656 503.136 69.2 503.819 69.584C504.501 69.968 505.269 70.16 506.123 70.16C506.912 70.16 507.637 69.9787 508.299 69.616C508.981 69.232 509.547 68.624 509.995 67.792L513.867 69.904C513.227 71.2907 512.235 72.368 510.891 73.136C509.547 73.8827 507.968 74.256 506.155 74.256ZM527.204 74V70.64L526.884 69.904V63.888C526.884 62.8213 526.553 61.9893 525.892 61.392C525.252 60.7947 524.26 60.496 522.916 60.496C521.999 60.496 521.092 60.6453 520.196 60.944C519.321 61.2213 518.575 61.6053 517.956 62.096L516.164 58.608C517.103 57.9467 518.233 57.4347 519.556 57.072C520.879 56.7093 522.223 56.528 523.588 56.528C526.212 56.528 528.249 57.1467 529.7 58.384C531.151 59.6213 531.876 61.552 531.876 64.176V74H527.204ZM521.956 74.256C520.612 74.256 519.46 74.032 518.5 73.584C517.54 73.1147 516.804 72.4853 516.292 71.696C515.78 70.9067 515.524 70.0213 515.524 69.04C515.524 68.016 515.769 67.12 516.26 66.352C516.772 65.584 517.572 64.9867 518.66 64.56C519.748 64.112 521.167 63.888 522.916 63.888H527.492V66.8H523.46C522.287 66.8 521.476 66.992 521.028 67.376C520.601 67.76 520.388 68.24 520.388 68.816C520.388 69.456 520.633 69.968 521.124 70.352C521.636 70.7147 522.329 70.896 523.204 70.896C524.036 70.896 524.783 70.704 525.444 70.32C526.105 69.9147 526.585 69.328 526.884 68.56L527.652 70.864C527.289 71.9733 526.628 72.816 525.668 73.392C524.708 73.968 523.471 74.256 521.956 74.256ZM533.909 74L541.621 63.888L541.525 66.64L534.133 56.784H539.733L544.405 63.216L542.293 63.28L547.125 56.784H552.437L545.013 66.544V63.856L552.693 74H547.029L542.133 67.152L544.213 67.44L539.349 74H533.909Z" fill="white"/>
</svg>
