<svg width="270" height="78" viewBox="0 0 270 78" fill="none" xmlns="http://www.w3.org/2000/svg">
<path d="M11.55 15.258C10.7873 15.566 10.054 15.8007 9.35 15.962C8.646 16.1087 7.97133 16.182 7.326 16.182C5.258 16.182 3.674 15.6907 2.574 14.708C1.474 13.7107 0.924 12.2807 0.924 10.418V5.6H4.444V10.022C4.444 11.078 4.73 11.8773 5.302 12.42C5.874 12.948 6.688 13.212 7.744 13.212C8.41867 13.212 9.07133 13.1387 9.702 12.992C10.3327 12.8307 10.9193 12.6033 11.462 12.31L11.55 15.258ZM11.044 21V5.6H14.564V21H11.044ZM23.9145 21.176C22.5652 21.176 21.3772 20.912 20.3505 20.384C19.3385 19.856 18.5538 19.1373 17.9965 18.228C17.4392 17.304 17.1605 16.2553 17.1605 15.082C17.1605 13.894 17.4318 12.8453 17.9745 11.936C18.5318 11.012 19.2872 10.2933 20.2405 9.78C21.1938 9.252 22.2718 8.988 23.4745 8.988C24.6332 8.988 25.6745 9.23733 26.5985 9.736C27.5372 10.22 28.2779 10.924 28.8205 11.848C29.3632 12.7573 29.6345 13.85 29.6345 15.126C29.6345 15.258 29.6272 15.412 29.6125 15.588C29.5978 15.7493 29.5832 15.9033 29.5685 16.05H19.9545V14.048H27.7645L26.4445 14.642C26.4445 14.026 26.3198 13.4907 26.0705 13.036C25.8212 12.5813 25.4765 12.2293 25.0365 11.98C24.5965 11.716 24.0832 11.584 23.4965 11.584C22.9098 11.584 22.3892 11.716 21.9345 11.98C21.4945 12.2293 21.1498 12.5887 20.9005 13.058C20.6512 13.5127 20.5265 14.0553 20.5265 14.686V15.214C20.5265 15.8593 20.6658 16.4313 20.9445 16.93C21.2378 17.414 21.6412 17.788 22.1545 18.052C22.6825 18.3013 23.2985 18.426 24.0025 18.426C24.6332 18.426 25.1832 18.3307 25.6525 18.14C26.1365 17.9493 26.5765 17.6633 26.9725 17.282L28.7985 19.262C28.2558 19.878 27.5738 20.3547 26.7525 20.692C25.9312 21.0147 24.9852 21.176 23.9145 21.176ZM37.8972 21.176C36.6212 21.176 35.4846 20.9193 34.4872 20.406C33.4899 19.878 32.7052 19.152 32.1332 18.228C31.5759 17.304 31.2972 16.2553 31.2972 15.082C31.2972 13.894 31.5759 12.8453 32.1332 11.936C32.7052 11.012 33.4899 10.2933 34.4872 9.78C35.4846 9.252 36.6212 8.988 37.8972 8.988C39.1439 8.988 40.2292 9.252 41.1532 9.78C42.0772 10.2933 42.7592 11.034 43.1992 12.002L40.5372 13.432C40.2292 12.8747 39.8406 12.464 39.3712 12.2C38.9166 11.936 38.4179 11.804 37.8752 11.804C37.2886 11.804 36.7606 11.936 36.2912 12.2C35.8219 12.464 35.4479 12.838 35.1692 13.322C34.9052 13.806 34.7732 14.3927 34.7732 15.082C34.7732 15.7713 34.9052 16.358 35.1692 16.842C35.4479 17.326 35.8219 17.7 36.2912 17.964C36.7606 18.228 37.2886 18.36 37.8752 18.36C38.4179 18.36 38.9166 18.2353 39.3712 17.986C39.8406 17.722 40.2292 17.304 40.5372 16.732L43.1992 18.184C42.7592 19.1373 42.0772 19.878 41.1532 20.406C40.2292 20.9193 39.1439 21.176 37.8972 21.176ZM47.7933 21V11.188L48.5633 11.98H43.7893V9.164H55.2073V11.98H50.4333L51.2033 11.188V21H47.7933ZM57.0367 21V9.164H60.4467V13.784H65.5947V9.164H69.0267V21H65.5947V16.578H60.4467V21H57.0367ZM84.5001 21V9.164H87.9101V21H84.5001ZM78.5381 12.948C80.0928 12.9627 81.2588 13.3147 82.0361 14.004C82.8281 14.6787 83.2241 15.6393 83.2241 16.886C83.2241 18.1913 82.7768 19.2107 81.8821 19.944C80.9874 20.6627 79.7188 21.022 78.0761 21.022L72.3121 21V9.164H75.7221V12.948H78.5381ZM77.7681 18.58C78.4281 18.5947 78.9341 18.4553 79.2861 18.162C79.6381 17.8687 79.8141 17.4287 79.8141 16.842C79.8141 16.2553 79.6381 15.8373 79.2861 15.588C78.9341 15.324 78.4281 15.1847 77.7681 15.17L75.7221 15.148V18.58H77.7681ZM97.0044 21.176C95.655 21.176 94.467 20.912 93.4404 20.384C92.4284 19.856 91.6437 19.1373 91.0864 18.228C90.529 17.304 90.2504 16.2553 90.2504 15.082C90.2504 13.894 90.5217 12.8453 91.0644 11.936C91.6217 11.012 92.377 10.2933 93.3304 9.78C94.2837 9.252 95.3617 8.988 96.5644 8.988C97.723 8.988 98.7644 9.23733 99.6884 9.736C100.627 10.22 101.368 10.924 101.91 11.848C102.453 12.7573 102.724 13.85 102.724 15.126C102.724 15.258 102.717 15.412 102.702 15.588C102.688 15.7493 102.673 15.9033 102.658 16.05H93.0444V14.048H100.854L99.5344 14.642C99.5344 14.026 99.4097 13.4907 99.1604 13.036C98.911 12.5813 98.5664 12.2293 98.1264 11.98C97.6864 11.716 97.173 11.584 96.5864 11.584C95.9997 11.584 95.479 11.716 95.0244 11.98C94.5844 12.2293 94.2397 12.5887 93.9904 13.058C93.741 13.5127 93.6164 14.0553 93.6164 14.686V15.214C93.6164 15.8593 93.7557 16.4313 94.0344 16.93C94.3277 17.414 94.731 17.788 95.2444 18.052C95.7724 18.3013 96.3884 18.426 97.0924 18.426C97.723 18.426 98.273 18.3307 98.7424 18.14C99.2264 17.9493 99.6664 17.6633 100.062 17.282L101.888 19.262C101.346 19.878 100.664 20.3547 99.8424 20.692C99.021 21.0147 98.075 21.176 97.0044 21.176ZM117.13 21.176C115.868 21.176 114.746 20.912 113.764 20.384C112.796 19.856 112.026 19.1373 111.454 18.228C110.896 17.304 110.618 16.2553 110.618 15.082C110.618 13.894 110.896 12.8453 111.454 11.936C112.026 11.012 112.796 10.2933 113.764 9.78C114.746 9.252 115.868 8.988 117.13 8.988C118.376 8.988 119.491 9.252 120.474 9.78C121.456 10.2933 122.226 11.0047 122.784 11.914C123.341 12.8233 123.62 13.8793 123.62 15.082C123.62 16.2553 123.341 17.304 122.784 18.228C122.226 19.1373 121.456 19.856 120.474 20.384C119.491 20.912 118.376 21.176 117.13 21.176ZM117.13 18.36C117.702 18.36 118.215 18.228 118.67 17.964C119.124 17.7 119.484 17.326 119.748 16.842C120.012 16.3433 120.144 15.7567 120.144 15.082C120.144 14.3927 120.012 13.806 119.748 13.322C119.484 12.838 119.124 12.464 118.67 12.2C118.215 11.936 117.702 11.804 117.13 11.804C116.558 11.804 116.044 11.936 115.59 12.2C115.135 12.464 114.768 12.838 114.49 13.322C114.226 13.806 114.094 14.3927 114.094 15.082C114.094 15.7567 114.226 16.3433 114.49 16.842C114.768 17.326 115.135 17.7 115.59 17.964C116.044 18.228 116.558 18.36 117.13 18.36ZM128.08 21V11.188L128.85 11.98H124.076V9.164H135.494V11.98H130.72L131.49 11.188V21H128.08ZM141.199 21.22C140.29 21.22 139.38 21.1247 138.471 20.934C137.576 20.7433 136.748 20.4573 135.985 20.076L136.909 17.678C137.51 17.9713 138.163 18.1987 138.867 18.36C139.586 18.5067 140.312 18.58 141.045 18.58C141.573 18.58 142.028 18.5287 142.409 18.426C142.805 18.3087 143.106 18.1473 143.311 17.942C143.516 17.7367 143.619 17.4873 143.619 17.194C143.619 16.8127 143.458 16.5267 143.135 16.336C142.812 16.1307 142.343 16.028 141.727 16.028H139.307V13.894H141.441C141.837 13.894 142.174 13.85 142.453 13.762C142.732 13.674 142.937 13.5493 143.069 13.388C143.216 13.212 143.289 13.0067 143.289 12.772C143.289 12.5227 143.201 12.31 143.025 12.134C142.849 11.958 142.592 11.826 142.255 11.738C141.918 11.6353 141.492 11.584 140.979 11.584C140.392 11.584 139.784 11.6573 139.153 11.804C138.522 11.936 137.877 12.134 137.217 12.398L136.381 10.022C137.158 9.69933 137.928 9.44267 138.691 9.252C139.454 9.06133 140.209 8.95867 140.957 8.944C142.057 8.91467 143.047 9.032 143.927 9.296C144.807 9.56 145.496 9.94133 145.995 10.44C146.508 10.9387 146.765 11.5473 146.765 12.266C146.765 12.838 146.589 13.3513 146.237 13.806C145.9 14.2607 145.43 14.62 144.829 14.884C144.228 15.1333 143.553 15.258 142.805 15.258L142.893 14.576C144.198 14.576 145.225 14.84 145.973 15.368C146.721 15.8813 147.095 16.5853 147.095 17.48C147.095 18.2427 146.831 18.91 146.303 19.482C145.79 20.0393 145.086 20.472 144.191 20.78C143.311 21.0733 142.314 21.22 141.199 21.22ZM161.736 21V9.164H165.146V21H161.736ZM155.774 12.948C157.329 12.9627 158.495 13.3147 159.272 14.004C160.064 14.6787 160.46 15.6393 160.46 16.886C160.46 18.1913 160.013 19.2107 159.118 19.944C158.224 20.6627 156.955 21.022 155.312 21.022L149.548 21V9.164H152.958V12.948H155.774ZM155.004 18.58C155.664 18.5947 156.17 18.4553 156.522 18.162C156.874 17.8687 157.05 17.4287 157.05 16.842C157.05 16.2553 156.874 15.8373 156.522 15.588C156.17 15.324 155.664 15.1847 155.004 15.17L152.958 15.148V18.58H155.004ZM168.455 21V9.164H174.505C175.986 9.164 177.145 9.43533 177.981 9.978C178.817 10.506 179.235 11.254 179.235 12.222C179.235 13.19 178.839 13.9527 178.047 14.51C177.269 15.0527 176.235 15.324 174.945 15.324L175.297 14.532C176.734 14.532 177.805 14.796 178.509 15.324C179.227 15.852 179.587 16.622 179.587 17.634C179.587 18.6753 179.191 19.4967 178.399 20.098C177.607 20.6993 176.397 21 174.769 21H168.455ZM171.601 18.668H174.483C175.113 18.668 175.583 18.5653 175.891 18.36C176.213 18.14 176.375 17.81 176.375 17.37C176.375 16.9153 176.228 16.5853 175.935 16.38C175.641 16.16 175.179 16.05 174.549 16.05H171.601V18.668ZM171.601 14.026H174.197C174.798 14.026 175.245 13.916 175.539 13.696C175.847 13.476 176.001 13.1607 176.001 12.75C176.001 12.3247 175.847 12.0093 175.539 11.804C175.245 11.5987 174.798 11.496 174.197 11.496H171.601V14.026ZM194.328 21V9.164H197.738V21H194.328ZM188.366 12.948C189.921 12.9627 191.087 13.3147 191.864 14.004C192.656 14.6787 193.052 15.6393 193.052 16.886C193.052 18.1913 192.605 19.2107 191.71 19.944C190.816 20.6627 189.547 21.022 187.904 21.022L182.14 21V9.164H185.55V12.948H188.366ZM187.596 18.58C188.256 18.5947 188.762 18.4553 189.114 18.162C189.466 17.8687 189.642 17.4287 189.642 16.842C189.642 16.2553 189.466 15.8373 189.114 15.588C188.762 15.324 188.256 15.1847 187.596 15.17L185.55 15.148V18.58H187.596ZM1.65 47V35.164H5.06V39.784H10.208V35.164H13.64V47H10.208V42.578H5.06V47H1.65ZM24.0094 47V44.69L23.7894 44.184V40.048C23.7894 39.3147 23.5621 38.7427 23.1074 38.332C22.6674 37.9213 21.9854 37.716 21.0614 37.716C20.4307 37.716 19.8074 37.8187 19.1914 38.024C18.5901 38.2147 18.0767 38.4787 17.6514 38.816L16.4194 36.418C17.0647 35.9633 17.8421 35.6113 18.7514 35.362C19.6607 35.1127 20.5847 34.988 21.5234 34.988C23.3274 34.988 24.7281 35.4133 25.7254 36.264C26.7227 37.1147 27.2214 38.442 27.2214 40.246V47H24.0094ZM20.4014 47.176C19.4774 47.176 18.6854 47.022 18.0254 46.714C17.3654 46.3913 16.8594 45.9587 16.5074 45.416C16.1554 44.8733 15.9794 44.2647 15.9794 43.59C15.9794 42.886 16.1481 42.27 16.4854 41.742C16.8374 41.214 17.3874 40.8033 18.1354 40.51C18.8834 40.202 19.8587 40.048 21.0614 40.048H24.2074V42.05H21.4354C20.6287 42.05 20.0714 42.182 19.7634 42.446C19.4701 42.71 19.3234 43.04 19.3234 43.436C19.3234 43.876 19.4921 44.228 19.8294 44.492C20.1814 44.7413 20.6581 44.866 21.2594 44.866C21.8314 44.866 22.3447 44.734 22.7994 44.47C23.2541 44.1913 23.5841 43.788 23.7894 43.26L24.3174 44.844C24.0681 45.6067 23.6134 46.186 22.9534 46.582C22.2934 46.978 21.4427 47.176 20.4014 47.176ZM38.2767 44.184L37.5287 44.976V35.164H40.9607V44.976L40.1687 44.184H45.6247L44.8547 44.976V35.164H48.2647V47H30.2027V35.164H33.6127V44.976L32.8427 44.184H38.2767ZM51.5582 47V35.164H54.9682V42.204L60.7322 35.164H63.8782V47H60.4682V39.96L54.7262 47H51.5582ZM65.5933 47L70.8953 40.048L70.8293 41.94L65.7473 35.164H69.5973L72.8093 39.586L71.3573 39.63L74.6793 35.164H78.3313L73.2273 41.874V40.026L78.5073 47H74.6133L71.2473 42.292L72.6773 42.49L69.3333 47H65.5933ZM86.4273 47V35.164H98.1973V47H94.7653V37.21L95.5353 37.98H89.0673L89.8373 37.21V47H86.4273ZM107.032 47.176C105.771 47.176 104.649 46.912 103.666 46.384C102.698 45.856 101.928 45.1373 101.356 44.228C100.799 43.304 100.52 42.2553 100.52 41.082C100.52 39.894 100.799 38.8453 101.356 37.936C101.928 37.012 102.698 36.2933 103.666 35.78C104.649 35.252 105.771 34.988 107.032 34.988C108.279 34.988 109.393 35.252 110.376 35.78C111.359 36.2933 112.129 37.0047 112.686 37.914C113.243 38.8233 113.522 39.8793 113.522 41.082C113.522 42.2553 113.243 43.304 112.686 44.228C112.129 45.1373 111.359 45.856 110.376 46.384C109.393 46.912 108.279 47.176 107.032 47.176ZM107.032 44.36C107.604 44.36 108.117 44.228 108.572 43.964C109.027 43.7 109.386 43.326 109.65 42.842C109.914 42.3433 110.046 41.7567 110.046 41.082C110.046 40.3927 109.914 39.806 109.65 39.322C109.386 38.838 109.027 38.464 108.572 38.2C108.117 37.936 107.604 37.804 107.032 37.804C106.46 37.804 105.947 37.936 105.492 38.2C105.037 38.464 104.671 38.838 104.392 39.322C104.128 39.806 103.996 40.3927 103.996 41.082C103.996 41.7567 104.128 42.3433 104.392 42.842C104.671 43.326 105.037 43.7 105.492 43.964C105.947 44.228 106.46 44.36 107.032 44.36ZM124.264 47L120.304 41.39L123.098 39.74L128.312 47H124.264ZM115.882 47V35.164H119.314V47H115.882ZM118.302 42.512V39.762H122.438V42.512H118.302ZM123.428 41.478L120.216 41.126L124.374 35.164H128.026L123.428 41.478ZM130.938 51.444C130.322 51.444 129.713 51.3487 129.112 51.158C128.51 50.9673 128.019 50.7033 127.638 50.366L128.892 47.924C129.156 48.1587 129.456 48.342 129.794 48.474C130.146 48.606 130.49 48.672 130.828 48.672C131.312 48.672 131.693 48.5547 131.972 48.32C132.265 48.1 132.529 47.726 132.764 47.198L133.38 45.746L133.644 45.372L137.89 35.164H141.19L135.844 47.726C135.462 48.6793 135.022 49.4273 134.524 49.97C134.04 50.5127 133.497 50.894 132.896 51.114C132.309 51.334 131.656 51.444 130.938 51.444ZM132.962 47.462L127.682 35.164H131.224L135.316 45.064L132.962 47.462ZM142.845 47V35.164H154.615V47H151.183V37.21L151.953 37.98H145.485L146.255 37.21V47H142.845ZM164.99 47V44.69L164.77 44.184V40.048C164.77 39.3147 164.543 38.7427 164.088 38.332C163.648 37.9213 162.966 37.716 162.042 37.716C161.411 37.716 160.788 37.8187 160.172 38.024C159.571 38.2147 159.057 38.4787 158.632 38.816L157.4 36.418C158.045 35.9633 158.823 35.6113 159.732 35.362C160.641 35.1127 161.565 34.988 162.504 34.988C164.308 34.988 165.709 35.4133 166.706 36.264C167.703 37.1147 168.202 38.442 168.202 40.246V47H164.99ZM161.382 47.176C160.458 47.176 159.666 47.022 159.006 46.714C158.346 46.3913 157.84 45.9587 157.488 45.416C157.136 44.8733 156.96 44.2647 156.96 43.59C156.96 42.886 157.129 42.27 157.466 41.742C157.818 41.214 158.368 40.8033 159.116 40.51C159.864 40.202 160.839 40.048 162.042 40.048H165.188V42.05H162.416C161.609 42.05 161.052 42.182 160.744 42.446C160.451 42.71 160.304 43.04 160.304 43.436C160.304 43.876 160.473 44.228 160.81 44.492C161.162 44.7413 161.639 44.866 162.24 44.866C162.812 44.866 163.325 44.734 163.78 44.47C164.235 44.1913 164.565 43.788 164.77 43.26L165.298 44.844C165.049 45.6067 164.594 46.186 163.934 46.582C163.274 46.978 162.423 47.176 161.382 47.176ZM173.713 47V37.188L174.483 37.98H169.709V35.164H181.127V37.98H176.353L177.123 37.188V47H173.713ZM188.249 47.176C186.899 47.176 185.711 46.912 184.685 46.384C183.673 45.856 182.888 45.1373 182.331 44.228C181.773 43.304 181.495 42.2553 181.495 41.082C181.495 39.894 181.766 38.8453 182.309 37.936C182.866 37.012 183.621 36.2933 184.575 35.78C185.528 35.252 186.606 34.988 187.809 34.988C188.967 34.988 190.009 35.2373 190.933 35.736C191.871 36.22 192.612 36.924 193.155 37.848C193.697 38.7573 193.969 39.85 193.969 41.126C193.969 41.258 193.961 41.412 193.947 41.588C193.932 41.7493 193.917 41.9033 193.903 42.05H184.289V40.048H192.099L190.779 40.642C190.779 40.026 190.654 39.4907 190.405 39.036C190.155 38.5813 189.811 38.2293 189.371 37.98C188.931 37.716 188.417 37.584 187.831 37.584C187.244 37.584 186.723 37.716 186.269 37.98C185.829 38.2293 185.484 38.5887 185.235 39.058C184.985 39.5127 184.861 40.0553 184.861 40.686V41.214C184.861 41.8593 185 42.4313 185.279 42.93C185.572 43.414 185.975 43.788 186.489 44.052C187.017 44.3013 187.633 44.426 188.337 44.426C188.967 44.426 189.517 44.3307 189.987 44.14C190.471 43.9493 190.911 43.6633 191.307 43.282L193.133 45.262C192.59 45.878 191.908 46.3547 191.087 46.692C190.265 47.0147 189.319 47.176 188.249 47.176ZM194.996 46.978L195.172 44.162C195.26 44.1767 195.348 44.1913 195.436 44.206C195.524 44.206 195.604 44.206 195.678 44.206C196.088 44.206 196.411 44.0887 196.646 43.854C196.88 43.6193 197.056 43.304 197.174 42.908C197.291 42.4973 197.372 42.0353 197.416 41.522C197.474 41.0087 197.518 40.4733 197.548 39.916L197.724 35.164H207.844V47H204.412V37.144L205.182 37.98H199.99L200.716 37.1L200.562 40.07C200.518 41.126 200.43 42.094 200.298 42.974C200.18 43.854 199.982 44.6167 199.704 45.262C199.425 45.8927 199.051 46.384 198.582 46.736C198.112 47.0733 197.511 47.242 196.778 47.242C196.514 47.242 196.235 47.22 195.942 47.176C195.648 47.132 195.333 47.066 194.996 46.978ZM216.93 47.176C215.581 47.176 214.393 46.912 213.366 46.384C212.354 45.856 211.569 45.1373 211.012 44.228C210.455 43.304 210.176 42.2553 210.176 41.082C210.176 39.894 210.447 38.8453 210.99 37.936C211.547 37.012 212.303 36.2933 213.256 35.78C214.209 35.252 215.287 34.988 216.49 34.988C217.649 34.988 218.69 35.2373 219.614 35.736C220.553 36.22 221.293 36.924 221.836 37.848C222.379 38.7573 222.65 39.85 222.65 41.126C222.65 41.258 222.643 41.412 222.628 41.588C222.613 41.7493 222.599 41.9033 222.584 42.05H212.97V40.048H220.78L219.46 40.642C219.46 40.026 219.335 39.4907 219.086 39.036C218.837 38.5813 218.492 38.2293 218.052 37.98C217.612 37.716 217.099 37.584 216.512 37.584C215.925 37.584 215.405 37.716 214.95 37.98C214.51 38.2293 214.165 38.5887 213.916 39.058C213.667 39.5127 213.542 40.0553 213.542 40.686V41.214C213.542 41.8593 213.681 42.4313 213.96 42.93C214.253 43.414 214.657 43.788 215.17 44.052C215.698 44.3013 216.314 44.426 217.018 44.426C217.649 44.426 218.199 44.3307 218.668 44.14C219.152 43.9493 219.592 43.6633 219.988 43.282L221.814 45.262C221.271 45.878 220.589 46.3547 219.768 46.692C218.947 47.0147 218.001 47.176 216.93 47.176ZM225.281 47V35.164H228.691V42.204L234.455 35.164H237.601V47H234.191V39.96L228.449 47H225.281ZM231.221 33.888C229.93 33.888 228.962 33.6093 228.317 33.052C227.672 32.48 227.342 31.622 227.327 30.478H229.571C229.586 30.9767 229.725 31.3727 229.989 31.666C230.253 31.9593 230.656 32.106 231.199 32.106C231.727 32.106 232.13 31.9593 232.409 31.666C232.702 31.3727 232.849 30.9767 232.849 30.478H235.137C235.137 31.622 234.807 32.48 234.147 33.052C233.487 33.6093 232.512 33.888 231.221 33.888ZM1.65 73V61.164H5.06V65.784H10.208V61.164H13.64V73H10.208V68.578H5.06V73H1.65ZM24.0094 73V70.69L23.7894 70.184V66.048C23.7894 65.3147 23.5621 64.7427 23.1074 64.332C22.6674 63.9213 21.9854 63.716 21.0614 63.716C20.4307 63.716 19.8074 63.8187 19.1914 64.024C18.5901 64.2147 18.0767 64.4787 17.6514 64.816L16.4194 62.418C17.0647 61.9633 17.8421 61.6113 18.7514 61.362C19.6607 61.1127 20.5847 60.988 21.5234 60.988C23.3274 60.988 24.7281 61.4133 25.7254 62.264C26.7227 63.1147 27.2214 64.442 27.2214 66.246V73H24.0094ZM20.4014 73.176C19.4774 73.176 18.6854 73.022 18.0254 72.714C17.3654 72.3913 16.8594 71.9587 16.5074 71.416C16.1554 70.8733 15.9794 70.2647 15.9794 69.59C15.9794 68.886 16.1481 68.27 16.4854 67.742C16.8374 67.214 17.3874 66.8033 18.1354 66.51C18.8834 66.202 19.8587 66.048 21.0614 66.048H24.2074V68.05H21.4354C20.6287 68.05 20.0714 68.182 19.7634 68.446C19.4701 68.71 19.3234 69.04 19.3234 69.436C19.3234 69.876 19.4921 70.228 19.8294 70.492C20.1814 70.7413 20.6581 70.866 21.2594 70.866C21.8314 70.866 22.3447 70.734 22.7994 70.47C23.2541 70.1913 23.5841 69.788 23.7894 69.26L24.3174 70.844C24.0681 71.6067 23.6134 72.186 22.9534 72.582C22.2934 72.978 21.4427 73.176 20.4014 73.176ZM36.4332 73V61.164H40.0192L44.4852 69.26H43.0552L47.8292 61.164H51.0412L51.0852 73H47.9832V64.684L48.5112 65.036L44.4412 71.856H42.9892L38.8972 64.794L39.5352 64.64V73H36.4332ZM61.4567 73V70.69L61.2367 70.184V66.048C61.2367 65.3147 61.0093 64.7427 60.5547 64.332C60.1147 63.9213 59.4327 63.716 58.5087 63.716C57.878 63.716 57.2547 63.8187 56.6387 64.024C56.0373 64.2147 55.524 64.4787 55.0987 64.816L53.8667 62.418C54.512 61.9633 55.2893 61.6113 56.1987 61.362C57.108 61.1127 58.032 60.988 58.9707 60.988C60.7747 60.988 62.1753 61.4133 63.1727 62.264C64.17 63.1147 64.6687 64.442 64.6687 66.246V73H61.4567ZM57.8487 73.176C56.9247 73.176 56.1327 73.022 55.4727 72.714C54.8127 72.3913 54.3067 71.9587 53.9547 71.416C53.6027 70.8733 53.4267 70.2647 53.4267 69.59C53.4267 68.886 53.5953 68.27 53.9327 67.742C54.2847 67.214 54.8347 66.8033 55.5827 66.51C56.3307 66.202 57.306 66.048 58.5087 66.048H61.6547V68.05H58.8827C58.076 68.05 57.5187 68.182 57.2107 68.446C56.9173 68.71 56.7707 69.04 56.7707 69.436C56.7707 69.876 56.9393 70.228 57.2767 70.492C57.6287 70.7413 58.1053 70.866 58.7067 70.866C59.2787 70.866 59.792 70.734 60.2467 70.47C60.7013 70.1913 61.0313 69.788 61.2367 69.26L61.7647 70.844C61.5153 71.6067 61.0607 72.186 60.4007 72.582C59.7407 72.978 58.89 73.176 57.8487 73.176ZM74.624 73.176C73.6267 73.176 72.754 72.956 72.006 72.516C71.258 72.076 70.6713 71.4087 70.246 70.514C69.8353 69.6047 69.63 68.4607 69.63 67.082C69.63 65.6887 69.828 64.5447 70.224 63.65C70.62 62.7553 71.192 62.088 71.94 61.648C72.688 61.208 73.5827 60.988 74.624 60.988C75.7387 60.988 76.736 61.2447 77.616 61.758C78.5107 62.2567 79.2147 62.9607 79.728 63.87C80.256 64.7793 80.52 65.85 80.52 67.082C80.52 68.3287 80.256 69.4067 79.728 70.316C79.2147 71.2253 78.5107 71.9293 77.616 72.428C76.736 72.9267 75.7387 73.176 74.624 73.176ZM67.628 77.268V61.164H70.906V63.584L70.84 67.104L71.06 70.602V77.268H67.628ZM74.03 70.36C74.602 70.36 75.108 70.228 75.548 69.964C76.0027 69.7 76.362 69.326 76.626 68.842C76.9047 68.3433 77.044 67.7567 77.044 67.082C77.044 66.3927 76.9047 65.806 76.626 65.322C76.362 64.838 76.0027 64.464 75.548 64.2C75.108 63.936 74.602 63.804 74.03 63.804C73.458 63.804 72.9447 63.936 72.49 64.2C72.0353 64.464 71.676 64.838 71.412 65.322C71.148 65.806 71.016 66.3927 71.016 67.082C71.016 67.7567 71.148 68.3433 71.412 68.842C71.676 69.326 72.0353 69.7 72.49 69.964C72.9447 70.228 73.458 70.36 74.03 70.36ZM91.3074 73L87.3474 67.39L90.1414 65.74L95.3554 73H91.3074ZM82.9254 73V61.164H86.3574V73H82.9254ZM85.3454 68.512V65.762H89.4814V68.512H85.3454ZM90.4714 67.478L87.2594 67.126L91.4174 61.164H95.0694L90.4714 67.478ZM102.461 73.176C101.112 73.176 99.9241 72.912 98.8974 72.384C97.8854 71.856 97.1007 71.1373 96.5434 70.228C95.9861 69.304 95.7074 68.2553 95.7074 67.082C95.7074 65.894 95.9787 64.8453 96.5214 63.936C97.0787 63.012 97.8341 62.2933 98.7874 61.78C99.7407 61.252 100.819 60.988 102.021 60.988C103.18 60.988 104.221 61.2373 105.145 61.736C106.084 62.22 106.825 62.924 107.367 63.848C107.91 64.7573 108.181 65.85 108.181 67.126C108.181 67.258 108.174 67.412 108.159 67.588C108.145 67.7493 108.13 67.9033 108.115 68.05H98.5014V66.048H106.311L104.991 66.642C104.991 66.026 104.867 65.4907 104.617 65.036C104.368 64.5813 104.023 64.2293 103.583 63.98C103.143 63.716 102.63 63.584 102.043 63.584C101.457 63.584 100.936 63.716 100.481 63.98C100.041 64.2293 99.6967 64.5887 99.4474 65.058C99.1981 65.5127 99.0734 66.0553 99.0734 66.686V67.214C99.0734 67.8593 99.2127 68.4313 99.4914 68.93C99.7847 69.414 100.188 69.788 100.701 70.052C101.229 70.3013 101.845 70.426 102.549 70.426C103.18 70.426 103.73 70.3307 104.199 70.14C104.683 69.9493 105.123 69.6633 105.519 69.282L107.345 71.262C106.803 71.878 106.121 72.3547 105.299 72.692C104.478 73.0147 103.532 73.176 102.461 73.176ZM112.934 73V63.188L113.704 63.98H108.93V61.164H120.348V63.98H115.574L116.344 63.188V73H112.934ZM122.177 73V61.164H133.947V73H130.515V63.21L131.285 63.98H124.817L125.587 63.21V73H122.177ZM135.742 72.978L135.918 70.162C136.006 70.1767 136.094 70.1913 136.182 70.206C136.27 70.206 136.351 70.206 136.424 70.206C136.835 70.206 137.157 70.0887 137.392 69.854C137.627 69.6193 137.803 69.304 137.92 68.908C138.037 68.4973 138.118 68.0353 138.162 67.522C138.221 67.0087 138.265 66.4733 138.294 65.916L138.47 61.164H148.59V73H145.158V63.144L145.928 63.98H140.736L141.462 63.1L141.308 66.07C141.264 67.126 141.176 68.094 141.044 68.974C140.927 69.854 140.729 70.6167 140.45 71.262C140.171 71.8927 139.797 72.384 139.328 72.736C138.859 73.0733 138.257 73.242 137.524 73.242C137.26 73.242 136.981 73.22 136.688 73.176C136.395 73.132 136.079 73.066 135.742 72.978ZM157.676 73.176C156.327 73.176 155.139 72.912 154.112 72.384C153.1 71.856 152.316 71.1373 151.758 70.228C151.201 69.304 150.922 68.2553 150.922 67.082C150.922 65.894 151.194 64.8453 151.736 63.936C152.294 63.012 153.049 62.2933 154.002 61.78C154.956 61.252 156.034 60.988 157.236 60.988C158.395 60.988 159.436 61.2373 160.36 61.736C161.299 62.22 162.04 62.924 162.582 63.848C163.125 64.7573 163.396 65.85 163.396 67.126C163.396 67.258 163.389 67.412 163.374 67.588C163.36 67.7493 163.345 67.9033 163.33 68.05H153.716V66.048H161.526L160.206 66.642C160.206 66.026 160.082 65.4907 159.832 65.036C159.583 64.5813 159.238 64.2293 158.798 63.98C158.358 63.716 157.845 63.584 157.258 63.584C156.672 63.584 156.151 63.716 155.696 63.98C155.256 64.2293 154.912 64.5887 154.662 65.058C154.413 65.5127 154.288 66.0553 154.288 66.686V67.214C154.288 67.8593 154.428 68.4313 154.706 68.93C155 69.414 155.403 69.788 155.916 70.052C156.444 70.3013 157.06 70.426 157.764 70.426C158.395 70.426 158.945 70.3307 159.414 70.14C159.898 69.9493 160.338 69.6633 160.734 69.282L162.56 71.262C162.018 71.878 161.336 72.3547 160.514 72.692C159.693 73.0147 158.747 73.176 157.676 73.176ZM166.027 73V61.164H169.437V68.204L175.201 61.164H178.347V73H174.937V65.96L169.195 73H166.027ZM171.967 59.888C170.676 59.888 169.708 59.6093 169.063 59.052C168.418 58.48 168.088 57.622 168.073 56.478H170.317C170.332 56.9767 170.471 57.3727 170.735 57.666C170.999 57.9593 171.402 58.106 171.945 58.106C172.473 58.106 172.876 57.9593 173.155 57.666C173.448 57.3727 173.595 56.9767 173.595 56.478H175.883C175.883 57.622 175.553 58.48 174.893 59.052C174.233 59.6093 173.258 59.888 171.967 59.888ZM187.278 73.176C186.002 73.176 184.865 72.9193 183.868 72.406C182.871 71.878 182.086 71.152 181.514 70.228C180.957 69.304 180.678 68.2553 180.678 67.082C180.678 65.894 180.957 64.8453 181.514 63.936C182.086 63.012 182.871 62.2933 183.868 61.78C184.865 61.252 186.002 60.988 187.278 60.988C188.525 60.988 189.61 61.252 190.534 61.78C191.458 62.2933 192.14 63.034 192.58 64.002L189.918 65.432C189.61 64.8747 189.221 64.464 188.752 64.2C188.297 63.936 187.799 63.804 187.256 63.804C186.669 63.804 186.141 63.936 185.672 64.2C185.203 64.464 184.829 64.838 184.55 65.322C184.286 65.806 184.154 66.3927 184.154 67.082C184.154 67.7713 184.286 68.358 184.55 68.842C184.829 69.326 185.203 69.7 185.672 69.964C186.141 70.228 186.669 70.36 187.256 70.36C187.799 70.36 188.297 70.2353 188.752 69.986C189.221 69.722 189.61 69.304 189.918 68.732L192.58 70.184C192.14 71.1373 191.458 71.878 190.534 72.406C189.61 72.9193 188.525 73.176 187.278 73.176ZM201.75 73V70.69L201.53 70.184V66.048C201.53 65.3147 201.302 64.7427 200.848 64.332C200.408 63.9213 199.726 63.716 198.802 63.716C198.171 63.716 197.548 63.8187 196.932 64.024C196.33 64.2147 195.817 64.4787 195.392 64.816L194.16 62.418C194.805 61.9633 195.582 61.6113 196.492 61.362C197.401 61.1127 198.325 60.988 199.264 60.988C201.068 60.988 202.468 61.4133 203.466 62.264C204.463 63.1147 204.962 64.442 204.962 66.246V73H201.75ZM198.142 73.176C197.218 73.176 196.426 73.022 195.766 72.714C195.106 72.3913 194.6 71.9587 194.248 71.416C193.896 70.8733 193.72 70.2647 193.72 69.59C193.72 68.886 193.888 68.27 194.226 67.742C194.578 67.214 195.128 66.8033 195.876 66.51C196.624 66.202 197.599 66.048 198.802 66.048H201.948V68.05H199.176C198.369 68.05 197.812 68.182 197.504 68.446C197.21 68.71 197.064 69.04 197.064 69.436C197.064 69.876 197.232 70.228 197.57 70.492C197.922 70.7413 198.398 70.866 199 70.866C199.572 70.866 200.085 70.734 200.54 70.47C200.994 70.1913 201.324 69.788 201.53 69.26L202.058 70.844C201.808 71.6067 201.354 72.186 200.694 72.582C200.034 72.978 199.183 73.176 198.142 73.176ZM206.359 73L211.661 66.048L211.595 67.94L206.513 61.164H210.363L213.575 65.586L212.123 65.63L215.445 61.164H219.097L213.993 67.874V66.026L219.273 73H215.379L212.013 68.292L213.443 68.49L210.099 73H206.359Z" fill="white"/>
</svg>
