<svg width="636" height="64" viewBox="0 0 636 64" fill="none" xmlns="http://www.w3.org/2000/svg">
<path d="M13.65 18.214C12.7487 18.578 11.882 18.8553 11.05 19.046C10.218 19.2193 9.42067 19.306 8.658 19.306C6.214 19.306 4.342 18.7253 3.042 17.564C1.742 16.3853 1.092 14.6953 1.092 12.494V6.8H5.252V12.026C5.252 13.274 5.59 14.2187 6.266 14.86C6.942 15.484 7.904 15.796 9.152 15.796C9.94933 15.796 10.7207 15.7093 11.466 15.536C12.2113 15.3453 12.9047 15.0767 13.546 14.73L13.65 18.214ZM13.052 25V6.8H17.212V25H13.052ZM28.2626 25.208C26.6679 25.208 25.2639 24.896 24.0506 24.272C22.8546 23.648 21.9273 22.7987 21.2686 21.724C20.6099 20.632 20.2806 19.3927 20.2806 18.006C20.2806 16.602 20.6013 15.3627 21.2426 14.288C21.9013 13.196 22.7939 12.3467 23.9206 11.74C25.0473 11.116 26.3213 10.804 27.7426 10.804C29.1119 10.804 30.3426 11.0987 31.4346 11.688C32.5439 12.26 33.4193 13.092 34.0606 14.184C34.7019 15.2587 35.0226 16.55 35.0226 18.058C35.0226 18.214 35.0139 18.396 34.9966 18.604C34.9793 18.7947 34.9619 18.9767 34.9446 19.15H23.5826V16.784H32.8126L31.2526 17.486C31.2526 16.758 31.1053 16.1253 30.8106 15.588C30.5159 15.0507 30.1086 14.6347 29.5886 14.34C29.0686 14.028 28.4619 13.872 27.7686 13.872C27.0753 13.872 26.4599 14.028 25.9226 14.34C25.4026 14.6347 24.9953 15.0593 24.7006 15.614C24.4059 16.1513 24.2586 16.7927 24.2586 17.538V18.162C24.2586 18.9247 24.4233 19.6007 24.7526 20.19C25.0993 20.762 25.5759 21.204 26.1826 21.516C26.8066 21.8107 27.5346 21.958 28.3666 21.958C29.1119 21.958 29.7619 21.8453 30.3166 21.62C30.8886 21.3947 31.4086 21.0567 31.8766 20.606L34.0346 22.946C33.3933 23.674 32.5873 24.2373 31.6166 24.636C30.6459 25.0173 29.5279 25.208 28.2626 25.208ZM44.7876 25.208C43.2796 25.208 41.9363 24.9047 40.7576 24.298C39.579 23.674 38.6516 22.816 37.9756 21.724C37.317 20.632 36.9876 19.3927 36.9876 18.006C36.9876 16.602 37.317 15.3627 37.9756 14.288C38.6516 13.196 39.579 12.3467 40.7576 11.74C41.9363 11.116 43.2796 10.804 44.7876 10.804C46.261 10.804 47.5436 11.116 48.6356 11.74C49.7276 12.3467 50.5336 13.222 51.0536 14.366L47.9076 16.056C47.5436 15.3973 47.0843 14.912 46.5296 14.6C45.9923 14.288 45.403 14.132 44.7616 14.132C44.0683 14.132 43.4443 14.288 42.8896 14.6C42.335 14.912 41.893 15.354 41.5636 15.926C41.2516 16.498 41.0956 17.1913 41.0956 18.006C41.0956 18.8207 41.2516 19.514 41.5636 20.086C41.893 20.658 42.335 21.1 42.8896 21.412C43.4443 21.724 44.0683 21.88 44.7616 21.88C45.403 21.88 45.9923 21.7327 46.5296 21.438C47.0843 21.126 47.5436 20.632 47.9076 19.956L51.0536 21.672C50.5336 22.7987 49.7276 23.674 48.6356 24.298C47.5436 24.9047 46.261 25.208 44.7876 25.208ZM56.483 25V13.404L57.393 14.34H51.751V11.012H65.245V14.34H59.603L60.513 13.404V25H56.483ZM67.407 25V11.012H71.437V16.472H77.521V11.012H81.577V25H77.521V19.774H71.437V25H67.407ZM99.8638 25V11.012H103.894V25H99.8638ZM92.8178 15.484C94.6551 15.5013 96.0331 15.9173 96.9518 16.732C97.8878 17.5293 98.3558 18.6647 98.3558 20.138C98.3558 21.6807 97.8271 22.8853 96.7698 23.752C95.7124 24.6013 94.2131 25.026 92.2718 25.026L85.4598 25V11.012H89.4898V15.484H92.8178ZM91.9078 22.14C92.6878 22.1573 93.2858 21.9927 93.7018 21.646C94.1178 21.2993 94.3258 20.7793 94.3258 20.086C94.3258 19.3927 94.1178 18.8987 93.7018 18.604C93.2858 18.292 92.6878 18.1273 91.9078 18.11L89.4898 18.084V22.14H91.9078ZM114.642 25.208C113.047 25.208 111.643 24.896 110.43 24.272C109.234 23.648 108.306 22.7987 107.648 21.724C106.989 20.632 106.66 19.3927 106.66 18.006C106.66 16.602 106.98 15.3627 107.622 14.288C108.28 13.196 109.173 12.3467 110.3 11.74C111.426 11.116 112.7 10.804 114.122 10.804C115.491 10.804 116.722 11.0987 117.814 11.688C118.923 12.26 119.798 13.092 120.44 14.184C121.081 15.2587 121.402 16.55 121.402 18.058C121.402 18.214 121.393 18.396 121.376 18.604C121.358 18.7947 121.341 18.9767 121.324 19.15H109.962V16.784H119.192L117.632 17.486C117.632 16.758 117.484 16.1253 117.19 15.588C116.895 15.0507 116.488 14.6347 115.968 14.34C115.448 14.028 114.841 13.872 114.148 13.872C113.454 13.872 112.839 14.028 112.302 14.34C111.782 14.6347 111.374 15.0593 111.08 15.614C110.785 16.1513 110.638 16.7927 110.638 17.538V18.162C110.638 18.9247 110.802 19.6007 111.132 20.19C111.478 20.762 111.955 21.204 112.562 21.516C113.186 21.8107 113.914 21.958 114.746 21.958C115.491 21.958 116.141 21.8453 116.696 21.62C117.268 21.3947 117.788 21.0567 118.256 20.606L120.414 22.946C119.772 23.674 118.966 24.2373 117.996 24.636C117.025 25.0173 115.907 25.208 114.642 25.208ZM138.426 25.208C136.935 25.208 135.609 24.896 134.448 24.272C133.304 23.648 132.394 22.7987 131.718 21.724C131.059 20.632 130.73 19.3927 130.73 18.006C130.73 16.602 131.059 15.3627 131.718 14.288C132.394 13.196 133.304 12.3467 134.448 11.74C135.609 11.116 136.935 10.804 138.426 10.804C139.899 10.804 141.216 11.116 142.378 11.74C143.539 12.3467 144.449 13.1873 145.108 14.262C145.766 15.3367 146.096 16.5847 146.096 18.006C146.096 19.3927 145.766 20.632 145.108 21.724C144.449 22.7987 143.539 23.648 142.378 24.272C141.216 24.896 139.899 25.208 138.426 25.208ZM138.426 21.88C139.102 21.88 139.708 21.724 140.246 21.412C140.783 21.1 141.208 20.658 141.52 20.086C141.832 19.4967 141.988 18.8033 141.988 18.006C141.988 17.1913 141.832 16.498 141.52 15.926C141.208 15.354 140.783 14.912 140.246 14.6C139.708 14.288 139.102 14.132 138.426 14.132C137.75 14.132 137.143 14.288 136.606 14.6C136.068 14.912 135.635 15.354 135.306 15.926C134.994 16.498 134.838 17.1913 134.838 18.006C134.838 18.8033 134.994 19.4967 135.306 20.086C135.635 20.658 136.068 21.1 136.606 21.412C137.143 21.724 137.75 21.88 138.426 21.88ZM151.368 25V13.404L152.278 14.34H146.636V11.012H160.13V14.34H154.488L155.398 13.404V25H151.368ZM166.871 25.26C165.797 25.26 164.722 25.1473 163.647 24.922C162.59 24.6967 161.611 24.3587 160.709 23.908L161.801 21.074C162.512 21.4207 163.283 21.6893 164.115 21.88C164.965 22.0533 165.823 22.14 166.689 22.14C167.313 22.14 167.851 22.0793 168.301 21.958C168.769 21.8193 169.125 21.6287 169.367 21.386C169.61 21.1433 169.731 20.8487 169.731 20.502C169.731 20.0513 169.541 19.7133 169.159 19.488C168.778 19.2453 168.223 19.124 167.495 19.124H164.635V16.602H167.157C167.625 16.602 168.024 16.55 168.353 16.446C168.683 16.342 168.925 16.1947 169.081 16.004C169.255 15.796 169.341 15.5533 169.341 15.276C169.341 14.9813 169.237 14.73 169.029 14.522C168.821 14.314 168.518 14.158 168.119 14.054C167.721 13.9327 167.218 13.872 166.611 13.872C165.918 13.872 165.199 13.9587 164.453 14.132C163.708 14.288 162.945 14.522 162.165 14.834L161.177 12.026C162.096 11.6447 163.006 11.3413 163.907 11.116C164.809 10.8907 165.701 10.7693 166.585 10.752C167.885 10.7173 169.055 10.856 170.095 11.168C171.135 11.48 171.95 11.9307 172.539 12.52C173.146 13.1093 173.449 13.8287 173.449 14.678C173.449 15.354 173.241 15.9607 172.825 16.498C172.427 17.0353 171.872 17.46 171.161 17.772C170.451 18.0667 169.653 18.214 168.769 18.214L168.873 17.408C170.416 17.408 171.629 17.72 172.513 18.344C173.397 18.9507 173.839 19.7827 173.839 20.84C173.839 21.7413 173.527 22.53 172.903 23.206C172.297 23.8647 171.465 24.376 170.407 24.74C169.367 25.0867 168.189 25.26 166.871 25.26ZM191.143 25V11.012H195.173V25H191.143ZM184.097 15.484C185.934 15.5013 187.312 15.9173 188.231 16.732C189.167 17.5293 189.635 18.6647 189.635 20.138C189.635 21.6807 189.106 22.8853 188.049 23.752C186.992 24.6013 185.492 25.026 183.551 25.026L176.739 25V11.012H180.769V15.484H184.097ZM183.187 22.14C183.967 22.1573 184.565 21.9927 184.981 21.646C185.397 21.2993 185.605 20.7793 185.605 20.086C185.605 19.3927 185.397 18.8987 184.981 18.604C184.565 18.292 183.967 18.1273 183.187 18.11L180.769 18.084V22.14H183.187ZM199.083 25V11.012H206.233C207.983 11.012 209.353 11.3327 210.341 11.974C211.329 12.598 211.823 13.482 211.823 14.626C211.823 15.77 211.355 16.6713 210.419 17.33C209.5 17.9713 208.278 18.292 206.753 18.292L207.169 17.356C208.867 17.356 210.133 17.668 210.965 18.292C211.814 18.916 212.239 19.826 212.239 21.022C212.239 22.2527 211.771 23.2233 210.835 23.934C209.899 24.6447 208.469 25 206.545 25H199.083ZM202.801 22.244H206.207C206.952 22.244 207.507 22.1227 207.871 21.88C208.252 21.62 208.443 21.23 208.443 20.71C208.443 20.1727 208.269 19.7827 207.923 19.54C207.576 19.28 207.03 19.15 206.285 19.15H202.801V22.244ZM202.801 16.758H205.869C206.579 16.758 207.108 16.628 207.455 16.368C207.819 16.108 208.001 15.7353 208.001 15.25C208.001 14.7473 207.819 14.3747 207.455 14.132C207.108 13.8893 206.579 13.768 205.869 13.768H202.801V16.758ZM229.661 25V11.012H233.691V25H229.661ZM222.615 15.484C224.452 15.5013 225.83 15.9173 226.749 16.732C227.685 17.5293 228.153 18.6647 228.153 20.138C228.153 21.6807 227.624 22.8853 226.567 23.752C225.509 24.6013 224.01 25.026 222.069 25.026L215.257 25V11.012H219.287V15.484H222.615ZM221.705 22.14C222.485 22.1573 223.083 21.9927 223.499 21.646C223.915 21.2993 224.123 20.7793 224.123 20.086C224.123 19.3927 223.915 18.8987 223.499 18.604C223.083 18.292 222.485 18.1273 221.705 18.11L219.287 18.084V22.14H221.705ZM244.964 25V11.012H248.994V16.472H255.078V11.012H259.134V25H255.078V19.774H248.994V25H244.964ZM271.388 25V22.27L271.128 21.672V16.784C271.128 15.9173 270.86 15.2413 270.322 14.756C269.802 14.2707 268.996 14.028 267.904 14.028C267.159 14.028 266.422 14.1493 265.694 14.392C264.984 14.6173 264.377 14.9293 263.874 15.328L262.418 12.494C263.181 11.9567 264.1 11.5407 265.174 11.246C266.249 10.9513 267.341 10.804 268.45 10.804C270.582 10.804 272.238 11.3067 273.416 12.312C274.595 13.3173 275.184 14.886 275.184 17.018V25H271.388ZM267.124 25.208C266.032 25.208 265.096 25.026 264.316 24.662C263.536 24.2807 262.938 23.7693 262.522 23.128C262.106 22.4867 261.898 21.7673 261.898 20.97C261.898 20.138 262.098 19.41 262.496 18.786C262.912 18.162 263.562 17.6767 264.446 17.33C265.33 16.966 266.483 16.784 267.904 16.784H271.622V19.15H268.346C267.393 19.15 266.734 19.306 266.37 19.618C266.024 19.93 265.85 20.32 265.85 20.788C265.85 21.308 266.05 21.724 266.448 22.036C266.864 22.3307 267.428 22.478 268.138 22.478C268.814 22.478 269.421 22.322 269.958 22.01C270.496 21.6807 270.886 21.204 271.128 20.58L271.752 22.452C271.458 23.3533 270.92 24.038 270.14 24.506C269.36 24.974 268.355 25.208 267.124 25.208ZM288.25 21.672L287.366 22.608V11.012H291.422V22.608L290.486 21.672H296.934L296.024 22.608V11.012H300.054V25H278.708V11.012H282.738V22.608L281.828 21.672H288.25ZM303.946 25V11.012H307.976V19.332L314.788 11.012H318.506V25H314.476V16.68L307.69 25H303.946ZM320.533 25L326.799 16.784L326.721 19.02L320.715 11.012H325.265L329.061 16.238L327.345 16.29L331.271 11.012H335.587L329.555 18.942V16.758L335.795 25H331.193L327.215 19.436L328.905 19.67L324.953 25H320.533ZM1.95 57V43.012H15.86V57H11.804V45.43L12.714 46.34H5.07L5.98 45.43V57H1.95ZM26.3008 57.208C24.8102 57.208 23.4842 56.896 22.3228 56.272C21.1788 55.648 20.2688 54.7987 19.5928 53.724C18.9342 52.632 18.6048 51.3927 18.6048 50.006C18.6048 48.602 18.9342 47.3627 19.5928 46.288C20.2688 45.196 21.1788 44.3467 22.3228 43.74C23.4842 43.116 24.8102 42.804 26.3008 42.804C27.7742 42.804 29.0915 43.116 30.2528 43.74C31.4142 44.3467 32.3242 45.1873 32.9828 46.262C33.6415 47.3367 33.9708 48.5847 33.9708 50.006C33.9708 51.3927 33.6415 52.632 32.9828 53.724C32.3242 54.7987 31.4142 55.648 30.2528 56.272C29.0915 56.896 27.7742 57.208 26.3008 57.208ZM26.3008 53.88C26.9768 53.88 27.5835 53.724 28.1208 53.412C28.6582 53.1 29.0828 52.658 29.3948 52.086C29.7068 51.4967 29.8628 50.8033 29.8628 50.006C29.8628 49.1913 29.7068 48.498 29.3948 47.926C29.0828 47.354 28.6582 46.912 28.1208 46.6C27.5835 46.288 26.9768 46.132 26.3008 46.132C25.6248 46.132 25.0182 46.288 24.4808 46.6C23.9435 46.912 23.5102 47.354 23.1808 47.926C22.8688 48.498 22.7128 49.1913 22.7128 50.006C22.7128 50.8033 22.8688 51.4967 23.1808 52.086C23.5102 52.658 23.9435 53.1 24.4808 53.412C25.0182 53.724 25.6248 53.88 26.3008 53.88ZM46.6665 57L41.9865 50.37L45.2885 48.42L51.4505 57H46.6665ZM36.7605 57V43.012H40.8165V57H36.7605ZM39.6205 51.696V48.446H44.5085V51.696H39.6205ZM45.6785 50.474L41.8825 50.058L46.7965 43.012H51.1125L45.6785 50.474ZM54.5531 62.252C53.8251 62.252 53.1057 62.1393 52.3951 61.914C51.6844 61.6887 51.1037 61.3767 50.6531 60.978L52.1351 58.092C52.4471 58.3693 52.8024 58.586 53.2011 58.742C53.6171 58.898 54.0244 58.976 54.4231 58.976C54.9951 58.976 55.4457 58.8373 55.7751 58.56C56.1217 58.3 56.4337 57.858 56.7111 57.234L57.4391 55.518L57.7511 55.076L62.7691 43.012H66.6691L60.3511 57.858C59.9004 58.9847 59.3804 59.8687 58.7911 60.51C58.2191 61.1513 57.5777 61.602 56.8671 61.862C56.1737 62.122 55.4024 62.252 54.5531 62.252ZM56.9451 57.546L50.7051 43.012H54.8911L59.7271 54.712L56.9451 57.546ZM68.6258 57V43.012H82.5358V57H78.4798V45.43L79.3898 46.34H71.7458L72.6558 45.43V57H68.6258ZM94.7966 57V54.27L94.5366 53.672V48.784C94.5366 47.9173 94.2679 47.2413 93.7306 46.756C93.2106 46.2707 92.4046 46.028 91.3126 46.028C90.5673 46.028 89.8306 46.1493 89.1026 46.392C88.3919 46.6173 87.7853 46.9293 87.2826 47.328L85.8266 44.494C86.5893 43.9567 87.5079 43.5407 88.5826 43.246C89.6573 42.9513 90.7493 42.804 91.8586 42.804C93.9906 42.804 95.6459 43.3067 96.8246 44.312C98.0033 45.3173 98.5926 46.886 98.5926 49.018V57H94.7966ZM90.5326 57.208C89.4406 57.208 88.5046 57.026 87.7246 56.662C86.9446 56.2807 86.3466 55.7693 85.9306 55.128C85.5146 54.4867 85.3066 53.7673 85.3066 52.97C85.3066 52.138 85.5059 51.41 85.9046 50.786C86.3206 50.162 86.9706 49.6767 87.8546 49.33C88.7386 48.966 89.8913 48.784 91.3126 48.784H95.0306V51.15H91.7546C90.8013 51.15 90.1426 51.306 89.7786 51.618C89.4319 51.93 89.2586 52.32 89.2586 52.788C89.2586 53.308 89.4579 53.724 89.8566 54.036C90.2726 54.3307 90.8359 54.478 91.5466 54.478C92.2226 54.478 92.8293 54.322 93.3666 54.01C93.9039 53.6807 94.2939 53.204 94.5366 52.58L95.1606 54.452C94.8659 55.3533 94.3286 56.038 93.5486 56.506C92.7686 56.974 91.7633 57.208 90.5326 57.208ZM105.106 57V45.404L106.016 46.34H100.374V43.012H113.868V46.34H108.226L109.136 45.404V57H105.106ZM122.284 57.208C120.689 57.208 119.285 56.896 118.072 56.272C116.876 55.648 115.949 54.7987 115.29 53.724C114.631 52.632 114.302 51.3927 114.302 50.006C114.302 48.602 114.623 47.3627 115.264 46.288C115.923 45.196 116.815 44.3467 117.942 43.74C119.069 43.116 120.343 42.804 121.764 42.804C123.133 42.804 124.364 43.0987 125.456 43.688C126.565 44.26 127.441 45.092 128.082 46.184C128.723 47.2587 129.044 48.55 129.044 50.058C129.044 50.214 129.035 50.396 129.018 50.604C129.001 50.7947 128.983 50.9767 128.966 51.15H117.604V48.784H126.834L125.274 49.486C125.274 48.758 125.127 48.1253 124.832 47.588C124.537 47.0507 124.13 46.6347 123.61 46.34C123.09 46.028 122.483 45.872 121.79 45.872C121.097 45.872 120.481 46.028 119.944 46.34C119.424 46.6347 119.017 47.0593 118.722 47.614C118.427 48.1513 118.28 48.7927 118.28 49.538V50.162C118.28 50.9247 118.445 51.6007 118.774 52.19C119.121 52.762 119.597 53.204 120.204 53.516C120.828 53.8107 121.556 53.958 122.388 53.958C123.133 53.958 123.783 53.8453 124.338 53.62C124.91 53.3947 125.43 53.0567 125.898 52.606L128.056 54.946C127.415 55.674 126.609 56.2373 125.638 56.636C124.667 57.0173 123.549 57.208 122.284 57.208ZM130.258 56.974L130.466 53.646C130.57 53.6633 130.674 53.6807 130.778 53.698C130.882 53.698 130.978 53.698 131.064 53.698C131.55 53.698 131.931 53.5593 132.208 53.282C132.486 53.0047 132.694 52.632 132.832 52.164C132.971 51.6787 133.066 51.1327 133.118 50.526C133.188 49.9193 133.24 49.2867 133.274 48.628L133.482 43.012H145.442V57H141.386V45.352L142.296 46.34H136.16L137.018 45.3L136.836 48.81C136.784 50.058 136.68 51.202 136.524 52.242C136.386 53.282 136.152 54.1833 135.822 54.946C135.493 55.6913 135.051 56.272 134.496 56.688C133.942 57.0867 133.231 57.286 132.364 57.286C132.052 57.286 131.723 57.26 131.376 57.208C131.03 57.156 130.657 57.078 130.258 56.974ZM156.181 57.208C154.586 57.208 153.182 56.896 151.969 56.272C150.773 55.648 149.845 54.7987 149.187 53.724C148.528 52.632 148.199 51.3927 148.199 50.006C148.199 48.602 148.519 47.3627 149.161 46.288C149.819 45.196 150.712 44.3467 151.839 43.74C152.965 43.116 154.239 42.804 155.661 42.804C157.03 42.804 158.261 43.0987 159.353 43.688C160.462 44.26 161.337 45.092 161.979 46.184C162.62 47.2587 162.941 48.55 162.941 50.058C162.941 50.214 162.932 50.396 162.915 50.604C162.897 50.7947 162.88 50.9767 162.863 51.15H151.501V48.784H160.731L159.171 49.486C159.171 48.758 159.023 48.1253 158.729 47.588C158.434 47.0507 158.027 46.6347 157.507 46.34C156.987 46.028 156.38 45.872 155.687 45.872C154.993 45.872 154.378 46.028 153.841 46.34C153.321 46.6347 152.913 47.0593 152.619 47.614C152.324 48.1513 152.177 48.7927 152.177 49.538V50.162C152.177 50.9247 152.341 51.6007 152.671 52.19C153.017 52.762 153.494 53.204 154.101 53.516C154.725 53.8107 155.453 53.958 156.285 53.958C157.03 53.958 157.68 53.8453 158.235 53.62C158.807 53.3947 159.327 53.0567 159.795 52.606L161.953 54.946C161.311 55.674 160.505 56.2373 159.535 56.636C158.564 57.0173 157.446 57.208 156.181 57.208ZM166.05 57V43.012H170.08V51.332L176.892 43.012H180.61V57H176.58V48.68L169.794 57H166.05ZM173.07 41.504C171.544 41.504 170.4 41.1747 169.638 40.516C168.875 39.84 168.485 38.826 168.468 37.474H171.12C171.137 38.0633 171.302 38.5313 171.614 38.878C171.926 39.2247 172.402 39.398 173.044 39.398C173.668 39.398 174.144 39.2247 174.474 38.878C174.82 38.5313 174.994 38.0633 174.994 37.474H177.698C177.698 38.826 177.308 39.84 176.528 40.516C175.748 41.1747 174.595 41.504 173.07 41.504ZM191.872 57V43.012H195.902V48.472H201.986V43.012H206.042V57H201.986V51.774H195.902V57H191.872ZM218.297 57V54.27L218.037 53.672V48.784C218.037 47.9173 217.768 47.2413 217.231 46.756C216.711 46.2707 215.905 46.028 214.813 46.028C214.067 46.028 213.331 46.1493 212.603 46.392C211.892 46.6173 211.285 46.9293 210.783 47.328L209.327 44.494C210.089 43.9567 211.008 43.5407 212.083 43.246C213.157 42.9513 214.249 42.804 215.359 42.804C217.491 42.804 219.146 43.3067 220.325 44.312C221.503 45.3173 222.093 46.886 222.093 49.018V57H218.297ZM214.033 57.208C212.941 57.208 212.005 57.026 211.225 56.662C210.445 56.2807 209.847 55.7693 209.431 55.128C209.015 54.4867 208.807 53.7673 208.807 52.97C208.807 52.138 209.006 51.41 209.405 50.786C209.821 50.162 210.471 49.6767 211.355 49.33C212.239 48.966 213.391 48.784 214.813 48.784H218.531V51.15H215.255C214.301 51.15 213.643 51.306 213.279 51.618C212.932 51.93 212.759 52.32 212.759 52.788C212.759 53.308 212.958 53.724 213.357 54.036C213.773 54.3307 214.336 54.478 215.047 54.478C215.723 54.478 216.329 54.322 216.867 54.01C217.404 53.6807 217.794 53.204 218.037 52.58L218.661 54.452C218.366 55.3533 217.829 56.038 217.049 56.506C216.269 56.974 215.263 57.208 214.033 57.208ZM232.979 57V43.012H237.217L242.495 52.58H240.805L246.447 43.012H250.243L250.295 57H246.629V47.172L247.253 47.588L242.443 55.648H240.727L235.891 47.302L236.645 47.12V57H232.979ZM262.552 57V54.27L262.292 53.672V48.784C262.292 47.9173 262.024 47.2413 261.486 46.756C260.966 46.2707 260.16 46.028 259.068 46.028C258.323 46.028 257.586 46.1493 256.858 46.392C256.148 46.6173 255.541 46.9293 255.038 47.328L253.582 44.494C254.345 43.9567 255.264 43.5407 256.338 43.246C257.413 42.9513 258.505 42.804 259.614 42.804C261.746 42.804 263.402 43.3067 264.58 44.312C265.759 45.3173 266.348 46.886 266.348 49.018V57H262.552ZM258.288 57.208C257.196 57.208 256.26 57.026 255.48 56.662C254.7 56.2807 254.102 55.7693 253.686 55.128C253.27 54.4867 253.062 53.7673 253.062 52.97C253.062 52.138 253.262 51.41 253.66 50.786C254.076 50.162 254.726 49.6767 255.61 49.33C256.494 48.966 257.647 48.784 259.068 48.784H262.786V51.15H259.51C258.557 51.15 257.898 51.306 257.534 51.618C257.188 51.93 257.014 52.32 257.014 52.788C257.014 53.308 257.214 53.724 257.612 54.036C258.028 54.3307 258.592 54.478 259.302 54.478C259.978 54.478 260.585 54.322 261.122 54.01C261.66 53.6807 262.05 53.204 262.292 52.58L262.916 54.452C262.622 55.3533 262.084 56.038 261.304 56.506C260.524 56.974 259.519 57.208 258.288 57.208ZM278.114 57.208C276.935 57.208 275.904 56.948 275.02 56.428C274.136 55.908 273.443 55.1193 272.94 54.062C272.455 52.9873 272.212 51.6353 272.212 50.006C272.212 48.3593 272.446 47.0073 272.914 45.95C273.382 44.8927 274.058 44.104 274.942 43.584C275.826 43.064 276.883 42.804 278.114 42.804C279.431 42.804 280.61 43.1073 281.65 43.714C282.707 44.3033 283.539 45.1353 284.146 46.21C284.77 47.2847 285.082 48.55 285.082 50.006C285.082 51.4793 284.77 52.7533 284.146 53.828C283.539 54.9027 282.707 55.7347 281.65 56.324C280.61 56.9133 279.431 57.208 278.114 57.208ZM269.846 62.044V43.012H273.72V45.872L273.642 50.032L273.902 54.166V62.044H269.846ZM277.412 53.88C278.088 53.88 278.686 53.724 279.206 53.412C279.743 53.1 280.168 52.658 280.48 52.086C280.809 51.4967 280.974 50.8033 280.974 50.006C280.974 49.1913 280.809 48.498 280.48 47.926C280.168 47.354 279.743 46.912 279.206 46.6C278.686 46.288 278.088 46.132 277.412 46.132C276.736 46.132 276.129 46.288 275.592 46.6C275.055 46.912 274.63 47.354 274.318 47.926C274.006 48.498 273.85 49.1913 273.85 50.006C273.85 50.8033 274.006 51.4967 274.318 52.086C274.63 52.658 275.055 53.1 275.592 53.412C276.129 53.724 276.736 53.88 277.412 53.88ZM297.831 57L293.151 50.37L296.453 48.42L302.615 57H297.831ZM287.925 57V43.012H291.981V57H287.925ZM290.785 51.696V48.446H295.673V51.696H290.785ZM296.843 50.474L293.047 50.058L297.961 43.012H302.277L296.843 50.474ZM311.013 57.208C309.418 57.208 308.014 56.896 306.801 56.272C305.605 55.648 304.677 54.7987 304.019 53.724C303.36 52.632 303.031 51.3927 303.031 50.006C303.031 48.602 303.351 47.3627 303.993 46.288C304.651 45.196 305.544 44.3467 306.671 43.74C307.797 43.116 309.071 42.804 310.493 42.804C311.862 42.804 313.093 43.0987 314.185 43.688C315.294 44.26 316.169 45.092 316.811 46.184C317.452 47.2587 317.773 48.55 317.773 50.058C317.773 50.214 317.764 50.396 317.747 50.604C317.729 50.7947 317.712 50.9767 317.695 51.15H306.333V48.784H315.563L314.003 49.486C314.003 48.758 313.855 48.1253 313.561 47.588C313.266 47.0507 312.859 46.6347 312.339 46.34C311.819 46.028 311.212 45.872 310.519 45.872C309.825 45.872 309.21 46.028 308.673 46.34C308.153 46.6347 307.745 47.0593 307.451 47.614C307.156 48.1513 307.009 48.7927 307.009 49.538V50.162C307.009 50.9247 307.173 51.6007 307.503 52.19C307.849 52.762 308.326 53.204 308.933 53.516C309.557 53.8107 310.285 53.958 311.117 53.958C311.862 53.958 312.512 53.8453 313.067 53.62C313.639 53.3947 314.159 53.0567 314.627 52.606L316.785 54.946C316.143 55.674 315.337 56.2373 314.367 56.636C313.396 57.0173 312.278 57.208 311.013 57.208ZM323.389 57V45.404L324.299 46.34H318.657V43.012H332.151V46.34H326.509L327.419 45.404V57H323.389ZM334.313 57V43.012H348.223V57H344.167V45.43L345.077 46.34H337.433L338.343 45.43V57H334.313ZM350.344 56.974L350.552 53.646C350.656 53.6633 350.76 53.6807 350.864 53.698C350.968 53.698 351.063 53.698 351.15 53.698C351.635 53.698 352.017 53.5593 352.294 53.282C352.571 53.0047 352.779 52.632 352.918 52.164C353.057 51.6787 353.152 51.1327 353.204 50.526C353.273 49.9193 353.325 49.2867 353.36 48.628L353.568 43.012H365.528V57H361.472V45.352L362.382 46.34H356.246L357.104 45.3L356.922 48.81C356.87 50.058 356.766 51.202 356.61 52.242C356.471 53.282 356.237 54.1833 355.908 54.946C355.579 55.6913 355.137 56.272 354.582 56.688C354.027 57.0867 353.317 57.286 352.45 57.286C352.138 57.286 351.809 57.26 351.462 57.208C351.115 57.156 350.743 57.078 350.344 56.974ZM376.267 57.208C374.672 57.208 373.268 56.896 372.055 56.272C370.859 55.648 369.931 54.7987 369.273 53.724C368.614 52.632 368.285 51.3927 368.285 50.006C368.285 48.602 368.605 47.3627 369.247 46.288C369.905 45.196 370.798 44.3467 371.925 43.74C373.051 43.116 374.325 42.804 375.747 42.804C377.116 42.804 378.347 43.0987 379.439 43.688C380.548 44.26 381.423 45.092 382.065 46.184C382.706 47.2587 383.027 48.55 383.027 50.058C383.027 50.214 383.018 50.396 383.001 50.604C382.983 50.7947 382.966 50.9767 382.949 51.15H371.587V48.784H380.817L379.257 49.486C379.257 48.758 379.109 48.1253 378.815 47.588C378.52 47.0507 378.113 46.6347 377.593 46.34C377.073 46.028 376.466 45.872 375.773 45.872C375.079 45.872 374.464 46.028 373.927 46.34C373.407 46.6347 372.999 47.0593 372.705 47.614C372.41 48.1513 372.263 48.7927 372.263 49.538V50.162C372.263 50.9247 372.427 51.6007 372.757 52.19C373.103 52.762 373.58 53.204 374.187 53.516C374.811 53.8107 375.539 53.958 376.371 53.958C377.116 53.958 377.766 53.8453 378.321 53.62C378.893 53.3947 379.413 53.0567 379.881 52.606L382.039 54.946C381.397 55.674 380.591 56.2373 379.621 56.636C378.65 57.0173 377.532 57.208 376.267 57.208ZM386.136 57V43.012H390.166V51.332L396.978 43.012H400.696V57H396.666V48.68L389.88 57H386.136ZM393.156 41.504C391.63 41.504 390.486 41.1747 389.724 40.516C388.961 39.84 388.571 38.826 388.554 37.474H391.206C391.223 38.0633 391.388 38.5313 391.7 38.878C392.012 39.2247 392.488 39.398 393.13 39.398C393.754 39.398 394.23 39.2247 394.56 38.878C394.906 38.5313 395.08 38.0633 395.08 37.474H397.784C397.784 38.826 397.394 39.84 396.614 40.516C395.834 41.1747 394.681 41.504 393.156 41.504ZM411.251 57.208C409.743 57.208 408.399 56.9047 407.221 56.298C406.042 55.674 405.115 54.816 404.439 53.724C403.78 52.632 403.451 51.3927 403.451 50.006C403.451 48.602 403.78 47.3627 404.439 46.288C405.115 45.196 406.042 44.3467 407.221 43.74C408.399 43.116 409.743 42.804 411.251 42.804C412.724 42.804 414.007 43.116 415.099 43.74C416.191 44.3467 416.997 45.222 417.517 46.366L414.371 48.056C414.007 47.3973 413.547 46.912 412.993 46.6C412.455 46.288 411.866 46.132 411.225 46.132C410.531 46.132 409.907 46.288 409.353 46.6C408.798 46.912 408.356 47.354 408.027 47.926C407.715 48.498 407.559 49.1913 407.559 50.006C407.559 50.8207 407.715 51.514 408.027 52.086C408.356 52.658 408.798 53.1 409.353 53.412C409.907 53.724 410.531 53.88 411.225 53.88C411.866 53.88 412.455 53.7327 412.993 53.438C413.547 53.126 414.007 52.632 414.371 51.956L417.517 53.672C416.997 54.7987 416.191 55.674 415.099 56.298C414.007 56.9047 412.724 57.208 411.251 57.208ZM428.353 57V54.27L428.093 53.672V48.784C428.093 47.9173 427.825 47.2413 427.287 46.756C426.767 46.2707 425.961 46.028 424.869 46.028C424.124 46.028 423.387 46.1493 422.659 46.392C421.949 46.6173 421.342 46.9293 420.839 47.328L419.383 44.494C420.146 43.9567 421.065 43.5407 422.139 43.246C423.214 42.9513 424.306 42.804 425.415 42.804C427.547 42.804 429.203 43.3067 430.381 44.312C431.56 45.3173 432.149 46.886 432.149 49.018V57H428.353ZM424.089 57.208C422.997 57.208 422.061 57.026 421.281 56.662C420.501 56.2807 419.903 55.7693 419.487 55.128C419.071 54.4867 418.863 53.7673 418.863 52.97C418.863 52.138 419.063 51.41 419.461 50.786C419.877 50.162 420.527 49.6767 421.411 49.33C422.295 48.966 423.448 48.784 424.869 48.784H428.587V51.15H425.311C424.358 51.15 423.699 51.306 423.335 51.618C422.989 51.93 422.815 52.32 422.815 52.788C422.815 53.308 423.015 53.724 423.413 54.036C423.829 54.3307 424.393 54.478 425.103 54.478C425.779 54.478 426.386 54.322 426.923 54.01C427.461 53.6807 427.851 53.204 428.093 52.58L428.717 54.452C428.423 55.3533 427.885 56.038 427.105 56.506C426.325 56.974 425.32 57.208 424.089 57.208ZM433.801 57L440.067 48.784L439.989 51.02L433.983 43.012H438.533L442.329 48.238L440.613 48.29L444.539 43.012H448.855L442.823 50.942V48.758L449.063 57H444.461L440.483 51.436L442.173 51.67L438.221 57H433.801Z" fill="white"/>
</svg>
