<svg width="37" height="37" viewBox="0 0 37 37" fill="none" xmlns="http://www.w3.org/2000/svg">
<rect x="0.380859" y="0.5" width="35.9485" height="35.9485" rx="17.9743" fill="url(#paint0_linear_7171_2501)"/>
<path d="M12.0816 23.2669H10.1912L7.37744 13.6828H9.09683L11.1847 21.1726L13.4435 13.6828H14.9502L17.1937 21.1726L19.2816 13.6828H21.001L18.1872 23.2669H16.2968L14.1936 16.2717L12.0772 23.2669H12.0816ZM27.5539 18.2963C28.4202 18.7337 28.9466 19.5284 28.9466 20.528C28.9466 21.3078 28.6614 21.9651 28.0803 22.485C27.4969 23.0049 26.8017 23.2648 25.9639 23.2648H21.7028V13.6807H25.6525C26.4618 13.6807 27.1592 13.9406 27.7118 14.4478C28.2799 14.955 28.565 15.5848 28.565 16.3372C28.565 17.172 28.225 17.8165 27.5561 18.2942L27.5539 18.2963ZM25.6503 15.1621H23.3344V17.6813H25.6503C26.374 17.6813 26.9289 17.1339 26.9289 16.4217C26.9289 15.7095 26.374 15.1621 25.6503 15.1621ZM23.3344 21.7876H25.9617C26.714 21.7876 27.3105 21.1979 27.3105 20.4456C27.3105 19.6932 26.714 19.1036 25.9617 19.1036H23.3344V21.7876Z" fill="white"/>
<defs>
<linearGradient id="paint0_linear_7171_2501" x1="36.3294" y1="0.5" x2="0.380859" y2="36.4485" gradientUnits="userSpaceOnUse">
<stop stop-color="#491174"/>
<stop offset="1" stop-color="#CC11AC"/>
</linearGradient>
</defs>
</svg>
