<svg width="39" height="39" viewBox="0 0 39 39" fill="none" xmlns="http://www.w3.org/2000/svg">
<rect x="0.0454102" width="38.9485" height="38.9485" rx="19.4743" fill="#28CB47"/>
<path d="M23.0985 20.3708C23.0711 20.3565 22.0441 19.8081 21.8616 19.7369C21.7871 19.7079 21.7073 19.6795 21.6224 19.6795C21.4837 19.6795 21.3672 19.7545 21.2765 19.9017C21.1739 20.0671 20.8634 20.4608 20.7674 20.5784C20.7549 20.5939 20.7378 20.6124 20.7275 20.6124C20.7183 20.6124 20.5594 20.5415 20.5113 20.5188C19.4096 19.9998 18.5734 18.7518 18.4587 18.5413C18.4423 18.5111 18.4417 18.4973 18.4415 18.4973C18.4455 18.4813 18.4826 18.441 18.5017 18.4203C18.5576 18.3602 18.6182 18.2811 18.6769 18.2046C18.7046 18.1683 18.7325 18.132 18.7598 18.0978C18.8448 17.9905 18.8827 17.9071 18.9266 17.8106L18.9496 17.7605C19.0568 17.5295 18.9653 17.3345 18.9357 17.2716C18.9114 17.2189 18.4777 16.0839 18.4316 15.9647C18.3208 15.6769 18.1743 15.543 17.9707 15.543C17.9518 15.543 17.9707 15.543 17.8915 15.5466C17.795 15.551 17.2697 15.626 17.0375 15.7848C16.7912 15.9532 16.3745 16.49 16.3745 17.434C16.3745 18.2836 16.8717 19.0858 17.0851 19.3909C17.0904 19.3986 17.1002 19.4142 17.1143 19.4366C17.9318 20.7313 18.9508 21.6908 19.9839 22.1384C20.9785 22.5692 21.4494 22.619 21.7172 22.619H21.7172C21.8297 22.619 21.9198 22.6094 21.9992 22.601L22.0496 22.5958C22.3932 22.5627 23.1482 22.1384 23.32 21.6208C23.4553 21.2132 23.491 20.7677 23.4009 20.6061C23.3393 20.4962 23.233 20.4409 23.0985 20.3708Z" fill="white"/>
<path d="M19.645 12.3984C15.8122 12.3984 12.694 15.4932 12.694 19.2973C12.694 20.5276 13.0232 21.732 13.647 22.786L12.4531 26.3077C12.4309 26.3734 12.4474 26.446 12.496 26.4954C12.531 26.5312 12.5786 26.5505 12.6271 26.5505C12.6458 26.5505 12.6645 26.5477 12.6828 26.5419L16.355 25.375C17.3599 25.9119 18.4956 26.1953 19.6451 26.1953C23.4775 26.1954 26.5955 23.1009 26.5955 19.2973C26.5955 15.4932 23.4775 12.3984 19.645 12.3984ZM19.645 24.7583C18.5634 24.7583 17.5159 24.446 16.6154 23.8551C16.5851 23.8352 16.5499 23.825 16.5146 23.825C16.4959 23.825 16.4771 23.8278 16.4589 23.8336L14.6193 24.4184L15.2132 22.6664C15.2324 22.6097 15.2228 22.5471 15.1874 22.4988C14.5017 21.5618 14.1392 20.4548 14.1392 19.2973C14.1392 16.2857 16.6091 13.8355 19.645 13.8355C22.6805 13.8355 25.1502 16.2857 25.1502 19.2973C25.1502 22.3085 22.6806 24.7583 19.645 24.7583Z" fill="white"/>
</svg>
