<svg width="32" height="32" viewBox="0 0 32 32" fill="none" xmlns="http://www.w3.org/2000/svg">
<rect width="32" height="32" rx="16" fill="#25D366"/>
<path d="M19.8537 16.9652C19.8242 16.9498 18.7189 16.3596 18.5225 16.2829C18.4423 16.2517 18.3565 16.2212 18.2651 16.2212C18.1158 16.2212 17.9905 16.3018 17.8928 16.4603C17.7824 16.6383 17.4482 17.062 17.3449 17.1885C17.3314 17.2052 17.313 17.2252 17.302 17.2252C17.2921 17.2252 17.121 17.1488 17.0693 17.1244C15.8836 16.5659 14.9837 15.2227 14.8603 14.9962C14.8426 14.9637 14.8419 14.9489 14.8417 14.9489C14.8461 14.9316 14.8859 14.8883 14.9065 14.8659C14.9667 14.8013 15.0319 14.7162 15.095 14.6338C15.1249 14.5948 15.1549 14.5557 15.1842 14.5189C15.2758 14.4034 15.3166 14.3137 15.3638 14.2098L15.3886 14.1558C15.5039 13.9072 15.4054 13.6974 15.3736 13.6297C15.3474 13.573 14.8807 12.3515 14.8311 12.2232C14.7118 11.9135 14.5541 11.7693 14.335 11.7693C14.3147 11.7693 14.335 11.7693 14.2498 11.7732C14.146 11.778 13.5806 11.8587 13.3307 12.0296C13.0656 12.2108 12.6172 12.7885 12.6172 13.8045C12.6172 14.7188 13.1522 15.5822 13.382 15.9106C13.3877 15.9188 13.3982 15.9356 13.4134 15.9598C14.2931 17.3532 15.3899 18.3858 16.5017 18.8674C17.5721 19.3311 18.0789 19.3847 18.3671 19.3847H18.3671C18.4882 19.3847 18.5851 19.3744 18.6706 19.3653L18.7249 19.3597C19.0947 19.3241 19.9072 18.8675 20.0921 18.3105C20.2377 17.8717 20.2761 17.3923 20.1792 17.2184C20.1128 17.1001 19.9985 17.0405 19.8537 16.9652Z" fill="white"/>
<path d="M16.1373 8.38461C12.0123 8.38461 8.65641 11.7153 8.65641 15.8093C8.65641 17.1334 9.01078 18.4296 9.68207 19.564L8.39719 23.3541C8.37326 23.4248 8.39106 23.5029 8.44333 23.5561C8.48106 23.5947 8.53224 23.6154 8.58451 23.6154C8.60454 23.6154 8.62471 23.6124 8.6444 23.6061L12.5965 22.3503C13.678 22.9281 14.9003 23.2331 16.1374 23.2331C20.262 23.2332 23.6175 19.9028 23.6175 15.8093C23.6175 11.7153 20.262 8.38461 16.1373 8.38461ZM16.1373 21.6866C14.9733 21.6866 13.8459 21.3504 12.8767 20.7145C12.8441 20.6931 12.8063 20.6821 12.7682 20.6821C12.7481 20.6821 12.7279 20.6852 12.7083 20.6914L10.7285 21.3207L11.3676 19.4352C11.3883 19.3742 11.378 19.3069 11.3399 19.2549C10.6019 18.2465 10.2118 17.055 10.2118 15.8093C10.2118 12.5681 12.87 9.93123 16.1373 9.93123C19.4042 9.93123 22.0621 12.5681 22.0621 15.8093C22.0621 19.05 19.4043 21.6866 16.1373 21.6866Z" fill="white"/>
</svg>
