<svg width="117" height="20" viewBox="0 0 117 20" fill="none" xmlns="http://www.w3.org/2000/svg">
<g clip-path="url(#clip0_5629_5322)">
<path d="M12.9997 20C7.49867 20 3.02808 15.534 3.02808 10.018C3.02808 4.50133 7.49867 0 12.9997 0C18.5 0 22.9713 4.50133 22.9713 10.018C22.9713 15.534 18.5 20 12.9997 20Z" fill="#FF5226"/>
<path d="M11.4554 1.35352L0.331055 18.7602H5.43053L11.8569 8.72685L11.7 8.65552L9.91841 15.8355L13.6903 16.5022L17.5673 11.6155L17.3572 11.5108L16.0476 17.0615L24.2662 15.4908L22.5896 12.7215L19.6274 13.4015L19.9771 13.8048L21.3565 8.00818L18.143 5.85352L13.935 11.1602L14.1444 11.2655L15.8728 4.31218L11.4554 1.35352Z" fill="#FFDD00"/>
<path d="M11.4554 1.35352L0.331055 18.7602H5.43053L11.8569 8.72685L11.7 8.65552L9.91841 15.8355L13.6903 16.5022L17.5673 11.6155L17.3572 11.5108L16.0476 17.0615L19.3515 16.4302L21.3565 8.00818L18.143 5.85352L13.935 11.1602L14.1444 11.2655L15.8728 4.31218L11.4554 1.35352Z" fill="#FFDD00"/>
<path d="M26.7936 16.2999L32.994 3.7199H37.7158L38.6811 11.3792L43.4648 3.71924H48.1461V16.2999H43.5678V9.54657L39.3173 16.2999H34.739L33.8568 9.48457L30.4891 16.2999H26.7936ZM62.2101 13.8086C62.2101 14.2346 62.2174 14.6532 62.2307 15.0646C62.2446 15.4766 62.2719 15.8812 62.3131 16.2792H58.0626C57.9617 16.0816 57.8793 15.8749 57.8166 15.6619C57.7329 15.38 57.6778 15.0903 57.6524 14.7972C57.2143 15.3186 56.6599 15.7506 55.9891 16.0939C55.3323 16.4239 54.3943 16.5886 53.1765 16.5886C51.9446 16.5886 50.9588 16.2999 50.2196 15.7239C49.4943 15.1472 49.132 14.3786 49.132 13.4172C49.132 12.5252 49.3846 11.8392 49.8912 11.3586C50.4117 10.8646 51.2187 10.5212 52.3143 10.3292C53.4091 10.1226 54.8118 10.0199 56.5229 10.0199H57.5906V9.79324C57.5906 9.35457 57.4058 9.0179 57.0361 8.78457C56.6665 8.55124 55.9752 8.43457 54.9627 8.43457C53.9636 8.43457 53.0329 8.56524 52.17 8.8259C51.3218 9.07257 50.6304 9.3199 50.0966 9.56724V6.8079C50.6989 6.5879 51.5066 6.36857 52.5197 6.14924C53.5461 5.9159 54.7161 5.79924 56.0303 5.79924C57.3579 5.79924 58.48 5.92257 59.3974 6.1699C60.3148 6.40324 61.0128 6.8079 61.4914 7.38457C61.9707 7.94724 62.2101 8.7299 62.2101 9.7319V13.8086ZM63.6061 6.10857H67.8566L68.1026 7.8579C68.6231 7.1719 69.2454 6.67124 69.9713 6.35524C70.6966 6.03924 71.5315 5.8819 72.4762 5.8819C73.5438 5.8819 74.5017 6.0739 75.3506 6.45791C76.1807 6.82646 76.8815 7.43631 77.3622 8.20857C77.8555 8.99057 78.1015 9.97924 78.1015 11.1732C78.1015 12.3672 77.8555 13.3626 77.3622 14.1586C76.8836 14.9412 76.2128 15.5319 75.3506 15.9292C74.4878 16.3279 73.5026 16.5266 72.3937 16.5266C71.6 16.5316 70.8125 16.3848 70.0737 16.0939C69.3617 15.7926 68.7461 15.3186 68.2263 14.6739V18.9566H63.6061V6.1079V6.10857ZM91.488 11.1732C91.488 10.1572 91.7619 9.25124 92.3096 8.45524C92.8707 7.65924 93.6645 7.03524 94.6909 6.5819C95.7312 6.11524 96.9564 5.8819 98.3664 5.8819C99.8309 5.8819 101.056 6.13524 102.041 6.64324C103.04 7.15124 103.738 7.8719 104.135 8.80524C104.546 9.73857 104.601 10.8439 104.299 12.1206H96.1899C96.3541 12.7106 96.7171 13.1566 97.2782 13.4586C97.8532 13.7472 98.7014 13.8912 99.8236 13.8912C100.604 13.8912 101.329 13.8226 102 13.6846C102.631 13.5448 103.255 13.3732 103.869 13.1706V15.6206C103.28 15.8952 102.623 16.1146 101.898 16.2792C101.186 16.4439 100.248 16.5266 99.085 16.5266C96.525 16.5266 94.6157 16.0532 93.3567 15.1059C92.1109 14.1452 91.488 12.8346 91.488 11.1732ZM104.69 6.1079H116.414V8.7439H112.759V16.2792H108.139V8.7439H104.69V6.1079ZM78.9843 6.1079H83.6038V10.7199L87.9773 6.1079H91.9606L87.8949 10.3492L92.8022 16.2792H87.2175L83.6038 11.7906V16.2792H78.9843V6.1079ZM98.387 8.1879C97.7568 8.1879 97.2576 8.37324 96.8879 8.7439C96.5183 9.10057 96.279 9.56057 96.1693 10.1232H100.234C100.221 9.56057 100.07 9.10057 99.783 8.74324C99.4952 8.37324 99.0298 8.1879 98.387 8.1879ZM73.3796 11.1732C73.3796 10.3492 73.1536 9.69724 72.7015 9.21724C72.2641 8.72324 71.6339 8.4759 70.8129 8.4759C70.0604 8.4759 69.4302 8.70924 68.9243 9.1759C68.4177 9.62924 68.1644 10.2946 68.1644 11.1732C68.1644 12.0519 68.4104 12.7312 68.9037 13.2119C69.4102 13.6786 70.0464 13.9119 70.8129 13.9119C71.6618 13.9119 72.298 13.6646 72.7221 13.1706C73.1602 12.6766 73.3796 12.0106 73.3796 11.1732ZM57.5906 11.8932H56.5435C55.5444 11.8932 54.8258 11.9766 54.3877 12.1412C53.9636 12.3059 53.7515 12.6212 53.7515 13.0879C53.7515 13.4859 53.8884 13.7812 54.1617 13.9732C54.4495 14.1519 54.7912 14.2412 55.1887 14.2412C55.791 14.2412 56.2836 14.1312 56.6665 13.9119C57.0634 13.6786 57.3719 13.4106 57.5906 13.1086V11.8932Z" fill="black"/>
</g>
<defs>
<clipPath id="clip0_5629_5322">
<rect width="117" height="20" fill="white"/>
</clipPath>
</defs>
</svg>
