<svg width="164" height="28" viewBox="0 0 164 28" fill="none" xmlns="http://www.w3.org/2000/svg">
<g clip-path="url(#clip0_5883_15774)">
<path d="M18.2214 28C10.5106 28 4.24414 21.7476 4.24414 14.0252C4.24414 6.30187 10.5106 0 18.2214 0C25.9313 0 32.1987 6.30187 32.1987 14.0252C32.1987 21.7476 25.9313 28 18.2214 28Z" fill="#FF5226"/>
<path d="M16.0579 1.89478L0.464844 26.2641H7.61282L16.6207 12.2174L16.4008 12.1176L13.9035 22.1696L19.1907 23.1029L24.625 16.2616L24.3306 16.115L22.4949 23.886L34.015 21.687L31.6649 17.81L27.5127 18.762L28.0029 19.3266L29.9364 11.2113L25.432 8.19478L19.5336 15.6241L19.8271 15.7716L22.2498 6.03691L16.0579 1.89478Z" fill="#FFDD00"/>
<path d="M16.0579 1.89478L0.464844 26.2641H7.61282L16.6207 12.2174L16.4008 12.1176L13.9035 22.1696L19.1907 23.1029L24.625 16.2616L24.3306 16.115L22.4949 23.886L27.126 23.0021L29.9364 11.2113L25.432 8.19478L19.5336 15.6241L19.8271 15.7716L22.2498 6.03691L16.0579 1.89478Z" fill="#FFDD00"/>
<path d="M37.5576 22.82L46.2486 5.20796H52.8673L54.2203 15.931L60.9257 5.20703H67.4876V22.82H61.0701V13.3653L55.1121 22.82H48.6947L47.4581 13.2785L42.7375 22.82H37.5576ZM87.2011 19.3321C87.2011 19.9285 87.2114 20.5146 87.23 21.0905C87.2496 21.6673 87.2878 22.2338 87.3456 22.791H81.3875C81.2461 22.5143 81.1306 22.2249 81.0427 21.9268C80.9254 21.5321 80.8483 21.1265 80.8126 20.7162C80.1985 21.4461 79.4214 22.0509 78.4812 22.5316C77.5605 22.9936 76.2457 23.2241 74.5386 23.2241C72.812 23.2241 71.4301 22.82 70.3939 22.0136C69.3773 21.2062 68.8695 20.1301 68.8695 18.7842C68.8695 17.5354 69.2236 16.575 69.9336 15.9021C70.6632 15.2105 71.7944 14.7298 73.3301 14.461C74.8648 14.1717 76.8309 14.028 79.2294 14.028H80.7259V13.7106C80.7259 13.0965 80.4669 12.6252 79.9488 12.2985C79.4307 11.9718 78.4616 11.8085 77.0424 11.8085C75.6419 11.8085 74.3374 11.9914 73.1279 12.3564C71.9389 12.7017 70.9698 13.048 70.2215 13.3942V9.53116C71.0658 9.22316 72.1979 8.9161 73.618 8.60903C75.0567 8.28236 76.6967 8.11903 78.5389 8.11903C80.3998 8.11903 81.9727 8.2917 83.2586 8.63796C84.5445 8.96463 85.5229 9.53116 86.1938 10.3385C86.8657 11.1262 87.2011 12.222 87.2011 13.6248V19.3321ZM89.1579 8.5521H95.116L95.4608 11.0012C96.1904 10.0408 97.0625 9.33983 98.0801 8.89743C99.0967 8.45503 100.267 8.23476 101.591 8.23476C103.088 8.23476 104.43 8.50356 105.62 9.04116C106.784 9.55715 107.766 10.4109 108.44 11.4921C109.131 12.5869 109.476 13.971 109.476 15.6426C109.476 17.3142 109.131 18.7077 108.44 19.8221C107.769 20.9178 106.829 21.7448 105.62 22.301C104.411 22.8592 103.03 23.1373 101.476 23.1373C100.363 23.1444 99.2593 22.9388 98.2236 22.5316C97.2256 22.1097 96.3628 21.4461 95.6341 20.5436V26.5393H89.1579V8.55116V8.5521ZM128.24 15.6426C128.24 14.2202 128.624 12.9518 129.392 11.8374C130.178 10.723 131.291 9.84943 132.73 9.21476C134.188 8.56143 135.905 8.23476 137.882 8.23476C139.935 8.23476 141.652 8.58943 143.033 9.30063C144.433 10.0118 145.412 11.0208 145.968 12.3274C146.544 13.6341 146.62 15.1816 146.198 16.9689H134.831C135.061 17.7949 135.57 18.4193 136.356 18.8421C137.162 19.2462 138.351 19.4478 139.924 19.4478C141.018 19.4478 142.035 19.3517 142.975 19.1585C143.86 18.9628 144.734 18.7226 145.594 18.4389V21.8689C144.769 22.2534 143.848 22.5605 142.832 22.791C141.834 23.0216 140.52 23.1373 138.889 23.1373C135.301 23.1373 132.624 22.4746 130.86 21.1484C129.113 19.8034 128.24 17.9685 128.24 15.6426ZM146.745 8.55116H163.179V12.2416H158.056V22.791H151.58V12.2416H146.745V8.55116ZM110.714 8.55116H117.189V15.008L123.319 8.55116H128.903L123.204 14.489L130.082 22.791H122.254L117.189 16.5069V22.791H110.714V8.55116ZM137.911 11.4632C137.027 11.4632 136.328 11.7226 135.809 12.2416C135.291 12.7409 134.956 13.3849 134.802 14.1726H140.5C140.482 13.3849 140.27 12.7409 139.867 12.2406C139.464 11.7226 138.812 11.4632 137.911 11.4632ZM102.858 15.6426C102.858 14.489 102.541 13.5762 101.907 12.9042C101.294 12.2126 100.411 11.8664 99.2598 11.8664C98.205 11.8664 97.3216 12.193 96.6125 12.8464C95.9024 13.481 95.5474 14.4125 95.5474 15.6426C95.5474 16.8728 95.8922 17.8238 96.5836 18.4968C97.2936 19.1501 98.1854 19.4768 99.2598 19.4768C100.45 19.4768 101.341 19.1305 101.936 18.4389C102.55 17.7473 102.858 16.8149 102.858 15.6426ZM80.7259 16.6506H79.2583C77.8578 16.6506 76.8505 16.7673 76.2364 16.9978C75.6419 17.2284 75.3447 17.6698 75.3447 18.3232C75.3447 18.8804 75.5366 19.2938 75.9196 19.5626C76.3231 19.8128 76.802 19.9378 77.3593 19.9378C78.2035 19.9378 78.894 19.7838 79.4307 19.4768C79.987 19.1501 80.4193 18.7749 80.7259 18.3521V16.6506Z" fill="white"/>
</g>
<defs>
<clipPath id="clip0_5883_15774">
<rect width="164" height="28" fill="white"/>
</clipPath>
</defs>
</svg>
